<?xml version="1.0" encoding="UTF-8"?>

<!DOCTYPE svg PUBLIC '-//W3C//DTD SVG 1.0//EN' 'http://www.w3.org/TR/2001/REC-SVG-20010904/DTD/svg10.dtd'>
<svg stroke-width="1" stroke-dashoffset="0" font-size="12" stroke-dasharray="none" color-rendering="auto" font-weight="normal" color-interpolation="auto" stroke-linejoin="miter" fill="black" image-rendering="auto" font-family="&apos;sansserif&apos;" stroke-opacity="1" stroke-miterlimit="10" stroke="black" text-rendering="auto" font-style="normal" stroke-linecap="square" fill-opacity="1" shape-rendering="auto" xmlns="http://www.w3.org/2000/svg" xmlns:xlink="http://www.w3.org/1999/xlink">
  <!--Generated by the Batik Graphics2D SVG Generator-->
  <defs id="genericDefs" />
  <g>
    <defs id="defs1">
      <clipPath clipPathUnits="userSpaceOnUse" id="clipPath1">
        <path d="M-82 10 L-82 198 L635 198 L635 10 Z" />
      </clipPath>
      <clipPath clipPathUnits="userSpaceOnUse" id="clipPath2">
        <path d="M0 0 L0 188 L717 188 L717 0 Z" />
      </clipPath>
      <clipPath clipPathUnits="userSpaceOnUse" id="clipPath3">
        <path d="M-552 -10 L-552 178 L165 178 L165 -10 Z" />
      </clipPath>
      <clipPath clipPathUnits="userSpaceOnUse" id="clipPath4">
        <path d="M-558 -16 L-558 172 L159 172 L159 -16 Z" />
      </clipPath>
      <clipPath clipPathUnits="userSpaceOnUse" id="clipPath5">
        <path d="M-626.3472290039062 -16 L-626.3472290039062 172 L90.65280151367188 172 L90.65280151367188 -16 Z" />
      </clipPath>
      <clipPath clipPathUnits="userSpaceOnUse" id="clipPath6">
        <path d="M-629.8275756835938 -16 L-629.8275756835938 172 L87.17240142822266 172 L87.17240142822266 -16 Z" />
      </clipPath>
      <clipPath clipPathUnits="userSpaceOnUse" id="clipPath7">
        <path d="M-624.43017578125 -106 L-624.43017578125 82 L92.5698013305664 82 L92.5698013305664 -106 Z" />
      </clipPath>
      <clipPath clipPathUnits="userSpaceOnUse" id="clipPath8">
        <path d="M-332 -10 L-332 178 L385 178 L385 -10 Z" />
      </clipPath>
      <clipPath clipPathUnits="userSpaceOnUse" id="clipPath9">
        <path d="M-338 -16 L-338 172 L379 172 L379 -16 Z" />
      </clipPath>
      <clipPath clipPathUnits="userSpaceOnUse" id="clipPath10">
        <path d="M-375.4740905761719 -16 L-375.4740905761719 172 L341.5259094238281 172 L341.5259094238281 -16 Z" />
      </clipPath>
      <clipPath clipPathUnits="userSpaceOnUse" id="clipPath11">
        <path d="M-378.95458984375 -16 L-378.95458984375 172 L338.04541015625 172 L338.04541015625 -16 Z" />
      </clipPath>
      <clipPath clipPathUnits="userSpaceOnUse" id="clipPath12">
        <path d="M-389.6005859375 -75 L-389.6005859375 113 L327.3994140625 113 L327.3994140625 -75 Z" />
      </clipPath>
      <clipPath clipPathUnits="userSpaceOnUse" id="clipPath13">
        <path d="M-389.6005859375 -145 L-389.6005859375 43 L327.3994140625 43 L327.3994140625 -145 Z" />
      </clipPath>
      <clipPath clipPathUnits="userSpaceOnUse" id="clipPath14">
        <path d="M-102 -10 L-102 178 L615 178 L615 -10 Z" />
      </clipPath>
      <clipPath clipPathUnits="userSpaceOnUse" id="clipPath15">
        <path d="M-12.417200088500977 -42 L-12.417200088500977 146 L704.5828247070312 146 L704.5828247070312 -42 Z" />
      </clipPath>
      <clipPath clipPathUnits="userSpaceOnUse" id="clipPath16">
        <path d="M-110.28389739990234 -42 L-110.28389739990234 146 L606.7161254882812 146 L606.7161254882812 -42 Z" />
      </clipPath>
      <clipPath clipPathUnits="userSpaceOnUse" id="clipPath17">
        <path d="M-113.76439666748047 -42 L-113.76439666748047 146 L603.235595703125 146 L603.235595703125 -42 Z" />
      </clipPath>
      <clipPath clipPathUnits="userSpaceOnUse" id="clipPath18">
        <path d="M389.6005859375 75 L389.6005859375 -113 L-327.3994140625 -113 L-327.3994140625 75 Z" />
      </clipPath>
      <clipPath clipPathUnits="userSpaceOnUse" id="clipPath19">
        <path d="M-143.8061981201172 -51 L-143.8061981201172 137 L573.1937866210938 137 L573.1937866210938 -51 Z" />
      </clipPath>
      <clipPath clipPathUnits="userSpaceOnUse" id="clipPath20">
        <path d="M-149.2866973876953 -51 L-149.2866973876953 137 L567.7133178710938 137 L567.7133178710938 -51 Z" />
      </clipPath>
      <clipPath clipPathUnits="userSpaceOnUse" id="clipPath21">
        <path d="M-154.76710510253906 -51 L-154.76710510253906 137 L562.23291015625 137 L562.23291015625 -51 Z" />
      </clipPath>
      <clipPath clipPathUnits="userSpaceOnUse" id="clipPath22">
        <path d="M-227.7333984375 -51 L-227.7333984375 137 L489.2666015625 137 L489.2666015625 -51 Z" />
      </clipPath>
      <clipPath clipPathUnits="userSpaceOnUse" id="clipPath23">
        <path d="M-239.95799255371094 -51 L-239.95799255371094 137 L477.0419921875 137 L477.0419921875 -51 Z" />
      </clipPath>
      <clipPath clipPathUnits="userSpaceOnUse" id="clipPath24">
        <path d="M-306.0010070800781 -51 L-306.0010070800781 137 L410.9989929199219 137 L410.9989929199219 -51 Z" />
      </clipPath>
      <clipPath clipPathUnits="userSpaceOnUse" id="clipPath25">
        <path d="M-309.5780944824219 -51 L-309.5780944824219 137 L407.4219055175781 137 L407.4219055175781 -51 Z" />
      </clipPath>
      <clipPath clipPathUnits="userSpaceOnUse" id="clipPath26">
        <path d="M-354.21728515625 -51 L-354.21728515625 137 L362.78271484375 137 L362.78271484375 -51 Z" />
      </clipPath>
      <clipPath clipPathUnits="userSpaceOnUse" id="clipPath27">
        <path d="M389.6005859375 145 L389.6005859375 -43 L-327.3994140625 -43 L-327.3994140625 145 Z" />
      </clipPath>
      <clipPath clipPathUnits="userSpaceOnUse" id="clipPath28">
        <path d="M-124.714599609375 -121 L-124.714599609375 67 L592.285400390625 67 L592.285400390625 -121 Z" />
      </clipPath>
      <clipPath clipPathUnits="userSpaceOnUse" id="clipPath29">
        <path d="M-130.19509887695312 -121 L-130.19509887695312 67 L586.8048706054688 67 L586.8048706054688 -121 Z" />
      </clipPath>
      <clipPath clipPathUnits="userSpaceOnUse" id="clipPath30">
        <path d="M-135.67550659179688 -121 L-135.67550659179688 67 L581.3245239257812 67 L581.3245239257812 -121 Z" />
      </clipPath>
      <clipPath clipPathUnits="userSpaceOnUse" id="clipPath31">
        <path d="M-308.9845886230469 -121 L-308.9845886230469 67 L408.0154113769531 67 L408.0154113769531 -121 Z" />
      </clipPath>
      <clipPath clipPathUnits="userSpaceOnUse" id="clipPath32">
        <path d="M-312.56170654296875 -121 L-312.56170654296875 67 L404.43829345703125 67 L404.43829345703125 -121 Z" />
      </clipPath>
      <clipPath clipPathUnits="userSpaceOnUse" id="clipPath33">
        <path d="M-373.3088073730469 -121 L-373.3088073730469 67 L343.6911926269531 67 L343.6911926269531 -121 Z" />
      </clipPath>
      <clipPath clipPathUnits="userSpaceOnUse" id="clipPath34">
        <path d="M624.43017578125 106 L624.43017578125 -82 L-92.5698013305664 -82 L-92.5698013305664 106 Z" />
      </clipPath>
      <clipPath clipPathUnits="userSpaceOnUse" id="clipPath35">
        <path d="M-405.0212097167969 -82 L-405.0212097167969 106 L311.9787902832031 106 L311.9787902832031 -82 Z" />
      </clipPath>
      <clipPath clipPathUnits="userSpaceOnUse" id="clipPath36">
        <path d="M-410.501708984375 -82 L-410.501708984375 106 L306.498291015625 106 L306.498291015625 -82 Z" />
      </clipPath>
      <clipPath clipPathUnits="userSpaceOnUse" id="clipPath37">
        <path d="M-415.9820861816406 -82 L-415.9820861816406 106 L301.0179138183594 106 L301.0179138183594 -82 Z" />
      </clipPath>
      <clipPath clipPathUnits="userSpaceOnUse" id="clipPath38">
        <path d="M-488.9483947753906 -82 L-488.9483947753906 106 L228.05160522460938 106 L228.05160522460938 -82 Z" />
      </clipPath>
      <clipPath clipPathUnits="userSpaceOnUse" id="clipPath39">
        <path d="M-501.1730041503906 -82 L-501.1730041503906 106 L215.82699584960938 106 L215.82699584960938 -82 Z" />
      </clipPath>
      <clipPath clipPathUnits="userSpaceOnUse" id="clipPath40">
        <path d="M-567.2160034179688 -82 L-567.2160034179688 106 L149.78399658203125 106 L149.78399658203125 -82 Z" />
      </clipPath>
      <clipPath clipPathUnits="userSpaceOnUse" id="clipPath41">
        <path d="M-570.7930908203125 -82 L-570.7930908203125 106 L146.20689392089844 106 L146.20689392089844 -82 Z" />
      </clipPath>
      <clipPath clipPathUnits="userSpaceOnUse" id="clipPath42">
        <path d="M-615.4323120117188 -82 L-615.4323120117188 106 L101.56770324707031 106 L101.56770324707031 -82 Z" />
      </clipPath>
      <clipPath clipPathUnits="userSpaceOnUse" id="clipPath43">
        <path d="M624.43017578125 176 L624.43017578125 -12 L-92.5698013305664 -12 L-92.5698013305664 176 Z" />
      </clipPath>
      <clipPath clipPathUnits="userSpaceOnUse" id="clipPath44">
        <path d="M-430.1982116699219 -152 L-430.1982116699219 36 L286.8017883300781 36 L286.8017883300781 -152 Z" />
      </clipPath>
      <clipPath clipPathUnits="userSpaceOnUse" id="clipPath45">
        <path d="M-435.6787109375 -152 L-435.6787109375 36 L281.3212890625 36 L281.3212890625 -152 Z" />
      </clipPath>
      <clipPath clipPathUnits="userSpaceOnUse" id="clipPath46">
        <path d="M-441.1590881347656 -152 L-441.1590881347656 36 L275.8409118652344 36 L275.8409118652344 -152 Z" />
      </clipPath>
      <clipPath clipPathUnits="userSpaceOnUse" id="clipPath47">
        <path d="M-525.9310913085938 -152 L-525.9310913085938 36 L191.0688934326172 36 L191.0688934326172 -152 Z" />
      </clipPath>
      <clipPath clipPathUnits="userSpaceOnUse" id="clipPath48">
        <path d="M-529.5081787109375 -152 L-529.5081787109375 36 L187.49180603027344 36 L187.49180603027344 -152 Z" />
      </clipPath>
      <clipPath clipPathUnits="userSpaceOnUse" id="clipPath49">
        <path d="M-590.2553100585938 -152 L-590.2553100585938 36 L126.74469757080078 36 L126.74469757080078 -152 Z" />
      </clipPath>
    </defs>
    <g color-rendering="optimizeQuality" stroke-dasharray="5,5" stroke-miterlimit="1" color-interpolation="linearRGB" text-rendering="optimizeLegibility" stroke-linecap="butt" shape-rendering="geometricPrecision" image-rendering="optimizeQuality" transform="matrix(1,0,0,1,552,10)">
      <path d="M77.9301986694336 0.5 L77.9301986694336 167.5" clip-path="url(#clipPath3)" fill="none" />
      <path d="M0.5 0.5 L154.3603973388672 0.5 L154.3603973388672 25.5 L0.5 25.5 Z" stroke="none" clip-path="url(#clipPath3)" fill="white" />
      <path d="M0.5 0.5 L154.3603973388672 0.5 L154.3603973388672 25.5 L0.5 25.5 Z" stroke-dasharray="none" clip-path="url(#clipPath3)" fill="none" />
    </g>
    <g font-family="sans-serif" font-size="11" color-rendering="optimizeQuality" color-interpolation="linearRGB" text-rendering="optimizeLegibility" shape-rendering="geometricPrecision" image-rendering="optimizeQuality" transform="matrix(1,0,0,1,558,16)">
      <text x="0" y="11" xml:space="preserve" stroke="none" clip-path="url(#clipPath4)">local storage</text>
      <line x1="0" y1="12.5" x2="68.34716796875" y2="12.5" clip-path="url(#clipPath4)" fill="none" />
    </g>
    <g font-family="sans-serif" font-size="11" color-rendering="optimizeQuality" color-interpolation="linearRGB" text-rendering="optimizeLegibility" shape-rendering="geometricPrecision" image-rendering="optimizeQuality" transform="matrix(1,0,0,1,626.3472,16)">
      <text x="0" y="11" xml:space="preserve" stroke="none" clip-path="url(#clipPath5)">:</text>
      <line x1="0" y1="12.5" x2="3.48046875" y2="12.5" clip-path="url(#clipPath5)" fill="none" />
    </g>
    <g font-family="sans-serif" font-size="11" color-rendering="optimizeQuality" color-interpolation="linearRGB" text-rendering="optimizeLegibility" shape-rendering="geometricPrecision" image-rendering="optimizeQuality" transform="matrix(1,0,0,1,629.8276,16)">
      <text x="0" y="11" xml:space="preserve" stroke="none" clip-path="url(#clipPath6)">Local storage</text>
      <line x1="0" y1="12.5" x2="71.03271484375" y2="12.5" clip-path="url(#clipPath6)" fill="none" />
    </g>
    <g font-family="sans-serif" font-size="11" color-rendering="optimizeQuality" stroke-miterlimit="1" color-interpolation="linearRGB" text-rendering="optimizeLegibility" stroke="white" fill="white" stroke-linecap="butt" shape-rendering="geometricPrecision" image-rendering="optimizeQuality" transform="matrix(1,0,0,1,624.4302,106)">
      <path d="M0.5 0.5 L9.5 0.5 L9.5 71.5 L0.5 71.5 Z" stroke="none" clip-path="url(#clipPath7)" />
      <path d="M0.5 0.5 L9.5 0.5 L9.5 71.5 L0.5 71.5 Z" stroke="black" clip-path="url(#clipPath7)" fill="none" />
    </g>
    <g font-family="sans-serif" font-size="11" color-rendering="optimizeQuality" stroke-miterlimit="1" color-interpolation="linearRGB" text-rendering="optimizeLegibility" stroke="white" fill="white" stroke-linecap="butt" shape-rendering="geometricPrecision" image-rendering="optimizeQuality" transform="matrix(1,0,0,1,332,10)">
      <path d="M63.10060119628906 0.5 L63.10060119628906 167.5" stroke="none" clip-path="url(#clipPath8)" />
      <path d="M63.10060119628906 0.5 L63.10060119628906 167.5" stroke-dasharray="5,5" stroke="black" clip-path="url(#clipPath8)" fill="none" />
      <path d="M0.5 0.5 L124.70120239257812 0.5 L124.70120239257812 25.5 L0.5 25.5 Z" stroke-dasharray="5,5" stroke="none" clip-path="url(#clipPath8)" />
      <path d="M0.5 0.5 L124.70120239257812 0.5 L124.70120239257812 25.5 L0.5 25.5 Z" stroke="black" clip-path="url(#clipPath8)" fill="none" />
    </g>
    <g font-family="sans-serif" font-size="11" color-rendering="optimizeQuality" color-interpolation="linearRGB" text-rendering="optimizeLegibility" shape-rendering="geometricPrecision" image-rendering="optimizeQuality" transform="matrix(1,0,0,1,338,16)">
      <text x="0" y="11" xml:space="preserve" stroke="none" clip-path="url(#clipPath9)">system</text>
      <line x1="0" y1="12.5" x2="37.47412109375" y2="12.5" clip-path="url(#clipPath9)" fill="none" />
    </g>
    <g font-family="sans-serif" font-size="11" color-rendering="optimizeQuality" color-interpolation="linearRGB" text-rendering="optimizeLegibility" shape-rendering="geometricPrecision" image-rendering="optimizeQuality" transform="matrix(1,0,0,1,375.4741,16)">
      <text x="0" y="11" xml:space="preserve" stroke="none" clip-path="url(#clipPath10)">:</text>
      <line x1="0" y1="12.5" x2="3.48046875" y2="12.5" clip-path="url(#clipPath10)" fill="none" />
    </g>
    <g font-family="sans-serif" font-size="11" color-rendering="optimizeQuality" color-interpolation="linearRGB" text-rendering="optimizeLegibility" shape-rendering="geometricPrecision" image-rendering="optimizeQuality" transform="matrix(1,0,0,1,378.9546,16)">
      <text x="0" y="11" xml:space="preserve" stroke="none" clip-path="url(#clipPath11)">Playlist editor</text>
      <line x1="0" y1="12.5" x2="72.24658203125" y2="12.5" clip-path="url(#clipPath11)" fill="none" />
    </g>
    <g font-family="sans-serif" font-size="11" color-rendering="optimizeQuality" stroke-miterlimit="1" color-interpolation="linearRGB" text-rendering="optimizeLegibility" stroke="white" fill="white" stroke-linecap="butt" shape-rendering="geometricPrecision" image-rendering="optimizeQuality" transform="matrix(1,0,0,1,389.6006,75)">
      <path d="M0.5 0.5 L9.5 0.5 L9.5 31.5 L0.5 31.5 Z" stroke="none" clip-path="url(#clipPath12)" />
      <path d="M0.5 0.5 L9.5 0.5 L9.5 31.5 L0.5 31.5 Z" stroke="black" clip-path="url(#clipPath12)" fill="none" />
    </g>
    <g font-family="sans-serif" font-size="11" color-rendering="optimizeQuality" stroke-miterlimit="1" color-interpolation="linearRGB" text-rendering="optimizeLegibility" stroke="white" fill="white" stroke-linecap="butt" shape-rendering="geometricPrecision" image-rendering="optimizeQuality" transform="matrix(1,0,0,1,389.6006,145)">
      <path d="M0.5 0.5 L9.5 0.5 L9.5 31.5 L0.5 31.5 Z" stroke="none" clip-path="url(#clipPath13)" />
      <path d="M0.5 0.5 L9.5 0.5 L9.5 31.5 L0.5 31.5 Z" stroke="black" clip-path="url(#clipPath13)" fill="none" />
    </g>
    <g font-family="sans-serif" font-size="11" color-rendering="optimizeQuality" stroke-miterlimit="1" color-interpolation="linearRGB" text-rendering="optimizeLegibility" stroke="white" fill="white" stroke-linecap="butt" shape-rendering="geometricPrecision" image-rendering="optimizeQuality" transform="matrix(1,0,0,1,102,10)">
      <path d="M10.5 48.5 L10.5 167.5" stroke="none" clip-path="url(#clipPath14)" />
      <path d="M10.5 48.5 L10.5 167.5" stroke-dasharray="5,5" stroke="black" clip-path="url(#clipPath14)" fill="none" />
      <path d="M10 8 C5 8 5 0 10 0 C15 0 15 8 10 8 M10 8 L10 10 M0 10 L20 10 M10 10 L10 20 M10 20 L0 30 M10 20 L20 30" stroke-dasharray="5,5" stroke="none" clip-path="url(#clipPath14)" />
      <path d="M10 8 C5 8 5 0 10 0 C15 0 15 8 10 8 M10 8 L10 10 M0 10 L20 10 M10 10 L10 20 M10 20 L0 30 M10 20 L20 30" stroke="black" clip-path="url(#clipPath14)" fill="none" />
    </g>
    <g font-family="sans-serif" font-size="11" color-rendering="optimizeQuality" color-interpolation="linearRGB" text-rendering="optimizeLegibility" shape-rendering="geometricPrecision" image-rendering="optimizeQuality" transform="matrix(1,0,0,1,12.417199999999994,42)">
      <text x="0" y="11" xml:space="preserve" stroke="none" clip-path="url(#clipPath15)">playlist Maintainer</text>
      <line x1="0" y1="12.5" x2="97.86669921875" y2="12.5" clip-path="url(#clipPath15)" fill="none" />
    </g>
    <g font-family="sans-serif" font-size="11" color-rendering="optimizeQuality" color-interpolation="linearRGB" text-rendering="optimizeLegibility" shape-rendering="geometricPrecision" image-rendering="optimizeQuality" transform="matrix(1,0,0,1,110.28389999999999,42)">
      <text x="0" y="11" xml:space="preserve" stroke="none" clip-path="url(#clipPath16)">:</text>
      <line x1="0" y1="12.5" x2="3.48046875" y2="12.5" clip-path="url(#clipPath16)" fill="none" />
    </g>
    <g font-family="sans-serif" font-size="11" color-rendering="optimizeQuality" color-interpolation="linearRGB" text-rendering="optimizeLegibility" shape-rendering="geometricPrecision" image-rendering="optimizeQuality" transform="matrix(1,0,0,1,113.7644,42)">
      <text x="0" y="11" xml:space="preserve" stroke="none" clip-path="url(#clipPath17)">Playlist maintainer</text>
      <line x1="0" y1="12.5" x2="97.818359375" y2="12.5" clip-path="url(#clipPath17)" fill="none" />
    </g>
    <g font-family="sans-serif" font-size="11" color-rendering="optimizeQuality" stroke-miterlimit="1" color-interpolation="linearRGB" text-rendering="optimizeLegibility" stroke-linecap="butt" shape-rendering="geometricPrecision" image-rendering="optimizeQuality" transform="matrix(1,0,0,1,82,-10)">
      <path d="M30 85 L307.6005859375 85" clip-path="url(#clipPath1)" fill="none" />
      <path d="M12 -6 L0 0 L12 6 Z" stroke="none" clip-path="url(#clipPath18)" transform="matrix(-0.9999999999999999,-3.219646771412954E-15,3.219646771412954E-15,-0.9999999999999999,307.6006,85)" />
      <path d="M12 -6 L0 0 L12 6 Z" stroke-miterlimit="10" clip-path="url(#clipPath18)" fill="none" stroke-linecap="square" transform="matrix(-0.9999999999999999,-3.219646771412954E-15,3.219646771412954E-15,-0.9999999999999999,307.6006,85)" />
    </g>
    <g font-family="sans-serif" font-size="11" color-rendering="optimizeQuality" color-interpolation="linearRGB" text-rendering="optimizeLegibility" shape-rendering="geometricPrecision" image-rendering="optimizeQuality" transform="matrix(1,0,0,1,143.8062,51)">
      <text x="0" y="11" xml:space="preserve" stroke="none" clip-path="url(#clipPath19)"> </text>
    </g>
    <g font-family="sans-serif" font-size="11" color-rendering="optimizeQuality" color-interpolation="linearRGB" text-rendering="optimizeLegibility" shape-rendering="geometricPrecision" image-rendering="optimizeQuality" transform="matrix(1,0,0,1,149.2867,51)">
      <text x="0" y="11" xml:space="preserve" stroke="none" clip-path="url(#clipPath20)">:</text>
    </g>
    <g font-family="sans-serif" font-size="11" color-rendering="optimizeQuality" color-interpolation="linearRGB" text-rendering="optimizeLegibility" shape-rendering="geometricPrecision" image-rendering="optimizeQuality" transform="matrix(1,0,0,1,154.7671,51)">
      <text x="0" y="11" xml:space="preserve" stroke="none" clip-path="url(#clipPath21)">authenticated</text>
    </g>
    <g font-family="sans-serif" font-size="11" color-rendering="optimizeQuality" color-interpolation="linearRGB" text-rendering="optimizeLegibility" shape-rendering="geometricPrecision" image-rendering="optimizeQuality" transform="matrix(1,0,0,1,227.73340000000002,51)">
      <text x="0" y="11" xml:space="preserve" stroke="none" clip-path="url(#clipPath22)">:=</text>
    </g>
    <g font-family="sans-serif" font-size="11" color-rendering="optimizeQuality" color-interpolation="linearRGB" text-rendering="optimizeLegibility" shape-rendering="geometricPrecision" image-rendering="optimizeQuality" transform="matrix(1,0,0,1,239.958,51)">
      <text x="0" y="11" xml:space="preserve" stroke="none" clip-path="url(#clipPath23)">authenticate</text>
    </g>
    <g font-family="sans-serif" font-size="11" color-rendering="optimizeQuality" color-interpolation="linearRGB" text-rendering="optimizeLegibility" shape-rendering="geometricPrecision" image-rendering="optimizeQuality" transform="matrix(1,0,0,1,306.001,51)">
      <text x="0" y="11" xml:space="preserve" stroke="none" clip-path="url(#clipPath24)">(</text>
    </g>
    <g font-family="sans-serif" font-size="11" color-rendering="optimizeQuality" color-interpolation="linearRGB" text-rendering="optimizeLegibility" shape-rendering="geometricPrecision" image-rendering="optimizeQuality" transform="matrix(1,0,0,1,309.5781,51)">
      <text x="0" y="11" xml:space="preserve" stroke="none" clip-path="url(#clipPath25)">authInfo</text>
    </g>
    <g font-family="sans-serif" font-size="11" color-rendering="optimizeQuality" color-interpolation="linearRGB" text-rendering="optimizeLegibility" shape-rendering="geometricPrecision" image-rendering="optimizeQuality" transform="matrix(1,0,0,1,354.2173,51)">
      <text x="0" y="11" xml:space="preserve" stroke="none" clip-path="url(#clipPath26)">)</text>
    </g>
    <g font-family="sans-serif" font-size="11" color-rendering="optimizeQuality" stroke-miterlimit="1" color-interpolation="linearRGB" text-rendering="optimizeLegibility" stroke-linecap="butt" shape-rendering="geometricPrecision" image-rendering="optimizeQuality" transform="matrix(1,0,0,1,82,-10)">
      <path d="M30 155 L307.6005859375 155" clip-path="url(#clipPath1)" fill="none" />
      <path d="M12 -6 L0 0 L12 6 Z" stroke="none" clip-path="url(#clipPath27)" transform="matrix(-1,1.3211653993039363E-14,-1.3211653993039363E-14,-1,307.6006,155)" />
      <path d="M12 -6 L0 0 L12 6 Z" stroke-miterlimit="10" clip-path="url(#clipPath27)" fill="none" stroke-linecap="square" transform="matrix(-1,1.3211653993039363E-14,-1.3211653993039363E-14,-1,307.6006,155)" />
    </g>
    <g font-family="sans-serif" font-size="11" color-rendering="optimizeQuality" color-interpolation="linearRGB" text-rendering="optimizeLegibility" shape-rendering="geometricPrecision" image-rendering="optimizeQuality" transform="matrix(1,0,0,1,124.71459999999999,121)">
      <text x="0" y="11" xml:space="preserve" stroke="none" clip-path="url(#clipPath28)"> </text>
    </g>
    <g font-family="sans-serif" font-size="11" color-rendering="optimizeQuality" color-interpolation="linearRGB" text-rendering="optimizeLegibility" shape-rendering="geometricPrecision" image-rendering="optimizeQuality" transform="matrix(1,0,0,1,130.1951,121)">
      <text x="0" y="11" xml:space="preserve" stroke="none" clip-path="url(#clipPath29)">:</text>
    </g>
    <g font-family="sans-serif" font-size="11" color-rendering="optimizeQuality" color-interpolation="linearRGB" text-rendering="optimizeLegibility" shape-rendering="geometricPrecision" image-rendering="optimizeQuality" transform="matrix(1,0,0,1,135.6755,121)">
      <text x="0" y="11" xml:space="preserve" stroke="none" clip-path="url(#clipPath30)">deleteAudiClipFromLocalStorage</text>
    </g>
    <g font-family="sans-serif" font-size="11" color-rendering="optimizeQuality" color-interpolation="linearRGB" text-rendering="optimizeLegibility" shape-rendering="geometricPrecision" image-rendering="optimizeQuality" transform="matrix(1,0,0,1,308.9846,121)">
      <text x="0" y="11" xml:space="preserve" stroke="none" clip-path="url(#clipPath31)">(</text>
    </g>
    <g font-family="sans-serif" font-size="11" color-rendering="optimizeQuality" color-interpolation="linearRGB" text-rendering="optimizeLegibility" shape-rendering="geometricPrecision" image-rendering="optimizeQuality" transform="matrix(1,0,0,1,312.5617,121)">
      <text x="0" y="11" xml:space="preserve" stroke="none" clip-path="url(#clipPath32)">audioClipId</text>
    </g>
    <g font-family="sans-serif" font-size="11" color-rendering="optimizeQuality" color-interpolation="linearRGB" text-rendering="optimizeLegibility" shape-rendering="geometricPrecision" image-rendering="optimizeQuality" transform="matrix(1,0,0,1,373.3088,121)">
      <text x="0" y="11" xml:space="preserve" stroke="none" clip-path="url(#clipPath33)">)</text>
    </g>
    <g font-family="sans-serif" font-size="11" color-rendering="optimizeQuality" stroke-miterlimit="1" color-interpolation="linearRGB" text-rendering="optimizeLegibility" stroke-linecap="butt" shape-rendering="geometricPrecision" image-rendering="optimizeQuality" transform="matrix(1,0,0,1,82,-10)">
      <path d="M317.6005859375 116 L542.43017578125 116" clip-path="url(#clipPath1)" fill="none" />
      <path d="M12 -6 L0 0 L12 6 Z" stroke="none" clip-path="url(#clipPath34)" transform="matrix(-1,5.218048215738236E-15,-5.218048215738236E-15,-1,542.4302,116)" />
      <path d="M12 -6 L0 0 L12 6 Z" stroke-miterlimit="10" clip-path="url(#clipPath34)" fill="none" stroke-linecap="square" transform="matrix(-1,5.218048215738236E-15,-5.218048215738236E-15,-1,542.4302,116)" />
    </g>
    <g font-family="sans-serif" font-size="11" color-rendering="optimizeQuality" color-interpolation="linearRGB" text-rendering="optimizeLegibility" shape-rendering="geometricPrecision" image-rendering="optimizeQuality" transform="matrix(1,0,0,1,405.0212,82)">
      <text x="0" y="11" xml:space="preserve" stroke="none" clip-path="url(#clipPath35)"> </text>
    </g>
    <g font-family="sans-serif" font-size="11" color-rendering="optimizeQuality" color-interpolation="linearRGB" text-rendering="optimizeLegibility" shape-rendering="geometricPrecision" image-rendering="optimizeQuality" transform="matrix(1,0,0,1,410.5017,82)">
      <text x="0" y="11" xml:space="preserve" stroke="none" clip-path="url(#clipPath36)">:</text>
    </g>
    <g font-family="sans-serif" font-size="11" color-rendering="optimizeQuality" color-interpolation="linearRGB" text-rendering="optimizeLegibility" shape-rendering="geometricPrecision" image-rendering="optimizeQuality" transform="matrix(1,0,0,1,415.9821,82)">
      <text x="0" y="11" xml:space="preserve" stroke="none" clip-path="url(#clipPath37)">authenticated</text>
    </g>
    <g font-family="sans-serif" font-size="11" color-rendering="optimizeQuality" color-interpolation="linearRGB" text-rendering="optimizeLegibility" shape-rendering="geometricPrecision" image-rendering="optimizeQuality" transform="matrix(1,0,0,1,488.9484,82)">
      <text x="0" y="11" xml:space="preserve" stroke="none" clip-path="url(#clipPath38)">:=</text>
    </g>
    <g font-family="sans-serif" font-size="11" color-rendering="optimizeQuality" color-interpolation="linearRGB" text-rendering="optimizeLegibility" shape-rendering="geometricPrecision" image-rendering="optimizeQuality" transform="matrix(1,0,0,1,501.173,82)">
      <text x="0" y="11" xml:space="preserve" stroke="none" clip-path="url(#clipPath39)">authenticate</text>
    </g>
    <g font-family="sans-serif" font-size="11" color-rendering="optimizeQuality" color-interpolation="linearRGB" text-rendering="optimizeLegibility" shape-rendering="geometricPrecision" image-rendering="optimizeQuality" transform="matrix(1,0,0,1,567.216,82)">
      <text x="0" y="11" xml:space="preserve" stroke="none" clip-path="url(#clipPath40)">(</text>
    </g>
    <g font-family="sans-serif" font-size="11" color-rendering="optimizeQuality" color-interpolation="linearRGB" text-rendering="optimizeLegibility" shape-rendering="geometricPrecision" image-rendering="optimizeQuality" transform="matrix(1,0,0,1,570.7931,82)">
      <text x="0" y="11" xml:space="preserve" stroke="none" clip-path="url(#clipPath41)">authInfo</text>
    </g>
    <g font-family="sans-serif" font-size="11" color-rendering="optimizeQuality" color-interpolation="linearRGB" text-rendering="optimizeLegibility" shape-rendering="geometricPrecision" image-rendering="optimizeQuality" transform="matrix(1,0,0,1,615.4322999999999,82)">
      <text x="0" y="11" xml:space="preserve" stroke="none" clip-path="url(#clipPath42)">)</text>
    </g>
    <g font-family="sans-serif" font-size="11" color-rendering="optimizeQuality" stroke-miterlimit="1" color-interpolation="linearRGB" text-rendering="optimizeLegibility" stroke-linecap="butt" shape-rendering="geometricPrecision" image-rendering="optimizeQuality" transform="matrix(1,0,0,1,82,-10)">
      <path d="M317.6005859375 186 L542.43017578125 186" clip-path="url(#clipPath1)" fill="none" />
      <path d="M12 -6 L0 0 L12 6 Z" stroke="none" clip-path="url(#clipPath43)" transform="matrix(-1,3.885780586188048E-15,-3.885780586188048E-15,-1,542.4302,186)" />
      <path d="M12 -6 L0 0 L12 6 Z" stroke-miterlimit="10" clip-path="url(#clipPath43)" fill="none" stroke-linecap="square" transform="matrix(-1,3.885780586188048E-15,-3.885780586188048E-15,-1,542.4302,186)" />
    </g>
    <g font-family="sans-serif" font-size="11" color-rendering="optimizeQuality" color-interpolation="linearRGB" text-rendering="optimizeLegibility" shape-rendering="geometricPrecision" image-rendering="optimizeQuality" transform="matrix(1,0,0,1,430.1982,152)">
      <text x="0" y="11" xml:space="preserve" stroke="none" clip-path="url(#clipPath44)"> </text>
    </g>
    <g font-family="sans-serif" font-size="11" color-rendering="optimizeQuality" color-interpolation="linearRGB" text-rendering="optimizeLegibility" shape-rendering="geometricPrecision" image-rendering="optimizeQuality" transform="matrix(1,0,0,1,435.6787,152)">
      <text x="0" y="11" xml:space="preserve" stroke="none" clip-path="url(#clipPath45)">:</text>
    </g>
    <g font-family="sans-serif" font-size="11" color-rendering="optimizeQuality" color-interpolation="linearRGB" text-rendering="optimizeLegibility" shape-rendering="geometricPrecision" image-rendering="optimizeQuality" transform="matrix(1,0,0,1,441.15909999999997,152)">
      <text x="0" y="11" xml:space="preserve" stroke="none" clip-path="url(#clipPath46)">deleteAudioClip</text>
    </g>
    <g font-family="sans-serif" font-size="11" color-rendering="optimizeQuality" color-interpolation="linearRGB" text-rendering="optimizeLegibility" shape-rendering="geometricPrecision" image-rendering="optimizeQuality" transform="matrix(1,0,0,1,525.9311,152)">
      <text x="0" y="11" xml:space="preserve" stroke="none" clip-path="url(#clipPath47)">(</text>
    </g>
    <g font-family="sans-serif" font-size="11" color-rendering="optimizeQuality" color-interpolation="linearRGB" text-rendering="optimizeLegibility" shape-rendering="geometricPrecision" image-rendering="optimizeQuality" transform="matrix(1,0,0,1,529.5082,152)">
      <text x="0" y="11" xml:space="preserve" stroke="none" clip-path="url(#clipPath48)">audioClipId</text>
    </g>
    <g font-family="sans-serif" font-size="11" color-rendering="optimizeQuality" color-interpolation="linearRGB" text-rendering="optimizeLegibility" shape-rendering="geometricPrecision" image-rendering="optimizeQuality" transform="matrix(1,0,0,1,590.2553,152)">
      <text x="0" y="11" xml:space="preserve" stroke="none" clip-path="url(#clipPath49)">)</text>
    </g>
  </g>
</svg>
