<?xml version="1.0" encoding="UTF-8"?>

<!DOCTYPE svg PUBLIC '-//W3C//DTD SVG 1.0//EN' 'http://www.w3.org/TR/2001/REC-SVG-20010904/DTD/svg10.dtd'>
<svg stroke-width="1" stroke-dashoffset="0" font-size="12" stroke-dasharray="none" color-rendering="auto" font-weight="normal" color-interpolation="auto" stroke-linejoin="miter" fill="black" image-rendering="auto" font-family="&apos;sansserif&apos;" stroke-opacity="1" stroke-miterlimit="10" stroke="black" text-rendering="auto" font-style="normal" stroke-linecap="square" fill-opacity="1" shape-rendering="auto" xmlns="http://www.w3.org/2000/svg" xmlns:xlink="http://www.w3.org/1999/xlink">
  <!--Generated by the Batik Graphics2D SVG Generator-->
  <defs id="genericDefs" />
  <g>
    <defs id="defs1">
      <clipPath clipPathUnits="userSpaceOnUse" id="clipPath1">
        <path d="M-84 10 L-84 132 L567 132 L567 10 Z" />
      </clipPath>
      <clipPath clipPathUnits="userSpaceOnUse" id="clipPath2">
        <path d="M0 0 L0 122 L651 122 L651 0 Z" />
      </clipPath>
      <clipPath clipPathUnits="userSpaceOnUse" id="clipPath3">
        <path d="M-104 -10 L-104 112 L547 112 L547 -10 Z" />
      </clipPath>
      <clipPath clipPathUnits="userSpaceOnUse" id="clipPath4">
        <path d="M-12.808600425720215 -42 L-12.808600425720215 80 L638.19140625 80 L638.19140625 -42 Z" />
      </clipPath>
      <clipPath clipPathUnits="userSpaceOnUse" id="clipPath5">
        <path d="M-111.50240325927734 -42 L-111.50240325927734 80 L539.4976196289062 80 L539.4976196289062 -42 Z" />
      </clipPath>
      <clipPath clipPathUnits="userSpaceOnUse" id="clipPath6">
        <path d="M-114.98290252685547 -42 L-114.98290252685547 80 L536.01708984375 80 L536.01708984375 -42 Z" />
      </clipPath>
      <clipPath clipPathUnits="userSpaceOnUse" id="clipPath7">
        <path d="M-514 -10 L-514 112 L137 112 L137 -10 Z" />
      </clipPath>
      <clipPath clipPathUnits="userSpaceOnUse" id="clipPath8">
        <path d="M-520 -16 L-520 106 L131 106 L131 -16 Z" />
      </clipPath>
      <clipPath clipPathUnits="userSpaceOnUse" id="clipPath9">
        <path d="M-557.47412109375 -16 L-557.47412109375 106 L93.5259017944336 106 L93.5259017944336 -16 Z" />
      </clipPath>
      <clipPath clipPathUnits="userSpaceOnUse" id="clipPath10">
        <path d="M-560.95458984375 -16 L-560.95458984375 106 L90.04540252685547 106 L90.04540252685547 -16 Z" />
      </clipPath>
      <clipPath clipPathUnits="userSpaceOnUse" id="clipPath11">
        <path d="M-572.1270141601562 -75 L-572.1270141601562 47 L78.87300109863281 47 L78.87300109863281 -75 Z" />
      </clipPath>
      <clipPath clipPathUnits="userSpaceOnUse" id="clipPath12">
        <path d="M572.1270141601562 75 L572.1270141601562 -47 L-78.87300109863281 -47 L-78.87300109863281 75 Z" />
      </clipPath>
      <clipPath clipPathUnits="userSpaceOnUse" id="clipPath13">
        <path d="M-236.06939697265625 -51 L-236.06939697265625 71 L414.93060302734375 71 L414.93060302734375 -51 Z" />
      </clipPath>
      <clipPath clipPathUnits="userSpaceOnUse" id="clipPath14">
        <path d="M-241.54989624023438 -51 L-241.54989624023438 71 L409.4501037597656 71 L409.4501037597656 -51 Z" />
      </clipPath>
      <clipPath clipPathUnits="userSpaceOnUse" id="clipPath15">
        <path d="M-247.03030395507812 -51 L-247.03030395507812 71 L403.9696960449219 71 L403.9696960449219 -51 Z" />
      </clipPath>
      <clipPath clipPathUnits="userSpaceOnUse" id="clipPath16">
        <path d="M-319.9966125488281 -51 L-319.9966125488281 71 L331.0033874511719 71 L331.0033874511719 -51 Z" />
      </clipPath>
      <clipPath clipPathUnits="userSpaceOnUse" id="clipPath17">
        <path d="M-332.22119140625 -51 L-332.22119140625 71 L318.77880859375 71 L318.77880859375 -51 Z" />
      </clipPath>
      <clipPath clipPathUnits="userSpaceOnUse" id="clipPath18">
        <path d="M-398.2641906738281 -51 L-398.2641906738281 71 L252.7357940673828 71 L252.7357940673828 -51 Z" />
      </clipPath>
      <clipPath clipPathUnits="userSpaceOnUse" id="clipPath19">
        <path d="M-401.84130859375 -51 L-401.84130859375 71 L249.15870666503906 71 L249.15870666503906 -51 Z" />
      </clipPath>
      <clipPath clipPathUnits="userSpaceOnUse" id="clipPath20">
        <path d="M-446.4804992675781 -51 L-446.4804992675781 71 L204.51950073242188 71 L204.51950073242188 -51 Z" />
      </clipPath>
      <clipPath clipPathUnits="userSpaceOnUse" id="clipPath21">
        <path d="M572.1270141601562 110 L572.1270141601562 -12 L-78.87300109863281 -12 L-78.87300109863281 110 Z" />
      </clipPath>
      <clipPath clipPathUnits="userSpaceOnUse" id="clipPath22">
        <path d="M-261.24639892578125 -86 L-261.24639892578125 36 L389.75360107421875 36 L389.75360107421875 -86 Z" />
      </clipPath>
      <clipPath clipPathUnits="userSpaceOnUse" id="clipPath23">
        <path d="M-266.7268981933594 -86 L-266.7268981933594 36 L384.2731018066406 36 L384.2731018066406 -86 Z" />
      </clipPath>
      <clipPath clipPathUnits="userSpaceOnUse" id="clipPath24">
        <path d="M-272.2073059082031 -86 L-272.2073059082031 36 L378.7926940917969 36 L378.7926940917969 -86 Z" />
      </clipPath>
      <clipPath clipPathUnits="userSpaceOnUse" id="clipPath25">
        <path d="M-356.97930908203125 -86 L-356.97930908203125 36 L294.02069091796875 36 L294.02069091796875 -86 Z" />
      </clipPath>
      <clipPath clipPathUnits="userSpaceOnUse" id="clipPath26">
        <path d="M-360.556396484375 -86 L-360.556396484375 36 L290.443603515625 36 L290.443603515625 -86 Z" />
      </clipPath>
      <clipPath clipPathUnits="userSpaceOnUse" id="clipPath27">
        <path d="M-421.3034973144531 -86 L-421.3034973144531 36 L229.69650268554688 36 L229.69650268554688 -86 Z" />
      </clipPath>
    </defs>
    <g color-rendering="optimizeQuality" stroke-dasharray="5,5" stroke-miterlimit="1" color-interpolation="linearRGB" text-rendering="optimizeLegibility" stroke-linecap="butt" shape-rendering="geometricPrecision" image-rendering="optimizeQuality" transform="matrix(1,0,0,1,104,10)">
      <path d="M10.5 48.5 L10.5 101.5" clip-path="url(#clipPath3)" fill="none" />
      <path d="M10 8 C5 8 5 0 10 0 C15 0 15 8 10 8 M10 8 L10 10 M0 10 L20 10 M10 10 L10 20 M10 20 L0 30 M10 20 L20 30" stroke="none" clip-path="url(#clipPath3)" fill="white" />
      <path d="M10 8 C5 8 5 0 10 0 C15 0 15 8 10 8 M10 8 L10 10 M0 10 L20 10 M10 10 L10 20 M10 20 L0 30 M10 20 L20 30" stroke-dasharray="none" clip-path="url(#clipPath3)" fill="none" />
    </g>
    <g font-family="sans-serif" font-size="11" color-rendering="optimizeQuality" color-interpolation="linearRGB" text-rendering="optimizeLegibility" shape-rendering="geometricPrecision" image-rendering="optimizeQuality" transform="matrix(1,0,0,1,12.808599999999998,42)">
      <text x="0" y="11" xml:space="preserve" stroke="none" clip-path="url(#clipPath4)">archive maintainer</text>
      <line x1="0" y1="12.5" x2="98.69384765625" y2="12.5" clip-path="url(#clipPath4)" fill="none" />
    </g>
    <g font-family="sans-serif" font-size="11" color-rendering="optimizeQuality" color-interpolation="linearRGB" text-rendering="optimizeLegibility" shape-rendering="geometricPrecision" image-rendering="optimizeQuality" transform="matrix(1,0,0,1,111.5024,42)">
      <text x="0" y="11" xml:space="preserve" stroke="none" clip-path="url(#clipPath5)">:</text>
      <line x1="0" y1="12.5" x2="3.48046875" y2="12.5" clip-path="url(#clipPath5)" fill="none" />
    </g>
    <g font-family="sans-serif" font-size="11" color-rendering="optimizeQuality" color-interpolation="linearRGB" text-rendering="optimizeLegibility" shape-rendering="geometricPrecision" image-rendering="optimizeQuality" transform="matrix(1,0,0,1,114.9829,42)">
      <text x="0" y="11" xml:space="preserve" stroke="none" clip-path="url(#clipPath6)">Archive maintainer</text>
      <line x1="0" y1="12.5" x2="100.20849609375" y2="12.5" clip-path="url(#clipPath6)" fill="none" />
    </g>
    <g font-family="sans-serif" font-size="11" color-rendering="optimizeQuality" stroke-miterlimit="1" color-interpolation="linearRGB" text-rendering="optimizeLegibility" stroke="white" fill="white" stroke-linecap="butt" shape-rendering="geometricPrecision" image-rendering="optimizeQuality" transform="matrix(1,0,0,1,514,10)">
      <path d="M63.626949310302734 0.5 L63.626949310302734 101.5" stroke="none" clip-path="url(#clipPath7)" />
      <path d="M63.626949310302734 0.5 L63.626949310302734 101.5" stroke-dasharray="5,5" stroke="black" clip-path="url(#clipPath7)" fill="none" />
      <path d="M0.5 0.5 L125.75389862060547 0.5 L125.75389862060547 25.5 L0.5 25.5 Z" stroke-dasharray="5,5" stroke="none" clip-path="url(#clipPath7)" />
      <path d="M0.5 0.5 L125.75389862060547 0.5 L125.75389862060547 25.5 L0.5 25.5 Z" stroke="black" clip-path="url(#clipPath7)" fill="none" />
    </g>
    <g font-family="sans-serif" font-size="11" color-rendering="optimizeQuality" color-interpolation="linearRGB" text-rendering="optimizeLegibility" shape-rendering="geometricPrecision" image-rendering="optimizeQuality" transform="matrix(1,0,0,1,520,16)">
      <text x="0" y="11" xml:space="preserve" stroke="none" clip-path="url(#clipPath8)">system</text>
      <line x1="0" y1="12.5" x2="37.47412109375" y2="12.5" clip-path="url(#clipPath8)" fill="none" />
    </g>
    <g font-family="sans-serif" font-size="11" color-rendering="optimizeQuality" color-interpolation="linearRGB" text-rendering="optimizeLegibility" shape-rendering="geometricPrecision" image-rendering="optimizeQuality" transform="matrix(1,0,0,1,557.4741,16)">
      <text x="0" y="11" xml:space="preserve" stroke="none" clip-path="url(#clipPath9)">:</text>
      <line x1="0" y1="12.5" x2="3.48046875" y2="12.5" clip-path="url(#clipPath9)" fill="none" />
    </g>
    <g font-family="sans-serif" font-size="11" color-rendering="optimizeQuality" color-interpolation="linearRGB" text-rendering="optimizeLegibility" shape-rendering="geometricPrecision" image-rendering="optimizeQuality" transform="matrix(1,0,0,1,560.9546,16)">
      <text x="0" y="11" xml:space="preserve" stroke="none" clip-path="url(#clipPath10)">Media archive</text>
      <line x1="0" y1="12.5" x2="73.29931640625" y2="12.5" clip-path="url(#clipPath10)" fill="none" />
    </g>
    <g font-family="sans-serif" font-size="11" color-rendering="optimizeQuality" stroke-miterlimit="1" color-interpolation="linearRGB" text-rendering="optimizeLegibility" stroke="white" fill="white" stroke-linecap="butt" shape-rendering="geometricPrecision" image-rendering="optimizeQuality" transform="matrix(1,0,0,1,572.127,75)">
      <path d="M0.5 0.5 L9.5 0.5 L9.5 36.5 L0.5 36.5 Z" stroke="none" clip-path="url(#clipPath11)" />
      <path d="M0.5 0.5 L9.5 0.5 L9.5 36.5 L0.5 36.5 Z" stroke="black" clip-path="url(#clipPath11)" fill="none" />
    </g>
    <g font-family="sans-serif" font-size="11" color-rendering="optimizeQuality" stroke-miterlimit="1" color-interpolation="linearRGB" text-rendering="optimizeLegibility" stroke-linecap="butt" shape-rendering="geometricPrecision" image-rendering="optimizeQuality" transform="matrix(1,0,0,1,84,-10)">
      <path d="M30 85 L488.12701416015625 85" clip-path="url(#clipPath1)" fill="none" />
      <path d="M12 -6 L0 0 L12 6 Z" stroke="none" clip-path="url(#clipPath12)" transform="matrix(-0.9999999999999999,-3.219646771412954E-15,3.219646771412954E-15,-0.9999999999999999,488.127,85)" />
      <path d="M12 -6 L0 0 L12 6 Z" stroke-miterlimit="10" clip-path="url(#clipPath12)" fill="none" stroke-linecap="square" transform="matrix(-0.9999999999999999,-3.219646771412954E-15,3.219646771412954E-15,-0.9999999999999999,488.127,85)" />
    </g>
    <g font-family="sans-serif" font-size="11" color-rendering="optimizeQuality" color-interpolation="linearRGB" text-rendering="optimizeLegibility" shape-rendering="geometricPrecision" image-rendering="optimizeQuality" transform="matrix(1,0,0,1,236.0694,51)">
      <text x="0" y="11" xml:space="preserve" stroke="none" clip-path="url(#clipPath13)"> </text>
    </g>
    <g font-family="sans-serif" font-size="11" color-rendering="optimizeQuality" color-interpolation="linearRGB" text-rendering="optimizeLegibility" shape-rendering="geometricPrecision" image-rendering="optimizeQuality" transform="matrix(1,0,0,1,241.5499,51)">
      <text x="0" y="11" xml:space="preserve" stroke="none" clip-path="url(#clipPath14)">:</text>
    </g>
    <g font-family="sans-serif" font-size="11" color-rendering="optimizeQuality" color-interpolation="linearRGB" text-rendering="optimizeLegibility" shape-rendering="geometricPrecision" image-rendering="optimizeQuality" transform="matrix(1,0,0,1,247.0303,51)">
      <text x="0" y="11" xml:space="preserve" stroke="none" clip-path="url(#clipPath15)">authenticated</text>
    </g>
    <g font-family="sans-serif" font-size="11" color-rendering="optimizeQuality" color-interpolation="linearRGB" text-rendering="optimizeLegibility" shape-rendering="geometricPrecision" image-rendering="optimizeQuality" transform="matrix(1,0,0,1,319.9966,51)">
      <text x="0" y="11" xml:space="preserve" stroke="none" clip-path="url(#clipPath16)">:=</text>
    </g>
    <g font-family="sans-serif" font-size="11" color-rendering="optimizeQuality" color-interpolation="linearRGB" text-rendering="optimizeLegibility" shape-rendering="geometricPrecision" image-rendering="optimizeQuality" transform="matrix(1,0,0,1,332.2212,51)">
      <text x="0" y="11" xml:space="preserve" stroke="none" clip-path="url(#clipPath17)">authenticate</text>
    </g>
    <g font-family="sans-serif" font-size="11" color-rendering="optimizeQuality" color-interpolation="linearRGB" text-rendering="optimizeLegibility" shape-rendering="geometricPrecision" image-rendering="optimizeQuality" transform="matrix(1,0,0,1,398.2642,51)">
      <text x="0" y="11" xml:space="preserve" stroke="none" clip-path="url(#clipPath18)">(</text>
    </g>
    <g font-family="sans-serif" font-size="11" color-rendering="optimizeQuality" color-interpolation="linearRGB" text-rendering="optimizeLegibility" shape-rendering="geometricPrecision" image-rendering="optimizeQuality" transform="matrix(1,0,0,1,401.84130000000005,51)">
      <text x="0" y="11" xml:space="preserve" stroke="none" clip-path="url(#clipPath19)">authInfo</text>
    </g>
    <g font-family="sans-serif" font-size="11" color-rendering="optimizeQuality" color-interpolation="linearRGB" text-rendering="optimizeLegibility" shape-rendering="geometricPrecision" image-rendering="optimizeQuality" transform="matrix(1,0,0,1,446.4805,51)">
      <text x="0" y="11" xml:space="preserve" stroke="none" clip-path="url(#clipPath20)">)</text>
    </g>
    <g font-family="sans-serif" font-size="11" color-rendering="optimizeQuality" stroke-miterlimit="1" color-interpolation="linearRGB" text-rendering="optimizeLegibility" stroke-linecap="butt" shape-rendering="geometricPrecision" image-rendering="optimizeQuality" transform="matrix(1,0,0,1,84,-10)">
      <path d="M30 120 L488.12701416015625 120" clip-path="url(#clipPath1)" fill="none" />
      <path d="M12 -6 L0 0 L12 6 Z" stroke="none" clip-path="url(#clipPath21)" transform="matrix(-1,-6.328271240363392E-15,6.328271240363392E-15,-1,488.127,120)" />
      <path d="M12 -6 L0 0 L12 6 Z" stroke-miterlimit="10" clip-path="url(#clipPath21)" fill="none" stroke-linecap="square" transform="matrix(-1,-6.328271240363392E-15,6.328271240363392E-15,-1,488.127,120)" />
    </g>
    <g font-family="sans-serif" font-size="11" color-rendering="optimizeQuality" color-interpolation="linearRGB" text-rendering="optimizeLegibility" shape-rendering="geometricPrecision" image-rendering="optimizeQuality" transform="matrix(1,0,0,1,261.2464,86)">
      <text x="0" y="11" xml:space="preserve" stroke="none" clip-path="url(#clipPath22)"> </text>
    </g>
    <g font-family="sans-serif" font-size="11" color-rendering="optimizeQuality" color-interpolation="linearRGB" text-rendering="optimizeLegibility" shape-rendering="geometricPrecision" image-rendering="optimizeQuality" transform="matrix(1,0,0,1,266.7269,86)">
      <text x="0" y="11" xml:space="preserve" stroke="none" clip-path="url(#clipPath23)">:</text>
    </g>
    <g font-family="sans-serif" font-size="11" color-rendering="optimizeQuality" color-interpolation="linearRGB" text-rendering="optimizeLegibility" shape-rendering="geometricPrecision" image-rendering="optimizeQuality" transform="matrix(1,0,0,1,272.2073,86)">
      <text x="0" y="11" xml:space="preserve" stroke="none" clip-path="url(#clipPath24)">deleteAudioClip</text>
    </g>
    <g font-family="sans-serif" font-size="11" color-rendering="optimizeQuality" color-interpolation="linearRGB" text-rendering="optimizeLegibility" shape-rendering="geometricPrecision" image-rendering="optimizeQuality" transform="matrix(1,0,0,1,356.97929999999997,86)">
      <text x="0" y="11" xml:space="preserve" stroke="none" clip-path="url(#clipPath25)">(</text>
    </g>
    <g font-family="sans-serif" font-size="11" color-rendering="optimizeQuality" color-interpolation="linearRGB" text-rendering="optimizeLegibility" shape-rendering="geometricPrecision" image-rendering="optimizeQuality" transform="matrix(1,0,0,1,360.5564,86)">
      <text x="0" y="11" xml:space="preserve" stroke="none" clip-path="url(#clipPath26)">audioClipId</text>
    </g>
    <g font-family="sans-serif" font-size="11" color-rendering="optimizeQuality" color-interpolation="linearRGB" text-rendering="optimizeLegibility" shape-rendering="geometricPrecision" image-rendering="optimizeQuality" transform="matrix(1,0,0,1,421.3035,86)">
      <text x="0" y="11" xml:space="preserve" stroke="none" clip-path="url(#clipPath27)">)</text>
    </g>
  </g>
</svg>
