<?xml version="1.0" encoding="UTF-8"?>

<!DOCTYPE svg PUBLIC '-//W3C//DTD SVG 1.0//EN' 'http://www.w3.org/TR/2001/REC-SVG-20010904/DTD/svg10.dtd'>
<svg stroke-width="1" stroke-dashoffset="0" font-size="12" stroke-dasharray="none" color-rendering="auto" font-weight="normal" color-interpolation="auto" stroke-linejoin="miter" fill="black" image-rendering="auto" font-family="&apos;sansserif&apos;" stroke-opacity="1" stroke-miterlimit="10" stroke="black" text-rendering="auto" font-style="normal" stroke-linecap="square" fill-opacity="1" shape-rendering="auto" xmlns="http://www.w3.org/2000/svg" xmlns:xlink="http://www.w3.org/1999/xlink">
  <!--Generated by the Batik Graphics2D SVG Generator-->
  <defs id="genericDefs" />
  <g>
    <defs id="defs1">
      <clipPath clipPathUnits="userSpaceOnUse" id="clipPath1">
        <path d="M10 10 L10 188 L460 188 L460 10 Z" />
      </clipPath>
      <clipPath clipPathUnits="userSpaceOnUse" id="clipPath2">
        <path d="M0 0 L0 178 L450 178 L450 0 Z" />
      </clipPath>
      <clipPath clipPathUnits="userSpaceOnUse" id="clipPath3">
        <path d="M-10 -10 L-10 168 L440 168 L440 -10 Z" />
      </clipPath>
      <clipPath clipPathUnits="userSpaceOnUse" id="clipPath4">
        <path d="M-185.54029846191406 -13 L-185.54029846191406 165 L264.4596862792969 165 L264.4596862792969 -13 Z" />
      </clipPath>
      <clipPath clipPathUnits="userSpaceOnUse" id="clipPath5">
        <path d="M-11 -29 L-11 149 L439 149 L439 -29 Z" />
      </clipPath>
      <clipPath clipPathUnits="userSpaceOnUse" id="clipPath6">
        <path d="M-11 -54 L-11 124 L439 124 L439 -54 Z" />
      </clipPath>
      <clipPath clipPathUnits="userSpaceOnUse" id="clipPath7">
        <path d="M-15 -59 L-15 119 L435 119 L435 -59 Z" />
      </clipPath>
      <clipPath clipPathUnits="userSpaceOnUse" id="clipPath8">
        <path d="M-23.74410057067871 -59 L-23.74410057067871 119 L426.2558898925781 119 L426.2558898925781 -59 Z" />
      </clipPath>
      <clipPath clipPathUnits="userSpaceOnUse" id="clipPath9">
        <path d="M-89.78710174560547 -59 L-89.78710174560547 119 L360.212890625 119 L360.212890625 -59 Z" />
      </clipPath>
      <clipPath clipPathUnits="userSpaceOnUse" id="clipPath10">
        <path d="M-93.36430358886719 -59 L-93.36430358886719 119 L356.6357116699219 119 L356.6357116699219 -59 Z" />
      </clipPath>
      <clipPath clipPathUnits="userSpaceOnUse" id="clipPath11">
        <path d="M-190.83889770507812 -59 L-190.83889770507812 119 L259.1611022949219 119 L259.1611022949219 -59 Z" />
      </clipPath>
      <clipPath clipPathUnits="userSpaceOnUse" id="clipPath12">
        <path d="M-194.31939697265625 -59 L-194.31939697265625 119 L255.68060302734375 119 L255.68060302734375 -59 Z" />
      </clipPath>
      <clipPath clipPathUnits="userSpaceOnUse" id="clipPath13">
        <path d="M-293.30859375 -59 L-293.30859375 119 L156.69140625 119 L156.69140625 -59 Z" />
      </clipPath>
      <clipPath clipPathUnits="userSpaceOnUse" id="clipPath14">
        <path d="M-296.8857116699219 -59 L-296.8857116699219 119 L153.1143035888672 119 L153.1143035888672 -59 Z" />
      </clipPath>
      <clipPath clipPathUnits="userSpaceOnUse" id="clipPath15">
        <path d="M-300.3662109375 -59 L-300.3662109375 119 L149.63380432128906 119 L149.63380432128906 -59 Z" />
      </clipPath>
      <clipPath clipPathUnits="userSpaceOnUse" id="clipPath16">
        <path d="M-15 -74 L-15 104 L435 104 L435 -74 Z" />
      </clipPath>
      <clipPath clipPathUnits="userSpaceOnUse" id="clipPath17">
        <path d="M-23.74410057067871 -74 L-23.74410057067871 104 L426.2558898925781 104 L426.2558898925781 -74 Z" />
      </clipPath>
      <clipPath clipPathUnits="userSpaceOnUse" id="clipPath18">
        <path d="M-116.28810119628906 -74 L-116.28810119628906 104 L333.7119140625 104 L333.7119140625 -74 Z" />
      </clipPath>
      <clipPath clipPathUnits="userSpaceOnUse" id="clipPath19">
        <path d="M-119.86519622802734 -74 L-119.86519622802734 104 L330.1347961425781 104 L330.1347961425781 -74 Z" />
      </clipPath>
      <clipPath clipPathUnits="userSpaceOnUse" id="clipPath20">
        <path d="M-180.6123046875 -74 L-180.6123046875 104 L269.3876953125 104 L269.3876953125 -74 Z" />
      </clipPath>
      <clipPath clipPathUnits="userSpaceOnUse" id="clipPath21">
        <path d="M-184.0926971435547 -74 L-184.0926971435547 104 L265.90728759765625 104 L265.90728759765625 -74 Z" />
      </clipPath>
      <clipPath clipPathUnits="userSpaceOnUse" id="clipPath22">
        <path d="M-187.5731964111328 -74 L-187.5731964111328 104 L262.4267883300781 104 L262.4267883300781 -74 Z" />
      </clipPath>
      <clipPath clipPathUnits="userSpaceOnUse" id="clipPath23">
        <path d="M-191.15040588378906 -74 L-191.15040588378906 104 L258.849609375 104 L258.849609375 -74 Z" />
      </clipPath>
      <clipPath clipPathUnits="userSpaceOnUse" id="clipPath24">
        <path d="M-194.6309051513672 -74 L-194.6309051513672 104 L255.3690948486328 104 L255.3690948486328 -74 Z" />
      </clipPath>
      <clipPath clipPathUnits="userSpaceOnUse" id="clipPath25">
        <path d="M-15 -89 L-15 89 L435 89 L435 -89 Z" />
      </clipPath>
      <clipPath clipPathUnits="userSpaceOnUse" id="clipPath26">
        <path d="M-23.74410057067871 -89 L-23.74410057067871 89 L426.2558898925781 89 L426.2558898925781 -89 Z" />
      </clipPath>
      <clipPath clipPathUnits="userSpaceOnUse" id="clipPath27">
        <path d="M-103.02149963378906 -89 L-103.02149963378906 89 L346.9784851074219 89 L346.9784851074219 -89 Z" />
      </clipPath>
      <clipPath clipPathUnits="userSpaceOnUse" id="clipPath28">
        <path d="M-106.59860229492188 -89 L-106.59860229492188 89 L343.4013977050781 89 L343.4013977050781 -89 Z" />
      </clipPath>
      <clipPath clipPathUnits="userSpaceOnUse" id="clipPath29">
        <path d="M-157.25340270996094 -89 L-157.25340270996094 89 L292.7466125488281 89 L292.7466125488281 -89 Z" />
      </clipPath>
      <clipPath clipPathUnits="userSpaceOnUse" id="clipPath30">
        <path d="M-160.73390197753906 -89 L-160.73390197753906 89 L289.26611328125 89 L289.26611328125 -89 Z" />
      </clipPath>
      <clipPath clipPathUnits="userSpaceOnUse" id="clipPath31">
        <path d="M-212.90330505371094 -89 L-212.90330505371094 89 L237.09669494628906 89 L237.09669494628906 -89 Z" />
      </clipPath>
      <clipPath clipPathUnits="userSpaceOnUse" id="clipPath32">
        <path d="M-216.48049926757812 -89 L-216.48049926757812 89 L233.51950073242188 89 L233.51950073242188 -89 Z" />
      </clipPath>
      <clipPath clipPathUnits="userSpaceOnUse" id="clipPath33">
        <path d="M-219.96090698242188 -89 L-219.96090698242188 89 L230.03909301757812 89 L230.03909301757812 -89 Z" />
      </clipPath>
      <clipPath clipPathUnits="userSpaceOnUse" id="clipPath34">
        <path d="M-15 -104 L-15 74 L435 74 L435 -104 Z" />
      </clipPath>
      <clipPath clipPathUnits="userSpaceOnUse" id="clipPath35">
        <path d="M-23.74410057067871 -104 L-23.74410057067871 74 L426.2558898925781 74 L426.2558898925781 -104 Z" />
      </clipPath>
      <clipPath clipPathUnits="userSpaceOnUse" id="clipPath36">
        <path d="M-108.51609802246094 -104 L-108.51609802246094 74 L341.48388671875 74 L341.48388671875 -104 Z" />
      </clipPath>
      <clipPath clipPathUnits="userSpaceOnUse" id="clipPath37">
        <path d="M-112.09329986572266 -104 L-112.09329986572266 74 L337.9067077636719 74 L337.9067077636719 -104 Z" />
      </clipPath>
      <clipPath clipPathUnits="userSpaceOnUse" id="clipPath38">
        <path d="M-172.84039306640625 -104 L-172.84039306640625 74 L277.15960693359375 74 L277.15960693359375 -104 Z" />
      </clipPath>
      <clipPath clipPathUnits="userSpaceOnUse" id="clipPath39">
        <path d="M-176.32080078125 -104 L-176.32080078125 74 L273.67919921875 74 L273.67919921875 -104 Z" />
      </clipPath>
      <clipPath clipPathUnits="userSpaceOnUse" id="clipPath40">
        <path d="M-223.91940307617188 -104 L-223.91940307617188 74 L226.08059692382812 74 L226.08059692382812 -104 Z" />
      </clipPath>
      <clipPath clipPathUnits="userSpaceOnUse" id="clipPath41">
        <path d="M-227.49659729003906 -104 L-227.49659729003906 74 L222.50340270996094 74 L222.50340270996094 -104 Z" />
      </clipPath>
      <clipPath clipPathUnits="userSpaceOnUse" id="clipPath42">
        <path d="M-230.9770965576172 -104 L-230.9770965576172 74 L219.0229034423828 74 L219.0229034423828 -104 Z" />
      </clipPath>
      <clipPath clipPathUnits="userSpaceOnUse" id="clipPath43">
        <path d="M-15 -119 L-15 59 L435 59 L435 -119 Z" />
      </clipPath>
      <clipPath clipPathUnits="userSpaceOnUse" id="clipPath44">
        <path d="M-23.74410057067871 -119 L-23.74410057067871 59 L426.2558898925781 59 L426.2558898925781 -119 Z" />
      </clipPath>
      <clipPath clipPathUnits="userSpaceOnUse" id="clipPath45">
        <path d="M-161.88330078125 -119 L-161.88330078125 59 L288.11669921875 59 L288.11669921875 -119 Z" />
      </clipPath>
      <clipPath clipPathUnits="userSpaceOnUse" id="clipPath46">
        <path d="M-165.4604034423828 -119 L-165.4604034423828 59 L284.53961181640625 59 L284.53961181640625 -119 Z" />
      </clipPath>
      <clipPath clipPathUnits="userSpaceOnUse" id="clipPath47">
        <path d="M-226.20750427246094 -119 L-226.20750427246094 59 L223.79249572753906 59 L223.79249572753906 -119 Z" />
      </clipPath>
      <clipPath clipPathUnits="userSpaceOnUse" id="clipPath48">
        <path d="M-229.68789672851562 -119 L-229.68789672851562 59 L220.31210327148438 59 L220.31210327148438 -119 Z" />
      </clipPath>
      <clipPath clipPathUnits="userSpaceOnUse" id="clipPath49">
        <path d="M-277.2865905761719 -119 L-277.2865905761719 59 L172.71339416503906 59 L172.71339416503906 -119 Z" />
      </clipPath>
      <clipPath clipPathUnits="userSpaceOnUse" id="clipPath50">
        <path d="M-280.76708984375 -119 L-280.76708984375 59 L169.23289489746094 59 L169.23289489746094 -119 Z" />
      </clipPath>
      <clipPath clipPathUnits="userSpaceOnUse" id="clipPath51">
        <path d="M-351.1767883300781 -119 L-351.1767883300781 59 L98.82319641113281 59 L98.82319641113281 -119 Z" />
      </clipPath>
      <clipPath clipPathUnits="userSpaceOnUse" id="clipPath52">
        <path d="M-354.6571960449219 -119 L-354.6571960449219 59 L95.3427963256836 59 L95.3427963256836 -119 Z" />
      </clipPath>
      <clipPath clipPathUnits="userSpaceOnUse" id="clipPath53">
        <path d="M-404.95208740234375 -119 L-404.95208740234375 59 L45.04790115356445 59 L45.04790115356445 -119 Z" />
      </clipPath>
      <clipPath clipPathUnits="userSpaceOnUse" id="clipPath54">
        <path d="M-408.529296875 -119 L-408.529296875 59 L41.470699310302734 59 L41.470699310302734 -119 Z" />
      </clipPath>
      <clipPath clipPathUnits="userSpaceOnUse" id="clipPath55">
        <path d="M-412.0097961425781 -119 L-412.0097961425781 59 L37.99020004272461 59 L37.99020004272461 -119 Z" />
      </clipPath>
      <clipPath clipPathUnits="userSpaceOnUse" id="clipPath56">
        <path d="M-15 -134 L-15 44 L435 44 L435 -134 Z" />
      </clipPath>
      <clipPath clipPathUnits="userSpaceOnUse" id="clipPath57">
        <path d="M-23.74410057067871 -134 L-23.74410057067871 44 L426.2558898925781 44 L426.2558898925781 -134 Z" />
      </clipPath>
      <clipPath clipPathUnits="userSpaceOnUse" id="clipPath58">
        <path d="M-131.4398956298828 -134 L-131.4398956298828 44 L318.5600891113281 44 L318.5600891113281 -134 Z" />
      </clipPath>
      <clipPath clipPathUnits="userSpaceOnUse" id="clipPath59">
        <path d="M-135.01710510253906 -134 L-135.01710510253906 44 L314.98291015625 44 L314.98291015625 -134 Z" />
      </clipPath>
      <clipPath clipPathUnits="userSpaceOnUse" id="clipPath60">
        <path d="M-195.7642059326172 -134 L-195.7642059326172 44 L254.2357940673828 44 L254.2357940673828 -134 Z" />
      </clipPath>
      <clipPath clipPathUnits="userSpaceOnUse" id="clipPath61">
        <path d="M-199.24459838867188 -134 L-199.24459838867188 44 L250.75540161132812 44 L250.75540161132812 -134 Z" />
      </clipPath>
      <clipPath clipPathUnits="userSpaceOnUse" id="clipPath62">
        <path d="M-246.8433074951172 -134 L-246.8433074951172 44 L203.1566925048828 44 L203.1566925048828 -134 Z" />
      </clipPath>
      <clipPath clipPathUnits="userSpaceOnUse" id="clipPath63">
        <path d="M-250.32369995117188 -134 L-250.32369995117188 44 L199.67630004882812 44 L199.67630004882812 -134 Z" />
      </clipPath>
      <clipPath clipPathUnits="userSpaceOnUse" id="clipPath64">
        <path d="M-281.0195007324219 -134 L-281.0195007324219 44 L168.98049926757812 44 L168.98049926757812 -134 Z" />
      </clipPath>
      <clipPath clipPathUnits="userSpaceOnUse" id="clipPath65">
        <path d="M-284.5 -134 L-284.5 44 L165.5 44 L165.5 -134 Z" />
      </clipPath>
      <clipPath clipPathUnits="userSpaceOnUse" id="clipPath66">
        <path d="M-298.62060546875 -134 L-298.62060546875 44 L151.37939453125 44 L151.37939453125 -134 Z" />
      </clipPath>
      <clipPath clipPathUnits="userSpaceOnUse" id="clipPath67">
        <path d="M-302.19781494140625 -134 L-302.19781494140625 44 L147.8022003173828 44 L147.8022003173828 -134 Z" />
      </clipPath>
      <clipPath clipPathUnits="userSpaceOnUse" id="clipPath68">
        <path d="M-305.6781921386719 -134 L-305.6781921386719 44 L144.32179260253906 44 L144.32179260253906 -134 Z" />
      </clipPath>
      <clipPath clipPathUnits="userSpaceOnUse" id="clipPath69">
        <path d="M-15 -149 L-15 29 L435 29 L435 -149 Z" />
      </clipPath>
      <clipPath clipPathUnits="userSpaceOnUse" id="clipPath70">
        <path d="M-23.74410057067871 -149 L-23.74410057067871 29 L426.2558898925781 29 L426.2558898925781 -149 Z" />
      </clipPath>
      <clipPath clipPathUnits="userSpaceOnUse" id="clipPath71">
        <path d="M-107.49559783935547 -149 L-107.49559783935547 29 L342.50439453125 29 L342.50439453125 -149 Z" />
      </clipPath>
      <clipPath clipPathUnits="userSpaceOnUse" id="clipPath72">
        <path d="M-111.07279968261719 -149 L-111.07279968261719 29 L338.92718505859375 29 L338.92718505859375 -149 Z" />
      </clipPath>
      <clipPath clipPathUnits="userSpaceOnUse" id="clipPath73">
        <path d="M-148.38580322265625 -149 L-148.38580322265625 29 L301.61419677734375 29 L301.61419677734375 -149 Z" />
      </clipPath>
      <clipPath clipPathUnits="userSpaceOnUse" id="clipPath74">
        <path d="M-151.86630249023438 -149 L-151.86630249023438 29 L298.1336975097656 29 L298.1336975097656 -149 Z" />
      </clipPath>
      <clipPath clipPathUnits="userSpaceOnUse" id="clipPath75">
        <path d="M-226.24510192871094 -149 L-226.24510192871094 29 L223.75489807128906 29 L223.75489807128906 -149 Z" />
      </clipPath>
      <clipPath clipPathUnits="userSpaceOnUse" id="clipPath76">
        <path d="M-229.82229614257812 -149 L-229.82229614257812 29 L220.17770385742188 29 L220.17770385742188 -149 Z" />
      </clipPath>
      <clipPath clipPathUnits="userSpaceOnUse" id="clipPath77">
        <path d="M-233.30270385742188 -149 L-233.30270385742188 29 L216.69729614257812 29 L216.69729614257812 -149 Z" />
      </clipPath>
    </defs>
    <g color-rendering="optimizeQuality" stroke-miterlimit="1" color-interpolation="linearRGB" text-rendering="optimizeLegibility" stroke-linecap="butt" shape-rendering="geometricPrecision" image-rendering="optimizeQuality" transform="matrix(1,0,0,1,10,10)">
      <path d="M0.5 0.5 L429.06298828125 0.5 L429.06298828125 157.5 L0.5 157.5 Z" clip-path="url(#clipPath3)" fill="none" />
    </g>
    <g font-family="sans-serif" font-size="11" font-weight="bold" color-rendering="optimizeQuality" color-interpolation="linearRGB" text-rendering="optimizeLegibility" shape-rendering="geometricPrecision" image-rendering="optimizeQuality" transform="matrix(1,0,0,1,185.5403,13)">
      <text x="0" y="11" xml:space="preserve" stroke="none" clip-path="url(#clipPath4)">Media archive</text>
    </g>
    <g font-family="sans-serif" font-size="11" font-weight="bold" color-rendering="optimizeQuality" stroke-miterlimit="1" color-interpolation="linearRGB" text-rendering="optimizeLegibility" stroke="white" fill="white" stroke-linecap="butt" shape-rendering="geometricPrecision" image-rendering="optimizeQuality" transform="matrix(1,0,0,1,11,29)">
      <path d="M0.5 0.5 L427.06298828125 0.5 L427.06298828125 0.5 L0.5 0.5 Z" stroke="none" clip-path="url(#clipPath5)" />
      <path d="M0.5 0.5 L427.06298828125 0.5 L427.06298828125 0.5 L0.5 0.5 Z" stroke="black" clip-path="url(#clipPath5)" fill="none" />
    </g>
    <g font-family="sans-serif" font-size="11" font-weight="bold" color-rendering="optimizeQuality" stroke-miterlimit="1" color-interpolation="linearRGB" text-rendering="optimizeLegibility" stroke="white" fill="white" stroke-linecap="butt" shape-rendering="geometricPrecision" image-rendering="optimizeQuality" transform="matrix(1,0,0,1,11,54)">
      <path d="M0.5 0.5 L427.06298828125 0.5 L427.06298828125 0.5 L0.5 0.5 Z" stroke="none" clip-path="url(#clipPath6)" />
      <path d="M0.5 0.5 L427.06298828125 0.5 L427.06298828125 0.5 L0.5 0.5 Z" stroke="black" clip-path="url(#clipPath6)" fill="none" />
    </g>
    <g font-family="sans-serif" font-size="11" color-rendering="optimizeQuality" color-interpolation="linearRGB" text-rendering="optimizeLegibility" shape-rendering="geometricPrecision" image-rendering="optimizeQuality" transform="matrix(1,0,0,1,15,59)">
      <text x="0" y="11" xml:space="preserve" stroke="none" clip-path="url(#clipPath7)">+</text>
    </g>
    <g font-family="sans-serif" font-size="11" color-rendering="optimizeQuality" color-interpolation="linearRGB" text-rendering="optimizeLegibility" shape-rendering="geometricPrecision" image-rendering="optimizeQuality" transform="matrix(1,0,0,1,23.7441,59)">
      <text x="0" y="11" xml:space="preserve" stroke="none" clip-path="url(#clipPath8)">authenticate</text>
    </g>
    <g font-family="sans-serif" font-size="11" color-rendering="optimizeQuality" color-interpolation="linearRGB" text-rendering="optimizeLegibility" shape-rendering="geometricPrecision" image-rendering="optimizeQuality" transform="matrix(1,0,0,1,89.7871,59)">
      <text x="0" y="11" xml:space="preserve" stroke="none" clip-path="url(#clipPath9)">(</text>
    </g>
    <g font-family="sans-serif" font-size="11" color-rendering="optimizeQuality" color-interpolation="linearRGB" text-rendering="optimizeLegibility" shape-rendering="geometricPrecision" image-rendering="optimizeQuality" transform="matrix(1,0,0,1,93.3643,59)">
      <text x="0" y="11" xml:space="preserve" stroke="none" clip-path="url(#clipPath10)">authenticationInfo</text>
    </g>
    <g font-family="sans-serif" font-size="11" color-rendering="optimizeQuality" color-interpolation="linearRGB" text-rendering="optimizeLegibility" shape-rendering="geometricPrecision" image-rendering="optimizeQuality" transform="matrix(1,0,0,1,190.8389,59)">
      <text x="0" y="11" xml:space="preserve" stroke="none" clip-path="url(#clipPath11)">:</text>
    </g>
    <g font-family="sans-serif" font-size="11" color-rendering="optimizeQuality" color-interpolation="linearRGB" text-rendering="optimizeLegibility" shape-rendering="geometricPrecision" image-rendering="optimizeQuality" transform="matrix(1,0,0,1,194.3194,59)">
      <text x="0" y="11" xml:space="preserve" stroke="none" clip-path="url(#clipPath12)">AuthenticationInfo</text>
    </g>
    <g font-family="sans-serif" font-size="11" color-rendering="optimizeQuality" color-interpolation="linearRGB" text-rendering="optimizeLegibility" shape-rendering="geometricPrecision" image-rendering="optimizeQuality" transform="matrix(1,0,0,1,293.3086,59)">
      <text x="0" y="11" xml:space="preserve" stroke="none" clip-path="url(#clipPath13)">)</text>
    </g>
    <g font-family="sans-serif" font-size="11" color-rendering="optimizeQuality" color-interpolation="linearRGB" text-rendering="optimizeLegibility" shape-rendering="geometricPrecision" image-rendering="optimizeQuality" transform="matrix(1,0,0,1,296.8857,59)">
      <text x="0" y="11" xml:space="preserve" stroke="none" clip-path="url(#clipPath14)">:</text>
    </g>
    <g font-family="sans-serif" font-size="11" color-rendering="optimizeQuality" color-interpolation="linearRGB" text-rendering="optimizeLegibility" shape-rendering="geometricPrecision" image-rendering="optimizeQuality" transform="matrix(1,0,0,1,300.3662,59)">
      <text x="0" y="11" xml:space="preserve" stroke="none" clip-path="url(#clipPath15)">boolean</text>
    </g>
    <g font-family="sans-serif" font-size="11" color-rendering="optimizeQuality" color-interpolation="linearRGB" text-rendering="optimizeLegibility" shape-rendering="geometricPrecision" image-rendering="optimizeQuality" transform="matrix(1,0,0,1,15,74)">
      <text x="0" y="11" xml:space="preserve" stroke="none" clip-path="url(#clipPath16)">+</text>
    </g>
    <g font-family="sans-serif" font-size="11" color-rendering="optimizeQuality" color-interpolation="linearRGB" text-rendering="optimizeLegibility" shape-rendering="geometricPrecision" image-rendering="optimizeQuality" transform="matrix(1,0,0,1,23.7441,74)">
      <text x="0" y="11" xml:space="preserve" stroke="none" clip-path="url(#clipPath17)">retrieveAudioClip</text>
    </g>
    <g font-family="sans-serif" font-size="11" color-rendering="optimizeQuality" color-interpolation="linearRGB" text-rendering="optimizeLegibility" shape-rendering="geometricPrecision" image-rendering="optimizeQuality" transform="matrix(1,0,0,1,116.2881,74)">
      <text x="0" y="11" xml:space="preserve" stroke="none" clip-path="url(#clipPath18)">(</text>
    </g>
    <g font-family="sans-serif" font-size="11" color-rendering="optimizeQuality" color-interpolation="linearRGB" text-rendering="optimizeLegibility" shape-rendering="geometricPrecision" image-rendering="optimizeQuality" transform="matrix(1,0,0,1,119.8652,74)">
      <text x="0" y="11" xml:space="preserve" stroke="none" clip-path="url(#clipPath19)">audioClipId</text>
    </g>
    <g font-family="sans-serif" font-size="11" color-rendering="optimizeQuality" color-interpolation="linearRGB" text-rendering="optimizeLegibility" shape-rendering="geometricPrecision" image-rendering="optimizeQuality" transform="matrix(1,0,0,1,180.6123,74)">
      <text x="0" y="11" xml:space="preserve" stroke="none" clip-path="url(#clipPath20)">:</text>
    </g>
    <g font-family="sans-serif" font-size="11" color-rendering="optimizeQuality" color-interpolation="linearRGB" text-rendering="optimizeLegibility" shape-rendering="geometricPrecision" image-rendering="optimizeQuality" transform="matrix(1,0,0,1,184.0927,74)">
      <text x="0" y="11" xml:space="preserve" stroke="none" clip-path="url(#clipPath21)"> </text>
    </g>
    <g font-family="sans-serif" font-size="11" color-rendering="optimizeQuality" color-interpolation="linearRGB" text-rendering="optimizeLegibility" shape-rendering="geometricPrecision" image-rendering="optimizeQuality" transform="matrix(1,0,0,1,187.5732,74)">
      <text x="0" y="11" xml:space="preserve" stroke="none" clip-path="url(#clipPath22)">)</text>
    </g>
    <g font-family="sans-serif" font-size="11" color-rendering="optimizeQuality" color-interpolation="linearRGB" text-rendering="optimizeLegibility" shape-rendering="geometricPrecision" image-rendering="optimizeQuality" transform="matrix(1,0,0,1,191.1504,74)">
      <text x="0" y="11" xml:space="preserve" stroke="none" clip-path="url(#clipPath23)">:</text>
    </g>
    <g font-family="sans-serif" font-size="11" color-rendering="optimizeQuality" color-interpolation="linearRGB" text-rendering="optimizeLegibility" shape-rendering="geometricPrecision" image-rendering="optimizeQuality" transform="matrix(1,0,0,1,194.6309,74)">
      <text x="0" y="11" xml:space="preserve" stroke="none" clip-path="url(#clipPath24)"> </text>
    </g>
    <g font-family="sans-serif" font-size="11" color-rendering="optimizeQuality" color-interpolation="linearRGB" text-rendering="optimizeLegibility" shape-rendering="geometricPrecision" image-rendering="optimizeQuality" transform="matrix(1,0,0,1,15,89)">
      <text x="0" y="11" xml:space="preserve" stroke="none" clip-path="url(#clipPath25)">+</text>
    </g>
    <g font-family="sans-serif" font-size="11" color-rendering="optimizeQuality" color-interpolation="linearRGB" text-rendering="optimizeLegibility" shape-rendering="geometricPrecision" image-rendering="optimizeQuality" transform="matrix(1,0,0,1,23.7441,89)">
      <text x="0" y="11" xml:space="preserve" stroke="none" clip-path="url(#clipPath26)">storeAudioClip</text>
    </g>
    <g font-family="sans-serif" font-size="11" color-rendering="optimizeQuality" color-interpolation="linearRGB" text-rendering="optimizeLegibility" shape-rendering="geometricPrecision" image-rendering="optimizeQuality" transform="matrix(1,0,0,1,103.0215,89)">
      <text x="0" y="11" xml:space="preserve" stroke="none" clip-path="url(#clipPath27)">(</text>
    </g>
    <g font-family="sans-serif" font-size="11" color-rendering="optimizeQuality" color-interpolation="linearRGB" text-rendering="optimizeLegibility" shape-rendering="geometricPrecision" image-rendering="optimizeQuality" transform="matrix(1,0,0,1,106.5986,89)">
      <text x="0" y="11" xml:space="preserve" stroke="none" clip-path="url(#clipPath28)">audioClip</text>
    </g>
    <g font-family="sans-serif" font-size="11" color-rendering="optimizeQuality" color-interpolation="linearRGB" text-rendering="optimizeLegibility" shape-rendering="geometricPrecision" image-rendering="optimizeQuality" transform="matrix(1,0,0,1,157.2534,89)">
      <text x="0" y="11" xml:space="preserve" stroke="none" clip-path="url(#clipPath29)">:</text>
    </g>
    <g font-family="sans-serif" font-size="11" color-rendering="optimizeQuality" color-interpolation="linearRGB" text-rendering="optimizeLegibility" shape-rendering="geometricPrecision" image-rendering="optimizeQuality" transform="matrix(1,0,0,1,160.7339,89)">
      <text x="0" y="11" xml:space="preserve" stroke="none" clip-path="url(#clipPath30)">AudioClip</text>
    </g>
    <g font-family="sans-serif" font-size="11" color-rendering="optimizeQuality" color-interpolation="linearRGB" text-rendering="optimizeLegibility" shape-rendering="geometricPrecision" image-rendering="optimizeQuality" transform="matrix(1,0,0,1,212.9033,89)">
      <text x="0" y="11" xml:space="preserve" stroke="none" clip-path="url(#clipPath31)">)</text>
    </g>
    <g font-family="sans-serif" font-size="11" color-rendering="optimizeQuality" color-interpolation="linearRGB" text-rendering="optimizeLegibility" shape-rendering="geometricPrecision" image-rendering="optimizeQuality" transform="matrix(1,0,0,1,216.4805,89)">
      <text x="0" y="11" xml:space="preserve" stroke="none" clip-path="url(#clipPath32)">:</text>
    </g>
    <g font-family="sans-serif" font-size="11" color-rendering="optimizeQuality" color-interpolation="linearRGB" text-rendering="optimizeLegibility" shape-rendering="geometricPrecision" image-rendering="optimizeQuality" transform="matrix(1,0,0,1,219.9609,89)">
      <text x="0" y="11" xml:space="preserve" stroke="none" clip-path="url(#clipPath33)">UniqueId</text>
    </g>
    <g font-family="sans-serif" font-size="11" color-rendering="optimizeQuality" color-interpolation="linearRGB" text-rendering="optimizeLegibility" shape-rendering="geometricPrecision" image-rendering="optimizeQuality" transform="matrix(1,0,0,1,15,104)">
      <text x="0" y="11" xml:space="preserve" stroke="none" clip-path="url(#clipPath34)">+</text>
    </g>
    <g font-family="sans-serif" font-size="11" color-rendering="optimizeQuality" color-interpolation="linearRGB" text-rendering="optimizeLegibility" shape-rendering="geometricPrecision" image-rendering="optimizeQuality" transform="matrix(1,0,0,1,23.7441,104)">
      <text x="0" y="11" xml:space="preserve" stroke="none" clip-path="url(#clipPath35)">deleteAudioClip</text>
    </g>
    <g font-family="sans-serif" font-size="11" color-rendering="optimizeQuality" color-interpolation="linearRGB" text-rendering="optimizeLegibility" shape-rendering="geometricPrecision" image-rendering="optimizeQuality" transform="matrix(1,0,0,1,108.5161,104)">
      <text x="0" y="11" xml:space="preserve" stroke="none" clip-path="url(#clipPath36)">(</text>
    </g>
    <g font-family="sans-serif" font-size="11" color-rendering="optimizeQuality" color-interpolation="linearRGB" text-rendering="optimizeLegibility" shape-rendering="geometricPrecision" image-rendering="optimizeQuality" transform="matrix(1,0,0,1,112.0933,104)">
      <text x="0" y="11" xml:space="preserve" stroke="none" clip-path="url(#clipPath37)">audioClipId</text>
    </g>
    <g font-family="sans-serif" font-size="11" color-rendering="optimizeQuality" color-interpolation="linearRGB" text-rendering="optimizeLegibility" shape-rendering="geometricPrecision" image-rendering="optimizeQuality" transform="matrix(1,0,0,1,172.8404,104)">
      <text x="0" y="11" xml:space="preserve" stroke="none" clip-path="url(#clipPath38)">:</text>
    </g>
    <g font-family="sans-serif" font-size="11" color-rendering="optimizeQuality" color-interpolation="linearRGB" text-rendering="optimizeLegibility" shape-rendering="geometricPrecision" image-rendering="optimizeQuality" transform="matrix(1,0,0,1,176.32080000000002,104)">
      <text x="0" y="11" xml:space="preserve" stroke="none" clip-path="url(#clipPath39)">UniqueId</text>
    </g>
    <g font-family="sans-serif" font-size="11" color-rendering="optimizeQuality" color-interpolation="linearRGB" text-rendering="optimizeLegibility" shape-rendering="geometricPrecision" image-rendering="optimizeQuality" transform="matrix(1,0,0,1,223.9194,104)">
      <text x="0" y="11" xml:space="preserve" stroke="none" clip-path="url(#clipPath40)">)</text>
    </g>
    <g font-family="sans-serif" font-size="11" color-rendering="optimizeQuality" color-interpolation="linearRGB" text-rendering="optimizeLegibility" shape-rendering="geometricPrecision" image-rendering="optimizeQuality" transform="matrix(1,0,0,1,227.4966,104)">
      <text x="0" y="11" xml:space="preserve" stroke="none" clip-path="url(#clipPath41)">:</text>
    </g>
    <g font-family="sans-serif" font-size="11" color-rendering="optimizeQuality" color-interpolation="linearRGB" text-rendering="optimizeLegibility" shape-rendering="geometricPrecision" image-rendering="optimizeQuality" transform="matrix(1,0,0,1,230.9771,104)">
      <text x="0" y="11" xml:space="preserve" stroke="none" clip-path="url(#clipPath42)">void</text>
    </g>
    <g font-family="sans-serif" font-size="11" color-rendering="optimizeQuality" color-interpolation="linearRGB" text-rendering="optimizeLegibility" shape-rendering="geometricPrecision" image-rendering="optimizeQuality" transform="matrix(1,0,0,1,15,119)">
      <text x="0" y="11" xml:space="preserve" stroke="none" clip-path="url(#clipPath43)">+</text>
    </g>
    <g font-family="sans-serif" font-size="11" color-rendering="optimizeQuality" color-interpolation="linearRGB" text-rendering="optimizeLegibility" shape-rendering="geometricPrecision" image-rendering="optimizeQuality" transform="matrix(1,0,0,1,23.7441,119)">
      <text x="0" y="11" xml:space="preserve" stroke="none" clip-path="url(#clipPath44)">updateAudioClipMetadata</text>
    </g>
    <g font-family="sans-serif" font-size="11" color-rendering="optimizeQuality" color-interpolation="linearRGB" text-rendering="optimizeLegibility" shape-rendering="geometricPrecision" image-rendering="optimizeQuality" transform="matrix(1,0,0,1,161.8833,119)">
      <text x="0" y="11" xml:space="preserve" stroke="none" clip-path="url(#clipPath45)">(</text>
    </g>
    <g font-family="sans-serif" font-size="11" color-rendering="optimizeQuality" color-interpolation="linearRGB" text-rendering="optimizeLegibility" shape-rendering="geometricPrecision" image-rendering="optimizeQuality" transform="matrix(1,0,0,1,165.4604,119)">
      <text x="0" y="11" xml:space="preserve" stroke="none" clip-path="url(#clipPath46)">audioClipId</text>
    </g>
    <g font-family="sans-serif" font-size="11" color-rendering="optimizeQuality" color-interpolation="linearRGB" text-rendering="optimizeLegibility" shape-rendering="geometricPrecision" image-rendering="optimizeQuality" transform="matrix(1,0,0,1,226.20749999999998,119)">
      <text x="0" y="11" xml:space="preserve" stroke="none" clip-path="url(#clipPath47)">:</text>
    </g>
    <g font-family="sans-serif" font-size="11" color-rendering="optimizeQuality" color-interpolation="linearRGB" text-rendering="optimizeLegibility" shape-rendering="geometricPrecision" image-rendering="optimizeQuality" transform="matrix(1,0,0,1,229.6879,119)">
      <text x="0" y="11" xml:space="preserve" stroke="none" clip-path="url(#clipPath48)">UniqueId</text>
    </g>
    <g font-family="sans-serif" font-size="11" color-rendering="optimizeQuality" color-interpolation="linearRGB" text-rendering="optimizeLegibility" shape-rendering="geometricPrecision" image-rendering="optimizeQuality" transform="matrix(1,0,0,1,277.2866,119)">
      <text x="0" y="11" xml:space="preserve" stroke="none" clip-path="url(#clipPath49)">,</text>
    </g>
    <g font-family="sans-serif" font-size="11" color-rendering="optimizeQuality" color-interpolation="linearRGB" text-rendering="optimizeLegibility" shape-rendering="geometricPrecision" image-rendering="optimizeQuality" transform="matrix(1,0,0,1,280.7671,119)">
      <text x="0" y="11" xml:space="preserve" stroke="none" clip-path="url(#clipPath50)">newMetadata</text>
    </g>
    <g font-family="sans-serif" font-size="11" color-rendering="optimizeQuality" color-interpolation="linearRGB" text-rendering="optimizeLegibility" shape-rendering="geometricPrecision" image-rendering="optimizeQuality" transform="matrix(1,0,0,1,351.1768,119)">
      <text x="0" y="11" xml:space="preserve" stroke="none" clip-path="url(#clipPath51)">:</text>
    </g>
    <g font-family="sans-serif" font-size="11" color-rendering="optimizeQuality" color-interpolation="linearRGB" text-rendering="optimizeLegibility" shape-rendering="geometricPrecision" image-rendering="optimizeQuality" transform="matrix(1,0,0,1,354.65720000000005,119)">
      <text x="0" y="11" xml:space="preserve" stroke="none" clip-path="url(#clipPath52)">MetaData</text>
    </g>
    <g font-family="sans-serif" font-size="11" color-rendering="optimizeQuality" color-interpolation="linearRGB" text-rendering="optimizeLegibility" shape-rendering="geometricPrecision" image-rendering="optimizeQuality" transform="matrix(1,0,0,1,404.9521,119)">
      <text x="0" y="11" xml:space="preserve" stroke="none" clip-path="url(#clipPath53)">)</text>
    </g>
    <g font-family="sans-serif" font-size="11" color-rendering="optimizeQuality" color-interpolation="linearRGB" text-rendering="optimizeLegibility" shape-rendering="geometricPrecision" image-rendering="optimizeQuality" transform="matrix(1,0,0,1,408.5293,119)">
      <text x="0" y="11" xml:space="preserve" stroke="none" clip-path="url(#clipPath54)">:</text>
    </g>
    <g font-family="sans-serif" font-size="11" color-rendering="optimizeQuality" color-interpolation="linearRGB" text-rendering="optimizeLegibility" shape-rendering="geometricPrecision" image-rendering="optimizeQuality" transform="matrix(1,0,0,1,412.0098,119)">
      <text x="0" y="11" xml:space="preserve" stroke="none" clip-path="url(#clipPath55)">void</text>
    </g>
    <g font-family="sans-serif" font-size="11" color-rendering="optimizeQuality" color-interpolation="linearRGB" text-rendering="optimizeLegibility" shape-rendering="geometricPrecision" image-rendering="optimizeQuality" transform="matrix(1,0,0,1,15,134)">
      <text x="0" y="11" xml:space="preserve" stroke="none" clip-path="url(#clipPath56)">+</text>
    </g>
    <g font-family="sans-serif" font-size="11" color-rendering="optimizeQuality" color-interpolation="linearRGB" text-rendering="optimizeLegibility" shape-rendering="geometricPrecision" image-rendering="optimizeQuality" transform="matrix(1,0,0,1,23.7441,134)">
      <text x="0" y="11" xml:space="preserve" stroke="none" clip-path="url(#clipPath57)">downloadAudioData</text>
    </g>
    <g font-family="sans-serif" font-size="11" color-rendering="optimizeQuality" color-interpolation="linearRGB" text-rendering="optimizeLegibility" shape-rendering="geometricPrecision" image-rendering="optimizeQuality" transform="matrix(1,0,0,1,131.4399,134)">
      <text x="0" y="11" xml:space="preserve" stroke="none" clip-path="url(#clipPath58)">(</text>
    </g>
    <g font-family="sans-serif" font-size="11" color-rendering="optimizeQuality" color-interpolation="linearRGB" text-rendering="optimizeLegibility" shape-rendering="geometricPrecision" image-rendering="optimizeQuality" transform="matrix(1,0,0,1,135.0171,134)">
      <text x="0" y="11" xml:space="preserve" stroke="none" clip-path="url(#clipPath59)">audioClipId</text>
    </g>
    <g font-family="sans-serif" font-size="11" color-rendering="optimizeQuality" color-interpolation="linearRGB" text-rendering="optimizeLegibility" shape-rendering="geometricPrecision" image-rendering="optimizeQuality" transform="matrix(1,0,0,1,195.76420000000002,134)">
      <text x="0" y="11" xml:space="preserve" stroke="none" clip-path="url(#clipPath60)">:</text>
    </g>
    <g font-family="sans-serif" font-size="11" color-rendering="optimizeQuality" color-interpolation="linearRGB" text-rendering="optimizeLegibility" shape-rendering="geometricPrecision" image-rendering="optimizeQuality" transform="matrix(1,0,0,1,199.2446,134)">
      <text x="0" y="11" xml:space="preserve" stroke="none" clip-path="url(#clipPath61)">UniqueId</text>
    </g>
    <g font-family="sans-serif" font-size="11" color-rendering="optimizeQuality" color-interpolation="linearRGB" text-rendering="optimizeLegibility" shape-rendering="geometricPrecision" image-rendering="optimizeQuality" transform="matrix(1,0,0,1,246.8433,134)">
      <text x="0" y="11" xml:space="preserve" stroke="none" clip-path="url(#clipPath62)">,</text>
    </g>
    <g font-family="sans-serif" font-size="11" color-rendering="optimizeQuality" color-interpolation="linearRGB" text-rendering="optimizeLegibility" shape-rendering="geometricPrecision" image-rendering="optimizeQuality" transform="matrix(1,0,0,1,250.3237,134)">
      <text x="0" y="11" xml:space="preserve" stroke="none" clip-path="url(#clipPath63)">offset</text>
    </g>
    <g font-family="sans-serif" font-size="11" color-rendering="optimizeQuality" color-interpolation="linearRGB" text-rendering="optimizeLegibility" shape-rendering="geometricPrecision" image-rendering="optimizeQuality" transform="matrix(1,0,0,1,281.0195,134)">
      <text x="0" y="11" xml:space="preserve" stroke="none" clip-path="url(#clipPath64)">:</text>
    </g>
    <g font-family="sans-serif" font-size="11" color-rendering="optimizeQuality" color-interpolation="linearRGB" text-rendering="optimizeLegibility" shape-rendering="geometricPrecision" image-rendering="optimizeQuality" transform="matrix(1,0,0,1,284.5,134)">
      <text x="0" y="11" xml:space="preserve" stroke="none" clip-path="url(#clipPath65)">int</text>
    </g>
    <g font-family="sans-serif" font-size="11" color-rendering="optimizeQuality" color-interpolation="linearRGB" text-rendering="optimizeLegibility" shape-rendering="geometricPrecision" image-rendering="optimizeQuality" transform="matrix(1,0,0,1,298.6206,134)">
      <text x="0" y="11" xml:space="preserve" stroke="none" clip-path="url(#clipPath66)">)</text>
    </g>
    <g font-family="sans-serif" font-size="11" color-rendering="optimizeQuality" color-interpolation="linearRGB" text-rendering="optimizeLegibility" shape-rendering="geometricPrecision" image-rendering="optimizeQuality" transform="matrix(1,0,0,1,302.1978,134)">
      <text x="0" y="11" xml:space="preserve" stroke="none" clip-path="url(#clipPath67)">:</text>
    </g>
    <g font-family="sans-serif" font-size="11" color-rendering="optimizeQuality" color-interpolation="linearRGB" text-rendering="optimizeLegibility" shape-rendering="geometricPrecision" image-rendering="optimizeQuality" transform="matrix(1,0,0,1,305.6782,134)">
      <text x="0" y="11" xml:space="preserve" stroke="none" clip-path="url(#clipPath68)">RawAudioData</text>
    </g>
    <g font-family="sans-serif" font-size="11" color-rendering="optimizeQuality" color-interpolation="linearRGB" text-rendering="optimizeLegibility" shape-rendering="geometricPrecision" image-rendering="optimizeQuality" transform="matrix(1,0,0,1,15,149)">
      <text x="0" y="11" xml:space="preserve" stroke="none" clip-path="url(#clipPath69)">+</text>
    </g>
    <g font-family="sans-serif" font-size="11" color-rendering="optimizeQuality" color-interpolation="linearRGB" text-rendering="optimizeLegibility" shape-rendering="geometricPrecision" image-rendering="optimizeQuality" transform="matrix(1,0,0,1,23.7441,149)">
      <text x="0" y="11" xml:space="preserve" stroke="none" clip-path="url(#clipPath70)">searchMetadata</text>
    </g>
    <g font-family="sans-serif" font-size="11" color-rendering="optimizeQuality" color-interpolation="linearRGB" text-rendering="optimizeLegibility" shape-rendering="geometricPrecision" image-rendering="optimizeQuality" transform="matrix(1,0,0,1,107.4956,149)">
      <text x="0" y="11" xml:space="preserve" stroke="none" clip-path="url(#clipPath71)">(</text>
    </g>
    <g font-family="sans-serif" font-size="11" color-rendering="optimizeQuality" color-interpolation="linearRGB" text-rendering="optimizeLegibility" shape-rendering="geometricPrecision" image-rendering="optimizeQuality" transform="matrix(1,0,0,1,111.0728,149)">
      <text x="0" y="11" xml:space="preserve" stroke="none" clip-path="url(#clipPath72)">criteria</text>
    </g>
    <g font-family="sans-serif" font-size="11" color-rendering="optimizeQuality" color-interpolation="linearRGB" text-rendering="optimizeLegibility" shape-rendering="geometricPrecision" image-rendering="optimizeQuality" transform="matrix(1,0,0,1,148.38580000000002,149)">
      <text x="0" y="11" xml:space="preserve" stroke="none" clip-path="url(#clipPath73)">:</text>
    </g>
    <g font-family="sans-serif" font-size="11" color-rendering="optimizeQuality" color-interpolation="linearRGB" text-rendering="optimizeLegibility" shape-rendering="geometricPrecision" image-rendering="optimizeQuality" transform="matrix(1,0,0,1,151.8663,149)">
      <text x="0" y="11" xml:space="preserve" stroke="none" clip-path="url(#clipPath74)">SearchCriteria</text>
    </g>
    <g font-family="sans-serif" font-size="11" color-rendering="optimizeQuality" color-interpolation="linearRGB" text-rendering="optimizeLegibility" shape-rendering="geometricPrecision" image-rendering="optimizeQuality" transform="matrix(1,0,0,1,226.2451,149)">
      <text x="0" y="11" xml:space="preserve" stroke="none" clip-path="url(#clipPath75)">)</text>
    </g>
    <g font-family="sans-serif" font-size="11" color-rendering="optimizeQuality" color-interpolation="linearRGB" text-rendering="optimizeLegibility" shape-rendering="geometricPrecision" image-rendering="optimizeQuality" transform="matrix(1,0,0,1,229.8223,149)">
      <text x="0" y="11" xml:space="preserve" stroke="none" clip-path="url(#clipPath76)">:</text>
    </g>
    <g font-family="sans-serif" font-size="11" color-rendering="optimizeQuality" color-interpolation="linearRGB" text-rendering="optimizeLegibility" shape-rendering="geometricPrecision" image-rendering="optimizeQuality" transform="matrix(1,0,0,1,233.3027,149)">
      <text x="0" y="11" xml:space="preserve" stroke="none" clip-path="url(#clipPath77)">UniqueId</text>
    </g>
  </g>
</svg>
