<?xml version="1.0" encoding="UTF-8"?>

<!DOCTYPE svg PUBLIC '-//W3C//DTD SVG 1.0//EN' 'http://www.w3.org/TR/2001/REC-SVG-20010904/DTD/svg10.dtd'>
<svg stroke-width="1" stroke-dashoffset="0" font-size="12" stroke-dasharray="none" color-rendering="auto" font-weight="normal" color-interpolation="auto" stroke-linejoin="miter" fill="black" image-rendering="auto" font-family="&apos;sansserif&apos;" stroke-opacity="1" stroke-miterlimit="10" stroke="black" text-rendering="auto" font-style="normal" stroke-linecap="square" fill-opacity="1" shape-rendering="auto" xmlns="http://www.w3.org/2000/svg" xmlns:xlink="http://www.w3.org/1999/xlink">
  <!--Generated by the Batik Graphics2D SVG Generator-->
  <defs id="genericDefs" />
  <g>
    <defs id="defs1">
      <clipPath clipPathUnits="userSpaceOnUse" id="clipPath1">
        <path d="M72 10 L72 116 L572 116 L572 10 Z" />
      </clipPath>
      <clipPath clipPathUnits="userSpaceOnUse" id="clipPath2">
        <path d="M0 0 L0 106 L500 106 L500 0 Z" />
      </clipPath>
      <clipPath clipPathUnits="userSpaceOnUse" id="clipPath3">
        <path d="M-28 -10 L-28 96 L472 96 L472 -10 Z" />
      </clipPath>
      <clipPath clipPathUnits="userSpaceOnUse" id="clipPath4">
        <path d="M-12.798800468444824 -42 L-12.798800468444824 64 L487.2012023925781 64 L487.2012023925781 -42 Z" />
      </clipPath>
      <clipPath clipPathUnits="userSpaceOnUse" id="clipPath5">
        <path d="M-35.862300872802734 -42 L-35.862300872802734 64 L464.1376953125 64 L464.1376953125 -42 Z" />
      </clipPath>
      <clipPath clipPathUnits="userSpaceOnUse" id="clipPath6">
        <path d="M-39.34270095825195 -42 L-39.34270095825195 64 L460.65728759765625 64 L460.65728759765625 -42 Z" />
      </clipPath>
      <clipPath clipPathUnits="userSpaceOnUse" id="clipPath7">
        <path d="M-358 -10 L-358 96 L142 96 L142 -10 Z" />
      </clipPath>
      <clipPath clipPathUnits="userSpaceOnUse" id="clipPath8">
        <path d="M-364 -16 L-364 90 L136 90 L136 -16 Z" />
      </clipPath>
      <clipPath clipPathUnits="userSpaceOnUse" id="clipPath9">
        <path d="M-401.4740905761719 -16 L-401.4740905761719 90 L98.5259017944336 90 L98.5259017944336 -16 Z" />
      </clipPath>
      <clipPath clipPathUnits="userSpaceOnUse" id="clipPath10">
        <path d="M-404.95458984375 -16 L-404.95458984375 90 L95.04540252685547 90 L95.04540252685547 -16 Z" />
      </clipPath>
      <clipPath clipPathUnits="userSpaceOnUse" id="clipPath11">
        <path d="M-418.573486328125 -75 L-418.573486328125 31 L81.42649841308594 31 L81.42649841308594 -75 Z" />
      </clipPath>
      <clipPath clipPathUnits="userSpaceOnUse" id="clipPath12">
        <path d="M418.573486328125 75 L418.573486328125 -31 L-81.42649841308594 -31 L-81.42649841308594 75 Z" />
      </clipPath>
      <clipPath clipPathUnits="userSpaceOnUse" id="clipPath13">
        <path d="M-121.2926025390625 -51 L-121.2926025390625 55 L378.7073974609375 55 L378.7073974609375 -51 Z" />
      </clipPath>
      <clipPath clipPathUnits="userSpaceOnUse" id="clipPath14">
        <path d="M-126.77310180664062 -51 L-126.77310180664062 55 L373.2268981933594 55 L373.2268981933594 -51 Z" />
      </clipPath>
      <clipPath clipPathUnits="userSpaceOnUse" id="clipPath15">
        <path d="M-132.2534942626953 -51 L-132.2534942626953 55 L367.7464904785156 55 L367.7464904785156 -51 Z" />
      </clipPath>
      <clipPath clipPathUnits="userSpaceOnUse" id="clipPath16">
        <path d="M-205.2198028564453 -51 L-205.2198028564453 55 L294.78021240234375 55 L294.78021240234375 -51 Z" />
      </clipPath>
      <clipPath clipPathUnits="userSpaceOnUse" id="clipPath17">
        <path d="M-217.44439697265625 -51 L-217.44439697265625 55 L282.55560302734375 55 L282.55560302734375 -51 Z" />
      </clipPath>
      <clipPath clipPathUnits="userSpaceOnUse" id="clipPath18">
        <path d="M-283.4873962402344 -51 L-283.4873962402344 55 L216.51260375976562 55 L216.51260375976562 -51 Z" />
      </clipPath>
      <clipPath clipPathUnits="userSpaceOnUse" id="clipPath19">
        <path d="M-287.06451416015625 -51 L-287.06451416015625 55 L212.9355010986328 55 L212.9355010986328 -51 Z" />
      </clipPath>
      <clipPath clipPathUnits="userSpaceOnUse" id="clipPath20">
        <path d="M-331.7037048339844 -51 L-331.7037048339844 55 L168.29629516601562 55 L168.29629516601562 -51 Z" />
      </clipPath>
    </defs>
    <g color-rendering="optimizeQuality" stroke-dasharray="5,5" stroke-miterlimit="1" color-interpolation="linearRGB" text-rendering="optimizeLegibility" stroke-linecap="butt" shape-rendering="geometricPrecision" image-rendering="optimizeQuality" transform="matrix(1,0,0,1,28,10)">
      <path d="M10.5 48.5 L10.5 85.5" clip-path="url(#clipPath3)" fill="none" />
      <path d="M10 8 C5 8 5 0 10 0 C15 0 15 8 10 8 M10 8 L10 10 M0 10 L20 10 M10 10 L10 20 M10 20 L0 30 M10 20 L20 30" stroke="none" clip-path="url(#clipPath3)" fill="white" />
      <path d="M10 8 C5 8 5 0 10 0 C15 0 15 8 10 8 M10 8 L10 10 M0 10 L20 10 M10 10 L10 20 M10 20 L0 30 M10 20 L20 30" stroke-dasharray="none" clip-path="url(#clipPath3)" fill="none" />
    </g>
    <g font-family="sans-serif" font-size="11" color-rendering="optimizeQuality" color-interpolation="linearRGB" text-rendering="optimizeLegibility" shape-rendering="geometricPrecision" image-rendering="optimizeQuality" transform="matrix(1,0,0,1,12.7988,42)">
      <text x="0" y="11" xml:space="preserve" stroke="none" clip-path="url(#clipPath4)">user</text>
      <line x1="0" y1="12.5" x2="23.0634765625" y2="12.5" clip-path="url(#clipPath4)" fill="none" />
    </g>
    <g font-family="sans-serif" font-size="11" color-rendering="optimizeQuality" color-interpolation="linearRGB" text-rendering="optimizeLegibility" shape-rendering="geometricPrecision" image-rendering="optimizeQuality" transform="matrix(1,0,0,1,35.862300000000005,42)">
      <text x="0" y="11" xml:space="preserve" stroke="none" clip-path="url(#clipPath5)">:</text>
      <line x1="0" y1="12.5" x2="3.48046875" y2="12.5" clip-path="url(#clipPath5)" fill="none" />
    </g>
    <g font-family="sans-serif" font-size="11" color-rendering="optimizeQuality" color-interpolation="linearRGB" text-rendering="optimizeLegibility" shape-rendering="geometricPrecision" image-rendering="optimizeQuality" transform="matrix(1,0,0,1,39.3427,42)">
      <text x="0" y="11" xml:space="preserve" stroke="none" clip-path="url(#clipPath6)">User</text>
      <line x1="0" y1="12.5" x2="23.8583984375" y2="12.5" clip-path="url(#clipPath6)" fill="none" />
    </g>
    <g font-family="sans-serif" font-size="11" color-rendering="optimizeQuality" stroke-miterlimit="1" color-interpolation="linearRGB" text-rendering="optimizeLegibility" stroke="white" fill="white" stroke-linecap="butt" shape-rendering="geometricPrecision" image-rendering="optimizeQuality" transform="matrix(1,0,0,1,358,10)">
      <path d="M66.07350158691406 0.5 L66.07350158691406 85.5" stroke="none" clip-path="url(#clipPath7)" />
      <path d="M66.07350158691406 0.5 L66.07350158691406 85.5" stroke-dasharray="5,5" stroke="black" clip-path="url(#clipPath7)" fill="none" />
      <path d="M0.5 0.5 L130.64700317382812 0.5 L130.64700317382812 25.5 L0.5 25.5 Z" stroke-dasharray="5,5" stroke="none" clip-path="url(#clipPath7)" />
      <path d="M0.5 0.5 L130.64700317382812 0.5 L130.64700317382812 25.5 L0.5 25.5 Z" stroke="black" clip-path="url(#clipPath7)" fill="none" />
    </g>
    <g font-family="sans-serif" font-size="11" color-rendering="optimizeQuality" color-interpolation="linearRGB" text-rendering="optimizeLegibility" shape-rendering="geometricPrecision" image-rendering="optimizeQuality" transform="matrix(1,0,0,1,364,16)">
      <text x="0" y="11" xml:space="preserve" stroke="none" clip-path="url(#clipPath8)">system</text>
      <line x1="0" y1="12.5" x2="37.47412109375" y2="12.5" clip-path="url(#clipPath8)" fill="none" />
    </g>
    <g font-family="sans-serif" font-size="11" color-rendering="optimizeQuality" color-interpolation="linearRGB" text-rendering="optimizeLegibility" shape-rendering="geometricPrecision" image-rendering="optimizeQuality" transform="matrix(1,0,0,1,401.4741,16)">
      <text x="0" y="11" xml:space="preserve" stroke="none" clip-path="url(#clipPath9)">:</text>
      <line x1="0" y1="12.5" x2="3.48046875" y2="12.5" clip-path="url(#clipPath9)" fill="none" />
    </g>
    <g font-family="sans-serif" font-size="11" color-rendering="optimizeQuality" color-interpolation="linearRGB" text-rendering="optimizeLegibility" shape-rendering="geometricPrecision" image-rendering="optimizeQuality" transform="matrix(1,0,0,1,404.9546,16)">
      <text x="0" y="11" xml:space="preserve" stroke="none" clip-path="url(#clipPath10)">Authentication</text>
      <line x1="0" y1="12.5" x2="78.1923828125" y2="12.5" clip-path="url(#clipPath10)" fill="none" />
    </g>
    <g font-family="sans-serif" font-size="11" color-rendering="optimizeQuality" stroke-miterlimit="1" color-interpolation="linearRGB" text-rendering="optimizeLegibility" stroke="white" fill="white" stroke-linecap="butt" shape-rendering="geometricPrecision" image-rendering="optimizeQuality" transform="matrix(1,0,0,1,418.5735,75)">
      <path d="M0.5 0.5 L9.5 0.5 L9.5 20.5 L0.5 20.5 Z" stroke="none" clip-path="url(#clipPath11)" />
      <path d="M0.5 0.5 L9.5 0.5 L9.5 20.5 L0.5 20.5 Z" stroke="black" clip-path="url(#clipPath11)" fill="none" />
    </g>
    <g font-family="sans-serif" font-size="11" color-rendering="optimizeQuality" stroke-miterlimit="1" color-interpolation="linearRGB" text-rendering="optimizeLegibility" stroke-linecap="butt" shape-rendering="geometricPrecision" image-rendering="optimizeQuality" transform="matrix(1,0,0,1,-72,-10)">
      <path d="M110 85 L490.573486328125 85" clip-path="url(#clipPath1)" fill="none" />
      <path d="M12 -6 L0 0 L12 6 Z" stroke="none" clip-path="url(#clipPath12)" transform="matrix(-1,0,0,-1,490.5735,85)" />
      <path d="M12 -6 L0 0 L12 6 Z" stroke-miterlimit="10" clip-path="url(#clipPath12)" fill="none" stroke-linecap="square" transform="matrix(-1,0,0,-1,490.5735,85)" />
    </g>
    <g font-family="sans-serif" font-size="11" color-rendering="optimizeQuality" color-interpolation="linearRGB" text-rendering="optimizeLegibility" shape-rendering="geometricPrecision" image-rendering="optimizeQuality" transform="matrix(1,0,0,1,121.2926,51)">
      <text x="0" y="11" xml:space="preserve" stroke="none" clip-path="url(#clipPath13)"> </text>
    </g>
    <g font-family="sans-serif" font-size="11" color-rendering="optimizeQuality" color-interpolation="linearRGB" text-rendering="optimizeLegibility" shape-rendering="geometricPrecision" image-rendering="optimizeQuality" transform="matrix(1,0,0,1,126.7731,51)">
      <text x="0" y="11" xml:space="preserve" stroke="none" clip-path="url(#clipPath14)">:</text>
    </g>
    <g font-family="sans-serif" font-size="11" color-rendering="optimizeQuality" color-interpolation="linearRGB" text-rendering="optimizeLegibility" shape-rendering="geometricPrecision" image-rendering="optimizeQuality" transform="matrix(1,0,0,1,132.2535,51)">
      <text x="0" y="11" xml:space="preserve" stroke="none" clip-path="url(#clipPath15)">authenticated</text>
    </g>
    <g font-family="sans-serif" font-size="11" color-rendering="optimizeQuality" color-interpolation="linearRGB" text-rendering="optimizeLegibility" shape-rendering="geometricPrecision" image-rendering="optimizeQuality" transform="matrix(1,0,0,1,205.21980000000002,51)">
      <text x="0" y="11" xml:space="preserve" stroke="none" clip-path="url(#clipPath16)">:=</text>
    </g>
    <g font-family="sans-serif" font-size="11" color-rendering="optimizeQuality" color-interpolation="linearRGB" text-rendering="optimizeLegibility" shape-rendering="geometricPrecision" image-rendering="optimizeQuality" transform="matrix(1,0,0,1,217.4444,51)">
      <text x="0" y="11" xml:space="preserve" stroke="none" clip-path="url(#clipPath17)">authenticate</text>
    </g>
    <g font-family="sans-serif" font-size="11" color-rendering="optimizeQuality" color-interpolation="linearRGB" text-rendering="optimizeLegibility" shape-rendering="geometricPrecision" image-rendering="optimizeQuality" transform="matrix(1,0,0,1,283.4874,51)">
      <text x="0" y="11" xml:space="preserve" stroke="none" clip-path="url(#clipPath18)">(</text>
    </g>
    <g font-family="sans-serif" font-size="11" color-rendering="optimizeQuality" color-interpolation="linearRGB" text-rendering="optimizeLegibility" shape-rendering="geometricPrecision" image-rendering="optimizeQuality" transform="matrix(1,0,0,1,287.0645,51)">
      <text x="0" y="11" xml:space="preserve" stroke="none" clip-path="url(#clipPath19)">authInfo</text>
    </g>
    <g font-family="sans-serif" font-size="11" color-rendering="optimizeQuality" color-interpolation="linearRGB" text-rendering="optimizeLegibility" shape-rendering="geometricPrecision" image-rendering="optimizeQuality" transform="matrix(1,0,0,1,331.7037,51)">
      <text x="0" y="11" xml:space="preserve" stroke="none" clip-path="url(#clipPath20)">)</text>
    </g>
  </g>
</svg>
