<?xml version="1.0" encoding="UTF-8"?>

<!DOCTYPE svg PUBLIC '-//W3C//DTD SVG 1.0//EN' 'http://www.w3.org/TR/2001/REC-SVG-20010904/DTD/svg10.dtd'>
<svg stroke-width="1" stroke-dashoffset="0" font-size="12" stroke-dasharray="none" color-rendering="auto" font-weight="normal" color-interpolation="auto" stroke-linejoin="miter" fill="black" image-rendering="auto" font-family="&apos;sansserif&apos;" stroke-opacity="1" stroke-miterlimit="10" stroke="black" text-rendering="auto" font-style="normal" stroke-linecap="square" fill-opacity="1" shape-rendering="auto" xmlns="http://www.w3.org/2000/svg" xmlns:xlink="http://www.w3.org/1999/xlink">
  <!--Generated by the Batik Graphics2D SVG Generator-->
  <defs id="genericDefs" />
  <g>
    <defs id="defs1">
      <clipPath clipPathUnits="userSpaceOnUse" id="clipPath1">
        <path d="M120 110 L120 330 L426 330 L426 110 Z" />
      </clipPath>
      <clipPath clipPathUnits="userSpaceOnUse" id="clipPath2">
        <path d="M0 0 L0 220 L306 220 L306 0 Z" />
      </clipPath>
      <clipPath clipPathUnits="userSpaceOnUse" id="clipPath3">
        <path d="M-110 -140 L-110 80 L196 80 L196 -140 Z" />
      </clipPath>
      <clipPath clipPathUnits="userSpaceOnUse" id="clipPath4">
        <path d="M-118.341796875 -143 L-118.341796875 77 L187.658203125 77 L187.658203125 -143 Z" />
      </clipPath>
      <clipPath clipPathUnits="userSpaceOnUse" id="clipPath5">
        <path d="M-111 -159 L-111 61 L195 61 L195 -159 Z" />
      </clipPath>
      <clipPath clipPathUnits="userSpaceOnUse" id="clipPath6">
        <path d="M-111 -184 L-111 36 L195 36 L195 -184 Z" />
      </clipPath>
      <clipPath clipPathUnits="userSpaceOnUse" id="clipPath7">
        <path d="M-10 -10 L-10 210 L296 210 L296 -10 Z" />
      </clipPath>
      <clipPath clipPathUnits="userSpaceOnUse" id="clipPath8">
        <path d="M-85.879638671875 -13 L-85.879638671875 207 L220.120361328125 207 L220.120361328125 -13 Z" />
      </clipPath>
      <clipPath clipPathUnits="userSpaceOnUse" id="clipPath9">
        <path d="M-11 -29 L-11 191 L295 191 L295 -29 Z" />
      </clipPath>
      <clipPath clipPathUnits="userSpaceOnUse" id="clipPath10">
        <path d="M-15 -34 L-15 186 L291 186 L291 -34 Z" />
      </clipPath>
      <clipPath clipPathUnits="userSpaceOnUse" id="clipPath11">
        <path d="M-23.744140625 -34 L-23.744140625 186 L282.255859375 186 L282.255859375 -34 Z" />
      </clipPath>
      <clipPath clipPathUnits="userSpaceOnUse" id="clipPath12">
        <path d="M-89.787109375 -34 L-89.787109375 186 L216.212890625 186 L216.212890625 -34 Z" />
      </clipPath>
      <clipPath clipPathUnits="userSpaceOnUse" id="clipPath13">
        <path d="M-93.3642578125 -34 L-93.3642578125 186 L212.6357421875 186 L212.6357421875 -34 Z" />
      </clipPath>
      <clipPath clipPathUnits="userSpaceOnUse" id="clipPath14">
        <path d="M-138.00341796875 -34 L-138.00341796875 186 L167.99658203125 186 L167.99658203125 -34 Z" />
      </clipPath>
      <clipPath clipPathUnits="userSpaceOnUse" id="clipPath15">
        <path d="M-141.48388671875 -34 L-141.48388671875 186 L164.51611328125 186 L164.51611328125 -34 Z" />
      </clipPath>
      <clipPath clipPathUnits="userSpaceOnUse" id="clipPath16">
        <path d="M-240.47314453125 -34 L-240.47314453125 186 L65.52685546875 186 L65.52685546875 -34 Z" />
      </clipPath>
      <clipPath clipPathUnits="userSpaceOnUse" id="clipPath17">
        <path d="M-244.05029296875 -34 L-244.05029296875 186 L61.94970703125 186 L61.94970703125 -34 Z" />
      </clipPath>
      <clipPath clipPathUnits="userSpaceOnUse" id="clipPath18">
        <path d="M-247.53076171875 -34 L-247.53076171875 186 L58.46923828125 186 L58.46923828125 -34 Z" />
      </clipPath>
      <clipPath clipPathUnits="userSpaceOnUse" id="clipPath19">
        <path d="M-61.114498138427734 -98 L-61.114498138427734 122 L244.885498046875 122 L244.885498046875 -98 Z" />
      </clipPath>
      <clipPath clipPathUnits="userSpaceOnUse" id="clipPath20">
        <path d="M-81.60279846191406 -98 L-81.60279846191406 122 L224.39720153808594 122 L224.39720153808594 -98 Z" />
      </clipPath>
      <clipPath clipPathUnits="userSpaceOnUse" id="clipPath21">
        <path d="M-120.10030364990234 -98 L-120.10030364990234 122 L185.8997039794922 122 L185.8997039794922 -98 Z" />
      </clipPath>
      <clipPath clipPathUnits="userSpaceOnUse" id="clipPath22">
        <path d="M-70 142.58859252929688 L150 142.58859252929688 L150 -163.41140747070312 L-70 -163.41140747070312 Z" />
      </clipPath>
    </defs>
    <g color-rendering="optimizeQuality" stroke-miterlimit="1" color-interpolation="linearRGB" text-rendering="optimizeLegibility" stroke-linecap="butt" shape-rendering="geometricPrecision" image-rendering="optimizeQuality" transform="matrix(1,0,0,1,110,140)">
      <path d="M0.5 0.5 L99.5 0.5 L99.5 69.5 L0.5 69.5 Z" clip-path="url(#clipPath3)" fill="none" />
    </g>
    <g font-family="sans-serif" font-size="11" font-weight="bold" color-rendering="optimizeQuality" color-interpolation="linearRGB" text-rendering="optimizeLegibility" shape-rendering="geometricPrecision" image-rendering="optimizeQuality" transform="matrix(1,0,0,1,118.3418,143)">
      <text x="0" y="11" xml:space="preserve" stroke="none" clip-path="url(#clipPath4)">Authentication</text>
    </g>
    <g font-family="sans-serif" font-size="11" font-weight="bold" color-rendering="optimizeQuality" stroke-miterlimit="1" color-interpolation="linearRGB" text-rendering="optimizeLegibility" stroke="white" fill="white" stroke-linecap="butt" shape-rendering="geometricPrecision" image-rendering="optimizeQuality" transform="matrix(1,0,0,1,111,159)">
      <path d="M0.5 0.5 L97.5 0.5 L97.5 0.5 L0.5 0.5 Z" stroke="none" clip-path="url(#clipPath5)" />
      <path d="M0.5 0.5 L97.5 0.5 L97.5 0.5 L0.5 0.5 Z" stroke="black" clip-path="url(#clipPath5)" fill="none" />
    </g>
    <g font-family="sans-serif" font-size="11" font-weight="bold" color-rendering="optimizeQuality" stroke-miterlimit="1" color-interpolation="linearRGB" text-rendering="optimizeLegibility" stroke="white" fill="white" stroke-linecap="butt" shape-rendering="geometricPrecision" image-rendering="optimizeQuality" transform="matrix(1,0,0,1,111,184)">
      <path d="M0.5 0.5 L97.5 0.5 L97.5 0.5 L0.5 0.5 Z" stroke="none" clip-path="url(#clipPath6)" />
      <path d="M0.5 0.5 L97.5 0.5 L97.5 0.5 L0.5 0.5 Z" stroke="black" clip-path="url(#clipPath6)" fill="none" />
    </g>
    <g font-family="sans-serif" font-size="11" font-weight="bold" color-rendering="optimizeQuality" stroke-miterlimit="1" color-interpolation="linearRGB" text-rendering="optimizeLegibility" stroke="white" fill="white" stroke-linecap="butt" shape-rendering="geometricPrecision" image-rendering="optimizeQuality" transform="matrix(1,0,0,1,10,10)">
      <path d="M0.5 0.5 L284.67718505859375 0.5 L284.67718505859375 59.5 L0.5 59.5 Z" stroke="none" clip-path="url(#clipPath7)" />
      <path d="M0.5 0.5 L284.67718505859375 0.5 L284.67718505859375 59.5 L0.5 59.5 Z" stroke="black" clip-path="url(#clipPath7)" fill="none" />
    </g>
    <g font-family="sans-serif" font-size="11" font-weight="bold" color-rendering="optimizeQuality" color-interpolation="linearRGB" text-rendering="optimizeLegibility" shape-rendering="geometricPrecision" image-rendering="optimizeQuality" transform="matrix(1,0,0,1,85.879638671875,13)">
      <text x="0" y="11" xml:space="preserve" stroke="none" clip-path="url(#clipPath8)">AuthenticationInterface</text>
    </g>
    <g font-family="sans-serif" font-size="11" font-weight="bold" color-rendering="optimizeQuality" stroke-miterlimit="1" color-interpolation="linearRGB" text-rendering="optimizeLegibility" stroke="white" fill="white" stroke-linecap="butt" shape-rendering="geometricPrecision" image-rendering="optimizeQuality" transform="matrix(1,0,0,1,11,29)">
      <path d="M0.5 0.5 L282.67724609375 0.5 L282.67724609375 0.5 L0.5 0.5 Z" stroke="none" clip-path="url(#clipPath9)" />
      <path d="M0.5 0.5 L282.67724609375 0.5 L282.67724609375 0.5 L0.5 0.5 Z" stroke="black" clip-path="url(#clipPath9)" fill="none" />
    </g>
    <g font-family="sans-serif" font-size="11" color-rendering="optimizeQuality" color-interpolation="linearRGB" text-rendering="optimizeLegibility" shape-rendering="geometricPrecision" image-rendering="optimizeQuality" transform="matrix(1,0,0,1,15,34)">
      <text x="0" y="11" xml:space="preserve" stroke="none" clip-path="url(#clipPath10)">+</text>
    </g>
    <g font-family="sans-serif" font-size="11" color-rendering="optimizeQuality" color-interpolation="linearRGB" text-rendering="optimizeLegibility" shape-rendering="geometricPrecision" image-rendering="optimizeQuality" transform="matrix(1,0,0,1,23.744140625,34)">
      <text x="0" y="11" xml:space="preserve" stroke="none" clip-path="url(#clipPath11)">authenticate</text>
    </g>
    <g font-family="sans-serif" font-size="11" color-rendering="optimizeQuality" color-interpolation="linearRGB" text-rendering="optimizeLegibility" shape-rendering="geometricPrecision" image-rendering="optimizeQuality" transform="matrix(1,0,0,1,89.787109375,34)">
      <text x="0" y="11" xml:space="preserve" stroke="none" clip-path="url(#clipPath12)">(</text>
    </g>
    <g font-family="sans-serif" font-size="11" color-rendering="optimizeQuality" color-interpolation="linearRGB" text-rendering="optimizeLegibility" shape-rendering="geometricPrecision" image-rendering="optimizeQuality" transform="matrix(1,0,0,1,93.3642578125,34)">
      <text x="0" y="11" xml:space="preserve" stroke="none" clip-path="url(#clipPath13)">authInfo</text>
    </g>
    <g font-family="sans-serif" font-size="11" color-rendering="optimizeQuality" color-interpolation="linearRGB" text-rendering="optimizeLegibility" shape-rendering="geometricPrecision" image-rendering="optimizeQuality" transform="matrix(1,0,0,1,138.00341796875,34)">
      <text x="0" y="11" xml:space="preserve" stroke="none" clip-path="url(#clipPath14)">:</text>
    </g>
    <g font-family="sans-serif" font-size="11" color-rendering="optimizeQuality" color-interpolation="linearRGB" text-rendering="optimizeLegibility" shape-rendering="geometricPrecision" image-rendering="optimizeQuality" transform="matrix(1,0,0,1,141.48388671875,34)">
      <text x="0" y="11" xml:space="preserve" stroke="none" clip-path="url(#clipPath15)">AuthenticationInfo</text>
    </g>
    <g font-family="sans-serif" font-size="11" color-rendering="optimizeQuality" color-interpolation="linearRGB" text-rendering="optimizeLegibility" shape-rendering="geometricPrecision" image-rendering="optimizeQuality" transform="matrix(1,0,0,1,240.47314453125,34)">
      <text x="0" y="11" xml:space="preserve" stroke="none" clip-path="url(#clipPath16)">)</text>
    </g>
    <g font-family="sans-serif" font-size="11" color-rendering="optimizeQuality" color-interpolation="linearRGB" text-rendering="optimizeLegibility" shape-rendering="geometricPrecision" image-rendering="optimizeQuality" transform="matrix(1,0,0,1,244.05029296875,34)">
      <text x="0" y="11" xml:space="preserve" stroke="none" clip-path="url(#clipPath17)">:</text>
    </g>
    <g font-family="sans-serif" font-size="11" color-rendering="optimizeQuality" color-interpolation="linearRGB" text-rendering="optimizeLegibility" shape-rendering="geometricPrecision" image-rendering="optimizeQuality" transform="matrix(1,0,0,1,247.53076171875,34)">
      <text x="0" y="11" xml:space="preserve" stroke="none" clip-path="url(#clipPath18)">boolean</text>
    </g>
    <g font-family="sans-serif" font-size="11" color-rendering="optimizeQuality" stroke-dasharray="5,10" stroke-miterlimit="1" color-interpolation="linearRGB" text-rendering="optimizeLegibility" stroke-linecap="butt" shape-rendering="geometricPrecision" image-rendering="optimizeQuality" transform="matrix(1,0,0,1,-120,-110)">
      <path d="M262.5885925292969 250 L262.5885925292969 180" clip-path="url(#clipPath1)" fill="none" />
      <text x="0" y="11" xml:space="preserve" stroke-dasharray="none" stroke-miterlimit="10" stroke="none" clip-path="url(#clipPath19)" stroke-linecap="square" transform="matrix(1,0,0,1,181.1145,208)">&lt;&lt;</text>
    </g>
    <g font-family="sans-serif" font-size="11" color-rendering="optimizeQuality" color-interpolation="linearRGB" text-rendering="optimizeLegibility" shape-rendering="geometricPrecision" image-rendering="optimizeQuality" transform="matrix(1,0,0,1,81.60279999999999,98)">
      <text x="0" y="11" xml:space="preserve" stroke="none" clip-path="url(#clipPath20)">realize</text>
    </g>
    <g font-family="sans-serif" font-size="11" color-rendering="optimizeQuality" color-interpolation="linearRGB" text-rendering="optimizeLegibility" shape-rendering="geometricPrecision" image-rendering="optimizeQuality" transform="matrix(1,0,0,1,120.10029999999999,98)">
      <text x="0" y="11" xml:space="preserve" stroke="none" clip-path="url(#clipPath21)">&gt;&gt;</text>
    </g>
    <g font-family="sans-serif" font-size="11" color-rendering="optimizeQuality" stroke-dasharray="5,10" stroke-miterlimit="1" color-interpolation="linearRGB" text-rendering="optimizeLegibility" stroke="white" fill="white" stroke-linecap="butt" shape-rendering="geometricPrecision" image-rendering="optimizeQuality" transform="matrix(0,1,-1,0,142.58859999999999,70)">
      <path d="M12 -6 L0 0 L12 6 Z" stroke="none" clip-path="url(#clipPath22)" />
    </g>
    <g font-family="sans-serif" font-size="11" color-rendering="optimizeQuality" color-interpolation="linearRGB" text-rendering="optimizeLegibility" shape-rendering="geometricPrecision" image-rendering="optimizeQuality" transform="matrix(0,1,-1,0,142.58859999999999,70)">
      <path d="M12 -6 L0 0 L12 6 Z" clip-path="url(#clipPath22)" fill="none" />
    </g>
  </g>
</svg>
