<?xml version="1.0" encoding="UTF-8"?>

<!DOCTYPE svg PUBLIC '-//W3C//DTD SVG 1.0//EN' 'http://www.w3.org/TR/2001/REC-SVG-20010904/DTD/svg10.dtd'>
<svg stroke-width="1" stroke-dashoffset="0" font-size="12" stroke-dasharray="none" color-rendering="auto" font-weight="normal" color-interpolation="auto" stroke-linejoin="miter" fill="black" image-rendering="auto" font-family="&apos;sansserif&apos;" stroke-opacity="1" stroke-miterlimit="10" stroke="black" text-rendering="auto" font-style="normal" stroke-linecap="square" fill-opacity="1" shape-rendering="auto" xmlns="http://www.w3.org/2000/svg" xmlns:xlink="http://www.w3.org/1999/xlink">
  <!--Generated by the Batik Graphics2D SVG Generator-->
  <defs id="genericDefs" />
  <g>
    <defs id="defs1">
      <clipPath clipPathUnits="userSpaceOnUse" id="clipPath1">
        <path d="M10 10 L10 311 L596 311 L596 10 Z" />
      </clipPath>
      <clipPath clipPathUnits="userSpaceOnUse" id="clipPath2">
        <path d="M0 0 L0 301 L586 301 L586 0 Z" />
      </clipPath>
      <clipPath clipPathUnits="userSpaceOnUse" id="clipPath3">
        <path d="M-10 -10 L-10 291 L576 291 L576 -10 Z" />
      </clipPath>
      <clipPath clipPathUnits="userSpaceOnUse" id="clipPath4">
        <path d="M-16 -16 L-16 285 L570 285 L570 -16 Z" />
      </clipPath>
      <clipPath clipPathUnits="userSpaceOnUse" id="clipPath5">
        <path d="M-85.44290161132812 -16 L-85.44290161132812 285 L500.5570983886719 285 L500.5570983886719 -16 Z" />
      </clipPath>
      <clipPath clipPathUnits="userSpaceOnUse" id="clipPath6">
        <path d="M-88.92330169677734 -16 L-88.92330169677734 285 L497.0766906738281 285 L497.0766906738281 -16 Z" />
      </clipPath>
      <clipPath clipPathUnits="userSpaceOnUse" id="clipPath7">
        <path d="M-470 -10 L-470 291 L116 291 L116 -10 Z" />
      </clipPath>
      <clipPath clipPathUnits="userSpaceOnUse" id="clipPath8">
        <path d="M-476 -16 L-476 285 L110 285 L110 -16 Z" />
      </clipPath>
      <clipPath clipPathUnits="userSpaceOnUse" id="clipPath9">
        <path d="M-513.47412109375 -16 L-513.47412109375 285 L72.5259017944336 285 L72.5259017944336 -16 Z" />
      </clipPath>
      <clipPath clipPathUnits="userSpaceOnUse" id="clipPath10">
        <path d="M-516.95458984375 -16 L-516.95458984375 285 L69.04540252685547 285 L69.04540252685547 -16 Z" />
      </clipPath>
      <clipPath clipPathUnits="userSpaceOnUse" id="clipPath11">
        <path d="M-517.513671875 -71 L-517.513671875 230 L68.48629760742188 230 L68.48629760742188 -71 Z" />
      </clipPath>
      <clipPath clipPathUnits="userSpaceOnUse" id="clipPath12">
        <path d="M517.513671875 71 L517.513671875 -230 L-68.48629760742188 -230 L-68.48629760742188 71 Z" />
      </clipPath>
      <clipPath clipPathUnits="userSpaceOnUse" id="clipPath13">
        <path d="M-194.79840087890625 -47 L-194.79840087890625 254 L391.20159912109375 254 L391.20159912109375 -47 Z" />
      </clipPath>
      <clipPath clipPathUnits="userSpaceOnUse" id="clipPath14">
        <path d="M-200.27890014648438 -47 L-200.27890014648438 254 L385.7210998535156 254 L385.7210998535156 -47 Z" />
      </clipPath>
      <clipPath clipPathUnits="userSpaceOnUse" id="clipPath15">
        <path d="M-205.75929260253906 -47 L-205.75929260253906 254 L380.2406921386719 254 L380.2406921386719 -47 Z" />
      </clipPath>
      <clipPath clipPathUnits="userSpaceOnUse" id="clipPath16">
        <path d="M-278.7255859375 -47 L-278.7255859375 254 L307.2744140625 254 L307.2744140625 -47 Z" />
      </clipPath>
      <clipPath clipPathUnits="userSpaceOnUse" id="clipPath17">
        <path d="M-290.9501953125 -47 L-290.9501953125 254 L295.0498046875 254 L295.0498046875 -47 Z" />
      </clipPath>
      <clipPath clipPathUnits="userSpaceOnUse" id="clipPath18">
        <path d="M-356.9931945800781 -47 L-356.9931945800781 254 L229.00680541992188 254 L229.00680541992188 -47 Z" />
      </clipPath>
      <clipPath clipPathUnits="userSpaceOnUse" id="clipPath19">
        <path d="M-360.5703125 -47 L-360.5703125 254 L225.42970275878906 254 L225.42970275878906 -47 Z" />
      </clipPath>
      <clipPath clipPathUnits="userSpaceOnUse" id="clipPath20">
        <path d="M-405.2095031738281 -47 L-405.2095031738281 254 L180.79049682617188 254 L180.79049682617188 -47 Z" />
      </clipPath>
      <clipPath clipPathUnits="userSpaceOnUse" id="clipPath21">
        <path d="M517.513671875 106 L517.513671875 -195 L-68.48629760742188 -195 L-68.48629760742188 106 Z" />
      </clipPath>
      <clipPath clipPathUnits="userSpaceOnUse" id="clipPath22">
        <path d="M-182.27029418945312 -82 L-182.27029418945312 219 L403.7297058105469 219 L403.7297058105469 -82 Z" />
      </clipPath>
      <clipPath clipPathUnits="userSpaceOnUse" id="clipPath23">
        <path d="M-187.75079345703125 -82 L-187.75079345703125 219 L398.24920654296875 219 L398.24920654296875 -82 Z" />
      </clipPath>
      <clipPath clipPathUnits="userSpaceOnUse" id="clipPath24">
        <path d="M-193.231201171875 -82 L-193.231201171875 219 L392.768798828125 219 L392.768798828125 -82 Z" />
      </clipPath>
      <clipPath clipPathUnits="userSpaceOnUse" id="clipPath25">
        <path d="M-276.8053894042969 -82 L-276.8053894042969 219 L309.1946105957031 219 L309.1946105957031 -82 Z" />
      </clipPath>
      <clipPath clipPathUnits="userSpaceOnUse" id="clipPath26">
        <path d="M-289.0299987792969 -82 L-289.0299987792969 219 L296.9700012207031 219 L296.9700012207031 -82 Z" />
      </clipPath>
      <clipPath clipPathUnits="userSpaceOnUse" id="clipPath27">
        <path d="M-374.2370910644531 -82 L-374.2370910644531 219 L211.7628936767578 219 L211.7628936767578 -82 Z" />
      </clipPath>
      <clipPath clipPathUnits="userSpaceOnUse" id="clipPath28">
        <path d="M-377.814208984375 -82 L-377.814208984375 219 L208.18580627441406 219 L208.18580627441406 -82 Z" />
      </clipPath>
      <clipPath clipPathUnits="userSpaceOnUse" id="clipPath29">
        <path d="M-403.385986328125 -82 L-403.385986328125 219 L182.61399841308594 219 L182.61399841308594 -82 Z" />
      </clipPath>
      <clipPath clipPathUnits="userSpaceOnUse" id="clipPath30">
        <path d="M-406.8664855957031 -82 L-406.8664855957031 219 L179.1334991455078 219 L179.1334991455078 -82 Z" />
      </clipPath>
      <clipPath clipPathUnits="userSpaceOnUse" id="clipPath31">
        <path d="M-417.73748779296875 -82 L-417.73748779296875 219 L168.2624969482422 219 L168.2624969482422 -82 Z" />
      </clipPath>
      <clipPath clipPathUnits="userSpaceOnUse" id="clipPath32">
        <path d="M517.513671875 141 L517.513671875 -160 L-68.48629760742188 -160 L-68.48629760742188 141 Z" />
      </clipPath>
      <clipPath clipPathUnits="userSpaceOnUse" id="clipPath33">
        <path d="M-206.1717071533203 -117 L-206.1717071533203 184 L379.82830810546875 184 L379.82830810546875 -117 Z" />
      </clipPath>
      <clipPath clipPathUnits="userSpaceOnUse" id="clipPath34">
        <path d="M-211.65220642089844 -117 L-211.65220642089844 184 L374.3478088378906 184 L374.3478088378906 -117 Z" />
      </clipPath>
      <clipPath clipPathUnits="userSpaceOnUse" id="clipPath35">
        <path d="M-217.13259887695312 -117 L-217.13259887695312 184 L368.8674011230469 184 L368.8674011230469 -117 Z" />
      </clipPath>
      <clipPath clipPathUnits="userSpaceOnUse" id="clipPath36">
        <path d="M-255.1385040283203 -117 L-255.1385040283203 184 L330.86151123046875 184 L330.86151123046875 -117 Z" />
      </clipPath>
      <clipPath clipPathUnits="userSpaceOnUse" id="clipPath37">
        <path d="M-267.36309814453125 -117 L-267.36309814453125 184 L318.63690185546875 184 L318.63690185546875 -117 Z" />
      </clipPath>
      <clipPath clipPathUnits="userSpaceOnUse" id="clipPath38">
        <path d="M-342.160888671875 -117 L-342.160888671875 184 L243.83909606933594 184 L243.83909606933594 -117 Z" />
      </clipPath>
      <clipPath clipPathUnits="userSpaceOnUse" id="clipPath39">
        <path d="M-345.73809814453125 -117 L-345.73809814453125 184 L240.26190185546875 184 L240.26190185546875 -117 Z" />
      </clipPath>
      <clipPath clipPathUnits="userSpaceOnUse" id="clipPath40">
        <path d="M-393.8362121582031 -117 L-393.8362121582031 184 L192.16380310058594 184 L192.16380310058594 -117 Z" />
      </clipPath>
      <clipPath clipPathUnits="userSpaceOnUse" id="clipPath41">
        <path d="M517.513671875 176 L517.513671875 -125 L-68.48629760742188 -125 L-68.48629760742188 176 Z" />
      </clipPath>
      <clipPath clipPathUnits="userSpaceOnUse" id="clipPath42">
        <path d="M-164.61819458007812 -152 L-164.61819458007812 149 L421.3818054199219 149 L421.3818054199219 -152 Z" />
      </clipPath>
      <clipPath clipPathUnits="userSpaceOnUse" id="clipPath43">
        <path d="M-170.09869384765625 -152 L-170.09869384765625 149 L415.90130615234375 149 L415.90130615234375 -152 Z" />
      </clipPath>
      <clipPath clipPathUnits="userSpaceOnUse" id="clipPath44">
        <path d="M-175.5791015625 -152 L-175.5791015625 149 L410.4208984375 149 L410.4208984375 -152 Z" />
      </clipPath>
      <clipPath clipPathUnits="userSpaceOnUse" id="clipPath45">
        <path d="M-233.22169494628906 -152 L-233.22169494628906 149 L352.7782897949219 149 L352.7782897949219 -152 Z" />
      </clipPath>
      <clipPath clipPathUnits="userSpaceOnUse" id="clipPath46">
        <path d="M-245.44630432128906 -152 L-245.44630432128906 149 L340.5537109375 149 L340.5537109375 -152 Z" />
      </clipPath>
      <clipPath clipPathUnits="userSpaceOnUse" id="clipPath47">
        <path d="M-359.92041015625 -152 L-359.92041015625 149 L226.07960510253906 149 L226.07960510253906 -152 Z" />
      </clipPath>
      <clipPath clipPathUnits="userSpaceOnUse" id="clipPath48">
        <path d="M-363.4975891113281 -152 L-363.4975891113281 149 L222.5023956298828 149 L222.5023956298828 -152 Z" />
      </clipPath>
      <clipPath clipPathUnits="userSpaceOnUse" id="clipPath49">
        <path d="M-437.9032897949219 -152 L-437.9032897949219 149 L148.09669494628906 149 L148.09669494628906 -152 Z" />
      </clipPath>
      <clipPath clipPathUnits="userSpaceOnUse" id="clipPath50">
        <path d="M517.513671875 211 L517.513671875 -90 L-68.48629760742188 -90 L-68.48629760742188 211 Z" />
      </clipPath>
      <clipPath clipPathUnits="userSpaceOnUse" id="clipPath51">
        <path d="M-191.7476043701172 -187 L-191.7476043701172 114 L394.2524108886719 114 L394.2524108886719 -187 Z" />
      </clipPath>
      <clipPath clipPathUnits="userSpaceOnUse" id="clipPath52">
        <path d="M-197.2281036376953 -187 L-197.2281036376953 114 L388.77191162109375 114 L388.77191162109375 -187 Z" />
      </clipPath>
      <clipPath clipPathUnits="userSpaceOnUse" id="clipPath53">
        <path d="M-202.70849609375 -187 L-202.70849609375 114 L383.29150390625 114 L383.29150390625 -187 Z" />
      </clipPath>
      <clipPath clipPathUnits="userSpaceOnUse" id="clipPath54">
        <path d="M-260.5928039550781 -187 L-260.5928039550781 114 L325.4071960449219 114 L325.4071960449219 -187 Z" />
      </clipPath>
      <clipPath clipPathUnits="userSpaceOnUse" id="clipPath55">
        <path d="M-264.1698913574219 -187 L-264.1698913574219 114 L321.8301086425781 114 L321.8301086425781 -187 Z" />
      </clipPath>
      <clipPath clipPathUnits="userSpaceOnUse" id="clipPath56">
        <path d="M-338.5757141113281 -187 L-338.5757141113281 114 L247.42430114746094 114 L247.42430114746094 -187 Z" />
      </clipPath>
      <clipPath clipPathUnits="userSpaceOnUse" id="clipPath57">
        <path d="M-342.05621337890625 -187 L-342.05621337890625 114 L243.9438018798828 114 L243.9438018798828 -187 Z" />
      </clipPath>
      <clipPath clipPathUnits="userSpaceOnUse" id="clipPath58">
        <path d="M-408.26031494140625 -187 L-408.26031494140625 114 L177.7397003173828 114 L177.7397003173828 -187 Z" />
      </clipPath>
      <clipPath clipPathUnits="userSpaceOnUse" id="clipPath59">
        <path d="M517.513671875 246 L517.513671875 -55 L-68.48629760742188 -55 L-68.48629760742188 246 Z" />
      </clipPath>
      <clipPath clipPathUnits="userSpaceOnUse" id="clipPath60">
        <path d="M-182.27029418945312 -222 L-182.27029418945312 79 L403.7297058105469 79 L403.7297058105469 -222 Z" />
      </clipPath>
      <clipPath clipPathUnits="userSpaceOnUse" id="clipPath61">
        <path d="M-187.75079345703125 -222 L-187.75079345703125 79 L398.24920654296875 79 L398.24920654296875 -222 Z" />
      </clipPath>
      <clipPath clipPathUnits="userSpaceOnUse" id="clipPath62">
        <path d="M-193.231201171875 -222 L-193.231201171875 79 L392.768798828125 79 L392.768798828125 -222 Z" />
      </clipPath>
      <clipPath clipPathUnits="userSpaceOnUse" id="clipPath63">
        <path d="M-276.8053894042969 -222 L-276.8053894042969 79 L309.1946105957031 79 L309.1946105957031 -222 Z" />
      </clipPath>
      <clipPath clipPathUnits="userSpaceOnUse" id="clipPath64">
        <path d="M-289.0299987792969 -222 L-289.0299987792969 79 L296.9700012207031 79 L296.9700012207031 -222 Z" />
      </clipPath>
      <clipPath clipPathUnits="userSpaceOnUse" id="clipPath65">
        <path d="M-374.2370910644531 -222 L-374.2370910644531 79 L211.7628936767578 79 L211.7628936767578 -222 Z" />
      </clipPath>
      <clipPath clipPathUnits="userSpaceOnUse" id="clipPath66">
        <path d="M-377.814208984375 -222 L-377.814208984375 79 L208.18580627441406 79 L208.18580627441406 -222 Z" />
      </clipPath>
      <clipPath clipPathUnits="userSpaceOnUse" id="clipPath67">
        <path d="M-403.385986328125 -222 L-403.385986328125 79 L182.61399841308594 79 L182.61399841308594 -222 Z" />
      </clipPath>
      <clipPath clipPathUnits="userSpaceOnUse" id="clipPath68">
        <path d="M-406.8664855957031 -222 L-406.8664855957031 79 L179.1334991455078 79 L179.1334991455078 -222 Z" />
      </clipPath>
      <clipPath clipPathUnits="userSpaceOnUse" id="clipPath69">
        <path d="M-417.73748779296875 -222 L-417.73748779296875 79 L168.2624969482422 79 L168.2624969482422 -222 Z" />
      </clipPath>
    </defs>
    <g color-rendering="optimizeQuality" stroke-dasharray="5,5" stroke-miterlimit="1" color-interpolation="linearRGB" text-rendering="optimizeLegibility" stroke-linecap="butt" shape-rendering="geometricPrecision" image-rendering="optimizeQuality" transform="matrix(1,0,0,1,10,10)">
      <path d="M79.08495330810547 0.5 L79.08495330810547 280.5" clip-path="url(#clipPath3)" fill="none" />
    </g>
    <g color-rendering="optimizeQuality" color-interpolation="linearRGB" text-rendering="optimizeLegibility" stroke="white" fill="white" shape-rendering="geometricPrecision" image-rendering="optimizeQuality" transform="matrix(1,0,0,1,10,10)">
      <path d="M0.5 0.5 L156.66990661621094 0.5 L156.66990661621094 25.5 L0.5 25.5 Z" stroke="none" clip-path="url(#clipPath3)" />
    </g>
    <g color-rendering="optimizeQuality" stroke-miterlimit="1" color-interpolation="linearRGB" text-rendering="optimizeLegibility" stroke-linecap="butt" shape-rendering="geometricPrecision" image-rendering="optimizeQuality" transform="matrix(1,0,0,1,10,10)">
      <path d="M0.5 0.5 L156.66990661621094 0.5 L156.66990661621094 25.5 L0.5 25.5 Z" clip-path="url(#clipPath3)" fill="none" />
    </g>
    <g font-family="sans-serif" font-size="11" color-rendering="optimizeQuality" color-interpolation="linearRGB" text-rendering="optimizeLegibility" shape-rendering="geometricPrecision" image-rendering="optimizeQuality" transform="matrix(1,0,0,1,16,16)">
      <text x="0" y="11" xml:space="preserve" stroke="none" clip-path="url(#clipPath4)">playlistEditor</text>
      <line x1="0" y1="12.5" x2="69.44287109375" y2="12.5" clip-path="url(#clipPath4)" fill="none" />
    </g>
    <g font-family="sans-serif" font-size="11" color-rendering="optimizeQuality" color-interpolation="linearRGB" text-rendering="optimizeLegibility" shape-rendering="geometricPrecision" image-rendering="optimizeQuality" transform="matrix(1,0,0,1,85.4429,16)">
      <text x="0" y="11" xml:space="preserve" stroke="none" clip-path="url(#clipPath5)">:</text>
      <line x1="0" y1="12.5" x2="3.48046875" y2="12.5" clip-path="url(#clipPath5)" fill="none" />
    </g>
    <g font-family="sans-serif" font-size="11" color-rendering="optimizeQuality" color-interpolation="linearRGB" text-rendering="optimizeLegibility" shape-rendering="geometricPrecision" image-rendering="optimizeQuality" transform="matrix(1,0,0,1,88.9233,16)">
      <text x="0" y="11" xml:space="preserve" stroke="none" clip-path="url(#clipPath6)">Playlist editor</text>
      <line x1="0" y1="12.5" x2="72.24658203125" y2="12.5" clip-path="url(#clipPath6)" fill="none" />
    </g>
    <g font-family="sans-serif" font-size="11" color-rendering="optimizeQuality" color-interpolation="linearRGB" text-rendering="optimizeLegibility" stroke="white" fill="white" shape-rendering="geometricPrecision" image-rendering="optimizeQuality" transform="matrix(1,0,0,1,470,10)">
      <path d="M53.013648986816406 0.5 L53.013648986816406 280.5" stroke="none" clip-path="url(#clipPath7)" />
    </g>
    <g font-family="sans-serif" font-size="11" color-rendering="optimizeQuality" stroke-dasharray="5,5" stroke-miterlimit="1" color-interpolation="linearRGB" text-rendering="optimizeLegibility" stroke-linecap="butt" shape-rendering="geometricPrecision" image-rendering="optimizeQuality" transform="matrix(1,0,0,1,470,10)">
      <path d="M53.013648986816406 0.5 L53.013648986816406 280.5" clip-path="url(#clipPath7)" fill="none" />
    </g>
    <g font-family="sans-serif" font-size="11" color-rendering="optimizeQuality" color-interpolation="linearRGB" text-rendering="optimizeLegibility" stroke="white" fill="white" shape-rendering="geometricPrecision" image-rendering="optimizeQuality" transform="matrix(1,0,0,1,470,10)">
      <path d="M0.5 0.5 L104.52729797363281 0.5 L104.52729797363281 25.5 L0.5 25.5 Z" stroke="none" clip-path="url(#clipPath7)" />
    </g>
    <g font-family="sans-serif" font-size="11" color-rendering="optimizeQuality" stroke-miterlimit="1" color-interpolation="linearRGB" text-rendering="optimizeLegibility" stroke-linecap="butt" shape-rendering="geometricPrecision" image-rendering="optimizeQuality" transform="matrix(1,0,0,1,470,10)">
      <path d="M0.5 0.5 L104.52729797363281 0.5 L104.52729797363281 25.5 L0.5 25.5 Z" clip-path="url(#clipPath7)" fill="none" />
      <text x="0" y="11" xml:space="preserve" stroke-miterlimit="10" stroke="none" clip-path="url(#clipPath8)" stroke-linecap="square" transform="matrix(1,0,0,1,6,6)">system</text>
      <line x1="0" y1="12.5" x2="37.47412109375" y2="12.5" stroke-miterlimit="10" clip-path="url(#clipPath8)" fill="none" stroke-linecap="square" transform="matrix(1,0,0,1,6,6)" />
    </g>
    <g font-family="sans-serif" font-size="11" color-rendering="optimizeQuality" color-interpolation="linearRGB" text-rendering="optimizeLegibility" shape-rendering="geometricPrecision" image-rendering="optimizeQuality" transform="matrix(1,0,0,1,513.4741,16)">
      <text x="0" y="11" xml:space="preserve" stroke="none" clip-path="url(#clipPath9)">:</text>
      <line x1="0" y1="12.5" x2="3.48046875" y2="12.5" clip-path="url(#clipPath9)" fill="none" />
    </g>
    <g font-family="sans-serif" font-size="11" color-rendering="optimizeQuality" color-interpolation="linearRGB" text-rendering="optimizeLegibility" shape-rendering="geometricPrecision" image-rendering="optimizeQuality" transform="matrix(1,0,0,1,516.9546,16)">
      <text x="0" y="11" xml:space="preserve" stroke="none" clip-path="url(#clipPath10)">Scheduler</text>
      <line x1="0" y1="12.5" x2="52.07275390625" y2="12.5" clip-path="url(#clipPath10)" fill="none" />
    </g>
    <g font-family="sans-serif" font-size="11" color-rendering="optimizeQuality" color-interpolation="linearRGB" text-rendering="optimizeLegibility" stroke="white" fill="white" shape-rendering="geometricPrecision" image-rendering="optimizeQuality" transform="matrix(1,0,0,1,517.5137,71)">
      <path d="M0.5 0.5 L9.5 0.5 L9.5 219.5 L0.5 219.5 Z" stroke="none" clip-path="url(#clipPath11)" />
    </g>
    <g font-family="sans-serif" font-size="11" color-rendering="optimizeQuality" stroke-miterlimit="1" color-interpolation="linearRGB" text-rendering="optimizeLegibility" stroke-linecap="butt" shape-rendering="geometricPrecision" image-rendering="optimizeQuality" transform="matrix(1,0,0,1,517.5137,71)">
      <path d="M0.5 0.5 L9.5 0.5 L9.5 219.5 L0.5 219.5 Z" clip-path="url(#clipPath11)" fill="none" />
    </g>
    <g font-family="sans-serif" font-size="11" color-rendering="optimizeQuality" stroke-miterlimit="1" color-interpolation="linearRGB" text-rendering="optimizeLegibility" stroke-linecap="butt" shape-rendering="geometricPrecision" image-rendering="optimizeQuality" transform="matrix(1,0,0,1,-10,-10)">
      <path d="M98.58499908447266 81 L527.513671875 81" clip-path="url(#clipPath1)" fill="none" />
      <path d="M12 -6 L0 0 L12 6 Z" stroke-miterlimit="10" stroke="none" clip-path="url(#clipPath12)" stroke-linecap="square" transform="matrix(-1,0,0,-1,527.5137,81)" />
      <path d="M12 -6 L0 0 L12 6 Z" stroke-miterlimit="10" clip-path="url(#clipPath12)" fill="none" stroke-linecap="square" transform="matrix(-1,0,0,-1,527.5137,81)" />
    </g>
    <g font-family="sans-serif" font-size="11" color-rendering="optimizeQuality" color-interpolation="linearRGB" text-rendering="optimizeLegibility" shape-rendering="geometricPrecision" image-rendering="optimizeQuality" transform="matrix(1,0,0,1,194.7984,47)">
      <text x="0" y="11" xml:space="preserve" stroke="none" clip-path="url(#clipPath13)"> </text>
    </g>
    <g font-family="sans-serif" font-size="11" color-rendering="optimizeQuality" color-interpolation="linearRGB" text-rendering="optimizeLegibility" shape-rendering="geometricPrecision" image-rendering="optimizeQuality" transform="matrix(1,0,0,1,200.2789,47)">
      <text x="0" y="11" xml:space="preserve" stroke="none" clip-path="url(#clipPath14)">:</text>
    </g>
    <g font-family="sans-serif" font-size="11" color-rendering="optimizeQuality" color-interpolation="linearRGB" text-rendering="optimizeLegibility" shape-rendering="geometricPrecision" image-rendering="optimizeQuality" transform="matrix(1,0,0,1,205.7593,47)">
      <text x="0" y="11" xml:space="preserve" stroke="none" clip-path="url(#clipPath15)">authenticated</text>
    </g>
    <g font-family="sans-serif" font-size="11" color-rendering="optimizeQuality" color-interpolation="linearRGB" text-rendering="optimizeLegibility" shape-rendering="geometricPrecision" image-rendering="optimizeQuality" transform="matrix(1,0,0,1,278.7256,47)">
      <text x="0" y="11" xml:space="preserve" stroke="none" clip-path="url(#clipPath16)">:=</text>
    </g>
    <g font-family="sans-serif" font-size="11" color-rendering="optimizeQuality" color-interpolation="linearRGB" text-rendering="optimizeLegibility" shape-rendering="geometricPrecision" image-rendering="optimizeQuality" transform="matrix(1,0,0,1,290.9502,47)">
      <text x="0" y="11" xml:space="preserve" stroke="none" clip-path="url(#clipPath17)">authenticate</text>
    </g>
    <g font-family="sans-serif" font-size="11" color-rendering="optimizeQuality" color-interpolation="linearRGB" text-rendering="optimizeLegibility" shape-rendering="geometricPrecision" image-rendering="optimizeQuality" transform="matrix(1,0,0,1,356.9932,47)">
      <text x="0" y="11" xml:space="preserve" stroke="none" clip-path="url(#clipPath18)">(</text>
    </g>
    <g font-family="sans-serif" font-size="11" color-rendering="optimizeQuality" color-interpolation="linearRGB" text-rendering="optimizeLegibility" shape-rendering="geometricPrecision" image-rendering="optimizeQuality" transform="matrix(1,0,0,1,360.5703,47)">
      <text x="0" y="11" xml:space="preserve" stroke="none" clip-path="url(#clipPath19)">authInfo</text>
    </g>
    <g font-family="sans-serif" font-size="11" color-rendering="optimizeQuality" color-interpolation="linearRGB" text-rendering="optimizeLegibility" shape-rendering="geometricPrecision" image-rendering="optimizeQuality" transform="matrix(1,0,0,1,405.2095,47)">
      <text x="0" y="11" xml:space="preserve" stroke="none" clip-path="url(#clipPath20)">)</text>
    </g>
    <g font-family="sans-serif" font-size="11" color-rendering="optimizeQuality" stroke-miterlimit="1" color-interpolation="linearRGB" text-rendering="optimizeLegibility" stroke-linecap="butt" shape-rendering="geometricPrecision" image-rendering="optimizeQuality" transform="matrix(1,0,0,1,-10,-10)">
      <path d="M98.58499908447266 116 L527.513671875 116" clip-path="url(#clipPath1)" fill="none" />
      <path d="M12 -6 L0 0 L12 6 Z" stroke-miterlimit="10" stroke="none" clip-path="url(#clipPath21)" stroke-linecap="square" transform="matrix(-1,0,0,-1,527.5137,116)" />
      <path d="M12 -6 L0 0 L12 6 Z" stroke-miterlimit="10" clip-path="url(#clipPath21)" fill="none" stroke-linecap="square" transform="matrix(-1,0,0,-1,527.5137,116)" />
    </g>
    <g font-family="sans-serif" font-size="11" color-rendering="optimizeQuality" color-interpolation="linearRGB" text-rendering="optimizeLegibility" shape-rendering="geometricPrecision" image-rendering="optimizeQuality" transform="matrix(1,0,0,1,182.2703,82)">
      <text x="0" y="11" xml:space="preserve" stroke="none" clip-path="url(#clipPath22)"> </text>
    </g>
    <g font-family="sans-serif" font-size="11" color-rendering="optimizeQuality" color-interpolation="linearRGB" text-rendering="optimizeLegibility" shape-rendering="geometricPrecision" image-rendering="optimizeQuality" transform="matrix(1,0,0,1,187.7508,82)">
      <text x="0" y="11" xml:space="preserve" stroke="none" clip-path="url(#clipPath23)">:</text>
    </g>
    <g font-family="sans-serif" font-size="11" color-rendering="optimizeQuality" color-interpolation="linearRGB" text-rendering="optimizeLegibility" shape-rendering="geometricPrecision" image-rendering="optimizeQuality" transform="matrix(1,0,0,1,193.2312,82)">
      <text x="0" y="11" xml:space="preserve" stroke="none" clip-path="url(#clipPath24)">scheduleEntries</text>
    </g>
    <g font-family="sans-serif" font-size="11" color-rendering="optimizeQuality" color-interpolation="linearRGB" text-rendering="optimizeLegibility" shape-rendering="geometricPrecision" image-rendering="optimizeQuality" transform="matrix(1,0,0,1,276.8054,82)">
      <text x="0" y="11" xml:space="preserve" stroke="none" clip-path="url(#clipPath25)">:=</text>
    </g>
    <g font-family="sans-serif" font-size="11" color-rendering="optimizeQuality" color-interpolation="linearRGB" text-rendering="optimizeLegibility" shape-rendering="geometricPrecision" image-rendering="optimizeQuality" transform="matrix(1,0,0,1,289.03,82)">
      <text x="0" y="11" xml:space="preserve" stroke="none" clip-path="url(#clipPath26)">displaySchedule</text>
    </g>
    <g font-family="sans-serif" font-size="11" color-rendering="optimizeQuality" color-interpolation="linearRGB" text-rendering="optimizeLegibility" shape-rendering="geometricPrecision" image-rendering="optimizeQuality" transform="matrix(1,0,0,1,374.2371,82)">
      <text x="0" y="11" xml:space="preserve" stroke="none" clip-path="url(#clipPath27)">(</text>
    </g>
    <g font-family="sans-serif" font-size="11" color-rendering="optimizeQuality" color-interpolation="linearRGB" text-rendering="optimizeLegibility" shape-rendering="geometricPrecision" image-rendering="optimizeQuality" transform="matrix(1,0,0,1,377.8142,82)">
      <text x="0" y="11" xml:space="preserve" stroke="none" clip-path="url(#clipPath28)">from</text>
    </g>
    <g font-family="sans-serif" font-size="11" color-rendering="optimizeQuality" color-interpolation="linearRGB" text-rendering="optimizeLegibility" shape-rendering="geometricPrecision" image-rendering="optimizeQuality" transform="matrix(1,0,0,1,403.38599999999997,82)">
      <text x="0" y="11" xml:space="preserve" stroke="none" clip-path="url(#clipPath29)">,</text>
    </g>
    <g font-family="sans-serif" font-size="11" color-rendering="optimizeQuality" color-interpolation="linearRGB" text-rendering="optimizeLegibility" shape-rendering="geometricPrecision" image-rendering="optimizeQuality" transform="matrix(1,0,0,1,406.8665,82)">
      <text x="0" y="11" xml:space="preserve" stroke="none" clip-path="url(#clipPath30)">to</text>
    </g>
    <g font-family="sans-serif" font-size="11" color-rendering="optimizeQuality" color-interpolation="linearRGB" text-rendering="optimizeLegibility" shape-rendering="geometricPrecision" image-rendering="optimizeQuality" transform="matrix(1,0,0,1,417.7375,82)">
      <text x="0" y="11" xml:space="preserve" stroke="none" clip-path="url(#clipPath31)">)</text>
    </g>
    <g font-family="sans-serif" font-size="11" color-rendering="optimizeQuality" stroke-miterlimit="1" color-interpolation="linearRGB" text-rendering="optimizeLegibility" stroke-linecap="butt" shape-rendering="geometricPrecision" image-rendering="optimizeQuality" transform="matrix(1,0,0,1,-10,-10)">
      <path d="M98.58499908447266 151 L527.513671875 151" clip-path="url(#clipPath1)" fill="none" />
      <path d="M12 -6 L0 0 L12 6 Z" stroke-miterlimit="10" stroke="none" clip-path="url(#clipPath32)" stroke-linecap="square" transform="matrix(-1,0,0,-1,527.5137,151)" />
      <path d="M12 -6 L0 0 L12 6 Z" stroke-miterlimit="10" clip-path="url(#clipPath32)" fill="none" stroke-linecap="square" transform="matrix(-1,0,0,-1,527.5137,151)" />
    </g>
    <g font-family="sans-serif" font-size="11" color-rendering="optimizeQuality" color-interpolation="linearRGB" text-rendering="optimizeLegibility" shape-rendering="geometricPrecision" image-rendering="optimizeQuality" transform="matrix(1,0,0,1,206.1717,117)">
      <text x="0" y="11" xml:space="preserve" stroke="none" clip-path="url(#clipPath33)"> </text>
    </g>
    <g font-family="sans-serif" font-size="11" color-rendering="optimizeQuality" color-interpolation="linearRGB" text-rendering="optimizeLegibility" shape-rendering="geometricPrecision" image-rendering="optimizeQuality" transform="matrix(1,0,0,1,211.6522,117)">
      <text x="0" y="11" xml:space="preserve" stroke="none" clip-path="url(#clipPath34)">:</text>
    </g>
    <g font-family="sans-serif" font-size="11" color-rendering="optimizeQuality" color-interpolation="linearRGB" text-rendering="optimizeLegibility" shape-rendering="geometricPrecision" image-rendering="optimizeQuality" transform="matrix(1,0,0,1,217.1326,117)">
      <text x="0" y="11" xml:space="preserve" stroke="none" clip-path="url(#clipPath35)">playlist</text>
    </g>
    <g font-family="sans-serif" font-size="11" color-rendering="optimizeQuality" color-interpolation="linearRGB" text-rendering="optimizeLegibility" shape-rendering="geometricPrecision" image-rendering="optimizeQuality" transform="matrix(1,0,0,1,255.1385,117)">
      <text x="0" y="11" xml:space="preserve" stroke="none" clip-path="url(#clipPath36)">:=</text>
    </g>
    <g font-family="sans-serif" font-size="11" color-rendering="optimizeQuality" color-interpolation="linearRGB" text-rendering="optimizeLegibility" shape-rendering="geometricPrecision" image-rendering="optimizeQuality" transform="matrix(1,0,0,1,267.3631,117)">
      <text x="0" y="11" xml:space="preserve" stroke="none" clip-path="url(#clipPath37)">displayPlaylist</text>
    </g>
    <g font-family="sans-serif" font-size="11" color-rendering="optimizeQuality" color-interpolation="linearRGB" text-rendering="optimizeLegibility" shape-rendering="geometricPrecision" image-rendering="optimizeQuality" transform="matrix(1,0,0,1,342.16089999999997,117)">
      <text x="0" y="11" xml:space="preserve" stroke="none" clip-path="url(#clipPath38)">(</text>
    </g>
    <g font-family="sans-serif" font-size="11" color-rendering="optimizeQuality" color-interpolation="linearRGB" text-rendering="optimizeLegibility" shape-rendering="geometricPrecision" image-rendering="optimizeQuality" transform="matrix(1,0,0,1,345.73810000000003,117)">
      <text x="0" y="11" xml:space="preserve" stroke="none" clip-path="url(#clipPath39)">playlistId</text>
    </g>
    <g font-family="sans-serif" font-size="11" color-rendering="optimizeQuality" color-interpolation="linearRGB" text-rendering="optimizeLegibility" shape-rendering="geometricPrecision" image-rendering="optimizeQuality" transform="matrix(1,0,0,1,393.83619999999996,117)">
      <text x="0" y="11" xml:space="preserve" stroke="none" clip-path="url(#clipPath40)">)</text>
    </g>
    <g font-family="sans-serif" font-size="11" color-rendering="optimizeQuality" stroke-miterlimit="1" color-interpolation="linearRGB" text-rendering="optimizeLegibility" stroke-linecap="butt" shape-rendering="geometricPrecision" image-rendering="optimizeQuality" transform="matrix(1,0,0,1,-10,-10)">
      <path d="M98.58499908447266 186 L527.513671875 186" clip-path="url(#clipPath1)" fill="none" />
      <path d="M12 -6 L0 0 L12 6 Z" stroke-miterlimit="10" stroke="none" clip-path="url(#clipPath41)" stroke-linecap="square" transform="matrix(-1,0,0,-1,527.5137,186)" />
      <path d="M12 -6 L0 0 L12 6 Z" stroke-miterlimit="10" clip-path="url(#clipPath41)" fill="none" stroke-linecap="square" transform="matrix(-1,0,0,-1,527.5137,186)" />
    </g>
    <g font-family="sans-serif" font-size="11" color-rendering="optimizeQuality" color-interpolation="linearRGB" text-rendering="optimizeLegibility" shape-rendering="geometricPrecision" image-rendering="optimizeQuality" transform="matrix(1,0,0,1,164.6182,152)">
      <text x="0" y="11" xml:space="preserve" stroke="none" clip-path="url(#clipPath42)"> </text>
    </g>
    <g font-family="sans-serif" font-size="11" color-rendering="optimizeQuality" color-interpolation="linearRGB" text-rendering="optimizeLegibility" shape-rendering="geometricPrecision" image-rendering="optimizeQuality" transform="matrix(1,0,0,1,170.0987,152)">
      <text x="0" y="11" xml:space="preserve" stroke="none" clip-path="url(#clipPath43)">:</text>
    </g>
    <g font-family="sans-serif" font-size="11" color-rendering="optimizeQuality" color-interpolation="linearRGB" text-rendering="optimizeLegibility" shape-rendering="geometricPrecision" image-rendering="optimizeQuality" transform="matrix(1,0,0,1,175.5791,152)">
      <text x="0" y="11" xml:space="preserve" stroke="none" clip-path="url(#clipPath44)">isRemoved</text>
    </g>
    <g font-family="sans-serif" font-size="11" color-rendering="optimizeQuality" color-interpolation="linearRGB" text-rendering="optimizeLegibility" shape-rendering="geometricPrecision" image-rendering="optimizeQuality" transform="matrix(1,0,0,1,233.2217,152)">
      <text x="0" y="11" xml:space="preserve" stroke="none" clip-path="url(#clipPath45)">:=</text>
    </g>
    <g font-family="sans-serif" font-size="11" color-rendering="optimizeQuality" color-interpolation="linearRGB" text-rendering="optimizeLegibility" shape-rendering="geometricPrecision" image-rendering="optimizeQuality" transform="matrix(1,0,0,1,245.4463,152)">
      <text x="0" y="11" xml:space="preserve" stroke="none" clip-path="url(#clipPath46)">removeFromSchedule</text>
    </g>
    <g font-family="sans-serif" font-size="11" color-rendering="optimizeQuality" color-interpolation="linearRGB" text-rendering="optimizeLegibility" shape-rendering="geometricPrecision" image-rendering="optimizeQuality" transform="matrix(1,0,0,1,359.9204,152)">
      <text x="0" y="11" xml:space="preserve" stroke="none" clip-path="url(#clipPath47)">(</text>
    </g>
    <g font-family="sans-serif" font-size="11" color-rendering="optimizeQuality" color-interpolation="linearRGB" text-rendering="optimizeLegibility" shape-rendering="geometricPrecision" image-rendering="optimizeQuality" transform="matrix(1,0,0,1,363.49760000000003,152)">
      <text x="0" y="11" xml:space="preserve" stroke="none" clip-path="url(#clipPath48)">scheduleEntry</text>
    </g>
    <g font-family="sans-serif" font-size="11" color-rendering="optimizeQuality" color-interpolation="linearRGB" text-rendering="optimizeLegibility" shape-rendering="geometricPrecision" image-rendering="optimizeQuality" transform="matrix(1,0,0,1,437.90330000000006,152)">
      <text x="0" y="11" xml:space="preserve" stroke="none" clip-path="url(#clipPath49)">)</text>
    </g>
    <g font-family="sans-serif" font-size="11" color-rendering="optimizeQuality" stroke-miterlimit="1" color-interpolation="linearRGB" text-rendering="optimizeLegibility" stroke-linecap="butt" shape-rendering="geometricPrecision" image-rendering="optimizeQuality" transform="matrix(1,0,0,1,-10,-10)">
      <path d="M98.58499908447266 221 L527.513671875 221" clip-path="url(#clipPath1)" fill="none" />
      <path d="M12 -6 L0 0 L12 6 Z" stroke-miterlimit="10" stroke="none" clip-path="url(#clipPath50)" stroke-linecap="square" transform="matrix(-1,0,0,-1,527.5137,221)" />
      <path d="M12 -6 L0 0 L12 6 Z" stroke-miterlimit="10" clip-path="url(#clipPath50)" fill="none" stroke-linecap="square" transform="matrix(-1,0,0,-1,527.5137,221)" />
    </g>
    <g font-family="sans-serif" font-size="11" color-rendering="optimizeQuality" color-interpolation="linearRGB" text-rendering="optimizeLegibility" shape-rendering="geometricPrecision" image-rendering="optimizeQuality" transform="matrix(1,0,0,1,191.7476,187)">
      <text x="0" y="11" xml:space="preserve" stroke="none" clip-path="url(#clipPath51)"> </text>
    </g>
    <g font-family="sans-serif" font-size="11" color-rendering="optimizeQuality" color-interpolation="linearRGB" text-rendering="optimizeLegibility" shape-rendering="geometricPrecision" image-rendering="optimizeQuality" transform="matrix(1,0,0,1,197.2281,187)">
      <text x="0" y="11" xml:space="preserve" stroke="none" clip-path="url(#clipPath52)">:</text>
    </g>
    <g font-family="sans-serif" font-size="11" color-rendering="optimizeQuality" color-interpolation="linearRGB" text-rendering="optimizeLegibility" shape-rendering="geometricPrecision" image-rendering="optimizeQuality" transform="matrix(1,0,0,1,202.70850000000002,187)">
      <text x="0" y="11" xml:space="preserve" stroke="none" clip-path="url(#clipPath53)">reschedule</text>
    </g>
    <g font-family="sans-serif" font-size="11" color-rendering="optimizeQuality" color-interpolation="linearRGB" text-rendering="optimizeLegibility" shape-rendering="geometricPrecision" image-rendering="optimizeQuality" transform="matrix(1,0,0,1,260.5928,187)">
      <text x="0" y="11" xml:space="preserve" stroke="none" clip-path="url(#clipPath54)">(</text>
    </g>
    <g font-family="sans-serif" font-size="11" color-rendering="optimizeQuality" color-interpolation="linearRGB" text-rendering="optimizeLegibility" shape-rendering="geometricPrecision" image-rendering="optimizeQuality" transform="matrix(1,0,0,1,264.1699,187)">
      <text x="0" y="11" xml:space="preserve" stroke="none" clip-path="url(#clipPath55)">scheduleEntry</text>
    </g>
    <g font-family="sans-serif" font-size="11" color-rendering="optimizeQuality" color-interpolation="linearRGB" text-rendering="optimizeLegibility" shape-rendering="geometricPrecision" image-rendering="optimizeQuality" transform="matrix(1,0,0,1,338.5757,187)">
      <text x="0" y="11" xml:space="preserve" stroke="none" clip-path="url(#clipPath56)">,</text>
    </g>
    <g font-family="sans-serif" font-size="11" color-rendering="optimizeQuality" color-interpolation="linearRGB" text-rendering="optimizeLegibility" shape-rendering="geometricPrecision" image-rendering="optimizeQuality" transform="matrix(1,0,0,1,342.0562,187)">
      <text x="0" y="11" xml:space="preserve" stroke="none" clip-path="url(#clipPath57)">newPlaytime</text>
    </g>
    <g font-family="sans-serif" font-size="11" color-rendering="optimizeQuality" color-interpolation="linearRGB" text-rendering="optimizeLegibility" shape-rendering="geometricPrecision" image-rendering="optimizeQuality" transform="matrix(1,0,0,1,408.26030000000003,187)">
      <text x="0" y="11" xml:space="preserve" stroke="none" clip-path="url(#clipPath58)">)</text>
    </g>
    <g font-family="sans-serif" font-size="11" color-rendering="optimizeQuality" stroke-miterlimit="1" color-interpolation="linearRGB" text-rendering="optimizeLegibility" stroke-linecap="butt" shape-rendering="geometricPrecision" image-rendering="optimizeQuality" transform="matrix(1,0,0,1,-10,-10)">
      <path d="M98.58499908447266 256 L527.513671875 256" clip-path="url(#clipPath1)" fill="none" />
      <path d="M12 -6 L0 0 L12 6 Z" stroke-miterlimit="10" stroke="none" clip-path="url(#clipPath59)" stroke-linecap="square" transform="matrix(-1,0,0,-1,527.5137,256)" />
      <path d="M12 -6 L0 0 L12 6 Z" stroke-miterlimit="10" clip-path="url(#clipPath59)" fill="none" stroke-linecap="square" transform="matrix(-1,0,0,-1,527.5137,256)" />
    </g>
    <g font-family="sans-serif" font-size="11" color-rendering="optimizeQuality" color-interpolation="linearRGB" text-rendering="optimizeLegibility" shape-rendering="geometricPrecision" image-rendering="optimizeQuality" transform="matrix(1,0,0,1,182.2703,222)">
      <text x="0" y="11" xml:space="preserve" stroke="none" clip-path="url(#clipPath60)"> </text>
    </g>
    <g font-family="sans-serif" font-size="11" color-rendering="optimizeQuality" color-interpolation="linearRGB" text-rendering="optimizeLegibility" shape-rendering="geometricPrecision" image-rendering="optimizeQuality" transform="matrix(1,0,0,1,187.7508,222)">
      <text x="0" y="11" xml:space="preserve" stroke="none" clip-path="url(#clipPath61)">:</text>
    </g>
    <g font-family="sans-serif" font-size="11" color-rendering="optimizeQuality" color-interpolation="linearRGB" text-rendering="optimizeLegibility" shape-rendering="geometricPrecision" image-rendering="optimizeQuality" transform="matrix(1,0,0,1,193.2312,222)">
      <text x="0" y="11" xml:space="preserve" stroke="none" clip-path="url(#clipPath62)">scheduleEntries</text>
    </g>
    <g font-family="sans-serif" font-size="11" color-rendering="optimizeQuality" color-interpolation="linearRGB" text-rendering="optimizeLegibility" shape-rendering="geometricPrecision" image-rendering="optimizeQuality" transform="matrix(1,0,0,1,276.8054,222)">
      <text x="0" y="11" xml:space="preserve" stroke="none" clip-path="url(#clipPath63)">:=</text>
    </g>
    <g font-family="sans-serif" font-size="11" color-rendering="optimizeQuality" color-interpolation="linearRGB" text-rendering="optimizeLegibility" shape-rendering="geometricPrecision" image-rendering="optimizeQuality" transform="matrix(1,0,0,1,289.03,222)">
      <text x="0" y="11" xml:space="preserve" stroke="none" clip-path="url(#clipPath64)">displaySchedule</text>
    </g>
    <g font-family="sans-serif" font-size="11" color-rendering="optimizeQuality" color-interpolation="linearRGB" text-rendering="optimizeLegibility" shape-rendering="geometricPrecision" image-rendering="optimizeQuality" transform="matrix(1,0,0,1,374.2371,222)">
      <text x="0" y="11" xml:space="preserve" stroke="none" clip-path="url(#clipPath65)">(</text>
    </g>
    <g font-family="sans-serif" font-size="11" color-rendering="optimizeQuality" color-interpolation="linearRGB" text-rendering="optimizeLegibility" shape-rendering="geometricPrecision" image-rendering="optimizeQuality" transform="matrix(1,0,0,1,377.8142,222)">
      <text x="0" y="11" xml:space="preserve" stroke="none" clip-path="url(#clipPath66)">from</text>
    </g>
    <g font-family="sans-serif" font-size="11" color-rendering="optimizeQuality" color-interpolation="linearRGB" text-rendering="optimizeLegibility" shape-rendering="geometricPrecision" image-rendering="optimizeQuality" transform="matrix(1,0,0,1,403.38599999999997,222)">
      <text x="0" y="11" xml:space="preserve" stroke="none" clip-path="url(#clipPath67)">,</text>
    </g>
    <g font-family="sans-serif" font-size="11" color-rendering="optimizeQuality" color-interpolation="linearRGB" text-rendering="optimizeLegibility" shape-rendering="geometricPrecision" image-rendering="optimizeQuality" transform="matrix(1,0,0,1,406.8665,222)">
      <text x="0" y="11" xml:space="preserve" stroke="none" clip-path="url(#clipPath68)">to</text>
    </g>
    <g font-family="sans-serif" font-size="11" color-rendering="optimizeQuality" color-interpolation="linearRGB" text-rendering="optimizeLegibility" shape-rendering="geometricPrecision" image-rendering="optimizeQuality" transform="matrix(1,0,0,1,417.7375,222)">
      <text x="0" y="11" xml:space="preserve" stroke="none" clip-path="url(#clipPath69)">)</text>
    </g>
  </g>
</svg>
