<?xml version="1.0" encoding="UTF-8"?>

<!DOCTYPE svg PUBLIC '-//W3C//DTD SVG 1.0//EN' 'http://www.w3.org/TR/2001/REC-SVG-20010904/DTD/svg10.dtd'>
<svg stroke-width="1" stroke-dashoffset="0" font-size="12" stroke-dasharray="none" color-rendering="auto" font-weight="normal" color-interpolation="auto" stroke-linejoin="miter" fill="black" image-rendering="auto" font-family="&apos;sansserif&apos;" stroke-opacity="1" stroke-miterlimit="10" stroke="black" text-rendering="auto" font-style="normal" stroke-linecap="square" fill-opacity="1" shape-rendering="auto" xmlns="http://www.w3.org/2000/svg" xmlns:xlink="http://www.w3.org/1999/xlink">
  <!--Generated by the Batik Graphics2D SVG Generator-->
  <defs id="genericDefs" />
  <g>
    <defs id="defs1">
      <clipPath clipPathUnits="userSpaceOnUse" id="clipPath1">
        <path d="M10 10 L10 311 L761 311 L761 10 Z" />
      </clipPath>
      <clipPath clipPathUnits="userSpaceOnUse" id="clipPath2">
        <path d="M0 0 L0 301 L751 301 L751 0 Z" />
      </clipPath>
      <clipPath clipPathUnits="userSpaceOnUse" id="clipPath3">
        <path d="M-10 -10 L-10 291 L741 291 L741 -10 Z" />
      </clipPath>
      <clipPath clipPathUnits="userSpaceOnUse" id="clipPath4">
        <path d="M-16 -16 L-16 285 L735 285 L735 -16 Z" />
      </clipPath>
      <clipPath clipPathUnits="userSpaceOnUse" id="clipPath5">
        <path d="M-53.474098205566406 -16 L-53.474098205566406 285 L697.52587890625 285 L697.52587890625 -16 Z" />
      </clipPath>
      <clipPath clipPathUnits="userSpaceOnUse" id="clipPath6">
        <path d="M-56.9546012878418 -16 L-56.9546012878418 285 L694.04541015625 285 L694.04541015625 -16 Z" />
      </clipPath>
      <clipPath clipPathUnits="userSpaceOnUse" id="clipPath7">
        <path d="M-290 -10 L-290 291 L461 291 L461 -10 Z" />
      </clipPath>
      <clipPath clipPathUnits="userSpaceOnUse" id="clipPath8">
        <path d="M-296 -16 L-296 285 L455 285 L455 -16 Z" />
      </clipPath>
      <clipPath clipPathUnits="userSpaceOnUse" id="clipPath9">
        <path d="M-361.18359375 -16 L-361.18359375 285 L389.81640625 285 L389.81640625 -16 Z" />
      </clipPath>
      <clipPath clipPathUnits="userSpaceOnUse" id="clipPath10">
        <path d="M-364.6640930175781 -16 L-364.6640930175781 285 L386.3359069824219 285 L386.3359069824219 -16 Z" />
      </clipPath>
      <clipPath clipPathUnits="userSpaceOnUse" id="clipPath11">
        <path d="M-360.848388671875 -71 L-360.848388671875 230 L390.151611328125 230 L390.151611328125 -71 Z" />
      </clipPath>
      <clipPath clipPathUnits="userSpaceOnUse" id="clipPath12">
        <path d="M-580 -10 L-580 291 L171 291 L171 -10 Z" />
      </clipPath>
      <clipPath clipPathUnits="userSpaceOnUse" id="clipPath13">
        <path d="M-586 -16 L-586 285 L165 285 L165 -16 Z" />
      </clipPath>
      <clipPath clipPathUnits="userSpaceOnUse" id="clipPath14">
        <path d="M-658.12841796875 -16 L-658.12841796875 285 L92.87159729003906 285 L92.87159729003906 -16 Z" />
      </clipPath>
      <clipPath clipPathUnits="userSpaceOnUse" id="clipPath15">
        <path d="M-661.60888671875 -16 L-661.60888671875 285 L89.39109802246094 285 L89.39109802246094 -16 Z" />
      </clipPath>
      <clipPath clipPathUnits="userSpaceOnUse" id="clipPath16">
        <path d="M-655.4541015625 -141 L-655.4541015625 160 L95.5458984375 160 L95.5458984375 -141 Z" />
      </clipPath>
      <clipPath clipPathUnits="userSpaceOnUse" id="clipPath17">
        <path d="M360.848388671875 71 L360.848388671875 -230 L-390.151611328125 -230 L-390.151611328125 71 Z" />
      </clipPath>
      <clipPath clipPathUnits="userSpaceOnUse" id="clipPath18">
        <path d="M-103.43009948730469 -47 L-103.43009948730469 254 L647.5698852539062 254 L647.5698852539062 -47 Z" />
      </clipPath>
      <clipPath clipPathUnits="userSpaceOnUse" id="clipPath19">
        <path d="M-108.91059875488281 -47 L-108.91059875488281 254 L642.0894165039062 254 L642.0894165039062 -47 Z" />
      </clipPath>
      <clipPath clipPathUnits="userSpaceOnUse" id="clipPath20">
        <path d="M-114.39099884033203 -47 L-114.39099884033203 254 L636.6090087890625 254 L636.6090087890625 -47 Z" />
      </clipPath>
      <clipPath clipPathUnits="userSpaceOnUse" id="clipPath21">
        <path d="M-187.3572998046875 -47 L-187.3572998046875 254 L563.6427001953125 254 L563.6427001953125 -47 Z" />
      </clipPath>
      <clipPath clipPathUnits="userSpaceOnUse" id="clipPath22">
        <path d="M-199.58189392089844 -47 L-199.58189392089844 254 L551.4180908203125 254 L551.4180908203125 -47 Z" />
      </clipPath>
      <clipPath clipPathUnits="userSpaceOnUse" id="clipPath23">
        <path d="M-265.6249084472656 -47 L-265.6249084472656 254 L485.3750915527344 254 L485.3750915527344 -47 Z" />
      </clipPath>
      <clipPath clipPathUnits="userSpaceOnUse" id="clipPath24">
        <path d="M-269.2019958496094 -47 L-269.2019958496094 254 L481.7980041503906 254 L481.7980041503906 -47 Z" />
      </clipPath>
      <clipPath clipPathUnits="userSpaceOnUse" id="clipPath25">
        <path d="M-313.8411865234375 -47 L-313.8411865234375 254 L437.1588134765625 254 L437.1588134765625 -47 Z" />
      </clipPath>
      <clipPath clipPathUnits="userSpaceOnUse" id="clipPath26">
        <path d="M360.848388671875 106 L360.848388671875 -195 L-390.151611328125 -195 L-390.151611328125 106 Z" />
      </clipPath>
      <clipPath clipPathUnits="userSpaceOnUse" id="clipPath27">
        <path d="M-98.0374984741211 -82 L-98.0374984741211 219 L652.9625244140625 219 L652.9625244140625 -82 Z" />
      </clipPath>
      <clipPath clipPathUnits="userSpaceOnUse" id="clipPath28">
        <path d="M-103.51799774169922 -82 L-103.51799774169922 219 L647.4819946289062 219 L647.4819946289062 -82 Z" />
      </clipPath>
      <clipPath clipPathUnits="userSpaceOnUse" id="clipPath29">
        <path d="M-108.99839782714844 -82 L-108.99839782714844 219 L642.0015869140625 219 L642.0015869140625 -82 Z" />
      </clipPath>
      <clipPath clipPathUnits="userSpaceOnUse" id="clipPath30">
        <path d="M-159.1322021484375 -82 L-159.1322021484375 219 L591.8677978515625 219 L591.8677978515625 -82 Z" />
      </clipPath>
      <clipPath clipPathUnits="userSpaceOnUse" id="clipPath31">
        <path d="M-171.35679626464844 -82 L-171.35679626464844 219 L579.6431884765625 219 L579.6431884765625 -82 Z" />
      </clipPath>
      <clipPath clipPathUnits="userSpaceOnUse" id="clipPath32">
        <path d="M-254.9095001220703 -82 L-254.9095001220703 219 L496.09051513671875 219 L496.09051513671875 -82 Z" />
      </clipPath>
      <clipPath clipPathUnits="userSpaceOnUse" id="clipPath33">
        <path d="M-258.4866943359375 -82 L-258.4866943359375 219 L492.5133056640625 219 L492.5133056640625 -82 Z" />
      </clipPath>
      <clipPath clipPathUnits="userSpaceOnUse" id="clipPath34">
        <path d="M-319.2337951660156 -82 L-319.2337951660156 219 L431.7662048339844 219 L431.7662048339844 -82 Z" />
      </clipPath>
      <clipPath clipPathUnits="userSpaceOnUse" id="clipPath35">
        <path d="M655.4541015625 141 L655.4541015625 -160 L-95.5458984375 -160 L-95.5458984375 141 Z" />
      </clipPath>
      <clipPath clipPathUnits="userSpaceOnUse" id="clipPath36">
        <path d="M-401.7298889160156 -118 L-401.7298889160156 183 L349.2701110839844 183 L349.2701110839844 -118 Z" />
      </clipPath>
      <clipPath clipPathUnits="userSpaceOnUse" id="clipPath37">
        <path d="M-407.21038818359375 -118 L-407.21038818359375 183 L343.78961181640625 183 L343.78961181640625 -118 Z" />
      </clipPath>
      <clipPath clipPathUnits="userSpaceOnUse" id="clipPath38">
        <path d="M-412.6907958984375 -118 L-412.6907958984375 183 L338.3092041015625 183 L338.3092041015625 -118 Z" />
      </clipPath>
      <clipPath clipPathUnits="userSpaceOnUse" id="clipPath39">
        <path d="M-485.6571044921875 -118 L-485.6571044921875 183 L265.3428955078125 183 L265.3428955078125 -118 Z" />
      </clipPath>
      <clipPath clipPathUnits="userSpaceOnUse" id="clipPath40">
        <path d="M-497.8817138671875 -118 L-497.8817138671875 183 L253.11830139160156 183 L253.11830139160156 -118 Z" />
      </clipPath>
      <clipPath clipPathUnits="userSpaceOnUse" id="clipPath41">
        <path d="M-563.9246826171875 -118 L-563.9246826171875 183 L187.07530212402344 183 L187.07530212402344 -118 Z" />
      </clipPath>
      <clipPath clipPathUnits="userSpaceOnUse" id="clipPath42">
        <path d="M-567.5017700195312 -118 L-567.5017700195312 183 L183.49819946289062 183 L183.49819946289062 -118 Z" />
      </clipPath>
      <clipPath clipPathUnits="userSpaceOnUse" id="clipPath43">
        <path d="M-601.4364013671875 -118 L-601.4364013671875 183 L149.5635986328125 183 L149.5635986328125 -118 Z" />
      </clipPath>
      <clipPath clipPathUnits="userSpaceOnUse" id="clipPath44">
        <path d="M655.4541015625 176 L655.4541015625 -125 L-95.5458984375 -125 L-95.5458984375 176 Z" />
      </clipPath>
      <clipPath clipPathUnits="userSpaceOnUse" id="clipPath45">
        <path d="M-241.84109497070312 -152 L-241.84109497070312 149 L509.1589050292969 149 L509.1589050292969 -152 Z" />
      </clipPath>
      <clipPath clipPathUnits="userSpaceOnUse" id="clipPath46">
        <path d="M-247.32159423828125 -152 L-247.32159423828125 149 L503.67840576171875 149 L503.67840576171875 -152 Z" />
      </clipPath>
      <clipPath clipPathUnits="userSpaceOnUse" id="clipPath47">
        <path d="M-252.802001953125 -152 L-252.802001953125 149 L498.197998046875 149 L498.197998046875 -152 Z" />
      </clipPath>
      <clipPath clipPathUnits="userSpaceOnUse" id="clipPath48">
        <path d="M-303.456787109375 -152 L-303.456787109375 149 L447.543212890625 149 L447.543212890625 -152 Z" />
      </clipPath>
      <clipPath clipPathUnits="userSpaceOnUse" id="clipPath49">
        <path d="M-315.681396484375 -152 L-315.681396484375 149 L435.318603515625 149 L435.318603515625 -152 Z" />
      </clipPath>
      <clipPath clipPathUnits="userSpaceOnUse" id="clipPath50">
        <path d="M-408.2253112792969 -152 L-408.2253112792969 149 L342.7746887207031 149 L342.7746887207031 -152 Z" />
      </clipPath>
      <clipPath clipPathUnits="userSpaceOnUse" id="clipPath51">
        <path d="M-411.802490234375 -152 L-411.802490234375 149 L339.197509765625 149 L339.197509765625 -152 Z" />
      </clipPath>
      <clipPath clipPathUnits="userSpaceOnUse" id="clipPath52">
        <path d="M-472.5495910644531 -152 L-472.5495910644531 149 L278.4504089355469 149 L278.4504089355469 -152 Z" />
      </clipPath>
      <clipPath clipPathUnits="userSpaceOnUse" id="clipPath53">
        <path d="M360.848388671875 211 L360.848388671875 -90 L-390.151611328125 -90 L-390.151611328125 211 Z" />
      </clipPath>
      <clipPath clipPathUnits="userSpaceOnUse" id="clipPath54">
        <path d="M-136.40049743652344 -187 L-136.40049743652344 114 L614.5994873046875 114 L614.5994873046875 -187 Z" />
      </clipPath>
      <clipPath clipPathUnits="userSpaceOnUse" id="clipPath55">
        <path d="M-141.88099670410156 -187 L-141.88099670410156 114 L609.1190185546875 114 L609.1190185546875 -187 Z" />
      </clipPath>
      <clipPath clipPathUnits="userSpaceOnUse" id="clipPath56">
        <path d="M-147.3614044189453 -187 L-147.3614044189453 114 L603.6386108398438 114 L603.6386108398438 -187 Z" />
      </clipPath>
      <clipPath clipPathUnits="userSpaceOnUse" id="clipPath57">
        <path d="M-226.63870239257812 -187 L-226.63870239257812 114 L524.361328125 114 L524.361328125 -187 Z" />
      </clipPath>
      <clipPath clipPathUnits="userSpaceOnUse" id="clipPath58">
        <path d="M-230.2158966064453 -187 L-230.2158966064453 114 L520.7841186523438 114 L520.7841186523438 -187 Z" />
      </clipPath>
      <clipPath clipPathUnits="userSpaceOnUse" id="clipPath59">
        <path d="M-280.8706970214844 -187 L-280.8706970214844 114 L470.1293029785156 114 L470.1293029785156 -187 Z" />
      </clipPath>
    </defs>
    <g color-rendering="optimizeQuality" stroke-dasharray="5,5" stroke-miterlimit="1" color-interpolation="linearRGB" text-rendering="optimizeLegibility" stroke-linecap="butt" shape-rendering="geometricPrecision" image-rendering="optimizeQuality" transform="matrix(1,0,0,1,10,10)">
      <path d="M53.013648986816406 0.5 L53.013648986816406 280.5" clip-path="url(#clipPath3)" fill="none" />
      <path d="M0.5 0.5 L104.52729797363281 0.5 L104.52729797363281 25.5 L0.5 25.5 Z" stroke="none" clip-path="url(#clipPath3)" fill="white" />
      <path d="M0.5 0.5 L104.52729797363281 0.5 L104.52729797363281 25.5 L0.5 25.5 Z" stroke-dasharray="none" clip-path="url(#clipPath3)" fill="none" />
    </g>
    <g font-family="sans-serif" font-size="11" color-rendering="optimizeQuality" color-interpolation="linearRGB" text-rendering="optimizeLegibility" shape-rendering="geometricPrecision" image-rendering="optimizeQuality" transform="matrix(1,0,0,1,16,16)">
      <text x="0" y="11" xml:space="preserve" stroke="none" clip-path="url(#clipPath4)">system</text>
      <line x1="0" y1="12.5" x2="37.47412109375" y2="12.5" clip-path="url(#clipPath4)" fill="none" />
    </g>
    <g font-family="sans-serif" font-size="11" color-rendering="optimizeQuality" color-interpolation="linearRGB" text-rendering="optimizeLegibility" shape-rendering="geometricPrecision" image-rendering="optimizeQuality" transform="matrix(1,0,0,1,53.4741,16)">
      <text x="0" y="11" xml:space="preserve" stroke="none" clip-path="url(#clipPath5)">:</text>
      <line x1="0" y1="12.5" x2="3.48046875" y2="12.5" clip-path="url(#clipPath5)" fill="none" />
    </g>
    <g font-family="sans-serif" font-size="11" color-rendering="optimizeQuality" color-interpolation="linearRGB" text-rendering="optimizeLegibility" shape-rendering="geometricPrecision" image-rendering="optimizeQuality" transform="matrix(1,0,0,1,56.9546,16)">
      <text x="0" y="11" xml:space="preserve" stroke="none" clip-path="url(#clipPath6)">Scheduler</text>
      <line x1="0" y1="12.5" x2="52.07275390625" y2="12.5" clip-path="url(#clipPath6)" fill="none" />
    </g>
    <g font-family="sans-serif" font-size="11" color-rendering="optimizeQuality" stroke-miterlimit="1" color-interpolation="linearRGB" text-rendering="optimizeLegibility" stroke="white" fill="white" stroke-linecap="butt" shape-rendering="geometricPrecision" image-rendering="optimizeQuality" transform="matrix(1,0,0,1,290,10)">
      <path d="M76.34839630126953 0.5 L76.34839630126953 280.5" stroke="none" clip-path="url(#clipPath7)" />
      <path d="M76.34839630126953 0.5 L76.34839630126953 280.5" stroke-dasharray="5,5" stroke="black" clip-path="url(#clipPath7)" fill="none" />
      <path d="M0.5 0.5 L151.19679260253906 0.5 L151.19679260253906 25.5 L0.5 25.5 Z" stroke-dasharray="5,5" stroke="none" clip-path="url(#clipPath7)" />
      <path d="M0.5 0.5 L151.19679260253906 0.5 L151.19679260253906 25.5 L0.5 25.5 Z" stroke="black" clip-path="url(#clipPath7)" fill="none" />
    </g>
    <g font-family="sans-serif" font-size="11" color-rendering="optimizeQuality" color-interpolation="linearRGB" text-rendering="optimizeLegibility" shape-rendering="geometricPrecision" image-rendering="optimizeQuality" transform="matrix(1,0,0,1,296,16)">
      <text x="0" y="11" xml:space="preserve" stroke="none" clip-path="url(#clipPath8)">localStorage</text>
      <line x1="0" y1="12.5" x2="65.18359375" y2="12.5" clip-path="url(#clipPath8)" fill="none" />
    </g>
    <g font-family="sans-serif" font-size="11" color-rendering="optimizeQuality" color-interpolation="linearRGB" text-rendering="optimizeLegibility" shape-rendering="geometricPrecision" image-rendering="optimizeQuality" transform="matrix(1,0,0,1,361.1836,16)">
      <text x="0" y="11" xml:space="preserve" stroke="none" clip-path="url(#clipPath9)">:</text>
      <line x1="0" y1="12.5" x2="3.48046875" y2="12.5" clip-path="url(#clipPath9)" fill="none" />
    </g>
    <g font-family="sans-serif" font-size="11" color-rendering="optimizeQuality" color-interpolation="linearRGB" text-rendering="optimizeLegibility" shape-rendering="geometricPrecision" image-rendering="optimizeQuality" transform="matrix(1,0,0,1,364.6641,16)">
      <text x="0" y="11" xml:space="preserve" stroke="none" clip-path="url(#clipPath10)">Local storage</text>
      <line x1="0" y1="12.5" x2="71.03271484375" y2="12.5" clip-path="url(#clipPath10)" fill="none" />
    </g>
    <g font-family="sans-serif" font-size="11" color-rendering="optimizeQuality" stroke-miterlimit="1" color-interpolation="linearRGB" text-rendering="optimizeLegibility" stroke="white" fill="white" stroke-linecap="butt" shape-rendering="geometricPrecision" image-rendering="optimizeQuality" transform="matrix(1,0,0,1,360.84839999999997,71)">
      <path d="M0.5 0.5 L9.5 0.5 L9.5 219.5 L0.5 219.5 Z" stroke="none" clip-path="url(#clipPath11)" />
      <path d="M0.5 0.5 L9.5 0.5 L9.5 219.5 L0.5 219.5 Z" stroke="black" clip-path="url(#clipPath11)" fill="none" />
    </g>
    <g font-family="sans-serif" font-size="11" color-rendering="optimizeQuality" stroke-miterlimit="1" color-interpolation="linearRGB" text-rendering="optimizeLegibility" stroke="white" fill="white" stroke-linecap="butt" shape-rendering="geometricPrecision" image-rendering="optimizeQuality" transform="matrix(1,0,0,1,580,10)">
      <path d="M80.9541015625 0.5 L80.9541015625 202.5" stroke="none" clip-path="url(#clipPath12)" />
      <path d="M80.9541015625 0.5 L80.9541015625 202.5" stroke-dasharray="5,5" stroke="black" clip-path="url(#clipPath12)" fill="none" />
      <path d="M0.5 0.5 L160.408203125 0.5 L160.408203125 25.5 L0.5 25.5 Z" stroke-dasharray="5,5" stroke="none" clip-path="url(#clipPath12)" />
      <path d="M0.5 0.5 L160.408203125 0.5 L160.408203125 25.5 L0.5 25.5 Z" stroke="black" clip-path="url(#clipPath12)" fill="none" />
    </g>
    <g font-family="sans-serif" font-size="11" color-rendering="optimizeQuality" color-interpolation="linearRGB" text-rendering="optimizeLegibility" shape-rendering="geometricPrecision" image-rendering="optimizeQuality" transform="matrix(1,0,0,1,586,16)">
      <text x="0" y="11" xml:space="preserve" stroke="none" clip-path="url(#clipPath13)">mediaArchive</text>
      <line x1="0" y1="12.5" x2="72.12841796875" y2="12.5" clip-path="url(#clipPath13)" fill="none" />
    </g>
    <g font-family="sans-serif" font-size="11" color-rendering="optimizeQuality" color-interpolation="linearRGB" text-rendering="optimizeLegibility" shape-rendering="geometricPrecision" image-rendering="optimizeQuality" transform="matrix(1,0,0,1,658.1284,16)">
      <text x="0" y="11" xml:space="preserve" stroke="none" clip-path="url(#clipPath14)">:</text>
      <line x1="0" y1="12.5" x2="3.48046875" y2="12.5" clip-path="url(#clipPath14)" fill="none" />
    </g>
    <g font-family="sans-serif" font-size="11" color-rendering="optimizeQuality" color-interpolation="linearRGB" text-rendering="optimizeLegibility" shape-rendering="geometricPrecision" image-rendering="optimizeQuality" transform="matrix(1,0,0,1,661.6089,16)">
      <text x="0" y="11" xml:space="preserve" stroke="none" clip-path="url(#clipPath15)">Media archive</text>
      <line x1="0" y1="12.5" x2="73.29931640625" y2="12.5" clip-path="url(#clipPath15)" fill="none" />
    </g>
    <g font-family="sans-serif" font-size="11" color-rendering="optimizeQuality" stroke-miterlimit="1" color-interpolation="linearRGB" text-rendering="optimizeLegibility" stroke="white" fill="white" stroke-linecap="butt" shape-rendering="geometricPrecision" image-rendering="optimizeQuality" transform="matrix(1,0,0,1,655.4541,141)">
      <path d="M0.5 0.5 L9.5 0.5 L9.5 71.5 L0.5 71.5 Z" stroke="none" clip-path="url(#clipPath16)" />
      <path d="M0.5 0.5 L9.5 0.5 L9.5 71.5 L0.5 71.5 Z" stroke="black" clip-path="url(#clipPath16)" fill="none" />
    </g>
    <g font-family="sans-serif" font-size="11" color-rendering="optimizeQuality" stroke-miterlimit="1" color-interpolation="linearRGB" text-rendering="optimizeLegibility" stroke-linecap="butt" shape-rendering="geometricPrecision" image-rendering="optimizeQuality" transform="matrix(1,0,0,1,-10,-10)">
      <path d="M72.51370239257812 81 L370.848388671875 81" clip-path="url(#clipPath1)" fill="none" />
      <path d="M12 -6 L0 0 L12 6 Z" stroke="none" clip-path="url(#clipPath17)" transform="matrix(-0.9999999999999999,7.216449660063502E-16,-7.216449660063502E-16,-0.9999999999999999,370.8484,81)" />
      <path d="M12 -6 L0 0 L12 6 Z" stroke-miterlimit="10" clip-path="url(#clipPath17)" fill="none" stroke-linecap="square" transform="matrix(-0.9999999999999999,7.216449660063502E-16,-7.216449660063502E-16,-0.9999999999999999,370.8484,81)" />
    </g>
    <g font-family="sans-serif" font-size="11" color-rendering="optimizeQuality" color-interpolation="linearRGB" text-rendering="optimizeLegibility" shape-rendering="geometricPrecision" image-rendering="optimizeQuality" transform="matrix(1,0,0,1,103.4301,47)">
      <text x="0" y="11" xml:space="preserve" stroke="none" clip-path="url(#clipPath18)"> </text>
    </g>
    <g font-family="sans-serif" font-size="11" color-rendering="optimizeQuality" color-interpolation="linearRGB" text-rendering="optimizeLegibility" shape-rendering="geometricPrecision" image-rendering="optimizeQuality" transform="matrix(1,0,0,1,108.9106,47)">
      <text x="0" y="11" xml:space="preserve" stroke="none" clip-path="url(#clipPath19)">:</text>
    </g>
    <g font-family="sans-serif" font-size="11" color-rendering="optimizeQuality" color-interpolation="linearRGB" text-rendering="optimizeLegibility" shape-rendering="geometricPrecision" image-rendering="optimizeQuality" transform="matrix(1,0,0,1,114.39099999999999,47)">
      <text x="0" y="11" xml:space="preserve" stroke="none" clip-path="url(#clipPath20)">authenticated</text>
    </g>
    <g font-family="sans-serif" font-size="11" color-rendering="optimizeQuality" color-interpolation="linearRGB" text-rendering="optimizeLegibility" shape-rendering="geometricPrecision" image-rendering="optimizeQuality" transform="matrix(1,0,0,1,187.3573,47)">
      <text x="0" y="11" xml:space="preserve" stroke="none" clip-path="url(#clipPath21)">:=</text>
    </g>
    <g font-family="sans-serif" font-size="11" color-rendering="optimizeQuality" color-interpolation="linearRGB" text-rendering="optimizeLegibility" shape-rendering="geometricPrecision" image-rendering="optimizeQuality" transform="matrix(1,0,0,1,199.5819,47)">
      <text x="0" y="11" xml:space="preserve" stroke="none" clip-path="url(#clipPath22)">authenticate</text>
    </g>
    <g font-family="sans-serif" font-size="11" color-rendering="optimizeQuality" color-interpolation="linearRGB" text-rendering="optimizeLegibility" shape-rendering="geometricPrecision" image-rendering="optimizeQuality" transform="matrix(1,0,0,1,265.6249,47)">
      <text x="0" y="11" xml:space="preserve" stroke="none" clip-path="url(#clipPath23)">(</text>
    </g>
    <g font-family="sans-serif" font-size="11" color-rendering="optimizeQuality" color-interpolation="linearRGB" text-rendering="optimizeLegibility" shape-rendering="geometricPrecision" image-rendering="optimizeQuality" transform="matrix(1,0,0,1,269.202,47)">
      <text x="0" y="11" xml:space="preserve" stroke="none" clip-path="url(#clipPath24)">authInfo</text>
    </g>
    <g font-family="sans-serif" font-size="11" color-rendering="optimizeQuality" color-interpolation="linearRGB" text-rendering="optimizeLegibility" shape-rendering="geometricPrecision" image-rendering="optimizeQuality" transform="matrix(1,0,0,1,313.84119999999996,47)">
      <text x="0" y="11" xml:space="preserve" stroke="none" clip-path="url(#clipPath25)">)</text>
    </g>
    <g font-family="sans-serif" font-size="11" color-rendering="optimizeQuality" stroke-miterlimit="1" color-interpolation="linearRGB" text-rendering="optimizeLegibility" stroke-linecap="butt" shape-rendering="geometricPrecision" image-rendering="optimizeQuality" transform="matrix(1,0,0,1,-10,-10)">
      <path d="M72.51370239257812 116 L370.848388671875 116" clip-path="url(#clipPath1)" fill="none" />
      <path d="M12 -6 L0 0 L12 6 Z" stroke="none" clip-path="url(#clipPath26)" transform="matrix(-0.9999999999999999,-6.328271240363392E-15,6.328271240363392E-15,-0.9999999999999999,370.8484,116)" />
      <path d="M12 -6 L0 0 L12 6 Z" stroke-miterlimit="10" clip-path="url(#clipPath26)" fill="none" stroke-linecap="square" transform="matrix(-0.9999999999999999,-6.328271240363392E-15,6.328271240363392E-15,-0.9999999999999999,370.8484,116)" />
    </g>
    <g font-family="sans-serif" font-size="11" color-rendering="optimizeQuality" color-interpolation="linearRGB" text-rendering="optimizeLegibility" shape-rendering="geometricPrecision" image-rendering="optimizeQuality" transform="matrix(1,0,0,1,98.0375,82)">
      <text x="0" y="11" xml:space="preserve" stroke="none" clip-path="url(#clipPath27)"> </text>
    </g>
    <g font-family="sans-serif" font-size="11" color-rendering="optimizeQuality" color-interpolation="linearRGB" text-rendering="optimizeLegibility" shape-rendering="geometricPrecision" image-rendering="optimizeQuality" transform="matrix(1,0,0,1,103.518,82)">
      <text x="0" y="11" xml:space="preserve" stroke="none" clip-path="url(#clipPath28)">:</text>
    </g>
    <g font-family="sans-serif" font-size="11" color-rendering="optimizeQuality" color-interpolation="linearRGB" text-rendering="optimizeLegibility" shape-rendering="geometricPrecision" image-rendering="optimizeQuality" transform="matrix(1,0,0,1,108.99839999999999,82)">
      <text x="0" y="11" xml:space="preserve" stroke="none" clip-path="url(#clipPath29)">clipExists</text>
    </g>
    <g font-family="sans-serif" font-size="11" color-rendering="optimizeQuality" color-interpolation="linearRGB" text-rendering="optimizeLegibility" shape-rendering="geometricPrecision" image-rendering="optimizeQuality" transform="matrix(1,0,0,1,159.13219999999998,82)">
      <text x="0" y="11" xml:space="preserve" stroke="none" clip-path="url(#clipPath30)">:=</text>
    </g>
    <g font-family="sans-serif" font-size="11" color-rendering="optimizeQuality" color-interpolation="linearRGB" text-rendering="optimizeLegibility" shape-rendering="geometricPrecision" image-rendering="optimizeQuality" transform="matrix(1,0,0,1,171.3568,82)">
      <text x="0" y="11" xml:space="preserve" stroke="none" clip-path="url(#clipPath31)">existsAudioClip</text>
    </g>
    <g font-family="sans-serif" font-size="11" color-rendering="optimizeQuality" color-interpolation="linearRGB" text-rendering="optimizeLegibility" shape-rendering="geometricPrecision" image-rendering="optimizeQuality" transform="matrix(1,0,0,1,254.90949999999998,82)">
      <text x="0" y="11" xml:space="preserve" stroke="none" clip-path="url(#clipPath32)">(</text>
    </g>
    <g font-family="sans-serif" font-size="11" color-rendering="optimizeQuality" color-interpolation="linearRGB" text-rendering="optimizeLegibility" shape-rendering="geometricPrecision" image-rendering="optimizeQuality" transform="matrix(1,0,0,1,258.4867,82)">
      <text x="0" y="11" xml:space="preserve" stroke="none" clip-path="url(#clipPath33)">audioClipId</text>
    </g>
    <g font-family="sans-serif" font-size="11" color-rendering="optimizeQuality" color-interpolation="linearRGB" text-rendering="optimizeLegibility" shape-rendering="geometricPrecision" image-rendering="optimizeQuality" transform="matrix(1,0,0,1,319.2338,82)">
      <text x="0" y="11" xml:space="preserve" stroke="none" clip-path="url(#clipPath34)">)</text>
    </g>
    <g font-family="sans-serif" font-size="11" color-rendering="optimizeQuality" stroke-miterlimit="1" color-interpolation="linearRGB" text-rendering="optimizeLegibility" stroke-linecap="butt" shape-rendering="geometricPrecision" image-rendering="optimizeQuality" transform="matrix(1,0,0,1,-10,-10)">
      <path d="M72.51370239257812 151 L665.4541015625 151" clip-path="url(#clipPath1)" fill="none" />
      <path d="M12 -6 L0 0 L12 6 Z" stroke="none" clip-path="url(#clipPath35)" transform="matrix(-1,-1.2156942119645464E-14,1.2156942119645464E-14,-1,665.4541,151)" />
      <path d="M12 -6 L0 0 L12 6 Z" stroke-miterlimit="10" clip-path="url(#clipPath35)" fill="none" stroke-linecap="square" transform="matrix(-1,-1.2156942119645464E-14,1.2156942119645464E-14,-1,665.4541,151)" />
    </g>
    <g font-family="sans-serif" font-size="11" color-rendering="optimizeQuality" color-interpolation="linearRGB" text-rendering="optimizeLegibility" shape-rendering="geometricPrecision" image-rendering="optimizeQuality" transform="matrix(1,0,0,1,401.7299,118)">
      <text x="0" y="11" xml:space="preserve" stroke="none" clip-path="url(#clipPath36)"> </text>
    </g>
    <g font-family="sans-serif" font-size="11" color-rendering="optimizeQuality" color-interpolation="linearRGB" text-rendering="optimizeLegibility" shape-rendering="geometricPrecision" image-rendering="optimizeQuality" transform="matrix(1,0,0,1,407.2104,118)">
      <text x="0" y="11" xml:space="preserve" stroke="none" clip-path="url(#clipPath37)">:</text>
    </g>
    <g font-family="sans-serif" font-size="11" color-rendering="optimizeQuality" color-interpolation="linearRGB" text-rendering="optimizeLegibility" shape-rendering="geometricPrecision" image-rendering="optimizeQuality" transform="matrix(1,0,0,1,412.69079999999997,118)">
      <text x="0" y="11" xml:space="preserve" stroke="none" clip-path="url(#clipPath38)">authenticated</text>
    </g>
    <g font-family="sans-serif" font-size="11" color-rendering="optimizeQuality" color-interpolation="linearRGB" text-rendering="optimizeLegibility" shape-rendering="geometricPrecision" image-rendering="optimizeQuality" transform="matrix(1,0,0,1,485.65709999999996,118)">
      <text x="0" y="11" xml:space="preserve" stroke="none" clip-path="url(#clipPath39)">:=</text>
    </g>
    <g font-family="sans-serif" font-size="11" color-rendering="optimizeQuality" color-interpolation="linearRGB" text-rendering="optimizeLegibility" shape-rendering="geometricPrecision" image-rendering="optimizeQuality" transform="matrix(1,0,0,1,497.88169999999997,118)">
      <text x="0" y="11" xml:space="preserve" stroke="none" clip-path="url(#clipPath40)">authenticate</text>
    </g>
    <g font-family="sans-serif" font-size="11" color-rendering="optimizeQuality" color-interpolation="linearRGB" text-rendering="optimizeLegibility" shape-rendering="geometricPrecision" image-rendering="optimizeQuality" transform="matrix(1,0,0,1,563.9247,118)">
      <text x="0" y="11" xml:space="preserve" stroke="none" clip-path="url(#clipPath41)">(</text>
    </g>
    <g font-family="sans-serif" font-size="11" color-rendering="optimizeQuality" color-interpolation="linearRGB" text-rendering="optimizeLegibility" shape-rendering="geometricPrecision" image-rendering="optimizeQuality" transform="matrix(1,0,0,1,567.5018,118)">
      <text x="0" y="11" xml:space="preserve" stroke="none" clip-path="url(#clipPath42)">authId</text>
    </g>
    <g font-family="sans-serif" font-size="11" color-rendering="optimizeQuality" color-interpolation="linearRGB" text-rendering="optimizeLegibility" shape-rendering="geometricPrecision" image-rendering="optimizeQuality" transform="matrix(1,0,0,1,601.4363999999999,118)">
      <text x="0" y="11" xml:space="preserve" stroke="none" clip-path="url(#clipPath43)">)</text>
    </g>
    <g font-family="sans-serif" font-size="11" color-rendering="optimizeQuality" stroke-miterlimit="1" color-interpolation="linearRGB" text-rendering="optimizeLegibility" stroke-linecap="butt" shape-rendering="geometricPrecision" image-rendering="optimizeQuality" transform="matrix(1,0,0,1,-10,-10)">
      <path d="M72.51370239257812 186 L665.4541015625 186" clip-path="url(#clipPath1)" fill="none" />
      <path d="M12 -6 L0 0 L12 6 Z" stroke="none" clip-path="url(#clipPath44)" transform="matrix(-1,1.609823385706477E-15,-1.609823385706477E-15,-1,665.4541,186)" />
      <path d="M12 -6 L0 0 L12 6 Z" stroke-miterlimit="10" clip-path="url(#clipPath44)" fill="none" stroke-linecap="square" transform="matrix(-1,1.609823385706477E-15,-1.609823385706477E-15,-1,665.4541,186)" />
    </g>
    <g font-family="sans-serif" font-size="11" color-rendering="optimizeQuality" color-interpolation="linearRGB" text-rendering="optimizeLegibility" shape-rendering="geometricPrecision" image-rendering="optimizeQuality" transform="matrix(1,0,0,1,241.8411,152)">
      <text x="0" y="11" xml:space="preserve" stroke="none" clip-path="url(#clipPath45)"> </text>
    </g>
    <g font-family="sans-serif" font-size="11" color-rendering="optimizeQuality" color-interpolation="linearRGB" text-rendering="optimizeLegibility" shape-rendering="geometricPrecision" image-rendering="optimizeQuality" transform="matrix(1,0,0,1,247.32160000000002,152)">
      <text x="0" y="11" xml:space="preserve" stroke="none" clip-path="url(#clipPath46)">:</text>
    </g>
    <g font-family="sans-serif" font-size="11" color-rendering="optimizeQuality" color-interpolation="linearRGB" text-rendering="optimizeLegibility" shape-rendering="geometricPrecision" image-rendering="optimizeQuality" transform="matrix(1,0,0,1,252.80200000000002,152)">
      <text x="0" y="11" xml:space="preserve" stroke="none" clip-path="url(#clipPath47)">audioClip</text>
    </g>
    <g font-family="sans-serif" font-size="11" color-rendering="optimizeQuality" color-interpolation="linearRGB" text-rendering="optimizeLegibility" shape-rendering="geometricPrecision" image-rendering="optimizeQuality" transform="matrix(1,0,0,1,303.45680000000004,152)">
      <text x="0" y="11" xml:space="preserve" stroke="none" clip-path="url(#clipPath48)">:=</text>
    </g>
    <g font-family="sans-serif" font-size="11" color-rendering="optimizeQuality" color-interpolation="linearRGB" text-rendering="optimizeLegibility" shape-rendering="geometricPrecision" image-rendering="optimizeQuality" transform="matrix(1,0,0,1,315.6814,152)">
      <text x="0" y="11" xml:space="preserve" stroke="none" clip-path="url(#clipPath49)">retrieveAudioClip</text>
    </g>
    <g font-family="sans-serif" font-size="11" color-rendering="optimizeQuality" color-interpolation="linearRGB" text-rendering="optimizeLegibility" shape-rendering="geometricPrecision" image-rendering="optimizeQuality" transform="matrix(1,0,0,1,408.22530000000006,152)">
      <text x="0" y="11" xml:space="preserve" stroke="none" clip-path="url(#clipPath50)">(</text>
    </g>
    <g font-family="sans-serif" font-size="11" color-rendering="optimizeQuality" color-interpolation="linearRGB" text-rendering="optimizeLegibility" shape-rendering="geometricPrecision" image-rendering="optimizeQuality" transform="matrix(1,0,0,1,411.8025,152)">
      <text x="0" y="11" xml:space="preserve" stroke="none" clip-path="url(#clipPath51)">audioClipId</text>
    </g>
    <g font-family="sans-serif" font-size="11" color-rendering="optimizeQuality" color-interpolation="linearRGB" text-rendering="optimizeLegibility" shape-rendering="geometricPrecision" image-rendering="optimizeQuality" transform="matrix(1,0,0,1,472.54960000000005,152)">
      <text x="0" y="11" xml:space="preserve" stroke="none" clip-path="url(#clipPath52)">)</text>
    </g>
    <g font-family="sans-serif" font-size="11" color-rendering="optimizeQuality" stroke-miterlimit="1" color-interpolation="linearRGB" text-rendering="optimizeLegibility" stroke-linecap="butt" shape-rendering="geometricPrecision" image-rendering="optimizeQuality" transform="matrix(1,0,0,1,-10,-10)">
      <path d="M72.51370239257812 221 L370.848388671875 221" clip-path="url(#clipPath1)" fill="none" />
      <path d="M12 -6 L0 0 L12 6 Z" stroke="none" clip-path="url(#clipPath53)" transform="matrix(-1,-4.718447854656915E-15,4.718447854656915E-15,-1,370.8484,221)" />
      <path d="M12 -6 L0 0 L12 6 Z" stroke-miterlimit="10" clip-path="url(#clipPath53)" fill="none" stroke-linecap="square" transform="matrix(-1,-4.718447854656915E-15,4.718447854656915E-15,-1,370.8484,221)" />
    </g>
    <g font-family="sans-serif" font-size="11" color-rendering="optimizeQuality" color-interpolation="linearRGB" text-rendering="optimizeLegibility" shape-rendering="geometricPrecision" image-rendering="optimizeQuality" transform="matrix(1,0,0,1,136.4005,187)">
      <text x="0" y="11" xml:space="preserve" stroke="none" clip-path="url(#clipPath54)"> </text>
    </g>
    <g font-family="sans-serif" font-size="11" color-rendering="optimizeQuality" color-interpolation="linearRGB" text-rendering="optimizeLegibility" shape-rendering="geometricPrecision" image-rendering="optimizeQuality" transform="matrix(1,0,0,1,141.881,187)">
      <text x="0" y="11" xml:space="preserve" stroke="none" clip-path="url(#clipPath55)">:</text>
    </g>
    <g font-family="sans-serif" font-size="11" color-rendering="optimizeQuality" color-interpolation="linearRGB" text-rendering="optimizeLegibility" shape-rendering="geometricPrecision" image-rendering="optimizeQuality" transform="matrix(1,0,0,1,147.3614,187)">
      <text x="0" y="11" xml:space="preserve" stroke="none" clip-path="url(#clipPath56)">storeAudioClip</text>
    </g>
    <g font-family="sans-serif" font-size="11" color-rendering="optimizeQuality" color-interpolation="linearRGB" text-rendering="optimizeLegibility" shape-rendering="geometricPrecision" image-rendering="optimizeQuality" transform="matrix(1,0,0,1,226.6387,187)">
      <text x="0" y="11" xml:space="preserve" stroke="none" clip-path="url(#clipPath57)">(</text>
    </g>
    <g font-family="sans-serif" font-size="11" color-rendering="optimizeQuality" color-interpolation="linearRGB" text-rendering="optimizeLegibility" shape-rendering="geometricPrecision" image-rendering="optimizeQuality" transform="matrix(1,0,0,1,230.2159,187)">
      <text x="0" y="11" xml:space="preserve" stroke="none" clip-path="url(#clipPath58)">audioClip</text>
    </g>
    <g font-family="sans-serif" font-size="11" color-rendering="optimizeQuality" color-interpolation="linearRGB" text-rendering="optimizeLegibility" shape-rendering="geometricPrecision" image-rendering="optimizeQuality" transform="matrix(1,0,0,1,280.8707,187)">
      <text x="0" y="11" xml:space="preserve" stroke="none" clip-path="url(#clipPath59)">)</text>
    </g>
  </g>
</svg>
