<svg xmlns="http://www.w3.org/2000/svg" xml:space="preserve" viewBox="0 0 64 64" clip-rule="evenodd" fill-rule="evenodd" image-rendering="optimizeQuality" shape-rendering="geometricPrecision" text-rendering="geometricPrecision">
  <path fill="#474443" d="M31.993 18.107c3.32 0 6.36 1.198 8.706 3.179l-3.438 3.444a8.687 8.687 0 0 0-10.522 0l-3.438-3.444a13.443 13.443 0 0 1 8.692-3.179zm2.08 26.966L35.711 59h-7.437l1.653-13.927a13.44 13.44 0 0 1-6.626-3.016l3.438-3.444a8.72 8.72 0 0 0 4.412 1.73v-1.73h-.84c-1.034 0-1.875-.858-1.875-1.893v-8.072c0-1.035.841-1.892 1.874-1.892h3.38c1.033 0 1.874.857 1.874 1.892v8.072c0 1.035-.841 1.893-1.874 1.893h-.841v1.73a8.72 8.72 0 0 0 4.412-1.73l3.438 3.444a13.44 13.44 0 0 1-6.626 3.016zm.118-17.312c.399 0 .723.31.723.71a.724.724 0 0 1-.723.724.722.722 0 0 1-.708-.724c0-.4.325-.71.708-.71zm-1.859.222c.28 0 .502.222.502.488 0 .28-.222.488-.502.488a.482.482 0 0 1-.487-.488c0-.266.221-.488.487-.488zm-1.55.074c.222 0 .414.192.414.414a.413.413 0 0 1-.413.414.404.404 0 0 1-.414-.414c0-.222.177-.414.414-.414zm-1.387.103c.178 0 .31.133.31.31a.303.303 0 0 1-.31.311.303.303 0 0 1-.31-.31c0-.178.133-.31.31-.31zm4.796 1.7c.399 0 .723.326.723.725 0 .384-.324.71-.723.71a.719.719 0 0 1-.708-.71c0-.4.325-.725.708-.725zm-1.859.222a.496.496 0 1 1 .014.991.495.495 0 0 1-.014-.99zm-1.55.089c.222 0 .414.177.414.414a.423.423 0 0 1-.413.414.413.413 0 0 1-.414-.414c0-.237.177-.414.414-.414zm-1.387.089c.178 0 .31.147.31.325 0 .162-.132.31-.31.31a.312.312 0 0 1-.31-.31c0-.178.133-.325.31-.325zm4.796 1.7a.725.725 0 0 1 0 1.449.722.722 0 0 1-.708-.725c0-.399.325-.724.708-.724zm-1.859.236c.28 0 .502.222.502.488a.495.495 0 0 1-.989 0c0-.266.221-.488.487-.488zm-1.55.074c.222 0 .414.192.414.414a.413.413 0 0 1-.413.414.404.404 0 0 1-.414-.414c0-.222.177-.414.414-.414zm-1.387.104c.178 0 .31.133.31.31 0 .178-.132.31-.31.31a.303.303 0 0 1-.31-.31c0-.177.133-.31.31-.31zm4.796 1.7c.399 0 .723.325.723.71a.724.724 0 0 1-.723.724.722.722 0 0 1-.708-.724c0-.385.325-.71.708-.71zm-1.859.222a.495.495 0 1 1 .014.99.495.495 0 0 1-.014-.99zm-1.55.074c.222 0 .414.192.414.414a.426.426 0 0 1-.413.428.416.416 0 0 1-.414-.428c0-.222.177-.414.414-.414zm-1.387.103c.178 0 .31.148.31.31a.315.315 0 0 1-.31.326.315.315 0 0 1-.31-.325c0-.163.133-.31.31-.31zm4.796 1.7a.725.725 0 0 1 0 1.45.722.722 0 0 1-.708-.725c0-.4.325-.725.708-.725zm-1.859.237c.28 0 .502.222.502.488a.495.495 0 0 1-.989 0c0-.266.221-.488.487-.488zm-1.55.074c.222 0 .414.177.414.414a.423.423 0 0 1-.413.414.413.413 0 0 1-.414-.414c0-.237.177-.414.414-.414zm-1.387.103c.178 0 .31.133.31.31a.303.303 0 0 1-.31.311.303.303 0 0 1-.31-.31c0-.178.133-.31.31-.31zm-3.541-11.073a8.654 8.654 0 0 0-2.553 6.15c0 2.41.974 4.583 2.553 6.165l-3.424 3.43a13.53 13.53 0 0 1-3.97-9.595c0-3.74 1.52-7.126 3.97-9.58zm15.716-3.43a13.522 13.522 0 0 1 3.97 9.58c0 3.755-1.52 7.14-3.97 9.595l-3.424-3.43a8.689 8.689 0 0 0 2.553-6.165 8.654 8.654 0 0 0-2.553-6.15z" />
  <path fill="#e62129" d="M19.317 44.364a17.903 17.903 0 0 1-5.254-12.7 17.93 17.93 0 0 1 5.254-12.7l-3.424-3.43c-4.117 4.14-6.67 9.832-6.67 16.13a22.77 22.77 0 0 0 6.67 16.13z" />
  <path fill="#e62129" d="M44.683 18.965a17.916 17.916 0 0 1 5.24 12.7 17.89 17.89 0 0 1-5.24 12.699l3.424 3.43a22.77 22.77 0 0 0 6.67-16.13c0-6.298-2.553-11.99-6.67-16.13z" />
  <path fill="#e62129" d="M51.206 12.43a27.143 27.143 0 0 1 7.954 19.234c0 7.525-3.04 14.326-7.954 19.25l3.423 3.429A31.984 31.984 0 0 0 64 31.664C64 22.824 60.429 14.81 54.63 9Z" />
  <path fill="#e62129" d="M12.794 50.913A27.152 27.152 0 0 1 4.84 31.664c0-7.51 3.04-14.311 7.954-19.234L9.371 9A31.975 31.975 0 0 0 0 31.664a31.984 31.984 0 0 0 9.37 22.679Z" />
</svg>
