<svg data-name="Layer 1" xmlns="http://www.w3.org/2000/svg" width="727.48999" height="721.33535" viewBox="0 0 727.48999 721.33535" xmlns:xlink="http://www.w3.org/1999/xlink"><path d="M463.813,126.50433V582.27464H758.516v-466.796A361.626,361.626,0,0,0,463.813,126.50433Z" transform="translate(-236.255 -89.33232)" fill="#fff"/><path d="M434.89974,145.4129V583.56956H535.0988l-1.79046-24.80133-9.852-271.52948h198.402l-9.852,271.52948-1.79047,24.80133H811.53713V153.3459c-1.859-1.37074-3.7266-2.72433-5.61991-4.0522-.36837-.257,1.25468-7.52257.87773-7.77957a326.27946,326.27946,0,0,0-70.19759-37.292l-7.33719,80.7015H694.881V98.87722c-2.24453-.55687-4.48907-1.07944-6.75076-1.56777v.00009a87.61413,87.61413,0,0,1-87.61412,87.61413H558.30669V95.03924c-2.25311.4112-4.50622.84812-6.74218,1.31072v88.57371h-35.5186l-5.60276-77.291A325.75,325.75,0,0,0,441.642,140.98375c-.74537.47975-1.49921.951-2.24459,1.44782Q437.13579,143.89653,434.89974,145.4129ZM694.881,191.67443h33.89085l-5.28579,73.07607H694.881Zm-136.5743,0H688.13023V264.7505H637.83365v-1.44782a5.29229,5.29229,0,0,0-5.29437-5.29436H611.65305a5.29416,5.29416,0,0,0-5.30294,5.29436v1.44782H558.30669ZM521.82,264.7505l-5.2858-73.07607h35.03028V264.7505Z" transform="translate(-236.255 -89.33232)" fill="#f2f2f2"/><path d="M283.4007,570.49317c.00852.02573.0171.04288.02567.06855.06.17993.11995.3427.1885.52257v.00858q4.382,12.31073,9.62925,24.21021l660.71743-.71965q5.3201-12.1436,9.76629-24.73278a.15842.15842,0,0,0,.01716-.05992Z" transform="translate(-236.255 -89.33232)" fill="#ccc"/><path d="M531.50311,445.48861a15.43646,15.43646,0,0,1-21.19426,10.53923L473.06939,496.307l-6.82031-27.67819,36.40881-34.00651A15.52015,15.52015,0,0,1,531.503,445.48857Z" transform="translate(-236.255 -89.33232)" fill="#ffb6b6"/><path d="M489.13229,481.19226l-50.5964,56.7903-.4112-.07713c-.17135-.02567-4.00933-.711-10.09189-1.82476-21.99992-4.02643-73.31592-13.63-86.04645-18.07625a45.49735,45.49735,0,0,1-19.13854-12.5163c1.31929-7.18768,2.73286-12.56775,4.12928-15.18924,1.01947-1.91041.831-4.40337.87379-7.2476a22.91445,22.91445,0,0,1,11.28271-3.99223,163.87217,163.87217,0,0,1,74.18119,11.89951l13.34733,5.51711.54829-.40262,45.07929-33.08555.3084-.22275,15.50615,17.27952Z" transform="translate(-236.255 -89.33232)" fill="#ee4b28"/><path d="M594.72852,809.53772c-.67677-.0514-1.345-.11138-2.02179-.17135q-12.7348-1.06653-25.21252-3.01553l-9.1324-21.26318-4.3777-10.19469,16.52563-7.102,10.743-4.609,5.10587,17.54509,2.11606,7.29049L593.47773,805.22Z" transform="translate(-236.255 -89.33232)" fill="#ffb6b6"/><path d="M409.59927,710.59245v29.86437q7.51746,5.55139,15.33486,10.70869V710.59245Z" transform="translate(-236.255 -89.33232)" fill="#cacaca"/><path d="M355.73028,691.67661q6.46382,7.17056,13.313,13.97269a360.81213,360.81213,0,0,0,34.165,29.98433h68.36425a12.74708,12.74708,0,0,0,9.58642-4.34345l.00857-.02568a12.61646,12.61646,0,0,0,2.87854-5.65422l.00852-.01709a13.109,13.109,0,0,0,.2913-2.74144V704.45848a12.79042,12.79042,0,0,0-12.77335-12.78187Z" transform="translate(-236.255 -89.33232)" fill="#3f3d56"/><path d="M327.56215,619.88558l7.41043,31.74911a66.73951,66.73951,0,0,0-.71965,13.91272q5.26873,7.06773,10.87147,13.85274,5.1659,6.25824,10.60588,12.27646,6.46382,7.17056,13.313,13.97269c11.89093,3.73518,25.9065,5.26012,40.556,5.36292,5.05452.04282,10.18612-.09422,15.33486-.36837,20.87765-1.0966,9.44074-4.44625,26.73742-7.92443,4.57477-.9081,8.87535-1.83334,12.83327-2.73286,7.49608-1.68772,13.7671-3.264,18.30762-4.4634,5.11445-1.33644,23.5737-10.55744,23.5737-10.55744l14.56381,31.69772,12.85043,29.98432,16.92224,37.87746q3.26406.29553,6.53659.49689,3.46962.24417,6.94778.394c1.83334.09428,3.6581.16277,5.5.21417l.62537.19708.514-.16278,8.25855-2.63006,2.78426-.88242,10.01476-3.18688s-2.236-7.04206-6.15106-18.78731c-1.43924-4.3092-11.63393-36.16969-22.2998-63.98655-3.16115-8.25856-6.43373-16.637-9.80054-24.97268-2.75858-6.845-5.56851-13.6643-8.41275-20.38933-4.94314-11.65961-28.8278-17.94777-56.95312-21.246-1.43066-.16277-2.8699-.32555-4.31772-.47975-14.33249-1.50779-29.53883-2.28736-43.76-2.64721-7.11914-.17987,18.56461-.24842,12.17365-.257q-3.097,0-6.02259.01715h-.00852c-5.2687.02567-10.11762.1028-14.384.18844-.831.01715-1.63626.04283-2.42446.06h-.00852c-.53115.00857-1.05377.02573-1.56777.03425-9.32942.2399-15.05213.5312-15.05213.5312l-2.21887-17.40805-.454-3.51248-.42835-3.34108v-.00858l-.0514-.41977-.35127-.00857-6.16816-.12-51.8472-1.0109-22.08355-.93582Z" transform="translate(-236.255 -89.33232)" fill="#2f2e41"/><path d="M496.1058,684.109c-6.24534,10.67444-11.11131,30.90952-17.51085,40.93286-12.27645,19.24139-19.47266,29.7359-27.97963,41.57543q-13.18455-7.18343-25.67518-15.45481-6.66937-4.39482-13.13315-9.10662l5.09735-11.62536,2.89563-5.697,13.00462-25.60663,14.581-28.70785,5.07162,2.36448Z" transform="translate(-236.255 -89.33232)" fill="#2f2e41"/><path d="M934.36054,537.42539a5.45248,5.45248,0,0,0-4.17483-7.08027,5.01447,5.01447,0,0,0-.86114-.10691l-34.91076-.90149a5.60921,5.60921,0,0,0-4.17558,1.80166,7.011,7.011,0,0,0-1.48737-.15469,8.27682,8.27682,0,1,0-.41541,16.54842,8.39055,8.39055,0,0,0,3.63061-.746l3.21165,34.34251a5.42158,5.42158,0,0,0,5.12376,3.98963l22.69542.58407a5.49673,5.49673,0,0,0,5.297-3.71036Zm-45.9527,7.73807a5.92018,5.92018,0,0,1,.2772-11.83707c.11089.00029.20871.05284.3196.05314a5.574,5.574,0,0,0,.01745,2.891l2.28535,8.18378A5.573,5.573,0,0,1,888.40784,545.16346Z" transform="translate(-236.255 -89.33232)" fill="#ccc"/><path d="M930.18571,530.34512c-.74377,4.25274-9.10589,7.24239-19.16071,6.72274-9.24607-.426-16.80618-3.67268-18.19124-7.52051a5.16176,5.16176,0,0,1,1.58005-.21063l34.91076.90149A5.01447,5.01447,0,0,1,930.18571,530.34512Z" transform="translate(-236.255 -89.33232)" fill="#fff"/><path d="M711.619,485.40612v87.86264H773.1725V485.40612a2.9539,2.9539,0,0,0-2.08176-2.82708,2.71964,2.71964,0,0,0-.88237-.13705H714.59169A2.967,2.967,0,0,0,711.619,485.40612ZM735.64069,515.596a6.57114,6.57114,0,0,1,13.14173,0v10.1947a6.57094,6.57094,0,0,1-13.14173,0Z" transform="translate(-236.255 -89.33232)" fill="#ccc"/><path d="M711.43054,570.45883v8.47272a1.66732,1.66732,0,0,0,1.65341,1.662h58.62363a1.66174,1.66174,0,0,0,1.65342-1.662v-8.47272Z" transform="translate(-236.255 -89.33232)" fill="#3f3d56"/><path d="M614.78672,353.02965V513.45431a7.71637,7.71637,0,0,0,7.71026,7.71025H860.22984a7.71633,7.71633,0,0,0,7.71026-7.71025V353.02965a7.72008,7.72008,0,0,0-7.71026-7.70173H622.497A7.72012,7.72012,0,0,0,614.78672,353.02965Z" transform="translate(-236.255 -89.33232)" fill="#ccc"/><path d="M620.36382,355.02571V511.47534a4.12784,4.12784,0,0,0,4.1207,4.1207H858.25088a4.12781,4.12781,0,0,0,4.1207-4.1207V355.02571a4.12967,4.12967,0,0,0-4.1207-4.12928H624.48452A4.1297,4.1297,0,0,0,620.36382,355.02571Z" transform="translate(-236.255 -89.33232)" fill="#fff"/><path d="M668.74686,580.01952a2.5259,2.5259,0,0,0,1.98754.95092H809.81029a2.55916,2.55916,0,0,0,2.50154-3.08408l-2.15889-10.25462a2.56379,2.56379,0,0,0-1.59344-1.85906,2.4797,2.4797,0,0,0-.9081-.1713H672.88472a2.47947,2.47947,0,0,0-.9081.1713,2.56354,2.56354,0,0,0-1.59344,1.85906l-2.15889,10.25462A2.55719,2.55719,0,0,0,668.74686,580.01952Z" transform="translate(-236.255 -89.33232)" fill="#f2f2f2"/><path d="M850.66442,372.44808H631.93018a.87005.87005,0,0,1,0-1.73968H850.66442a.87005.87005,0,0,1,0,1.73968Z" transform="translate(-236.255 -89.33232)" fill="#3f3d56"/><ellipse cx="410.56469" cy="271.72352" rx="5.0977" ry="5.21131" fill="#3f3d56"/><ellipse cx="428.17493" cy="271.72352" rx="5.0977" ry="5.21131" fill="#3f3d56"/><ellipse cx="445.78517" cy="271.72352" rx="5.0977" ry="5.21131" fill="#3f3d56"/><path d="M840.06013,357.1332H827.55241a.9469.9469,0,0,0,0,1.89331h12.50772a.94674.94674,0,0,0,0-1.89331Z" transform="translate(-236.255 -89.33232)" fill="#3f3d56"/><path d="M840.06013,360.6885H827.55241a.94688.94688,0,0,0,0,1.89326h12.50772a.94672.94672,0,0,0,0-1.89326Z" transform="translate(-236.255 -89.33232)" fill="#3f3d56"/><path d="M840.06013,364.24376H827.55241a.9469.9469,0,0,0,0,1.89331h12.50772a.94674.94674,0,0,0,0-1.89331Z" transform="translate(-236.255 -89.33232)" fill="#3f3d56"/><rect x="490.5228" y="330.40498" width="43.45085" height="9.29145" rx="3.26417" fill="#ee4b28"/><rect x="468.4556" y="348.98789" width="87.58526" height="9.29145" rx="3.26417" fill="#ee4b28"/><rect x="468.4556" y="367.5708" width="87.58526" height="9.29145" rx="3.26417" fill="#ee4b28"/><ellipse cx="361.36915" cy="490.68826" rx="20.13233" ry="6.42521" fill="#3f3d56"/><ellipse cx="361.36915" cy="486.40479" rx="20.13233" ry="6.42521" fill="#3f3d56"/><path d="M599.12416,580.04286l-3-.04492.82764-56.01856a52.25793,52.25793,0,0,0-25.36914-45.5l-57.25928-34.22607,1.53906-2.5752,57.25928,34.22705A55.26514,55.26514,0,0,1,599.9518,524.0243Z" transform="translate(-236.255 -89.33232)" fill="#3f3d56"/><rect x="272.27287" y="320.20596" width="14.56381" height="59.96865" rx="7.2819" fill="#ee4b28"/><path d="M510.71352,482.01747a21.89,21.89,0,0,1-21.85743-21.61524l-.24707-23.00537,3-.03222.24707,23.00634a18.82625,18.82625,0,0,0,30.47608,14.585l20.41553-16.083,1.85644,2.35742-20.41553,16.083A21.73337,21.73337,0,0,1,510.71352,482.01747Z" transform="translate(-236.255 -89.33232)" fill="#3f3d56"/><ellipse cx="256.85236" cy="345.05011" rx="8.9953" ry="21.84572" fill="#3f3d56"/><path d="M429.67769,551.9724c-.77962-4.90032-1.30219-10.27182-1.64489-15.89173-.8053-12.859-.72817-27.03729-.8224-40.00762-.03966-5.89449-.50638-12.33124-1.11342-18.30729A34.49091,34.49091,0,0,0,409.109,451.28817a34.91683,34.91683,0,0,1-8.59328-7.00234c-1.33644-1.49064-1.49922-4.93457-1.67057-8.57553-.2056-4.42909-.41977-9.021-2.79278-11.38545l-.1028-.1028-.1371-.05145c-9.96337-3.31541-26.79739-1.1651-31.80051-.00853l-.21418.0514-.137.1713c-2.06466,2.73286-1.95329,7.102-1.84191,11.32553.09422,3.79516.18845,7.38471-1.49064,8.46416-1.3022.83954-2.55294,1.63626-3.76091,2.40731-14.81223,9.44931-22.24834,14.19544-27.697,29.62452a20.41133,20.41133,0,0,0-1.01947,6.845c-.04282,2.84423.14568,5.33719-.87379,7.2476-1.39642,2.62149-2.81,8.00156-4.12928,15.18924-6.91353,37.77166-11.01708,125.6,5.87692,127.65613,1.31929.16278-1.37069,2.80993-2.29594,4.1378-1.32787,1.91047-2.46728,3.55531-1.80761,4.81462.44544.8567,1.61059,1.25937,3.64953,1.25937,7.6931,0,86.77461-11.60821,89.01915-15.78888.14568-.27415.16277.23985,0,0C454.36759,622.72681,434.74073,584.00419,429.67769,551.9724Z" transform="translate(-236.255 -89.33232)" fill="#ee4b28"/><path d="M518.9264,589.80122a15.64019,15.64019,0,0,0-23.9241,1.67224L441.79653,575.402l8.24906,27.67927L499.306,614.09955a15.725,15.725,0,0,0,19.62031-24.29824Z" transform="translate(-236.255 -89.33232)" fill="#ffb6b6"/><path d="M454.69859,605.6509l-73.05952-13.40884c-.2959-.7643-29.6264-76.68827-33.25039-93.74317a46.16377,46.16377,0,0,1,3.66143-30.48544l.12872-.2265.23965-.10339a23.42664,23.42664,0,0,1,28.21808,7.88882,165.93665,165.93665,0,0,1,28.64761,70.52384l2.2331,14.45659,34.81551,10.11966Z" transform="translate(-236.255 -89.33232)" fill="#ee4b28"/><path d="M430.76184,400.48473a41.39522,41.39522,0,1,1,2.10341-35.26571c.18945.47375.36005.9475.53054,1.44021A41.33879,41.33879,0,0,1,430.76184,400.48473Z" transform="translate(-236.255 -89.33232)" fill="#ffb6b6"/><path d="M436.712,366.65923c-1.78129-4.98383-1.00428-2.3877-2.80454-7.35256,1.175,4.39638-.68217,6.85985-.51168,7.35256H384.10712V338.007c14.43992-5.7229,28.55749-10.593,37.08494,0a28.65344,28.65344,0,0,1,28.65221,28.65221Z" transform="translate(-236.255 -89.33232)" fill="#2f2e41"/><path d="M396.96621,445.44883c-.03794-.53053-.09473-1.08015-.1706-1.61069a55.80278,55.80278,0,0,0-3.20254-11.36993c-1.42124-3.9984-2.86145-8.01588-4.30154-12.01428a34.39714,34.39714,0,0,1-1.61081,21.8303c-8.319-6.48082-4.32-16.23645-13.94709-21.29964-25.83606-13.588-34.77652-35.54691-27.54945-69.27322,2.57008-11.99373,17.54063-23.98746,43.69144-23.98746,26.1699,0,37.83532,13.01178,38.34688,39.16271C396.0077,374.46657,403.04905,442.79592,396.96621,445.44883Z" transform="translate(-236.255 -89.33232)" fill="#2f2e41"/><circle cx="112.53085" cy="246.52274" r="17.10231" fill="#2f2e41"/><path d="M340.78568,330.88513c-2.91663,3.39566-7.48324,4.71559-11.60272,6.48264a48.81108,48.81108,0,0,0-28.35742,35.65964c-1.13892,6.35484-.98994,12.93324-2.78889,19.12844-1.7883,6.19521-6.21645,12.27334-12.57136,13.34846-4.30042.73448-8.6115-.92608-12.65646-2.5654q-3.33714-1.34118-6.67423-2.69307,3.4808-8.734,6.95094-17.46794a88.5218,88.5218,0,0,1-12.89068,15.08354q-11.95927-4.82207-23.93986-9.64413c19.65009.07452,16.297-19.00071,20.69325-38.1398,2.41636-10.51694,22.99246-17.63823,27.02683-27.64425a30.61019,30.61019,0,0,1,55.52257-2.78889C343.532,321.25172,343.6491,327.5321,340.78568,330.88513Z" transform="translate(-236.255 -89.33232)" fill="#2f2e41"/><path d="M407.76941,326.81186h0a6.42521,6.42521,0,0,1,6.42521,6.42521v47.78668a6.4252,6.4252,0,0,1-6.4252,6.4252h0a6.42521,6.42521,0,0,1-6.42521-6.42521V333.23707a6.4252,6.4252,0,0,1,6.4252-6.4252Z" transform="translate(-102.24169 -200.04337) rotate(18.45374)" fill="#fff"/><circle cx="160.55577" cy="299.30341" r="17.1339" fill="#fff"/><circle cx="160.55577" cy="299.30341" r="4.28347" fill="#ee4b28"/><path d="M644.33247,803.19771c.92,2.23,1.93,4.46,2.9,6.7l-.45.03c-.15,0-.29.02-.44.03q-10.605.66-21.4.7c-.33.01-.65.01-.98.01,0-.02.01-.03.01-.05a3.61393,3.61393,0,0,0,2.62-6.26c-.1-.37-.16-.63-.25-.99a2.43872,2.43872,0,0,1,.1-.24A9.6981,9.6981,0,0,1,644.33247,803.19771Z" transform="translate(-236.255 -89.33232)" fill="#f2f2f2"/><path d="M710.2925,770.53767c-.01.08-.02.15-.03.23a31.31177,31.31177,0,0,0-3.69,1.78c-.69.38-1.36.79-2.01,1.22a4.90172,4.90172,0,0,0,1.98005,8.92l.1.02c.07.01.13.02.2.03a47.83017,47.83017,0,0,1-18.62,22.12c-.4.08-.79.15-1.19.22-2.02.37-4.03.71-6.05,1.02q-10.53,1.71-21.27,2.76a113.68664,113.68664,0,0,0,2.16-22.02,109.34577,109.34577,0,0,0-.68994-12.38995c-.38-3.37-.9-6.73005-1.58-10.05q-.51-2.52009-1.14-5.03a117.58472,117.58472,0,0,0-9.76-25.63,114.17807,114.17807,0,0,0-12.19-18.68,30.90744,30.90744,0,0,1-12.88-13.37,23.39212,23.39212,0,0,1-2.15-6.46c.62.09,1.26.14,1.88995.18.19.01.4.02.6.03h.07a3.57617,3.57617,0,0,0,2.94-5.83c-.27-.33-.54-.67-.81-1-.41-.51-.84-1.02-1.25-1.53a1.73506,1.73506,0,0,1-.13-.15c-.47-.59-.95-1.17-1.42005-1.75a10.22482,10.22482,0,0,1,3.39-3.28c4.74-2.78,11.28-.86005,14.71,3.43,3.43,4.29,4.08,10.31,2.89,15.66a41.50555,41.50555,0,0,1-5.74,12.8c.26.33.52.64.78.97a116.36011,116.36011,0,0,1,11.45,17.87c.27.5.53,1,.78,1.51a48.69938,48.69938,0,0,1,2.91-22.63c2.78-6.71,8-12.37,12.59-18.17,5.52-6.97,16.84-3.93,17.81,4.91.01.08.02.17.03.25-.68.39-1.35.8-2,1.23a4.90065,4.90065,0,0,0,1.97,8.92005l.1.02a49.04027,49.04027,0,0,1-26.28,38.75c-.41.21-.8.42-1.2.61a111.84566,111.84566,0,0,1,3.23005,10.76c.44,1.7.82,3.41,1.17,5.13a116.76273,116.76273,0,0,1,2.04,14.41,114.21,114.21,0,0,1-.08,18.31l.03-.21a30.01374,30.01374,0,0,1,10.23-17.31c7.87994-6.47,19-8.85,27.5-14.05A5.62028,5.62028,0,0,1,710.2925,770.53767Z" transform="translate(-236.255 -89.33232)" fill="#f2f2f2"/></svg>
