<?xml version="1.0" encoding="UTF-8"?>
<!DOCTYPE svg PUBLIC "-//W3C//DTD SVG 1.1//EN" "http://www.w3.org/Graphics/SVG/1.1/DTD/svg11.dtd">
<!-- Creator: CorelDRAW X7 -->
<svg xmlns="http://www.w3.org/2000/svg" xml:space="preserve" width="12.1918mm" height="9.4826mm" version="1.1" style="shape-rendering:geometricPrecision; text-rendering:geometricPrecision; image-rendering:optimizeQuality; fill-rule:evenodd; clip-rule:evenodd"
viewBox="0 0 1219 948"
 xmlns:xlink="http://www.w3.org/1999/xlink">
 <defs>
  <style type="text/css">
   <![CDATA[
    .fil0 {fill:none}
    .fil1 {fill:#474443}
    .fil2 {fill:#E62129}
   ]]>
  </style>
 </defs>
 <g id="Layer_x0020_1">
  <metadata id="CorelCorpID_0Corel-Layer"/>
  <g id="_1037353840">
   <path class="fil0" d="M975 65l65 -65c110,110 178,262 178,430 0,168 -68,320 -178,430l-65 -65c93,-94 151,-223 151,-365 0,-143 -58,-272 -151,-365z"/>
   <path class="fil1" d="M610 173c63,0 120,22 165,60l-66 65c-27,-21 -62,-33 -99,-33 -38,0 -73,12 -100,33l-66 -65c45,-38 103,-60 166,-60zm39 511l31 264 -141 0 31 -264c-47,-7 -90,-27 -126,-57l66 -65c23,18 52,29 83,32l0 -32 -15 0c-20,0 -36,-17 -36,-36l0 -153c0,-20 16,-36 36,-36l64 0c19,0 35,16 35,36l0 153c0,19 -16,36 -35,36l-16 0 0 32c31,-3 60,-14 83,-32l66 65c-35,30 -79,50 -126,57zm2 -328c8,0 14,6 14,13 0,8 -6,14 -14,14 -7,0 -13,-6 -13,-14 0,-7 6,-13 13,-13zm-35 4c5,0 9,4 9,9 0,5 -4,10 -9,10 -5,0 -9,-5 -9,-10 0,-5 4,-9 9,-9zm-30 1c5,0 8,4 8,8 0,5 -3,8 -8,8 -4,0 -7,-3 -7,-8 0,-4 3,-8 7,-8zm-26 2c3,0 6,3 6,6 0,4 -3,6 -6,6 -3,0 -6,-2 -6,-6 0,-3 3,-6 6,-6zm91 33c8,0 14,6 14,13 0,8 -6,14 -14,14 -7,0 -13,-6 -13,-14 0,-7 6,-13 13,-13zm-35 4c5,0 9,4 9,9 0,5 -4,10 -9,10 -5,0 -9,-5 -9,-10 0,-5 4,-9 9,-9zm-30 1c5,0 8,4 8,8 0,5 -3,8 -8,8 -4,0 -7,-3 -7,-8 0,-4 3,-8 7,-8zm-26 2c3,0 6,3 6,6 0,4 -3,6 -6,6 -3,0 -6,-2 -6,-6 0,-3 3,-6 6,-6zm91 33c8,0 14,6 14,13 0,8 -6,14 -14,14 -7,0 -13,-6 -13,-14 0,-7 6,-13 13,-13zm-35 4c5,0 9,4 9,9 0,5 -4,9 -9,9 -5,0 -9,-4 -9,-9 0,-5 4,-9 9,-9zm-30 1c5,0 8,4 8,8 0,5 -3,8 -8,8 -4,0 -7,-3 -7,-8 0,-4 3,-8 7,-8zm-26 2c3,0 6,3 6,6 0,3 -3,6 -6,6 -3,0 -6,-3 -6,-6 0,-3 3,-6 6,-6zm91 32c8,0 14,7 14,14 0,8 -6,14 -14,14 -7,0 -13,-6 -13,-14 0,-7 6,-14 13,-14zm-35 5c5,0 9,4 9,9 0,5 -4,9 -9,9 -5,0 -9,-4 -9,-9 0,-5 4,-9 9,-9zm-30 1c5,0 8,4 8,8 0,4 -3,8 -8,8 -4,0 -7,-4 -7,-8 0,-4 3,-8 7,-8zm-26 2c3,0 6,3 6,6 0,3 -3,6 -6,6 -3,0 -6,-3 -6,-6 0,-3 3,-6 6,-6zm91 32c8,0 14,7 14,14 0,8 -6,14 -14,14 -7,0 -13,-6 -13,-14 0,-7 6,-14 13,-14zm-35 5c5,0 9,4 9,9 0,5 -4,9 -9,9 -5,0 -9,-4 -9,-9 0,-5 4,-9 9,-9zm-30 1c5,0 8,4 8,8 0,4 -3,8 -8,8 -4,0 -7,-4 -7,-8 0,-4 3,-8 7,-8zm-26 2c3,0 6,3 6,6 0,3 -3,6 -6,6 -3,0 -6,-3 -6,-6 0,-3 3,-6 6,-6zm-67 -210c-30,30 -49,71 -49,117 0,46 19,87 49,117l-65 65c-47,-47 -76,-111 -76,-182 0,-71 29,-135 76,-182l65 65zm299 -65c46,47 75,111 75,182 0,71 -29,135 -75,182l-66 -65c30,-30 49,-71 49,-117 0,-46 -19,-87 -49,-117l66 -65z"/>
   <path class="fil2" d="M369 671c-62,-62 -100,-147 -100,-241 0,-94 38,-179 100,-241l-65 -65c-79,78 -127,186 -127,306 0,119 48,227 127,306l65 -65z"/>
   <path class="fil2" d="M851 189c61,62 99,147 99,241 0,94 -38,179 -99,241l65 65c78,-79 126,-187 126,-306 0,-120 -48,-228 -126,-306l-65 65z"/>
   <path class="fil2" d="M245 795c-94,-94 -152,-223 -152,-365 0,-143 58,-272 152,-365l-66 -65c-109,110 -178,262 -178,430 0,168 69,320 178,430l66 -65z"/>
   <path class="fil2" d="M975 65c93,93 151,222 151,365 0,142 -58,271 -151,365l65 65c110,-110 178,-262 178,-430 0,-168 -68,-320 -178,-430l-65 65z"/>
  </g>
 </g>
</svg>
