<?xml version="1.0" encoding="UTF-8"?>
<!DOCTYPE svg PUBLIC "-//W3C//DTD SVG 1.1//EN" "http://www.w3.org/Graphics/SVG/1.1/DTD/svg11.dtd">
<!-- Creator: CorelDRAW X7 -->
<svg xmlns="http://www.w3.org/2000/svg" xml:space="preserve" width="21.6746mm" height="16.9332mm" version="1.1" style="shape-rendering:geometricPrecision; text-rendering:geometricPrecision; image-rendering:optimizeQuality; fill-rule:evenodd; clip-rule:evenodd"
viewBox="0 0 2167 1693"
 xmlns:xlink="http://www.w3.org/1999/xlink">
 <defs>
  <style type="text/css">
   <![CDATA[
    .fil0 {fill:none}
    .fil1 {fill:#474443}
    .fil2 {fill:#E62129}
   ]]>
  </style>
 </defs>
 <g id="Layer_x0020_1">
  <metadata id="CorelCorpID_0Corel-Layer"/>
  <g id="_1040595264">
   <path class="fil0" d="M1734 118l116 -116c196,196 317,467 317,766 0,299 -121,570 -317,766l-116 -116c167,-166 270,-396 270,-650 0,-254 -103,-484 -270,-650z"/>
   <path class="fil1" d="M1084 309c112,0 215,41 294,108l-116 116c-50,-37 -111,-60 -178,-60 -67,0 -129,23 -178,60l-117 -116c80,-67 183,-108 295,-108zm70 912l56 471 -252 0 56 -471c-85,-13 -162,-49 -225,-102l117 -117c42,33 93,54 149,59l0 -59 -28 0c-35,0 -64,-28 -64,-63l0 -273c0,-35 29,-64 64,-64l114 0c35,0 63,29 63,64l0 273c0,35 -28,63 -63,63l-29 0 0 59c56,-5 107,-26 150,-59l116 117c-62,53 -140,89 -224,102zm4 -585c14,0 24,10 24,24 0,13 -10,24 -24,24 -13,0 -24,-11 -24,-24 0,-14 11,-24 24,-24zm-63 7c9,0 17,8 17,17 0,9 -8,16 -17,16 -9,0 -16,-7 -16,-16 0,-9 7,-17 16,-17zm-53 3c8,0 14,6 14,14 0,8 -6,14 -14,14 -7,0 -14,-6 -14,-14 0,-8 7,-14 14,-14zm-46 3c6,0 10,5 10,11 0,6 -4,10 -10,10 -6,0 -11,-4 -11,-10 0,-6 5,-11 11,-11zm162 58c14,0 24,11 24,24 0,13 -10,24 -24,24 -13,0 -24,-11 -24,-24 0,-13 11,-24 24,-24zm-63 7c9,0 17,8 17,17 0,9 -8,17 -17,17 -9,0 -16,-8 -16,-17 0,-9 7,-17 16,-17zm-53 3c8,0 14,6 14,14 0,8 -6,14 -14,14 -7,0 -14,-6 -14,-14 0,-8 7,-14 14,-14zm-46 3c6,0 10,5 10,11 0,6 -4,11 -10,11 -6,0 -11,-5 -11,-11 0,-6 5,-11 11,-11zm162 58c14,0 24,11 24,24 0,14 -10,24 -24,24 -13,0 -24,-10 -24,-24 0,-13 11,-24 24,-24zm-63 8c9,0 17,7 17,16 0,9 -8,17 -17,17 -9,0 -16,-8 -16,-17 0,-9 7,-16 16,-16zm-53 2c8,0 14,6 14,14 0,8 -6,14 -14,14 -7,0 -14,-6 -14,-14 0,-8 7,-14 14,-14zm-46 4c6,0 10,4 10,10 0,6 -4,11 -10,11 -6,0 -11,-5 -11,-11 0,-6 5,-10 11,-10zm162 57c14,0 24,11 24,24 0,14 -10,25 -24,25 -13,0 -24,-11 -24,-25 0,-13 11,-24 24,-24zm-63 8c9,0 17,7 17,16 0,10 -8,17 -17,17 -9,0 -16,-7 -16,-17 0,-9 7,-16 16,-16zm-53 2c8,0 14,7 14,14 0,8 -6,14 -14,14 -7,0 -14,-6 -14,-14 0,-7 7,-14 14,-14zm-46 4c6,0 10,4 10,10 0,6 -4,11 -10,11 -6,0 -11,-5 -11,-11 0,-6 5,-10 11,-10zm162 57c14,0 24,11 24,25 0,13 -10,24 -24,24 -13,0 -24,-11 -24,-24 0,-14 11,-25 24,-25zm-63 8c9,0 17,7 17,17 0,9 -8,16 -17,16 -9,0 -16,-7 -16,-16 0,-10 7,-17 16,-17zm-53 2c8,0 14,7 14,15 0,7 -6,14 -14,14 -7,0 -14,-7 -14,-14 0,-8 7,-15 14,-15zm-46 4c6,0 10,5 10,11 0,5 -4,10 -10,10 -6,0 -11,-5 -11,-10 0,-6 5,-11 11,-11zm-121 -374c-53,53 -86,127 -86,208 0,81 33,155 86,208l-115 116c-83,-83 -135,-198 -135,-324 0,-127 52,-241 135,-324l115 116zm533 -116c83,83 134,197 134,324 0,126 -51,241 -134,324l-116 -116c53,-53 86,-127 86,-208 0,-81 -33,-155 -86,-208l116 -116z"/>
   <path class="fil2" d="M654 1197c-109,-110 -177,-262 -177,-429 0,-168 68,-319 177,-429l-116 -116c-139,139 -225,332 -225,545 0,213 86,405 225,545l116 -116z"/>
   <path class="fil2" d="M1513 339c110,110 178,261 178,429 0,167 -68,319 -178,429l116 116c140,-140 226,-332 226,-545 0,-213 -86,-406 -226,-545l-116 116z"/>
   <path class="fil2" d="M433 1418c-166,-166 -269,-396 -269,-650 0,-254 103,-484 269,-650l-116 -116c-196,196 -317,467 -317,766 0,299 121,570 317,766l116 -116z"/>
   <path class="fil2" d="M1734 118c167,166 270,396 270,650 0,254 -103,484 -270,650l116 116c196,-196 317,-467 317,-766 0,-299 -121,-570 -317,-766l-116 116z"/>
  </g>
 </g>
</svg>
