<?xml version="1.0" encoding="UTF-8"?>
<!DOCTYPE svg PUBLIC "-//W3C//DTD SVG 1.1//EN" "http://www.w3.org/Graphics/SVG/1.1/DTD/svg11.dtd">
<!-- Creator: CorelDRAW X7 -->
<svg xmlns="http://www.w3.org/2000/svg" xml:space="preserve" width="43.3492mm" height="33.782mm" version="1.1" style="shape-rendering:geometricPrecision; text-rendering:geometricPrecision; image-rendering:optimizeQuality; fill-rule:evenodd; clip-rule:evenodd"
viewBox="0 0 4335 3378"
 xmlns:xlink="http://www.w3.org/1999/xlink">
 <defs>
  <style type="text/css">
   <![CDATA[
    .fil0 {fill:none}
    .fil1 {fill:#474443}
    .fil2 {fill:#E62129}
   ]]>
  </style>
 </defs>
 <g id="Layer_x0020_1">
  <metadata id="CorelCorpID_0Corel-Layer"/>
  <g id="_986080032">
   <path class="fil0" d="M3469 230l232 -232c393,393 635,935 635,1533 0,599 -242,1141 -635,1534l-232 -232c333,-333 539,-793 539,-1302 0,-508 -206,-968 -539,-1301z"/>
   <path class="fil1" d="M2167 614c225,0 431,81 590,215l-233 233c-99,-75 -223,-120 -357,-120 -133,0 -257,45 -356,120l-233 -233c159,-134 365,-215 589,-215zm141 1824l111 942 -504 0 112 -942c-169,-26 -323,-98 -449,-204l233 -233c85,64 187,106 299,117l0 -117 -57 0c-70,0 -127,-58 -127,-128l0 -546c0,-70 57,-128 127,-128l229 0c70,0 127,58 127,128l0 546c0,70 -57,128 -127,128l-57 0 0 117c112,-11 214,-53 299,-117l233 233c-126,106 -280,178 -449,204zm8 -1171c27,0 49,21 49,48 0,27 -22,49 -49,49 -26,0 -48,-22 -48,-49 0,-27 22,-48 48,-48zm-126 15c19,0 34,15 34,33 0,19 -15,33 -34,33 -18,0 -33,-14 -33,-33 0,-18 15,-33 33,-33zm-105 5c15,0 28,13 28,28 0,16 -13,28 -28,28 -16,0 -28,-12 -28,-28 0,-15 12,-28 28,-28zm-94 7c12,0 21,9 21,21 0,12 -9,21 -21,21 -12,0 -21,-9 -21,-21 0,-12 9,-21 21,-21zm325 115c27,0 49,22 49,49 0,26 -22,48 -49,48 -26,0 -48,-22 -48,-48 0,-27 22,-49 48,-49zm-126 15c19,0 34,15 34,34 0,18 -15,33 -34,33 -18,0 -33,-15 -33,-33 0,-19 15,-34 33,-34zm-105 6c15,0 28,12 28,28 0,15 -13,28 -28,28 -16,0 -28,-13 -28,-28 0,-16 12,-28 28,-28zm-94 6c12,0 21,10 21,22 0,11 -9,21 -21,21 -12,0 -21,-10 -21,-21 0,-12 9,-22 21,-22zm325 115c27,0 49,22 49,49 0,27 -22,49 -49,49 -26,0 -48,-22 -48,-49 0,-27 22,-49 48,-49zm-126 16c19,0 34,15 34,33 0,18 -15,33 -34,33 -18,0 -33,-15 -33,-33 0,-18 15,-33 33,-33zm-105 5c15,0 28,13 28,28 0,16 -13,28 -28,28 -16,0 -28,-12 -28,-28 0,-15 12,-28 28,-28zm-94 7c12,0 21,9 21,21 0,12 -9,21 -21,21 -12,0 -21,-9 -21,-21 0,-12 9,-21 21,-21zm325 115c27,0 49,22 49,48 0,27 -22,49 -49,49 -26,0 -48,-22 -48,-49 0,-26 22,-48 48,-48zm-126 15c19,0 34,15 34,33 0,19 -15,34 -34,34 -18,0 -33,-15 -33,-34 0,-18 15,-33 33,-33zm-105 5c15,0 28,13 28,28 0,16 -13,29 -28,29 -16,0 -28,-13 -28,-29 0,-15 12,-28 28,-28zm-94 7c12,0 21,10 21,21 0,12 -9,22 -21,22 -12,0 -21,-10 -21,-22 0,-11 9,-21 21,-21zm325 115c27,0 49,22 49,49 0,27 -22,49 -49,49 -26,0 -48,-22 -48,-49 0,-27 22,-49 48,-49zm-126 16c19,0 34,15 34,33 0,18 -15,33 -34,33 -18,0 -33,-15 -33,-33 0,-18 15,-33 33,-33zm-105 5c15,0 28,12 28,28 0,15 -13,28 -28,28 -16,0 -28,-13 -28,-28 0,-16 12,-28 28,-28zm-94 7c12,0 21,9 21,21 0,12 -9,21 -21,21 -12,0 -21,-9 -21,-21 0,-12 9,-21 21,-21zm-240 -749c-107,106 -173,254 -173,416 0,163 66,310 173,417l-232 232c-166,-166 -269,-395 -269,-649 0,-253 103,-482 269,-648l232 232zm1065 -232c166,166 269,395 269,648 0,254 -103,483 -269,649l-232 -232c107,-107 173,-254 173,-417 0,-162 -66,-310 -173,-416l232 -232z"/>
   <path class="fil2" d="M1308 2390c-220,-220 -356,-523 -356,-859 0,-335 136,-639 356,-859l-232 -232c-279,280 -452,665 -452,1091 0,426 173,812 452,1091l232 -232z"/>
   <path class="fil2" d="M3027 672c220,220 355,524 355,859 0,336 -135,639 -355,859l232 232c279,-279 452,-665 452,-1091 0,-426 -173,-811 -452,-1091l-232 232z"/>
   <path class="fil2" d="M866 2833c-333,-333 -539,-793 -539,-1302 0,-508 206,-968 539,-1301l-232 -232c-393,393 -635,935 -635,1533 0,599 242,1141 635,1534l232 -232z"/>
   <path class="fil2" d="M3469 230c333,333 539,793 539,1301 0,509 -206,969 -539,1302l232 232c393,-393 635,-935 635,-1534 0,-598 -242,-1140 -635,-1533l-232 232z"/>
  </g>
 </g>
</svg>
