<?xml version="1.0" encoding="UTF-8"?>
<!DOCTYPE svg PUBLIC "-//W3C//DTD SVG 1.1//EN" "http://www.w3.org/Graphics/SVG/1.1/DTD/svg11.dtd">
<!-- Creator: CorelDRAW X7 -->
<svg xmlns="http://www.w3.org/2000/svg" xml:space="preserve" width="5.4186mm" height="4.2332mm" version="1.1" style="shape-rendering:geometricPrecision; text-rendering:geometricPrecision; image-rendering:optimizeQuality; fill-rule:evenodd; clip-rule:evenodd"
viewBox="0 0 542 423"
 xmlns:xlink="http://www.w3.org/1999/xlink">
 <defs>
  <style type="text/css">
   <![CDATA[
    .fil0 {fill:none}
    .fil1 {fill:#474443}
    .fil2 {fill:#E62129}
   ]]>
  </style>
 </defs>
 <g id="Layer_x0020_1">
  <metadata id="CorelCorpID_0Corel-Layer"/>
  <g id="_995933648">
   <path class="fil0" d="M432 31l29 -29c49,49 79,116 79,190 0,74 -30,142 -79,190l-29 -28c42,-42 67,-99 67,-162 0,-63 -25,-120 -67,-161z"/>
   <path class="fil1" d="M271 78c28,0 53,10 73,27l-29 29c-12,-9 -27,-15 -44,-15 -17,0 -32,6 -44,15l-29 -29c20,-17 45,-27 73,-27zm17 227l14 116 -62 0 14 -116c-21,-4 -41,-13 -56,-26l29 -29c10,8 23,14 37,15l0 -15 -7 0c-9,0 -16,-7 -16,-15l0 -68c0,-9 7,-16 16,-16l28 0c9,0 16,7 16,16l0 68c0,8 -7,15 -16,15l-7 0 0 15c14,-1 27,-7 37,-15l29 29c-16,13 -35,22 -56,26zm1 -146c4,0 6,3 6,6 0,4 -2,6 -6,6 -3,0 -6,-2 -6,-6 0,-3 3,-6 6,-6zm-15 2c2,0 4,2 4,4 0,3 -2,4 -4,4 -3,0 -4,-1 -4,-4 0,-2 1,-4 4,-4zm-13 1c2,0 3,1 3,3 0,2 -1,4 -3,4 -2,0 -4,-2 -4,-4 0,-2 2,-3 4,-3zm-12 1c2,0 3,1 3,2 0,2 -1,3 -3,3 -1,0 -3,-1 -3,-3 0,-1 2,-2 3,-2zm40 14c4,0 6,3 6,6 0,3 -2,6 -6,6 -3,0 -6,-3 -6,-6 0,-3 3,-6 6,-6zm-15 2c2,0 4,2 4,4 0,2 -2,4 -4,4 -3,0 -4,-2 -4,-4 0,-2 1,-4 4,-4zm-13 0c2,0 3,2 3,4 0,2 -1,3 -3,3 -2,0 -4,-1 -4,-3 0,-2 2,-4 4,-4zm-12 1c2,0 3,1 3,3 0,1 -1,3 -3,3 -1,0 -3,-2 -3,-3 0,-2 2,-3 3,-3zm40 15c4,0 6,2 6,6 0,3 -2,6 -6,6 -3,0 -6,-3 -6,-6 0,-4 3,-6 6,-6zm-15 1c2,0 4,2 4,5 0,2 -2,4 -4,4 -3,0 -4,-2 -4,-4 0,-3 1,-5 4,-5zm-13 1c2,0 3,2 3,4 0,2 -1,3 -3,3 -2,0 -4,-1 -4,-3 0,-2 2,-4 4,-4zm-12 1c2,0 3,1 3,3 0,1 -1,2 -3,2 -1,0 -3,-1 -3,-2 0,-2 2,-3 3,-3zm40 14c4,0 6,3 6,6 0,4 -2,6 -6,6 -3,0 -6,-2 -6,-6 0,-3 3,-6 6,-6zm-15 2c2,0 4,2 4,4 0,3 -2,4 -4,4 -3,0 -4,-1 -4,-4 0,-2 1,-4 4,-4zm-13 1c2,0 3,1 3,3 0,2 -1,4 -3,4 -2,0 -4,-2 -4,-4 0,-2 2,-3 4,-3zm-12 1c2,0 3,1 3,2 0,2 -1,3 -3,3 -1,0 -3,-1 -3,-3 0,-1 2,-2 3,-2zm40 14c4,0 6,3 6,6 0,3 -2,6 -6,6 -3,0 -6,-3 -6,-6 0,-3 3,-6 6,-6zm-15 2c2,0 4,2 4,4 0,2 -2,4 -4,4 -3,0 -4,-2 -4,-4 0,-2 1,-4 4,-4zm-13 0c2,0 3,2 3,4 0,2 -1,3 -3,3 -2,0 -4,-1 -4,-3 0,-2 2,-4 4,-4zm-12 1c2,0 3,1 3,3 0,1 -1,3 -3,3 -1,0 -3,-2 -3,-3 0,-2 2,-3 3,-3zm-30 -93c-13,14 -21,32 -21,52 0,20 8,39 21,52l-29 29c-20,-21 -33,-49 -33,-81 0,-31 13,-60 33,-80l29 28zm132 -28c21,20 34,49 34,80 0,32 -13,60 -34,81l-28 -29c13,-13 21,-32 21,-52 0,-20 -8,-38 -21,-52l28 -28z"/>
   <path class="fil2" d="M164 299c-27,-28 -44,-65 -44,-107 0,-42 17,-79 44,-106l-28 -29c-35,34 -57,82 -57,135 0,53 22,101 57,135l28 -28z"/>
   <path class="fil2" d="M378 86c27,27 44,64 44,106 0,42 -17,79 -44,107l28 28c35,-34 56,-82 56,-135 0,-53 -21,-101 -56,-135l-28 29z"/>
   <path class="fil2" d="M109 354c-41,-42 -66,-99 -66,-162 0,-63 25,-120 66,-161l-28 -29c-49,49 -79,116 -79,190 0,74 30,142 79,190l28 -28z"/>
   <path class="fil2" d="M432 31c42,41 67,98 67,161 0,63 -25,120 -67,162l29 28c49,-48 79,-116 79,-190 0,-74 -30,-141 -79,-190l-29 29z"/>
  </g>
 </g>
</svg>
