<?xml version="1.0" encoding="UTF-8"?>
<!DOCTYPE svg PUBLIC "-//W3C//DTD SVG 1.1//EN" "http://www.w3.org/Graphics/SVG/1.1/DTD/svg11.dtd">
<!-- Creator: CorelDRAW X7 -->
<svg xmlns="http://www.w3.org/2000/svg" xml:space="preserve" width="8.1278mm" height="6.3498mm" version="1.1" style="shape-rendering:geometricPrecision; text-rendering:geometricPrecision; image-rendering:optimizeQuality; fill-rule:evenodd; clip-rule:evenodd"
viewBox="0 0 813 635"
 xmlns:xlink="http://www.w3.org/1999/xlink">
 <defs>
  <style type="text/css">
   <![CDATA[
    .fil0 {fill:none}
    .fil1 {fill:#474443}
    .fil2 {fill:#E62129}
   ]]>
  </style>
 </defs>
 <g id="Layer_x0020_1">
  <metadata id="CorelCorpID_0Corel-Layer"/>
  <g id="_1037201184">
   <path class="fil0" d="M651 44l43 -44c74,74 120,175 120,288 0,112 -46,214 -120,288l-43 -44c62,-62 101,-149 101,-244 0,-96 -39,-182 -101,-244z"/>
   <path class="fil1" d="M406 116c43,0 81,15 111,40l-44 44c-18,-14 -41,-23 -67,-23 -25,0 -48,9 -66,23l-44 -44c30,-25 68,-40 110,-40zm27 342l21 177 -95 0 21 -177c-32,-5 -61,-18 -84,-38l44 -44c15,12 35,20 56,22l0 -22 -11 0c-13,0 -24,-11 -24,-24l0 -103c0,-13 11,-23 24,-23l43 0c13,0 24,10 24,23l0 103c0,13 -11,24 -24,24l-11 0 0 22c21,-2 40,-10 56,-22l44 44c-24,20 -52,33 -84,38zm1 -220c5,0 9,4 9,9 0,5 -4,9 -9,9 -5,0 -9,-4 -9,-9 0,-5 4,-9 9,-9zm-23 3c3,0 6,3 6,6 0,4 -3,7 -6,7 -4,0 -7,-3 -7,-7 0,-3 3,-6 7,-6zm-20 1c3,0 5,2 5,5 0,3 -2,6 -5,6 -3,0 -5,-3 -5,-6 0,-3 2,-5 5,-5zm-18 1c2,0 4,2 4,4 0,2 -2,4 -4,4 -2,0 -4,-2 -4,-4 0,-2 2,-4 4,-4zm61 22c5,0 9,4 9,9 0,5 -4,9 -9,9 -5,0 -9,-4 -9,-9 0,-5 4,-9 9,-9zm-23 3c3,0 6,3 6,6 0,3 -3,6 -6,6 -4,0 -7,-3 -7,-6 0,-3 3,-6 7,-6zm-20 1c3,0 5,2 5,5 0,3 -2,5 -5,5 -3,0 -5,-2 -5,-5 0,-3 2,-5 5,-5zm-18 1c2,0 4,2 4,4 0,2 -2,4 -4,4 -2,0 -4,-2 -4,-4 0,-2 2,-4 4,-4zm61 22c5,0 9,4 9,9 0,5 -4,9 -9,9 -5,0 -9,-4 -9,-9 0,-5 4,-9 9,-9zm-23 3c3,0 6,2 6,6 0,3 -3,6 -6,6 -4,0 -7,-3 -7,-6 0,-4 3,-6 7,-6zm-20 1c3,0 5,2 5,5 0,3 -2,5 -5,5 -3,0 -5,-2 -5,-5 0,-3 2,-5 5,-5zm-18 1c2,0 4,2 4,4 0,2 -2,4 -4,4 -2,0 -4,-2 -4,-4 0,-2 2,-4 4,-4zm61 21c5,0 9,4 9,10 0,5 -4,9 -9,9 -5,0 -9,-4 -9,-9 0,-6 4,-10 9,-10zm-23 3c3,0 6,3 6,7 0,3 -3,6 -6,6 -4,0 -7,-3 -7,-6 0,-4 3,-7 7,-7zm-20 1c3,0 5,3 5,6 0,2 -2,5 -5,5 -3,0 -5,-3 -5,-5 0,-3 2,-6 5,-6zm-18 2c2,0 4,1 4,4 0,2 -2,4 -4,4 -2,0 -4,-2 -4,-4 0,-3 2,-4 4,-4zm61 21c5,0 9,4 9,9 0,5 -4,9 -9,9 -5,0 -9,-4 -9,-9 0,-5 4,-9 9,-9zm-23 3c3,0 6,3 6,6 0,4 -3,6 -6,6 -4,0 -7,-2 -7,-6 0,-3 3,-6 7,-6zm-20 1c3,0 5,2 5,5 0,3 -2,6 -5,6 -3,0 -5,-3 -5,-6 0,-3 2,-5 5,-5zm-18 1c2,0 4,2 4,4 0,2 -2,4 -4,4 -2,0 -4,-2 -4,-4 0,-2 2,-4 4,-4zm-45 -140c-20,20 -32,47 -32,78 0,30 12,58 32,78l-43 44c-32,-32 -51,-75 -51,-122 0,-48 19,-91 51,-122l43 44zm200 -44c31,31 51,74 51,122 0,47 -20,90 -51,122l-43 -44c20,-20 32,-48 32,-78 0,-31 -12,-58 -32,-78l43 -44z"/>
   <path class="fil2" d="M245 449c-41,-41 -67,-98 -67,-161 0,-63 26,-120 67,-161l-44 -44c-52,52 -84,125 -84,205 0,80 32,152 84,205l44 -44z"/>
   <path class="fil2" d="M568 127c41,41 67,98 67,161 0,63 -26,120 -67,161l43 44c53,-53 85,-125 85,-205 0,-80 -32,-153 -85,-205l-43 44z"/>
   <path class="fil2" d="M162 532c-63,-62 -101,-149 -101,-244 0,-96 38,-182 101,-244l-44 -44c-73,74 -119,175 -119,288 0,112 46,214 119,288l44 -44z"/>
   <path class="fil2" d="M651 44c62,62 101,148 101,244 0,95 -39,182 -101,244l43 44c74,-74 120,-176 120,-288 0,-113 -46,-214 -120,-288l-43 44z"/>
  </g>
 </g>
</svg>
