<?xml version="1.0" encoding="UTF-8"?>
<!DOCTYPE svg PUBLIC "-//W3C//DTD SVG 1.1//EN" "http://www.w3.org/Graphics/SVG/1.1/DTD/svg11.dtd">
<!-- Creator: CorelDRAW X7 -->
<svg xmlns="http://www.w3.org/2000/svg" xml:space="preserve" width="86.6986mm" height="24.0452mm" version="1.1" style="shape-rendering:geometricPrecision; text-rendering:geometricPrecision; image-rendering:optimizeQuality; fill-rule:evenodd; clip-rule:evenodd"
viewBox="0 0 8670 2405"
 xmlns:xlink="http://www.w3.org/1999/xlink">
 <defs>
  <style type="text/css">
   <![CDATA[
    .fil0 {fill:#FEFEFE}
    .fil1 {fill:#FEFEFE;fill-rule:nonzero}
   ]]>
  </style>
 </defs>
 <g id="Layer_x0020_1">
  <metadata id="CorelCorpID_0Corel-Layer"/>
  <g id="_991079168">
   <g>
    <path class="fil0" d="M2468 165l165 -164c279,278 451,664 451,1089 0,426 -172,811 -451,1090l-165 -165c237,-237 383,-564 383,-925 0,-361 -146,-688 -383,-925z"/>
    <path class="fil0" d="M1543 438c159,0 305,58 419,153l-166 166c-71,-54 -158,-86 -253,-86 -95,0 -183,32 -253,86l-166 -166c113,-95 259,-153 419,-153zm99 1297l80 669 -358 0 79 -669c-120,-19 -230,-70 -319,-145l166 -166c60,45 133,75 212,83l0 -83 -40 0c-50,0 -91,-41 -91,-91l0 -388c0,-50 41,-91 91,-91l162 0c50,0 90,41 90,91l0 388c0,50 -40,91 -90,91l-40 0 0 83c79,-8 152,-38 212,-83l166 166c-90,75 -199,126 -320,145zm7 -833c19,0 34,15 34,35 0,19 -15,34 -34,34 -20,0 -35,-15 -35,-34 0,-20 15,-35 35,-35zm-90 11c13,0 24,11 24,24 0,13 -11,23 -24,23 -13,0 -24,-10 -24,-23 0,-13 11,-24 24,-24zm-75 4c11,0 20,9 20,20 0,11 -9,20 -20,20 -11,0 -20,-9 -20,-20 0,-11 9,-20 20,-20zm-67 4c9,0 16,7 16,16 0,8 -7,15 -16,15 -8,0 -15,-7 -15,-15 0,-9 7,-16 15,-16zm232 82c19,0 34,16 34,35 0,19 -15,34 -34,34 -20,0 -35,-15 -35,-34 0,-19 15,-35 35,-35zm-90 11c13,0 24,11 24,24 0,13 -11,23 -24,23 -13,0 -24,-10 -24,-23 0,-13 11,-24 24,-24zm-75 4c11,0 20,9 20,20 0,11 -9,20 -20,20 -11,0 -20,-9 -20,-20 0,-11 9,-20 20,-20zm-67 5c9,0 16,6 16,15 0,8 -7,15 -16,15 -8,0 -15,-7 -15,-15 0,-9 7,-15 15,-15zm232 81c19,0 34,16 34,35 0,19 -15,35 -34,35 -20,0 -35,-16 -35,-35 0,-19 15,-35 35,-35zm-90 11c13,0 24,11 24,24 0,13 -11,24 -24,24 -13,0 -24,-11 -24,-24 0,-13 11,-24 24,-24zm-75 4c11,0 20,9 20,20 0,11 -9,20 -20,20 -11,0 -20,-9 -20,-20 0,-11 9,-20 20,-20zm-67 5c9,0 16,7 16,15 0,8 -7,15 -16,15 -8,0 -15,-7 -15,-15 0,-8 7,-15 15,-15zm232 82c19,0 34,15 34,34 0,19 -15,35 -34,35 -20,0 -35,-16 -35,-35 0,-19 15,-34 35,-34zm-90 11c13,0 24,10 24,23 0,13 -11,24 -24,24 -13,0 -24,-11 -24,-24 0,-13 11,-23 24,-23zm-75 3c11,0 20,9 20,20 0,11 -9,20 -20,20 -11,0 -20,-9 -20,-20 0,-11 9,-20 20,-20zm-67 5c9,0 16,7 16,15 0,9 -7,15 -16,15 -8,0 -15,-6 -15,-15 0,-8 7,-15 15,-15zm232 82c19,0 34,15 34,34 0,19 -15,35 -34,35 -20,0 -35,-16 -35,-35 0,-19 15,-34 35,-34zm-90 11c13,0 24,10 24,23 0,13 -11,24 -24,24 -13,0 -24,-11 -24,-24 0,-13 11,-23 24,-23zm-75 3c11,0 20,9 20,20 0,11 -9,20 -20,20 -11,0 -20,-9 -20,-20 0,-11 9,-20 20,-20zm-67 5c9,0 16,7 16,15 0,9 -7,16 -16,16 -8,0 -15,-7 -15,-16 0,-8 7,-15 15,-15zm-171 -532c-75,76 -122,181 -122,296 0,116 47,220 122,296l-164 165c-118,-118 -191,-281 -191,-461 0,-180 73,-343 191,-461l164 165zm758 -165c118,118 191,281 191,461 0,180 -73,343 -191,461l-165 -165c76,-76 122,-180 122,-296 0,-115 -46,-220 -122,-296l165 -165z"/>
    <path class="fil0" d="M932 1701c-156,-157 -253,-372 -253,-611 0,-238 97,-454 253,-610l-165 -165c-198,198 -321,472 -321,775 0,303 123,577 321,775l165 -164z"/>
    <path class="fil0" d="M2153 480c157,156 253,372 253,610 0,239 -96,454 -253,611l165 164c199,-198 321,-472 321,-775 0,-303 -122,-577 -321,-775l-165 165z"/>
    <path class="fil0" d="M617 2015c-236,-237 -383,-564 -383,-925 0,-361 147,-688 383,-925l-164 -164c-279,278 -452,664 -452,1089 0,426 173,811 452,1090l164 -165z"/>
    <path class="fil0" d="M2468 165c237,237 383,564 383,925 0,361 -146,688 -383,925l165 165c279,-279 451,-664 451,-1090 0,-425 -172,-811 -451,-1089l-165 164z"/>
   </g>
   <polygon class="fil1" points="4242,1459 3796,1459 3796,710 3965,710 3965,1322 4242,1322 "/>
   <path class="fil1" d="M4426 839c-28,0 -51,-8 -68,-24 -18,-17 -27,-37 -27,-61 0,-25 9,-45 27,-61 17,-16 40,-24 68,-24 28,0 51,8 69,24 18,16 26,36 26,61 0,25 -8,45 -26,61 -18,16 -41,24 -69,24zm81 620l-164 0 0 -535 164 0 0 535z"/>
   <path class="fil1" d="M4797 1396l-2 0 0 63 -165 0 0 -792 165 0 0 338 2 0c41,-63 99,-94 174,-94 69,0 122,24 159,71 37,47 56,112 56,194 0,89 -22,161 -65,214 -44,54 -102,81 -175,81 -65,0 -115,-25 -149,-75zm-4 -225l0 55c0,34 10,63 29,85 20,23 46,34 77,34 37,0 66,-14 87,-43 21,-29 31,-70 31,-124 0,-44 -9,-79 -28,-103 -19,-25 -46,-38 -81,-38 -34,0 -61,13 -83,37 -21,25 -32,57 -32,97z"/>
   <path class="fil1" d="M5642 1073c-20,-11 -43,-16 -70,-16 -36,0 -64,13 -84,39 -20,26 -30,62 -30,107l0 256 -165 0 0 -535 165 0 0 99 2 0c26,-72 73,-109 141,-109 17,0 31,2 41,7l0 152z"/>
   <path class="fil1" d="M6199 1238l-349 0c6,78 55,117 147,117 59,0 110,-14 155,-42l0 119c-50,26 -114,39 -193,39 -86,0 -153,-23 -201,-71 -47,-48 -71,-115 -71,-200 0,-89 26,-159 77,-211 52,-52 115,-78 190,-78 78,0 138,23 181,69 42,47 64,110 64,189l0 69zm-153 -101c0,-77 -31,-115 -93,-115 -26,0 -49,11 -69,33 -19,22 -31,49 -35,82l197 0z"/>
   <polygon class="fil1" points="6839,847 6625,847 6625,1459 6457,1459 6457,847 6244,847 6244,710 6839,710 "/>
   <path class="fil1" d="M7007 839c-28,0 -51,-8 -68,-24 -18,-17 -27,-37 -27,-61 0,-25 9,-45 27,-61 17,-16 40,-24 68,-24 28,0 51,8 69,24 18,16 26,36 26,61 0,25 -8,45 -26,61 -18,16 -41,24 -69,24zm81 620l-164 0 0 -535 164 0 0 535z"/>
   <path class="fil1" d="M8064 1459l-164 0 0 -305c0,-78 -29,-117 -86,-117 -27,0 -49,12 -66,35 -17,24 -26,53 -26,87l0 300 -165 0 0 -308c0,-76 -28,-114 -84,-114 -28,0 -51,11 -68,34 -17,22 -25,52 -25,90l0 298 -165 0 0 -535 165 0 0 84 2 0c17,-29 41,-52 72,-70 31,-18 64,-27 101,-27 75,0 127,33 155,100 41,-67 101,-100 180,-100 116,0 174,72 174,215l0 333z"/>
   <path class="fil1" d="M8669 1238l-349 0c6,78 54,117 147,117 58,0 110,-14 154,-42l0 119c-49,26 -113,39 -192,39 -86,0 -153,-23 -201,-71 -48,-48 -72,-115 -72,-200 0,-89 26,-159 78,-211 51,-52 114,-78 190,-78 78,0 138,23 181,69 42,47 64,110 64,189l0 69zm-153 -101c0,-77 -31,-115 -93,-115 -27,0 -50,11 -69,33 -19,22 -31,49 -35,82l197 0z"/>
  </g>
 </g>
</svg>
