<?xml version="1.0" encoding="UTF-8"?>

<!DOCTYPE svg PUBLIC '-//W3C//DTD SVG 1.0//EN' 'http://www.w3.org/TR/2001/REC-SVG-20010904/DTD/svg10.dtd'>
<svg stroke-width="1" stroke-dashoffset="0" font-size="12" stroke-dasharray="none" color-rendering="auto" font-weight="normal" color-interpolation="auto" stroke-linejoin="miter" fill="black" image-rendering="auto" font-family="&apos;sansserif&apos;" stroke-opacity="1" stroke-miterlimit="10" stroke="black" text-rendering="auto" font-style="normal" stroke-linecap="square" fill-opacity="1" shape-rendering="auto" xmlns="http://www.w3.org/2000/svg" xmlns:xlink="http://www.w3.org/1999/xlink">
  <!--Generated by the Batik Graphics2D SVG Generator-->
  <defs id="genericDefs" />
  <g>
    <defs id="defs1">
      <clipPath clipPathUnits="userSpaceOnUse" id="clipPath1">
        <path d="M80 60 L80 610 L699 610 L699 60 Z" />
      </clipPath>
      <clipPath clipPathUnits="userSpaceOnUse" id="clipPath2">
        <path d="M0 0 L0 550 L619 550 L619 0 Z" />
      </clipPath>
      <clipPath clipPathUnits="userSpaceOnUse" id="clipPath3">
        <path d="M-10 -10 L-10 540 L609 540 L609 -10 Z" />
      </clipPath>
      <clipPath clipPathUnits="userSpaceOnUse" id="clipPath4">
        <path d="M-244.39329528808594 -12 L-244.39329528808594 538 L374.606689453125 538 L374.606689453125 -12 Z" />
      </clipPath>
      <clipPath clipPathUnits="userSpaceOnUse" id="clipPath5">
        <path d="M-264.881591796875 -12 L-264.881591796875 538 L354.118408203125 538 L354.118408203125 -12 Z" />
      </clipPath>
      <clipPath clipPathUnits="userSpaceOnUse" id="clipPath6">
        <path d="M-328.118408203125 -12 L-328.118408203125 538 L290.881591796875 538 L290.881591796875 -12 Z" />
      </clipPath>
      <clipPath clipPathUnits="userSpaceOnUse" id="clipPath7">
        <path d="M-258.3503112792969 -28 L-258.3503112792969 522 L360.6496887207031 522 L360.6496887207031 -28 Z" />
      </clipPath>
      <clipPath clipPathUnits="userSpaceOnUse" id="clipPath8">
        <path d="M-190 -310 L-190 240 L429 240 L429 -310 Z" />
      </clipPath>
      <clipPath clipPathUnits="userSpaceOnUse" id="clipPath9">
        <path d="M-198.341796875 -313 L-198.341796875 237 L420.658203125 237 L420.658203125 -313 Z" />
      </clipPath>
      <clipPath clipPathUnits="userSpaceOnUse" id="clipPath10">
        <path d="M-191 -329 L-191 221 L428 221 L428 -329 Z" />
      </clipPath>
      <clipPath clipPathUnits="userSpaceOnUse" id="clipPath11">
        <path d="M-191 -354 L-191 196 L428 196 L428 -354 Z" />
      </clipPath>
      <clipPath clipPathUnits="userSpaceOnUse" id="clipPath12">
        <path d="M-60 -170 L-60 380 L559 380 L559 -170 Z" />
      </clipPath>
      <clipPath clipPathUnits="userSpaceOnUse" id="clipPath13">
        <path d="M-82.25289916992188 -173 L-82.25289916992188 377 L536.7470703125 377 L536.7470703125 -173 Z" />
      </clipPath>
      <clipPath clipPathUnits="userSpaceOnUse" id="clipPath14">
        <path d="M-61 -189 L-61 361 L558 361 L558 -189 Z" />
      </clipPath>
      <clipPath clipPathUnits="userSpaceOnUse" id="clipPath15">
        <path d="M-65 -194 L-65 356 L554 356 L554 -194 Z" />
      </clipPath>
      <clipPath clipPathUnits="userSpaceOnUse" id="clipPath16">
        <path d="M-71.36470031738281 -194 L-71.36470031738281 356 L547.6353149414062 356 L547.6353149414062 -194 Z" />
      </clipPath>
      <clipPath clipPathUnits="userSpaceOnUse" id="clipPath17">
        <path d="M-81.4677963256836 -194 L-81.4677963256836 356 L537.5322265625 356 L537.5322265625 -194 Z" />
      </clipPath>
      <clipPath clipPathUnits="userSpaceOnUse" id="clipPath18">
        <path d="M-84.94819641113281 -194 L-84.94819641113281 356 L534.0518188476562 356 L534.0518188476562 -194 Z" />
      </clipPath>
      <clipPath clipPathUnits="userSpaceOnUse" id="clipPath19">
        <path d="M-65 -209 L-65 341 L554 341 L554 -209 Z" />
      </clipPath>
      <clipPath clipPathUnits="userSpaceOnUse" id="clipPath20">
        <path d="M-71.36470031738281 -209 L-71.36470031738281 341 L547.6353149414062 341 L547.6353149414062 -209 Z" />
      </clipPath>
      <clipPath clipPathUnits="userSpaceOnUse" id="clipPath21">
        <path d="M-116.56790161132812 -209 L-116.56790161132812 341 L502.4320983886719 341 L502.4320983886719 -209 Z" />
      </clipPath>
      <clipPath clipPathUnits="userSpaceOnUse" id="clipPath22">
        <path d="M-120.04830169677734 -209 L-120.04830169677734 341 L498.9516906738281 341 L498.9516906738281 -209 Z" />
      </clipPath>
      <clipPath clipPathUnits="userSpaceOnUse" id="clipPath23">
        <path d="M-61 -227 L-61 323 L558 323 L558 -227 Z" />
      </clipPath>
      <clipPath clipPathUnits="userSpaceOnUse" id="clipPath24">
        <path d="M-280 -200 L-280 350 L339 350 L339 -200 Z" />
      </clipPath>
      <clipPath clipPathUnits="userSpaceOnUse" id="clipPath25">
        <path d="M-303.2654113769531 -203 L-303.2654113769531 347 L315.7345886230469 347 L315.7345886230469 -203 Z" />
      </clipPath>
      <clipPath clipPathUnits="userSpaceOnUse" id="clipPath26">
        <path d="M-281 -219 L-281 331 L338 331 L338 -219 Z" />
      </clipPath>
      <clipPath clipPathUnits="userSpaceOnUse" id="clipPath27">
        <path d="M-281 -244 L-281 306 L338 306 L338 -244 Z" />
      </clipPath>
      <clipPath clipPathUnits="userSpaceOnUse" id="clipPath28">
        <path d="M-420 -280 L-420 270 L199 270 L199 -280 Z" />
      </clipPath>
      <clipPath clipPathUnits="userSpaceOnUse" id="clipPath29">
        <path d="M-430.181396484375 -283 L-430.181396484375 267 L188.818603515625 267 L188.818603515625 -283 Z" />
      </clipPath>
      <clipPath clipPathUnits="userSpaceOnUse" id="clipPath30">
        <path d="M-421 -299 L-421 251 L198 251 L198 -299 Z" />
      </clipPath>
      <clipPath clipPathUnits="userSpaceOnUse" id="clipPath31">
        <path d="M-421 -324 L-421 226 L198 226 L198 -324 Z" />
      </clipPath>
      <clipPath clipPathUnits="userSpaceOnUse" id="clipPath32">
        <path d="M-460 -100 L-460 450 L159 450 L159 -100 Z" />
      </clipPath>
      <clipPath clipPathUnits="userSpaceOnUse" id="clipPath33">
        <path d="M-468.56201171875 -103 L-468.56201171875 447 L150.43800354003906 447 L150.43800354003906 -103 Z" />
      </clipPath>
      <clipPath clipPathUnits="userSpaceOnUse" id="clipPath34">
        <path d="M-461 -119 L-461 431 L158 431 L158 -119 Z" />
      </clipPath>
      <clipPath clipPathUnits="userSpaceOnUse" id="clipPath35">
        <path d="M-461 -144 L-461 406 L158 406 L158 -144 Z" />
      </clipPath>
      <clipPath clipPathUnits="userSpaceOnUse" id="clipPath36">
        <path d="M280 230 L280 -320 L-339 -320 L-339 230 Z" />
      </clipPath>
      <clipPath clipPathUnits="userSpaceOnUse" id="clipPath37">
        <path d="M-179.82159423828125 -240 L-179.82159423828125 310 L439.17840576171875 310 L439.17840576171875 -240 Z" />
      </clipPath>
      <clipPath clipPathUnits="userSpaceOnUse" id="clipPath38">
        <path d="M-10 -46 L-10 504 L609 504 L609 -46 Z" />
      </clipPath>
      <clipPath clipPathUnits="userSpaceOnUse" id="clipPath39">
        <path d="M460 170 L460 -380 L-159 -380 L-159 170 Z" />
      </clipPath>
      <clipPath clipPathUnits="userSpaceOnUse" id="clipPath40">
        <path d="M-270.5014953613281 -147 L-270.5014953613281 403 L348.4985046386719 403 L348.4985046386719 -147 Z" />
      </clipPath>
      <clipPath clipPathUnits="userSpaceOnUse" id="clipPath41">
        <path d="M-60 -60 L-60 490 L559 490 L559 -60 Z" />
      </clipPath>
      <clipPath clipPathUnits="userSpaceOnUse" id="clipPath42">
        <path d="M-84.60279846191406 -63 L-84.60279846191406 487 L534.397216796875 487 L534.397216796875 -63 Z" />
      </clipPath>
      <clipPath clipPathUnits="userSpaceOnUse" id="clipPath43">
        <path d="M-61 -79 L-61 471 L558 471 L558 -79 Z" />
      </clipPath>
      <clipPath clipPathUnits="userSpaceOnUse" id="clipPath44">
        <path d="M-61 -104 L-61 446 L558 446 L558 -104 Z" />
      </clipPath>
      <clipPath clipPathUnits="userSpaceOnUse" id="clipPath45">
        <path d="M-130 70 L420 70 L420 -549 L-130 -549 Z" />
      </clipPath>
      <clipPath clipPathUnits="userSpaceOnUse" id="clipPath46">
        <path d="M-80 -143 L-80 407 L539 407 L539 -143 Z" />
      </clipPath>
      <clipPath clipPathUnits="userSpaceOnUse" id="clipPath47">
        <path d="M-40 -460 L-40 90 L579 90 L579 -460 Z" />
      </clipPath>
      <clipPath clipPathUnits="userSpaceOnUse" id="clipPath48">
        <path d="M-43 -463 L-43 87 L576 87 L576 -463 Z" />
      </clipPath>
      <clipPath clipPathUnits="userSpaceOnUse" id="clipPath49">
        <path d="M-41 -479 L-41 71 L578 71 L578 -479 Z" />
      </clipPath>
      <clipPath clipPathUnits="userSpaceOnUse" id="clipPath50">
        <path d="M-41 -504 L-41 46 L578 46 L578 -504 Z" />
      </clipPath>
      <clipPath clipPathUnits="userSpaceOnUse" id="clipPath51">
        <path d="M-430 -470 L-430 80 L189 80 L189 -470 Z" />
      </clipPath>
      <clipPath clipPathUnits="userSpaceOnUse" id="clipPath52">
        <path d="M-441.255615234375 -473 L-441.255615234375 77 L177.74440002441406 77 L177.74440002441406 -473 Z" />
      </clipPath>
      <clipPath clipPathUnits="userSpaceOnUse" id="clipPath53">
        <path d="M-431 -489 L-431 61 L188 61 L188 -489 Z" />
      </clipPath>
      <clipPath clipPathUnits="userSpaceOnUse" id="clipPath54">
        <path d="M-431 -514 L-431 36 L188 36 L188 -514 Z" />
      </clipPath>
      <clipPath clipPathUnits="userSpaceOnUse" id="clipPath55">
        <path d="M-266.71173095703125 330.7035827636719 L233.5723419189453 102.1957015991211 L-23.60288429260254 -460.8512878417969 L-523.886962890625 -232.34339904785156 Z" />
      </clipPath>
      <clipPath clipPathUnits="userSpaceOnUse" id="clipPath56">
        <path d="M-180.8258056640625 -418.4010925292969 L-180.8258056640625 131.59890747070312 L438.1741943359375 131.59890747070312 L438.1741943359375 -418.4010925292969 Z" />
      </clipPath>
      <clipPath clipPathUnits="userSpaceOnUse" id="clipPath57">
        <path d="M-449.4296569824219 -162.828125 L-152.01296997070312 299.8200378417969 L368.676513671875 -34.908905029296875 L71.25983428955078 -497.55706787109375 Z" />
      </clipPath>
      <clipPath clipPathUnits="userSpaceOnUse" id="clipPath58">
        <path d="M-308.3183898925781 -461.2716064453125 L-308.3183898925781 88.72840118408203 L310.6816101074219 88.72840118408203 L310.6816101074219 -461.2716064453125 Z" />
      </clipPath>
      <clipPath clipPathUnits="userSpaceOnUse" id="clipPath59">
        <path d="M-354.1020202636719 303.1695251464844 L179.4763641357422 436.5641174316406 L329.6059265136719 -163.95408630371094 L-203.9724578857422 -297.3486633300781 Z" />
      </clipPath>
      <clipPath clipPathUnits="userSpaceOnUse" id="clipPath60">
        <path d="M-326.389404296875 -343.7217102050781 L-326.389404296875 206.27830505371094 L292.610595703125 206.27830505371094 L292.610595703125 -343.7217102050781 Z" />
      </clipPath>
      <clipPath clipPathUnits="userSpaceOnUse" id="clipPath61">
        <path d="M-350 460 L200 460 L200 -159 L-350 -159 Z" />
      </clipPath>
      <clipPath clipPathUnits="userSpaceOnUse" id="clipPath62">
        <path d="M-469 -372.1017150878906 L-469 177.89830017089844 L150 177.89830017089844 L150 -372.1017150878906 Z" />
      </clipPath>
      <clipPath clipPathUnits="userSpaceOnUse" id="clipPath63">
        <path d="M-170 550 L380 550 L380 -69 L-170 -69 Z" />
      </clipPath>
      <clipPath clipPathUnits="userSpaceOnUse" id="clipPath64">
        <path d="M-549.8057861328125 -415.9023132324219 L-549.8057861328125 134.0977020263672 L69.19419860839844 134.0977020263672 L69.19419860839844 -415.9023132324219 Z" />
      </clipPath>
      <clipPath clipPathUnits="userSpaceOnUse" id="clipPath65">
        <path d="M-253 80 L297 80 L297 -539 L-253 -539 Z" />
      </clipPath>
      <clipPath clipPathUnits="userSpaceOnUse" id="clipPath66">
        <path d="M-90 -349.5 L-90 200.5 L529 200.5 L529 -349.5 Z" />
      </clipPath>
    </defs>
    <g color-rendering="optimizeQuality" stroke-miterlimit="1" color-interpolation="linearRGB" text-rendering="optimizeLegibility" stroke-linecap="butt" shape-rendering="geometricPrecision" image-rendering="optimizeQuality" transform="matrix(1,0,0,1,10,10)">
      <path d="M0.5 0.5 L569.5 0.5 L569.5 391.5 L0.5 391.5 Z" clip-path="url(#clipPath3)" fill="none" />
    </g>
    <g font-family="sans-serif" font-size="11" color-rendering="optimizeQuality" color-interpolation="linearRGB" text-rendering="optimizeLegibility" shape-rendering="geometricPrecision" image-rendering="optimizeQuality" transform="matrix(1,0,0,1,244.3933,12)">
      <text x="0" y="11" xml:space="preserve" stroke="none" clip-path="url(#clipPath4)">&lt;&lt;</text>
    </g>
    <g font-family="sans-serif" font-size="11" color-rendering="optimizeQuality" color-interpolation="linearRGB" text-rendering="optimizeLegibility" shape-rendering="geometricPrecision" image-rendering="optimizeQuality" transform="matrix(1,0,0,1,264.8816,12)">
      <text x="0" y="11" xml:space="preserve" stroke="none" clip-path="url(#clipPath5)">component</text>
    </g>
    <g font-family="sans-serif" font-size="11" color-rendering="optimizeQuality" color-interpolation="linearRGB" text-rendering="optimizeLegibility" shape-rendering="geometricPrecision" image-rendering="optimizeQuality" transform="matrix(1,0,0,1,328.1184,12)">
      <text x="0" y="11" xml:space="preserve" stroke="none" clip-path="url(#clipPath6)">&gt;&gt;</text>
    </g>
    <g font-family="sans-serif" font-size="11" color-rendering="optimizeQuality" color-interpolation="linearRGB" text-rendering="optimizeLegibility" shape-rendering="geometricPrecision" image-rendering="optimizeQuality" transform="matrix(1,0,0,1,258.3503,28)">
      <text x="0" y="11" xml:space="preserve" stroke="none" clip-path="url(#clipPath7)">Media archive</text>
    </g>
    <g font-family="sans-serif" font-size="11" color-rendering="optimizeQuality" stroke-miterlimit="1" color-interpolation="linearRGB" text-rendering="optimizeLegibility" stroke="white" fill="white" stroke-linecap="butt" shape-rendering="geometricPrecision" image-rendering="optimizeQuality" transform="matrix(1,0,0,1,190,310)">
      <path d="M0.5 0.5 L99.5 0.5 L99.5 69.5 L0.5 69.5 Z" stroke="none" clip-path="url(#clipPath8)" />
      <path d="M0.5 0.5 L99.5 0.5 L99.5 69.5 L0.5 69.5 Z" stroke="black" clip-path="url(#clipPath8)" fill="none" />
    </g>
    <g font-family="sans-serif" font-size="11" font-weight="bold" color-rendering="optimizeQuality" color-interpolation="linearRGB" text-rendering="optimizeLegibility" shape-rendering="geometricPrecision" image-rendering="optimizeQuality" transform="matrix(1,0,0,1,198.3418,313)">
      <text x="0" y="11" xml:space="preserve" stroke="none" clip-path="url(#clipPath9)">Authentication</text>
    </g>
    <g font-family="sans-serif" font-size="11" font-weight="bold" color-rendering="optimizeQuality" stroke-miterlimit="1" color-interpolation="linearRGB" text-rendering="optimizeLegibility" stroke="white" fill="white" stroke-linecap="butt" shape-rendering="geometricPrecision" image-rendering="optimizeQuality" transform="matrix(1,0,0,1,191,329)">
      <path d="M0.5 0.5 L97.5 0.5 L97.5 0.5 L0.5 0.5 Z" stroke="none" clip-path="url(#clipPath10)" />
      <path d="M0.5 0.5 L97.5 0.5 L97.5 0.5 L0.5 0.5 Z" stroke="black" clip-path="url(#clipPath10)" fill="none" />
    </g>
    <g font-family="sans-serif" font-size="11" font-weight="bold" color-rendering="optimizeQuality" stroke-miterlimit="1" color-interpolation="linearRGB" text-rendering="optimizeLegibility" stroke="white" fill="white" stroke-linecap="butt" shape-rendering="geometricPrecision" image-rendering="optimizeQuality" transform="matrix(1,0,0,1,191,354)">
      <path d="M0.5 0.5 L97.5 0.5 L97.5 0.5 L0.5 0.5 Z" stroke="none" clip-path="url(#clipPath11)" />
      <path d="M0.5 0.5 L97.5 0.5 L97.5 0.5 L0.5 0.5 Z" stroke="black" clip-path="url(#clipPath11)" fill="none" />
    </g>
    <g font-family="sans-serif" font-size="11" font-weight="bold" color-rendering="optimizeQuality" stroke-miterlimit="1" color-interpolation="linearRGB" text-rendering="optimizeLegibility" stroke="white" fill="white" stroke-linecap="butt" shape-rendering="geometricPrecision" image-rendering="optimizeQuality" transform="matrix(1,0,0,1,60,170)">
      <path d="M0.5 0.5 L99.5 0.5 L99.5 82.5 L0.5 82.5 Z" stroke="none" clip-path="url(#clipPath12)" />
      <path d="M0.5 0.5 L99.5 0.5 L99.5 82.5 L0.5 82.5 Z" stroke="black" clip-path="url(#clipPath12)" fill="none" />
    </g>
    <g font-family="sans-serif" font-size="11" font-weight="bold" color-rendering="optimizeQuality" color-interpolation="linearRGB" text-rendering="optimizeLegibility" shape-rendering="geometricPrecision" image-rendering="optimizeQuality" transform="matrix(1,0,0,1,82.2529,173)">
      <text x="0" y="11" xml:space="preserve" stroke="none" clip-path="url(#clipPath13)">AudioClip</text>
    </g>
    <g font-family="sans-serif" font-size="11" font-weight="bold" color-rendering="optimizeQuality" stroke-miterlimit="1" color-interpolation="linearRGB" text-rendering="optimizeLegibility" stroke="white" fill="white" stroke-linecap="butt" shape-rendering="geometricPrecision" image-rendering="optimizeQuality" transform="matrix(1,0,0,1,61,189)">
      <path d="M0.5 0.5 L97.5 0.5 L97.5 0.5 L0.5 0.5 Z" stroke="none" clip-path="url(#clipPath14)" />
      <path d="M0.5 0.5 L97.5 0.5 L97.5 0.5 L0.5 0.5 Z" stroke="black" clip-path="url(#clipPath14)" fill="none" />
    </g>
    <g font-family="sans-serif" font-size="11" color-rendering="optimizeQuality" color-interpolation="linearRGB" text-rendering="optimizeLegibility" shape-rendering="geometricPrecision" image-rendering="optimizeQuality" transform="matrix(1,0,0,1,65,194)">
      <text x="0" y="11" xml:space="preserve" stroke="none" clip-path="url(#clipPath15)">-</text>
    </g>
    <g font-family="sans-serif" font-size="11" color-rendering="optimizeQuality" color-interpolation="linearRGB" text-rendering="optimizeLegibility" shape-rendering="geometricPrecision" image-rendering="optimizeQuality" transform="matrix(1,0,0,1,71.3647,194)">
      <text x="0" y="11" xml:space="preserve" stroke="none" clip-path="url(#clipPath16)">id</text>
    </g>
    <g font-family="sans-serif" font-size="11" color-rendering="optimizeQuality" color-interpolation="linearRGB" text-rendering="optimizeLegibility" shape-rendering="geometricPrecision" image-rendering="optimizeQuality" transform="matrix(1,0,0,1,81.4678,194)">
      <text x="0" y="11" xml:space="preserve" stroke="none" clip-path="url(#clipPath17)">:</text>
    </g>
    <g font-family="sans-serif" font-size="11" color-rendering="optimizeQuality" color-interpolation="linearRGB" text-rendering="optimizeLegibility" shape-rendering="geometricPrecision" image-rendering="optimizeQuality" transform="matrix(1,0,0,1,84.9482,194)">
      <text x="0" y="11" xml:space="preserve" stroke="none" clip-path="url(#clipPath18)">UniqueId</text>
    </g>
    <g font-family="sans-serif" font-size="11" color-rendering="optimizeQuality" color-interpolation="linearRGB" text-rendering="optimizeLegibility" shape-rendering="geometricPrecision" image-rendering="optimizeQuality" transform="matrix(1,0,0,1,65,209)">
      <text x="0" y="11" xml:space="preserve" stroke="none" clip-path="url(#clipPath19)">-</text>
    </g>
    <g font-family="sans-serif" font-size="11" color-rendering="optimizeQuality" color-interpolation="linearRGB" text-rendering="optimizeLegibility" shape-rendering="geometricPrecision" image-rendering="optimizeQuality" transform="matrix(1,0,0,1,71.3647,209)">
      <text x="0" y="11" xml:space="preserve" stroke="none" clip-path="url(#clipPath20)">duration</text>
    </g>
    <g font-family="sans-serif" font-size="11" color-rendering="optimizeQuality" color-interpolation="linearRGB" text-rendering="optimizeLegibility" shape-rendering="geometricPrecision" image-rendering="optimizeQuality" transform="matrix(1,0,0,1,116.56790000000001,209)">
      <text x="0" y="11" xml:space="preserve" stroke="none" clip-path="url(#clipPath21)">:</text>
    </g>
    <g font-family="sans-serif" font-size="11" color-rendering="optimizeQuality" color-interpolation="linearRGB" text-rendering="optimizeLegibility" shape-rendering="geometricPrecision" image-rendering="optimizeQuality" transform="matrix(1,0,0,1,120.0483,209)">
      <text x="0" y="11" xml:space="preserve" stroke="none" clip-path="url(#clipPath22)">Time</text>
    </g>
    <g font-family="sans-serif" font-size="11" color-rendering="optimizeQuality" stroke-miterlimit="1" color-interpolation="linearRGB" text-rendering="optimizeLegibility" stroke="white" fill="white" stroke-linecap="butt" shape-rendering="geometricPrecision" image-rendering="optimizeQuality" transform="matrix(1,0,0,1,61,227)">
      <path d="M0.5 0.5 L97.5 0.5 L97.5 0.5 L0.5 0.5 Z" stroke="none" clip-path="url(#clipPath23)" />
      <path d="M0.5 0.5 L97.5 0.5 L97.5 0.5 L0.5 0.5 Z" stroke="black" clip-path="url(#clipPath23)" fill="none" />
    </g>
    <g font-family="sans-serif" font-size="11" color-rendering="optimizeQuality" stroke-miterlimit="1" color-interpolation="linearRGB" text-rendering="optimizeLegibility" stroke="white" fill="white" stroke-linecap="butt" shape-rendering="geometricPrecision" image-rendering="optimizeQuality" transform="matrix(1,0,0,1,280,200)">
      <path d="M0.5 0.5 L99.5 0.5 L99.5 69.5 L0.5 69.5 Z" stroke="none" clip-path="url(#clipPath24)" />
      <path d="M0.5 0.5 L99.5 0.5 L99.5 69.5 L0.5 69.5 Z" stroke="black" clip-path="url(#clipPath24)" fill="none" />
    </g>
    <g font-family="sans-serif" font-size="11" font-weight="bold" color-rendering="optimizeQuality" color-interpolation="linearRGB" text-rendering="optimizeLegibility" shape-rendering="geometricPrecision" image-rendering="optimizeQuality" transform="matrix(1,0,0,1,303.2654,203)">
      <text x="0" y="11" xml:space="preserve" stroke="none" clip-path="url(#clipPath25)">MetaData</text>
    </g>
    <g font-family="sans-serif" font-size="11" font-weight="bold" color-rendering="optimizeQuality" stroke-miterlimit="1" color-interpolation="linearRGB" text-rendering="optimizeLegibility" stroke="white" fill="white" stroke-linecap="butt" shape-rendering="geometricPrecision" image-rendering="optimizeQuality" transform="matrix(1,0,0,1,281,219)">
      <path d="M0.5 0.5 L97.5 0.5 L97.5 0.5 L0.5 0.5 Z" stroke="none" clip-path="url(#clipPath26)" />
      <path d="M0.5 0.5 L97.5 0.5 L97.5 0.5 L0.5 0.5 Z" stroke="black" clip-path="url(#clipPath26)" fill="none" />
    </g>
    <g font-family="sans-serif" font-size="11" font-weight="bold" color-rendering="optimizeQuality" stroke-miterlimit="1" color-interpolation="linearRGB" text-rendering="optimizeLegibility" stroke="white" fill="white" stroke-linecap="butt" shape-rendering="geometricPrecision" image-rendering="optimizeQuality" transform="matrix(1,0,0,1,281,244)">
      <path d="M0.5 0.5 L97.5 0.5 L97.5 0.5 L0.5 0.5 Z" stroke="none" clip-path="url(#clipPath27)" />
      <path d="M0.5 0.5 L97.5 0.5 L97.5 0.5 L0.5 0.5 Z" stroke="black" clip-path="url(#clipPath27)" fill="none" />
    </g>
    <g font-family="sans-serif" font-size="11" font-weight="bold" color-rendering="optimizeQuality" stroke-miterlimit="1" color-interpolation="linearRGB" text-rendering="optimizeLegibility" stroke="white" fill="white" stroke-linecap="butt" shape-rendering="geometricPrecision" image-rendering="optimizeQuality" transform="matrix(1,0,0,1,420,280)">
      <path d="M0.5 0.5 L99.5 0.5 L99.5 69.5 L0.5 69.5 Z" stroke="none" clip-path="url(#clipPath28)" />
      <path d="M0.5 0.5 L99.5 0.5 L99.5 69.5 L0.5 69.5 Z" stroke="black" clip-path="url(#clipPath28)" fill="none" />
    </g>
    <g font-family="sans-serif" font-size="11" font-weight="bold" color-rendering="optimizeQuality" color-interpolation="linearRGB" text-rendering="optimizeLegibility" shape-rendering="geometricPrecision" image-rendering="optimizeQuality" transform="matrix(1,0,0,1,430.1814,283)">
      <text x="0" y="11" xml:space="preserve" stroke="none" clip-path="url(#clipPath29)">SearchCriteria</text>
    </g>
    <g font-family="sans-serif" font-size="11" font-weight="bold" color-rendering="optimizeQuality" stroke-miterlimit="1" color-interpolation="linearRGB" text-rendering="optimizeLegibility" stroke="white" fill="white" stroke-linecap="butt" shape-rendering="geometricPrecision" image-rendering="optimizeQuality" transform="matrix(1,0,0,1,421,299)">
      <path d="M0.5 0.5 L97.5 0.5 L97.5 0.5 L0.5 0.5 Z" stroke="none" clip-path="url(#clipPath30)" />
      <path d="M0.5 0.5 L97.5 0.5 L97.5 0.5 L0.5 0.5 Z" stroke="black" clip-path="url(#clipPath30)" fill="none" />
    </g>
    <g font-family="sans-serif" font-size="11" font-weight="bold" color-rendering="optimizeQuality" stroke-miterlimit="1" color-interpolation="linearRGB" text-rendering="optimizeLegibility" stroke="white" fill="white" stroke-linecap="butt" shape-rendering="geometricPrecision" image-rendering="optimizeQuality" transform="matrix(1,0,0,1,421,324)">
      <path d="M0.5 0.5 L97.5 0.5 L97.5 0.5 L0.5 0.5 Z" stroke="none" clip-path="url(#clipPath31)" />
      <path d="M0.5 0.5 L97.5 0.5 L97.5 0.5 L0.5 0.5 Z" stroke="black" clip-path="url(#clipPath31)" fill="none" />
    </g>
    <g font-family="sans-serif" font-size="11" font-weight="bold" color-rendering="optimizeQuality" stroke-miterlimit="1" color-interpolation="linearRGB" text-rendering="optimizeLegibility" stroke="white" fill="white" stroke-linecap="butt" shape-rendering="geometricPrecision" image-rendering="optimizeQuality" transform="matrix(1,0,0,1,460,100)">
      <path d="M0.5 0.5 L99.5 0.5 L99.5 69.5 L0.5 69.5 Z" stroke="none" clip-path="url(#clipPath32)" />
      <path d="M0.5 0.5 L99.5 0.5 L99.5 69.5 L0.5 69.5 Z" stroke="black" clip-path="url(#clipPath32)" fill="none" />
    </g>
    <g font-family="sans-serif" font-size="11" font-weight="bold" color-rendering="optimizeQuality" color-interpolation="linearRGB" text-rendering="optimizeLegibility" shape-rendering="geometricPrecision" image-rendering="optimizeQuality" transform="matrix(1,0,0,1,468.562,103)">
      <text x="0" y="11" xml:space="preserve" stroke="none" clip-path="url(#clipPath33)">RawAudioData</text>
    </g>
    <g font-family="sans-serif" font-size="11" font-weight="bold" color-rendering="optimizeQuality" stroke-miterlimit="1" color-interpolation="linearRGB" text-rendering="optimizeLegibility" stroke="white" fill="white" stroke-linecap="butt" shape-rendering="geometricPrecision" image-rendering="optimizeQuality" transform="matrix(1,0,0,1,461,119)">
      <path d="M0.5 0.5 L97.5 0.5 L97.5 0.5 L0.5 0.5 Z" stroke="none" clip-path="url(#clipPath34)" />
      <path d="M0.5 0.5 L97.5 0.5 L97.5 0.5 L0.5 0.5 Z" stroke="black" clip-path="url(#clipPath34)" fill="none" />
    </g>
    <g font-family="sans-serif" font-size="11" font-weight="bold" color-rendering="optimizeQuality" stroke-miterlimit="1" color-interpolation="linearRGB" text-rendering="optimizeLegibility" stroke="white" fill="white" stroke-linecap="butt" shape-rendering="geometricPrecision" image-rendering="optimizeQuality" transform="matrix(1,0,0,1,461,144)">
      <path d="M0.5 0.5 L97.5 0.5 L97.5 0.5 L0.5 0.5 Z" stroke="none" clip-path="url(#clipPath35)" />
      <path d="M0.5 0.5 L97.5 0.5 L97.5 0.5 L0.5 0.5 Z" stroke="black" clip-path="url(#clipPath35)" fill="none" />
    </g>
    <g font-family="sans-serif" font-size="11" font-weight="bold" color-rendering="optimizeQuality" stroke-miterlimit="1" color-interpolation="linearRGB" text-rendering="optimizeLegibility" stroke-linecap="butt" shape-rendering="geometricPrecision" image-rendering="optimizeQuality" transform="matrix(1,0,0,1,-80,-60)">
      <path d="M240 290 L360 290" clip-path="url(#clipPath1)" fill="none" />
    </g>
    <g font-family="sans-serif" font-size="11" font-weight="bold" color-rendering="optimizeQuality" stroke-miterlimit="1" color-interpolation="linearRGB" text-rendering="optimizeLegibility" stroke="white" fill="white" stroke-linecap="butt" shape-rendering="geometricPrecision" image-rendering="optimizeQuality" transform="matrix(-0.9999999999999998,0,0,-0.9999999999999998,280,230)">
      <path d="M10 -5 L0 0 ZM10 5 L0 0 Z" stroke="none" clip-path="url(#clipPath36)" />
    </g>
    <g font-family="sans-serif" font-size="11" font-weight="bold" color-rendering="optimizeQuality" color-interpolation="linearRGB" text-rendering="optimizeLegibility" shape-rendering="geometricPrecision" image-rendering="optimizeQuality" transform="matrix(-0.9999999999999998,0,0,-0.9999999999999998,280,230)">
      <path d="M10 -5 L0 0 ZM10 5 L0 0 Z" clip-path="url(#clipPath36)" fill="none" />
    </g>
    <g font-family="sans-serif" font-size="11" color-rendering="optimizeQuality" color-interpolation="linearRGB" text-rendering="optimizeLegibility" shape-rendering="geometricPrecision" image-rendering="optimizeQuality" transform="matrix(1,0,0,1,179.8216,240)">
      <text x="0" y="11" xml:space="preserve" stroke="none" clip-path="url(#clipPath37)">Is described by</text>
    </g>
    <g font-family="sans-serif" font-size="11" color-rendering="optimizeQuality" stroke-miterlimit="1" color-interpolation="linearRGB" text-rendering="optimizeLegibility" stroke-linecap="butt" shape-rendering="geometricPrecision" image-rendering="optimizeQuality" transform="matrix(1,0,0,1,10,46)">
      <path d="M150 124 L450 124" clip-path="url(#clipPath38)" fill="none" />
    </g>
    <g font-family="sans-serif" font-size="11" color-rendering="optimizeQuality" stroke-miterlimit="1" color-interpolation="linearRGB" text-rendering="optimizeLegibility" stroke="white" fill="white" stroke-linecap="butt" shape-rendering="geometricPrecision" image-rendering="optimizeQuality" transform="matrix(-1,0,0,-1,460,170)">
      <path d="M10 -5 L0 0 ZM10 5 L0 0 Z" stroke="none" clip-path="url(#clipPath39)" />
    </g>
    <g font-family="sans-serif" font-size="11" color-rendering="optimizeQuality" color-interpolation="linearRGB" text-rendering="optimizeLegibility" shape-rendering="geometricPrecision" image-rendering="optimizeQuality" transform="matrix(-1,0,0,-1,460,170)">
      <path d="M10 -5 L0 0 ZM10 5 L0 0 Z" clip-path="url(#clipPath39)" fill="none" />
    </g>
    <g font-family="sans-serif" font-size="11" color-rendering="optimizeQuality" color-interpolation="linearRGB" text-rendering="optimizeLegibility" shape-rendering="geometricPrecision" image-rendering="optimizeQuality" transform="matrix(1,0,0,1,270.5015,147)">
      <text x="0" y="11" xml:space="preserve" stroke="none" clip-path="url(#clipPath40)">Contains</text>
    </g>
    <g font-family="sans-serif" font-size="11" color-rendering="optimizeQuality" stroke-miterlimit="1" color-interpolation="linearRGB" text-rendering="optimizeLegibility" stroke="white" fill="white" stroke-linecap="butt" shape-rendering="geometricPrecision" image-rendering="optimizeQuality" transform="matrix(1,0,0,1,60,60)">
      <path d="M0.5 0.5 L99.5 0.5 L99.5 69.5 L0.5 69.5 Z" stroke="none" clip-path="url(#clipPath41)" />
      <path d="M0.5 0.5 L99.5 0.5 L99.5 69.5 L0.5 69.5 Z" stroke="black" clip-path="url(#clipPath41)" fill="none" />
    </g>
    <g font-family="sans-serif" font-size="11" font-weight="bold" color-rendering="optimizeQuality" color-interpolation="linearRGB" text-rendering="optimizeLegibility" shape-rendering="geometricPrecision" image-rendering="optimizeQuality" transform="matrix(1,0,0,1,84.6028,63)">
      <text x="0" y="11" xml:space="preserve" stroke="none" clip-path="url(#clipPath42)">UniqueId</text>
    </g>
    <g font-family="sans-serif" font-size="11" font-weight="bold" color-rendering="optimizeQuality" stroke-miterlimit="1" color-interpolation="linearRGB" text-rendering="optimizeLegibility" stroke="white" fill="white" stroke-linecap="butt" shape-rendering="geometricPrecision" image-rendering="optimizeQuality" transform="matrix(1,0,0,1,61,79)">
      <path d="M0.5 0.5 L97.5 0.5 L97.5 0.5 L0.5 0.5 Z" stroke="none" clip-path="url(#clipPath43)" />
      <path d="M0.5 0.5 L97.5 0.5 L97.5 0.5 L0.5 0.5 Z" stroke="black" clip-path="url(#clipPath43)" fill="none" />
    </g>
    <g font-family="sans-serif" font-size="11" font-weight="bold" color-rendering="optimizeQuality" stroke-miterlimit="1" color-interpolation="linearRGB" text-rendering="optimizeLegibility" stroke="white" fill="white" stroke-linecap="butt" shape-rendering="geometricPrecision" image-rendering="optimizeQuality" transform="matrix(1,0,0,1,61,104)">
      <path d="M0.5 0.5 L97.5 0.5 L97.5 0.5 L0.5 0.5 Z" stroke="none" clip-path="url(#clipPath44)" />
      <path d="M0.5 0.5 L97.5 0.5 L97.5 0.5 L0.5 0.5 Z" stroke="black" clip-path="url(#clipPath44)" fill="none" />
    </g>
    <g font-family="sans-serif" font-size="11" font-weight="bold" color-rendering="optimizeQuality" stroke-miterlimit="1" color-interpolation="linearRGB" text-rendering="optimizeLegibility" stroke-linecap="butt" shape-rendering="geometricPrecision" image-rendering="optimizeQuality" transform="matrix(1,0,0,1,-80,-60)">
      <path d="M150 230 L150 190" clip-path="url(#clipPath1)" fill="none" />
    </g>
    <g font-family="sans-serif" font-size="11" font-weight="bold" color-rendering="optimizeQuality" stroke-miterlimit="1" color-interpolation="linearRGB" text-rendering="optimizeLegibility" stroke="white" fill="white" stroke-linecap="butt" shape-rendering="geometricPrecision" image-rendering="optimizeQuality" transform="matrix(2.636779683484747E-16,1,-1,2.636779683484747E-16,70,130)">
      <path d="M10 -5 L0 0 ZM10 5 L0 0 Z" stroke="none" clip-path="url(#clipPath45)" />
    </g>
    <g font-family="sans-serif" font-size="11" font-weight="bold" color-rendering="optimizeQuality" color-interpolation="linearRGB" text-rendering="optimizeLegibility" shape-rendering="geometricPrecision" image-rendering="optimizeQuality" transform="matrix(2.636779683484747E-16,1,-1,2.636779683484747E-16,70,130)">
      <path d="M10 -5 L0 0 ZM10 5 L0 0 Z" clip-path="url(#clipPath45)" fill="none" />
    </g>
    <g font-family="sans-serif" font-size="11" color-rendering="optimizeQuality" color-interpolation="linearRGB" text-rendering="optimizeLegibility" shape-rendering="geometricPrecision" image-rendering="optimizeQuality" transform="matrix(1,0,0,1,80,143)">
      <text x="0" y="11" xml:space="preserve" stroke="none" clip-path="url(#clipPath46)">Is identified by</text>
    </g>
    <g font-family="sans-serif" font-size="11" color-rendering="optimizeQuality" stroke-miterlimit="1" color-interpolation="linearRGB" text-rendering="optimizeLegibility" stroke="white" fill="white" stroke-linecap="butt" shape-rendering="geometricPrecision" image-rendering="optimizeQuality" transform="matrix(1,0,0,1,40,460)">
      <path d="M0.5 0.5 L112.95950317382812 0.5 L112.95950317382812 69.5 L0.5 69.5 Z" stroke="none" clip-path="url(#clipPath47)" />
      <path d="M0.5 0.5 L112.95950317382812 0.5 L112.95950317382812 69.5 L0.5 69.5 Z" stroke="black" clip-path="url(#clipPath47)" fill="none" />
    </g>
    <g font-family="sans-serif" font-size="11" font-weight="bold" color-rendering="optimizeQuality" color-interpolation="linearRGB" text-rendering="optimizeLegibility" shape-rendering="geometricPrecision" image-rendering="optimizeQuality" transform="matrix(1,0,0,1,43,463)">
      <text x="0" y="11" xml:space="preserve" stroke="none" clip-path="url(#clipPath48)">Archive maintainer</text>
    </g>
    <g font-family="sans-serif" font-size="11" font-weight="bold" color-rendering="optimizeQuality" stroke-miterlimit="1" color-interpolation="linearRGB" text-rendering="optimizeLegibility" stroke="white" fill="white" stroke-linecap="butt" shape-rendering="geometricPrecision" image-rendering="optimizeQuality" transform="matrix(1,0,0,1,41,479)">
      <path d="M0.5 0.5 L110.95947265625 0.5 L110.95947265625 0.5 L0.5 0.5 Z" stroke="none" clip-path="url(#clipPath49)" />
      <path d="M0.5 0.5 L110.95947265625 0.5 L110.95947265625 0.5 L0.5 0.5 Z" stroke="black" clip-path="url(#clipPath49)" fill="none" />
    </g>
    <g font-family="sans-serif" font-size="11" font-weight="bold" color-rendering="optimizeQuality" stroke-miterlimit="1" color-interpolation="linearRGB" text-rendering="optimizeLegibility" stroke="white" fill="white" stroke-linecap="butt" shape-rendering="geometricPrecision" image-rendering="optimizeQuality" transform="matrix(1,0,0,1,41,504)">
      <path d="M0.5 0.5 L110.95947265625 0.5 L110.95947265625 0.5 L0.5 0.5 Z" stroke="none" clip-path="url(#clipPath50)" />
      <path d="M0.5 0.5 L110.95947265625 0.5 L110.95947265625 0.5 L0.5 0.5 Z" stroke="black" clip-path="url(#clipPath50)" fill="none" />
    </g>
    <g font-family="sans-serif" font-size="11" font-weight="bold" color-rendering="optimizeQuality" stroke-miterlimit="1" color-interpolation="linearRGB" text-rendering="optimizeLegibility" stroke="white" fill="white" stroke-linecap="butt" shape-rendering="geometricPrecision" image-rendering="optimizeQuality" transform="matrix(1,0,0,1,430,470)">
      <path d="M0.5 0.5 L99.5 0.5 L99.5 69.5 L0.5 69.5 Z" stroke="none" clip-path="url(#clipPath51)" />
      <path d="M0.5 0.5 L99.5 0.5 L99.5 69.5 L0.5 69.5 Z" stroke="black" clip-path="url(#clipPath51)" fill="none" />
    </g>
    <g font-family="sans-serif" font-size="11" font-weight="bold" color-rendering="optimizeQuality" color-interpolation="linearRGB" text-rendering="optimizeLegibility" shape-rendering="geometricPrecision" image-rendering="optimizeQuality" transform="matrix(1,0,0,1,441.2556,473)">
      <text x="0" y="11" xml:space="preserve" stroke="none" clip-path="url(#clipPath52)">Archive client</text>
    </g>
    <g font-family="sans-serif" font-size="11" font-weight="bold" color-rendering="optimizeQuality" stroke-miterlimit="1" color-interpolation="linearRGB" text-rendering="optimizeLegibility" stroke="white" fill="white" stroke-linecap="butt" shape-rendering="geometricPrecision" image-rendering="optimizeQuality" transform="matrix(1,0,0,1,431,489)">
      <path d="M0.5 0.5 L97.5 0.5 L97.5 0.5 L0.5 0.5 Z" stroke="none" clip-path="url(#clipPath53)" />
      <path d="M0.5 0.5 L97.5 0.5 L97.5 0.5 L0.5 0.5 Z" stroke="black" clip-path="url(#clipPath53)" fill="none" />
    </g>
    <g font-family="sans-serif" font-size="11" font-weight="bold" color-rendering="optimizeQuality" stroke-miterlimit="1" color-interpolation="linearRGB" text-rendering="optimizeLegibility" stroke="white" fill="white" stroke-linecap="butt" shape-rendering="geometricPrecision" image-rendering="optimizeQuality" transform="matrix(1,0,0,1,431,514)">
      <path d="M0.5 0.5 L97.5 0.5 L97.5 0.5 L0.5 0.5 Z" stroke="none" clip-path="url(#clipPath54)" />
      <path d="M0.5 0.5 L97.5 0.5 L97.5 0.5 L0.5 0.5 Z" stroke="black" clip-path="url(#clipPath54)" fill="none" />
    </g>
    <g font-family="sans-serif" font-size="11" font-weight="bold" color-rendering="optimizeQuality" stroke-miterlimit="1" color-interpolation="linearRGB" text-rendering="optimizeLegibility" stroke-linecap="butt" shape-rendering="geometricPrecision" image-rendering="optimizeQuality" transform="matrix(1,0,0,1,-80,-60)">
      <path d="M233.45950317382812 520 L270 440" clip-path="url(#clipPath1)" fill="none" />
    </g>
    <g font-family="sans-serif" font-size="11" font-weight="bold" color-rendering="optimizeQuality" stroke-miterlimit="1" color-interpolation="linearRGB" text-rendering="optimizeLegibility" stroke="white" fill="white" stroke-linecap="butt" shape-rendering="geometricPrecision" image-rendering="optimizeQuality" transform="matrix(-0.4154688650136933,0.9096074000381889,-0.9096074000381889,-0.4154688650136933,190,380)">
      <path d="M10 -5 L0 0 ZM10 5 L0 0 Z" stroke="none" clip-path="url(#clipPath55)" />
    </g>
    <g font-family="sans-serif" font-size="11" font-weight="bold" color-rendering="optimizeQuality" color-interpolation="linearRGB" text-rendering="optimizeLegibility" shape-rendering="geometricPrecision" image-rendering="optimizeQuality" transform="matrix(-0.4154688650136933,0.9096074000381889,-0.9096074000381889,-0.4154688650136933,190,380)">
      <path d="M10 -5 L0 0 ZM10 5 L0 0 Z" clip-path="url(#clipPath55)" fill="none" />
    </g>
    <g font-family="sans-serif" font-size="11" color-rendering="optimizeQuality" color-interpolation="linearRGB" text-rendering="optimizeLegibility" shape-rendering="geometricPrecision" image-rendering="optimizeQuality" transform="matrix(1,0,0,1,180.82580000000002,418.4011)">
      <text x="0" y="11" xml:space="preserve" stroke="none" clip-path="url(#clipPath56)">Is authenticated by</text>
    </g>
    <g font-family="sans-serif" font-size="11" color-rendering="optimizeQuality" stroke-miterlimit="1" color-interpolation="linearRGB" text-rendering="optimizeLegibility" stroke-linecap="butt" shape-rendering="geometricPrecision" image-rendering="optimizeQuality" transform="matrix(1,0,0,1,-80,-60)">
      <path d="M510 530 L370 440" clip-path="url(#clipPath1)" fill="none" />
    </g>
    <g font-family="sans-serif" font-size="11" color-rendering="optimizeQuality" stroke-miterlimit="1" color-interpolation="linearRGB" text-rendering="optimizeLegibility" stroke="white" fill="white" stroke-linecap="butt" shape-rendering="geometricPrecision" image-rendering="optimizeQuality" transform="matrix(0.8411784753765534,0.5407575913134987,-0.5407575913134987,0.8411784753765534,290,380)">
      <path d="M10 -5 L0 0 ZM10 5 L0 0 Z" stroke="none" clip-path="url(#clipPath57)" />
    </g>
    <g font-family="sans-serif" font-size="11" color-rendering="optimizeQuality" color-interpolation="linearRGB" text-rendering="optimizeLegibility" shape-rendering="geometricPrecision" image-rendering="optimizeQuality" transform="matrix(0.8411784753765534,0.5407575913134987,-0.5407575913134987,0.8411784753765534,290,380)">
      <path d="M10 -5 L0 0 ZM10 5 L0 0 Z" clip-path="url(#clipPath57)" fill="none" />
    </g>
    <g font-family="sans-serif" font-size="11" color-rendering="optimizeQuality" color-interpolation="linearRGB" text-rendering="optimizeLegibility" shape-rendering="geometricPrecision" image-rendering="optimizeQuality" transform="matrix(1,0,0,1,308.3184,461.27160000000003)">
      <text x="0" y="11" xml:space="preserve" stroke="none" clip-path="url(#clipPath58)">Is authenticated by</text>
    </g>
    <g font-family="sans-serif" font-size="11" color-rendering="optimizeQuality" stroke-miterlimit="1" color-interpolation="linearRGB" text-rendering="optimizeLegibility" stroke-linecap="butt" shape-rendering="geometricPrecision" image-rendering="optimizeQuality" transform="matrix(1,0,0,1,-80,-60)">
      <path d="M510 530 L460 330" clip-path="url(#clipPath1)" fill="none" />
    </g>
    <g font-family="sans-serif" font-size="11" color-rendering="optimizeQuality" stroke-miterlimit="1" color-interpolation="linearRGB" text-rendering="optimizeLegibility" stroke="white" fill="white" stroke-linecap="butt" shape-rendering="geometricPrecision" image-rendering="optimizeQuality" transform="matrix(0.24253562503633286,0.9701425001453319,-0.9701425001453319,0.24253562503633286,380,270)">
      <path d="M10 -5 L0 0 ZM10 5 L0 0 Z" stroke="none" clip-path="url(#clipPath59)" />
    </g>
    <g font-family="sans-serif" font-size="11" color-rendering="optimizeQuality" color-interpolation="linearRGB" text-rendering="optimizeLegibility" shape-rendering="geometricPrecision" image-rendering="optimizeQuality" transform="matrix(0.24253562503633286,0.9701425001453319,-0.9701425001453319,0.24253562503633286,380,270)">
      <path d="M10 -5 L0 0 ZM10 5 L0 0 Z" clip-path="url(#clipPath59)" fill="none" />
    </g>
    <g font-family="sans-serif" font-size="11" color-rendering="optimizeQuality" color-interpolation="linearRGB" text-rendering="optimizeLegibility" shape-rendering="geometricPrecision" image-rendering="optimizeQuality" transform="matrix(1,0,0,1,326.3894,343.7217)">
      <text x="0" y="11" xml:space="preserve" stroke="none" clip-path="url(#clipPath60)">Searches in</text>
    </g>
    <g font-family="sans-serif" font-size="11" color-rendering="optimizeQuality" stroke-miterlimit="1" color-interpolation="linearRGB" text-rendering="optimizeLegibility" stroke-linecap="butt" shape-rendering="geometricPrecision" image-rendering="optimizeQuality" transform="matrix(1,0,0,1,-80,-60)">
      <path d="M540 530 L540 410" clip-path="url(#clipPath1)" fill="none" />
    </g>
    <g font-family="sans-serif" font-size="11" color-rendering="optimizeQuality" stroke-miterlimit="1" color-interpolation="linearRGB" text-rendering="optimizeLegibility" stroke="white" fill="white" stroke-linecap="butt" shape-rendering="geometricPrecision" image-rendering="optimizeQuality" transform="matrix(9.020562075079397E-16,1,-1,9.020562075079397E-16,460,350)">
      <path d="M10 -5 L0 0 ZM10 5 L0 0 Z" stroke="none" clip-path="url(#clipPath61)" />
    </g>
    <g font-family="sans-serif" font-size="11" color-rendering="optimizeQuality" color-interpolation="linearRGB" text-rendering="optimizeLegibility" shape-rendering="geometricPrecision" image-rendering="optimizeQuality" transform="matrix(9.020562075079397E-16,1,-1,9.020562075079397E-16,460,350)">
      <path d="M10 -5 L0 0 ZM10 5 L0 0 Z" clip-path="url(#clipPath61)" fill="none" />
    </g>
    <g font-family="sans-serif" font-size="11" color-rendering="optimizeQuality" color-interpolation="linearRGB" text-rendering="optimizeLegibility" shape-rendering="geometricPrecision" image-rendering="optimizeQuality" transform="matrix(1,0,0,1,469,372.1017)">
      <text x="0" y="11" xml:space="preserve" stroke="none" clip-path="url(#clipPath62)">Searches by</text>
    </g>
    <g font-family="sans-serif" font-size="11" color-rendering="optimizeQuality" stroke-miterlimit="1" color-interpolation="linearRGB" text-rendering="optimizeLegibility" stroke-linecap="butt" shape-rendering="geometricPrecision" image-rendering="optimizeQuality" transform="matrix(1,0,0,1,-80,-60)">
      <path d="M610 530 L630 430 L630 230" clip-path="url(#clipPath1)" fill="none" />
    </g>
    <g font-family="sans-serif" font-size="11" color-rendering="optimizeQuality" stroke-miterlimit="1" color-interpolation="linearRGB" text-rendering="optimizeLegibility" stroke="white" fill="white" stroke-linecap="butt" shape-rendering="geometricPrecision" image-rendering="optimizeQuality" transform="matrix(0,1,-1,0,550,170)">
      <path d="M10 -5 L0 0 ZM10 5 L0 0 Z" stroke="none" clip-path="url(#clipPath63)" />
    </g>
    <g font-family="sans-serif" font-size="11" color-rendering="optimizeQuality" color-interpolation="linearRGB" text-rendering="optimizeLegibility" shape-rendering="geometricPrecision" image-rendering="optimizeQuality" transform="matrix(0,1,-1,0,550,170)">
      <path d="M10 -5 L0 0 ZM10 5 L0 0 Z" clip-path="url(#clipPath63)" fill="none" />
    </g>
    <g font-family="sans-serif" font-size="11" color-rendering="optimizeQuality" color-interpolation="linearRGB" text-rendering="optimizeLegibility" shape-rendering="geometricPrecision" image-rendering="optimizeQuality" transform="matrix(1,0,0,1,549.8058,415.9023)">
      <text x="0" y="11" xml:space="preserve" stroke="none" clip-path="url(#clipPath64)">Downloads</text>
    </g>
    <g font-family="sans-serif" font-size="11" color-rendering="optimizeQuality" stroke-miterlimit="1" color-interpolation="linearRGB" text-rendering="optimizeLegibility" stroke-linecap="butt" shape-rendering="geometricPrecision" image-rendering="optimizeQuality" transform="matrix(1,0,0,1,-80,-60)">
      <path d="M160 520 L160 313" clip-path="url(#clipPath1)" fill="none" />
    </g>
    <g font-family="sans-serif" font-size="11" color-rendering="optimizeQuality" stroke-miterlimit="1" color-interpolation="linearRGB" text-rendering="optimizeLegibility" stroke="white" fill="white" stroke-linecap="butt" shape-rendering="geometricPrecision" image-rendering="optimizeQuality" transform="matrix(0,1,-1,0,80,253)">
      <path d="M10 -5 L0 0 ZM10 5 L0 0 Z" stroke="none" clip-path="url(#clipPath65)" />
    </g>
    <g font-family="sans-serif" font-size="11" color-rendering="optimizeQuality" color-interpolation="linearRGB" text-rendering="optimizeLegibility" shape-rendering="geometricPrecision" image-rendering="optimizeQuality" transform="matrix(0,1,-1,0,80,253)">
      <path d="M10 -5 L0 0 ZM10 5 L0 0 Z" clip-path="url(#clipPath65)" fill="none" />
    </g>
    <g font-family="sans-serif" font-size="11" color-rendering="optimizeQuality" color-interpolation="linearRGB" text-rendering="optimizeLegibility" shape-rendering="geometricPrecision" image-rendering="optimizeQuality" transform="matrix(1,0,0,1,90,349.5)">
      <text x="0" y="11" xml:space="preserve" stroke="none" clip-path="url(#clipPath66)">Manages</text>
    </g>
  </g>
</svg>
