<?xml version="1.0" encoding="UTF-8"?>

<!DOCTYPE svg PUBLIC '-//W3C//DTD SVG 1.0//EN' 'http://www.w3.org/TR/2001/REC-SVG-20010904/DTD/svg10.dtd'>
<svg stroke-width="1" stroke-dashoffset="0" font-size="12" stroke-dasharray="none" color-rendering="auto" font-weight="normal" color-interpolation="auto" stroke-linejoin="miter" fill="black" image-rendering="auto" font-family="&apos;sansserif&apos;" stroke-opacity="1" stroke-miterlimit="10" stroke="black" text-rendering="auto" font-style="normal" stroke-linecap="square" fill-opacity="1" shape-rendering="auto" xmlns="http://www.w3.org/2000/svg" xmlns:xlink="http://www.w3.org/1999/xlink">
  <!--Generated by the Batik Graphics2D SVG Generator-->
  <defs id="genericDefs" />
  <g>
    <defs id="defs1">
      <clipPath clipPathUnits="userSpaceOnUse" id="clipPath1">
        <path d="M-34 10 L-34 132 L587 132 L587 10 Z" />
      </clipPath>
      <clipPath clipPathUnits="userSpaceOnUse" id="clipPath2">
        <path d="M0 0 L0 122 L621 122 L621 0 Z" />
      </clipPath>
      <clipPath clipPathUnits="userSpaceOnUse" id="clipPath3">
        <path d="M-104 -10 L-104 112 L517 112 L517 -10 Z" />
      </clipPath>
      <clipPath clipPathUnits="userSpaceOnUse" id="clipPath4">
        <path d="M-12.808600425720215 -42 L-12.808600425720215 80 L608.19140625 80 L608.19140625 -42 Z" />
      </clipPath>
      <clipPath clipPathUnits="userSpaceOnUse" id="clipPath5">
        <path d="M-111.50240325927734 -42 L-111.50240325927734 80 L509.4975891113281 80 L509.4975891113281 -42 Z" />
      </clipPath>
      <clipPath clipPathUnits="userSpaceOnUse" id="clipPath6">
        <path d="M-114.98290252685547 -42 L-114.98290252685547 80 L506.01708984375 80 L506.01708984375 -42 Z" />
      </clipPath>
      <clipPath clipPathUnits="userSpaceOnUse" id="clipPath7">
        <path d="M-484 -10 L-484 112 L137 112 L137 -10 Z" />
      </clipPath>
      <clipPath clipPathUnits="userSpaceOnUse" id="clipPath8">
        <path d="M-490 -16 L-490 106 L131 106 L131 -16 Z" />
      </clipPath>
      <clipPath clipPathUnits="userSpaceOnUse" id="clipPath9">
        <path d="M-527.47412109375 -16 L-527.47412109375 106 L93.5259017944336 106 L93.5259017944336 -16 Z" />
      </clipPath>
      <clipPath clipPathUnits="userSpaceOnUse" id="clipPath10">
        <path d="M-530.95458984375 -16 L-530.95458984375 106 L90.04540252685547 106 L90.04540252685547 -16 Z" />
      </clipPath>
      <clipPath clipPathUnits="userSpaceOnUse" id="clipPath11">
        <path d="M-542.1270141601562 -75 L-542.1270141601562 47 L78.87300109863281 47 L78.87300109863281 -75 Z" />
      </clipPath>
      <clipPath clipPathUnits="userSpaceOnUse" id="clipPath12">
        <path d="M542.1270141601562 75 L542.1270141601562 -47 L-78.87300109863281 -47 L-78.87300109863281 75 Z" />
      </clipPath>
      <clipPath clipPathUnits="userSpaceOnUse" id="clipPath13">
        <path d="M-226.4217071533203 -51 L-226.4217071533203 71 L394.57830810546875 71 L394.57830810546875 -51 Z" />
      </clipPath>
      <clipPath clipPathUnits="userSpaceOnUse" id="clipPath14">
        <path d="M-231.90220642089844 -51 L-231.90220642089844 71 L389.0978088378906 71 L389.0978088378906 -51 Z" />
      </clipPath>
      <clipPath clipPathUnits="userSpaceOnUse" id="clipPath15">
        <path d="M-237.38259887695312 -51 L-237.38259887695312 71 L383.6174011230469 71 L383.6174011230469 -51 Z" />
      </clipPath>
      <clipPath clipPathUnits="userSpaceOnUse" id="clipPath16">
        <path d="M-310.3489074707031 -51 L-310.3489074707031 71 L310.6510925292969 71 L310.6510925292969 -51 Z" />
      </clipPath>
      <clipPath clipPathUnits="userSpaceOnUse" id="clipPath17">
        <path d="M-322.573486328125 -51 L-322.573486328125 71 L298.426513671875 71 L298.426513671875 -51 Z" />
      </clipPath>
      <clipPath clipPathUnits="userSpaceOnUse" id="clipPath18">
        <path d="M-388.6164855957031 -51 L-388.6164855957031 71 L232.3834991455078 71 L232.3834991455078 -51 Z" />
      </clipPath>
      <clipPath clipPathUnits="userSpaceOnUse" id="clipPath19">
        <path d="M-392.193603515625 -51 L-392.193603515625 71 L228.806396484375 71 L228.806396484375 -51 Z" />
      </clipPath>
      <clipPath clipPathUnits="userSpaceOnUse" id="clipPath20">
        <path d="M-426.1282043457031 -51 L-426.1282043457031 71 L194.87179565429688 71 L194.87179565429688 -51 Z" />
      </clipPath>
      <clipPath clipPathUnits="userSpaceOnUse" id="clipPath21">
        <path d="M542.1270141601562 110 L542.1270141601562 -12 L-78.87300109863281 -12 L-78.87300109863281 110 Z" />
      </clipPath>
      <clipPath clipPathUnits="userSpaceOnUse" id="clipPath22">
        <path d="M-217.5540008544922 -86 L-217.5540008544922 36 L403.4460144042969 36 L403.4460144042969 -86 Z" />
      </clipPath>
      <clipPath clipPathUnits="userSpaceOnUse" id="clipPath23">
        <path d="M-223.0345001220703 -86 L-223.0345001220703 36 L397.96551513671875 36 L397.96551513671875 -86 Z" />
      </clipPath>
      <clipPath clipPathUnits="userSpaceOnUse" id="clipPath24">
        <path d="M-228.514892578125 -86 L-228.514892578125 36 L392.485107421875 36 L392.485107421875 -86 Z" />
      </clipPath>
      <clipPath clipPathUnits="userSpaceOnUse" id="clipPath25">
        <path d="M-289.2619934082031 -86 L-289.2619934082031 36 L331.7380065917969 36 L331.7380065917969 -86 Z" />
      </clipPath>
      <clipPath clipPathUnits="userSpaceOnUse" id="clipPath26">
        <path d="M-301.4866027832031 -86 L-301.4866027832031 36 L319.5133972167969 36 L319.5133972167969 -86 Z" />
      </clipPath>
      <clipPath clipPathUnits="userSpaceOnUse" id="clipPath27">
        <path d="M-380.7638854980469 -86 L-380.7638854980469 36 L240.23609924316406 36 L240.23609924316406 -86 Z" />
      </clipPath>
      <clipPath clipPathUnits="userSpaceOnUse" id="clipPath28">
        <path d="M-384.3410949707031 -86 L-384.3410949707031 36 L236.65890502929688 36 L236.65890502929688 -86 Z" />
      </clipPath>
      <clipPath clipPathUnits="userSpaceOnUse" id="clipPath29">
        <path d="M-434.99591064453125 -86 L-434.99591064453125 36 L186.0041046142578 36 L186.0041046142578 -86 Z" />
      </clipPath>
    </defs>
    <g color-rendering="optimizeQuality" stroke-dasharray="5,5" stroke-miterlimit="1" color-interpolation="linearRGB" text-rendering="optimizeLegibility" stroke-linecap="butt" shape-rendering="geometricPrecision" image-rendering="optimizeQuality" transform="matrix(1,0,0,1,104,10)">
      <path d="M10.5 48.5 L10.5 101.5" clip-path="url(#clipPath3)" fill="none" />
      <path d="M10 8 C5 8 5 0 10 0 C15 0 15 8 10 8 M10 8 L10 10 M0 10 L20 10 M10 10 L10 20 M10 20 L0 30 M10 20 L20 30" stroke="none" clip-path="url(#clipPath3)" fill="white" />
      <path d="M10 8 C5 8 5 0 10 0 C15 0 15 8 10 8 M10 8 L10 10 M0 10 L20 10 M10 10 L10 20 M10 20 L0 30 M10 20 L20 30" stroke-dasharray="none" clip-path="url(#clipPath3)" fill="none" />
    </g>
    <g font-family="sans-serif" font-size="11" color-rendering="optimizeQuality" color-interpolation="linearRGB" text-rendering="optimizeLegibility" shape-rendering="geometricPrecision" image-rendering="optimizeQuality" transform="matrix(1,0,0,1,12.808599999999998,42)">
      <text x="0" y="11" xml:space="preserve" stroke="none" clip-path="url(#clipPath4)">archive maintainer</text>
      <line x1="0" y1="12.5" x2="98.69384765625" y2="12.5" clip-path="url(#clipPath4)" fill="none" />
    </g>
    <g font-family="sans-serif" font-size="11" color-rendering="optimizeQuality" color-interpolation="linearRGB" text-rendering="optimizeLegibility" shape-rendering="geometricPrecision" image-rendering="optimizeQuality" transform="matrix(1,0,0,1,111.5024,42)">
      <text x="0" y="11" xml:space="preserve" stroke="none" clip-path="url(#clipPath5)">:</text>
      <line x1="0" y1="12.5" x2="3.48046875" y2="12.5" clip-path="url(#clipPath5)" fill="none" />
    </g>
    <g font-family="sans-serif" font-size="11" color-rendering="optimizeQuality" color-interpolation="linearRGB" text-rendering="optimizeLegibility" shape-rendering="geometricPrecision" image-rendering="optimizeQuality" transform="matrix(1,0,0,1,114.9829,42)">
      <text x="0" y="11" xml:space="preserve" stroke="none" clip-path="url(#clipPath6)">Archive maintainer</text>
      <line x1="0" y1="12.5" x2="100.20849609375" y2="12.5" clip-path="url(#clipPath6)" fill="none" />
    </g>
    <g font-family="sans-serif" font-size="11" color-rendering="optimizeQuality" stroke-miterlimit="1" color-interpolation="linearRGB" text-rendering="optimizeLegibility" stroke="white" fill="white" stroke-linecap="butt" shape-rendering="geometricPrecision" image-rendering="optimizeQuality" transform="matrix(1,0,0,1,484,10)">
      <path d="M63.626949310302734 0.5 L63.626949310302734 101.5" stroke="none" clip-path="url(#clipPath7)" />
      <path d="M63.626949310302734 0.5 L63.626949310302734 101.5" stroke-dasharray="5,5" stroke="black" clip-path="url(#clipPath7)" fill="none" />
      <path d="M0.5 0.5 L125.75389862060547 0.5 L125.75389862060547 25.5 L0.5 25.5 Z" stroke-dasharray="5,5" stroke="none" clip-path="url(#clipPath7)" />
      <path d="M0.5 0.5 L125.75389862060547 0.5 L125.75389862060547 25.5 L0.5 25.5 Z" stroke="black" clip-path="url(#clipPath7)" fill="none" />
    </g>
    <g font-family="sans-serif" font-size="11" color-rendering="optimizeQuality" color-interpolation="linearRGB" text-rendering="optimizeLegibility" shape-rendering="geometricPrecision" image-rendering="optimizeQuality" transform="matrix(1,0,0,1,490,16)">
      <text x="0" y="11" xml:space="preserve" stroke="none" clip-path="url(#clipPath8)">system</text>
      <line x1="0" y1="12.5" x2="37.47412109375" y2="12.5" clip-path="url(#clipPath8)" fill="none" />
    </g>
    <g font-family="sans-serif" font-size="11" color-rendering="optimizeQuality" color-interpolation="linearRGB" text-rendering="optimizeLegibility" shape-rendering="geometricPrecision" image-rendering="optimizeQuality" transform="matrix(1,0,0,1,527.4741,16)">
      <text x="0" y="11" xml:space="preserve" stroke="none" clip-path="url(#clipPath9)">:</text>
      <line x1="0" y1="12.5" x2="3.48046875" y2="12.5" clip-path="url(#clipPath9)" fill="none" />
    </g>
    <g font-family="sans-serif" font-size="11" color-rendering="optimizeQuality" color-interpolation="linearRGB" text-rendering="optimizeLegibility" shape-rendering="geometricPrecision" image-rendering="optimizeQuality" transform="matrix(1,0,0,1,530.9546,16)">
      <text x="0" y="11" xml:space="preserve" stroke="none" clip-path="url(#clipPath10)">Media archive</text>
      <line x1="0" y1="12.5" x2="73.29931640625" y2="12.5" clip-path="url(#clipPath10)" fill="none" />
    </g>
    <g font-family="sans-serif" font-size="11" color-rendering="optimizeQuality" stroke-miterlimit="1" color-interpolation="linearRGB" text-rendering="optimizeLegibility" stroke="white" fill="white" stroke-linecap="butt" shape-rendering="geometricPrecision" image-rendering="optimizeQuality" transform="matrix(1,0,0,1,542.127,75)">
      <path d="M0.5 0.5 L9.5 0.5 L9.5 36.5 L0.5 36.5 Z" stroke="none" clip-path="url(#clipPath11)" />
      <path d="M0.5 0.5 L9.5 0.5 L9.5 36.5 L0.5 36.5 Z" stroke="black" clip-path="url(#clipPath11)" fill="none" />
    </g>
    <g font-family="sans-serif" font-size="11" color-rendering="optimizeQuality" stroke-miterlimit="1" color-interpolation="linearRGB" text-rendering="optimizeLegibility" stroke-linecap="butt" shape-rendering="geometricPrecision" image-rendering="optimizeQuality" transform="matrix(1,0,0,1,34,-10)">
      <path d="M80 85 L508.12701416015625 85" clip-path="url(#clipPath1)" fill="none" />
      <path d="M12 -6 L0 0 L12 6 Z" stroke="none" clip-path="url(#clipPath12)" transform="matrix(-1,2.1649348980190553E-15,-2.1649348980190553E-15,-1,508.127,85)" />
      <path d="M12 -6 L0 0 L12 6 Z" stroke-miterlimit="10" clip-path="url(#clipPath12)" fill="none" stroke-linecap="square" transform="matrix(-1,2.1649348980190553E-15,-2.1649348980190553E-15,-1,508.127,85)" />
    </g>
    <g font-family="sans-serif" font-size="11" color-rendering="optimizeQuality" color-interpolation="linearRGB" text-rendering="optimizeLegibility" shape-rendering="geometricPrecision" image-rendering="optimizeQuality" transform="matrix(1,0,0,1,226.4217,51)">
      <text x="0" y="11" xml:space="preserve" stroke="none" clip-path="url(#clipPath13)"> </text>
    </g>
    <g font-family="sans-serif" font-size="11" color-rendering="optimizeQuality" color-interpolation="linearRGB" text-rendering="optimizeLegibility" shape-rendering="geometricPrecision" image-rendering="optimizeQuality" transform="matrix(1,0,0,1,231.9022,51)">
      <text x="0" y="11" xml:space="preserve" stroke="none" clip-path="url(#clipPath14)">:</text>
    </g>
    <g font-family="sans-serif" font-size="11" color-rendering="optimizeQuality" color-interpolation="linearRGB" text-rendering="optimizeLegibility" shape-rendering="geometricPrecision" image-rendering="optimizeQuality" transform="matrix(1,0,0,1,237.3826,51)">
      <text x="0" y="11" xml:space="preserve" stroke="none" clip-path="url(#clipPath15)">authenticated</text>
    </g>
    <g font-family="sans-serif" font-size="11" color-rendering="optimizeQuality" color-interpolation="linearRGB" text-rendering="optimizeLegibility" shape-rendering="geometricPrecision" image-rendering="optimizeQuality" transform="matrix(1,0,0,1,310.3489,51)">
      <text x="0" y="11" xml:space="preserve" stroke="none" clip-path="url(#clipPath16)">:=</text>
    </g>
    <g font-family="sans-serif" font-size="11" color-rendering="optimizeQuality" color-interpolation="linearRGB" text-rendering="optimizeLegibility" shape-rendering="geometricPrecision" image-rendering="optimizeQuality" transform="matrix(1,0,0,1,322.57349999999997,51)">
      <text x="0" y="11" xml:space="preserve" stroke="none" clip-path="url(#clipPath17)">authenticate</text>
    </g>
    <g font-family="sans-serif" font-size="11" color-rendering="optimizeQuality" color-interpolation="linearRGB" text-rendering="optimizeLegibility" shape-rendering="geometricPrecision" image-rendering="optimizeQuality" transform="matrix(1,0,0,1,388.6165,51)">
      <text x="0" y="11" xml:space="preserve" stroke="none" clip-path="url(#clipPath18)">(</text>
    </g>
    <g font-family="sans-serif" font-size="11" color-rendering="optimizeQuality" color-interpolation="linearRGB" text-rendering="optimizeLegibility" shape-rendering="geometricPrecision" image-rendering="optimizeQuality" transform="matrix(1,0,0,1,392.1936,51)">
      <text x="0" y="11" xml:space="preserve" stroke="none" clip-path="url(#clipPath19)">authId</text>
    </g>
    <g font-family="sans-serif" font-size="11" color-rendering="optimizeQuality" color-interpolation="linearRGB" text-rendering="optimizeLegibility" shape-rendering="geometricPrecision" image-rendering="optimizeQuality" transform="matrix(1,0,0,1,426.1282,51)">
      <text x="0" y="11" xml:space="preserve" stroke="none" clip-path="url(#clipPath20)">)</text>
    </g>
    <g font-family="sans-serif" font-size="11" color-rendering="optimizeQuality" stroke-miterlimit="1" color-interpolation="linearRGB" text-rendering="optimizeLegibility" stroke-linecap="butt" shape-rendering="geometricPrecision" image-rendering="optimizeQuality" transform="matrix(1,0,0,1,34,-10)">
      <path d="M80 120 L508.12701416015625 120" clip-path="url(#clipPath1)" fill="none" />
      <path d="M12 -6 L0 0 L12 6 Z" stroke="none" clip-path="url(#clipPath21)" transform="matrix(-1,1.5543122344752192E-15,-1.5543122344752192E-15,-1,508.127,120)" />
      <path d="M12 -6 L0 0 L12 6 Z" stroke-miterlimit="10" clip-path="url(#clipPath21)" fill="none" stroke-linecap="square" transform="matrix(-1,1.5543122344752192E-15,-1.5543122344752192E-15,-1,508.127,120)" />
    </g>
    <g font-family="sans-serif" font-size="11" color-rendering="optimizeQuality" color-interpolation="linearRGB" text-rendering="optimizeLegibility" shape-rendering="geometricPrecision" image-rendering="optimizeQuality" transform="matrix(1,0,0,1,217.554,86)">
      <text x="0" y="11" xml:space="preserve" stroke="none" clip-path="url(#clipPath22)"> </text>
    </g>
    <g font-family="sans-serif" font-size="11" color-rendering="optimizeQuality" color-interpolation="linearRGB" text-rendering="optimizeLegibility" shape-rendering="geometricPrecision" image-rendering="optimizeQuality" transform="matrix(1,0,0,1,223.0345,86)">
      <text x="0" y="11" xml:space="preserve" stroke="none" clip-path="url(#clipPath23)">:</text>
    </g>
    <g font-family="sans-serif" font-size="11" color-rendering="optimizeQuality" color-interpolation="linearRGB" text-rendering="optimizeLegibility" shape-rendering="geometricPrecision" image-rendering="optimizeQuality" transform="matrix(1,0,0,1,228.5149,86)">
      <text x="0" y="11" xml:space="preserve" stroke="none" clip-path="url(#clipPath24)">audioClipId</text>
    </g>
    <g font-family="sans-serif" font-size="11" color-rendering="optimizeQuality" color-interpolation="linearRGB" text-rendering="optimizeLegibility" shape-rendering="geometricPrecision" image-rendering="optimizeQuality" transform="matrix(1,0,0,1,289.262,86)">
      <text x="0" y="11" xml:space="preserve" stroke="none" clip-path="url(#clipPath25)">:=</text>
    </g>
    <g font-family="sans-serif" font-size="11" color-rendering="optimizeQuality" color-interpolation="linearRGB" text-rendering="optimizeLegibility" shape-rendering="geometricPrecision" image-rendering="optimizeQuality" transform="matrix(1,0,0,1,301.4866,86)">
      <text x="0" y="11" xml:space="preserve" stroke="none" clip-path="url(#clipPath26)">storeAudioClip</text>
    </g>
    <g font-family="sans-serif" font-size="11" color-rendering="optimizeQuality" color-interpolation="linearRGB" text-rendering="optimizeLegibility" shape-rendering="geometricPrecision" image-rendering="optimizeQuality" transform="matrix(1,0,0,1,380.76390000000004,86)">
      <text x="0" y="11" xml:space="preserve" stroke="none" clip-path="url(#clipPath27)">(</text>
    </g>
    <g font-family="sans-serif" font-size="11" color-rendering="optimizeQuality" color-interpolation="linearRGB" text-rendering="optimizeLegibility" shape-rendering="geometricPrecision" image-rendering="optimizeQuality" transform="matrix(1,0,0,1,384.3411,86)">
      <text x="0" y="11" xml:space="preserve" stroke="none" clip-path="url(#clipPath28)">audioClip</text>
    </g>
    <g font-family="sans-serif" font-size="11" color-rendering="optimizeQuality" color-interpolation="linearRGB" text-rendering="optimizeLegibility" shape-rendering="geometricPrecision" image-rendering="optimizeQuality" transform="matrix(1,0,0,1,434.9959,86)">
      <text x="0" y="11" xml:space="preserve" stroke="none" clip-path="url(#clipPath29)">)</text>
    </g>
  </g>
</svg>
