<svg xmlns="http://www.w3.org/2000/svg" xml:space="preserve" version="1.1" clip-rule="evenodd" fill-rule="evenodd" image-rendering="optimizeQuality" shape-rendering="geometricPrecision" text-rendering="geometricPrecision" viewBox="0 0 260 64">
  <g id="g936">
    <path fill="#474443" id="polygon21" d="M90.18 40.811h9.646v4.771H84.294V19.497h5.885z" />
    <path fill="#474443" d="M106.234 23.99c-.975 0-1.776-.278-2.368-.836-.627-.592-.941-1.288-.941-2.124 0-.87.314-1.567.941-2.124.592-.558 1.393-.836 2.368-.836.975 0 1.776.278 2.403.836.627.557.905 1.253.905 2.124 0 .87-.278 1.567-.905 2.124-.627.558-1.428.836-2.403.836zm2.821 21.592h-5.712V26.95h5.712z" id="path23" />
    <path fill="#474443" d="M119.154 43.388h-.069v2.194h-5.747V18h5.747v11.771h.069c1.428-2.194 3.448-3.274 6.06-3.274 2.403 0 4.249.836 5.537 2.473 1.289 1.637 1.951 3.9 1.951 6.756 0 3.1-.767 5.607-2.264 7.453-1.532 1.88-3.552 2.821-6.095 2.821-2.263 0-4.005-.87-5.189-2.612zm-.139-7.836v1.916c0 1.184.348 2.194 1.01 2.96.697.8 1.602 1.184 2.682 1.184 1.288 0 2.298-.488 3.029-1.498.732-1.01 1.08-2.437 1.08-4.318 0-1.532-.313-2.751-.975-3.587-.662-.87-1.602-1.323-2.821-1.323-1.184 0-2.124.452-2.891 1.288-.731.87-1.114 1.985-1.114 3.378z" id="path25" />
    <path fill="#474443" d="M148.582 32.14c-.696-.384-1.497-.558-2.438-.558-1.253 0-2.228.453-2.925 1.358-.696.906-1.045 2.16-1.045 3.727v8.915h-5.746V26.95h5.746v3.448h.07c.905-2.507 2.542-3.796 4.91-3.796.592 0 1.08.07 1.428.244z" id="path27" />
    <path fill="#474443" d="M167.98 37.886h-12.154c.209 2.716 1.915 4.074 5.119 4.074 2.055 0 3.831-.487 5.398-1.463v4.145c-1.741.905-3.97 1.358-6.721 1.358-2.995 0-5.328-.801-7-2.473-1.637-1.671-2.473-4.005-2.473-6.965 0-3.1.906-5.537 2.682-7.348 1.811-1.811 4.005-2.716 6.617-2.716 2.716 0 4.806.8 6.303 2.402 1.463 1.637 2.229 3.831 2.229 6.583zm-5.328-3.518c0-2.681-1.08-4.005-3.239-4.005-.905 0-1.706.383-2.403 1.15-.662.766-1.08 1.706-1.219 2.855z" id="path29" />
    <path fill="#e62129" id="polygon31" d="M176.965 24.269h-7.418v-4.771h20.722v4.77h-7.453v21.314h-5.851z" />
    <path fill="#e62129" d="M196.12 23.99c-.976 0-1.777-.278-2.369-.836-.626-.592-.94-1.288-.94-2.124 0-.87.314-1.567.94-2.124.592-.558 1.393-.836 2.369-.836.975 0 1.776.278 2.403.836.626.557.905 1.253.905 2.124 0 .87-.279 1.567-.905 2.124-.627.558-1.428.836-2.403.836zm2.82 21.592h-5.711V26.95h5.711z" id="path33" />
    <path fill="#e62129" d="M232.931 45.582h-5.712V34.96c0-2.716-1.01-4.074-2.995-4.074-.94 0-1.706.418-2.298 1.219-.592.835-.906 1.845-.906 3.03v10.447h-5.746V34.856c0-2.647-.975-3.97-2.926-3.97-.975 0-1.776.383-2.368 1.184-.592.766-.87 1.81-.87 3.134v10.378h-5.747V26.95h5.747v2.926h.069c.592-1.01 1.428-1.811 2.508-2.438a6.822 6.822 0 0 1 3.517-.94c2.612 0 4.423 1.149 5.398 3.482 1.428-2.333 3.518-3.483 6.269-3.483 4.04 0 6.06 2.508 6.06 7.488z" id="path35" />
    <path fill="#e62129" d="M254 37.886h-12.154c.209 2.716 1.881 4.074 5.119 4.074 2.02 0 3.831-.487 5.364-1.463v4.145c-1.707.905-3.936 1.358-6.687 1.358-2.995 0-5.328-.801-7-2.473-1.672-1.671-2.507-4.005-2.507-6.965 0-3.1.905-5.537 2.716-7.348 1.776-1.811 3.97-2.716 6.617-2.716 2.716 0 4.806.8 6.303 2.402 1.463 1.637 2.229 3.831 2.229 6.583zm-5.328-3.518c0-2.681-1.08-4.005-3.239-4.005-.94 0-1.741.383-2.403 1.15-.662.766-1.08 1.706-1.219 2.855z" id="path37" />
  </g>
  <g id="g859">
    <path fill="#474443" d="M37.993 16.107c3.32 0 6.36 1.198 8.706 3.179l-3.438 3.444a8.687 8.687 0 0 0-10.522 0l-3.438-3.444a13.443 13.443 0 0 1 8.692-3.179zm2.08 26.966L41.711 57h-7.437l1.653-13.927a13.44 13.44 0 0 1-6.626-3.016l3.438-3.444a8.72 8.72 0 0 0 4.412 1.73v-1.73h-.84c-1.034 0-1.875-.858-1.875-1.893v-8.072c0-1.035.841-1.892 1.874-1.892h3.38c1.033 0 1.874.857 1.874 1.892v8.072c0 1.035-.84 1.893-1.874 1.893h-.84v1.73a8.72 8.72 0 0 0 4.411-1.73l3.438 3.444a13.44 13.44 0 0 1-6.626 3.016zm.118-17.312c.4 0 .723.31.723.71a.724.724 0 0 1-.723.724.722.722 0 0 1-.708-.724c0-.4.325-.71.708-.71zm-1.859.222c.28 0 .502.222.502.488 0 .28-.222.488-.502.488a.482.482 0 0 1-.487-.488c0-.266.221-.488.487-.488zm-1.55.074c.222 0 .414.192.414.414a.413.413 0 0 1-.413.414.404.404 0 0 1-.414-.414c0-.222.177-.414.414-.414zm-1.387.103c.178 0 .31.133.31.31a.303.303 0 0 1-.31.311.303.303 0 0 1-.31-.31c0-.178.133-.31.31-.31zm4.796 1.7c.4 0 .723.326.723.725 0 .384-.324.71-.723.71a.719.719 0 0 1-.708-.71c0-.4.325-.725.708-.725zm-1.859.222a.496.496 0 1 1 .014.989.496.496 0 0 1-.014-.988zm-1.55.089c.222 0 .414.177.414.414a.423.423 0 0 1-.413.414.413.413 0 0 1-.414-.414c0-.237.177-.414.414-.414zm-1.387.089c.178 0 .31.147.31.325 0 .162-.132.31-.31.31a.312.312 0 0 1-.31-.31c0-.178.133-.325.31-.325zm4.796 1.7a.725.725 0 0 1 0 1.449.722.722 0 0 1-.708-.725c0-.399.325-.724.708-.724zm-1.859.236c.28 0 .502.222.502.488a.495.495 0 0 1-.989 0c0-.266.221-.488.487-.488zm-1.55.074c.222 0 .414.192.414.414a.413.413 0 0 1-.413.414.404.404 0 0 1-.414-.414c0-.222.177-.414.414-.414zm-1.387.104c.178 0 .31.133.31.31 0 .178-.132.31-.31.31a.303.303 0 0 1-.31-.31c0-.177.133-.31.31-.31zm4.796 1.7c.4 0 .723.325.723.71a.724.724 0 0 1-.723.724.722.722 0 0 1-.708-.724c0-.385.325-.71.708-.71zm-1.859.222a.495.495 0 1 1 .014.99.495.495 0 0 1-.014-.99zm-1.55.074c.222 0 .414.192.414.414a.426.426 0 0 1-.413.428.416.416 0 0 1-.414-.428c0-.222.177-.414.414-.414zm-1.387.103c.178 0 .31.148.31.31a.315.315 0 0 1-.31.326.315.315 0 0 1-.31-.325c0-.163.133-.31.31-.31zm4.796 1.7a.725.725 0 0 1 0 1.45.722.722 0 0 1-.708-.725c0-.4.325-.725.708-.725zm-1.859.237c.28 0 .502.222.502.488a.495.495 0 0 1-.989 0c0-.266.221-.488.487-.488zm-1.55.074c.222 0 .414.177.414.414a.423.423 0 0 1-.413.414.413.413 0 0 1-.414-.414c0-.237.177-.414.414-.414zm-1.387.103c.178 0 .31.133.31.31a.303.303 0 0 1-.31.311.303.303 0 0 1-.31-.31c0-.178.133-.31.31-.31zm-3.54-11.073a8.653 8.653 0 0 0-2.554 6.15c0 2.41.974 4.583 2.553 6.165l-3.424 3.43a13.53 13.53 0 0 1-3.97-9.595c0-3.74 1.52-7.126 3.97-9.58zm15.715-3.43a13.522 13.522 0 0 1 3.97 9.58c0 3.755-1.52 7.14-3.97 9.595l-3.424-3.43a8.69 8.69 0 0 0 2.553-6.165 8.654 8.654 0 0 0-2.553-6.15z" id="path2" />
    <path fill="#e62129" d="M25.317 42.364a17.903 17.903 0 0 1-5.254-12.7 17.93 17.93 0 0 1 5.254-12.7l-3.424-3.43c-4.117 4.14-6.67 9.832-6.67 16.13a22.77 22.77 0 0 0 6.67 16.13z" id="path4" />
    <path fill="#e62129" d="M18.794 48.913a27.151 27.151 0 0 1-7.954-19.249c0-7.51 3.04-14.311 7.954-19.234L15.371 7a31.975 31.975 0 0 0-9.37 22.664 31.984 31.984 0 0 0 9.37 22.679Zm31.89-31.948a17.917 17.917 0 0 1 5.24 12.7 17.89 17.89 0 0 1-5.24 12.699l3.423 3.43a22.77 22.77 0 0 0 6.67-16.13c0-6.298-2.553-11.99-6.67-16.13z" id="path6" />
    <path fill="#e62129" d="M57.206 10.43a27.143 27.143 0 0 1 7.954 19.234c0 7.525-3.04 14.326-7.954 19.25l3.423 3.429A31.985 31.985 0 0 0 70 29.664C70 20.824 66.43 12.81 60.63 7z" id="path8" />
  </g>
</svg>
