<?xml version="1.0" encoding="UTF-8"?>

<!DOCTYPE svg PUBLIC '-//W3C//DTD SVG 1.0//EN' 'http://www.w3.org/TR/2001/REC-SVG-20010904/DTD/svg10.dtd'>
<svg color-interpolation="auto" color-rendering="auto" fill="black" fill-opacity="1" font-family="&apos;Dialog&apos;" font-size="12" font-style="normal" font-weight="normal" image-rendering="auto" shape-rendering="auto" stroke="black" stroke-dasharray="none" stroke-dashoffset="0" stroke-linecap="square" stroke-linejoin="miter" stroke-miterlimit="10" stroke-opacity="1" stroke-width="1" text-rendering="auto" xmlns="http://www.w3.org/2000/svg" xmlns:xlink="http://www.w3.org/1999/xlink">
  <!--Generated by the Batik Graphics2D SVG Generator-->
  <defs id="genericDefs" />
  <g>
    <defs id="defs1">
      <clipPath clipPathUnits="userSpaceOnUse" id="clipPath1">
        <path d="M-75 10 L-75 128 L534 128 L534 10 Z" />
      </clipPath>
      <clipPath clipPathUnits="userSpaceOnUse" id="clipPath2">
        <path d="M0 0 L0 118 L609 118 L609 0 Z" />
      </clipPath>
      <clipPath clipPathUnits="userSpaceOnUse" id="clipPath3">
        <path d="M-105 -10 L-105 108 L504 108 L504 -10 Z" />
      </clipPath>
      <clipPath clipPathUnits="userSpaceOnUse" id="clipPath4">
        <path d="M-12.40410041809082 -42 L-12.40410041809082 76 L596.5958862304688 76 L596.5958862304688 -42 Z" />
      </clipPath>
      <clipPath clipPathUnits="userSpaceOnUse" id="clipPath5">
        <path d="M-113.10140228271484 -42 L-113.10140228271484 76 L495.8985900878906 76 L495.8985900878906 -42 Z" />
      </clipPath>
      <clipPath clipPathUnits="userSpaceOnUse" id="clipPath6">
        <path d="M-116.58180236816406 -42 L-116.58180236816406 76 L492.418212890625 76 L492.418212890625 -42 Z" />
      </clipPath>
      <clipPath clipPathUnits="userSpaceOnUse" id="clipPath7">
        <path d="M-475 -10 L-475 108 L134 108 L134 -10 Z" />
      </clipPath>
      <clipPath clipPathUnits="userSpaceOnUse" id="clipPath8">
        <path d="M-481 -16 L-481 102 L128 102 L128 -16 Z" />
      </clipPath>
      <clipPath clipPathUnits="userSpaceOnUse" id="clipPath9">
        <path d="M-518.47412109375 -16 L-518.47412109375 102 L90.5259017944336 102 L90.5259017944336 -16 Z" />
      </clipPath>
      <clipPath clipPathUnits="userSpaceOnUse" id="clipPath10">
        <path d="M-521.95458984375 -16 L-521.95458984375 102 L87.04540252685547 102 L87.04540252685547 -16 Z" />
      </clipPath>
      <clipPath clipPathUnits="userSpaceOnUse" id="clipPath11">
        <path d="M-531.9937133789062 -71 L-531.9937133789062 47 L77.00630187988281 47 L77.00630187988281 -71 Z" />
      </clipPath>
      <clipPath clipPathUnits="userSpaceOnUse" id="clipPath12">
        <path d="M-241.49740600585938 -46 L-241.49740600585938 72 L367.5025939941406 72 L367.5025939941406 -46 Z" />
      </clipPath>
      <clipPath clipPathUnits="userSpaceOnUse" id="clipPath13">
        <path d="M-246.9779052734375 -46 L-246.9779052734375 72 L362.0220947265625 72 L362.0220947265625 -46 Z" />
      </clipPath>
      <clipPath clipPathUnits="userSpaceOnUse" id="clipPath14">
        <path d="M-252.4582977294922 -46 L-252.4582977294922 72 L356.54168701171875 72 L356.54168701171875 -46 Z" />
      </clipPath>
      <clipPath clipPathUnits="userSpaceOnUse" id="clipPath15">
        <path d="M-325.4245910644531 -46 L-325.4245910644531 72 L283.5754089355469 72 L283.5754089355469 -46 Z" />
      </clipPath>
      <clipPath clipPathUnits="userSpaceOnUse" id="clipPath16">
        <path d="M-337.6492004394531 -46 L-337.6492004394531 72 L271.3507995605469 72 L271.3507995605469 -46 Z" />
      </clipPath>
      <clipPath clipPathUnits="userSpaceOnUse" id="clipPath17">
        <path d="M-403.69219970703125 -46 L-403.69219970703125 72 L205.30780029296875 72 L205.30780029296875 -46 Z" />
      </clipPath>
      <clipPath clipPathUnits="userSpaceOnUse" id="clipPath18">
        <path d="M-407.269287109375 -46 L-407.269287109375 72 L201.73069763183594 72 L201.73069763183594 -46 Z" />
      </clipPath>
      <clipPath clipPathUnits="userSpaceOnUse" id="clipPath19">
        <path d="M-451.919189453125 -46 L-451.919189453125 72 L157.08079528808594 72 L157.08079528808594 -46 Z" />
      </clipPath>
      <clipPath clipPathUnits="userSpaceOnUse" id="clipPath20">
        <path d="M531.9937133789062 71 L531.9937133789062 -47 L-77.00630187988281 -47 L-77.00630187988281 71 Z" />
      </clipPath>
      <clipPath clipPathUnits="userSpaceOnUse" id="clipPath21">
        <path d="M-255.51829528808594 -82 L-255.51829528808594 36 L353.481689453125 36 L353.481689453125 -82 Z" />
      </clipPath>
      <clipPath clipPathUnits="userSpaceOnUse" id="clipPath22">
        <path d="M-260.9988098144531 -82 L-260.9988098144531 36 L348.0011901855469 36 L348.0011901855469 -82 Z" />
      </clipPath>
      <clipPath clipPathUnits="userSpaceOnUse" id="clipPath23">
        <path d="M-266.47918701171875 -82 L-266.47918701171875 36 L342.52081298828125 36 L342.52081298828125 -82 Z" />
      </clipPath>
      <clipPath clipPathUnits="userSpaceOnUse" id="clipPath24">
        <path d="M-336.222900390625 -82 L-336.222900390625 36 L272.777099609375 36 L272.777099609375 -82 Z" />
      </clipPath>
      <clipPath clipPathUnits="userSpaceOnUse" id="clipPath25">
        <path d="M-339.79998779296875 -82 L-339.79998779296875 36 L269.20001220703125 36 L269.20001220703125 -82 Z" />
      </clipPath>
      <clipPath clipPathUnits="userSpaceOnUse" id="clipPath26">
        <path d="M-387.8981018066406 -82 L-387.8981018066406 36 L221.10189819335938 36 L221.10189819335938 -82 Z" />
      </clipPath>
      <clipPath clipPathUnits="userSpaceOnUse" id="clipPath27">
        <path d="M531.9937133789062 106 L531.9937133789062 -12 L-77.00630187988281 -12 L-77.00630187988281 106 Z" />
      </clipPath>
    </defs>
    <g color-interpolation="linearRGB" color-rendering="optimizeQuality" image-rendering="optimizeQuality" shape-rendering="geometricPrecision" stroke-dasharray="5,5" stroke-linecap="butt" stroke-miterlimit="1" text-rendering="optimizeLegibility" transform="matrix(1,0,0,1,105,10)">
      <path clip-path="url(#clipPath3)" d="M10.5 48.5 L10.5 97.5" fill="none" />
    </g>
    <g color-interpolation="linearRGB" color-rendering="optimizeQuality" fill="white" image-rendering="optimizeQuality" shape-rendering="geometricPrecision" stroke="white" text-rendering="optimizeLegibility" transform="matrix(1,0,0,1,105,10)">
      <path clip-path="url(#clipPath3)" d="M10 8 C5 8 5 0 10 0 C15 0 15 8 10 8 M10 8 L10 10 M0 10 L20 10 M10 10 L10 20 M10 20 L0 30 M10 20 L20 30" stroke="none" />
    </g>
    <g color-interpolation="linearRGB" color-rendering="optimizeQuality" image-rendering="optimizeQuality" shape-rendering="geometricPrecision" stroke-linecap="butt" stroke-miterlimit="1" text-rendering="optimizeLegibility" transform="matrix(1,0,0,1,105,10)">
      <path clip-path="url(#clipPath3)" d="M10 8 C5 8 5 0 10 0 C15 0 15 8 10 8 M10 8 L10 10 M0 10 L20 10 M10 10 L10 20 M10 20 L0 30 M10 20 L20 30" fill="none" />
    </g>
    <g color-interpolation="linearRGB" color-rendering="optimizeQuality" font-family="sans-serif" font-size="11" image-rendering="optimizeQuality" shape-rendering="geometricPrecision" text-rendering="optimizeLegibility" transform="matrix(1,0,0,1,12.4041,42)">
      <text clip-path="url(#clipPath4)" stroke="none" x="0" xml:space="preserve" y="11">storage maintainer</text>
      <line clip-path="url(#clipPath4)" fill="none" x1="0" x2="100.697265625" y1="12.5" y2="12.5" />
    </g>
    <g color-interpolation="linearRGB" color-rendering="optimizeQuality" font-family="sans-serif" font-size="11" image-rendering="optimizeQuality" shape-rendering="geometricPrecision" text-rendering="optimizeLegibility" transform="matrix(1,0,0,1,113.1014,42)">
      <text clip-path="url(#clipPath5)" stroke="none" x="0" xml:space="preserve" y="11">:</text>
      <line clip-path="url(#clipPath5)" fill="none" x1="0" x2="3.48046875" y1="12.5" y2="12.5" />
    </g>
    <g color-interpolation="linearRGB" color-rendering="optimizeQuality" font-family="sans-serif" font-size="11" image-rendering="optimizeQuality" shape-rendering="geometricPrecision" text-rendering="optimizeLegibility" transform="matrix(1,0,0,1,116.5818,42)">
      <text clip-path="url(#clipPath6)" stroke="none" x="0" xml:space="preserve" y="11">Storage maintainer</text>
      <line clip-path="url(#clipPath6)" fill="none" x1="0" x2="101.01416015625" y1="12.5" y2="12.5" />
    </g>
    <g color-interpolation="linearRGB" color-rendering="optimizeQuality" fill="white" font-family="sans-serif" font-size="11" image-rendering="optimizeQuality" shape-rendering="geometricPrecision" stroke="white" text-rendering="optimizeLegibility" transform="matrix(1,0,0,1,475,10)">
      <path clip-path="url(#clipPath7)" d="M62.493648529052734 0.5 L62.493648529052734 97.5" stroke="none" />
    </g>
    <g color-interpolation="linearRGB" color-rendering="optimizeQuality" font-family="sans-serif" font-size="11" image-rendering="optimizeQuality" shape-rendering="geometricPrecision" stroke-dasharray="5,5" stroke-linecap="butt" stroke-miterlimit="1" text-rendering="optimizeLegibility" transform="matrix(1,0,0,1,475,10)">
      <path clip-path="url(#clipPath7)" d="M62.493648529052734 0.5 L62.493648529052734 97.5" fill="none" />
    </g>
    <g color-interpolation="linearRGB" color-rendering="optimizeQuality" fill="white" font-family="sans-serif" font-size="11" image-rendering="optimizeQuality" shape-rendering="geometricPrecision" stroke="white" text-rendering="optimizeLegibility" transform="matrix(1,0,0,1,475,10)">
      <path clip-path="url(#clipPath7)" d="M0.5 0.5 L123.48729705810547 0.5 L123.48729705810547 25.5 L0.5 25.5 Z" stroke="none" />
    </g>
    <g color-interpolation="linearRGB" color-rendering="optimizeQuality" font-family="sans-serif" font-size="11" image-rendering="optimizeQuality" shape-rendering="geometricPrecision" stroke-linecap="butt" stroke-miterlimit="1" text-rendering="optimizeLegibility" transform="matrix(1,0,0,1,475,10)">
      <path clip-path="url(#clipPath7)" d="M0.5 0.5 L123.48729705810547 0.5 L123.48729705810547 25.5 L0.5 25.5 Z" fill="none" />
      <text clip-path="url(#clipPath8)" stroke="none" stroke-linecap="square" stroke-miterlimit="10" transform="matrix(1,0,0,1,6,6)" x="0" xml:space="preserve" y="11">system</text>
      <line clip-path="url(#clipPath8)" fill="none" stroke-linecap="square" stroke-miterlimit="10" transform="matrix(1,0,0,1,6,6)" x1="0" x2="37.47412109375" y1="12.5" y2="12.5" />
    </g>
    <g color-interpolation="linearRGB" color-rendering="optimizeQuality" font-family="sans-serif" font-size="11" image-rendering="optimizeQuality" shape-rendering="geometricPrecision" text-rendering="optimizeLegibility" transform="matrix(1,0,0,1,518.4741,16)">
      <text clip-path="url(#clipPath9)" stroke="none" x="0" xml:space="preserve" y="11">:</text>
      <line clip-path="url(#clipPath9)" fill="none" x1="0" x2="3.48046875" y1="12.5" y2="12.5" />
    </g>
    <g color-interpolation="linearRGB" color-rendering="optimizeQuality" font-family="sans-serif" font-size="11" image-rendering="optimizeQuality" shape-rendering="geometricPrecision" text-rendering="optimizeLegibility" transform="matrix(1,0,0,1,521.9546,16)">
      <text clip-path="url(#clipPath10)" stroke="none" x="0" xml:space="preserve" y="11">Local storage</text>
      <line clip-path="url(#clipPath10)" fill="none" x1="0" x2="71.03271484375" y1="12.5" y2="12.5" />
    </g>
    <g color-interpolation="linearRGB" color-rendering="optimizeQuality" fill="white" font-family="sans-serif" font-size="11" image-rendering="optimizeQuality" shape-rendering="geometricPrecision" stroke="white" text-rendering="optimizeLegibility" transform="matrix(1,0,0,1,531.9937,71)">
      <path clip-path="url(#clipPath11)" d="M0.5 0.5 L9.5 0.5 L9.5 36.5 L0.5 36.5 Z" stroke="none" />
    </g>
    <g color-interpolation="linearRGB" color-rendering="optimizeQuality" font-family="sans-serif" font-size="11" image-rendering="optimizeQuality" shape-rendering="geometricPrecision" stroke-linecap="butt" stroke-miterlimit="1" text-rendering="optimizeLegibility" transform="matrix(1,0,0,1,531.9937,71)">
      <path clip-path="url(#clipPath11)" d="M0.5 0.5 L9.5 0.5 L9.5 36.5 L0.5 36.5 Z" fill="none" />
    </g>
    <g color-interpolation="linearRGB" color-rendering="optimizeQuality" font-family="sans-serif" font-size="11" image-rendering="optimizeQuality" shape-rendering="geometricPrecision" stroke-linecap="butt" stroke-miterlimit="1" text-rendering="optimizeLegibility" transform="matrix(1,0,0,1,75,-10)">
      <path clip-path="url(#clipPath1)" d="M456.99371337890625 81 L40 81" fill="none" />
      <text clip-path="url(#clipPath12)" stroke="none" stroke-linecap="square" stroke-miterlimit="10" transform="matrix(1,0,0,1,166.4974,56)" x="0" xml:space="preserve" y="11"> </text>
    </g>
    <g color-interpolation="linearRGB" color-rendering="optimizeQuality" font-family="sans-serif" font-size="11" image-rendering="optimizeQuality" shape-rendering="geometricPrecision" text-rendering="optimizeLegibility" transform="matrix(1,0,0,1,246.9779,46)">
      <text clip-path="url(#clipPath13)" stroke="none" x="0" xml:space="preserve" y="11">:</text>
    </g>
    <g color-interpolation="linearRGB" color-rendering="optimizeQuality" font-family="sans-serif" font-size="11" image-rendering="optimizeQuality" shape-rendering="geometricPrecision" text-rendering="optimizeLegibility" transform="matrix(1,0,0,1,252.4583,46)">
      <text clip-path="url(#clipPath14)" stroke="none" x="0" xml:space="preserve" y="11">authenticated</text>
    </g>
    <g color-interpolation="linearRGB" color-rendering="optimizeQuality" font-family="sans-serif" font-size="11" image-rendering="optimizeQuality" shape-rendering="geometricPrecision" text-rendering="optimizeLegibility" transform="matrix(1,0,0,1,325.4246,46)">
      <text clip-path="url(#clipPath15)" stroke="none" x="0" xml:space="preserve" y="11">:=</text>
    </g>
    <g color-interpolation="linearRGB" color-rendering="optimizeQuality" font-family="sans-serif" font-size="11" image-rendering="optimizeQuality" shape-rendering="geometricPrecision" text-rendering="optimizeLegibility" transform="matrix(1,0,0,1,337.6492,46)">
      <text clip-path="url(#clipPath16)" stroke="none" x="0" xml:space="preserve" y="11">authenticate</text>
    </g>
    <g color-interpolation="linearRGB" color-rendering="optimizeQuality" font-family="sans-serif" font-size="11" image-rendering="optimizeQuality" shape-rendering="geometricPrecision" text-rendering="optimizeLegibility" transform="matrix(1,0,0,1,403.6922,46)">
      <text clip-path="url(#clipPath17)" stroke="none" x="0" xml:space="preserve" y="11">(</text>
    </g>
    <g color-interpolation="linearRGB" color-rendering="optimizeQuality" font-family="sans-serif" font-size="11" image-rendering="optimizeQuality" shape-rendering="geometricPrecision" text-rendering="optimizeLegibility" transform="matrix(1,0,0,1,407.26930000000004,46)">
      <text clip-path="url(#clipPath18)" stroke="none" x="0" xml:space="preserve" y="11">authinfo</text>
    </g>
    <g color-interpolation="linearRGB" color-rendering="optimizeQuality" font-family="sans-serif" font-size="11" image-rendering="optimizeQuality" shape-rendering="geometricPrecision" text-rendering="optimizeLegibility" transform="matrix(1,0,0,1,451.91920000000005,46)">
      <text clip-path="url(#clipPath19)" stroke="none" x="0" xml:space="preserve" y="11">)</text>
    </g>
    <g color-interpolation="linearRGB" color-rendering="optimizeQuality" font-family="sans-serif" font-size="11" image-rendering="optimizeQuality" shape-rendering="geometricPrecision" text-rendering="optimizeLegibility" transform="matrix(-1,0,0,-1,531.9937,71)">
      <path clip-path="url(#clipPath20)" d="M12 -6 L0 0 L12 6 Z" stroke="none" />
      <path clip-path="url(#clipPath20)" d="M12 -6 L0 0 L12 6 Z" fill="none" />
    </g>
    <g color-interpolation="linearRGB" color-rendering="optimizeQuality" font-family="sans-serif" font-size="11" image-rendering="optimizeQuality" shape-rendering="geometricPrecision" stroke-linecap="butt" stroke-miterlimit="1" text-rendering="optimizeLegibility" transform="matrix(1,0,0,1,75,-10)">
      <path clip-path="url(#clipPath1)" d="M456.99371337890625 116 L40 116" fill="none" />
      <text clip-path="url(#clipPath21)" stroke="none" stroke-linecap="square" stroke-miterlimit="10" transform="matrix(1,0,0,1,180.5183,92)" x="0" xml:space="preserve" y="11"> </text>
    </g>
    <g color-interpolation="linearRGB" color-rendering="optimizeQuality" font-family="sans-serif" font-size="11" image-rendering="optimizeQuality" shape-rendering="geometricPrecision" text-rendering="optimizeLegibility" transform="matrix(1,0,0,1,260.9988,82)">
      <text clip-path="url(#clipPath22)" stroke="none" x="0" xml:space="preserve" y="11">:</text>
    </g>
    <g color-interpolation="linearRGB" color-rendering="optimizeQuality" font-family="sans-serif" font-size="11" image-rendering="optimizeQuality" shape-rendering="geometricPrecision" text-rendering="optimizeLegibility" transform="matrix(1,0,0,1,266.4792,82)">
      <text clip-path="url(#clipPath23)" stroke="none" x="0" xml:space="preserve" y="11">createPlaylist</text>
    </g>
    <g color-interpolation="linearRGB" color-rendering="optimizeQuality" font-family="sans-serif" font-size="11" image-rendering="optimizeQuality" shape-rendering="geometricPrecision" text-rendering="optimizeLegibility" transform="matrix(1,0,0,1,336.2229,82)">
      <text clip-path="url(#clipPath24)" stroke="none" x="0" xml:space="preserve" y="11">(</text>
    </g>
    <g color-interpolation="linearRGB" color-rendering="optimizeQuality" font-family="sans-serif" font-size="11" image-rendering="optimizeQuality" shape-rendering="geometricPrecision" text-rendering="optimizeLegibility" transform="matrix(1,0,0,1,339.8,82)">
      <text clip-path="url(#clipPath25)" stroke="none" x="0" xml:space="preserve" y="11">playlistId</text>
    </g>
    <g color-interpolation="linearRGB" color-rendering="optimizeQuality" font-family="sans-serif" font-size="11" image-rendering="optimizeQuality" shape-rendering="geometricPrecision" text-rendering="optimizeLegibility" transform="matrix(1,0,0,1,387.8981,82)">
      <text clip-path="url(#clipPath26)" stroke="none" x="0" xml:space="preserve" y="11">)</text>
    </g>
    <g color-interpolation="linearRGB" color-rendering="optimizeQuality" font-family="sans-serif" font-size="11" image-rendering="optimizeQuality" shape-rendering="geometricPrecision" text-rendering="optimizeLegibility" transform="matrix(-1,8.881784197001252E-16,-8.881784197001252E-16,-1,531.9937,106)">
      <path clip-path="url(#clipPath27)" d="M12 -6 L0 0 L12 6 Z" stroke="none" />
      <path clip-path="url(#clipPath27)" d="M12 -6 L0 0 L12 6 Z" fill="none" />
    </g>
  </g>
</svg>
