<?xml version="1.0" encoding="UTF-8"?>

<!DOCTYPE svg PUBLIC '-//W3C//DTD SVG 1.0//EN' 'http://www.w3.org/TR/2001/REC-SVG-20010904/DTD/svg10.dtd'>
<svg color-interpolation="auto" color-rendering="auto" fill="black" fill-opacity="1" font-family="&apos;Dialog&apos;" font-size="12" font-style="normal" font-weight="normal" image-rendering="auto" shape-rendering="auto" stroke="black" stroke-dasharray="none" stroke-dashoffset="0" stroke-linecap="square" stroke-linejoin="miter" stroke-miterlimit="10" stroke-opacity="1" stroke-width="1" text-rendering="auto" xmlns="http://www.w3.org/2000/svg" xmlns:xlink="http://www.w3.org/1999/xlink">
  <!--Generated by the Batik Graphics2D SVG Generator-->
  <defs id="genericDefs" />
  <g>
    <defs id="defs1">
      <clipPath clipPathUnits="userSpaceOnUse" id="clipPath1">
        <path d="M-85 10 L-85 141 L504 141 L504 10 Z" />
      </clipPath>
      <clipPath clipPathUnits="userSpaceOnUse" id="clipPath2">
        <path d="M0 0 L0 131 L589 131 L589 0 Z" />
      </clipPath>
      <clipPath clipPathUnits="userSpaceOnUse" id="clipPath3">
        <path d="M-105 -10 L-105 121 L484 121 L484 -10 Z" />
      </clipPath>
      <clipPath clipPathUnits="userSpaceOnUse" id="clipPath4">
        <path d="M-12.40410041809082 -42 L-12.40410041809082 89 L576.5958862304688 89 L576.5958862304688 -42 Z" />
      </clipPath>
      <clipPath clipPathUnits="userSpaceOnUse" id="clipPath5">
        <path d="M-113.10140228271484 -42 L-113.10140228271484 89 L475.8985900878906 89 L475.8985900878906 -42 Z" />
      </clipPath>
      <clipPath clipPathUnits="userSpaceOnUse" id="clipPath6">
        <path d="M-116.58180236816406 -42 L-116.58180236816406 89 L472.418212890625 89 L472.418212890625 -42 Z" />
      </clipPath>
      <clipPath clipPathUnits="userSpaceOnUse" id="clipPath7">
        <path d="M-455 -10 L-455 121 L134 121 L134 -10 Z" />
      </clipPath>
      <clipPath clipPathUnits="userSpaceOnUse" id="clipPath8">
        <path d="M-461 -16 L-461 115 L128 115 L128 -16 Z" />
      </clipPath>
      <clipPath clipPathUnits="userSpaceOnUse" id="clipPath9">
        <path d="M-498.4740905761719 -16 L-498.4740905761719 115 L90.5259017944336 115 L90.5259017944336 -16 Z" />
      </clipPath>
      <clipPath clipPathUnits="userSpaceOnUse" id="clipPath10">
        <path d="M-501.95458984375 -16 L-501.95458984375 115 L87.04540252685547 115 L87.04540252685547 -16 Z" />
      </clipPath>
      <clipPath clipPathUnits="userSpaceOnUse" id="clipPath11">
        <path d="M-511.99371337890625 -75 L-511.99371337890625 56 L77.00630187988281 56 L77.00630187988281 -75 Z" />
      </clipPath>
      <clipPath clipPathUnits="userSpaceOnUse" id="clipPath12">
        <path d="M-246.5406951904297 -52 L-246.5406951904297 79 L342.45928955078125 79 L342.45928955078125 -52 Z" />
      </clipPath>
      <clipPath clipPathUnits="userSpaceOnUse" id="clipPath13">
        <path d="M-252.0211944580078 -52 L-252.0211944580078 79 L336.9787902832031 79 L336.9787902832031 -52 Z" />
      </clipPath>
      <clipPath clipPathUnits="userSpaceOnUse" id="clipPath14">
        <path d="M-257.5015869140625 -52 L-257.5015869140625 79 L331.4984130859375 79 L331.4984130859375 -52 Z" />
      </clipPath>
      <clipPath clipPathUnits="userSpaceOnUse" id="clipPath15">
        <path d="M-330.4678955078125 -52 L-330.4678955078125 79 L258.5321044921875 79 L258.5321044921875 -52 Z" />
      </clipPath>
      <clipPath clipPathUnits="userSpaceOnUse" id="clipPath16">
        <path d="M-342.6925048828125 -52 L-342.6925048828125 79 L246.3074951171875 79 L246.3074951171875 -52 Z" />
      </clipPath>
      <clipPath clipPathUnits="userSpaceOnUse" id="clipPath17">
        <path d="M-408.7355041503906 -52 L-408.7355041503906 79 L180.26449584960938 79 L180.26449584960938 -52 Z" />
      </clipPath>
      <clipPath clipPathUnits="userSpaceOnUse" id="clipPath18">
        <path d="M-412.3125915527344 -52 L-412.3125915527344 79 L176.68739318847656 79 L176.68739318847656 -52 Z" />
      </clipPath>
      <clipPath clipPathUnits="userSpaceOnUse" id="clipPath19">
        <path d="M-456.9624938964844 -52 L-456.9624938964844 79 L132.03750610351562 79 L132.03750610351562 -52 Z" />
      </clipPath>
      <clipPath clipPathUnits="userSpaceOnUse" id="clipPath20">
        <path d="M511.99371337890625 75 L511.99371337890625 -56 L-77.00630187988281 -56 L-77.00630187988281 75 Z" />
      </clipPath>
      <clipPath clipPathUnits="userSpaceOnUse" id="clipPath21">
        <path d="M-281.5075988769531 -85 L-281.5075988769531 46 L307.4924011230469 46 L307.4924011230469 -85 Z" />
      </clipPath>
      <clipPath clipPathUnits="userSpaceOnUse" id="clipPath22">
        <path d="M-286.98809814453125 -85 L-286.98809814453125 46 L302.01190185546875 46 L302.01190185546875 -85 Z" />
      </clipPath>
      <clipPath clipPathUnits="userSpaceOnUse" id="clipPath23">
        <path d="M-292.468505859375 -85 L-292.468505859375 46 L296.531494140625 46 L296.531494140625 -85 Z" />
      </clipPath>
      <clipPath clipPathUnits="userSpaceOnUse" id="clipPath24">
        <path d="M-362.2336120605469 -85 L-362.2336120605469 46 L226.7664031982422 46 L226.7664031982422 -85 Z" />
      </clipPath>
      <clipPath clipPathUnits="userSpaceOnUse" id="clipPath25">
        <path d="M-365.810791015625 -85 L-365.810791015625 46 L223.18919372558594 46 L223.18919372558594 -85 Z" />
      </clipPath>
      <clipPath clipPathUnits="userSpaceOnUse" id="clipPath26">
        <path d="M-413.9089050292969 -85 L-413.9089050292969 46 L175.09109497070312 46 L175.09109497070312 -85 Z" />
      </clipPath>
      <clipPath clipPathUnits="userSpaceOnUse" id="clipPath27">
        <path d="M511.99371337890625 110 L511.99371337890625 -21 L-77.00630187988281 -21 L-77.00630187988281 110 Z" />
      </clipPath>
    </defs>
    <g color-interpolation="linearRGB" color-rendering="optimizeQuality" image-rendering="optimizeQuality" shape-rendering="geometricPrecision" stroke-dasharray="5,5" stroke-linecap="butt" stroke-miterlimit="1" text-rendering="optimizeLegibility" transform="matrix(1,0,0,1,105,10)">
      <path clip-path="url(#clipPath3)" d="M10.5 48.5 L10.5 101.5" fill="none" />
    </g>
    <g color-interpolation="linearRGB" color-rendering="optimizeQuality" fill="white" image-rendering="optimizeQuality" shape-rendering="geometricPrecision" stroke="white" text-rendering="optimizeLegibility" transform="matrix(1,0,0,1,105,10)">
      <path clip-path="url(#clipPath3)" d="M10 8 C5 8 5 0 10 0 C15 0 15 8 10 8 M10 8 L10 10 M0 10 L20 10 M10 10 L10 20 M10 20 L0 30 M10 20 L20 30" stroke="none" />
    </g>
    <g color-interpolation="linearRGB" color-rendering="optimizeQuality" image-rendering="optimizeQuality" shape-rendering="geometricPrecision" stroke-linecap="butt" stroke-miterlimit="1" text-rendering="optimizeLegibility" transform="matrix(1,0,0,1,105,10)">
      <path clip-path="url(#clipPath3)" d="M10 8 C5 8 5 0 10 0 C15 0 15 8 10 8 M10 8 L10 10 M0 10 L20 10 M10 10 L10 20 M10 20 L0 30 M10 20 L20 30" fill="none" />
    </g>
    <g color-interpolation="linearRGB" color-rendering="optimizeQuality" font-family="sans-serif" font-size="11" image-rendering="optimizeQuality" shape-rendering="geometricPrecision" text-rendering="optimizeLegibility" transform="matrix(1,0,0,1,12.4041,42)">
      <text clip-path="url(#clipPath4)" stroke="none" x="0" xml:space="preserve" y="11">storage maintainer</text>
      <line clip-path="url(#clipPath4)" fill="none" x1="0" x2="100.697265625" y1="12.5" y2="12.5" />
    </g>
    <g color-interpolation="linearRGB" color-rendering="optimizeQuality" font-family="sans-serif" font-size="11" image-rendering="optimizeQuality" shape-rendering="geometricPrecision" text-rendering="optimizeLegibility" transform="matrix(1,0,0,1,113.1014,42)">
      <text clip-path="url(#clipPath5)" stroke="none" x="0" xml:space="preserve" y="11">:</text>
      <line clip-path="url(#clipPath5)" fill="none" x1="0" x2="3.48046875" y1="12.5" y2="12.5" />
    </g>
    <g color-interpolation="linearRGB" color-rendering="optimizeQuality" font-family="sans-serif" font-size="11" image-rendering="optimizeQuality" shape-rendering="geometricPrecision" text-rendering="optimizeLegibility" transform="matrix(1,0,0,1,116.5818,42)">
      <text clip-path="url(#clipPath6)" stroke="none" x="0" xml:space="preserve" y="11">Storage maintainer</text>
      <line clip-path="url(#clipPath6)" fill="none" x1="0" x2="101.01416015625" y1="12.5" y2="12.5" />
    </g>
    <g color-interpolation="linearRGB" color-rendering="optimizeQuality" fill="white" font-family="sans-serif" font-size="11" image-rendering="optimizeQuality" shape-rendering="geometricPrecision" stroke="white" text-rendering="optimizeLegibility" transform="matrix(1,0,0,1,455,10)">
      <path clip-path="url(#clipPath7)" d="M62.493648529052734 0.5 L62.493648529052734 110.5" stroke="none" />
    </g>
    <g color-interpolation="linearRGB" color-rendering="optimizeQuality" font-family="sans-serif" font-size="11" image-rendering="optimizeQuality" shape-rendering="geometricPrecision" stroke-dasharray="5,5" stroke-linecap="butt" stroke-miterlimit="1" text-rendering="optimizeLegibility" transform="matrix(1,0,0,1,455,10)">
      <path clip-path="url(#clipPath7)" d="M62.493648529052734 0.5 L62.493648529052734 110.5" fill="none" />
    </g>
    <g color-interpolation="linearRGB" color-rendering="optimizeQuality" fill="white" font-family="sans-serif" font-size="11" image-rendering="optimizeQuality" shape-rendering="geometricPrecision" stroke="white" text-rendering="optimizeLegibility" transform="matrix(1,0,0,1,455,10)">
      <path clip-path="url(#clipPath7)" d="M0.5 0.5 L123.48729705810547 0.5 L123.48729705810547 25.5 L0.5 25.5 Z" stroke="none" />
    </g>
    <g color-interpolation="linearRGB" color-rendering="optimizeQuality" font-family="sans-serif" font-size="11" image-rendering="optimizeQuality" shape-rendering="geometricPrecision" stroke-linecap="butt" stroke-miterlimit="1" text-rendering="optimizeLegibility" transform="matrix(1,0,0,1,455,10)">
      <path clip-path="url(#clipPath7)" d="M0.5 0.5 L123.48729705810547 0.5 L123.48729705810547 25.5 L0.5 25.5 Z" fill="none" />
      <text clip-path="url(#clipPath8)" stroke="none" stroke-linecap="square" stroke-miterlimit="10" transform="matrix(1,0,0,1,6,6)" x="0" xml:space="preserve" y="11">system</text>
      <line clip-path="url(#clipPath8)" fill="none" stroke-linecap="square" stroke-miterlimit="10" transform="matrix(1,0,0,1,6,6)" x1="0" x2="37.47412109375" y1="12.5" y2="12.5" />
    </g>
    <g color-interpolation="linearRGB" color-rendering="optimizeQuality" font-family="sans-serif" font-size="11" image-rendering="optimizeQuality" shape-rendering="geometricPrecision" text-rendering="optimizeLegibility" transform="matrix(1,0,0,1,498.4741,16)">
      <text clip-path="url(#clipPath9)" stroke="none" x="0" xml:space="preserve" y="11">:</text>
      <line clip-path="url(#clipPath9)" fill="none" x1="0" x2="3.48046875" y1="12.5" y2="12.5" />
    </g>
    <g color-interpolation="linearRGB" color-rendering="optimizeQuality" font-family="sans-serif" font-size="11" image-rendering="optimizeQuality" shape-rendering="geometricPrecision" text-rendering="optimizeLegibility" transform="matrix(1,0,0,1,501.9546,16)">
      <text clip-path="url(#clipPath10)" stroke="none" x="0" xml:space="preserve" y="11">Local storage</text>
      <line clip-path="url(#clipPath10)" fill="none" x1="0" x2="71.03271484375" y1="12.5" y2="12.5" />
    </g>
    <g color-interpolation="linearRGB" color-rendering="optimizeQuality" fill="white" font-family="sans-serif" font-size="11" image-rendering="optimizeQuality" shape-rendering="geometricPrecision" stroke="white" text-rendering="optimizeLegibility" transform="matrix(1,0,0,1,511.9937,75)">
      <path clip-path="url(#clipPath11)" d="M0.5 0.5 L9.5 0.5 L9.5 45.5 L0.5 45.5 Z" stroke="none" />
    </g>
    <g color-interpolation="linearRGB" color-rendering="optimizeQuality" font-family="sans-serif" font-size="11" image-rendering="optimizeQuality" shape-rendering="geometricPrecision" stroke-linecap="butt" stroke-miterlimit="1" text-rendering="optimizeLegibility" transform="matrix(1,0,0,1,511.9937,75)">
      <path clip-path="url(#clipPath11)" d="M0.5 0.5 L9.5 0.5 L9.5 45.5 L0.5 45.5 Z" fill="none" />
    </g>
    <g color-interpolation="linearRGB" color-rendering="optimizeQuality" font-family="sans-serif" font-size="11" image-rendering="optimizeQuality" shape-rendering="geometricPrecision" stroke-linecap="butt" stroke-miterlimit="1" text-rendering="optimizeLegibility" transform="matrix(1,0,0,1,85,-10)">
      <path clip-path="url(#clipPath1)" d="M426.99371337890625 85 L30 85" fill="none" />
      <text clip-path="url(#clipPath12)" stroke="none" stroke-linecap="square" stroke-miterlimit="10" transform="matrix(1,0,0,1,161.5407,62)" x="0" xml:space="preserve" y="11"> </text>
    </g>
    <g color-interpolation="linearRGB" color-rendering="optimizeQuality" font-family="sans-serif" font-size="11" image-rendering="optimizeQuality" shape-rendering="geometricPrecision" text-rendering="optimizeLegibility" transform="matrix(1,0,0,1,252.0212,52)">
      <text clip-path="url(#clipPath13)" stroke="none" x="0" xml:space="preserve" y="11">:</text>
    </g>
    <g color-interpolation="linearRGB" color-rendering="optimizeQuality" font-family="sans-serif" font-size="11" image-rendering="optimizeQuality" shape-rendering="geometricPrecision" text-rendering="optimizeLegibility" transform="matrix(1,0,0,1,257.5016,52)">
      <text clip-path="url(#clipPath14)" stroke="none" x="0" xml:space="preserve" y="11">authenticated</text>
    </g>
    <g color-interpolation="linearRGB" color-rendering="optimizeQuality" font-family="sans-serif" font-size="11" image-rendering="optimizeQuality" shape-rendering="geometricPrecision" text-rendering="optimizeLegibility" transform="matrix(1,0,0,1,330.4679,52)">
      <text clip-path="url(#clipPath15)" stroke="none" x="0" xml:space="preserve" y="11">:=</text>
    </g>
    <g color-interpolation="linearRGB" color-rendering="optimizeQuality" font-family="sans-serif" font-size="11" image-rendering="optimizeQuality" shape-rendering="geometricPrecision" text-rendering="optimizeLegibility" transform="matrix(1,0,0,1,342.6925,52)">
      <text clip-path="url(#clipPath16)" stroke="none" x="0" xml:space="preserve" y="11">authenticate</text>
    </g>
    <g color-interpolation="linearRGB" color-rendering="optimizeQuality" font-family="sans-serif" font-size="11" image-rendering="optimizeQuality" shape-rendering="geometricPrecision" text-rendering="optimizeLegibility" transform="matrix(1,0,0,1,408.7355,52)">
      <text clip-path="url(#clipPath17)" stroke="none" x="0" xml:space="preserve" y="11">(</text>
    </g>
    <g color-interpolation="linearRGB" color-rendering="optimizeQuality" font-family="sans-serif" font-size="11" image-rendering="optimizeQuality" shape-rendering="geometricPrecision" text-rendering="optimizeLegibility" transform="matrix(1,0,0,1,412.3126,52)">
      <text clip-path="url(#clipPath18)" stroke="none" x="0" xml:space="preserve" y="11">authinfo</text>
    </g>
    <g color-interpolation="linearRGB" color-rendering="optimizeQuality" font-family="sans-serif" font-size="11" image-rendering="optimizeQuality" shape-rendering="geometricPrecision" text-rendering="optimizeLegibility" transform="matrix(1,0,0,1,456.9625,52)">
      <text clip-path="url(#clipPath19)" stroke="none" x="0" xml:space="preserve" y="11">)</text>
    </g>
    <g color-interpolation="linearRGB" color-rendering="optimizeQuality" font-family="sans-serif" font-size="11" image-rendering="optimizeQuality" shape-rendering="geometricPrecision" text-rendering="optimizeLegibility" transform="matrix(-1,0,0,-1,511.9937,75)">
      <path clip-path="url(#clipPath20)" d="M12 -6 L0 0 L12 6 Z" stroke="none" />
      <path clip-path="url(#clipPath20)" d="M12 -6 L0 0 L12 6 Z" fill="none" />
    </g>
    <g color-interpolation="linearRGB" color-rendering="optimizeQuality" font-family="sans-serif" font-size="11" image-rendering="optimizeQuality" shape-rendering="geometricPrecision" stroke-linecap="butt" stroke-miterlimit="1" text-rendering="optimizeLegibility" transform="matrix(1,0,0,1,85,-10)">
      <path clip-path="url(#clipPath1)" d="M426.99371337890625 120 L30 120" fill="none" />
      <text clip-path="url(#clipPath21)" stroke="none" stroke-linecap="square" stroke-miterlimit="10" transform="matrix(1,0,0,1,196.5076,95)" x="0" xml:space="preserve" y="11"> </text>
    </g>
    <g color-interpolation="linearRGB" color-rendering="optimizeQuality" font-family="sans-serif" font-size="11" image-rendering="optimizeQuality" shape-rendering="geometricPrecision" text-rendering="optimizeLegibility" transform="matrix(1,0,0,1,286.98810000000003,85)">
      <text clip-path="url(#clipPath22)" stroke="none" x="0" xml:space="preserve" y="11">:</text>
    </g>
    <g color-interpolation="linearRGB" color-rendering="optimizeQuality" font-family="sans-serif" font-size="11" image-rendering="optimizeQuality" shape-rendering="geometricPrecision" text-rendering="optimizeLegibility" transform="matrix(1,0,0,1,292.4685,85)">
      <text clip-path="url(#clipPath23)" stroke="none" x="0" xml:space="preserve" y="11">deletePlaylist</text>
    </g>
    <g color-interpolation="linearRGB" color-rendering="optimizeQuality" font-family="sans-serif" font-size="11" image-rendering="optimizeQuality" shape-rendering="geometricPrecision" text-rendering="optimizeLegibility" transform="matrix(1,0,0,1,362.2336,85)">
      <text clip-path="url(#clipPath24)" stroke="none" x="0" xml:space="preserve" y="11">(</text>
    </g>
    <g color-interpolation="linearRGB" color-rendering="optimizeQuality" font-family="sans-serif" font-size="11" image-rendering="optimizeQuality" shape-rendering="geometricPrecision" text-rendering="optimizeLegibility" transform="matrix(1,0,0,1,365.8108,85)">
      <text clip-path="url(#clipPath25)" stroke="none" x="0" xml:space="preserve" y="11">playlistId</text>
    </g>
    <g color-interpolation="linearRGB" color-rendering="optimizeQuality" font-family="sans-serif" font-size="11" image-rendering="optimizeQuality" shape-rendering="geometricPrecision" text-rendering="optimizeLegibility" transform="matrix(1,0,0,1,413.9089,85)">
      <text clip-path="url(#clipPath26)" stroke="none" x="0" xml:space="preserve" y="11">)</text>
    </g>
    <g color-interpolation="linearRGB" color-rendering="optimizeQuality" font-family="sans-serif" font-size="11" image-rendering="optimizeQuality" shape-rendering="geometricPrecision" text-rendering="optimizeLegibility" transform="matrix(-1,4.884981308350689E-15,-4.884981308350689E-15,-1,511.9937,110)">
      <path clip-path="url(#clipPath27)" d="M12 -6 L0 0 L12 6 Z" stroke="none" />
      <path clip-path="url(#clipPath27)" d="M12 -6 L0 0 L12 6 Z" fill="none" />
    </g>
  </g>
</svg>
