<?xml version="1.0" encoding="UTF-8"?>

<!DOCTYPE svg PUBLIC '-//W3C//DTD SVG 1.0//EN' 'http://www.w3.org/TR/2001/REC-SVG-20010904/DTD/svg10.dtd'>
<svg color-interpolation="auto" color-rendering="auto" fill="black" fill-opacity="1" font-family="&apos;Dialog&apos;" font-size="12" font-style="normal" font-weight="normal" image-rendering="auto" shape-rendering="auto" stroke="black" stroke-dasharray="none" stroke-dashoffset="0" stroke-linecap="square" stroke-linejoin="miter" stroke-miterlimit="10" stroke-opacity="1" stroke-width="1" text-rendering="auto" xmlns="http://www.w3.org/2000/svg" xmlns:xlink="http://www.w3.org/1999/xlink">
  <!--Generated by the Batik Graphics2D SVG Generator-->
  <defs id="genericDefs" />
  <g>
    <defs id="defs1">
      <clipPath clipPathUnits="userSpaceOnUse" id="clipPath1">
        <path d="M-85 10 L-85 171 L534 171 L534 10 Z" />
      </clipPath>
      <clipPath clipPathUnits="userSpaceOnUse" id="clipPath2">
        <path d="M0 0 L0 161 L619 161 L619 0 Z" />
      </clipPath>
      <clipPath clipPathUnits="userSpaceOnUse" id="clipPath3">
        <path d="M-105 -10 L-105 151 L514 151 L514 -10 Z" />
      </clipPath>
      <clipPath clipPathUnits="userSpaceOnUse" id="clipPath4">
        <path d="M-12.40410041809082 -42 L-12.40410041809082 119 L606.5958862304688 119 L606.5958862304688 -42 Z" />
      </clipPath>
      <clipPath clipPathUnits="userSpaceOnUse" id="clipPath5">
        <path d="M-113.10140228271484 -42 L-113.10140228271484 119 L505.8985900878906 119 L505.8985900878906 -42 Z" />
      </clipPath>
      <clipPath clipPathUnits="userSpaceOnUse" id="clipPath6">
        <path d="M-116.58180236816406 -42 L-116.58180236816406 119 L502.418212890625 119 L502.418212890625 -42 Z" />
      </clipPath>
      <clipPath clipPathUnits="userSpaceOnUse" id="clipPath7">
        <path d="M-485 -10 L-485 151 L134 151 L134 -10 Z" />
      </clipPath>
      <clipPath clipPathUnits="userSpaceOnUse" id="clipPath8">
        <path d="M-491 -16 L-491 145 L128 145 L128 -16 Z" />
      </clipPath>
      <clipPath clipPathUnits="userSpaceOnUse" id="clipPath9">
        <path d="M-528.47412109375 -16 L-528.47412109375 145 L90.52587890625 145 L90.52587890625 -16 Z" />
      </clipPath>
      <clipPath clipPathUnits="userSpaceOnUse" id="clipPath10">
        <path d="M-531.95458984375 -16 L-531.95458984375 145 L87.04541015625 145 L87.04541015625 -16 Z" />
      </clipPath>
      <clipPath clipPathUnits="userSpaceOnUse" id="clipPath11">
        <path d="M-541.9937133789062 -75 L-541.9937133789062 86 L77.00630187988281 86 L77.00630187988281 -75 Z" />
      </clipPath>
      <clipPath clipPathUnits="userSpaceOnUse" id="clipPath12">
        <path d="M-253.21099853515625 -51 L-253.21099853515625 110 L365.78900146484375 110 L365.78900146484375 -51 Z" />
      </clipPath>
      <clipPath clipPathUnits="userSpaceOnUse" id="clipPath13">
        <path d="M-258.6914978027344 -51 L-258.6914978027344 110 L360.3085021972656 110 L360.3085021972656 -51 Z" />
      </clipPath>
      <clipPath clipPathUnits="userSpaceOnUse" id="clipPath14">
        <path d="M-264.1719055175781 -51 L-264.1719055175781 110 L354.8280944824219 110 L354.8280944824219 -51 Z" />
      </clipPath>
      <clipPath clipPathUnits="userSpaceOnUse" id="clipPath15">
        <path d="M-337.1382141113281 -51 L-337.1382141113281 110 L281.8617858886719 110 L281.8617858886719 -51 Z" />
      </clipPath>
      <clipPath clipPathUnits="userSpaceOnUse" id="clipPath16">
        <path d="M-349.36279296875 -51 L-349.36279296875 110 L269.63720703125 110 L269.63720703125 -51 Z" />
      </clipPath>
      <clipPath clipPathUnits="userSpaceOnUse" id="clipPath17">
        <path d="M-415.4057922363281 -51 L-415.4057922363281 110 L203.5941925048828 110 L203.5941925048828 -51 Z" />
      </clipPath>
      <clipPath clipPathUnits="userSpaceOnUse" id="clipPath18">
        <path d="M-418.98291015625 -51 L-418.98291015625 110 L200.01710510253906 110 L200.01710510253906 -51 Z" />
      </clipPath>
      <clipPath clipPathUnits="userSpaceOnUse" id="clipPath19">
        <path d="M-463.6328125 -51 L-463.6328125 110 L155.36720275878906 110 L155.36720275878906 -51 Z" />
      </clipPath>
      <clipPath clipPathUnits="userSpaceOnUse" id="clipPath20">
        <path d="M541.9937133789062 75 L541.9937133789062 -86 L-77.00630187988281 -86 L-77.00630187988281 75 Z" />
      </clipPath>
      <clipPath clipPathUnits="userSpaceOnUse" id="clipPath21">
        <path d="M-270.52081298828125 -86 L-270.52081298828125 75 L348.47918701171875 75 L348.47918701171875 -86 Z" />
      </clipPath>
      <clipPath clipPathUnits="userSpaceOnUse" id="clipPath22">
        <path d="M-276.0013122558594 -86 L-276.0013122558594 75 L342.9986877441406 75 L342.9986877441406 -86 Z" />
      </clipPath>
      <clipPath clipPathUnits="userSpaceOnUse" id="clipPath23">
        <path d="M-281.481689453125 -86 L-281.481689453125 75 L337.518310546875 75 L337.518310546875 -86 Z" />
      </clipPath>
      <clipPath clipPathUnits="userSpaceOnUse" id="clipPath24">
        <path d="M-319.48760986328125 -86 L-319.48760986328125 75 L299.51239013671875 75 L299.51239013671875 -86 Z" />
      </clipPath>
      <clipPath clipPathUnits="userSpaceOnUse" id="clipPath25">
        <path d="M-331.7121887207031 -86 L-331.7121887207031 75 L287.2878112792969 75 L287.2878112792969 -86 Z" />
      </clipPath>
      <clipPath clipPathUnits="userSpaceOnUse" id="clipPath26">
        <path d="M-389.2204895019531 -86 L-389.2204895019531 75 L229.7794952392578 75 L229.7794952392578 -86 Z" />
      </clipPath>
      <clipPath clipPathUnits="userSpaceOnUse" id="clipPath27">
        <path d="M-392.797607421875 -86 L-392.797607421875 75 L226.202392578125 75 L226.202392578125 -86 Z" />
      </clipPath>
      <clipPath clipPathUnits="userSpaceOnUse" id="clipPath28">
        <path d="M-440.89581298828125 -86 L-440.89581298828125 75 L178.1042022705078 75 L178.1042022705078 -86 Z" />
      </clipPath>
      <clipPath clipPathUnits="userSpaceOnUse" id="clipPath29">
        <path d="M541.9937133789062 110 L541.9937133789062 -51 L-77.00630187988281 -51 L-77.00630187988281 110 Z" />
      </clipPath>
      <clipPath clipPathUnits="userSpaceOnUse" id="clipPath30">
        <path d="M-304.10308837890625 -121 L-304.10308837890625 40 L314.89691162109375 40 L314.89691162109375 -121 Z" />
      </clipPath>
      <clipPath clipPathUnits="userSpaceOnUse" id="clipPath31">
        <path d="M-309.5835876464844 -121 L-309.5835876464844 40 L309.4164123535156 40 L309.4164123535156 -121 Z" />
      </clipPath>
      <clipPath clipPathUnits="userSpaceOnUse" id="clipPath32">
        <path d="M-315.0639953613281 -121 L-315.0639953613281 40 L303.9360046386719 40 L303.9360046386719 -121 Z" />
      </clipPath>
      <clipPath clipPathUnits="userSpaceOnUse" id="clipPath33">
        <path d="M-375.7304992675781 -121 L-375.7304992675781 40 L243.26950073242188 40 L243.26950073242188 -121 Z" />
      </clipPath>
      <clipPath clipPathUnits="userSpaceOnUse" id="clipPath34">
        <path d="M-379.3077087402344 -121 L-379.3077087402344 40 L239.6923065185547 40 L239.6923065185547 -121 Z" />
      </clipPath>
      <clipPath clipPathUnits="userSpaceOnUse" id="clipPath35">
        <path d="M-417.3135070800781 -121 L-417.3135070800781 40 L201.68649291992188 40 L201.68649291992188 -121 Z" />
      </clipPath>
      <clipPath clipPathUnits="userSpaceOnUse" id="clipPath36">
        <path d="M541.9937133789062 145 L541.9937133789062 -16 L-77.00630187988281 -16 L-77.00630187988281 145 Z" />
      </clipPath>
    </defs>
    <g color-interpolation="linearRGB" color-rendering="optimizeQuality" image-rendering="optimizeQuality" shape-rendering="geometricPrecision" stroke-dasharray="5,5" stroke-linecap="butt" stroke-miterlimit="1" text-rendering="optimizeLegibility" transform="matrix(1,0,0,1,105,10)">
      <path clip-path="url(#clipPath3)" d="M10.5 48.5 L10.5 136.5" fill="none" />
    </g>
    <g color-interpolation="linearRGB" color-rendering="optimizeQuality" fill="white" image-rendering="optimizeQuality" shape-rendering="geometricPrecision" stroke="white" text-rendering="optimizeLegibility" transform="matrix(1,0,0,1,105,10)">
      <path clip-path="url(#clipPath3)" d="M10 8 C5 8 5 0 10 0 C15 0 15 8 10 8 M10 8 L10 10 M0 10 L20 10 M10 10 L10 20 M10 20 L0 30 M10 20 L20 30" stroke="none" />
    </g>
    <g color-interpolation="linearRGB" color-rendering="optimizeQuality" image-rendering="optimizeQuality" shape-rendering="geometricPrecision" stroke-linecap="butt" stroke-miterlimit="1" text-rendering="optimizeLegibility" transform="matrix(1,0,0,1,105,10)">
      <path clip-path="url(#clipPath3)" d="M10 8 C5 8 5 0 10 0 C15 0 15 8 10 8 M10 8 L10 10 M0 10 L20 10 M10 10 L10 20 M10 20 L0 30 M10 20 L20 30" fill="none" />
    </g>
    <g color-interpolation="linearRGB" color-rendering="optimizeQuality" font-family="sans-serif" font-size="11" image-rendering="optimizeQuality" shape-rendering="geometricPrecision" text-rendering="optimizeLegibility" transform="matrix(1,0,0,1,12.4041,42)">
      <text clip-path="url(#clipPath4)" stroke="none" x="0" xml:space="preserve" y="11">storage maintainer</text>
      <line clip-path="url(#clipPath4)" fill="none" x1="0" x2="100.697265625" y1="12.5" y2="12.5" />
    </g>
    <g color-interpolation="linearRGB" color-rendering="optimizeQuality" font-family="sans-serif" font-size="11" image-rendering="optimizeQuality" shape-rendering="geometricPrecision" text-rendering="optimizeLegibility" transform="matrix(1,0,0,1,113.1014,42)">
      <text clip-path="url(#clipPath5)" stroke="none" x="0" xml:space="preserve" y="11">:</text>
      <line clip-path="url(#clipPath5)" fill="none" x1="0" x2="3.48046875" y1="12.5" y2="12.5" />
    </g>
    <g color-interpolation="linearRGB" color-rendering="optimizeQuality" font-family="sans-serif" font-size="11" image-rendering="optimizeQuality" shape-rendering="geometricPrecision" text-rendering="optimizeLegibility" transform="matrix(1,0,0,1,116.5818,42)">
      <text clip-path="url(#clipPath6)" stroke="none" x="0" xml:space="preserve" y="11">Storage maintainer</text>
      <line clip-path="url(#clipPath6)" fill="none" x1="0" x2="101.01416015625" y1="12.5" y2="12.5" />
    </g>
    <g color-interpolation="linearRGB" color-rendering="optimizeQuality" fill="white" font-family="sans-serif" font-size="11" image-rendering="optimizeQuality" shape-rendering="geometricPrecision" stroke="white" text-rendering="optimizeLegibility" transform="matrix(1,0,0,1,485,10)">
      <path clip-path="url(#clipPath7)" d="M62.493648529052734 0.5 L62.493648529052734 140.5" stroke="none" />
    </g>
    <g color-interpolation="linearRGB" color-rendering="optimizeQuality" font-family="sans-serif" font-size="11" image-rendering="optimizeQuality" shape-rendering="geometricPrecision" stroke-dasharray="5,5" stroke-linecap="butt" stroke-miterlimit="1" text-rendering="optimizeLegibility" transform="matrix(1,0,0,1,485,10)">
      <path clip-path="url(#clipPath7)" d="M62.493648529052734 0.5 L62.493648529052734 140.5" fill="none" />
    </g>
    <g color-interpolation="linearRGB" color-rendering="optimizeQuality" fill="white" font-family="sans-serif" font-size="11" image-rendering="optimizeQuality" shape-rendering="geometricPrecision" stroke="white" text-rendering="optimizeLegibility" transform="matrix(1,0,0,1,485,10)">
      <path clip-path="url(#clipPath7)" d="M0.5 0.5 L123.48729705810547 0.5 L123.48729705810547 25.5 L0.5 25.5 Z" stroke="none" />
    </g>
    <g color-interpolation="linearRGB" color-rendering="optimizeQuality" font-family="sans-serif" font-size="11" image-rendering="optimizeQuality" shape-rendering="geometricPrecision" stroke-linecap="butt" stroke-miterlimit="1" text-rendering="optimizeLegibility" transform="matrix(1,0,0,1,485,10)">
      <path clip-path="url(#clipPath7)" d="M0.5 0.5 L123.48729705810547 0.5 L123.48729705810547 25.5 L0.5 25.5 Z" fill="none" />
      <text clip-path="url(#clipPath8)" stroke="none" stroke-linecap="square" stroke-miterlimit="10" transform="matrix(1,0,0,1,6,6)" x="0" xml:space="preserve" y="11">system</text>
      <line clip-path="url(#clipPath8)" fill="none" stroke-linecap="square" stroke-miterlimit="10" transform="matrix(1,0,0,1,6,6)" x1="0" x2="37.47412109375" y1="12.5" y2="12.5" />
    </g>
    <g color-interpolation="linearRGB" color-rendering="optimizeQuality" font-family="sans-serif" font-size="11" image-rendering="optimizeQuality" shape-rendering="geometricPrecision" text-rendering="optimizeLegibility" transform="matrix(1,0,0,1,528.47412109375,16)">
      <text clip-path="url(#clipPath9)" stroke="none" x="0" xml:space="preserve" y="11">:</text>
      <line clip-path="url(#clipPath9)" fill="none" x1="0" x2="3.48046875" y1="12.5" y2="12.5" />
    </g>
    <g color-interpolation="linearRGB" color-rendering="optimizeQuality" font-family="sans-serif" font-size="11" image-rendering="optimizeQuality" shape-rendering="geometricPrecision" text-rendering="optimizeLegibility" transform="matrix(1,0,0,1,531.95458984375,16)">
      <text clip-path="url(#clipPath10)" stroke="none" x="0" xml:space="preserve" y="11">Local storage</text>
      <line clip-path="url(#clipPath10)" fill="none" x1="0" x2="71.03271484375" y1="12.5" y2="12.5" />
    </g>
    <g color-interpolation="linearRGB" color-rendering="optimizeQuality" fill="white" font-family="sans-serif" font-size="11" image-rendering="optimizeQuality" shape-rendering="geometricPrecision" stroke="white" text-rendering="optimizeLegibility" transform="matrix(1,0,0,1,541.9937,75)">
      <path clip-path="url(#clipPath11)" d="M0.5 0.5 L9.5 0.5 L9.5 75.5 L0.5 75.5 Z" stroke="none" />
    </g>
    <g color-interpolation="linearRGB" color-rendering="optimizeQuality" font-family="sans-serif" font-size="11" image-rendering="optimizeQuality" shape-rendering="geometricPrecision" stroke-linecap="butt" stroke-miterlimit="1" text-rendering="optimizeLegibility" transform="matrix(1,0,0,1,541.9937,75)">
      <path clip-path="url(#clipPath11)" d="M0.5 0.5 L9.5 0.5 L9.5 75.5 L0.5 75.5 Z" fill="none" />
    </g>
    <g color-interpolation="linearRGB" color-rendering="optimizeQuality" font-family="sans-serif" font-size="11" image-rendering="optimizeQuality" shape-rendering="geometricPrecision" stroke-linecap="butt" stroke-miterlimit="1" text-rendering="optimizeLegibility" transform="matrix(1,0,0,1,85,-10)">
      <path clip-path="url(#clipPath1)" d="M456.99371337890625 85 L30 85" fill="none" />
      <text clip-path="url(#clipPath12)" stroke="none" stroke-linecap="square" stroke-miterlimit="10" transform="matrix(1,0,0,1,168.211,61)" x="0" xml:space="preserve" y="11"> </text>
    </g>
    <g color-interpolation="linearRGB" color-rendering="optimizeQuality" font-family="sans-serif" font-size="11" image-rendering="optimizeQuality" shape-rendering="geometricPrecision" text-rendering="optimizeLegibility" transform="matrix(1,0,0,1,258.6915,51)">
      <text clip-path="url(#clipPath13)" stroke="none" x="0" xml:space="preserve" y="11">:</text>
    </g>
    <g color-interpolation="linearRGB" color-rendering="optimizeQuality" font-family="sans-serif" font-size="11" image-rendering="optimizeQuality" shape-rendering="geometricPrecision" text-rendering="optimizeLegibility" transform="matrix(1,0,0,1,264.1719,51)">
      <text clip-path="url(#clipPath14)" stroke="none" x="0" xml:space="preserve" y="11">authenticated</text>
    </g>
    <g color-interpolation="linearRGB" color-rendering="optimizeQuality" font-family="sans-serif" font-size="11" image-rendering="optimizeQuality" shape-rendering="geometricPrecision" text-rendering="optimizeLegibility" transform="matrix(1,0,0,1,337.1382,51)">
      <text clip-path="url(#clipPath15)" stroke="none" x="0" xml:space="preserve" y="11">:=</text>
    </g>
    <g color-interpolation="linearRGB" color-rendering="optimizeQuality" font-family="sans-serif" font-size="11" image-rendering="optimizeQuality" shape-rendering="geometricPrecision" text-rendering="optimizeLegibility" transform="matrix(1,0,0,1,349.3628,51)">
      <text clip-path="url(#clipPath16)" stroke="none" x="0" xml:space="preserve" y="11">authenticate</text>
    </g>
    <g color-interpolation="linearRGB" color-rendering="optimizeQuality" font-family="sans-serif" font-size="11" image-rendering="optimizeQuality" shape-rendering="geometricPrecision" text-rendering="optimizeLegibility" transform="matrix(1,0,0,1,415.4058,51)">
      <text clip-path="url(#clipPath17)" stroke="none" x="0" xml:space="preserve" y="11">(</text>
    </g>
    <g color-interpolation="linearRGB" color-rendering="optimizeQuality" font-family="sans-serif" font-size="11" image-rendering="optimizeQuality" shape-rendering="geometricPrecision" text-rendering="optimizeLegibility" transform="matrix(1,0,0,1,418.9829,51)">
      <text clip-path="url(#clipPath18)" stroke="none" x="0" xml:space="preserve" y="11">authinfo</text>
    </g>
    <g color-interpolation="linearRGB" color-rendering="optimizeQuality" font-family="sans-serif" font-size="11" image-rendering="optimizeQuality" shape-rendering="geometricPrecision" text-rendering="optimizeLegibility" transform="matrix(1,0,0,1,463.6328,51)">
      <text clip-path="url(#clipPath19)" stroke="none" x="0" xml:space="preserve" y="11">)</text>
    </g>
    <g color-interpolation="linearRGB" color-rendering="optimizeQuality" font-family="sans-serif" font-size="11" image-rendering="optimizeQuality" shape-rendering="geometricPrecision" text-rendering="optimizeLegibility" transform="matrix(-1,0,0,-1,541.9937,75)">
      <path clip-path="url(#clipPath20)" d="M12 -6 L0 0 L12 6 Z" stroke="none" />
      <path clip-path="url(#clipPath20)" d="M12 -6 L0 0 L12 6 Z" fill="none" />
    </g>
    <g color-interpolation="linearRGB" color-rendering="optimizeQuality" font-family="sans-serif" font-size="11" image-rendering="optimizeQuality" shape-rendering="geometricPrecision" stroke-linecap="butt" stroke-miterlimit="1" text-rendering="optimizeLegibility" transform="matrix(1,0,0,1,85,-10)">
      <path clip-path="url(#clipPath1)" d="M456.99371337890625 120 L30 120" fill="none" />
      <text clip-path="url(#clipPath21)" stroke="none" stroke-linecap="square" stroke-miterlimit="10" transform="matrix(1,0,0,1,185.5208,96)" x="0" xml:space="preserve" y="11"> </text>
    </g>
    <g color-interpolation="linearRGB" color-rendering="optimizeQuality" font-family="sans-serif" font-size="11" image-rendering="optimizeQuality" shape-rendering="geometricPrecision" text-rendering="optimizeLegibility" transform="matrix(1,0,0,1,276.0013,86)">
      <text clip-path="url(#clipPath22)" stroke="none" x="0" xml:space="preserve" y="11">:</text>
    </g>
    <g color-interpolation="linearRGB" color-rendering="optimizeQuality" font-family="sans-serif" font-size="11" image-rendering="optimizeQuality" shape-rendering="geometricPrecision" text-rendering="optimizeLegibility" transform="matrix(1,0,0,1,281.4817,86)">
      <text clip-path="url(#clipPath23)" stroke="none" x="0" xml:space="preserve" y="11">playlist</text>
    </g>
    <g color-interpolation="linearRGB" color-rendering="optimizeQuality" font-family="sans-serif" font-size="11" image-rendering="optimizeQuality" shape-rendering="geometricPrecision" text-rendering="optimizeLegibility" transform="matrix(1,0,0,1,319.4876,86)">
      <text clip-path="url(#clipPath24)" stroke="none" x="0" xml:space="preserve" y="11">:=</text>
    </g>
    <g color-interpolation="linearRGB" color-rendering="optimizeQuality" font-family="sans-serif" font-size="11" image-rendering="optimizeQuality" shape-rendering="geometricPrecision" text-rendering="optimizeLegibility" transform="matrix(1,0,0,1,331.7122,86)">
      <text clip-path="url(#clipPath25)" stroke="none" x="0" xml:space="preserve" y="11">editPlaylist</text>
    </g>
    <g color-interpolation="linearRGB" color-rendering="optimizeQuality" font-family="sans-serif" font-size="11" image-rendering="optimizeQuality" shape-rendering="geometricPrecision" text-rendering="optimizeLegibility" transform="matrix(1,0,0,1,389.2205,86)">
      <text clip-path="url(#clipPath26)" stroke="none" x="0" xml:space="preserve" y="11">(</text>
    </g>
    <g color-interpolation="linearRGB" color-rendering="optimizeQuality" font-family="sans-serif" font-size="11" image-rendering="optimizeQuality" shape-rendering="geometricPrecision" text-rendering="optimizeLegibility" transform="matrix(1,0,0,1,392.7976,86)">
      <text clip-path="url(#clipPath27)" stroke="none" x="0" xml:space="preserve" y="11">playlistId</text>
    </g>
    <g color-interpolation="linearRGB" color-rendering="optimizeQuality" font-family="sans-serif" font-size="11" image-rendering="optimizeQuality" shape-rendering="geometricPrecision" text-rendering="optimizeLegibility" transform="matrix(1,0,0,1,440.8958,86)">
      <text clip-path="url(#clipPath28)" stroke="none" x="0" xml:space="preserve" y="11">)</text>
    </g>
    <g color-interpolation="linearRGB" color-rendering="optimizeQuality" font-family="sans-serif" font-size="11" image-rendering="optimizeQuality" shape-rendering="geometricPrecision" text-rendering="optimizeLegibility" transform="matrix(-1,0,0,-1,541.9937,110)">
      <path clip-path="url(#clipPath29)" d="M12 -6 L0 0 L12 6 Z" stroke="none" />
      <path clip-path="url(#clipPath29)" d="M12 -6 L0 0 L12 6 Z" fill="none" />
    </g>
    <g color-interpolation="linearRGB" color-rendering="optimizeQuality" font-family="sans-serif" font-size="11" image-rendering="optimizeQuality" shape-rendering="geometricPrecision" stroke-linecap="butt" stroke-miterlimit="1" text-rendering="optimizeLegibility" transform="matrix(1,0,0,1,85,-10)">
      <path clip-path="url(#clipPath1)" d="M456.99371337890625 155 L30 155" fill="none" />
      <text clip-path="url(#clipPath30)" stroke="none" stroke-linecap="square" stroke-miterlimit="10" transform="matrix(1,0,0,1,219.1031,131)" x="0" xml:space="preserve" y="11"> </text>
    </g>
    <g color-interpolation="linearRGB" color-rendering="optimizeQuality" font-family="sans-serif" font-size="11" image-rendering="optimizeQuality" shape-rendering="geometricPrecision" text-rendering="optimizeLegibility" transform="matrix(1,0,0,1,309.58360000000005,121)">
      <text clip-path="url(#clipPath31)" stroke="none" x="0" xml:space="preserve" y="11">:</text>
    </g>
    <g color-interpolation="linearRGB" color-rendering="optimizeQuality" font-family="sans-serif" font-size="11" image-rendering="optimizeQuality" shape-rendering="geometricPrecision" text-rendering="optimizeLegibility" transform="matrix(1,0,0,1,315.064,121)">
      <text clip-path="url(#clipPath32)" stroke="none" x="0" xml:space="preserve" y="11">savePlaylist</text>
    </g>
    <g color-interpolation="linearRGB" color-rendering="optimizeQuality" font-family="sans-serif" font-size="11" image-rendering="optimizeQuality" shape-rendering="geometricPrecision" text-rendering="optimizeLegibility" transform="matrix(1,0,0,1,375.7305,121)">
      <text clip-path="url(#clipPath33)" stroke="none" x="0" xml:space="preserve" y="11">(</text>
    </g>
    <g color-interpolation="linearRGB" color-rendering="optimizeQuality" font-family="sans-serif" font-size="11" image-rendering="optimizeQuality" shape-rendering="geometricPrecision" text-rendering="optimizeLegibility" transform="matrix(1,0,0,1,379.3077,121)">
      <text clip-path="url(#clipPath34)" stroke="none" x="0" xml:space="preserve" y="11">playlist</text>
    </g>
    <g color-interpolation="linearRGB" color-rendering="optimizeQuality" font-family="sans-serif" font-size="11" image-rendering="optimizeQuality" shape-rendering="geometricPrecision" text-rendering="optimizeLegibility" transform="matrix(1,0,0,1,417.31350000000003,121)">
      <text clip-path="url(#clipPath35)" stroke="none" x="0" xml:space="preserve" y="11">)</text>
    </g>
    <g color-interpolation="linearRGB" color-rendering="optimizeQuality" font-family="sans-serif" font-size="11" image-rendering="optimizeQuality" shape-rendering="geometricPrecision" text-rendering="optimizeLegibility" transform="matrix(-1,0,0,-1,541.9937,145)">
      <path clip-path="url(#clipPath36)" d="M12 -6 L0 0 L12 6 Z" stroke="none" />
      <path clip-path="url(#clipPath36)" d="M12 -6 L0 0 L12 6 Z" fill="none" />
    </g>
  </g>
</svg>
