<?xml version="1.0" encoding="UTF-8"?>

<!DOCTYPE svg PUBLIC '-//W3C//DTD SVG 1.0//EN' 'http://www.w3.org/TR/2001/REC-SVG-20010904/DTD/svg10.dtd'>
<svg color-interpolation="auto" color-rendering="auto" fill="black" fill-opacity="1" font-family="&apos;Dialog&apos;" font-size="12" font-style="normal" font-weight="normal" image-rendering="auto" shape-rendering="auto" stroke="black" stroke-dasharray="none" stroke-dashoffset="0" stroke-linecap="square" stroke-linejoin="miter" stroke-miterlimit="10" stroke-opacity="1" stroke-width="1" text-rendering="auto" xmlns="http://www.w3.org/2000/svg" xmlns:xlink="http://www.w3.org/1999/xlink">
  <!--Generated by the Batik Graphics2D SVG Generator-->
  <defs id="genericDefs" />
  <g>
    <defs id="defs1">
      <clipPath clipPathUnits="userSpaceOnUse" id="clipPath1">
        <path d="M4 50 L4 800 L579 800 L579 50 Z" />
      </clipPath>
      <clipPath clipPathUnits="userSpaceOnUse" id="clipPath2">
        <path d="M0 0 L0 750 L575 750 L575 0 Z" />
      </clipPath>
      <clipPath clipPathUnits="userSpaceOnUse" id="clipPath3">
        <path d="M-176 -10 L-176 740 L399 740 L399 -10 Z" />
      </clipPath>
      <clipPath clipPathUnits="userSpaceOnUse" id="clipPath4">
        <path d="M-178 -12 L-178 738 L397 738 L397 -12 Z" />
      </clipPath>
      <clipPath clipPathUnits="userSpaceOnUse" id="clipPath5">
        <path d="M-176 -27 L-176 723 L399 723 L399 -27 Z" />
      </clipPath>
      <clipPath clipPathUnits="userSpaceOnUse" id="clipPath6">
        <path d="M-216.31289672851562 -50 L-216.31289672851562 700 L358.6871032714844 700 L358.6871032714844 -50 Z" />
      </clipPath>
      <clipPath clipPathUnits="userSpaceOnUse" id="clipPath7">
        <path d="M-248.9792022705078 -64 L-248.9792022705078 686 L326.02081298828125 686 L326.02081298828125 -64 Z" />
      </clipPath>
      <clipPath clipPathUnits="userSpaceOnUse" id="clipPath8">
        <path d="M-213.6072998046875 -150 L-213.6072998046875 600 L361.3927001953125 600 L361.3927001953125 -150 Z" />
      </clipPath>
      <clipPath clipPathUnits="userSpaceOnUse" id="clipPath9">
        <path d="M-244.76010131835938 -166 L-244.76010131835938 584 L330.2398986816406 584 L330.2398986816406 -166 Z" />
      </clipPath>
      <clipPath clipPathUnits="userSpaceOnUse" id="clipPath10">
        <path d="M-210.87269592285156 -230 L-210.87269592285156 520 L364.1272888183594 520 L364.1272888183594 -230 Z" />
      </clipPath>
      <clipPath clipPathUnits="userSpaceOnUse" id="clipPath11">
        <path d="M-242.82650756835938 -239.45590209960938 L-242.82650756835938 510.5440979003906 L332.1734924316406 510.5440979003906 L332.1734924316406 -239.45590209960938 Z" />
      </clipPath>
      <clipPath clipPathUnits="userSpaceOnUse" id="clipPath12">
        <path d="M-194.1125030517578 -310 L-194.1125030517578 440 L380.88751220703125 440 L380.88751220703125 -310 Z" />
      </clipPath>
      <clipPath clipPathUnits="userSpaceOnUse" id="clipPath13">
        <path d="M-230.9752960205078 -326 L-230.9752960205078 424 L344.0246887207031 424 L344.0246887207031 -326 Z" />
      </clipPath>
      <clipPath clipPathUnits="userSpaceOnUse" id="clipPath14">
        <path d="M-206 -390 L-206 360 L369 360 L369 -390 Z" />
      </clipPath>
      <clipPath clipPathUnits="userSpaceOnUse" id="clipPath15">
        <path d="M-239.38099670410156 -406 L-239.38099670410156 344 L335.6189880371094 344 L335.6189880371094 -406 Z" />
      </clipPath>
      <clipPath clipPathUnits="userSpaceOnUse" id="clipPath16">
        <path d="M-216 -460 L-216 290 L359 290 L359 -460 Z" />
      </clipPath>
      <clipPath clipPathUnits="userSpaceOnUse" id="clipPath17">
        <path d="M-246.96139526367188 -476 L-246.96139526367188 274 L328.0386047363281 274 L328.0386047363281 -476 Z" />
      </clipPath>
      <clipPath clipPathUnits="userSpaceOnUse" id="clipPath18">
        <path d="M-226 -530 L-226 220 L349 220 L349 -530 Z" />
      </clipPath>
      <clipPath clipPathUnits="userSpaceOnUse" id="clipPath19">
        <path d="M-251.0625 -546 L-251.0625 204 L323.9375 204 L323.9375 -546 Z" />
      </clipPath>
      <clipPath clipPathUnits="userSpaceOnUse" id="clipPath20">
        <path d="M-216 -600 L-216 150 L359 150 L359 -600 Z" />
      </clipPath>
      <clipPath clipPathUnits="userSpaceOnUse" id="clipPath21">
        <path d="M-243.9080047607422 -616 L-243.9080047607422 134 L331.0920104980469 134 L331.0920104980469 -616 Z" />
      </clipPath>
      <clipPath clipPathUnits="userSpaceOnUse" id="clipPath22">
        <path d="M-216 -670 L-216 80 L359 80 L359 -670 Z" />
      </clipPath>
      <clipPath clipPathUnits="userSpaceOnUse" id="clipPath23">
        <path d="M-244.38070678710938 -686 L-244.38070678710938 64 L330.6192932128906 64 L330.6192932128906 -686 Z" />
      </clipPath>
      <clipPath clipPathUnits="userSpaceOnUse" id="clipPath24">
        <path d="M-36 -370 L-36 380 L539 380 L539 -370 Z" />
      </clipPath>
      <clipPath clipPathUnits="userSpaceOnUse" id="clipPath25">
        <path d="M-10.492899894714355 -455 L-10.492899894714355 295 L564.507080078125 295 L564.507080078125 -455 Z" />
      </clipPath>
      <clipPath clipPathUnits="userSpaceOnUse" id="clipPath26">
        <path d="M-506 -440 L-506 310 L69 310 L69 -440 Z" />
      </clipPath>
      <clipPath clipPathUnits="userSpaceOnUse" id="clipPath27">
        <path d="M-497.3446960449219 -525 L-497.3446960449219 225 L77.6552963256836 225 L77.6552963256836 -525 Z" />
      </clipPath>
    </defs>
    <g color-interpolation="linearRGB" color-rendering="optimizeQuality" image-rendering="optimizeQuality" shape-rendering="geometricPrecision" stroke-linecap="butt" stroke-miterlimit="1" text-rendering="optimizeLegibility" transform="matrix(1,0,0,1,176,10)">
      <path clip-path="url(#clipPath3)" d="M0.5 0.5 L74.53269958496094 0.5 L74.53269958496094 17.5 L0.5 17.5 Z" fill="none" />
    </g>
    <g color-interpolation="linearRGB" color-rendering="optimizeQuality" font-family="sans-serif" font-size="11" image-rendering="optimizeQuality" shape-rendering="geometricPrecision" text-rendering="optimizeLegibility" transform="matrix(1,0,0,1,178,12)">
      <text clip-path="url(#clipPath4)" stroke="none" x="0" xml:space="preserve" y="11">Local storage</text>
    </g>
    <g color-interpolation="linearRGB" color-rendering="optimizeQuality" fill="white" font-family="sans-serif" font-size="11" image-rendering="optimizeQuality" shape-rendering="geometricPrecision" stroke="white" text-rendering="optimizeLegibility" transform="matrix(1,0,0,1,176,27)">
      <path clip-path="url(#clipPath5)" d="M0.5 0.5 L249.5 0.5 L249.5 712.5 L0.5 712.5 Z" stroke="none" />
    </g>
    <g color-interpolation="linearRGB" color-rendering="optimizeQuality" font-family="sans-serif" font-size="11" image-rendering="optimizeQuality" shape-rendering="geometricPrecision" stroke-linecap="butt" stroke-miterlimit="1" text-rendering="optimizeLegibility" transform="matrix(1,0,0,1,176,27)">
      <path clip-path="url(#clipPath5)" d="M0.5 0.5 L249.5 0.5 L249.5 712.5 L0.5 712.5 Z" fill="none" />
    </g>
    <g color-interpolation="linearRGB" color-rendering="optimizeQuality" fill="white" font-family="sans-serif" font-size="11" image-rendering="optimizeQuality" shape-rendering="geometricPrecision" stroke="white" text-rendering="optimizeLegibility" transform="matrix(1,0,0,1,216.3129,50)">
      <ellipse clip-path="url(#clipPath6)" cx="90" cy="30" rx="90" ry="30" stroke="none" />
    </g>
    <g color-interpolation="linearRGB" color-rendering="optimizeQuality" font-family="sans-serif" font-size="11" image-rendering="optimizeQuality" shape-rendering="geometricPrecision" stroke-linecap="butt" stroke-miterlimit="1" text-rendering="optimizeLegibility" transform="matrix(1,0,0,1,216.3129,50)">
      <ellipse clip-path="url(#clipPath6)" cx="90" cy="30" fill="none" rx="90" ry="30" />
      <text clip-path="url(#clipPath7)" stroke="none" stroke-linecap="square" stroke-miterlimit="10" transform="matrix(1,0,0,1,32.6663,14)" x="0" xml:space="preserve" y="11">UC-1 Store or update</text>
      <text clip-path="url(#clipPath7)" stroke="none" stroke-linecap="square" stroke-miterlimit="10" transform="matrix(1,0,0,1,32.6663,14)" x="0" xml:space="preserve" y="25">Audio clip</text>
    </g>
    <g color-interpolation="linearRGB" color-rendering="optimizeQuality" fill="white" font-family="sans-serif" font-size="11" image-rendering="optimizeQuality" shape-rendering="geometricPrecision" stroke="white" text-rendering="optimizeLegibility" transform="matrix(1,0,0,1,213.6073,150)">
      <ellipse clip-path="url(#clipPath8)" cx="92.70555" cy="25" rx="92.70555" ry="25" stroke="none" />
    </g>
    <g color-interpolation="linearRGB" color-rendering="optimizeQuality" font-family="sans-serif" font-size="11" image-rendering="optimizeQuality" shape-rendering="geometricPrecision" stroke-linecap="butt" stroke-miterlimit="1" text-rendering="optimizeLegibility" transform="matrix(1,0,0,1,213.6073,150)">
      <ellipse clip-path="url(#clipPath8)" cx="92.70555" cy="25" fill="none" rx="92.70555" ry="25" />
      <text clip-path="url(#clipPath9)" stroke="none" stroke-linecap="square" stroke-miterlimit="10" transform="matrix(1,0,0,1,31.1528,16)" x="0" xml:space="preserve" y="11">UC-2 Delete Audio clip</text>
    </g>
    <g color-interpolation="linearRGB" color-rendering="optimizeQuality" fill="white" font-family="sans-serif" font-size="11" image-rendering="optimizeQuality" shape-rendering="geometricPrecision" stroke="white" text-rendering="optimizeLegibility" transform="matrix(1,0,0,1,210.8727,230)">
      <ellipse clip-path="url(#clipPath10)" cx="95.4401" cy="25.45585" rx="95.4401" ry="25.45585" stroke="none" />
    </g>
    <g color-interpolation="linearRGB" color-rendering="optimizeQuality" font-family="sans-serif" font-size="11" image-rendering="optimizeQuality" shape-rendering="geometricPrecision" stroke-linecap="butt" stroke-miterlimit="1" text-rendering="optimizeLegibility" transform="matrix(1,0,0,1,210.8727,230)">
      <ellipse clip-path="url(#clipPath10)" cx="95.4401" cy="25.45585" fill="none" rx="95.4401" ry="25.45585" />
      <text clip-path="url(#clipPath11)" stroke="none" stroke-linecap="square" stroke-miterlimit="10" transform="matrix(1,0,0,1,31.9538,9.4559)" x="0" xml:space="preserve" y="11">UC-3 Update Audio clip</text>
      <text clip-path="url(#clipPath11)" stroke="none" stroke-linecap="square" stroke-miterlimit="10" transform="matrix(1,0,0,1,31.9538,9.4559)" x="0" xml:space="preserve" y="25">metadata</text>
    </g>
    <g color-interpolation="linearRGB" color-rendering="optimizeQuality" fill="white" font-family="sans-serif" font-size="11" image-rendering="optimizeQuality" shape-rendering="geometricPrecision" stroke="white" text-rendering="optimizeLegibility" transform="matrix(1,0,0,1,194.1125,310)">
      <ellipse clip-path="url(#clipPath12)" cx="112.2004" cy="25" rx="112.2004" ry="25" stroke="none" />
    </g>
    <g color-interpolation="linearRGB" color-rendering="optimizeQuality" font-family="sans-serif" font-size="11" image-rendering="optimizeQuality" shape-rendering="geometricPrecision" stroke-linecap="butt" stroke-miterlimit="1" text-rendering="optimizeLegibility" transform="matrix(1,0,0,1,194.1125,310)">
      <ellipse clip-path="url(#clipPath12)" cx="112.2004" cy="25" fill="none" rx="112.2004" ry="25" />
      <text clip-path="url(#clipPath13)" stroke="none" stroke-linecap="square" stroke-miterlimit="10" transform="matrix(1,0,0,1,36.8628,16)" x="0" xml:space="preserve" y="11">UC-4 Access raw audio data</text>
    </g>
    <g color-interpolation="linearRGB" color-rendering="optimizeQuality" fill="white" font-family="sans-serif" font-size="11" image-rendering="optimizeQuality" shape-rendering="geometricPrecision" stroke="white" text-rendering="optimizeLegibility" transform="matrix(1,0,0,1,206,390)">
      <ellipse clip-path="url(#clipPath14)" cx="100.31285" cy="25" rx="100.31285" ry="25" stroke="none" />
    </g>
    <g color-interpolation="linearRGB" color-rendering="optimizeQuality" font-family="sans-serif" font-size="11" image-rendering="optimizeQuality" shape-rendering="geometricPrecision" stroke-linecap="butt" stroke-miterlimit="1" text-rendering="optimizeLegibility" transform="matrix(1,0,0,1,206,390)">
      <ellipse clip-path="url(#clipPath14)" cx="100.31285" cy="25" fill="none" rx="100.31285" ry="25" />
      <text clip-path="url(#clipPath15)" stroke="none" stroke-linecap="square" stroke-miterlimit="10" transform="matrix(1,0,0,1,33.381,16)" x="0" xml:space="preserve" y="11">UC-5 Search in metadata</text>
    </g>
    <g color-interpolation="linearRGB" color-rendering="optimizeQuality" fill="white" font-family="sans-serif" font-size="11" image-rendering="optimizeQuality" shape-rendering="geometricPrecision" stroke="white" text-rendering="optimizeLegibility" transform="matrix(1,0,0,1,216,460)">
      <ellipse clip-path="url(#clipPath16)" cx="85" cy="25" rx="85" ry="25" stroke="none" />
    </g>
    <g color-interpolation="linearRGB" color-rendering="optimizeQuality" font-family="sans-serif" font-size="11" image-rendering="optimizeQuality" shape-rendering="geometricPrecision" stroke-linecap="butt" stroke-miterlimit="1" text-rendering="optimizeLegibility" transform="matrix(1,0,0,1,216,460)">
      <ellipse clip-path="url(#clipPath16)" cx="85" cy="25" fill="none" rx="85" ry="25" />
      <text clip-path="url(#clipPath17)" stroke="none" stroke-linecap="square" stroke-miterlimit="10" transform="matrix(1,0,0,1,30.9614,16)" x="0" xml:space="preserve" y="11">UC-6 Create playlist</text>
    </g>
    <g color-interpolation="linearRGB" color-rendering="optimizeQuality" fill="white" font-family="sans-serif" font-size="11" image-rendering="optimizeQuality" shape-rendering="geometricPrecision" stroke="white" text-rendering="optimizeLegibility" transform="matrix(1,0,0,1,226,530)">
      <ellipse clip-path="url(#clipPath18)" cx="71.91185" cy="25" rx="71.91185" ry="25" stroke="none" />
    </g>
    <g color-interpolation="linearRGB" color-rendering="optimizeQuality" font-family="sans-serif" font-size="11" image-rendering="optimizeQuality" shape-rendering="geometricPrecision" stroke-linecap="butt" stroke-miterlimit="1" text-rendering="optimizeLegibility" transform="matrix(1,0,0,1,226,530)">
      <ellipse clip-path="url(#clipPath18)" cx="71.91185" cy="25" fill="none" rx="71.91185" ry="25" />
      <text clip-path="url(#clipPath19)" stroke="none" stroke-linecap="square" stroke-miterlimit="10" transform="matrix(1,0,0,1,25.0625,16)" x="0" xml:space="preserve" y="11">UC-7 Edit playlist</text>
    </g>
    <g color-interpolation="linearRGB" color-rendering="optimizeQuality" fill="white" font-family="sans-serif" font-size="11" image-rendering="optimizeQuality" shape-rendering="geometricPrecision" stroke="white" text-rendering="optimizeLegibility" transform="matrix(1,0,0,1,216,600)">
      <ellipse clip-path="url(#clipPath20)" cx="81.627" cy="25" rx="81.627" ry="25" stroke="none" />
    </g>
    <g color-interpolation="linearRGB" color-rendering="optimizeQuality" font-family="sans-serif" font-size="11" image-rendering="optimizeQuality" shape-rendering="geometricPrecision" stroke-linecap="butt" stroke-miterlimit="1" text-rendering="optimizeLegibility" transform="matrix(1,0,0,1,216,600)">
      <ellipse clip-path="url(#clipPath20)" cx="81.627" cy="25" fill="none" rx="81.627" ry="25" />
      <text clip-path="url(#clipPath21)" stroke="none" stroke-linecap="square" stroke-miterlimit="10" transform="matrix(1,0,0,1,27.908,16)" x="0" xml:space="preserve" y="11">UC-8 Delete playlist</text>
    </g>
    <g color-interpolation="linearRGB" color-rendering="optimizeQuality" fill="white" font-family="sans-serif" font-size="11" image-rendering="optimizeQuality" shape-rendering="geometricPrecision" stroke="white" text-rendering="optimizeLegibility" transform="matrix(1,0,0,1,216,670)">
      <ellipse clip-path="url(#clipPath22)" cx="83.2411" cy="25" rx="83.2411" ry="25" stroke="none" />
    </g>
    <g color-interpolation="linearRGB" color-rendering="optimizeQuality" font-family="sans-serif" font-size="11" image-rendering="optimizeQuality" shape-rendering="geometricPrecision" stroke-linecap="butt" stroke-miterlimit="1" text-rendering="optimizeLegibility" transform="matrix(1,0,0,1,216,670)">
      <ellipse clip-path="url(#clipPath22)" cx="83.2411" cy="25" fill="none" rx="83.2411" ry="25" />
      <text clip-path="url(#clipPath23)" stroke="none" stroke-linecap="square" stroke-miterlimit="10" transform="matrix(1,0,0,1,28.3807,16)" x="0" xml:space="preserve" y="11">UC-9 Access playlist</text>
    </g>
    <g color-interpolation="linearRGB" color-rendering="optimizeQuality" fill="white" font-family="sans-serif" font-size="11" image-rendering="optimizeQuality" shape-rendering="geometricPrecision" stroke="white" text-rendering="optimizeLegibility" transform="matrix(1,0,0,1,36,370)">
      <path clip-path="url(#clipPath24)" d="M25 21.33333396911621 C12.5 21.33333396911621 12.5 0 25 0 C37.5 0 37.5 21.33333396911621 25 21.33333396911621 M25 21.33333396911621 L25 26.66666603088379 M0 26.66666603088379 L50 26.66666603088379 M25 26.66666603088379 L25 53.33333206176758 M25 53.33333206176758 L0 80 M25 53.33333206176758 L50 80" stroke="none" />
    </g>
    <g color-interpolation="linearRGB" color-rendering="optimizeQuality" font-family="sans-serif" font-size="11" image-rendering="optimizeQuality" shape-rendering="geometricPrecision" stroke-linecap="butt" stroke-miterlimit="1" text-rendering="optimizeLegibility" transform="matrix(1,0,0,1,36,370)">
      <path clip-path="url(#clipPath24)" d="M25 21.33333396911621 C12.5 21.33333396911621 12.5 0 25 0 C37.5 0 37.5 21.33333396911621 25 21.33333396911621 M25 21.33333396911621 L25 26.66666603088379 M0 26.66666603088379 L50 26.66666603088379 M25 26.66666603088379 L25 53.33333206176758 M25 53.33333206176758 L0 80 M25 53.33333206176758 L50 80" fill="none" />
      <text clip-path="url(#clipPath25)" stroke="none" stroke-linecap="square" stroke-miterlimit="10" transform="matrix(1,0,0,1,-25.5071,85)" x="0" xml:space="preserve" y="11">Storage maintainer</text>
    </g>
    <g color-interpolation="linearRGB" color-rendering="optimizeQuality" fill="white" font-family="sans-serif" font-size="11" image-rendering="optimizeQuality" shape-rendering="geometricPrecision" stroke="white" text-rendering="optimizeLegibility" transform="matrix(1,0,0,1,506,440)">
      <path clip-path="url(#clipPath26)" d="M25 21.33333396911621 C12.5 21.33333396911621 12.5 0 25 0 C37.5 0 37.5 21.33333396911621 25 21.33333396911621 M25 21.33333396911621 L25 26.66666603088379 M0 26.66666603088379 L50 26.66666603088379 M25 26.66666603088379 L25 53.33333206176758 M25 53.33333206176758 L0 80 M25 53.33333206176758 L50 80" stroke="none" />
    </g>
    <g color-interpolation="linearRGB" color-rendering="optimizeQuality" font-family="sans-serif" font-size="11" image-rendering="optimizeQuality" shape-rendering="geometricPrecision" stroke-linecap="butt" stroke-miterlimit="1" text-rendering="optimizeLegibility" transform="matrix(1,0,0,1,506,440)">
      <path clip-path="url(#clipPath26)" d="M25 21.33333396911621 C12.5 21.33333396911621 12.5 0 25 0 C37.5 0 37.5 21.33333396911621 25 21.33333396911621 M25 21.33333396911621 L25 26.66666603088379 M0 26.66666603088379 L50 26.66666603088379 M25 26.66666603088379 L25 53.33333206176758 M25 53.33333206176758 L0 80 M25 53.33333206176758 L50 80" fill="none" />
      <text clip-path="url(#clipPath27)" stroke="none" stroke-linecap="square" stroke-miterlimit="10" transform="matrix(1,0,0,1,-8.6553,85)" x="0" xml:space="preserve" y="11">Audio player</text>
    </g>
    <g color-interpolation="linearRGB" color-rendering="optimizeQuality" font-family="sans-serif" font-size="11" image-rendering="optimizeQuality" shape-rendering="geometricPrecision" stroke-linecap="butt" stroke-miterlimit="1" text-rendering="optimizeLegibility" transform="matrix(1,0,0,1,-4,-50)">
      <path clip-path="url(#clipPath1)" d="M90 420 L217.26449584960938 311.1191101074219" fill="none" />
    </g>
    <g color-interpolation="linearRGB" color-rendering="optimizeQuality" font-family="sans-serif" font-size="11" image-rendering="optimizeQuality" shape-rendering="geometricPrecision" stroke-linecap="butt" stroke-miterlimit="1" text-rendering="optimizeLegibility" transform="matrix(1,0,0,1,-4,-50)">
      <path clip-path="url(#clipPath1)" d="M90 465 L210 465" fill="none" />
    </g>
    <g color-interpolation="linearRGB" color-rendering="optimizeQuality" font-family="sans-serif" font-size="11" image-rendering="optimizeQuality" shape-rendering="geometricPrecision" stroke-linecap="butt" stroke-miterlimit="1" text-rendering="optimizeLegibility" transform="matrix(1,0,0,1,-4,-50)">
      <path clip-path="url(#clipPath1)" d="M90 420 L234.26710510253906 146.04519653320312" fill="none" />
    </g>
    <g color-interpolation="linearRGB" color-rendering="optimizeQuality" font-family="sans-serif" font-size="11" image-rendering="optimizeQuality" shape-rendering="geometricPrecision" stroke-linecap="butt" stroke-miterlimit="1" text-rendering="optimizeLegibility" transform="matrix(1,0,0,1,-4,-50)">
      <path clip-path="url(#clipPath1)" d="M90 420 L223.53900146484375 233.7989959716797" fill="none" />
    </g>
    <g color-interpolation="linearRGB" color-rendering="optimizeQuality" font-family="sans-serif" font-size="11" image-rendering="optimizeQuality" shape-rendering="geometricPrecision" stroke-linecap="butt" stroke-miterlimit="1" text-rendering="optimizeLegibility" transform="matrix(1,0,0,1,-4,-50)">
      <path clip-path="url(#clipPath1)" d="M510 490 L419.32818603515625 390.91448974609375" fill="none" />
    </g>
    <g color-interpolation="linearRGB" color-rendering="optimizeQuality" font-family="sans-serif" font-size="11" image-rendering="optimizeQuality" shape-rendering="geometricPrecision" stroke-linecap="butt" stroke-miterlimit="1" text-rendering="optimizeLegibility" transform="matrix(1,0,0,1,-4,-50)">
      <path clip-path="url(#clipPath1)" d="M118.5071029663086 507.252685546875 L220.23699951171875 533.134521484375" fill="none" />
    </g>
    <g color-interpolation="linearRGB" color-rendering="optimizeQuality" font-family="sans-serif" font-size="11" image-rendering="optimizeQuality" shape-rendering="geometricPrecision" stroke-linecap="butt" stroke-miterlimit="1" text-rendering="optimizeLegibility" transform="matrix(1,0,0,1,-4,-50)">
      <path clip-path="url(#clipPath1)" d="M118.5071029663086 519.8922119140625 L232.0269012451172 599.106201171875" fill="none" />
    </g>
    <g color-interpolation="linearRGB" color-rendering="optimizeQuality" font-family="sans-serif" font-size="11" image-rendering="optimizeQuality" shape-rendering="geometricPrecision" stroke-linecap="butt" stroke-miterlimit="1" text-rendering="optimizeLegibility" transform="matrix(1,0,0,1,-4,-50)">
      <path clip-path="url(#clipPath1)" d="M107.90149688720703 522 L225.2322998046875 666.1934204101562" fill="none" />
    </g>
    <g color-interpolation="linearRGB" color-rendering="optimizeQuality" font-family="sans-serif" font-size="11" image-rendering="optimizeQuality" shape-rendering="geometricPrecision" stroke-linecap="butt" stroke-miterlimit="1" text-rendering="optimizeLegibility" transform="matrix(1,0,0,1,-4,-50)">
      <path clip-path="url(#clipPath1)" d="M498.3446960449219 584.9854736328125 L380.8940124511719 735.9945068359375" fill="none" />
    </g>
  </g>
</svg>
