<?xml version="1.0" encoding="UTF-8"?>

<!DOCTYPE svg PUBLIC '-//W3C//DTD SVG 1.0//EN' 'http://www.w3.org/TR/2001/REC-SVG-20010904/DTD/svg10.dtd'>
<svg stroke-width="1" stroke-dashoffset="0" font-size="12" stroke-dasharray="none" color-rendering="auto" font-weight="normal" color-interpolation="auto" stroke-linejoin="miter" fill="black" image-rendering="auto" font-family="&apos;sansserif&apos;" stroke-opacity="1" stroke-miterlimit="10" stroke="black" text-rendering="auto" font-style="normal" stroke-linecap="square" fill-opacity="1" shape-rendering="auto" xmlns="http://www.w3.org/2000/svg" xmlns:xlink="http://www.w3.org/1999/xlink">
  <!--Generated by the Batik Graphics2D SVG Generator-->
  <defs id="genericDefs" />
  <g>
    <defs id="defs1">
      <clipPath clipPathUnits="userSpaceOnUse" id="clipPath1">
        <path d="M-82 10 L-82 291 L943 291 L943 10 Z" />
      </clipPath>
      <clipPath clipPathUnits="userSpaceOnUse" id="clipPath2">
        <path d="M0 0 L0 281 L1025 281 L1025 0 Z" />
      </clipPath>
      <clipPath clipPathUnits="userSpaceOnUse" id="clipPath3">
        <path d="M-102 -10 L-102 271 L923 271 L923 -10 Z" />
      </clipPath>
      <clipPath clipPathUnits="userSpaceOnUse" id="clipPath4">
        <path d="M-12.417200088500977 -42 L-12.417200088500977 239 L1012.5828247070312 239 L1012.5828247070312 -42 Z" />
      </clipPath>
      <clipPath clipPathUnits="userSpaceOnUse" id="clipPath5">
        <path d="M-110.28389739990234 -42 L-110.28389739990234 239 L914.7161254882812 239 L914.7161254882812 -42 Z" />
      </clipPath>
      <clipPath clipPathUnits="userSpaceOnUse" id="clipPath6">
        <path d="M-113.76439666748047 -42 L-113.76439666748047 239 L911.235595703125 239 L911.235595703125 -42 Z" />
      </clipPath>
      <clipPath clipPathUnits="userSpaceOnUse" id="clipPath7">
        <path d="M-332 -10 L-332 271 L693 271 L693 -10 Z" />
      </clipPath>
      <clipPath clipPathUnits="userSpaceOnUse" id="clipPath8">
        <path d="M-338 -16 L-338 265 L687 265 L687 -16 Z" />
      </clipPath>
      <clipPath clipPathUnits="userSpaceOnUse" id="clipPath9">
        <path d="M-375.4740905761719 -16 L-375.4740905761719 265 L649.52587890625 265 L649.52587890625 -16 Z" />
      </clipPath>
      <clipPath clipPathUnits="userSpaceOnUse" id="clipPath10">
        <path d="M-378.95458984375 -16 L-378.95458984375 265 L646.04541015625 265 L646.04541015625 -16 Z" />
      </clipPath>
      <clipPath clipPathUnits="userSpaceOnUse" id="clipPath11">
        <path d="M-389.6005859375 -75 L-389.6005859375 206 L635.3994140625 206 L635.3994140625 -75 Z" />
      </clipPath>
      <clipPath clipPathUnits="userSpaceOnUse" id="clipPath12">
        <path d="M-389.6005859375 -145 L-389.6005859375 136 L635.3994140625 136 L635.3994140625 -145 Z" />
      </clipPath>
      <clipPath clipPathUnits="userSpaceOnUse" id="clipPath13">
        <path d="M-572 -10 L-572 271 L453 271 L453 -10 Z" />
      </clipPath>
      <clipPath clipPathUnits="userSpaceOnUse" id="clipPath14">
        <path d="M-578 -16 L-578 265 L447 265 L447 -16 Z" />
      </clipPath>
      <clipPath clipPathUnits="userSpaceOnUse" id="clipPath15">
        <path d="M-646.3472290039062 -16 L-646.3472290039062 265 L378.6528015136719 265 L378.6528015136719 -16 Z" />
      </clipPath>
      <clipPath clipPathUnits="userSpaceOnUse" id="clipPath16">
        <path d="M-649.8275756835938 -16 L-649.8275756835938 265 L375.1723937988281 265 L375.1723937988281 -16 Z" />
      </clipPath>
      <clipPath clipPathUnits="userSpaceOnUse" id="clipPath17">
        <path d="M-644.43017578125 -106 L-644.43017578125 175 L380.5697937011719 175 L380.5697937011719 -106 Z" />
      </clipPath>
      <clipPath clipPathUnits="userSpaceOnUse" id="clipPath18">
        <path d="M-852 -10 L-852 271 L173 271 L173 -10 Z" />
      </clipPath>
      <clipPath clipPathUnits="userSpaceOnUse" id="clipPath19">
        <path d="M-858 -16 L-858 265 L167 265 L167 -16 Z" />
      </clipPath>
      <clipPath clipPathUnits="userSpaceOnUse" id="clipPath20">
        <path d="M-932.09423828125 -16 L-932.09423828125 265 L92.90576171875 265 L92.90576171875 -16 Z" />
      </clipPath>
      <clipPath clipPathUnits="userSpaceOnUse" id="clipPath21">
        <path d="M-935.57470703125 -16 L-935.57470703125 265 L89.42529296875 265 L89.42529296875 -16 Z" />
      </clipPath>
      <clipPath clipPathUnits="userSpaceOnUse" id="clipPath22">
        <path d="M-928.43701171875 -176 L-928.43701171875 105 L96.56300354003906 105 L96.56300354003906 -176 Z" />
      </clipPath>
      <clipPath clipPathUnits="userSpaceOnUse" id="clipPath23">
        <path d="M389.6005859375 75 L389.6005859375 -206 L-635.3994140625 -206 L-635.3994140625 75 Z" />
      </clipPath>
      <clipPath clipPathUnits="userSpaceOnUse" id="clipPath24">
        <path d="M-143.8061981201172 -51 L-143.8061981201172 230 L881.1937866210938 230 L881.1937866210938 -51 Z" />
      </clipPath>
      <clipPath clipPathUnits="userSpaceOnUse" id="clipPath25">
        <path d="M-149.2866973876953 -51 L-149.2866973876953 230 L875.7133178710938 230 L875.7133178710938 -51 Z" />
      </clipPath>
      <clipPath clipPathUnits="userSpaceOnUse" id="clipPath26">
        <path d="M-154.76710510253906 -51 L-154.76710510253906 230 L870.23291015625 230 L870.23291015625 -51 Z" />
      </clipPath>
      <clipPath clipPathUnits="userSpaceOnUse" id="clipPath27">
        <path d="M-227.7333984375 -51 L-227.7333984375 230 L797.2666015625 230 L797.2666015625 -51 Z" />
      </clipPath>
      <clipPath clipPathUnits="userSpaceOnUse" id="clipPath28">
        <path d="M-239.95799255371094 -51 L-239.95799255371094 230 L785.0419921875 230 L785.0419921875 -51 Z" />
      </clipPath>
      <clipPath clipPathUnits="userSpaceOnUse" id="clipPath29">
        <path d="M-306.0010070800781 -51 L-306.0010070800781 230 L718.9990234375 230 L718.9990234375 -51 Z" />
      </clipPath>
      <clipPath clipPathUnits="userSpaceOnUse" id="clipPath30">
        <path d="M-309.5780944824219 -51 L-309.5780944824219 230 L715.421875 230 L715.421875 -51 Z" />
      </clipPath>
      <clipPath clipPathUnits="userSpaceOnUse" id="clipPath31">
        <path d="M-354.21728515625 -51 L-354.21728515625 230 L670.78271484375 230 L670.78271484375 -51 Z" />
      </clipPath>
      <clipPath clipPathUnits="userSpaceOnUse" id="clipPath32">
        <path d="M389.6005859375 145 L389.6005859375 -136 L-635.3994140625 -136 L-635.3994140625 145 Z" />
      </clipPath>
      <clipPath clipPathUnits="userSpaceOnUse" id="clipPath33">
        <path d="M-132.80079650878906 -121 L-132.80079650878906 160 L892.19921875 160 L892.19921875 -121 Z" />
      </clipPath>
      <clipPath clipPathUnits="userSpaceOnUse" id="clipPath34">
        <path d="M-138.2812957763672 -121 L-138.2812957763672 160 L886.7186889648438 160 L886.7186889648438 -121 Z" />
      </clipPath>
      <clipPath clipPathUnits="userSpaceOnUse" id="clipPath35">
        <path d="M-143.76170349121094 -121 L-143.76170349121094 160 L881.23828125 160 L881.23828125 -121 Z" />
      </clipPath>
      <clipPath clipPathUnits="userSpaceOnUse" id="clipPath36">
        <path d="M-300.8984069824219 -121 L-300.8984069824219 160 L724.1016235351562 160 L724.1016235351562 -121 Z" />
      </clipPath>
      <clipPath clipPathUnits="userSpaceOnUse" id="clipPath37">
        <path d="M-304.4755859375 -121 L-304.4755859375 160 L720.5244140625 160 L720.5244140625 -121 Z" />
      </clipPath>
      <clipPath clipPathUnits="userSpaceOnUse" id="clipPath38">
        <path d="M-365.22259521484375 -121 L-365.22259521484375 160 L659.7774047851562 160 L659.7774047851562 -121 Z" />
      </clipPath>
      <clipPath clipPathUnits="userSpaceOnUse" id="clipPath39">
        <path d="M644.43017578125 106 L644.43017578125 -175 L-380.5697937011719 -175 L-380.5697937011719 106 Z" />
      </clipPath>
      <clipPath clipPathUnits="userSpaceOnUse" id="clipPath40">
        <path d="M-415.02130126953125 -82 L-415.02130126953125 199 L609.9786987304688 199 L609.9786987304688 -82 Z" />
      </clipPath>
      <clipPath clipPathUnits="userSpaceOnUse" id="clipPath41">
        <path d="M-420.5018005371094 -82 L-420.5018005371094 199 L604.4982299804688 199 L604.4982299804688 -82 Z" />
      </clipPath>
      <clipPath clipPathUnits="userSpaceOnUse" id="clipPath42">
        <path d="M-425.9822082519531 -82 L-425.9822082519531 199 L599.017822265625 199 L599.017822265625 -82 Z" />
      </clipPath>
      <clipPath clipPathUnits="userSpaceOnUse" id="clipPath43">
        <path d="M-498.948486328125 -82 L-498.948486328125 199 L526.051513671875 199 L526.051513671875 -82 Z" />
      </clipPath>
      <clipPath clipPathUnits="userSpaceOnUse" id="clipPath44">
        <path d="M-511.173095703125 -82 L-511.173095703125 199 L513.826904296875 199 L513.826904296875 -82 Z" />
      </clipPath>
      <clipPath clipPathUnits="userSpaceOnUse" id="clipPath45">
        <path d="M-577.2161254882812 -82 L-577.2161254882812 199 L447.7839050292969 199 L447.7839050292969 -82 Z" />
      </clipPath>
      <clipPath clipPathUnits="userSpaceOnUse" id="clipPath46">
        <path d="M-580.793212890625 -82 L-580.793212890625 199 L444.206787109375 199 L444.206787109375 -82 Z" />
      </clipPath>
      <clipPath clipPathUnits="userSpaceOnUse" id="clipPath47">
        <path d="M-625.432373046875 -82 L-625.432373046875 199 L399.5675964355469 199 L399.5675964355469 -82 Z" />
      </clipPath>
      <clipPath clipPathUnits="userSpaceOnUse" id="clipPath48">
        <path d="M644.43017578125 211 L644.43017578125 -70 L-380.5697937011719 -70 L-380.5697937011719 211 Z" />
      </clipPath>
      <clipPath clipPathUnits="userSpaceOnUse" id="clipPath49">
        <path d="M-414.0090026855469 -187 L-414.0090026855469 94 L610.9910278320312 94 L610.9910278320312 -187 Z" />
      </clipPath>
      <clipPath clipPathUnits="userSpaceOnUse" id="clipPath50">
        <path d="M-419.489501953125 -187 L-419.489501953125 94 L605.510498046875 94 L605.510498046875 -187 Z" />
      </clipPath>
      <clipPath clipPathUnits="userSpaceOnUse" id="clipPath51">
        <path d="M-424.96990966796875 -187 L-424.96990966796875 94 L600.0300903320312 94 L600.0300903320312 -187 Z" />
      </clipPath>
      <clipPath clipPathUnits="userSpaceOnUse" id="clipPath52">
        <path d="M-475.62469482421875 -187 L-475.62469482421875 94 L549.3753051757812 94 L549.3753051757812 -187 Z" />
      </clipPath>
      <clipPath clipPathUnits="userSpaceOnUse" id="clipPath53">
        <path d="M-487.84930419921875 -187 L-487.84930419921875 94 L537.1506958007812 94 L537.1506958007812 -187 Z" />
      </clipPath>
      <clipPath clipPathUnits="userSpaceOnUse" id="clipPath54">
        <path d="M-557.1203002929688 -187 L-557.1203002929688 94 L467.87969970703125 94 L467.87969970703125 -187 Z" />
      </clipPath>
      <clipPath clipPathUnits="userSpaceOnUse" id="clipPath55">
        <path d="M-560.6973876953125 -187 L-560.6973876953125 94 L464.3026123046875 94 L464.3026123046875 -187 Z" />
      </clipPath>
      <clipPath clipPathUnits="userSpaceOnUse" id="clipPath56">
        <path d="M-621.4445190429688 -187 L-621.4445190429688 94 L403.5555114746094 94 L403.5555114746094 -187 Z" />
      </clipPath>
      <clipPath clipPathUnits="userSpaceOnUse" id="clipPath57">
        <path d="M928.43701171875 176 L928.43701171875 -105 L-96.56300354003906 -105 L-96.56300354003906 176 Z" />
      </clipPath>
      <clipPath clipPathUnits="userSpaceOnUse" id="clipPath58">
        <path d="M-667.2636108398438 -153 L-667.2636108398438 128 L357.73638916015625 128 L357.73638916015625 -153 Z" />
      </clipPath>
      <clipPath clipPathUnits="userSpaceOnUse" id="clipPath59">
        <path d="M-672.7440795898438 -153 L-672.7440795898438 128 L352.2558898925781 128 L352.2558898925781 -153 Z" />
      </clipPath>
      <clipPath clipPathUnits="userSpaceOnUse" id="clipPath60">
        <path d="M-678.2244873046875 -153 L-678.2244873046875 128 L346.7755126953125 128 L346.7755126953125 -153 Z" />
      </clipPath>
      <clipPath clipPathUnits="userSpaceOnUse" id="clipPath61">
        <path d="M-751.1907958984375 -153 L-751.1907958984375 128 L273.8092041015625 128 L273.8092041015625 -153 Z" />
      </clipPath>
      <clipPath clipPathUnits="userSpaceOnUse" id="clipPath62">
        <path d="M-763.4154052734375 -153 L-763.4154052734375 128 L261.5845947265625 128 L261.5845947265625 -153 Z" />
      </clipPath>
      <clipPath clipPathUnits="userSpaceOnUse" id="clipPath63">
        <path d="M-829.4583740234375 -153 L-829.4583740234375 128 L195.54159545898438 128 L195.54159545898438 -153 Z" />
      </clipPath>
      <clipPath clipPathUnits="userSpaceOnUse" id="clipPath64">
        <path d="M-833.0355224609375 -153 L-833.0355224609375 128 L191.96449279785156 128 L191.96449279785156 -153 Z" />
      </clipPath>
      <clipPath clipPathUnits="userSpaceOnUse" id="clipPath65">
        <path d="M-877.6746826171875 -153 L-877.6746826171875 128 L147.32530212402344 128 L147.32530212402344 -153 Z" />
      </clipPath>
      <clipPath clipPathUnits="userSpaceOnUse" id="clipPath66">
        <path d="M928.43701171875 246 L928.43701171875 -35 L-96.56300354003906 -35 L-96.56300354003906 246 Z" />
      </clipPath>
      <clipPath clipPathUnits="userSpaceOnUse" id="clipPath67">
        <path d="M-668.1838989257812 -220 L-668.1838989257812 61 L356.81610107421875 61 L356.81610107421875 -220 Z" />
      </clipPath>
      <clipPath clipPathUnits="userSpaceOnUse" id="clipPath68">
        <path d="M-673.6644287109375 -220 L-673.6644287109375 61 L351.3356018066406 61 L351.3356018066406 -220 Z" />
      </clipPath>
      <clipPath clipPathUnits="userSpaceOnUse" id="clipPath69">
        <path d="M-679.144775390625 -220 L-679.144775390625 61 L345.8551940917969 61 L345.8551940917969 -220 Z" />
      </clipPath>
      <clipPath clipPathUnits="userSpaceOnUse" id="clipPath70">
        <path d="M-739.8919067382812 -220 L-739.8919067382812 61 L285.10809326171875 61 L285.10809326171875 -220 Z" />
      </clipPath>
      <clipPath clipPathUnits="userSpaceOnUse" id="clipPath71">
        <path d="M-752.1165161132812 -220 L-752.1165161132812 61 L272.8835144042969 61 L272.8835144042969 -220 Z" />
      </clipPath>
      <clipPath clipPathUnits="userSpaceOnUse" id="clipPath72">
        <path d="M-831.393798828125 -220 L-831.393798828125 61 L193.606201171875 61 L193.606201171875 -220 Z" />
      </clipPath>
      <clipPath clipPathUnits="userSpaceOnUse" id="clipPath73">
        <path d="M-834.9710083007812 -220 L-834.9710083007812 61 L190.0290069580078 61 L190.0290069580078 -220 Z" />
      </clipPath>
      <clipPath clipPathUnits="userSpaceOnUse" id="clipPath74">
        <path d="M-885.6257934570312 -220 L-885.6257934570312 61 L139.37420654296875 61 L139.37420654296875 -220 Z" />
      </clipPath>
    </defs>
    <g color-rendering="optimizeQuality" stroke-dasharray="5,5" stroke-miterlimit="1" color-interpolation="linearRGB" text-rendering="optimizeLegibility" stroke-linecap="butt" shape-rendering="geometricPrecision" image-rendering="optimizeQuality" transform="matrix(1,0,0,1,102,10)">
      <path d="M10.5 48.5 L10.5 237.5" clip-path="url(#clipPath3)" fill="none" />
      <path d="M10 8 C5 8 5 0 10 0 C15 0 15 8 10 8 M10 8 L10 10 M0 10 L20 10 M10 10 L10 20 M10 20 L0 30 M10 20 L20 30" stroke="none" clip-path="url(#clipPath3)" fill="white" />
      <path d="M10 8 C5 8 5 0 10 0 C15 0 15 8 10 8 M10 8 L10 10 M0 10 L20 10 M10 10 L10 20 M10 20 L0 30 M10 20 L20 30" stroke-dasharray="none" clip-path="url(#clipPath3)" fill="none" />
    </g>
    <g font-family="sans-serif" font-size="11" color-rendering="optimizeQuality" color-interpolation="linearRGB" text-rendering="optimizeLegibility" shape-rendering="geometricPrecision" image-rendering="optimizeQuality" transform="matrix(1,0,0,1,12.417199999999994,42)">
      <text x="0" y="11" xml:space="preserve" stroke="none" clip-path="url(#clipPath4)">playlist Maintainer</text>
      <line x1="0" y1="12.5" x2="97.86669921875" y2="12.5" clip-path="url(#clipPath4)" fill="none" />
    </g>
    <g font-family="sans-serif" font-size="11" color-rendering="optimizeQuality" color-interpolation="linearRGB" text-rendering="optimizeLegibility" shape-rendering="geometricPrecision" image-rendering="optimizeQuality" transform="matrix(1,0,0,1,110.28389999999999,42)">
      <text x="0" y="11" xml:space="preserve" stroke="none" clip-path="url(#clipPath5)">:</text>
      <line x1="0" y1="12.5" x2="3.48046875" y2="12.5" clip-path="url(#clipPath5)" fill="none" />
    </g>
    <g font-family="sans-serif" font-size="11" color-rendering="optimizeQuality" color-interpolation="linearRGB" text-rendering="optimizeLegibility" shape-rendering="geometricPrecision" image-rendering="optimizeQuality" transform="matrix(1,0,0,1,113.7644,42)">
      <text x="0" y="11" xml:space="preserve" stroke="none" clip-path="url(#clipPath6)">Playlist maintainer</text>
      <line x1="0" y1="12.5" x2="97.818359375" y2="12.5" clip-path="url(#clipPath6)" fill="none" />
    </g>
    <g font-family="sans-serif" font-size="11" color-rendering="optimizeQuality" stroke-miterlimit="1" color-interpolation="linearRGB" text-rendering="optimizeLegibility" stroke="white" fill="white" stroke-linecap="butt" shape-rendering="geometricPrecision" image-rendering="optimizeQuality" transform="matrix(1,0,0,1,332,10)">
      <path d="M63.10060119628906 0.5 L63.10060119628906 237.5" stroke="none" clip-path="url(#clipPath7)" />
      <path d="M63.10060119628906 0.5 L63.10060119628906 237.5" stroke-dasharray="5,5" stroke="black" clip-path="url(#clipPath7)" fill="none" />
      <path d="M0.5 0.5 L124.70120239257812 0.5 L124.70120239257812 25.5 L0.5 25.5 Z" stroke-dasharray="5,5" stroke="none" clip-path="url(#clipPath7)" />
      <path d="M0.5 0.5 L124.70120239257812 0.5 L124.70120239257812 25.5 L0.5 25.5 Z" stroke="black" clip-path="url(#clipPath7)" fill="none" />
    </g>
    <g font-family="sans-serif" font-size="11" color-rendering="optimizeQuality" color-interpolation="linearRGB" text-rendering="optimizeLegibility" shape-rendering="geometricPrecision" image-rendering="optimizeQuality" transform="matrix(1,0,0,1,338,16)">
      <text x="0" y="11" xml:space="preserve" stroke="none" clip-path="url(#clipPath8)">system</text>
      <line x1="0" y1="12.5" x2="37.47412109375" y2="12.5" clip-path="url(#clipPath8)" fill="none" />
    </g>
    <g font-family="sans-serif" font-size="11" color-rendering="optimizeQuality" color-interpolation="linearRGB" text-rendering="optimizeLegibility" shape-rendering="geometricPrecision" image-rendering="optimizeQuality" transform="matrix(1,0,0,1,375.4741,16)">
      <text x="0" y="11" xml:space="preserve" stroke="none" clip-path="url(#clipPath9)">:</text>
      <line x1="0" y1="12.5" x2="3.48046875" y2="12.5" clip-path="url(#clipPath9)" fill="none" />
    </g>
    <g font-family="sans-serif" font-size="11" color-rendering="optimizeQuality" color-interpolation="linearRGB" text-rendering="optimizeLegibility" shape-rendering="geometricPrecision" image-rendering="optimizeQuality" transform="matrix(1,0,0,1,378.9546,16)">
      <text x="0" y="11" xml:space="preserve" stroke="none" clip-path="url(#clipPath10)">Playlist editor</text>
      <line x1="0" y1="12.5" x2="72.24658203125" y2="12.5" clip-path="url(#clipPath10)" fill="none" />
    </g>
    <g font-family="sans-serif" font-size="11" color-rendering="optimizeQuality" stroke-miterlimit="1" color-interpolation="linearRGB" text-rendering="optimizeLegibility" stroke="white" fill="white" stroke-linecap="butt" shape-rendering="geometricPrecision" image-rendering="optimizeQuality" transform="matrix(1,0,0,1,389.6006,75)">
      <path d="M0.5 0.5 L9.5 0.5 L9.5 31.5 L0.5 31.5 Z" stroke="none" clip-path="url(#clipPath11)" />
      <path d="M0.5 0.5 L9.5 0.5 L9.5 31.5 L0.5 31.5 Z" stroke="black" clip-path="url(#clipPath11)" fill="none" />
    </g>
    <g font-family="sans-serif" font-size="11" color-rendering="optimizeQuality" stroke-miterlimit="1" color-interpolation="linearRGB" text-rendering="optimizeLegibility" stroke="white" fill="white" stroke-linecap="butt" shape-rendering="geometricPrecision" image-rendering="optimizeQuality" transform="matrix(1,0,0,1,389.6006,145)">
      <path d="M0.5 0.5 L9.5 0.5 L9.5 31.5 L0.5 31.5 Z" stroke="none" clip-path="url(#clipPath12)" />
      <path d="M0.5 0.5 L9.5 0.5 L9.5 31.5 L0.5 31.5 Z" stroke="black" clip-path="url(#clipPath12)" fill="none" />
    </g>
    <g font-family="sans-serif" font-size="11" color-rendering="optimizeQuality" stroke-miterlimit="1" color-interpolation="linearRGB" text-rendering="optimizeLegibility" stroke="white" fill="white" stroke-linecap="butt" shape-rendering="geometricPrecision" image-rendering="optimizeQuality" transform="matrix(1,0,0,1,572,10)">
      <path d="M77.9301986694336 0.5 L77.9301986694336 237.5" stroke="none" clip-path="url(#clipPath13)" />
      <path d="M77.9301986694336 0.5 L77.9301986694336 237.5" stroke-dasharray="5,5" stroke="black" clip-path="url(#clipPath13)" fill="none" />
      <path d="M0.5 0.5 L154.3603973388672 0.5 L154.3603973388672 25.5 L0.5 25.5 Z" stroke-dasharray="5,5" stroke="none" clip-path="url(#clipPath13)" />
      <path d="M0.5 0.5 L154.3603973388672 0.5 L154.3603973388672 25.5 L0.5 25.5 Z" stroke="black" clip-path="url(#clipPath13)" fill="none" />
    </g>
    <g font-family="sans-serif" font-size="11" color-rendering="optimizeQuality" color-interpolation="linearRGB" text-rendering="optimizeLegibility" shape-rendering="geometricPrecision" image-rendering="optimizeQuality" transform="matrix(1,0,0,1,578,16)">
      <text x="0" y="11" xml:space="preserve" stroke="none" clip-path="url(#clipPath14)">local storage</text>
      <line x1="0" y1="12.5" x2="68.34716796875" y2="12.5" clip-path="url(#clipPath14)" fill="none" />
    </g>
    <g font-family="sans-serif" font-size="11" color-rendering="optimizeQuality" color-interpolation="linearRGB" text-rendering="optimizeLegibility" shape-rendering="geometricPrecision" image-rendering="optimizeQuality" transform="matrix(1,0,0,1,646.3472,16)">
      <text x="0" y="11" xml:space="preserve" stroke="none" clip-path="url(#clipPath15)">:</text>
      <line x1="0" y1="12.5" x2="3.48046875" y2="12.5" clip-path="url(#clipPath15)" fill="none" />
    </g>
    <g font-family="sans-serif" font-size="11" color-rendering="optimizeQuality" color-interpolation="linearRGB" text-rendering="optimizeLegibility" shape-rendering="geometricPrecision" image-rendering="optimizeQuality" transform="matrix(1,0,0,1,649.8276,16)">
      <text x="0" y="11" xml:space="preserve" stroke="none" clip-path="url(#clipPath16)">Local storage</text>
      <line x1="0" y1="12.5" x2="71.03271484375" y2="12.5" clip-path="url(#clipPath16)" fill="none" />
    </g>
    <g font-family="sans-serif" font-size="11" color-rendering="optimizeQuality" stroke-miterlimit="1" color-interpolation="linearRGB" text-rendering="optimizeLegibility" stroke="white" fill="white" stroke-linecap="butt" shape-rendering="geometricPrecision" image-rendering="optimizeQuality" transform="matrix(1,0,0,1,644.4302,106)">
      <path d="M0.5 0.5 L9.5 0.5 L9.5 141.5 L0.5 141.5 Z" stroke="none" clip-path="url(#clipPath17)" />
      <path d="M0.5 0.5 L9.5 0.5 L9.5 141.5 L0.5 141.5 Z" stroke="black" clip-path="url(#clipPath17)" fill="none" />
    </g>
    <g font-family="sans-serif" font-size="11" color-rendering="optimizeQuality" stroke-miterlimit="1" color-interpolation="linearRGB" text-rendering="optimizeLegibility" stroke="white" fill="white" stroke-linecap="butt" shape-rendering="geometricPrecision" image-rendering="optimizeQuality" transform="matrix(1,0,0,1,852,10)">
      <path d="M81.93699645996094 0.5 L81.93699645996094 260.5" stroke="none" clip-path="url(#clipPath18)" />
      <path d="M81.93699645996094 0.5 L81.93699645996094 260.5" stroke-dasharray="5,5" stroke="black" clip-path="url(#clipPath18)" fill="none" />
      <path d="M0.5 0.5 L162.37399291992188 0.5 L162.37399291992188 25.5 L0.5 25.5 Z" stroke-dasharray="5,5" stroke="none" clip-path="url(#clipPath18)" />
      <path d="M0.5 0.5 L162.37399291992188 0.5 L162.37399291992188 25.5 L0.5 25.5 Z" stroke="black" clip-path="url(#clipPath18)" fill="none" />
    </g>
    <g font-family="sans-serif" font-size="11" color-rendering="optimizeQuality" color-interpolation="linearRGB" text-rendering="optimizeLegibility" shape-rendering="geometricPrecision" image-rendering="optimizeQuality" transform="matrix(1,0,0,1,858,16)">
      <text x="0" y="11" xml:space="preserve" stroke="none" clip-path="url(#clipPath19)">media archive</text>
      <line x1="0" y1="12.5" x2="74.09423828125" y2="12.5" clip-path="url(#clipPath19)" fill="none" />
    </g>
    <g font-family="sans-serif" font-size="11" color-rendering="optimizeQuality" color-interpolation="linearRGB" text-rendering="optimizeLegibility" shape-rendering="geometricPrecision" image-rendering="optimizeQuality" transform="matrix(1,0,0,1,932.09423828125,16)">
      <text x="0" y="11" xml:space="preserve" stroke="none" clip-path="url(#clipPath20)">:</text>
      <line x1="0" y1="12.5" x2="3.48046875" y2="12.5" clip-path="url(#clipPath20)" fill="none" />
    </g>
    <g font-family="sans-serif" font-size="11" color-rendering="optimizeQuality" color-interpolation="linearRGB" text-rendering="optimizeLegibility" shape-rendering="geometricPrecision" image-rendering="optimizeQuality" transform="matrix(1,0,0,1,935.57470703125,16)">
      <text x="0" y="11" xml:space="preserve" stroke="none" clip-path="url(#clipPath21)">Media archive</text>
      <line x1="0" y1="12.5" x2="73.29931640625" y2="12.5" clip-path="url(#clipPath21)" fill="none" />
    </g>
    <g font-family="sans-serif" font-size="11" color-rendering="optimizeQuality" stroke-miterlimit="1" color-interpolation="linearRGB" text-rendering="optimizeLegibility" stroke="white" fill="white" stroke-linecap="butt" shape-rendering="geometricPrecision" image-rendering="optimizeQuality" transform="matrix(1,0,0,1,928.437,176)">
      <path d="M0.5 0.5 L9.5 0.5 L9.5 94.5 L0.5 94.5 Z" stroke="none" clip-path="url(#clipPath22)" />
      <path d="M0.5 0.5 L9.5 0.5 L9.5 94.5 L0.5 94.5 Z" stroke="black" clip-path="url(#clipPath22)" fill="none" />
    </g>
    <g font-family="sans-serif" font-size="11" color-rendering="optimizeQuality" stroke-miterlimit="1" color-interpolation="linearRGB" text-rendering="optimizeLegibility" stroke-linecap="butt" shape-rendering="geometricPrecision" image-rendering="optimizeQuality" transform="matrix(1,0,0,1,82,-10)">
      <path d="M30 85 L307.6005859375 85" clip-path="url(#clipPath1)" fill="none" />
      <path d="M12 -6 L0 0 L12 6 Z" stroke="none" clip-path="url(#clipPath23)" transform="matrix(-0.9999999999999999,-3.219646771412954E-15,3.219646771412954E-15,-0.9999999999999999,307.6006,85)" />
      <path d="M12 -6 L0 0 L12 6 Z" stroke-miterlimit="10" clip-path="url(#clipPath23)" fill="none" stroke-linecap="square" transform="matrix(-0.9999999999999999,-3.219646771412954E-15,3.219646771412954E-15,-0.9999999999999999,307.6006,85)" />
    </g>
    <g font-family="sans-serif" font-size="11" color-rendering="optimizeQuality" color-interpolation="linearRGB" text-rendering="optimizeLegibility" shape-rendering="geometricPrecision" image-rendering="optimizeQuality" transform="matrix(1,0,0,1,143.8062,51)">
      <text x="0" y="11" xml:space="preserve" stroke="none" clip-path="url(#clipPath24)"> </text>
    </g>
    <g font-family="sans-serif" font-size="11" color-rendering="optimizeQuality" color-interpolation="linearRGB" text-rendering="optimizeLegibility" shape-rendering="geometricPrecision" image-rendering="optimizeQuality" transform="matrix(1,0,0,1,149.2867,51)">
      <text x="0" y="11" xml:space="preserve" stroke="none" clip-path="url(#clipPath25)">:</text>
    </g>
    <g font-family="sans-serif" font-size="11" color-rendering="optimizeQuality" color-interpolation="linearRGB" text-rendering="optimizeLegibility" shape-rendering="geometricPrecision" image-rendering="optimizeQuality" transform="matrix(1,0,0,1,154.7671,51)">
      <text x="0" y="11" xml:space="preserve" stroke="none" clip-path="url(#clipPath26)">authenticated</text>
    </g>
    <g font-family="sans-serif" font-size="11" color-rendering="optimizeQuality" color-interpolation="linearRGB" text-rendering="optimizeLegibility" shape-rendering="geometricPrecision" image-rendering="optimizeQuality" transform="matrix(1,0,0,1,227.73340000000002,51)">
      <text x="0" y="11" xml:space="preserve" stroke="none" clip-path="url(#clipPath27)">:=</text>
    </g>
    <g font-family="sans-serif" font-size="11" color-rendering="optimizeQuality" color-interpolation="linearRGB" text-rendering="optimizeLegibility" shape-rendering="geometricPrecision" image-rendering="optimizeQuality" transform="matrix(1,0,0,1,239.958,51)">
      <text x="0" y="11" xml:space="preserve" stroke="none" clip-path="url(#clipPath28)">authenticate</text>
    </g>
    <g font-family="sans-serif" font-size="11" color-rendering="optimizeQuality" color-interpolation="linearRGB" text-rendering="optimizeLegibility" shape-rendering="geometricPrecision" image-rendering="optimizeQuality" transform="matrix(1,0,0,1,306.001,51)">
      <text x="0" y="11" xml:space="preserve" stroke="none" clip-path="url(#clipPath29)">(</text>
    </g>
    <g font-family="sans-serif" font-size="11" color-rendering="optimizeQuality" color-interpolation="linearRGB" text-rendering="optimizeLegibility" shape-rendering="geometricPrecision" image-rendering="optimizeQuality" transform="matrix(1,0,0,1,309.5781,51)">
      <text x="0" y="11" xml:space="preserve" stroke="none" clip-path="url(#clipPath30)">authInfo</text>
    </g>
    <g font-family="sans-serif" font-size="11" color-rendering="optimizeQuality" color-interpolation="linearRGB" text-rendering="optimizeLegibility" shape-rendering="geometricPrecision" image-rendering="optimizeQuality" transform="matrix(1,0,0,1,354.2173,51)">
      <text x="0" y="11" xml:space="preserve" stroke="none" clip-path="url(#clipPath31)">)</text>
    </g>
    <g font-family="sans-serif" font-size="11" color-rendering="optimizeQuality" stroke-miterlimit="1" color-interpolation="linearRGB" text-rendering="optimizeLegibility" stroke-linecap="butt" shape-rendering="geometricPrecision" image-rendering="optimizeQuality" transform="matrix(1,0,0,1,82,-10)">
      <path d="M30 155 L307.6005859375 155" clip-path="url(#clipPath1)" fill="none" />
      <path d="M12 -6 L0 0 L12 6 Z" stroke="none" clip-path="url(#clipPath32)" transform="matrix(-1,1.2739809207573671E-14,-1.2739809207573671E-14,-1,307.6006,155)" />
      <path d="M12 -6 L0 0 L12 6 Z" stroke-miterlimit="10" clip-path="url(#clipPath32)" fill="none" stroke-linecap="square" transform="matrix(-1,1.2739809207573671E-14,-1.2739809207573671E-14,-1,307.6006,155)" />
    </g>
    <g font-family="sans-serif" font-size="11" color-rendering="optimizeQuality" color-interpolation="linearRGB" text-rendering="optimizeLegibility" shape-rendering="geometricPrecision" image-rendering="optimizeQuality" transform="matrix(1,0,0,1,132.8008,121)">
      <text x="0" y="11" xml:space="preserve" stroke="none" clip-path="url(#clipPath33)"> </text>
    </g>
    <g font-family="sans-serif" font-size="11" color-rendering="optimizeQuality" color-interpolation="linearRGB" text-rendering="optimizeLegibility" shape-rendering="geometricPrecision" image-rendering="optimizeQuality" transform="matrix(1,0,0,1,138.28130000000002,121)">
      <text x="0" y="11" xml:space="preserve" stroke="none" clip-path="url(#clipPath34)">:</text>
    </g>
    <g font-family="sans-serif" font-size="11" color-rendering="optimizeQuality" color-interpolation="linearRGB" text-rendering="optimizeLegibility" shape-rendering="geometricPrecision" image-rendering="optimizeQuality" transform="matrix(1,0,0,1,143.76170000000002,121)">
      <text x="0" y="11" xml:space="preserve" stroke="none" clip-path="url(#clipPath35)">addAudioClipToMediaArchive</text>
    </g>
    <g font-family="sans-serif" font-size="11" color-rendering="optimizeQuality" color-interpolation="linearRGB" text-rendering="optimizeLegibility" shape-rendering="geometricPrecision" image-rendering="optimizeQuality" transform="matrix(1,0,0,1,300.89840000000004,121)">
      <text x="0" y="11" xml:space="preserve" stroke="none" clip-path="url(#clipPath36)">(</text>
    </g>
    <g font-family="sans-serif" font-size="11" color-rendering="optimizeQuality" color-interpolation="linearRGB" text-rendering="optimizeLegibility" shape-rendering="geometricPrecision" image-rendering="optimizeQuality" transform="matrix(1,0,0,1,304.4756,121)">
      <text x="0" y="11" xml:space="preserve" stroke="none" clip-path="url(#clipPath37)">audioClipId</text>
    </g>
    <g font-family="sans-serif" font-size="11" color-rendering="optimizeQuality" color-interpolation="linearRGB" text-rendering="optimizeLegibility" shape-rendering="geometricPrecision" image-rendering="optimizeQuality" transform="matrix(1,0,0,1,365.22260000000006,121)">
      <text x="0" y="11" xml:space="preserve" stroke="none" clip-path="url(#clipPath38)">)</text>
    </g>
    <g font-family="sans-serif" font-size="11" color-rendering="optimizeQuality" stroke-miterlimit="1" color-interpolation="linearRGB" text-rendering="optimizeLegibility" stroke-linecap="butt" shape-rendering="geometricPrecision" image-rendering="optimizeQuality" transform="matrix(1,0,0,1,82,-10)">
      <path d="M317.6005859375 116 L562.43017578125 116" clip-path="url(#clipPath1)" fill="none" />
      <path d="M12 -6 L0 0 L12 6 Z" stroke="none" clip-path="url(#clipPath39)" transform="matrix(-1,6.5503158452884236E-15,-6.5503158452884236E-15,-1,562.4302,116)" />
      <path d="M12 -6 L0 0 L12 6 Z" stroke-miterlimit="10" clip-path="url(#clipPath39)" fill="none" stroke-linecap="square" transform="matrix(-1,6.5503158452884236E-15,-6.5503158452884236E-15,-1,562.4302,116)" />
    </g>
    <g font-family="sans-serif" font-size="11" color-rendering="optimizeQuality" color-interpolation="linearRGB" text-rendering="optimizeLegibility" shape-rendering="geometricPrecision" image-rendering="optimizeQuality" transform="matrix(1,0,0,1,415.0213,82)">
      <text x="0" y="11" xml:space="preserve" stroke="none" clip-path="url(#clipPath40)"> </text>
    </g>
    <g font-family="sans-serif" font-size="11" color-rendering="optimizeQuality" color-interpolation="linearRGB" text-rendering="optimizeLegibility" shape-rendering="geometricPrecision" image-rendering="optimizeQuality" transform="matrix(1,0,0,1,420.5018,82)">
      <text x="0" y="11" xml:space="preserve" stroke="none" clip-path="url(#clipPath41)">:</text>
    </g>
    <g font-family="sans-serif" font-size="11" color-rendering="optimizeQuality" color-interpolation="linearRGB" text-rendering="optimizeLegibility" shape-rendering="geometricPrecision" image-rendering="optimizeQuality" transform="matrix(1,0,0,1,425.9822,82)">
      <text x="0" y="11" xml:space="preserve" stroke="none" clip-path="url(#clipPath42)">authenticated</text>
    </g>
    <g font-family="sans-serif" font-size="11" color-rendering="optimizeQuality" color-interpolation="linearRGB" text-rendering="optimizeLegibility" shape-rendering="geometricPrecision" image-rendering="optimizeQuality" transform="matrix(1,0,0,1,498.94849999999997,82)">
      <text x="0" y="11" xml:space="preserve" stroke="none" clip-path="url(#clipPath43)">:=</text>
    </g>
    <g font-family="sans-serif" font-size="11" color-rendering="optimizeQuality" color-interpolation="linearRGB" text-rendering="optimizeLegibility" shape-rendering="geometricPrecision" image-rendering="optimizeQuality" transform="matrix(1,0,0,1,511.1731,82)">
      <text x="0" y="11" xml:space="preserve" stroke="none" clip-path="url(#clipPath44)">authenticate</text>
    </g>
    <g font-family="sans-serif" font-size="11" color-rendering="optimizeQuality" color-interpolation="linearRGB" text-rendering="optimizeLegibility" shape-rendering="geometricPrecision" image-rendering="optimizeQuality" transform="matrix(1,0,0,1,577.2161,82)">
      <text x="0" y="11" xml:space="preserve" stroke="none" clip-path="url(#clipPath45)">(</text>
    </g>
    <g font-family="sans-serif" font-size="11" color-rendering="optimizeQuality" color-interpolation="linearRGB" text-rendering="optimizeLegibility" shape-rendering="geometricPrecision" image-rendering="optimizeQuality" transform="matrix(1,0,0,1,580.7932,82)">
      <text x="0" y="11" xml:space="preserve" stroke="none" clip-path="url(#clipPath46)">authInfo</text>
    </g>
    <g font-family="sans-serif" font-size="11" color-rendering="optimizeQuality" color-interpolation="linearRGB" text-rendering="optimizeLegibility" shape-rendering="geometricPrecision" image-rendering="optimizeQuality" transform="matrix(1,0,0,1,625.4323999999999,82)">
      <text x="0" y="11" xml:space="preserve" stroke="none" clip-path="url(#clipPath47)">)</text>
    </g>
    <g font-family="sans-serif" font-size="11" color-rendering="optimizeQuality" stroke-miterlimit="1" color-interpolation="linearRGB" text-rendering="optimizeLegibility" stroke-linecap="butt" shape-rendering="geometricPrecision" image-rendering="optimizeQuality" transform="matrix(1,0,0,1,82,-10)">
      <path d="M312.6005859375 221 L562.43017578125 221" clip-path="url(#clipPath1)" fill="none" />
      <path d="M12 -6 L0 0 L12 6 Z" stroke="none" clip-path="url(#clipPath48)" transform="matrix(-1,6.5503158452884236E-15,-6.5503158452884236E-15,-1,562.4302,221)" />
      <path d="M12 -6 L0 0 L12 6 Z" stroke-miterlimit="10" clip-path="url(#clipPath48)" fill="none" stroke-linecap="square" transform="matrix(-1,6.5503158452884236E-15,-6.5503158452884236E-15,-1,562.4302,221)" />
    </g>
    <g font-family="sans-serif" font-size="11" color-rendering="optimizeQuality" color-interpolation="linearRGB" text-rendering="optimizeLegibility" shape-rendering="geometricPrecision" image-rendering="optimizeQuality" transform="matrix(1,0,0,1,414.009,187)">
      <text x="0" y="11" xml:space="preserve" stroke="none" clip-path="url(#clipPath49)"> </text>
    </g>
    <g font-family="sans-serif" font-size="11" color-rendering="optimizeQuality" color-interpolation="linearRGB" text-rendering="optimizeLegibility" shape-rendering="geometricPrecision" image-rendering="optimizeQuality" transform="matrix(1,0,0,1,419.4895,187)">
      <text x="0" y="11" xml:space="preserve" stroke="none" clip-path="url(#clipPath50)">:</text>
    </g>
    <g font-family="sans-serif" font-size="11" color-rendering="optimizeQuality" color-interpolation="linearRGB" text-rendering="optimizeLegibility" shape-rendering="geometricPrecision" image-rendering="optimizeQuality" transform="matrix(1,0,0,1,424.9699,187)">
      <text x="0" y="11" xml:space="preserve" stroke="none" clip-path="url(#clipPath51)">audioClip</text>
    </g>
    <g font-family="sans-serif" font-size="11" color-rendering="optimizeQuality" color-interpolation="linearRGB" text-rendering="optimizeLegibility" shape-rendering="geometricPrecision" image-rendering="optimizeQuality" transform="matrix(1,0,0,1,475.6247,187)">
      <text x="0" y="11" xml:space="preserve" stroke="none" clip-path="url(#clipPath52)">:=</text>
    </g>
    <g font-family="sans-serif" font-size="11" color-rendering="optimizeQuality" color-interpolation="linearRGB" text-rendering="optimizeLegibility" shape-rendering="geometricPrecision" image-rendering="optimizeQuality" transform="matrix(1,0,0,1,487.84929999999997,187)">
      <text x="0" y="11" xml:space="preserve" stroke="none" clip-path="url(#clipPath53)">getAudioClip</text>
    </g>
    <g font-family="sans-serif" font-size="11" color-rendering="optimizeQuality" color-interpolation="linearRGB" text-rendering="optimizeLegibility" shape-rendering="geometricPrecision" image-rendering="optimizeQuality" transform="matrix(1,0,0,1,557.1203,187)">
      <text x="0" y="11" xml:space="preserve" stroke="none" clip-path="url(#clipPath54)">(</text>
    </g>
    <g font-family="sans-serif" font-size="11" color-rendering="optimizeQuality" color-interpolation="linearRGB" text-rendering="optimizeLegibility" shape-rendering="geometricPrecision" image-rendering="optimizeQuality" transform="matrix(1,0,0,1,560.6974,187)">
      <text x="0" y="11" xml:space="preserve" stroke="none" clip-path="url(#clipPath55)">audioClipId</text>
    </g>
    <g font-family="sans-serif" font-size="11" color-rendering="optimizeQuality" color-interpolation="linearRGB" text-rendering="optimizeLegibility" shape-rendering="geometricPrecision" image-rendering="optimizeQuality" transform="matrix(1,0,0,1,621.4445000000001,187)">
      <text x="0" y="11" xml:space="preserve" stroke="none" clip-path="url(#clipPath56)">)</text>
    </g>
    <g font-family="sans-serif" font-size="11" color-rendering="optimizeQuality" stroke-miterlimit="1" color-interpolation="linearRGB" text-rendering="optimizeLegibility" stroke-linecap="butt" shape-rendering="geometricPrecision" image-rendering="optimizeQuality" transform="matrix(1,0,0,1,82,-10)">
      <path d="M317.6005859375 186 L846.43701171875 186" clip-path="url(#clipPath1)" fill="none" />
      <path d="M12 -6 L0 0 L12 6 Z" stroke="none" clip-path="url(#clipPath57)" transform="matrix(-1,-9.992007221626409E-16,9.992007221626409E-16,-1,846.437,186)" />
      <path d="M12 -6 L0 0 L12 6 Z" stroke-miterlimit="10" clip-path="url(#clipPath57)" fill="none" stroke-linecap="square" transform="matrix(-1,-9.992007221626409E-16,9.992007221626409E-16,-1,846.437,186)" />
    </g>
    <g font-family="sans-serif" font-size="11" color-rendering="optimizeQuality" color-interpolation="linearRGB" text-rendering="optimizeLegibility" shape-rendering="geometricPrecision" image-rendering="optimizeQuality" transform="matrix(1,0,0,1,667.2636,153)">
      <text x="0" y="11" xml:space="preserve" stroke="none" clip-path="url(#clipPath58)"> </text>
    </g>
    <g font-family="sans-serif" font-size="11" color-rendering="optimizeQuality" color-interpolation="linearRGB" text-rendering="optimizeLegibility" shape-rendering="geometricPrecision" image-rendering="optimizeQuality" transform="matrix(1,0,0,1,672.7441,153)">
      <text x="0" y="11" xml:space="preserve" stroke="none" clip-path="url(#clipPath59)">:</text>
    </g>
    <g font-family="sans-serif" font-size="11" color-rendering="optimizeQuality" color-interpolation="linearRGB" text-rendering="optimizeLegibility" shape-rendering="geometricPrecision" image-rendering="optimizeQuality" transform="matrix(1,0,0,1,678.2245,153)">
      <text x="0" y="11" xml:space="preserve" stroke="none" clip-path="url(#clipPath60)">authenticated</text>
    </g>
    <g font-family="sans-serif" font-size="11" color-rendering="optimizeQuality" color-interpolation="linearRGB" text-rendering="optimizeLegibility" shape-rendering="geometricPrecision" image-rendering="optimizeQuality" transform="matrix(1,0,0,1,751.1908000000001,153)">
      <text x="0" y="11" xml:space="preserve" stroke="none" clip-path="url(#clipPath61)">:=</text>
    </g>
    <g font-family="sans-serif" font-size="11" color-rendering="optimizeQuality" color-interpolation="linearRGB" text-rendering="optimizeLegibility" shape-rendering="geometricPrecision" image-rendering="optimizeQuality" transform="matrix(1,0,0,1,763.4154000000001,153)">
      <text x="0" y="11" xml:space="preserve" stroke="none" clip-path="url(#clipPath62)">authenticate</text>
    </g>
    <g font-family="sans-serif" font-size="11" color-rendering="optimizeQuality" color-interpolation="linearRGB" text-rendering="optimizeLegibility" shape-rendering="geometricPrecision" image-rendering="optimizeQuality" transform="matrix(1,0,0,1,829.4584,153)">
      <text x="0" y="11" xml:space="preserve" stroke="none" clip-path="url(#clipPath63)">(</text>
    </g>
    <g font-family="sans-serif" font-size="11" color-rendering="optimizeQuality" color-interpolation="linearRGB" text-rendering="optimizeLegibility" shape-rendering="geometricPrecision" image-rendering="optimizeQuality" transform="matrix(1,0,0,1,833.0355000000001,153)">
      <text x="0" y="11" xml:space="preserve" stroke="none" clip-path="url(#clipPath64)">authInfo</text>
    </g>
    <g font-family="sans-serif" font-size="11" color-rendering="optimizeQuality" color-interpolation="linearRGB" text-rendering="optimizeLegibility" shape-rendering="geometricPrecision" image-rendering="optimizeQuality" transform="matrix(1,0,0,1,877.6747,153)">
      <text x="0" y="11" xml:space="preserve" stroke="none" clip-path="url(#clipPath65)">)</text>
    </g>
    <g font-family="sans-serif" font-size="11" color-rendering="optimizeQuality" stroke-miterlimit="1" color-interpolation="linearRGB" text-rendering="optimizeLegibility" stroke-linecap="butt" shape-rendering="geometricPrecision" image-rendering="optimizeQuality" transform="matrix(1,0,0,1,82,-10)">
      <path d="M312.6005859375 256 L846.43701171875 256" clip-path="url(#clipPath1)" fill="none" />
      <path d="M12 -6 L0 0 L12 6 Z" stroke="none" clip-path="url(#clipPath66)" transform="matrix(-0.9999999999999999,-5.551115123125783E-16,5.551115123125783E-16,-0.9999999999999999,846.437,256)" />
      <path d="M12 -6 L0 0 L12 6 Z" stroke-miterlimit="10" clip-path="url(#clipPath66)" fill="none" stroke-linecap="square" transform="matrix(-0.9999999999999999,-5.551115123125783E-16,5.551115123125783E-16,-0.9999999999999999,846.437,256)" />
    </g>
    <g font-family="sans-serif" font-size="11" color-rendering="optimizeQuality" color-interpolation="linearRGB" text-rendering="optimizeLegibility" shape-rendering="geometricPrecision" image-rendering="optimizeQuality" transform="matrix(1,0,0,1,668.1839,220)">
      <text x="0" y="11" xml:space="preserve" stroke="none" clip-path="url(#clipPath67)"> </text>
    </g>
    <g font-family="sans-serif" font-size="11" color-rendering="optimizeQuality" color-interpolation="linearRGB" text-rendering="optimizeLegibility" shape-rendering="geometricPrecision" image-rendering="optimizeQuality" transform="matrix(1,0,0,1,673.6644,220)">
      <text x="0" y="11" xml:space="preserve" stroke="none" clip-path="url(#clipPath68)">:</text>
    </g>
    <g font-family="sans-serif" font-size="11" color-rendering="optimizeQuality" color-interpolation="linearRGB" text-rendering="optimizeLegibility" shape-rendering="geometricPrecision" image-rendering="optimizeQuality" transform="matrix(1,0,0,1,679.1448,220)">
      <text x="0" y="11" xml:space="preserve" stroke="none" clip-path="url(#clipPath69)">audioClipId</text>
    </g>
    <g font-family="sans-serif" font-size="11" color-rendering="optimizeQuality" color-interpolation="linearRGB" text-rendering="optimizeLegibility" shape-rendering="geometricPrecision" image-rendering="optimizeQuality" transform="matrix(1,0,0,1,739.8919000000001,220)">
      <text x="0" y="11" xml:space="preserve" stroke="none" clip-path="url(#clipPath70)">:=</text>
    </g>
    <g font-family="sans-serif" font-size="11" color-rendering="optimizeQuality" color-interpolation="linearRGB" text-rendering="optimizeLegibility" shape-rendering="geometricPrecision" image-rendering="optimizeQuality" transform="matrix(1,0,0,1,752.1165000000001,220)">
      <text x="0" y="11" xml:space="preserve" stroke="none" clip-path="url(#clipPath71)">storeAudioClip</text>
    </g>
    <g font-family="sans-serif" font-size="11" color-rendering="optimizeQuality" color-interpolation="linearRGB" text-rendering="optimizeLegibility" shape-rendering="geometricPrecision" image-rendering="optimizeQuality" transform="matrix(1,0,0,1,831.3938,220)">
      <text x="0" y="11" xml:space="preserve" stroke="none" clip-path="url(#clipPath72)">(</text>
    </g>
    <g font-family="sans-serif" font-size="11" color-rendering="optimizeQuality" color-interpolation="linearRGB" text-rendering="optimizeLegibility" shape-rendering="geometricPrecision" image-rendering="optimizeQuality" transform="matrix(1,0,0,1,834.971,220)">
      <text x="0" y="11" xml:space="preserve" stroke="none" clip-path="url(#clipPath73)">audioClip</text>
    </g>
    <g font-family="sans-serif" font-size="11" color-rendering="optimizeQuality" color-interpolation="linearRGB" text-rendering="optimizeLegibility" shape-rendering="geometricPrecision" image-rendering="optimizeQuality" transform="matrix(1,0,0,1,885.6258,220)">
      <text x="0" y="11" xml:space="preserve" stroke="none" clip-path="url(#clipPath74)">)</text>
    </g>
  </g>
</svg>
