<?xml version="1.0" encoding="UTF-8"?>

<!DOCTYPE svg PUBLIC '-//W3C//DTD SVG 1.0//EN' 'http://www.w3.org/TR/2001/REC-SVG-20010904/DTD/svg10.dtd'>
<svg stroke-width="1" stroke-dashoffset="0" font-size="12" stroke-dasharray="none" color-rendering="auto" font-weight="normal" color-interpolation="auto" stroke-linejoin="miter" fill="black" image-rendering="auto" font-family="&apos;sansserif&apos;" stroke-opacity="1" stroke-miterlimit="10" stroke="black" text-rendering="auto" font-style="normal" stroke-linecap="square" fill-opacity="1" shape-rendering="auto" xmlns="http://www.w3.org/2000/svg" xmlns:xlink="http://www.w3.org/1999/xlink">
  <!--Generated by the Batik Graphics2D SVG Generator-->
  <defs id="genericDefs" />
  <g>
    <defs id="defs1">
      <clipPath clipPathUnits="userSpaceOnUse" id="clipPath1">
        <path d="M-82 10 L-82 198 L620 198 L620 10 Z" />
      </clipPath>
      <clipPath clipPathUnits="userSpaceOnUse" id="clipPath2">
        <path d="M0 0 L0 188 L702 188 L702 0 Z" />
      </clipPath>
      <clipPath clipPathUnits="userSpaceOnUse" id="clipPath3">
        <path d="M-102 -10 L-102 178 L600 178 L600 -10 Z" />
      </clipPath>
      <clipPath clipPathUnits="userSpaceOnUse" id="clipPath4">
        <path d="M-12.417200088500977 -42 L-12.417200088500977 146 L689.5828247070312 146 L689.5828247070312 -42 Z" />
      </clipPath>
      <clipPath clipPathUnits="userSpaceOnUse" id="clipPath5">
        <path d="M-110.28389739990234 -42 L-110.28389739990234 146 L591.7161254882812 146 L591.7161254882812 -42 Z" />
      </clipPath>
      <clipPath clipPathUnits="userSpaceOnUse" id="clipPath6">
        <path d="M-113.76439666748047 -42 L-113.76439666748047 146 L588.235595703125 146 L588.235595703125 -42 Z" />
      </clipPath>
      <clipPath clipPathUnits="userSpaceOnUse" id="clipPath7">
        <path d="M-312 -10 L-312 178 L390 178 L390 -10 Z" />
      </clipPath>
      <clipPath clipPathUnits="userSpaceOnUse" id="clipPath8">
        <path d="M-318 -16 L-318 172 L384 172 L384 -16 Z" />
      </clipPath>
      <clipPath clipPathUnits="userSpaceOnUse" id="clipPath9">
        <path d="M-355.4740905761719 -16 L-355.4740905761719 172 L346.5259094238281 172 L346.5259094238281 -16 Z" />
      </clipPath>
      <clipPath clipPathUnits="userSpaceOnUse" id="clipPath10">
        <path d="M-358.95458984375 -16 L-358.95458984375 172 L343.04541015625 172 L343.04541015625 -16 Z" />
      </clipPath>
      <clipPath clipPathUnits="userSpaceOnUse" id="clipPath11">
        <path d="M-369.6005859375 -75 L-369.6005859375 113 L332.3994140625 113 L332.3994140625 -75 Z" />
      </clipPath>
      <clipPath clipPathUnits="userSpaceOnUse" id="clipPath12">
        <path d="M-369.6005859375 -145 L-369.6005859375 43 L332.3994140625 43 L332.3994140625 -145 Z" />
      </clipPath>
      <clipPath clipPathUnits="userSpaceOnUse" id="clipPath13">
        <path d="M-572 -10 L-572 178 L130 178 L130 -10 Z" />
      </clipPath>
      <clipPath clipPathUnits="userSpaceOnUse" id="clipPath14">
        <path d="M-578 -16 L-578 172 L124 172 L124 -16 Z" />
      </clipPath>
      <clipPath clipPathUnits="userSpaceOnUse" id="clipPath15">
        <path d="M-629.7559204101562 -16 L-629.7559204101562 172 L72.24410247802734 172 L72.24410247802734 -16 Z" />
      </clipPath>
      <clipPath clipPathUnits="userSpaceOnUse" id="clipPath16">
        <path d="M-633.236328125 -16 L-633.236328125 172 L68.76370239257812 172 L68.76370239257812 -16 Z" />
      </clipPath>
      <clipPath clipPathUnits="userSpaceOnUse" id="clipPath17">
        <path d="M-626.6546020507812 -106 L-626.6546020507812 82 L75.34539794921875 82 L75.34539794921875 -106 Z" />
      </clipPath>
      <clipPath clipPathUnits="userSpaceOnUse" id="clipPath18">
        <path d="M369.6005859375 75 L369.6005859375 -113 L-332.3994140625 -113 L-332.3994140625 75 Z" />
      </clipPath>
      <clipPath clipPathUnits="userSpaceOnUse" id="clipPath19">
        <path d="M-133.8061981201172 -51 L-133.8061981201172 137 L568.1937866210938 137 L568.1937866210938 -51 Z" />
      </clipPath>
      <clipPath clipPathUnits="userSpaceOnUse" id="clipPath20">
        <path d="M-139.2866973876953 -51 L-139.2866973876953 137 L562.7133178710938 137 L562.7133178710938 -51 Z" />
      </clipPath>
      <clipPath clipPathUnits="userSpaceOnUse" id="clipPath21">
        <path d="M-144.76710510253906 -51 L-144.76710510253906 137 L557.23291015625 137 L557.23291015625 -51 Z" />
      </clipPath>
      <clipPath clipPathUnits="userSpaceOnUse" id="clipPath22">
        <path d="M-217.7333984375 -51 L-217.7333984375 137 L484.2666015625 137 L484.2666015625 -51 Z" />
      </clipPath>
      <clipPath clipPathUnits="userSpaceOnUse" id="clipPath23">
        <path d="M-229.95799255371094 -51 L-229.95799255371094 137 L472.0419921875 137 L472.0419921875 -51 Z" />
      </clipPath>
      <clipPath clipPathUnits="userSpaceOnUse" id="clipPath24">
        <path d="M-296.0010070800781 -51 L-296.0010070800781 137 L405.9989929199219 137 L405.9989929199219 -51 Z" />
      </clipPath>
      <clipPath clipPathUnits="userSpaceOnUse" id="clipPath25">
        <path d="M-299.5780944824219 -51 L-299.5780944824219 137 L402.4219055175781 137 L402.4219055175781 -51 Z" />
      </clipPath>
      <clipPath clipPathUnits="userSpaceOnUse" id="clipPath26">
        <path d="M-344.21728515625 -51 L-344.21728515625 137 L357.78271484375 137 L357.78271484375 -51 Z" />
      </clipPath>
      <clipPath clipPathUnits="userSpaceOnUse" id="clipPath27">
        <path d="M369.6005859375 145 L369.6005859375 -43 L-332.3994140625 -43 L-332.3994140625 145 Z" />
      </clipPath>
      <clipPath clipPathUnits="userSpaceOnUse" id="clipPath28">
        <path d="M-145.1634063720703 -121 L-145.1634063720703 67 L556.8366088867188 67 L556.8366088867188 -121 Z" />
      </clipPath>
      <clipPath clipPathUnits="userSpaceOnUse" id="clipPath29">
        <path d="M-150.64390563964844 -121 L-150.64390563964844 67 L551.3560791015625 67 L551.3560791015625 -121 Z" />
      </clipPath>
      <clipPath clipPathUnits="userSpaceOnUse" id="clipPath30">
        <path d="M-156.12429809570312 -121 L-156.12429809570312 67 L545.8756713867188 67 L545.8756713867188 -121 Z" />
      </clipPath>
      <clipPath clipPathUnits="userSpaceOnUse" id="clipPath31">
        <path d="M-240.5417938232422 -121 L-240.5417938232422 67 L461.45819091796875 67 L461.45819091796875 -121 Z" />
      </clipPath>
      <clipPath clipPathUnits="userSpaceOnUse" id="clipPath32">
        <path d="M-244.118896484375 -121 L-244.118896484375 67 L457.881103515625 67 L457.881103515625 -121 Z" />
      </clipPath>
      <clipPath clipPathUnits="userSpaceOnUse" id="clipPath33">
        <path d="M-282.1247863769531 -121 L-282.1247863769531 67 L419.8752136230469 67 L419.8752136230469 -121 Z" />
      </clipPath>
      <clipPath clipPathUnits="userSpaceOnUse" id="clipPath34">
        <path d="M-285.60528564453125 -121 L-285.60528564453125 67 L416.39471435546875 67 L416.39471435546875 -121 Z" />
      </clipPath>
      <clipPath clipPathUnits="userSpaceOnUse" id="clipPath35">
        <path d="M-332.860107421875 -121 L-332.860107421875 67 L369.139892578125 67 L369.139892578125 -121 Z" />
      </clipPath>
      <clipPath clipPathUnits="userSpaceOnUse" id="clipPath36">
        <path d="M626.6544799804688 106 L626.6544799804688 -82 L-75.34549713134766 -82 L-75.34549713134766 106 Z" />
      </clipPath>
      <clipPath clipPathUnits="userSpaceOnUse" id="clipPath37">
        <path d="M-396.1333923339844 -82 L-396.1333923339844 106 L305.8666076660156 106 L305.8666076660156 -82 Z" />
      </clipPath>
      <clipPath clipPathUnits="userSpaceOnUse" id="clipPath38">
        <path d="M-401.6138916015625 -82 L-401.6138916015625 106 L300.3861083984375 106 L300.3861083984375 -82 Z" />
      </clipPath>
      <clipPath clipPathUnits="userSpaceOnUse" id="clipPath39">
        <path d="M-407.09429931640625 -82 L-407.09429931640625 106 L294.90570068359375 106 L294.90570068359375 -82 Z" />
      </clipPath>
      <clipPath clipPathUnits="userSpaceOnUse" id="clipPath40">
        <path d="M-451.7334899902344 -82 L-451.7334899902344 106 L250.26649475097656 106 L250.26649475097656 -82 Z" />
      </clipPath>
      <clipPath clipPathUnits="userSpaceOnUse" id="clipPath41">
        <path d="M-463.9580993652344 -82 L-463.9580993652344 106 L238.04190063476562 106 L238.04190063476562 -82 Z" />
      </clipPath>
      <clipPath clipPathUnits="userSpaceOnUse" id="clipPath42">
        <path d="M-530.0009765625 -82 L-530.0009765625 106 L171.99899291992188 106 L171.99899291992188 -82 Z" />
      </clipPath>
      <clipPath clipPathUnits="userSpaceOnUse" id="clipPath43">
        <path d="M-533.5781860351562 -82 L-533.5781860351562 106 L168.4217987060547 106 L168.4217987060547 -82 Z" />
      </clipPath>
      <clipPath clipPathUnits="userSpaceOnUse" id="clipPath44">
        <path d="M-606.5444946289062 -82 L-606.5444946289062 106 L95.45549774169922 106 L95.45549774169922 -82 Z" />
      </clipPath>
      <clipPath clipPathUnits="userSpaceOnUse" id="clipPath45">
        <path d="M626.6544799804688 176 L626.6544799804688 -12 L-75.34549713134766 -12 L-75.34549713134766 176 Z" />
      </clipPath>
      <clipPath clipPathUnits="userSpaceOnUse" id="clipPath46">
        <path d="M-412.7757873535156 -152 L-412.7757873535156 36 L289.2242126464844 36 L289.2242126464844 -152 Z" />
      </clipPath>
      <clipPath clipPathUnits="userSpaceOnUse" id="clipPath47">
        <path d="M-418.25628662109375 -152 L-418.25628662109375 36 L283.74371337890625 36 L283.74371337890625 -152 Z" />
      </clipPath>
      <clipPath clipPathUnits="userSpaceOnUse" id="clipPath48">
        <path d="M-423.7366943359375 -152 L-423.7366943359375 36 L278.2633056640625 36 L278.2633056640625 -152 Z" />
      </clipPath>
      <clipPath clipPathUnits="userSpaceOnUse" id="clipPath49">
        <path d="M-497.5838928222656 -152 L-497.5838928222656 36 L204.41610717773438 36 L204.41610717773438 -152 Z" />
      </clipPath>
      <clipPath clipPathUnits="userSpaceOnUse" id="clipPath50">
        <path d="M-501.1610107421875 -152 L-501.1610107421875 36 L200.83900451660156 36 L200.83900451660156 -152 Z" />
      </clipPath>
      <clipPath clipPathUnits="userSpaceOnUse" id="clipPath51">
        <path d="M-539.1668701171875 -152 L-539.1668701171875 36 L162.83309936523438 36 L162.83309936523438 -152 Z" />
      </clipPath>
      <clipPath clipPathUnits="userSpaceOnUse" id="clipPath52">
        <path d="M-542.6472778320312 -152 L-542.6472778320312 36 L159.3527069091797 36 L159.3527069091797 -152 Z" />
      </clipPath>
      <clipPath clipPathUnits="userSpaceOnUse" id="clipPath53">
        <path d="M-589.9022216796875 -152 L-589.9022216796875 36 L112.0978012084961 36 L112.0978012084961 -152 Z" />
      </clipPath>
    </defs>
    <g color-rendering="optimizeQuality" stroke-dasharray="5,5" stroke-miterlimit="1" color-interpolation="linearRGB" text-rendering="optimizeLegibility" stroke-linecap="butt" shape-rendering="geometricPrecision" image-rendering="optimizeQuality" transform="matrix(1,0,0,1,102,10)">
      <path d="M10.5 48.5 L10.5 167.5" clip-path="url(#clipPath3)" fill="none" />
      <path d="M10 8 C5 8 5 0 10 0 C15 0 15 8 10 8 M10 8 L10 10 M0 10 L20 10 M10 10 L10 20 M10 20 L0 30 M10 20 L20 30" stroke="none" clip-path="url(#clipPath3)" fill="white" />
      <path d="M10 8 C5 8 5 0 10 0 C15 0 15 8 10 8 M10 8 L10 10 M0 10 L20 10 M10 10 L10 20 M10 20 L0 30 M10 20 L20 30" stroke-dasharray="none" clip-path="url(#clipPath3)" fill="none" />
    </g>
    <g font-family="sans-serif" font-size="11" color-rendering="optimizeQuality" color-interpolation="linearRGB" text-rendering="optimizeLegibility" shape-rendering="geometricPrecision" image-rendering="optimizeQuality" transform="matrix(1,0,0,1,12.417199999999994,42)">
      <text x="0" y="11" xml:space="preserve" stroke="none" clip-path="url(#clipPath4)">playlist Maintainer</text>
      <line x1="0" y1="12.5" x2="97.86669921875" y2="12.5" clip-path="url(#clipPath4)" fill="none" />
    </g>
    <g font-family="sans-serif" font-size="11" color-rendering="optimizeQuality" color-interpolation="linearRGB" text-rendering="optimizeLegibility" shape-rendering="geometricPrecision" image-rendering="optimizeQuality" transform="matrix(1,0,0,1,110.28389999999999,42)">
      <text x="0" y="11" xml:space="preserve" stroke="none" clip-path="url(#clipPath5)">:</text>
      <line x1="0" y1="12.5" x2="3.48046875" y2="12.5" clip-path="url(#clipPath5)" fill="none" />
    </g>
    <g font-family="sans-serif" font-size="11" color-rendering="optimizeQuality" color-interpolation="linearRGB" text-rendering="optimizeLegibility" shape-rendering="geometricPrecision" image-rendering="optimizeQuality" transform="matrix(1,0,0,1,113.7644,42)">
      <text x="0" y="11" xml:space="preserve" stroke="none" clip-path="url(#clipPath6)">Playlist maintainer</text>
      <line x1="0" y1="12.5" x2="97.818359375" y2="12.5" clip-path="url(#clipPath6)" fill="none" />
    </g>
    <g font-family="sans-serif" font-size="11" color-rendering="optimizeQuality" stroke-miterlimit="1" color-interpolation="linearRGB" text-rendering="optimizeLegibility" stroke="white" fill="white" stroke-linecap="butt" shape-rendering="geometricPrecision" image-rendering="optimizeQuality" transform="matrix(1,0,0,1,312,10)">
      <path d="M63.10060119628906 0.5 L63.10060119628906 167.5" stroke="none" clip-path="url(#clipPath7)" />
      <path d="M63.10060119628906 0.5 L63.10060119628906 167.5" stroke-dasharray="5,5" stroke="black" clip-path="url(#clipPath7)" fill="none" />
      <path d="M0.5 0.5 L124.70120239257812 0.5 L124.70120239257812 25.5 L0.5 25.5 Z" stroke-dasharray="5,5" stroke="none" clip-path="url(#clipPath7)" />
      <path d="M0.5 0.5 L124.70120239257812 0.5 L124.70120239257812 25.5 L0.5 25.5 Z" stroke="black" clip-path="url(#clipPath7)" fill="none" />
    </g>
    <g font-family="sans-serif" font-size="11" color-rendering="optimizeQuality" color-interpolation="linearRGB" text-rendering="optimizeLegibility" shape-rendering="geometricPrecision" image-rendering="optimizeQuality" transform="matrix(1,0,0,1,318,16)">
      <text x="0" y="11" xml:space="preserve" stroke="none" clip-path="url(#clipPath8)">system</text>
      <line x1="0" y1="12.5" x2="37.47412109375" y2="12.5" clip-path="url(#clipPath8)" fill="none" />
    </g>
    <g font-family="sans-serif" font-size="11" color-rendering="optimizeQuality" color-interpolation="linearRGB" text-rendering="optimizeLegibility" shape-rendering="geometricPrecision" image-rendering="optimizeQuality" transform="matrix(1,0,0,1,355.4741,16)">
      <text x="0" y="11" xml:space="preserve" stroke="none" clip-path="url(#clipPath9)">:</text>
      <line x1="0" y1="12.5" x2="3.48046875" y2="12.5" clip-path="url(#clipPath9)" fill="none" />
    </g>
    <g font-family="sans-serif" font-size="11" color-rendering="optimizeQuality" color-interpolation="linearRGB" text-rendering="optimizeLegibility" shape-rendering="geometricPrecision" image-rendering="optimizeQuality" transform="matrix(1,0,0,1,358.9546,16)">
      <text x="0" y="11" xml:space="preserve" stroke="none" clip-path="url(#clipPath10)">Playlist editor</text>
      <line x1="0" y1="12.5" x2="72.24658203125" y2="12.5" clip-path="url(#clipPath10)" fill="none" />
    </g>
    <g font-family="sans-serif" font-size="11" color-rendering="optimizeQuality" stroke-miterlimit="1" color-interpolation="linearRGB" text-rendering="optimizeLegibility" stroke="white" fill="white" stroke-linecap="butt" shape-rendering="geometricPrecision" image-rendering="optimizeQuality" transform="matrix(1,0,0,1,369.6006,75)">
      <path d="M0.5 0.5 L9.5 0.5 L9.5 31.5 L0.5 31.5 Z" stroke="none" clip-path="url(#clipPath11)" />
      <path d="M0.5 0.5 L9.5 0.5 L9.5 31.5 L0.5 31.5 Z" stroke="black" clip-path="url(#clipPath11)" fill="none" />
    </g>
    <g font-family="sans-serif" font-size="11" color-rendering="optimizeQuality" stroke-miterlimit="1" color-interpolation="linearRGB" text-rendering="optimizeLegibility" stroke="white" fill="white" stroke-linecap="butt" shape-rendering="geometricPrecision" image-rendering="optimizeQuality" transform="matrix(1,0,0,1,369.6006,145)">
      <path d="M0.5 0.5 L9.5 0.5 L9.5 31.5 L0.5 31.5 Z" stroke="none" clip-path="url(#clipPath12)" />
      <path d="M0.5 0.5 L9.5 0.5 L9.5 31.5 L0.5 31.5 Z" stroke="black" clip-path="url(#clipPath12)" fill="none" />
    </g>
    <g font-family="sans-serif" font-size="11" color-rendering="optimizeQuality" stroke-miterlimit="1" color-interpolation="linearRGB" text-rendering="optimizeLegibility" stroke="white" fill="white" stroke-linecap="butt" shape-rendering="geometricPrecision" image-rendering="optimizeQuality" transform="matrix(1,0,0,1,572,10)">
      <path d="M60.15454864501953 0.5 L60.15454864501953 167.5" stroke="none" clip-path="url(#clipPath13)" />
      <path d="M60.15454864501953 0.5 L60.15454864501953 167.5" stroke-dasharray="5,5" stroke="black" clip-path="url(#clipPath13)" fill="none" />
      <path d="M0.5 0.5 L118.80909729003906 0.5 L118.80909729003906 25.5 L0.5 25.5 Z" stroke-dasharray="5,5" stroke="none" clip-path="url(#clipPath13)" />
      <path d="M0.5 0.5 L118.80909729003906 0.5 L118.80909729003906 25.5 L0.5 25.5 Z" stroke="black" clip-path="url(#clipPath13)" fill="none" />
    </g>
    <g font-family="sans-serif" font-size="11" color-rendering="optimizeQuality" color-interpolation="linearRGB" text-rendering="optimizeLegibility" shape-rendering="geometricPrecision" image-rendering="optimizeQuality" transform="matrix(1,0,0,1,578,16)">
      <text x="0" y="11" xml:space="preserve" stroke="none" clip-path="url(#clipPath14)">scheduler</text>
      <line x1="0" y1="12.5" x2="51.755859375" y2="12.5" clip-path="url(#clipPath14)" fill="none" />
    </g>
    <g font-family="sans-serif" font-size="11" color-rendering="optimizeQuality" color-interpolation="linearRGB" text-rendering="optimizeLegibility" shape-rendering="geometricPrecision" image-rendering="optimizeQuality" transform="matrix(1,0,0,1,629.7559,16)">
      <text x="0" y="11" xml:space="preserve" stroke="none" clip-path="url(#clipPath15)">:</text>
      <line x1="0" y1="12.5" x2="3.48046875" y2="12.5" clip-path="url(#clipPath15)" fill="none" />
    </g>
    <g font-family="sans-serif" font-size="11" color-rendering="optimizeQuality" color-interpolation="linearRGB" text-rendering="optimizeLegibility" shape-rendering="geometricPrecision" image-rendering="optimizeQuality" transform="matrix(1,0,0,1,633.2363,16)">
      <text x="0" y="11" xml:space="preserve" stroke="none" clip-path="url(#clipPath16)">Scheduler</text>
      <line x1="0" y1="12.5" x2="52.07275390625" y2="12.5" clip-path="url(#clipPath16)" fill="none" />
    </g>
    <g font-family="sans-serif" font-size="11" color-rendering="optimizeQuality" stroke-miterlimit="1" color-interpolation="linearRGB" text-rendering="optimizeLegibility" stroke="white" fill="white" stroke-linecap="butt" shape-rendering="geometricPrecision" image-rendering="optimizeQuality" transform="matrix(1,0,0,1,626.6546,106)">
      <path d="M0.5 0.5 L9.5 0.5 L9.5 71.5 L0.5 71.5 Z" stroke="none" clip-path="url(#clipPath17)" />
      <path d="M0.5 0.5 L9.5 0.5 L9.5 71.5 L0.5 71.5 Z" stroke="black" clip-path="url(#clipPath17)" fill="none" />
    </g>
    <g font-family="sans-serif" font-size="11" color-rendering="optimizeQuality" stroke-miterlimit="1" color-interpolation="linearRGB" text-rendering="optimizeLegibility" stroke-linecap="butt" shape-rendering="geometricPrecision" image-rendering="optimizeQuality" transform="matrix(1,0,0,1,82,-10)">
      <path d="M30 85 L287.6005859375 85" clip-path="url(#clipPath1)" fill="none" />
      <path d="M12 -6 L0 0 L12 6 Z" stroke="none" clip-path="url(#clipPath18)" transform="matrix(-0.9999999999999999,-3.219646771412954E-15,3.219646771412954E-15,-0.9999999999999999,287.6006,85)" />
      <path d="M12 -6 L0 0 L12 6 Z" stroke-miterlimit="10" clip-path="url(#clipPath18)" fill="none" stroke-linecap="square" transform="matrix(-0.9999999999999999,-3.219646771412954E-15,3.219646771412954E-15,-0.9999999999999999,287.6006,85)" />
    </g>
    <g font-family="sans-serif" font-size="11" color-rendering="optimizeQuality" color-interpolation="linearRGB" text-rendering="optimizeLegibility" shape-rendering="geometricPrecision" image-rendering="optimizeQuality" transform="matrix(1,0,0,1,133.8062,51)">
      <text x="0" y="11" xml:space="preserve" stroke="none" clip-path="url(#clipPath19)"> </text>
    </g>
    <g font-family="sans-serif" font-size="11" color-rendering="optimizeQuality" color-interpolation="linearRGB" text-rendering="optimizeLegibility" shape-rendering="geometricPrecision" image-rendering="optimizeQuality" transform="matrix(1,0,0,1,139.2867,51)">
      <text x="0" y="11" xml:space="preserve" stroke="none" clip-path="url(#clipPath20)">:</text>
    </g>
    <g font-family="sans-serif" font-size="11" color-rendering="optimizeQuality" color-interpolation="linearRGB" text-rendering="optimizeLegibility" shape-rendering="geometricPrecision" image-rendering="optimizeQuality" transform="matrix(1,0,0,1,144.7671,51)">
      <text x="0" y="11" xml:space="preserve" stroke="none" clip-path="url(#clipPath21)">authenticated</text>
    </g>
    <g font-family="sans-serif" font-size="11" color-rendering="optimizeQuality" color-interpolation="linearRGB" text-rendering="optimizeLegibility" shape-rendering="geometricPrecision" image-rendering="optimizeQuality" transform="matrix(1,0,0,1,217.73340000000002,51)">
      <text x="0" y="11" xml:space="preserve" stroke="none" clip-path="url(#clipPath22)">:=</text>
    </g>
    <g font-family="sans-serif" font-size="11" color-rendering="optimizeQuality" color-interpolation="linearRGB" text-rendering="optimizeLegibility" shape-rendering="geometricPrecision" image-rendering="optimizeQuality" transform="matrix(1,0,0,1,229.958,51)">
      <text x="0" y="11" xml:space="preserve" stroke="none" clip-path="url(#clipPath23)">authenticate</text>
    </g>
    <g font-family="sans-serif" font-size="11" color-rendering="optimizeQuality" color-interpolation="linearRGB" text-rendering="optimizeLegibility" shape-rendering="geometricPrecision" image-rendering="optimizeQuality" transform="matrix(1,0,0,1,296.001,51)">
      <text x="0" y="11" xml:space="preserve" stroke="none" clip-path="url(#clipPath24)">(</text>
    </g>
    <g font-family="sans-serif" font-size="11" color-rendering="optimizeQuality" color-interpolation="linearRGB" text-rendering="optimizeLegibility" shape-rendering="geometricPrecision" image-rendering="optimizeQuality" transform="matrix(1,0,0,1,299.5781,51)">
      <text x="0" y="11" xml:space="preserve" stroke="none" clip-path="url(#clipPath25)">authInfo</text>
    </g>
    <g font-family="sans-serif" font-size="11" color-rendering="optimizeQuality" color-interpolation="linearRGB" text-rendering="optimizeLegibility" shape-rendering="geometricPrecision" image-rendering="optimizeQuality" transform="matrix(1,0,0,1,344.2173,51)">
      <text x="0" y="11" xml:space="preserve" stroke="none" clip-path="url(#clipPath26)">)</text>
    </g>
    <g font-family="sans-serif" font-size="11" color-rendering="optimizeQuality" stroke-miterlimit="1" color-interpolation="linearRGB" text-rendering="optimizeLegibility" stroke-linecap="butt" shape-rendering="geometricPrecision" image-rendering="optimizeQuality" transform="matrix(1,0,0,1,82,-10)">
      <path d="M30 155 L287.6005859375 155" clip-path="url(#clipPath1)" fill="none" />
      <path d="M12 -6 L0 0 L12 6 Z" stroke="none" clip-path="url(#clipPath27)" transform="matrix(-1,1.3211653993039363E-14,-1.3211653993039363E-14,-1,287.6006,155)" />
      <path d="M12 -6 L0 0 L12 6 Z" stroke-miterlimit="10" clip-path="url(#clipPath27)" fill="none" stroke-linecap="square" transform="matrix(-1,1.3211653993039363E-14,-1.3211653993039363E-14,-1,287.6006,155)" />
    </g>
    <g font-family="sans-serif" font-size="11" color-rendering="optimizeQuality" color-interpolation="linearRGB" text-rendering="optimizeLegibility" shape-rendering="geometricPrecision" image-rendering="optimizeQuality" transform="matrix(1,0,0,1,145.1634,121)">
      <text x="0" y="11" xml:space="preserve" stroke="none" clip-path="url(#clipPath28)"> </text>
    </g>
    <g font-family="sans-serif" font-size="11" color-rendering="optimizeQuality" color-interpolation="linearRGB" text-rendering="optimizeLegibility" shape-rendering="geometricPrecision" image-rendering="optimizeQuality" transform="matrix(1,0,0,1,150.6439,121)">
      <text x="0" y="11" xml:space="preserve" stroke="none" clip-path="url(#clipPath29)">:</text>
    </g>
    <g font-family="sans-serif" font-size="11" color-rendering="optimizeQuality" color-interpolation="linearRGB" text-rendering="optimizeLegibility" shape-rendering="geometricPrecision" image-rendering="optimizeQuality" transform="matrix(1,0,0,1,156.1243,121)">
      <text x="0" y="11" xml:space="preserve" stroke="none" clip-path="url(#clipPath30)">schedulePlaylist</text>
    </g>
    <g font-family="sans-serif" font-size="11" color-rendering="optimizeQuality" color-interpolation="linearRGB" text-rendering="optimizeLegibility" shape-rendering="geometricPrecision" image-rendering="optimizeQuality" transform="matrix(1,0,0,1,240.54180000000002,121)">
      <text x="0" y="11" xml:space="preserve" stroke="none" clip-path="url(#clipPath31)">(</text>
    </g>
    <g font-family="sans-serif" font-size="11" color-rendering="optimizeQuality" color-interpolation="linearRGB" text-rendering="optimizeLegibility" shape-rendering="geometricPrecision" image-rendering="optimizeQuality" transform="matrix(1,0,0,1,244.1189,121)">
      <text x="0" y="11" xml:space="preserve" stroke="none" clip-path="url(#clipPath32)">playlist</text>
    </g>
    <g font-family="sans-serif" font-size="11" color-rendering="optimizeQuality" color-interpolation="linearRGB" text-rendering="optimizeLegibility" shape-rendering="geometricPrecision" image-rendering="optimizeQuality" transform="matrix(1,0,0,1,282.1248,121)">
      <text x="0" y="11" xml:space="preserve" stroke="none" clip-path="url(#clipPath33)">,</text>
    </g>
    <g font-family="sans-serif" font-size="11" color-rendering="optimizeQuality" color-interpolation="linearRGB" text-rendering="optimizeLegibility" shape-rendering="geometricPrecision" image-rendering="optimizeQuality" transform="matrix(1,0,0,1,285.6053,121)">
      <text x="0" y="11" xml:space="preserve" stroke="none" clip-path="url(#clipPath34)">schedule</text>
    </g>
    <g font-family="sans-serif" font-size="11" color-rendering="optimizeQuality" color-interpolation="linearRGB" text-rendering="optimizeLegibility" shape-rendering="geometricPrecision" image-rendering="optimizeQuality" transform="matrix(1,0,0,1,332.8601,121)">
      <text x="0" y="11" xml:space="preserve" stroke="none" clip-path="url(#clipPath35)">)</text>
    </g>
    <g font-family="sans-serif" font-size="11" color-rendering="optimizeQuality" stroke-miterlimit="1" color-interpolation="linearRGB" text-rendering="optimizeLegibility" stroke-linecap="butt" shape-rendering="geometricPrecision" image-rendering="optimizeQuality" transform="matrix(1,0,0,1,82,-10)">
      <path d="M297.6005859375 116 L544.6544799804688 116" clip-path="url(#clipPath1)" fill="none" />
      <path d="M12 -6 L0 0 L12 6 Z" stroke="none" clip-path="url(#clipPath36)" transform="matrix(-1,6.5503158452884236E-15,-6.5503158452884236E-15,-1,544.6545,116)" />
      <path d="M12 -6 L0 0 L12 6 Z" stroke-miterlimit="10" clip-path="url(#clipPath36)" fill="none" stroke-linecap="square" transform="matrix(-1,6.5503158452884236E-15,-6.5503158452884236E-15,-1,544.6545,116)" />
    </g>
    <g font-family="sans-serif" font-size="11" color-rendering="optimizeQuality" color-interpolation="linearRGB" text-rendering="optimizeLegibility" shape-rendering="geometricPrecision" image-rendering="optimizeQuality" transform="matrix(1,0,0,1,396.1334,82)">
      <text x="0" y="11" xml:space="preserve" stroke="none" clip-path="url(#clipPath37)"> </text>
    </g>
    <g font-family="sans-serif" font-size="11" color-rendering="optimizeQuality" color-interpolation="linearRGB" text-rendering="optimizeLegibility" shape-rendering="geometricPrecision" image-rendering="optimizeQuality" transform="matrix(1,0,0,1,401.6139,82)">
      <text x="0" y="11" xml:space="preserve" stroke="none" clip-path="url(#clipPath38)">:</text>
    </g>
    <g font-family="sans-serif" font-size="11" color-rendering="optimizeQuality" color-interpolation="linearRGB" text-rendering="optimizeLegibility" shape-rendering="geometricPrecision" image-rendering="optimizeQuality" transform="matrix(1,0,0,1,407.0943,82)">
      <text x="0" y="11" xml:space="preserve" stroke="none" clip-path="url(#clipPath39)">authInfo</text>
    </g>
    <g font-family="sans-serif" font-size="11" color-rendering="optimizeQuality" color-interpolation="linearRGB" text-rendering="optimizeLegibility" shape-rendering="geometricPrecision" image-rendering="optimizeQuality" transform="matrix(1,0,0,1,451.7335,82)">
      <text x="0" y="11" xml:space="preserve" stroke="none" clip-path="url(#clipPath40)">:=</text>
    </g>
    <g font-family="sans-serif" font-size="11" color-rendering="optimizeQuality" color-interpolation="linearRGB" text-rendering="optimizeLegibility" shape-rendering="geometricPrecision" image-rendering="optimizeQuality" transform="matrix(1,0,0,1,463.95809999999994,82)">
      <text x="0" y="11" xml:space="preserve" stroke="none" clip-path="url(#clipPath41)">authenticate</text>
    </g>
    <g font-family="sans-serif" font-size="11" color-rendering="optimizeQuality" color-interpolation="linearRGB" text-rendering="optimizeLegibility" shape-rendering="geometricPrecision" image-rendering="optimizeQuality" transform="matrix(1,0,0,1,530.001,82)">
      <text x="0" y="11" xml:space="preserve" stroke="none" clip-path="url(#clipPath42)">(</text>
    </g>
    <g font-family="sans-serif" font-size="11" color-rendering="optimizeQuality" color-interpolation="linearRGB" text-rendering="optimizeLegibility" shape-rendering="geometricPrecision" image-rendering="optimizeQuality" transform="matrix(1,0,0,1,533.5781999999999,82)">
      <text x="0" y="11" xml:space="preserve" stroke="none" clip-path="url(#clipPath43)">authenticated</text>
    </g>
    <g font-family="sans-serif" font-size="11" color-rendering="optimizeQuality" color-interpolation="linearRGB" text-rendering="optimizeLegibility" shape-rendering="geometricPrecision" image-rendering="optimizeQuality" transform="matrix(1,0,0,1,606.5445,82)">
      <text x="0" y="11" xml:space="preserve" stroke="none" clip-path="url(#clipPath44)">)</text>
    </g>
    <g font-family="sans-serif" font-size="11" color-rendering="optimizeQuality" stroke-miterlimit="1" color-interpolation="linearRGB" text-rendering="optimizeLegibility" stroke-linecap="butt" shape-rendering="geometricPrecision" image-rendering="optimizeQuality" transform="matrix(1,0,0,1,82,-10)">
      <path d="M297.6005859375 186 L544.6544799804688 186" clip-path="url(#clipPath1)" fill="none" />
      <path d="M12 -6 L0 0 L12 6 Z" stroke="none" clip-path="url(#clipPath45)" transform="matrix(-1,-1.2989609388114332E-14,1.2989609388114332E-14,-1,544.6545,186)" />
      <path d="M12 -6 L0 0 L12 6 Z" stroke-miterlimit="10" clip-path="url(#clipPath45)" fill="none" stroke-linecap="square" transform="matrix(-1,-1.2989609388114332E-14,1.2989609388114332E-14,-1,544.6545,186)" />
    </g>
    <g font-family="sans-serif" font-size="11" color-rendering="optimizeQuality" color-interpolation="linearRGB" text-rendering="optimizeLegibility" shape-rendering="geometricPrecision" image-rendering="optimizeQuality" transform="matrix(1,0,0,1,412.7758,152)">
      <text x="0" y="11" xml:space="preserve" stroke="none" clip-path="url(#clipPath46)"> </text>
    </g>
    <g font-family="sans-serif" font-size="11" color-rendering="optimizeQuality" color-interpolation="linearRGB" text-rendering="optimizeLegibility" shape-rendering="geometricPrecision" image-rendering="optimizeQuality" transform="matrix(1,0,0,1,418.2563,152)">
      <text x="0" y="11" xml:space="preserve" stroke="none" clip-path="url(#clipPath47)">:</text>
    </g>
    <g font-family="sans-serif" font-size="11" color-rendering="optimizeQuality" color-interpolation="linearRGB" text-rendering="optimizeLegibility" shape-rendering="geometricPrecision" image-rendering="optimizeQuality" transform="matrix(1,0,0,1,423.7367,152)">
      <text x="0" y="11" xml:space="preserve" stroke="none" clip-path="url(#clipPath48)">uploadPlaylist</text>
    </g>
    <g font-family="sans-serif" font-size="11" color-rendering="optimizeQuality" color-interpolation="linearRGB" text-rendering="optimizeLegibility" shape-rendering="geometricPrecision" image-rendering="optimizeQuality" transform="matrix(1,0,0,1,497.58389999999997,152)">
      <text x="0" y="11" xml:space="preserve" stroke="none" clip-path="url(#clipPath49)">(</text>
    </g>
    <g font-family="sans-serif" font-size="11" color-rendering="optimizeQuality" color-interpolation="linearRGB" text-rendering="optimizeLegibility" shape-rendering="geometricPrecision" image-rendering="optimizeQuality" transform="matrix(1,0,0,1,501.161,152)">
      <text x="0" y="11" xml:space="preserve" stroke="none" clip-path="url(#clipPath50)">playlist</text>
    </g>
    <g font-family="sans-serif" font-size="11" color-rendering="optimizeQuality" color-interpolation="linearRGB" text-rendering="optimizeLegibility" shape-rendering="geometricPrecision" image-rendering="optimizeQuality" transform="matrix(1,0,0,1,539.1668999999999,152)">
      <text x="0" y="11" xml:space="preserve" stroke="none" clip-path="url(#clipPath51)">,</text>
    </g>
    <g font-family="sans-serif" font-size="11" color-rendering="optimizeQuality" color-interpolation="linearRGB" text-rendering="optimizeLegibility" shape-rendering="geometricPrecision" image-rendering="optimizeQuality" transform="matrix(1,0,0,1,542.6473,152)">
      <text x="0" y="11" xml:space="preserve" stroke="none" clip-path="url(#clipPath52)">schedule</text>
    </g>
    <g font-family="sans-serif" font-size="11" color-rendering="optimizeQuality" color-interpolation="linearRGB" text-rendering="optimizeLegibility" shape-rendering="geometricPrecision" image-rendering="optimizeQuality" transform="matrix(1,0,0,1,589.9022,152)">
      <text x="0" y="11" xml:space="preserve" stroke="none" clip-path="url(#clipPath53)">)</text>
    </g>
  </g>
</svg>
