<?xml version="1.0" encoding="UTF-8"?>

<!DOCTYPE svg PUBLIC '-//W3C//DTD SVG 1.0//EN' 'http://www.w3.org/TR/2001/REC-SVG-20010904/DTD/svg10.dtd'>
<svg stroke-width="1" stroke-dashoffset="0" font-size="12" color-rendering="auto" stroke-dasharray="none" font-weight="normal" color-interpolation="auto" stroke-linejoin="miter" fill="black" image-rendering="auto" font-family="&apos;sansserif&apos;" stroke-opacity="1" stroke-miterlimit="10" text-rendering="auto" stroke="black" font-style="normal" stroke-linecap="square" shape-rendering="auto" fill-opacity="1" xmlns="http://www.w3.org/2000/svg" xmlns:xlink="http://www.w3.org/1999/xlink">
  <!--Generated by the Batik Graphics2D SVG Generator-->
  <defs id="genericDefs" />
  <g>
    <defs id="defs1">
      <clipPath clipPathUnits="userSpaceOnUse" id="clipPath1">
        <path d="M-160 80 L-160 592 L640 592 L640 80 Z" />
      </clipPath>
      <clipPath clipPathUnits="userSpaceOnUse" id="clipPath2">
        <path d="M0 0 L0 512 L800 512 L800 0 Z" />
      </clipPath>
      <clipPath clipPathUnits="userSpaceOnUse" id="clipPath3">
        <path d="M-300 -410 L-300 102 L500 102 L500 -410 Z" />
      </clipPath>
      <clipPath clipPathUnits="userSpaceOnUse" id="clipPath4">
        <path d="M-302 -434 L-302 78 L498 78 L498 -434 Z" />
      </clipPath>
      <clipPath clipPathUnits="userSpaceOnUse" id="clipPath5">
        <path d="M-410 -410 L-410 102 L390 102 L390 -410 Z" />
      </clipPath>
      <clipPath clipPathUnits="userSpaceOnUse" id="clipPath6">
        <path d="M-412 -434 L-412 78 L388 78 L388 -434 Z" />
      </clipPath>
      <clipPath clipPathUnits="userSpaceOnUse" id="clipPath7">
        <path d="M-300 -290 L-300 222 L500 222 L500 -290 Z" />
      </clipPath>
      <clipPath clipPathUnits="userSpaceOnUse" id="clipPath8">
        <path d="M-302 -314 L-302 198 L498 198 L498 -314 Z" />
      </clipPath>
      <clipPath clipPathUnits="userSpaceOnUse" id="clipPath9">
        <path d="M-300 -150 L-300 362 L500 362 L500 -150 Z" />
      </clipPath>
      <clipPath clipPathUnits="userSpaceOnUse" id="clipPath10">
        <path d="M-302 -174 L-302 338 L498 338 L498 -174 Z" />
      </clipPath>
      <clipPath clipPathUnits="userSpaceOnUse" id="clipPath11">
        <path d="M-300 -30 L-300 482 L500 482 L500 -30 Z" />
      </clipPath>
      <clipPath clipPathUnits="userSpaceOnUse" id="clipPath12">
        <path d="M-302 -54 L-302 458 L498 458 L498 -54 Z" />
      </clipPath>
      <clipPath clipPathUnits="userSpaceOnUse" id="clipPath13">
        <path d="M-660 -210 L-660 302 L140 302 L140 -210 Z" />
      </clipPath>
      <clipPath clipPathUnits="userSpaceOnUse" id="clipPath14">
        <path d="M-630 -50 L-630 462 L170 462 L170 -50 Z" />
      </clipPath>
      <clipPath clipPathUnits="userSpaceOnUse" id="clipPath15">
        <path d="M-632 -74 L-632 438 L168 438 L168 -74 Z" />
      </clipPath>
      <clipPath clipPathUnits="userSpaceOnUse" id="clipPath16">
        <path d="M-10 -80 L-10 432 L790 432 L790 -80 Z" />
      </clipPath>
      <clipPath clipPathUnits="userSpaceOnUse" id="clipPath17">
        <path d="M-12 -104 L-12 408 L788 408 L788 -104 Z" />
      </clipPath>
    </defs>
    <g stroke-opacity="0" color-rendering="optimizeQuality" color-interpolation="linearRGB" stroke="rgb(255,255,255)" text-rendering="optimizeLegibility" fill="rgb(255,255,255)" fill-opacity="0" shape-rendering="geometricPrecision" image-rendering="optimizeQuality" transform="matrix(1,0,0,1,160,-80)">
      <path d="M120 90 L360.49798583984375 90 L360.49798583984375 581.5 L120 581.5 Z" stroke="none" clip-path="url(#clipPath1)" />
    </g>
    <g color-rendering="optimizeQuality" stroke-miterlimit="1" color-interpolation="linearRGB" text-rendering="optimizeLegibility" stroke-linecap="butt" shape-rendering="geometricPrecision" image-rendering="optimizeQuality" transform="matrix(1,0,0,1,160,-80)">
      <path d="M120 90 L360.49798583984375 90 L360.49798583984375 581.5 L120 581.5 Z" clip-path="url(#clipPath1)" fill="none" />
    </g>
    <g color-rendering="optimizeQuality" color-interpolation="linearRGB" stroke="white" text-rendering="optimizeLegibility" fill="white" shape-rendering="geometricPrecision" image-rendering="optimizeQuality" transform="matrix(1,0,0,1,300,410)">
      <path d="M0.5 20.5 L69.5 20.5 L69.5 69.5 L0.5 69.5 ZM0.5 20.5 L20.5 0.5 L89.5 0.5 L69.5 20.5 ZM89.5 0.5 L89.5 49.5 L69.5 69.5 L69.5 20.5 M89.5 0.5" stroke="none" clip-path="url(#clipPath3)" />
    </g>
    <g color-rendering="optimizeQuality" stroke-miterlimit="1" color-interpolation="linearRGB" text-rendering="optimizeLegibility" stroke-linecap="butt" shape-rendering="geometricPrecision" image-rendering="optimizeQuality" transform="matrix(1,0,0,1,300,410)">
      <path d="M0.5 20.5 L69.5 20.5 L69.5 69.5 L0.5 69.5 ZM0.5 20.5 L20.5 0.5 L89.5 0.5 L69.5 20.5 ZM89.5 0.5 L89.5 49.5 L69.5 69.5 L69.5 20.5 M89.5 0.5" clip-path="url(#clipPath3)" fill="none" />
    </g>
    <g font-family="sans-serif" font-size="11" color-rendering="optimizeQuality" color-interpolation="linearRGB" text-rendering="optimizeLegibility" shape-rendering="geometricPrecision" image-rendering="optimizeQuality" transform="matrix(1,0,0,1,302,434)">
      <text x="0" y="11" xml:space="preserve" stroke="none" clip-path="url(#clipPath4)">OSS</text>
    </g>
    <g font-family="sans-serif" font-size="11" color-rendering="optimizeQuality" color-interpolation="linearRGB" stroke="white" text-rendering="optimizeLegibility" fill="white" shape-rendering="geometricPrecision" image-rendering="optimizeQuality" transform="matrix(1,0,0,1,410,410)">
      <path d="M0.5 20.5 L69.5 20.5 L69.5 69.5 L0.5 69.5 ZM0.5 20.5 L20.5 0.5 L89.5 0.5 L69.5 20.5 ZM89.5 0.5 L89.5 49.5 L69.5 69.5 L69.5 20.5 M89.5 0.5" stroke="none" clip-path="url(#clipPath5)" />
    </g>
    <g font-family="sans-serif" font-size="11" color-rendering="optimizeQuality" stroke-miterlimit="1" color-interpolation="linearRGB" text-rendering="optimizeLegibility" stroke-linecap="butt" shape-rendering="geometricPrecision" image-rendering="optimizeQuality" transform="matrix(1,0,0,1,410,410)">
      <path d="M0.5 20.5 L69.5 20.5 L69.5 69.5 L0.5 69.5 ZM0.5 20.5 L20.5 0.5 L89.5 0.5 L69.5 20.5 ZM89.5 0.5 L89.5 49.5 L69.5 69.5 L69.5 20.5 M89.5 0.5" clip-path="url(#clipPath5)" fill="none" />
      <text x="0" y="11" xml:space="preserve" stroke-miterlimit="10" stroke="none" clip-path="url(#clipPath6)" stroke-linecap="square" transform="matrix(1,0,0,1,2,24)">ALSA</text>
    </g>
    <g font-family="sans-serif" font-size="11" color-rendering="optimizeQuality" color-interpolation="linearRGB" stroke="white" text-rendering="optimizeLegibility" fill="white" shape-rendering="geometricPrecision" image-rendering="optimizeQuality" transform="matrix(1,0,0,1,300,290)">
      <path d="M0.5 20.5 L179.5 20.5 L179.5 99.5 L0.5 99.5 ZM0.5 20.5 L20.5 0.5 L199.5 0.5 L179.5 20.5 ZM199.5 0.5 L199.5 79.5 L179.5 99.5 L179.5 20.5 M199.5 0.5" stroke="none" clip-path="url(#clipPath7)" />
    </g>
    <g font-family="sans-serif" font-size="11" color-rendering="optimizeQuality" stroke-miterlimit="1" color-interpolation="linearRGB" text-rendering="optimizeLegibility" stroke-linecap="butt" shape-rendering="geometricPrecision" image-rendering="optimizeQuality" transform="matrix(1,0,0,1,300,290)">
      <path d="M0.5 20.5 L179.5 20.5 L179.5 99.5 L0.5 99.5 ZM0.5 20.5 L20.5 0.5 L199.5 0.5 L179.5 20.5 ZM199.5 0.5 L199.5 79.5 L179.5 99.5 L179.5 20.5 M199.5 0.5" clip-path="url(#clipPath7)" fill="none" />
      <text x="0" y="11" xml:space="preserve" stroke-miterlimit="10" stroke="none" clip-path="url(#clipPath8)" stroke-linecap="square" transform="matrix(1,0,0,1,2,24)">Helix Client Library</text>
    </g>
    <g font-family="sans-serif" font-size="11" color-rendering="optimizeQuality" color-interpolation="linearRGB" stroke="white" text-rendering="optimizeLegibility" fill="white" shape-rendering="geometricPrecision" image-rendering="optimizeQuality" transform="matrix(1,0,0,1,300,150)">
      <path d="M0.5 20.5 L179.5 20.5 L179.5 119.5 L0.5 119.5 ZM0.5 20.5 L20.5 0.5 L199.5 0.5 L179.5 20.5 ZM199.5 0.5 L199.5 99.5 L179.5 119.5 L179.5 20.5 M199.5 0.5" stroke="none" clip-path="url(#clipPath9)" />
    </g>
    <g font-family="sans-serif" font-size="11" color-rendering="optimizeQuality" stroke-miterlimit="1" color-interpolation="linearRGB" text-rendering="optimizeLegibility" stroke-linecap="butt" shape-rendering="geometricPrecision" image-rendering="optimizeQuality" transform="matrix(1,0,0,1,300,150)">
      <path d="M0.5 20.5 L179.5 20.5 L179.5 119.5 L0.5 119.5 ZM0.5 20.5 L20.5 0.5 L199.5 0.5 L179.5 20.5 ZM199.5 0.5 L199.5 99.5 L179.5 119.5 L179.5 20.5 M199.5 0.5" clip-path="url(#clipPath9)" fill="none" />
      <text x="0" y="11" xml:space="preserve" stroke-miterlimit="10" stroke="none" clip-path="url(#clipPath10)" stroke-linecap="square" transform="matrix(1,0,0,1,2,24)">Playlist editor</text>
    </g>
    <g font-family="sans-serif" font-size="11" color-rendering="optimizeQuality" color-interpolation="linearRGB" stroke="white" text-rendering="optimizeLegibility" fill="white" shape-rendering="geometricPrecision" image-rendering="optimizeQuality" transform="matrix(1,0,0,1,300,30)">
      <path d="M0.5 20.5 L179.5 20.5 L179.5 99.5 L0.5 99.5 ZM0.5 20.5 L20.5 0.5 L199.5 0.5 L179.5 20.5 ZM199.5 0.5 L199.5 79.5 L179.5 99.5 L179.5 20.5 M199.5 0.5" stroke="none" clip-path="url(#clipPath11)" />
    </g>
    <g font-family="sans-serif" font-size="11" color-rendering="optimizeQuality" stroke-miterlimit="1" color-interpolation="linearRGB" text-rendering="optimizeLegibility" stroke-linecap="butt" shape-rendering="geometricPrecision" image-rendering="optimizeQuality" transform="matrix(1,0,0,1,300,30)">
      <path d="M0.5 20.5 L179.5 20.5 L179.5 99.5 L0.5 99.5 ZM0.5 20.5 L20.5 0.5 L199.5 0.5 L179.5 20.5 ZM199.5 0.5 L199.5 79.5 L179.5 99.5 L179.5 20.5 M199.5 0.5" clip-path="url(#clipPath11)" fill="none" />
      <text x="0" y="11" xml:space="preserve" stroke-miterlimit="10" stroke="none" clip-path="url(#clipPath12)" stroke-linecap="square" transform="matrix(1,0,0,1,2,24)">GTK+</text>
    </g>
    <g font-family="sans-serif" font-size="11" stroke-opacity="0" color-rendering="optimizeQuality" color-interpolation="linearRGB" stroke="rgb(255,255,255)" text-rendering="optimizeLegibility" fill="rgb(255,255,255)" fill-opacity="0" shape-rendering="geometricPrecision" image-rendering="optimizeQuality" transform="matrix(1,0,0,1,160,-80)">
      <path d="M580 377.25 C580 367.9992370605469 557.7261962890625 360.5 530.25 360.5 C502.7738342285156 360.5 480.5 367.9992370605469 480.5 377.25 C480.5 386.5007629394531 502.7738342285156 394 530.25 394 C557.7261962890625 394 580 386.5007629394531 580 377.25" stroke="none" clip-path="url(#clipPath1)" />
    </g>
    <g font-family="sans-serif" font-size="11" color-rendering="optimizeQuality" stroke-miterlimit="1" color-interpolation="linearRGB" text-rendering="optimizeLegibility" stroke-linecap="butt" shape-rendering="geometricPrecision" image-rendering="optimizeQuality" transform="matrix(1,0,0,1,160,-80)">
      <path d="M580 377.25 C580 367.9992370605469 557.7261962890625 360.5 530.25 360.5 C502.7738342285156 360.5 480.5 367.9992370605469 480.5 377.25 C480.5 386.5007629394531 502.7738342285156 394 530.25 394 C557.7261962890625 394 580 386.5007629394531 580 377.25" clip-path="url(#clipPath1)" fill="none" />
      <path d="M340 430 L480 350 L480 350" clip-path="url(#clipPath1)" fill="none" />
      <path d="M480 300 L480 345.79168701171875 L480 361.6785888671875 L480 378.5 L480 378.5" clip-path="url(#clipPath1)" fill="none" />
      <path d="M580 300 L580 345.79168701171875 L580 361.6785888671875 L580 378.5 L580 378.5" clip-path="url(#clipPath1)" fill="none" />
      <path d="M340 300 L481.216796875 331.8982849121094 L481.216796875 331.8982849121094" clip-path="url(#clipPath1)" fill="none" />
      <text x="0" y="11" xml:space="preserve" stroke-miterlimit="10" stroke="none" clip-path="url(#clipPath13)" stroke-linecap="square" transform="matrix(1,0,0,1,500,290)">Local storage</text>
    </g>
    <g font-family="sans-serif" font-size="11" stroke-opacity="0" color-rendering="optimizeQuality" color-interpolation="linearRGB" stroke="rgb(255,255,255)" text-rendering="optimizeLegibility" fill="rgb(255,255,255)" fill-opacity="0" shape-rendering="geometricPrecision" image-rendering="optimizeQuality" transform="matrix(1,0,0,1,160,-80)">
      <path d="M580 297.25 C580 287.9992370605469 557.7261962890625 280.5 530.25 280.5 C502.7738342285156 280.5 480.5 287.9992370605469 480.5 297.25 C480.5 306.5007629394531 502.7738342285156 314 530.25 314 C557.7261962890625 314 580 306.5007629394531 580 297.25" stroke="none" clip-path="url(#clipPath1)" />
    </g>
    <g font-family="sans-serif" font-size="11" color-rendering="optimizeQuality" stroke-miterlimit="1" color-interpolation="linearRGB" text-rendering="optimizeLegibility" stroke-linecap="butt" shape-rendering="geometricPrecision" image-rendering="optimizeQuality" transform="matrix(1,0,0,1,160,-80)">
      <path d="M580 297.25 C580 287.9992370605469 557.7261962890625 280.5 530.25 280.5 C502.7738342285156 280.5 480.5 287.9992370605469 480.5 297.25 C480.5 306.5007629394531 502.7738342285156 314 530.25 314 C557.7261962890625 314 580 306.5007629394531 580 297.25" clip-path="url(#clipPath1)" fill="none" />
    </g>
    <g font-family="sans-serif" font-size="11" color-rendering="optimizeQuality" color-interpolation="linearRGB" stroke="white" text-rendering="optimizeLegibility" fill="white" shape-rendering="geometricPrecision" image-rendering="optimizeQuality" transform="matrix(1,0,0,1,630,50)">
      <path d="M0.5 20.5 L139.5 20.5 L139.5 89.5 L0.5 89.5 ZM0.5 20.5 L20.5 0.5 L159.5 0.5 L139.5 20.5 ZM159.5 0.5 L159.5 69.5 L139.5 89.5 L139.5 20.5 M159.5 0.5" stroke="none" clip-path="url(#clipPath14)" />
    </g>
    <g font-family="sans-serif" font-size="11" color-rendering="optimizeQuality" stroke-miterlimit="1" color-interpolation="linearRGB" text-rendering="optimizeLegibility" stroke-linecap="butt" shape-rendering="geometricPrecision" image-rendering="optimizeQuality" transform="matrix(1,0,0,1,630,50)">
      <path d="M0.5 20.5 L139.5 20.5 L139.5 89.5 L0.5 89.5 ZM0.5 20.5 L20.5 0.5 L159.5 0.5 L139.5 20.5 ZM159.5 0.5 L159.5 69.5 L139.5 89.5 L139.5 20.5 M159.5 0.5" clip-path="url(#clipPath14)" fill="none" />
      <text x="0" y="11" xml:space="preserve" stroke-miterlimit="10" stroke="none" clip-path="url(#clipPath15)" stroke-linecap="square" transform="matrix(1,0,0,1,2,24)">Media Archive</text>
    </g>
    <g font-family="sans-serif" font-size="11" color-rendering="optimizeQuality" stroke-miterlimit="1" color-interpolation="linearRGB" text-rendering="optimizeLegibility" stroke-linecap="butt" shape-rendering="geometricPrecision" image-rendering="optimizeQuality" transform="matrix(1,0,0,1,160,-80)">
      <path d="M339 256 L339 256 L339 256" clip-path="url(#clipPath1)" fill="none" />
      <path d="M250 255 L250 255 L250 255" clip-path="url(#clipPath1)" fill="none" />
      <path d="M340 270 L340 270 L469.2343444824219 199.5 L469.2343444824219 199.5 L469.2343444824219 199.5" clip-path="url(#clipPath1)" fill="none" />
    </g>
    <g font-family="sans-serif" font-size="11" color-rendering="optimizeQuality" color-interpolation="linearRGB" stroke="white" text-rendering="optimizeLegibility" fill="white" shape-rendering="geometricPrecision" image-rendering="optimizeQuality" transform="matrix(1,0,0,1,10,80)">
      <path d="M0.5 20.5 L159.5 20.5 L159.5 99.5 L0.5 99.5 ZM0.5 20.5 L20.5 0.5 L179.5 0.5 L159.5 20.5 ZM179.5 0.5 L179.5 79.5 L159.5 99.5 L159.5 20.5 M179.5 0.5" stroke="none" clip-path="url(#clipPath16)" />
    </g>
    <g font-family="sans-serif" font-size="11" color-rendering="optimizeQuality" stroke-miterlimit="1" color-interpolation="linearRGB" text-rendering="optimizeLegibility" stroke-linecap="butt" shape-rendering="geometricPrecision" image-rendering="optimizeQuality" transform="matrix(1,0,0,1,10,80)">
      <path d="M0.5 20.5 L159.5 20.5 L159.5 99.5 L0.5 99.5 ZM0.5 20.5 L20.5 0.5 L179.5 0.5 L159.5 20.5 ZM179.5 0.5 L179.5 79.5 L159.5 99.5 L159.5 20.5 M179.5 0.5" clip-path="url(#clipPath16)" fill="none" />
      <text x="0" y="11" xml:space="preserve" stroke-miterlimit="10" stroke="none" clip-path="url(#clipPath17)" stroke-linecap="square" transform="matrix(1,0,0,1,2,24)">Scheduler</text>
    </g>
    <g font-family="sans-serif" font-size="11" color-rendering="optimizeQuality" stroke-miterlimit="1" color-interpolation="linearRGB" text-rendering="optimizeLegibility" stroke-linecap="butt" shape-rendering="geometricPrecision" image-rendering="optimizeQuality" transform="matrix(1,0,0,1,160,-80)">
      <path d="M29 226 L139 288 L139 288 L139 288" clip-path="url(#clipPath1)" fill="none" />
    </g>
  </g>
</svg>
