<?xml version="1.0" encoding="UTF-8"?>

<!DOCTYPE svg PUBLIC '-//W3C//DTD SVG 1.0//EN' 'http://www.w3.org/TR/2001/REC-SVG-20010904/DTD/svg10.dtd'>
<svg stroke-width="1" stroke-dashoffset="0" font-size="12" color-rendering="auto" stroke-dasharray="none" font-weight="normal" color-interpolation="auto" stroke-linejoin="miter" fill="black" image-rendering="auto" font-family="&apos;sansserif&apos;" stroke-opacity="1" stroke-miterlimit="10" text-rendering="auto" stroke="black" font-style="normal" stroke-linecap="square" shape-rendering="auto" fill-opacity="1" xmlns="http://www.w3.org/2000/svg" xmlns:xlink="http://www.w3.org/1999/xlink">
  <!--Generated by the Batik Graphics2D SVG Generator-->
  <defs id="genericDefs" />
  <g>
    <defs id="defs1">
      <clipPath clipPathUnits="userSpaceOnUse" id="clipPath1">
        <path d="M-210 80 L-210 631 L730 631 L730 80 Z" />
      </clipPath>
      <clipPath clipPathUnits="userSpaceOnUse" id="clipPath2">
        <path d="M0 0 L0 551 L940 551 L940 0 Z" />
      </clipPath>
      <clipPath clipPathUnits="userSpaceOnUse" id="clipPath3">
        <path d="M-780 -230 L-780 321 L160 321 L160 -230 Z" />
      </clipPath>
      <clipPath clipPathUnits="userSpaceOnUse" id="clipPath4">
        <path d="M-390 -280 L-390 271 L550 271 L550 -280 Z" />
      </clipPath>
      <clipPath clipPathUnits="userSpaceOnUse" id="clipPath5">
        <path d="M-392 -304 L-392 247 L548 247 L548 -304 Z" />
      </clipPath>
      <clipPath clipPathUnits="userSpaceOnUse" id="clipPath6">
        <path d="M-390 -450 L-390 101 L550 101 L550 -450 Z" />
      </clipPath>
      <clipPath clipPathUnits="userSpaceOnUse" id="clipPath7">
        <path d="M-392 -474 L-392 77 L548 77 L548 -474 Z" />
      </clipPath>
      <clipPath clipPathUnits="userSpaceOnUse" id="clipPath8">
        <path d="M-520 -450 L-520 101 L420 101 L420 -450 Z" />
      </clipPath>
      <clipPath clipPathUnits="userSpaceOnUse" id="clipPath9">
        <path d="M-522 -474 L-522 77 L418 77 L418 -474 Z" />
      </clipPath>
      <clipPath clipPathUnits="userSpaceOnUse" id="clipPath10">
        <path d="M-435 -365 L-435 186 L505 186 L505 -365 Z" />
      </clipPath>
      <clipPath clipPathUnits="userSpaceOnUse" id="clipPath11">
        <path d="M-750 -10 L-750 541 L190 541 L190 -10 Z" />
      </clipPath>
      <clipPath clipPathUnits="userSpaceOnUse" id="clipPath12">
        <path d="M-752 -34 L-752 517 L188 517 L188 -34 Z" />
      </clipPath>
      <clipPath clipPathUnits="userSpaceOnUse" id="clipPath13">
        <path d="M-390 -120 L-390 431 L550 431 L550 -120 Z" />
      </clipPath>
      <clipPath clipPathUnits="userSpaceOnUse" id="clipPath14">
        <path d="M-392 -144 L-392 407 L548 407 L548 -144 Z" />
      </clipPath>
      <clipPath clipPathUnits="userSpaceOnUse" id="clipPath15">
        <path d="M-10 -70 L-10 481 L930 481 L930 -70 Z" />
      </clipPath>
      <clipPath clipPathUnits="userSpaceOnUse" id="clipPath16">
        <path d="M-12 -94 L-12 457 L928 457 L928 -94 Z" />
      </clipPath>
    </defs>
    <g color-rendering="optimizeQuality" stroke-miterlimit="1" color-interpolation="linearRGB" text-rendering="optimizeLegibility" stroke-linecap="butt" shape-rendering="geometricPrecision" image-rendering="optimizeQuality" transform="matrix(1,0,0,1,210,-80)">
      <path d="M550 320 L550 365.79168701171875 L550 381.6785888671875 L550 398.5 L550 398.5" clip-path="url(#clipPath1)" fill="none" />
    </g>
    <g stroke-opacity="0" color-rendering="optimizeQuality" color-interpolation="linearRGB" stroke="rgb(255,255,255)" text-rendering="optimizeLegibility" fill="rgb(255,255,255)" fill-opacity="0" shape-rendering="geometricPrecision" image-rendering="optimizeQuality" transform="matrix(1,0,0,1,210,-80)">
      <path d="M650 317.25 C650 307.9992370605469 627.7261962890625 300.5 600.25 300.5 C572.7738037109375 300.5 550.5 307.9992370605469 550.5 317.25 C550.5 326.5007629394531 572.7738037109375 334 600.25 334 C627.7261962890625 334 650 326.5007629394531 650 317.25" stroke="none" clip-path="url(#clipPath1)" />
    </g>
    <g color-rendering="optimizeQuality" stroke-miterlimit="1" color-interpolation="linearRGB" text-rendering="optimizeLegibility" stroke-linecap="butt" shape-rendering="geometricPrecision" image-rendering="optimizeQuality" transform="matrix(1,0,0,1,210,-80)">
      <path d="M650 317.25 C650 307.9992370605469 627.7261962890625 300.5 600.25 300.5 C572.7738037109375 300.5 550.5 307.9992370605469 550.5 317.25 C550.5 326.5007629394531 572.7738037109375 334 600.25 334 C627.7261962890625 334 650 326.5007629394531 650 317.25" clip-path="url(#clipPath1)" fill="none" />
    </g>
    <g stroke-opacity="0" color-rendering="optimizeQuality" color-interpolation="linearRGB" stroke="rgb(255,255,255)" text-rendering="optimizeLegibility" fill="rgb(255,255,255)" fill-opacity="0" shape-rendering="geometricPrecision" image-rendering="optimizeQuality" transform="matrix(1,0,0,1,210,-80)">
      <path d="M650 397.25 C650 387.9992370605469 627.7261962890625 380.5 600.25 380.5 C572.7738037109375 380.5 550.5 387.9992370605469 550.5 397.25 C550.5 406.5007629394531 572.7738037109375 414 600.25 414 C627.7261962890625 414 650 406.5007629394531 650 397.25" stroke="none" clip-path="url(#clipPath1)" />
    </g>
    <g color-rendering="optimizeQuality" stroke-miterlimit="1" color-interpolation="linearRGB" text-rendering="optimizeLegibility" stroke-linecap="butt" shape-rendering="geometricPrecision" image-rendering="optimizeQuality" transform="matrix(1,0,0,1,210,-80)">
      <path d="M650 397.25 C650 387.9992370605469 627.7261962890625 380.5 600.25 380.5 C572.7738037109375 380.5 550.5 387.9992370605469 550.5 397.25 C550.5 406.5007629394531 572.7738037109375 414 600.25 414 C627.7261962890625 414 650 406.5007629394531 650 397.25" clip-path="url(#clipPath1)" fill="none" />
      <path d="M650 320 L650 365.79168701171875 L650 381.6785888671875 L650 398.5 L650 398.5" clip-path="url(#clipPath1)" fill="none" />
    </g>
    <g font-family="sans-serif" font-size="11" color-rendering="optimizeQuality" color-interpolation="linearRGB" text-rendering="optimizeLegibility" shape-rendering="geometricPrecision" image-rendering="optimizeQuality" transform="matrix(1,0,0,1,780,230)">
      <text x="0" y="11" xml:space="preserve" stroke="none" clip-path="url(#clipPath3)">Local storage</text>
    </g>
    <g font-family="sans-serif" font-size="11" color-rendering="optimizeQuality" color-interpolation="linearRGB" stroke="white" text-rendering="optimizeLegibility" fill="white" shape-rendering="geometricPrecision" image-rendering="optimizeQuality" transform="matrix(1,0,0,1,390,280)">
      <path d="M0.5 20.5 L209.5 20.5 L209.5 139.5 L0.5 139.5 ZM0.5 20.5 L20.5 0.5 L229.5 0.5 L209.5 20.5 ZM229.5 0.5 L229.5 119.5 L209.5 139.5 L209.5 20.5 M229.5 0.5" stroke="none" clip-path="url(#clipPath4)" />
    </g>
    <g font-family="sans-serif" font-size="11" color-rendering="optimizeQuality" stroke-miterlimit="1" color-interpolation="linearRGB" text-rendering="optimizeLegibility" stroke-linecap="butt" shape-rendering="geometricPrecision" image-rendering="optimizeQuality" transform="matrix(1,0,0,1,390,280)">
      <path d="M0.5 20.5 L209.5 20.5 L209.5 139.5 L0.5 139.5 ZM0.5 20.5 L20.5 0.5 L229.5 0.5 L209.5 20.5 ZM229.5 0.5 L229.5 119.5 L209.5 139.5 L209.5 20.5 M229.5 0.5" clip-path="url(#clipPath4)" fill="none" />
      <text x="0" y="11" xml:space="preserve" stroke-miterlimit="10" stroke="none" clip-path="url(#clipPath5)" stroke-linecap="square" transform="matrix(1,0,0,1,2,24)">Helix Client Library</text>
    </g>
    <g font-family="sans-serif" font-size="11" color-rendering="optimizeQuality" color-interpolation="linearRGB" stroke="white" text-rendering="optimizeLegibility" fill="white" shape-rendering="geometricPrecision" image-rendering="optimizeQuality" transform="matrix(1,0,0,1,390,450)">
      <path d="M0.5 20.5 L79.5 20.5 L79.5 69.5 L0.5 69.5 ZM0.5 20.5 L20.5 0.5 L99.5 0.5 L79.5 20.5 ZM99.5 0.5 L99.5 49.5 L79.5 69.5 L79.5 20.5 M99.5 0.5" stroke="none" clip-path="url(#clipPath6)" />
    </g>
    <g font-family="sans-serif" font-size="11" color-rendering="optimizeQuality" stroke-miterlimit="1" color-interpolation="linearRGB" text-rendering="optimizeLegibility" stroke-linecap="butt" shape-rendering="geometricPrecision" image-rendering="optimizeQuality" transform="matrix(1,0,0,1,390,450)">
      <path d="M0.5 20.5 L79.5 20.5 L79.5 69.5 L0.5 69.5 ZM0.5 20.5 L20.5 0.5 L99.5 0.5 L79.5 20.5 ZM99.5 0.5 L99.5 49.5 L79.5 69.5 L79.5 20.5 M99.5 0.5" clip-path="url(#clipPath6)" fill="none" />
      <text x="0" y="11" xml:space="preserve" stroke-miterlimit="10" stroke="none" clip-path="url(#clipPath7)" stroke-linecap="square" transform="matrix(1,0,0,1,2,24)">OSS</text>
    </g>
    <g font-family="sans-serif" font-size="11" color-rendering="optimizeQuality" color-interpolation="linearRGB" stroke="white" text-rendering="optimizeLegibility" fill="white" shape-rendering="geometricPrecision" image-rendering="optimizeQuality" transform="matrix(1,0,0,1,520,450)">
      <path d="M0.5 20.5 L79.5 20.5 L79.5 69.5 L0.5 69.5 ZM0.5 20.5 L20.5 0.5 L99.5 0.5 L79.5 20.5 ZM99.5 0.5 L99.5 49.5 L79.5 69.5 L79.5 20.5 M99.5 0.5" stroke="none" clip-path="url(#clipPath8)" />
    </g>
    <g font-family="sans-serif" font-size="11" color-rendering="optimizeQuality" stroke-miterlimit="1" color-interpolation="linearRGB" text-rendering="optimizeLegibility" stroke-linecap="butt" shape-rendering="geometricPrecision" image-rendering="optimizeQuality" transform="matrix(1,0,0,1,520,450)">
      <path d="M0.5 20.5 L79.5 20.5 L79.5 69.5 L0.5 69.5 ZM0.5 20.5 L20.5 0.5 L99.5 0.5 L79.5 20.5 ZM99.5 0.5 L99.5 49.5 L79.5 69.5 L79.5 20.5 M99.5 0.5" clip-path="url(#clipPath8)" fill="none" />
      <text x="0" y="11" xml:space="preserve" stroke-miterlimit="10" stroke="none" clip-path="url(#clipPath9)" stroke-linecap="square" transform="matrix(1,0,0,1,2,24)">ALSA</text>
    </g>
    <g font-family="sans-serif" font-size="11" color-rendering="optimizeQuality" color-interpolation="linearRGB" text-rendering="optimizeLegibility" shape-rendering="geometricPrecision" image-rendering="optimizeQuality" transform="matrix(1,0,0,1,435,365)">
      <text x="0" y="11" xml:space="preserve" stroke="none" clip-path="url(#clipPath10)">SMIL, MP3, Ogg Vorbis</text>
    </g>
    <g font-family="sans-serif" font-size="11" color-rendering="optimizeQuality" color-interpolation="linearRGB" stroke="white" text-rendering="optimizeLegibility" fill="white" shape-rendering="geometricPrecision" image-rendering="optimizeQuality" transform="matrix(1,0,0,1,750,10)">
      <path d="M0.5 20.5 L159.5 20.5 L159.5 109.5 L0.5 109.5 ZM0.5 20.5 L20.5 0.5 L179.5 0.5 L159.5 20.5 ZM179.5 0.5 L179.5 89.5 L159.5 109.5 L159.5 20.5 M179.5 0.5" stroke="none" clip-path="url(#clipPath11)" />
    </g>
    <g font-family="sans-serif" font-size="11" color-rendering="optimizeQuality" stroke-miterlimit="1" color-interpolation="linearRGB" text-rendering="optimizeLegibility" stroke-linecap="butt" shape-rendering="geometricPrecision" image-rendering="optimizeQuality" transform="matrix(1,0,0,1,750,10)">
      <path d="M0.5 20.5 L159.5 20.5 L159.5 109.5 L0.5 109.5 ZM0.5 20.5 L20.5 0.5 L179.5 0.5 L159.5 20.5 ZM179.5 0.5 L179.5 89.5 L159.5 109.5 L159.5 20.5 M179.5 0.5" clip-path="url(#clipPath11)" fill="none" />
      <text x="0" y="11" xml:space="preserve" stroke-miterlimit="10" stroke="none" clip-path="url(#clipPath12)" stroke-linecap="square" transform="matrix(1,0,0,1,2,24)">Media Archive</text>
    </g>
    <g font-family="sans-serif" font-size="11" color-rendering="optimizeQuality" color-interpolation="linearRGB" stroke="white" text-rendering="optimizeLegibility" fill="white" shape-rendering="geometricPrecision" image-rendering="optimizeQuality" transform="matrix(1,0,0,1,390,120)">
      <path d="M0.5 20.5 L209.5 20.5 L209.5 139.5 L0.5 139.5 ZM0.5 20.5 L20.5 0.5 L229.5 0.5 L209.5 20.5 ZM229.5 0.5 L229.5 119.5 L209.5 139.5 L209.5 20.5 M229.5 0.5" stroke="none" clip-path="url(#clipPath13)" />
    </g>
    <g font-family="sans-serif" font-size="11" color-rendering="optimizeQuality" stroke-miterlimit="1" color-interpolation="linearRGB" text-rendering="optimizeLegibility" stroke-linecap="butt" shape-rendering="geometricPrecision" image-rendering="optimizeQuality" transform="matrix(1,0,0,1,390,120)">
      <path d="M0.5 20.5 L209.5 20.5 L209.5 139.5 L0.5 139.5 ZM0.5 20.5 L20.5 0.5 L229.5 0.5 L209.5 20.5 ZM229.5 0.5 L229.5 119.5 L209.5 139.5 L209.5 20.5 M229.5 0.5" clip-path="url(#clipPath13)" fill="none" />
      <text x="0" y="11" xml:space="preserve" stroke-miterlimit="10" stroke="none" clip-path="url(#clipPath14)" stroke-linecap="square" transform="matrix(1,0,0,1,2,24)">Scheduler</text>
    </g>
    <g font-family="sans-serif" font-size="11" color-rendering="optimizeQuality" stroke-miterlimit="1" color-interpolation="linearRGB" text-rendering="optimizeLegibility" stroke-linecap="butt" shape-rendering="geometricPrecision" image-rendering="optimizeQuality" transform="matrix(1,0,0,1,210,-80)">
      <path d="M410 269.39068603515625 L550.8171997070312 330.78900146484375 L550.8171997070312 330.78900146484375" clip-path="url(#clipPath1)" fill="none" />
      <path d="M409 455 L549 375 L549 375" clip-path="url(#clipPath1)" fill="none" />
      <path d="M409 235 L539 181 L539 181" clip-path="url(#clipPath1)" fill="none" />
    </g>
    <g font-family="sans-serif" font-size="11" stroke-opacity="0" color-rendering="optimizeQuality" color-interpolation="linearRGB" stroke="rgb(255,255,255)" text-rendering="optimizeLegibility" fill="rgb(255,255,255)" fill-opacity="0" shape-rendering="geometricPrecision" image-rendering="optimizeQuality" transform="matrix(1,0,0,1,210,-80)">
      <path d="M149.92689514160156 180.0157928466797 L451.4255065917969 180.0157928466797 L451.4255065917969 620.48779296875 L149.92689514160156 620.48779296875 Z" stroke="none" clip-path="url(#clipPath1)" />
    </g>
    <g font-family="sans-serif" font-size="11" color-rendering="optimizeQuality" stroke-miterlimit="1" color-interpolation="linearRGB" text-rendering="optimizeLegibility" stroke-linecap="butt" shape-rendering="geometricPrecision" image-rendering="optimizeQuality" transform="matrix(1,0,0,1,210,-80)">
      <path d="M149.92689514160156 180.0157928466797 L451.4255065917969 180.0157928466797 L451.4255065917969 620.48779296875 L149.92689514160156 620.48779296875 Z" clip-path="url(#clipPath1)" fill="none" />
    </g>
    <g font-family="sans-serif" font-size="11" color-rendering="optimizeQuality" color-interpolation="linearRGB" stroke="white" text-rendering="optimizeLegibility" fill="white" shape-rendering="geometricPrecision" image-rendering="optimizeQuality" transform="matrix(1,0,0,1,10,70)">
      <path d="M0.5 20.5 L209.5 20.5 L209.5 99.5 L0.5 99.5 ZM0.5 20.5 L20.5 0.5 L229.5 0.5 L209.5 20.5 ZM229.5 0.5 L229.5 79.5 L209.5 99.5 L209.5 20.5 M229.5 0.5" stroke="none" clip-path="url(#clipPath15)" />
    </g>
    <g font-family="sans-serif" font-size="11" color-rendering="optimizeQuality" stroke-miterlimit="1" color-interpolation="linearRGB" text-rendering="optimizeLegibility" stroke-linecap="butt" shape-rendering="geometricPrecision" image-rendering="optimizeQuality" transform="matrix(1,0,0,1,10,70)">
      <path d="M0.5 20.5 L209.5 20.5 L209.5 99.5 L0.5 99.5 ZM0.5 20.5 L20.5 0.5 L229.5 0.5 L209.5 20.5 ZM229.5 0.5 L229.5 79.5 L209.5 99.5 L209.5 20.5 M229.5 0.5" clip-path="url(#clipPath15)" fill="none" />
      <text x="0" y="11" xml:space="preserve" stroke-miterlimit="10" stroke="none" clip-path="url(#clipPath16)" stroke-linecap="square" transform="matrix(1,0,0,1,2,24)">Playlist editor</text>
    </g>
    <g font-family="sans-serif" font-size="11" color-rendering="optimizeQuality" stroke-miterlimit="1" color-interpolation="linearRGB" text-rendering="optimizeLegibility" stroke-linecap="butt" shape-rendering="geometricPrecision" image-rendering="optimizeQuality" transform="matrix(1,0,0,1,210,-80)">
      <path d="M28.92690086364746 182 L28.92690086364746 182 L178.92689514160156 254 L178.92689514160156 254" clip-path="url(#clipPath1)" fill="none" />
    </g>
  </g>
</svg>
