<?xml version="1.0" encoding="UTF-8" standalone="no"?>
<svg id="svg2" xmlns:rdf="http://www.w3.org/1999/02/22-rdf-syntax-ns#" xmlns="http://www.w3.org/2000/svg" xml:space="preserve" height="234" viewBox="0 0 246.61876 219.37499" width="263.06" version="1.1" xmlns:cc="http://creativecommons.org/ns#" xmlns:dc="http://purl.org/dc/elements/1.1/"><g id="g10" transform="matrix(1.25 0 0 -1.25 0 219.37)"><g id="g12" transform="scale(.049946)"><path id="path14" d="m2147.6 2938.9 21.22 246.51 181.2 57.13 195.9 57.14 253.03 48.97 124.07-50.61-32.65-32.64-427.71-208.96-315.06-117.54" fill="#fff"/><g fill="#231f20"><path id="path16" d="m2682 1431.6c-21.82 4.46-45.01 6.9-69.45 6.9-12.9 0-25.42-0.8-37.72-1.99l-13.33 104.14 35.46 219.4 41.37 53.34c20.2-4.22 44.43-8.06 73.49-10.96l5.82-28 13.48-64.79zm29.67-425.64h-198.4v115c0 75.41 37.63 115.13 99.2 115.13 61.47 0 99.12-39.72 99.12-115.13zm-172.17 2225.3 0.16 0.37 49.03 47.88-36.07-7.22 1.85 21.83s212.05 45.72 246.27 43.34c34.2-2.31 115.3-40.39 115.3-40.39s-78.56-6.38-131.78-18.12c-53.2-11.81-74.52-28.54-139.82-54.44-65.36-25.86-121.57-49.08-104.94 6.75zm-68.86-30.86-38.98-14.91c-7.99 4.33-13.88 12.29-14.61 21.91-0.14 1.05-0.14 1.87-0.14 2.57 0 14.16 10.8 26.28 25.18 27.54 0.97 0.15 1.87 0.15 2.61 0.15 14.08 0 26.31-10.81 27.59-25.27 0-0.85 0.13-1.71 0.13-2.53 0-3.32-0.66-6.48-1.78-9.46zm-190.1 47.6c-25.13 34.51-60.6 53.96-106.74 47.44-1.57 4.44-3.06 8.91-4.55 13.31-15.28 45.01-26.68 91.45-26.3 114.55-0.08 3.65 0.22 6.56 0.59 8.35 0.3 1.86 0.53 2.23 0.45 2.27 0.98 1.83 2.46 4.36 11.03 7.76 8.2 3.09 21.91 5.28 38.31 5.21 48.09 0.3 117.01-17.81 155.7-35.03 10.5-4.62 18.78-12.56 26.52-25.31 11.49-18.85 19.01-47.62 23.78-75.12 0.84-4.48 1.5-8.72 2.16-13.12-42.41-12.34-82.8-26.42-120.95-50.31zm-9.85-159.8c-14.76-49.86-54.84-69.54-64.39-68.63-9.54 0.85-0.46 7.18-0.46 7.18 9.04 6.49 30.19 36.82 39.8 68.28 9.61 31.41 9.33 81.57 9.33 88.5 0 5.63 1.34 10.54 6.41 1.42 4.83-8.72 23.09-49.53 9.31-96.75zm1635.2-1452.4-901.09 697.21c22.36-7.98 46.8-16.39 73.78-25.04-14.98 47.56-47.63 96.96-89.36 145.04 17.59-6.15 36.29-12.52 56.51-19.01-56.88 180.74-367.6 387.04-469.86 450.92l-18.34 195.28c25.57 11.63 185.36 84.44 165.02 76.39 38.53 17.29 162.48 77.33 224.49 148.1-113.88 51.05-144.29 59.99-192.52 50.68-44.94-8.64-197.89-35.37-219.27-39.09-1.86 1.6-19.23 15.16-57.98 3.61-3.66-1.12-7.32-2.12-10.89-3.16-3.65 21.9-8.8 46.99-17.8 71.54-12.23 32.84-33.33 67.57-72.68 84.93-47.93 20.72-119.71 40.36-182.53 40.66-21.54-0.04-42.26-2.27-61.64-9.43-19.15-6.93-38.46-20.57-48.45-42.41-6.03-13.22-7.15-25.79-7.23-38.68 0.45-43.52 16.92-99.16 35.47-152.12-48.66-34.32-64.22-97.04-46.79-163.34 9.46-35.99 27.05-67.11 50.76-89.25-15.59-41.1-30.26-88.5-44.05-143.89-103.53-416.89 7.53-687.4 191.1-857.52 58.88-54.56 126.17-94.35 186.77-122.67 6.86-17.68 16.33-38.92 29.6-62.7 19.81-35.62 45.67-60.84 65.8-76.83l-40.17-248.45-121.41-163.89c-10.06-11.41-19.15-23.58-27.14-36.58l-2.38-3.23 0.6 0.16c-1.87-3.13-3.81-6.19-5.52-9.36-27.8-51.62-37.71-123-37.71-204.31v-331.33c0-81.289 9.91-152.79 37.71-204.36 47.55-87.281 140.79-144.82 263.85-144.82 93.15 0 166.57 33.75 220.17 89.301 51.57 53.59 81.3 130.95 81.3 214.26h-202.35c-3.94-43.684-21.83-101.22-99.12-101.22-61.57 0-99.2 35.73-99.2 99.223v136.94h400.67v277.75c0 67.46-16.84 129.1-47.98 179.51l-120.53 194.38 35.77 202.53 38.7 48.57 37.47 46.91c12.82 0.15 26.09 0.46 40.03 0.93 149.82 5.14 298.94-39.9 428.34-96.12 10.06-5.29 377.79-197.45 403.27-214.81 25.81-17.6 90.73-15.16 71.05 22.75 70.2-11.06 116.35 3.92 93.9 48.24 119.11-0.25 11.86 77.83 11.86 77.83"/><path id="path18" d="m1830.2 1254h-91.27v388.83h83.3c132.95 0 178.56-65.43 178.56-190.43 0-128.93-35.72-198.4-170.59-198.4zm-3.99-630.88h-87.28v452.3h89.26c146.8 0 172.6-73.4 172.6-214.26 0-138.84-11.93-238.04-174.58-238.04zm365.08 261.89c0 146.74-43.67 232.09-138.93 277.68 89.29 55.6 138.93 111.15 138.93 261.91v51.56c0 184.53-97.27 357.09-359.11 357.09h-295.6v-1412.6h275.74c261.89 0 378.98 138.83 378.98 384.85v79.371"/><path id="path20" d="m318.9 1202.4h-115.07v440.42h105.13c148.78 0 172.6-77.37 172.6-220.16 0-140.92-21.812-220.26-162.68-220.26zm190.46-136.89c128.93 71.43 174.59 190.45 174.59 353.2 0 273.71-117.05 414.53-357.12 414.53h-325.37v-1412.5h202.37v603.1h121.02l188.47-603.06h214.28l-218.25 644.76"/><path id="path22" d="m1086.5 587.36c-65.48 0-105.14 51.59-105.14 128.97 0 107.17 71.404 142.85 158.72 142.85 17.85 0 33.72-2.012 55.52-5.961v-136.89c0-81.328-41.64-128.97-109.1-128.97zm311.46-166.62v700.34c0 210.23-134.9 317.38-303.53 317.38-91.23 0-166.64-31.76-220.19-85.29-53.574-53.62-85.32-128.95-91.269-218.29h196.33c11.91 65.49 63.45 101.22 115.05 101.22 75.4 0 101.17-51.63 101.17-119.05v-105.2c-41.64 1.99-69.42 5.93-97.21 5.93-253.9 0-319.38-111.03-319.38-341.15 0-222.26 124.97-267.89 218.23-267.89 97.199 0 140.84 41.68 194.41 115.08h3.96v-103.13h202.36"/><path id="path24" d="m44.457 164.22v91.722h65.832c29.645 0 49.789-17.273 49.789-46.043 0-28.789-20.144-45.679-49.789-45.679zm160.04 46.062c0 49.84-35.363 85.617-90.926 85.617h-113.57v-292.97h44.457v123.4h55.563l61.7-123.4h51.85l-67.49 129.63c32.922 9.082 58.418 35.82 58.418 77.722"/><path id="path26" d="m318.07 99.668 45.676 129.98 44.43-129.98zm26.77 196.23-107.45-292.97h47.34l20.17 58.89h115.6l20.18-58.89h47.34l-107.39 292.97h-35.793"/><path id="path28" d="m680.58 62.621c-12.33-13.633-28.83-19.832-49.77-19.832h-53.92v213.23h53.922c20.941 0 37.433-6.168 49.769-19.809 15.219-16.852 15.641-44.43 15.641-84.742 0-40.34-0.422-72-15.641-88.848zm30.46 205.7c-18.5 18.481-45.269 27.578-75.715 27.578h-102.88v-292.97h102.88c30.446 0 57.215 9.0195 75.715 27.559 31.676 31.66 29.606 78.571 29.606 120.98 0 42.402 2.07 85.172-29.606 116.85"/><path id="path30" d="m809.38 2.9297h44.465v292.97h-44.46z"/><path id="path32" d="m1071.5 58.441c-10.3-11.109-26.32-18.012-43.61-18.012-17.3 0-33.327 6.9023-43.624 18.012-14.383 15.66-17.293 32.129-17.293 91 0 58.797 2.91 75.27 17.293 90.93 10.297 11.117 26.324 18.027 43.624 18.027 17.29 0 33.31-6.91 43.61-18.027 14.39-15.66 17.29-32.133 17.29-90.93 0-58.871-2.9-75.339-17.29-91zm33.73 208.71c-20.14 20.102-46.1 31.211-77.34 31.211-31.284 0-56.78-11.109-76.948-31.211-28.809-28.847-28.367-61.347-28.367-117.71 0-56.41-0.442-88.91 28.367-117.68 20.168-20.203 45.664-31.312 76.948-31.312 31.24 0 57.2 11.109 77.34 31.312 28.82 28.77 27.99 61.27 27.99 117.68 0 56.36 0.83 88.86-27.99 117.71"/><path id="path34" d="m1374.7 159.28c-27.98 0-44.43 21.828-44.43 50.617 0 31.293 18.09 51.063 44.43 51.063 26.32 0 44.88-19.77 44.88-51.063 0-31.679-18.56-50.617-44.88-50.617zm0 139.08c-50.59 0-86.39-35.39-86.39-89.281 0-51.437 34.13-84.738 76.51-84.738 9.07 0 18.54 1.191 26.36 4.551l-63-125.96h44.84l66.66 135.78c12.75 25.508 21.79 48.168 21.79 71.988 0 54.34-36.17 87.66-86.8 87.66"/><path id="path36" d="m1598.2 197.97c-21.41 0-38.67-6.617-48.55-16.86v77.371h120.14v37.418h-158v-160.02h38.28c4.51 14.402 17.67 26.332 41.57 26.332 33.73 0 42.79-26.332 42.79-61.352 0-19.757-1.65-39.039-14.02-51.418-7.37-7.4101-18.08-11.57-30.47-11.57-26.32 0-39.48 14.828-42.77 40.758h-41.97c1.63-21.008 6.59-40.289 22.22-55.949 12.9-12.763 34.6-22.681 62.6-22.681 28.38 0 48.58 9.918 61.77 23.109 21.4 21.402 24.67 46.52 24.67 77.75 0 27.582-3.27 55.981-25.5 78.172-11.92 11.93-29.65 18.938-52.68 18.938"/><path id="path38" d="m1724.2 2.9297h50.211v50.219h-50.2z"/><path id="path40" d="m1903.5 37.871c-26.31 0-44.41 19.75-44.41 51.059 0 31.679 18.1 50.601 44.41 50.601 27.94 0 44.85-21.832 44.85-50.601 0-31.309-18.55-51.059-44.85-51.059zm9.87 136.62c-9.05 0-18.07-1.269-25.89-4.527l62.89 125.94h-44.82l-66.66-135.8c-12.75-25.473-21.77-48.153-21.77-71.993 0-54.34 36.22-87.66 86.8-87.66 50.61 0 86.4 35.43 86.4 89.301 0 51.418-34.59 84.738-76.95 84.738"/><path id="path42" d="m2286.1 113.61-85.57 182.29h-44.42v-292.97h44.42v195.88l69.2-142.81h32.95l67.46 142.81v-195.88h44.41v292.97h-44.41l-84.01-182.29"/><path id="path44" d="m2654.1 170.76h-118.94v125.14h-44.44v-292.97h44.44v127.95h118.94v-127.95h44.43v292.97h-44.43v-125.14"/><path id="path46" d="m2764 174.04h97.94l-103.7-137.81v-33.3h155.6v37.422h-104.6l104.6 137.87v33.32h-149.82v-37.5"/></g></g></g></svg>
