<?xml version="1.0" encoding="UTF-8"?>

<!DOCTYPE svg PUBLIC '-//W3C//DTD SVG 1.0//EN' 'http://www.w3.org/TR/2001/REC-SVG-20010904/DTD/svg10.dtd'>
<svg stroke-width="1" stroke-dashoffset="0" font-size="12" color-rendering="auto" stroke-dasharray="none" font-weight="normal" color-interpolation="auto" stroke-linejoin="miter" fill="black" image-rendering="auto" font-family="&apos;sansserif&apos;" stroke-opacity="1" stroke-miterlimit="10" text-rendering="auto" stroke="black" font-style="normal" stroke-linecap="square" shape-rendering="auto" fill-opacity="1" xmlns="http://www.w3.org/2000/svg" xmlns:xlink="http://www.w3.org/1999/xlink">
  <!--Generated by the Batik Graphics2D SVG Generator-->
  <defs id="genericDefs" />
  <g>
    <defs id="defs1">
      <clipPath clipPathUnits="userSpaceOnUse" id="clipPath1">
        <path d="M18 30 L18 750 L592 750 L592 30 Z" />
      </clipPath>
      <clipPath clipPathUnits="userSpaceOnUse" id="clipPath2">
        <path d="M0 0 L0 720 L574 720 L574 0 Z" />
      </clipPath>
      <clipPath clipPathUnits="userSpaceOnUse" id="clipPath3">
        <path d="M-142 -10 L-142 710 L432 710 L432 -10 Z" />
      </clipPath>
      <clipPath clipPathUnits="userSpaceOnUse" id="clipPath4">
        <path d="M-144 -12 L-144 708 L430 708 L430 -12 Z" />
      </clipPath>
      <clipPath clipPathUnits="userSpaceOnUse" id="clipPath5">
        <path d="M-142 -27 L-142 693 L432 693 L432 -27 Z" />
      </clipPath>
      <clipPath clipPathUnits="userSpaceOnUse" id="clipPath6">
        <path d="M-192 -410 L-192 310 L382 310 L382 -410 Z" />
      </clipPath>
      <clipPath clipPathUnits="userSpaceOnUse" id="clipPath7">
        <path d="M-221.3240966796875 -426 L-221.3240966796875 294 L352.6759033203125 294 L352.6759033203125 -426 Z" />
      </clipPath>
      <clipPath clipPathUnits="userSpaceOnUse" id="clipPath8">
        <path d="M-172 -320 L-172 400 L402 400 L402 -320 Z" />
      </clipPath>
      <clipPath clipPathUnits="userSpaceOnUse" id="clipPath9">
        <path d="M-207.03729248046875 -336 L-207.03729248046875 384 L366.96270751953125 384 L366.96270751953125 -336 Z" />
      </clipPath>
      <clipPath clipPathUnits="userSpaceOnUse" id="clipPath10">
        <path d="M-182 -220 L-182 500 L392 500 L392 -220 Z" />
      </clipPath>
      <clipPath clipPathUnits="userSpaceOnUse" id="clipPath11">
        <path d="M-212.62669372558594 -236 L-212.62669372558594 484 L361.373291015625 484 L361.373291015625 -236 Z" />
      </clipPath>
      <clipPath clipPathUnits="userSpaceOnUse" id="clipPath12">
        <path d="M-192 -60 L-192 660 L382 660 L382 -60 Z" />
      </clipPath>
      <clipPath clipPathUnits="userSpaceOnUse" id="clipPath13">
        <path d="M-220.64549255371094 -76 L-220.64549255371094 644 L353.3544921875 644 L353.3544921875 -76 Z" />
      </clipPath>
      <clipPath clipPathUnits="userSpaceOnUse" id="clipPath14">
        <path d="M-182 -140 L-182 580 L392 580 L392 -140 Z" />
      </clipPath>
      <clipPath clipPathUnits="userSpaceOnUse" id="clipPath15">
        <path d="M-213.3809051513672 -156 L-213.3809051513672 564 L360.6191101074219 564 L360.6191101074219 -156 Z" />
      </clipPath>
      <clipPath clipPathUnits="userSpaceOnUse" id="clipPath16">
        <path d="M-192 -490 L-192 230 L382 230 L382 -490 Z" />
      </clipPath>
      <clipPath clipPathUnits="userSpaceOnUse" id="clipPath17">
        <path d="M-220.0404052734375 -506 L-220.0404052734375 214 L353.9595947265625 214 L353.9595947265625 -506 Z" />
      </clipPath>
      <clipPath clipPathUnits="userSpaceOnUse" id="clipPath18">
        <path d="M-202 -570 L-202 150 L372 150 L372 -570 Z" />
      </clipPath>
      <clipPath clipPathUnits="userSpaceOnUse" id="clipPath19">
        <path d="M-227.0625 -586 L-227.0625 134 L346.9375 134 L346.9375 -586 Z" />
      </clipPath>
      <clipPath clipPathUnits="userSpaceOnUse" id="clipPath20">
        <path d="M-172 -640 L-172 80 L402 80 L402 -640 Z" />
      </clipPath>
      <clipPath clipPathUnits="userSpaceOnUse" id="clipPath21">
        <path d="M-206.893798828125 -656 L-206.893798828125 64 L367.106201171875 64 L367.106201171875 -656 Z" />
      </clipPath>
      <clipPath clipPathUnits="userSpaceOnUse" id="clipPath22">
        <path d="M-22 -300 L-22 420 L552 420 L552 -300 Z" />
      </clipPath>
      <clipPath clipPathUnits="userSpaceOnUse" id="clipPath23">
        <path d="M-10.876700401306152 -385 L-10.876700401306152 335 L563.123291015625 335 L563.123291015625 -385 Z" />
      </clipPath>
      <clipPath clipPathUnits="userSpaceOnUse" id="clipPath24">
        <path d="M-492 -400 L-492 320 L82 320 L82 -400 Z" />
      </clipPath>
      <clipPath clipPathUnits="userSpaceOnUse" id="clipPath25">
        <path d="M-470.064697265625 -485 L-470.064697265625 235 L103.935302734375 235 L103.935302734375 -485 Z" />
      </clipPath>
      <clipPath clipPathUnits="userSpaceOnUse" id="clipPath26">
        <path d="M-492 -220 L-492 500 L82 500 L82 -220 Z" />
      </clipPath>
      <clipPath clipPathUnits="userSpaceOnUse" id="clipPath27">
        <path d="M-481.4836120605469 -305 L-481.4836120605469 415 L92.51640319824219 415 L92.51640319824219 -305 Z" />
      </clipPath>
      <clipPath clipPathUnits="userSpaceOnUse" id="clipPath28">
        <path d="M-22 -610 L-22 110 L552 110 L552 -610 Z" />
      </clipPath>
      <clipPath clipPathUnits="userSpaceOnUse" id="clipPath29">
        <path d="M-10.18120002746582 -695 L-10.18120002746582 25 L563.8187866210938 25 L563.8187866210938 -695 Z" />
      </clipPath>
    </defs>
    <g color-rendering="optimizeQuality" stroke-miterlimit="1" color-interpolation="linearRGB" text-rendering="optimizeLegibility" stroke-linecap="butt" shape-rendering="geometricPrecision" image-rendering="optimizeQuality" transform="matrix(1,0,0,1,142,10)">
      <path d="M0.5 0.5 L121.88960266113281 0.5 L121.88960266113281 17.5 L0.5 17.5 Z" clip-path="url(#clipPath3)" fill="none" />
    </g>
    <g font-family="sans-serif" font-size="11" color-rendering="optimizeQuality" color-interpolation="linearRGB" text-rendering="optimizeLegibility" shape-rendering="geometricPrecision" image-rendering="optimizeQuality" transform="matrix(1,0,0,1,144,12)">
      <text x="0" y="11" xml:space="preserve" stroke="none" clip-path="url(#clipPath4)">LiveSupport Scheduler</text>
    </g>
    <g font-family="sans-serif" font-size="11" color-rendering="optimizeQuality" color-interpolation="linearRGB" stroke="white" text-rendering="optimizeLegibility" fill="white" shape-rendering="geometricPrecision" image-rendering="optimizeQuality" transform="matrix(1,0,0,1,142,27)">
      <path d="M0.5 0.5 L269.5 0.5 L269.5 682.5 L0.5 682.5 Z" stroke="none" clip-path="url(#clipPath5)" />
    </g>
    <g font-family="sans-serif" font-size="11" color-rendering="optimizeQuality" stroke-miterlimit="1" color-interpolation="linearRGB" text-rendering="optimizeLegibility" stroke-linecap="butt" shape-rendering="geometricPrecision" image-rendering="optimizeQuality" transform="matrix(1,0,0,1,142,27)">
      <path d="M0.5 0.5 L269.5 0.5 L269.5 682.5 L0.5 682.5 Z" clip-path="url(#clipPath5)" fill="none" />
    </g>
    <g font-family="sans-serif" font-size="11" color-rendering="optimizeQuality" color-interpolation="linearRGB" stroke="white" text-rendering="optimizeLegibility" fill="white" shape-rendering="geometricPrecision" image-rendering="optimizeQuality" transform="matrix(1,0,0,1,192,410)">
      <ellipse cx="86.46175" cy="25" rx="86.46175" ry="25" stroke="none" clip-path="url(#clipPath6)" />
    </g>
    <g font-family="sans-serif" font-size="11" color-rendering="optimizeQuality" stroke-miterlimit="1" color-interpolation="linearRGB" text-rendering="optimizeLegibility" stroke-linecap="butt" shape-rendering="geometricPrecision" image-rendering="optimizeQuality" transform="matrix(1,0,0,1,192,410)">
      <ellipse cx="86.46175" cy="25" rx="86.46175" ry="25" clip-path="url(#clipPath6)" fill="none" />
      <text x="0" y="11" xml:space="preserve" stroke-miterlimit="10" stroke="none" clip-path="url(#clipPath7)" stroke-linecap="square" transform="matrix(1,0,0,1,29.3241,16)">UC-5 Review play log</text>
    </g>
    <g font-family="sans-serif" font-size="11" color-rendering="optimizeQuality" color-interpolation="linearRGB" stroke="white" text-rendering="optimizeLegibility" fill="white" shape-rendering="geometricPrecision" image-rendering="optimizeQuality" transform="matrix(1,0,0,1,172,320)">
      <ellipse cx="105.96795" cy="25" rx="105.96795" ry="25" stroke="none" clip-path="url(#clipPath8)" />
    </g>
    <g font-family="sans-serif" font-size="11" color-rendering="optimizeQuality" stroke-miterlimit="1" color-interpolation="linearRGB" text-rendering="optimizeLegibility" stroke-linecap="butt" shape-rendering="geometricPrecision" image-rendering="optimizeQuality" transform="matrix(1,0,0,1,172,320)">
      <ellipse cx="105.96795" cy="25" rx="105.96795" ry="25" clip-path="url(#clipPath8)" fill="none" />
      <text x="0" y="11" xml:space="preserve" stroke-miterlimit="10" stroke="none" clip-path="url(#clipPath9)" stroke-linecap="square" transform="matrix(1,0,0,1,35.0373,16)">UC-4 Retrieve remote files</text>
    </g>
    <g font-family="sans-serif" font-size="11" color-rendering="optimizeQuality" color-interpolation="linearRGB" stroke="white" text-rendering="optimizeLegibility" fill="white" shape-rendering="geometricPrecision" image-rendering="optimizeQuality" transform="matrix(1,0,0,1,182,220)">
      <ellipse cx="90.90915" cy="25" rx="90.90915" ry="25" stroke="none" clip-path="url(#clipPath10)" />
    </g>
    <g font-family="sans-serif" font-size="11" color-rendering="optimizeQuality" stroke-miterlimit="1" color-interpolation="linearRGB" text-rendering="optimizeLegibility" stroke-linecap="butt" shape-rendering="geometricPrecision" image-rendering="optimizeQuality" transform="matrix(1,0,0,1,182,220)">
      <ellipse cx="90.90915" cy="25" rx="90.90915" ry="25" clip-path="url(#clipPath10)" fill="none" />
      <text x="0" y="11" xml:space="preserve" stroke-miterlimit="10" stroke="none" clip-path="url(#clipPath11)" stroke-linecap="square" transform="matrix(1,0,0,1,30.6267,16)">UC-3 Manage playlists</text>
    </g>
    <g font-family="sans-serif" font-size="11" color-rendering="optimizeQuality" color-interpolation="linearRGB" stroke="white" text-rendering="optimizeLegibility" fill="white" shape-rendering="geometricPrecision" image-rendering="optimizeQuality" transform="matrix(1,0,0,1,192,60)">
      <ellipse cx="84.145" cy="25" rx="84.145" ry="25" stroke="none" clip-path="url(#clipPath12)" />
    </g>
    <g font-family="sans-serif" font-size="11" color-rendering="optimizeQuality" stroke-miterlimit="1" color-interpolation="linearRGB" text-rendering="optimizeLegibility" stroke-linecap="butt" shape-rendering="geometricPrecision" image-rendering="optimizeQuality" transform="matrix(1,0,0,1,192,60)">
      <ellipse cx="84.145" cy="25" rx="84.145" ry="25" clip-path="url(#clipPath12)" fill="none" />
      <text x="0" y="11" xml:space="preserve" stroke-miterlimit="10" stroke="none" clip-path="url(#clipPath13)" stroke-linecap="square" transform="matrix(1,0,0,1,28.6455,16)">UC-1 Upload playlist</text>
    </g>
    <g font-family="sans-serif" font-size="11" color-rendering="optimizeQuality" color-interpolation="linearRGB" stroke="white" text-rendering="optimizeLegibility" fill="white" shape-rendering="geometricPrecision" image-rendering="optimizeQuality" transform="matrix(1,0,0,1,182,140)">
      <ellipse cx="93.48415" cy="25" rx="93.48415" ry="25" stroke="none" clip-path="url(#clipPath14)" />
    </g>
    <g font-family="sans-serif" font-size="11" color-rendering="optimizeQuality" stroke-miterlimit="1" color-interpolation="linearRGB" text-rendering="optimizeLegibility" stroke-linecap="butt" shape-rendering="geometricPrecision" image-rendering="optimizeQuality" transform="matrix(1,0,0,1,182,140)">
      <ellipse cx="93.48415" cy="25" rx="93.48415" ry="25" clip-path="url(#clipPath14)" fill="none" />
      <text x="0" y="11" xml:space="preserve" stroke-miterlimit="10" stroke="none" clip-path="url(#clipPath15)" stroke-linecap="square" transform="matrix(1,0,0,1,31.3809,16)">UC-2 Manage schedule</text>
    </g>
    <g font-family="sans-serif" font-size="11" color-rendering="optimizeQuality" color-interpolation="linearRGB" stroke="white" text-rendering="optimizeLegibility" fill="white" shape-rendering="geometricPrecision" image-rendering="optimizeQuality" transform="matrix(1,0,0,1,192,490)">
      <ellipse cx="82.07895" cy="25" rx="82.07895" ry="25" stroke="none" clip-path="url(#clipPath16)" />
    </g>
    <g font-family="sans-serif" font-size="11" color-rendering="optimizeQuality" stroke-miterlimit="1" color-interpolation="linearRGB" text-rendering="optimizeLegibility" stroke-linecap="butt" shape-rendering="geometricPrecision" image-rendering="optimizeQuality" transform="matrix(1,0,0,1,192,490)">
      <ellipse cx="82.07895" cy="25" rx="82.07895" ry="25" clip-path="url(#clipPath16)" fill="none" />
      <text x="0" y="11" xml:space="preserve" stroke-miterlimit="10" stroke="none" clip-path="url(#clipPath17)" stroke-linecap="square" transform="matrix(1,0,0,1,28.0404,16)">UC-6 Create playlist</text>
    </g>
    <g font-family="sans-serif" font-size="11" color-rendering="optimizeQuality" color-interpolation="linearRGB" stroke="white" text-rendering="optimizeLegibility" fill="white" shape-rendering="geometricPrecision" image-rendering="optimizeQuality" transform="matrix(1,0,0,1,202,570)">
      <ellipse cx="71.91185" cy="25" rx="71.91185" ry="25" stroke="none" clip-path="url(#clipPath18)" />
    </g>
    <g font-family="sans-serif" font-size="11" color-rendering="optimizeQuality" stroke-miterlimit="1" color-interpolation="linearRGB" text-rendering="optimizeLegibility" stroke-linecap="butt" shape-rendering="geometricPrecision" image-rendering="optimizeQuality" transform="matrix(1,0,0,1,202,570)">
      <ellipse cx="71.91185" cy="25" rx="71.91185" ry="25" clip-path="url(#clipPath18)" fill="none" />
      <text x="0" y="11" xml:space="preserve" stroke-miterlimit="10" stroke="none" clip-path="url(#clipPath19)" stroke-linecap="square" transform="matrix(1,0,0,1,25.0625,16)">UC-7 Edit playlist</text>
    </g>
    <g font-family="sans-serif" font-size="11" color-rendering="optimizeQuality" color-interpolation="linearRGB" stroke="white" text-rendering="optimizeLegibility" fill="white" shape-rendering="geometricPrecision" image-rendering="optimizeQuality" transform="matrix(1,0,0,1,172,640)">
      <ellipse cx="105.47805" cy="25" rx="105.47805" ry="25" stroke="none" clip-path="url(#clipPath20)" />
    </g>
    <g font-family="sans-serif" font-size="11" color-rendering="optimizeQuality" stroke-miterlimit="1" color-interpolation="linearRGB" text-rendering="optimizeLegibility" stroke-linecap="butt" shape-rendering="geometricPrecision" image-rendering="optimizeQuality" transform="matrix(1,0,0,1,172,640)">
      <ellipse cx="105.47805" cy="25" rx="105.47805" ry="25" clip-path="url(#clipPath20)" fill="none" />
      <text x="0" y="11" xml:space="preserve" stroke-miterlimit="10" stroke="none" clip-path="url(#clipPath21)" stroke-linecap="square" transform="matrix(1,0,0,1,34.8938,16)">UC-8 Start/stop scheduler</text>
    </g>
    <g font-family="sans-serif" font-size="11" color-rendering="optimizeQuality" color-interpolation="linearRGB" stroke="white" text-rendering="optimizeLegibility" fill="white" shape-rendering="geometricPrecision" image-rendering="optimizeQuality" transform="matrix(1,0,0,1,22,300)">
      <path d="M25 21.33333396911621 C12.5 21.33333396911621 12.5 0 25 0 C37.5 0 37.5 21.33333396911621 25 21.33333396911621 M25 21.33333396911621 L25 26.66666603088379 M0 26.66666603088379 L50 26.66666603088379 M25 26.66666603088379 L25 53.33333206176758 M25 53.33333206176758 L0 80 M25 53.33333206176758 L50 80" stroke="none" clip-path="url(#clipPath22)" />
    </g>
    <g font-family="sans-serif" font-size="11" color-rendering="optimizeQuality" stroke-miterlimit="1" color-interpolation="linearRGB" text-rendering="optimizeLegibility" stroke-linecap="butt" shape-rendering="geometricPrecision" image-rendering="optimizeQuality" transform="matrix(1,0,0,1,22,300)">
      <path d="M25 21.33333396911621 C12.5 21.33333396911621 12.5 0 25 0 C37.5 0 37.5 21.33333396911621 25 21.33333396911621 M25 21.33333396911621 L25 26.66666603088379 M0 26.66666603088379 L50 26.66666603088379 M25 26.66666603088379 L25 53.33333206176758 M25 53.33333206176758 L0 80 M25 53.33333206176758 L50 80" clip-path="url(#clipPath22)" fill="none" />
      <text x="0" y="11" xml:space="preserve" stroke-miterlimit="10" stroke="none" clip-path="url(#clipPath23)" stroke-linecap="square" transform="matrix(1,0,0,1,-11.1233,85)">Playlist editor</text>
    </g>
    <g font-family="sans-serif" font-size="11" color-rendering="optimizeQuality" color-interpolation="linearRGB" stroke="white" text-rendering="optimizeLegibility" fill="white" shape-rendering="geometricPrecision" image-rendering="optimizeQuality" transform="matrix(1,0,0,1,492,400)">
      <path d="M25 21.33333396911621 C12.5 21.33333396911621 12.5 0 25 0 C37.5 0 37.5 21.33333396911621 25 21.33333396911621 M25 21.33333396911621 L25 26.66666603088379 M0 26.66666603088379 L50 26.66666603088379 M25 26.66666603088379 L25 53.33333206176758 M25 53.33333206176758 L0 80 M25 53.33333206176758 L50 80" stroke="none" clip-path="url(#clipPath24)" />
    </g>
    <g font-family="sans-serif" font-size="11" color-rendering="optimizeQuality" stroke-miterlimit="1" color-interpolation="linearRGB" text-rendering="optimizeLegibility" stroke-linecap="butt" shape-rendering="geometricPrecision" image-rendering="optimizeQuality" transform="matrix(1,0,0,1,492,400)">
      <path d="M25 21.33333396911621 C12.5 21.33333396911621 12.5 0 25 0 C37.5 0 37.5 21.33333396911621 25 21.33333396911621 M25 21.33333396911621 L25 26.66666603088379 M0 26.66666603088379 L50 26.66666603088379 M25 26.66666603088379 L25 53.33333206176758 M25 53.33333206176758 L0 80 M25 53.33333206176758 L50 80" clip-path="url(#clipPath24)" fill="none" />
      <text x="0" y="11" xml:space="preserve" stroke-miterlimit="10" stroke="none" clip-path="url(#clipPath25)" stroke-linecap="square" transform="matrix(1,0,0,1,-21.9353,85)">Broadcast auditor</text>
    </g>
    <g font-family="sans-serif" font-size="11" color-rendering="optimizeQuality" stroke-miterlimit="1" color-interpolation="linearRGB" text-rendering="optimizeLegibility" stroke-linecap="butt" shape-rendering="geometricPrecision" image-rendering="optimizeQuality" transform="matrix(1,0,0,1,-18,-30)">
      <path d="M510 465 L382.9234924316406 465" clip-path="url(#clipPath1)" fill="none" />
    </g>
    <g font-family="sans-serif" font-size="11" color-rendering="optimizeQuality" stroke-miterlimit="1" color-interpolation="linearRGB" text-rendering="optimizeLegibility" stroke-linecap="butt" shape-rendering="geometricPrecision" image-rendering="optimizeQuality" transform="matrix(1,0,0,1,-18,-30)">
      <path d="M90 330 L200.74319458007812 278.1900939941406" clip-path="url(#clipPath1)" fill="none" />
    </g>
    <g font-family="sans-serif" font-size="11" color-rendering="optimizeQuality" color-interpolation="linearRGB" stroke="white" text-rendering="optimizeLegibility" fill="white" shape-rendering="geometricPrecision" image-rendering="optimizeQuality" transform="matrix(1,0,0,1,492,220)">
      <path d="M25 21.33333396911621 C12.5 21.33333396911621 12.5 0 25 0 C37.5 0 37.5 21.33333396911621 25 21.33333396911621 M25 21.33333396911621 L25 26.66666603088379 M0 26.66666603088379 L50 26.66666603088379 M25 26.66666603088379 L25 53.33333206176758 M25 53.33333206176758 L0 80 M25 53.33333206176758 L50 80" stroke="none" clip-path="url(#clipPath26)" />
    </g>
    <g font-family="sans-serif" font-size="11" color-rendering="optimizeQuality" stroke-miterlimit="1" color-interpolation="linearRGB" text-rendering="optimizeLegibility" stroke-linecap="butt" shape-rendering="geometricPrecision" image-rendering="optimizeQuality" transform="matrix(1,0,0,1,492,220)">
      <path d="M25 21.33333396911621 C12.5 21.33333396911621 12.5 0 25 0 C37.5 0 37.5 21.33333396911621 25 21.33333396911621 M25 21.33333396911621 L25 26.66666603088379 M0 26.66666603088379 L50 26.66666603088379 M25 26.66666603088379 L25 53.33333206176758 M25 53.33333206176758 L0 80 M25 53.33333206176758 L50 80" clip-path="url(#clipPath26)" fill="none" />
      <text x="0" y="11" xml:space="preserve" stroke-miterlimit="10" stroke="none" clip-path="url(#clipPath27)" stroke-linecap="square" transform="matrix(1,0,0,1,-10.5164,85)">Local storage</text>
    </g>
    <g font-family="sans-serif" font-size="11" color-rendering="optimizeQuality" stroke-miterlimit="1" color-interpolation="linearRGB" text-rendering="optimizeLegibility" stroke-linecap="butt" shape-rendering="geometricPrecision" image-rendering="optimizeQuality" transform="matrix(1,0,0,1,-18,-30)">
      <path d="M496.4836120605469 335.31719970703125 L401.4825134277344 372.689697265625" clip-path="url(#clipPath1)" fill="none" />
    </g>
    <g font-family="sans-serif" font-size="11" color-rendering="optimizeQuality" stroke-miterlimit="1" color-interpolation="linearRGB" text-rendering="optimizeLegibility" stroke-linecap="butt" shape-rendering="geometricPrecision" image-rendering="optimizeQuality" transform="matrix(1,0,0,1,-18,-30)">
      <path d="M90 330 L218.1038055419922 125.70459747314453" clip-path="url(#clipPath1)" fill="none" />
    </g>
    <g font-family="sans-serif" font-size="11" color-rendering="optimizeQuality" stroke-miterlimit="1" color-interpolation="linearRGB" text-rendering="optimizeLegibility" stroke-linecap="butt" shape-rendering="geometricPrecision" image-rendering="optimizeQuality" transform="matrix(1,0,0,1,-18,-30)">
      <path d="M90 330 L203.9423065185547 202.1833953857422" clip-path="url(#clipPath1)" fill="none" />
    </g>
    <g font-family="sans-serif" font-size="11" color-rendering="optimizeQuality" stroke-miterlimit="1" color-interpolation="linearRGB" text-rendering="optimizeLegibility" stroke-linecap="butt" shape-rendering="geometricPrecision" image-rendering="optimizeQuality" transform="matrix(1,0,0,1,-18,-30)">
      <path d="M104.12329864501953 424.55108642578125 L213.7655029296875 537.5145874023438" clip-path="url(#clipPath1)" fill="none" />
    </g>
    <g font-family="sans-serif" font-size="11" color-rendering="optimizeQuality" stroke-miterlimit="1" color-interpolation="linearRGB" text-rendering="optimizeLegibility" stroke-linecap="butt" shape-rendering="geometricPrecision" image-rendering="optimizeQuality" transform="matrix(1,0,0,1,-18,-30)">
      <path d="M104.12329864501953 430.84600830078125 L227.931396484375 613.586669921875" clip-path="url(#clipPath1)" fill="none" />
    </g>
    <g font-family="sans-serif" font-size="11" color-rendering="optimizeQuality" color-interpolation="linearRGB" stroke="white" text-rendering="optimizeLegibility" fill="white" shape-rendering="geometricPrecision" image-rendering="optimizeQuality" transform="matrix(1,0,0,1,22,610)">
      <path d="M25 21.33333396911621 C12.5 21.33333396911621 12.5 0 25 0 C37.5 0 37.5 21.33333396911621 25 21.33333396911621 M25 21.33333396911621 L25 26.66666603088379 M0 26.66666603088379 L50 26.66666603088379 M25 26.66666603088379 L25 53.33333206176758 M25 53.33333206176758 L0 80 M25 53.33333206176758 L50 80" stroke="none" clip-path="url(#clipPath28)" />
    </g>
    <g font-family="sans-serif" font-size="11" color-rendering="optimizeQuality" stroke-miterlimit="1" color-interpolation="linearRGB" text-rendering="optimizeLegibility" stroke-linecap="butt" shape-rendering="geometricPrecision" image-rendering="optimizeQuality" transform="matrix(1,0,0,1,22,610)">
      <path d="M25 21.33333396911621 C12.5 21.33333396911621 12.5 0 25 0 C37.5 0 37.5 21.33333396911621 25 21.33333396911621 M25 21.33333396911621 L25 26.66666603088379 M0 26.66666603088379 L50 26.66666603088379 M25 26.66666603088379 L25 53.33333206176758 M25 53.33333206176758 L0 80 M25 53.33333206176758 L50 80" clip-path="url(#clipPath28)" fill="none" />
      <text x="0" y="11" xml:space="preserve" stroke-miterlimit="10" stroke="none" clip-path="url(#clipPath29)" stroke-linecap="square" transform="matrix(1,0,0,1,-11.8188,85)">Administrator</text>
    </g>
    <g font-family="sans-serif" font-size="11" color-rendering="optimizeQuality" stroke-miterlimit="1" color-interpolation="linearRGB" text-rendering="optimizeLegibility" stroke-linecap="butt" shape-rendering="geometricPrecision" image-rendering="optimizeQuality" transform="matrix(1,0,0,1,-18,-30)">
      <path d="M90 695 L190 695" clip-path="url(#clipPath1)" fill="none" />
    </g>
  </g>
</svg>
