<?xml version="1.0" encoding="UTF-8"?>

<!DOCTYPE svg PUBLIC '-//W3C//DTD SVG 1.0//EN' 'http://www.w3.org/TR/2001/REC-SVG-20010904/DTD/svg10.dtd'>
<svg stroke-width="1" stroke-dashoffset="0" font-size="12" stroke-dasharray="none" color-rendering="auto" font-weight="normal" color-interpolation="auto" stroke-linejoin="miter" fill="black" image-rendering="auto" font-family="&apos;sansserif&apos;" stroke-opacity="1" stroke-miterlimit="10" stroke="black" text-rendering="auto" font-style="normal" stroke-linecap="square" fill-opacity="1" shape-rendering="auto" xmlns="http://www.w3.org/2000/svg" xmlns:xlink="http://www.w3.org/1999/xlink">
  <!--Generated by the Batik Graphics2D SVG Generator-->
  <defs id="genericDefs" />
  <g>
    <defs id="defs1">
      <clipPath clipPathUnits="userSpaceOnUse" id="clipPath1">
        <path d="M10 10 L10 321 L606 321 L606 10 Z" />
      </clipPath>
      <clipPath clipPathUnits="userSpaceOnUse" id="clipPath2">
        <path d="M0 0 L0 311 L596 311 L596 0 Z" />
      </clipPath>
      <clipPath clipPathUnits="userSpaceOnUse" id="clipPath3">
        <path d="M-480 -10 L-480 301 L116 301 L116 -10 Z" />
      </clipPath>
      <clipPath clipPathUnits="userSpaceOnUse" id="clipPath4">
        <path d="M-486 -16 L-486 295 L110 295 L110 -16 Z" />
      </clipPath>
      <clipPath clipPathUnits="userSpaceOnUse" id="clipPath5">
        <path d="M-523.47412109375 -16 L-523.47412109375 295 L72.5259017944336 295 L72.5259017944336 -16 Z" />
      </clipPath>
      <clipPath clipPathUnits="userSpaceOnUse" id="clipPath6">
        <path d="M-526.95458984375 -16 L-526.95458984375 295 L69.04540252685547 295 L69.04540252685547 -16 Z" />
      </clipPath>
      <clipPath clipPathUnits="userSpaceOnUse" id="clipPath7">
        <path d="M-527.513671875 -71 L-527.513671875 240 L68.48629760742188 240 L68.48629760742188 -71 Z" />
      </clipPath>
      <clipPath clipPathUnits="userSpaceOnUse" id="clipPath8">
        <path d="M-10 -10 L-10 301 L586 301 L586 -10 Z" />
      </clipPath>
      <clipPath clipPathUnits="userSpaceOnUse" id="clipPath9">
        <path d="M-16 -16 L-16 295 L580 295 L580 -16 Z" />
      </clipPath>
      <clipPath clipPathUnits="userSpaceOnUse" id="clipPath10">
        <path d="M-85.44290161132812 -16 L-85.44290161132812 295 L510.5570983886719 295 L510.5570983886719 -16 Z" />
      </clipPath>
      <clipPath clipPathUnits="userSpaceOnUse" id="clipPath11">
        <path d="M-88.92330169677734 -16 L-88.92330169677734 295 L507.0766906738281 295 L507.0766906738281 -16 Z" />
      </clipPath>
      <clipPath clipPathUnits="userSpaceOnUse" id="clipPath12">
        <path d="M527.513671875 71 L527.513671875 -240 L-68.48629760742188 -240 L-68.48629760742188 71 Z" />
      </clipPath>
      <clipPath clipPathUnits="userSpaceOnUse" id="clipPath13">
        <path d="M-199.79840087890625 -47 L-199.79840087890625 264 L396.20159912109375 264 L396.20159912109375 -47 Z" />
      </clipPath>
      <clipPath clipPathUnits="userSpaceOnUse" id="clipPath14">
        <path d="M-205.27890014648438 -47 L-205.27890014648438 264 L390.7210998535156 264 L390.7210998535156 -47 Z" />
      </clipPath>
      <clipPath clipPathUnits="userSpaceOnUse" id="clipPath15">
        <path d="M-210.75929260253906 -47 L-210.75929260253906 264 L385.2406921386719 264 L385.2406921386719 -47 Z" />
      </clipPath>
      <clipPath clipPathUnits="userSpaceOnUse" id="clipPath16">
        <path d="M-283.7255859375 -47 L-283.7255859375 264 L312.2744140625 264 L312.2744140625 -47 Z" />
      </clipPath>
      <clipPath clipPathUnits="userSpaceOnUse" id="clipPath17">
        <path d="M-295.9501953125 -47 L-295.9501953125 264 L300.0498046875 264 L300.0498046875 -47 Z" />
      </clipPath>
      <clipPath clipPathUnits="userSpaceOnUse" id="clipPath18">
        <path d="M-361.9931945800781 -47 L-361.9931945800781 264 L234.00680541992188 264 L234.00680541992188 -47 Z" />
      </clipPath>
      <clipPath clipPathUnits="userSpaceOnUse" id="clipPath19">
        <path d="M-365.5703125 -47 L-365.5703125 264 L230.42970275878906 264 L230.42970275878906 -47 Z" />
      </clipPath>
      <clipPath clipPathUnits="userSpaceOnUse" id="clipPath20">
        <path d="M-410.2095031738281 -47 L-410.2095031738281 264 L185.79049682617188 264 L185.79049682617188 -47 Z" />
      </clipPath>
      <clipPath clipPathUnits="userSpaceOnUse" id="clipPath21">
        <path d="M527.513671875 106 L527.513671875 -205 L-68.48629760742188 -205 L-68.48629760742188 106 Z" />
      </clipPath>
      <clipPath clipPathUnits="userSpaceOnUse" id="clipPath22">
        <path d="M-190.33450317382812 -82 L-190.33450317382812 229 L405.6654968261719 229 L405.6654968261719 -82 Z" />
      </clipPath>
      <clipPath clipPathUnits="userSpaceOnUse" id="clipPath23">
        <path d="M-195.81500244140625 -82 L-195.81500244140625 229 L400.18499755859375 229 L400.18499755859375 -82 Z" />
      </clipPath>
      <clipPath clipPathUnits="userSpaceOnUse" id="clipPath24">
        <path d="M-201.29539489746094 -82 L-201.29539489746094 229 L394.70458984375 229 L394.70458984375 -82 Z" />
      </clipPath>
      <clipPath clipPathUnits="userSpaceOnUse" id="clipPath25">
        <path d="M-278.7412109375 -82 L-278.7412109375 229 L317.2587890625 229 L317.2587890625 -82 Z" />
      </clipPath>
      <clipPath clipPathUnits="userSpaceOnUse" id="clipPath26">
        <path d="M-290.9657897949219 -82 L-290.9657897949219 229 L305.0342102050781 229 L305.0342102050781 -82 Z" />
      </clipPath>
      <clipPath clipPathUnits="userSpaceOnUse" id="clipPath27">
        <path d="M-376.17279052734375 -82 L-376.17279052734375 229 L219.8271942138672 229 L219.8271942138672 -82 Z" />
      </clipPath>
      <clipPath clipPathUnits="userSpaceOnUse" id="clipPath28">
        <path d="M-379.75 -82 L-379.75 229 L216.25 229 L216.25 -82 Z" />
      </clipPath>
      <clipPath clipPathUnits="userSpaceOnUse" id="clipPath29">
        <path d="M-405.3218078613281 -82 L-405.3218078613281 229 L190.67820739746094 229 L190.67820739746094 -82 Z" />
      </clipPath>
      <clipPath clipPathUnits="userSpaceOnUse" id="clipPath30">
        <path d="M-408.80218505859375 -82 L-408.80218505859375 229 L187.1977996826172 229 L187.1977996826172 -82 Z" />
      </clipPath>
      <clipPath clipPathUnits="userSpaceOnUse" id="clipPath31">
        <path d="M-419.6733093261719 -82 L-419.6733093261719 229 L176.3267059326172 229 L176.3267059326172 -82 Z" />
      </clipPath>
      <clipPath clipPathUnits="userSpaceOnUse" id="clipPath32">
        <path d="M527.513671875 141 L527.513671875 -170 L-68.48629760742188 -170 L-68.48629760742188 141 Z" />
      </clipPath>
      <clipPath clipPathUnits="userSpaceOnUse" id="clipPath33">
        <path d="M-211.1717071533203 -117 L-211.1717071533203 194 L384.82830810546875 194 L384.82830810546875 -117 Z" />
      </clipPath>
      <clipPath clipPathUnits="userSpaceOnUse" id="clipPath34">
        <path d="M-216.65220642089844 -117 L-216.65220642089844 194 L379.3478088378906 194 L379.3478088378906 -117 Z" />
      </clipPath>
      <clipPath clipPathUnits="userSpaceOnUse" id="clipPath35">
        <path d="M-222.13259887695312 -117 L-222.13259887695312 194 L373.8674011230469 194 L373.8674011230469 -117 Z" />
      </clipPath>
      <clipPath clipPathUnits="userSpaceOnUse" id="clipPath36">
        <path d="M-260.13848876953125 -117 L-260.13848876953125 194 L335.86151123046875 194 L335.86151123046875 -117 Z" />
      </clipPath>
      <clipPath clipPathUnits="userSpaceOnUse" id="clipPath37">
        <path d="M-272.36309814453125 -117 L-272.36309814453125 194 L323.63690185546875 194 L323.63690185546875 -117 Z" />
      </clipPath>
      <clipPath clipPathUnits="userSpaceOnUse" id="clipPath38">
        <path d="M-347.160888671875 -117 L-347.160888671875 194 L248.83909606933594 194 L248.83909606933594 -117 Z" />
      </clipPath>
      <clipPath clipPathUnits="userSpaceOnUse" id="clipPath39">
        <path d="M-350.73809814453125 -117 L-350.73809814453125 194 L245.26190185546875 194 L245.26190185546875 -117 Z" />
      </clipPath>
      <clipPath clipPathUnits="userSpaceOnUse" id="clipPath40">
        <path d="M-398.8362121582031 -117 L-398.8362121582031 194 L197.16380310058594 194 L197.16380310058594 -117 Z" />
      </clipPath>
      <clipPath clipPathUnits="userSpaceOnUse" id="clipPath41">
        <path d="M527.513671875 176 L527.513671875 -135 L-68.48629760742188 -135 L-68.48629760742188 176 Z" />
      </clipPath>
      <clipPath clipPathUnits="userSpaceOnUse" id="clipPath42">
        <path d="M-182.5518035888672 -152 L-182.5518035888672 159 L413.4482116699219 159 L413.4482116699219 -152 Z" />
      </clipPath>
      <clipPath clipPathUnits="userSpaceOnUse" id="clipPath43">
        <path d="M-188.0323028564453 -152 L-188.0323028564453 159 L407.96771240234375 159 L407.96771240234375 -152 Z" />
      </clipPath>
      <clipPath clipPathUnits="userSpaceOnUse" id="clipPath44">
        <path d="M-193.5126953125 -152 L-193.5126953125 159 L402.4873046875 159 L402.4873046875 -152 Z" />
      </clipPath>
      <clipPath clipPathUnits="userSpaceOnUse" id="clipPath45">
        <path d="M-307.9867858886719 -152 L-307.9867858886719 159 L288.0132141113281 159 L288.0132141113281 -152 Z" />
      </clipPath>
      <clipPath clipPathUnits="userSpaceOnUse" id="clipPath46">
        <path d="M-311.5639953613281 -152 L-311.5639953613281 159 L284.4360046386719 159 L284.4360046386719 -152 Z" />
      </clipPath>
      <clipPath clipPathUnits="userSpaceOnUse" id="clipPath47">
        <path d="M-385.9696960449219 -152 L-385.9696960449219 159 L210.03030395507812 159 L210.03030395507812 -152 Z" />
      </clipPath>
      <clipPath clipPathUnits="userSpaceOnUse" id="clipPath48">
        <path d="M-389.4501953125 -152 L-389.4501953125 159 L206.5498046875 159 L206.5498046875 -152 Z" />
      </clipPath>
      <clipPath clipPathUnits="userSpaceOnUse" id="clipPath49">
        <path d="M-427.4560852050781 -152 L-427.4560852050781 159 L168.5438995361328 159 L168.5438995361328 -152 Z" />
      </clipPath>
      <clipPath clipPathUnits="userSpaceOnUse" id="clipPath50">
        <path d="M527.513671875 211 L527.513671875 -100 L-68.48629760742188 -100 L-68.48629760742188 211 Z" />
      </clipPath>
      <clipPath clipPathUnits="userSpaceOnUse" id="clipPath51">
        <path d="M-176.00439453125 -187 L-176.00439453125 124 L419.99560546875 124 L419.99560546875 -187 Z" />
      </clipPath>
      <clipPath clipPathUnits="userSpaceOnUse" id="clipPath52">
        <path d="M-181.48489379882812 -187 L-181.48489379882812 124 L414.5151062011719 124 L414.5151062011719 -187 Z" />
      </clipPath>
      <clipPath clipPathUnits="userSpaceOnUse" id="clipPath53">
        <path d="M-186.96530151367188 -187 L-186.96530151367188 124 L409.0346984863281 124 L409.0346984863281 -187 Z" />
      </clipPath>
      <clipPath clipPathUnits="userSpaceOnUse" id="clipPath54">
        <path d="M-244.84959411621094 -187 L-244.84959411621094 124 L351.150390625 124 L351.150390625 -187 Z" />
      </clipPath>
      <clipPath clipPathUnits="userSpaceOnUse" id="clipPath55">
        <path d="M-248.42669677734375 -187 L-248.42669677734375 124 L347.57330322265625 124 L347.57330322265625 -187 Z" />
      </clipPath>
      <clipPath clipPathUnits="userSpaceOnUse" id="clipPath56">
        <path d="M-322.8324890136719 -187 L-322.8324890136719 124 L273.1675109863281 124 L273.1675109863281 -187 Z" />
      </clipPath>
      <clipPath clipPathUnits="userSpaceOnUse" id="clipPath57">
        <path d="M-326.31298828125 -187 L-326.31298828125 124 L269.68701171875 124 L269.68701171875 -187 Z" />
      </clipPath>
      <clipPath clipPathUnits="userSpaceOnUse" id="clipPath58">
        <path d="M-364.31878662109375 -187 L-364.31878662109375 124 L231.6811981201172 124 L231.6811981201172 -187 Z" />
      </clipPath>
      <clipPath clipPathUnits="userSpaceOnUse" id="clipPath59">
        <path d="M-367.7992858886719 -187 L-367.7992858886719 124 L228.20069885253906 124 L228.20069885253906 -187 Z" />
      </clipPath>
      <clipPath clipPathUnits="userSpaceOnUse" id="clipPath60">
        <path d="M-434.0033874511719 -187 L-434.0033874511719 124 L161.99659729003906 124 L161.99659729003906 -187 Z" />
      </clipPath>
      <clipPath clipPathUnits="userSpaceOnUse" id="clipPath61">
        <path d="M527.513671875 246 L527.513671875 -65 L-68.48629760742188 -65 L-68.48629760742188 246 Z" />
      </clipPath>
      <clipPath clipPathUnits="userSpaceOnUse" id="clipPath62">
        <path d="M-187.27029418945312 -222 L-187.27029418945312 89 L408.7297058105469 89 L408.7297058105469 -222 Z" />
      </clipPath>
      <clipPath clipPathUnits="userSpaceOnUse" id="clipPath63">
        <path d="M-192.75079345703125 -222 L-192.75079345703125 89 L403.24920654296875 89 L403.24920654296875 -222 Z" />
      </clipPath>
      <clipPath clipPathUnits="userSpaceOnUse" id="clipPath64">
        <path d="M-198.231201171875 -222 L-198.231201171875 89 L397.768798828125 89 L397.768798828125 -222 Z" />
      </clipPath>
      <clipPath clipPathUnits="userSpaceOnUse" id="clipPath65">
        <path d="M-281.8053894042969 -222 L-281.8053894042969 89 L314.1946105957031 89 L314.1946105957031 -222 Z" />
      </clipPath>
      <clipPath clipPathUnits="userSpaceOnUse" id="clipPath66">
        <path d="M-294.0299987792969 -222 L-294.0299987792969 89 L301.9700012207031 89 L301.9700012207031 -222 Z" />
      </clipPath>
      <clipPath clipPathUnits="userSpaceOnUse" id="clipPath67">
        <path d="M-379.2370910644531 -222 L-379.2370910644531 89 L216.7628936767578 89 L216.7628936767578 -222 Z" />
      </clipPath>
      <clipPath clipPathUnits="userSpaceOnUse" id="clipPath68">
        <path d="M-382.814208984375 -222 L-382.814208984375 89 L213.18580627441406 89 L213.18580627441406 -222 Z" />
      </clipPath>
      <clipPath clipPathUnits="userSpaceOnUse" id="clipPath69">
        <path d="M-408.385986328125 -222 L-408.385986328125 89 L187.61399841308594 89 L187.61399841308594 -222 Z" />
      </clipPath>
      <clipPath clipPathUnits="userSpaceOnUse" id="clipPath70">
        <path d="M-411.8664855957031 -222 L-411.8664855957031 89 L184.1334991455078 89 L184.1334991455078 -222 Z" />
      </clipPath>
      <clipPath clipPathUnits="userSpaceOnUse" id="clipPath71">
        <path d="M-422.73748779296875 -222 L-422.73748779296875 89 L173.2624969482422 89 L173.2624969482422 -222 Z" />
      </clipPath>
    </defs>
    <g color-rendering="optimizeQuality" stroke-dasharray="5,5" stroke-miterlimit="1" color-interpolation="linearRGB" text-rendering="optimizeLegibility" stroke-linecap="butt" shape-rendering="geometricPrecision" image-rendering="optimizeQuality" transform="matrix(1,0,0,1,480,10)">
      <path d="M53.013648986816406 0.5 L53.013648986816406 290.5" clip-path="url(#clipPath3)" fill="none" />
      <path d="M0.5 0.5 L104.52729797363281 0.5 L104.52729797363281 25.5 L0.5 25.5 Z" stroke="none" clip-path="url(#clipPath3)" fill="white" />
      <path d="M0.5 0.5 L104.52729797363281 0.5 L104.52729797363281 25.5 L0.5 25.5 Z" stroke-dasharray="none" clip-path="url(#clipPath3)" fill="none" />
    </g>
    <g font-family="sans-serif" font-size="11" color-rendering="optimizeQuality" color-interpolation="linearRGB" text-rendering="optimizeLegibility" shape-rendering="geometricPrecision" image-rendering="optimizeQuality" transform="matrix(1,0,0,1,486,16)">
      <text x="0" y="11" xml:space="preserve" stroke="none" clip-path="url(#clipPath4)">system</text>
      <line x1="0" y1="12.5" x2="37.47412109375" y2="12.5" clip-path="url(#clipPath4)" fill="none" />
    </g>
    <g font-family="sans-serif" font-size="11" color-rendering="optimizeQuality" color-interpolation="linearRGB" text-rendering="optimizeLegibility" shape-rendering="geometricPrecision" image-rendering="optimizeQuality" transform="matrix(1,0,0,1,523.4741,16)">
      <text x="0" y="11" xml:space="preserve" stroke="none" clip-path="url(#clipPath5)">:</text>
      <line x1="0" y1="12.5" x2="3.48046875" y2="12.5" clip-path="url(#clipPath5)" fill="none" />
    </g>
    <g font-family="sans-serif" font-size="11" color-rendering="optimizeQuality" color-interpolation="linearRGB" text-rendering="optimizeLegibility" shape-rendering="geometricPrecision" image-rendering="optimizeQuality" transform="matrix(1,0,0,1,526.9546,16)">
      <text x="0" y="11" xml:space="preserve" stroke="none" clip-path="url(#clipPath6)">Scheduler</text>
      <line x1="0" y1="12.5" x2="52.07275390625" y2="12.5" clip-path="url(#clipPath6)" fill="none" />
    </g>
    <g font-family="sans-serif" font-size="11" color-rendering="optimizeQuality" stroke-miterlimit="1" color-interpolation="linearRGB" text-rendering="optimizeLegibility" stroke="white" fill="white" stroke-linecap="butt" shape-rendering="geometricPrecision" image-rendering="optimizeQuality" transform="matrix(1,0,0,1,527.5137,71)">
      <path d="M0.5 0.5 L9.5 0.5 L9.5 229.5 L0.5 229.5 Z" stroke="none" clip-path="url(#clipPath7)" />
      <path d="M0.5 0.5 L9.5 0.5 L9.5 229.5 L0.5 229.5 Z" stroke="black" clip-path="url(#clipPath7)" fill="none" />
    </g>
    <g font-family="sans-serif" font-size="11" color-rendering="optimizeQuality" stroke-miterlimit="1" color-interpolation="linearRGB" text-rendering="optimizeLegibility" stroke="white" fill="white" stroke-linecap="butt" shape-rendering="geometricPrecision" image-rendering="optimizeQuality" transform="matrix(1,0,0,1,10,10)">
      <path d="M79.08495330810547 0.5 L79.08495330810547 290.5" stroke="none" clip-path="url(#clipPath8)" />
      <path d="M79.08495330810547 0.5 L79.08495330810547 290.5" stroke-dasharray="5,5" stroke="black" clip-path="url(#clipPath8)" fill="none" />
      <path d="M0.5 0.5 L156.66990661621094 0.5 L156.66990661621094 25.5 L0.5 25.5 Z" stroke-dasharray="5,5" stroke="none" clip-path="url(#clipPath8)" />
      <path d="M0.5 0.5 L156.66990661621094 0.5 L156.66990661621094 25.5 L0.5 25.5 Z" stroke="black" clip-path="url(#clipPath8)" fill="none" />
    </g>
    <g font-family="sans-serif" font-size="11" color-rendering="optimizeQuality" color-interpolation="linearRGB" text-rendering="optimizeLegibility" shape-rendering="geometricPrecision" image-rendering="optimizeQuality" transform="matrix(1,0,0,1,16,16)">
      <text x="0" y="11" xml:space="preserve" stroke="none" clip-path="url(#clipPath9)">playlistEditor</text>
      <line x1="0" y1="12.5" x2="69.44287109375" y2="12.5" clip-path="url(#clipPath9)" fill="none" />
    </g>
    <g font-family="sans-serif" font-size="11" color-rendering="optimizeQuality" color-interpolation="linearRGB" text-rendering="optimizeLegibility" shape-rendering="geometricPrecision" image-rendering="optimizeQuality" transform="matrix(1,0,0,1,85.4429,16)">
      <text x="0" y="11" xml:space="preserve" stroke="none" clip-path="url(#clipPath10)">:</text>
      <line x1="0" y1="12.5" x2="3.48046875" y2="12.5" clip-path="url(#clipPath10)" fill="none" />
    </g>
    <g font-family="sans-serif" font-size="11" color-rendering="optimizeQuality" color-interpolation="linearRGB" text-rendering="optimizeLegibility" shape-rendering="geometricPrecision" image-rendering="optimizeQuality" transform="matrix(1,0,0,1,88.9233,16)">
      <text x="0" y="11" xml:space="preserve" stroke="none" clip-path="url(#clipPath11)">Playlist editor</text>
      <line x1="0" y1="12.5" x2="72.24658203125" y2="12.5" clip-path="url(#clipPath11)" fill="none" />
    </g>
    <g font-family="sans-serif" font-size="11" color-rendering="optimizeQuality" stroke-miterlimit="1" color-interpolation="linearRGB" text-rendering="optimizeLegibility" stroke-linecap="butt" shape-rendering="geometricPrecision" image-rendering="optimizeQuality" transform="matrix(1,0,0,1,-10,-10)">
      <path d="M98.58499908447266 81 L537.513671875 81" clip-path="url(#clipPath1)" fill="none" />
      <path d="M12 -6 L0 0 L12 6 Z" stroke="none" clip-path="url(#clipPath12)" transform="matrix(-1,-4.163336342344337E-15,4.163336342344337E-15,-1,537.5137,81)" />
      <path d="M12 -6 L0 0 L12 6 Z" stroke-miterlimit="10" clip-path="url(#clipPath12)" fill="none" stroke-linecap="square" transform="matrix(-1,-4.163336342344337E-15,4.163336342344337E-15,-1,537.5137,81)" />
    </g>
    <g font-family="sans-serif" font-size="11" color-rendering="optimizeQuality" color-interpolation="linearRGB" text-rendering="optimizeLegibility" shape-rendering="geometricPrecision" image-rendering="optimizeQuality" transform="matrix(1,0,0,1,199.7984,47)">
      <text x="0" y="11" xml:space="preserve" stroke="none" clip-path="url(#clipPath13)"> </text>
    </g>
    <g font-family="sans-serif" font-size="11" color-rendering="optimizeQuality" color-interpolation="linearRGB" text-rendering="optimizeLegibility" shape-rendering="geometricPrecision" image-rendering="optimizeQuality" transform="matrix(1,0,0,1,205.2789,47)">
      <text x="0" y="11" xml:space="preserve" stroke="none" clip-path="url(#clipPath14)">:</text>
    </g>
    <g font-family="sans-serif" font-size="11" color-rendering="optimizeQuality" color-interpolation="linearRGB" text-rendering="optimizeLegibility" shape-rendering="geometricPrecision" image-rendering="optimizeQuality" transform="matrix(1,0,0,1,210.7593,47)">
      <text x="0" y="11" xml:space="preserve" stroke="none" clip-path="url(#clipPath15)">authenticated</text>
    </g>
    <g font-family="sans-serif" font-size="11" color-rendering="optimizeQuality" color-interpolation="linearRGB" text-rendering="optimizeLegibility" shape-rendering="geometricPrecision" image-rendering="optimizeQuality" transform="matrix(1,0,0,1,283.7256,47)">
      <text x="0" y="11" xml:space="preserve" stroke="none" clip-path="url(#clipPath16)">:=</text>
    </g>
    <g font-family="sans-serif" font-size="11" color-rendering="optimizeQuality" color-interpolation="linearRGB" text-rendering="optimizeLegibility" shape-rendering="geometricPrecision" image-rendering="optimizeQuality" transform="matrix(1,0,0,1,295.9502,47)">
      <text x="0" y="11" xml:space="preserve" stroke="none" clip-path="url(#clipPath17)">authenticate</text>
    </g>
    <g font-family="sans-serif" font-size="11" color-rendering="optimizeQuality" color-interpolation="linearRGB" text-rendering="optimizeLegibility" shape-rendering="geometricPrecision" image-rendering="optimizeQuality" transform="matrix(1,0,0,1,361.9932,47)">
      <text x="0" y="11" xml:space="preserve" stroke="none" clip-path="url(#clipPath18)">(</text>
    </g>
    <g font-family="sans-serif" font-size="11" color-rendering="optimizeQuality" color-interpolation="linearRGB" text-rendering="optimizeLegibility" shape-rendering="geometricPrecision" image-rendering="optimizeQuality" transform="matrix(1,0,0,1,365.5703,47)">
      <text x="0" y="11" xml:space="preserve" stroke="none" clip-path="url(#clipPath19)">authInfo</text>
    </g>
    <g font-family="sans-serif" font-size="11" color-rendering="optimizeQuality" color-interpolation="linearRGB" text-rendering="optimizeLegibility" shape-rendering="geometricPrecision" image-rendering="optimizeQuality" transform="matrix(1,0,0,1,410.2095,47)">
      <text x="0" y="11" xml:space="preserve" stroke="none" clip-path="url(#clipPath20)">)</text>
    </g>
    <g font-family="sans-serif" font-size="11" color-rendering="optimizeQuality" stroke-miterlimit="1" color-interpolation="linearRGB" text-rendering="optimizeLegibility" stroke-linecap="butt" shape-rendering="geometricPrecision" image-rendering="optimizeQuality" transform="matrix(1,0,0,1,-10,-10)">
      <path d="M98.58499908447266 116 L537.513671875 116" clip-path="url(#clipPath1)" fill="none" />
      <path d="M12 -6 L0 0 L12 6 Z" stroke="none" clip-path="url(#clipPath21)" transform="matrix(-1,-5.10702591327572E-15,5.10702591327572E-15,-1,537.5137,116)" />
      <path d="M12 -6 L0 0 L12 6 Z" stroke-miterlimit="10" clip-path="url(#clipPath21)" fill="none" stroke-linecap="square" transform="matrix(-1,-5.10702591327572E-15,5.10702591327572E-15,-1,537.5137,116)" />
    </g>
    <g font-family="sans-serif" font-size="11" color-rendering="optimizeQuality" color-interpolation="linearRGB" text-rendering="optimizeLegibility" shape-rendering="geometricPrecision" image-rendering="optimizeQuality" transform="matrix(1,0,0,1,190.3345,82)">
      <text x="0" y="11" xml:space="preserve" stroke="none" clip-path="url(#clipPath22)"> </text>
    </g>
    <g font-family="sans-serif" font-size="11" color-rendering="optimizeQuality" color-interpolation="linearRGB" text-rendering="optimizeLegibility" shape-rendering="geometricPrecision" image-rendering="optimizeQuality" transform="matrix(1,0,0,1,195.815,82)">
      <text x="0" y="11" xml:space="preserve" stroke="none" clip-path="url(#clipPath23)">:</text>
    </g>
    <g font-family="sans-serif" font-size="11" color-rendering="optimizeQuality" color-interpolation="linearRGB" text-rendering="optimizeLegibility" shape-rendering="geometricPrecision" image-rendering="optimizeQuality" transform="matrix(1,0,0,1,201.2954,82)">
      <text x="0" y="11" xml:space="preserve" stroke="none" clip-path="url(#clipPath24)">schedulEntries</text>
    </g>
    <g font-family="sans-serif" font-size="11" color-rendering="optimizeQuality" color-interpolation="linearRGB" text-rendering="optimizeLegibility" shape-rendering="geometricPrecision" image-rendering="optimizeQuality" transform="matrix(1,0,0,1,278.7412,82)">
      <text x="0" y="11" xml:space="preserve" stroke="none" clip-path="url(#clipPath25)">:=</text>
    </g>
    <g font-family="sans-serif" font-size="11" color-rendering="optimizeQuality" color-interpolation="linearRGB" text-rendering="optimizeLegibility" shape-rendering="geometricPrecision" image-rendering="optimizeQuality" transform="matrix(1,0,0,1,290.9658,82)">
      <text x="0" y="11" xml:space="preserve" stroke="none" clip-path="url(#clipPath26)">displaySchedule</text>
    </g>
    <g font-family="sans-serif" font-size="11" color-rendering="optimizeQuality" color-interpolation="linearRGB" text-rendering="optimizeLegibility" shape-rendering="geometricPrecision" image-rendering="optimizeQuality" transform="matrix(1,0,0,1,376.1728,82)">
      <text x="0" y="11" xml:space="preserve" stroke="none" clip-path="url(#clipPath27)">(</text>
    </g>
    <g font-family="sans-serif" font-size="11" color-rendering="optimizeQuality" color-interpolation="linearRGB" text-rendering="optimizeLegibility" shape-rendering="geometricPrecision" image-rendering="optimizeQuality" transform="matrix(1,0,0,1,379.75,82)">
      <text x="0" y="11" xml:space="preserve" stroke="none" clip-path="url(#clipPath28)">from</text>
    </g>
    <g font-family="sans-serif" font-size="11" color-rendering="optimizeQuality" color-interpolation="linearRGB" text-rendering="optimizeLegibility" shape-rendering="geometricPrecision" image-rendering="optimizeQuality" transform="matrix(1,0,0,1,405.3218,82)">
      <text x="0" y="11" xml:space="preserve" stroke="none" clip-path="url(#clipPath29)">,</text>
    </g>
    <g font-family="sans-serif" font-size="11" color-rendering="optimizeQuality" color-interpolation="linearRGB" text-rendering="optimizeLegibility" shape-rendering="geometricPrecision" image-rendering="optimizeQuality" transform="matrix(1,0,0,1,408.80219999999997,82)">
      <text x="0" y="11" xml:space="preserve" stroke="none" clip-path="url(#clipPath30)">to</text>
    </g>
    <g font-family="sans-serif" font-size="11" color-rendering="optimizeQuality" color-interpolation="linearRGB" text-rendering="optimizeLegibility" shape-rendering="geometricPrecision" image-rendering="optimizeQuality" transform="matrix(1,0,0,1,419.67330000000004,82)">
      <text x="0" y="11" xml:space="preserve" stroke="none" clip-path="url(#clipPath31)">)</text>
    </g>
    <g font-family="sans-serif" font-size="11" color-rendering="optimizeQuality" stroke-miterlimit="1" color-interpolation="linearRGB" text-rendering="optimizeLegibility" stroke-linecap="butt" shape-rendering="geometricPrecision" image-rendering="optimizeQuality" transform="matrix(1,0,0,1,-10,-10)">
      <path d="M98.58499908447266 151 L537.513671875 151" clip-path="url(#clipPath1)" fill="none" />
      <path d="M12 -6 L0 0 L12 6 Z" stroke="none" clip-path="url(#clipPath32)" transform="matrix(-1,-1.1102230246251565E-16,1.1102230246251565E-16,-1,537.5137,151)" />
      <path d="M12 -6 L0 0 L12 6 Z" stroke-miterlimit="10" clip-path="url(#clipPath32)" fill="none" stroke-linecap="square" transform="matrix(-1,-1.1102230246251565E-16,1.1102230246251565E-16,-1,537.5137,151)" />
    </g>
    <g font-family="sans-serif" font-size="11" color-rendering="optimizeQuality" color-interpolation="linearRGB" text-rendering="optimizeLegibility" shape-rendering="geometricPrecision" image-rendering="optimizeQuality" transform="matrix(1,0,0,1,211.1717,117)">
      <text x="0" y="11" xml:space="preserve" stroke="none" clip-path="url(#clipPath33)"> </text>
    </g>
    <g font-family="sans-serif" font-size="11" color-rendering="optimizeQuality" color-interpolation="linearRGB" text-rendering="optimizeLegibility" shape-rendering="geometricPrecision" image-rendering="optimizeQuality" transform="matrix(1,0,0,1,216.6522,117)">
      <text x="0" y="11" xml:space="preserve" stroke="none" clip-path="url(#clipPath34)">:</text>
    </g>
    <g font-family="sans-serif" font-size="11" color-rendering="optimizeQuality" color-interpolation="linearRGB" text-rendering="optimizeLegibility" shape-rendering="geometricPrecision" image-rendering="optimizeQuality" transform="matrix(1,0,0,1,222.1326,117)">
      <text x="0" y="11" xml:space="preserve" stroke="none" clip-path="url(#clipPath35)">playlist</text>
    </g>
    <g font-family="sans-serif" font-size="11" color-rendering="optimizeQuality" color-interpolation="linearRGB" text-rendering="optimizeLegibility" shape-rendering="geometricPrecision" image-rendering="optimizeQuality" transform="matrix(1,0,0,1,260.1385,117)">
      <text x="0" y="11" xml:space="preserve" stroke="none" clip-path="url(#clipPath36)">:=</text>
    </g>
    <g font-family="sans-serif" font-size="11" color-rendering="optimizeQuality" color-interpolation="linearRGB" text-rendering="optimizeLegibility" shape-rendering="geometricPrecision" image-rendering="optimizeQuality" transform="matrix(1,0,0,1,272.3631,117)">
      <text x="0" y="11" xml:space="preserve" stroke="none" clip-path="url(#clipPath37)">displayPlaylist</text>
    </g>
    <g font-family="sans-serif" font-size="11" color-rendering="optimizeQuality" color-interpolation="linearRGB" text-rendering="optimizeLegibility" shape-rendering="geometricPrecision" image-rendering="optimizeQuality" transform="matrix(1,0,0,1,347.16089999999997,117)">
      <text x="0" y="11" xml:space="preserve" stroke="none" clip-path="url(#clipPath38)">(</text>
    </g>
    <g font-family="sans-serif" font-size="11" color-rendering="optimizeQuality" color-interpolation="linearRGB" text-rendering="optimizeLegibility" shape-rendering="geometricPrecision" image-rendering="optimizeQuality" transform="matrix(1,0,0,1,350.73810000000003,117)">
      <text x="0" y="11" xml:space="preserve" stroke="none" clip-path="url(#clipPath39)">playlistId</text>
    </g>
    <g font-family="sans-serif" font-size="11" color-rendering="optimizeQuality" color-interpolation="linearRGB" text-rendering="optimizeLegibility" shape-rendering="geometricPrecision" image-rendering="optimizeQuality" transform="matrix(1,0,0,1,398.83619999999996,117)">
      <text x="0" y="11" xml:space="preserve" stroke="none" clip-path="url(#clipPath40)">)</text>
    </g>
    <g font-family="sans-serif" font-size="11" color-rendering="optimizeQuality" stroke-miterlimit="1" color-interpolation="linearRGB" text-rendering="optimizeLegibility" stroke-linecap="butt" shape-rendering="geometricPrecision" image-rendering="optimizeQuality" transform="matrix(1,0,0,1,-10,-10)">
      <path d="M98.58499908447266 186 L537.513671875 186" clip-path="url(#clipPath1)" fill="none" />
      <path d="M12 -6 L0 0 L12 6 Z" stroke="none" clip-path="url(#clipPath41)" transform="matrix(-1,1.1879386363489175E-14,-1.1879386363489175E-14,-1,537.5137,186)" />
      <path d="M12 -6 L0 0 L12 6 Z" stroke-miterlimit="10" clip-path="url(#clipPath41)" fill="none" stroke-linecap="square" transform="matrix(-1,1.1879386363489175E-14,-1.1879386363489175E-14,-1,537.5137,186)" />
    </g>
    <g font-family="sans-serif" font-size="11" color-rendering="optimizeQuality" color-interpolation="linearRGB" text-rendering="optimizeLegibility" shape-rendering="geometricPrecision" image-rendering="optimizeQuality" transform="matrix(1,0,0,1,182.5518,152)">
      <text x="0" y="11" xml:space="preserve" stroke="none" clip-path="url(#clipPath42)"> </text>
    </g>
    <g font-family="sans-serif" font-size="11" color-rendering="optimizeQuality" color-interpolation="linearRGB" text-rendering="optimizeLegibility" shape-rendering="geometricPrecision" image-rendering="optimizeQuality" transform="matrix(1,0,0,1,188.0323,152)">
      <text x="0" y="11" xml:space="preserve" stroke="none" clip-path="url(#clipPath43)">:</text>
    </g>
    <g font-family="sans-serif" font-size="11" color-rendering="optimizeQuality" color-interpolation="linearRGB" text-rendering="optimizeLegibility" shape-rendering="geometricPrecision" image-rendering="optimizeQuality" transform="matrix(1,0,0,1,193.5127,152)">
      <text x="0" y="11" xml:space="preserve" stroke="none" clip-path="url(#clipPath44)">removeFromSchedule</text>
    </g>
    <g font-family="sans-serif" font-size="11" color-rendering="optimizeQuality" color-interpolation="linearRGB" text-rendering="optimizeLegibility" shape-rendering="geometricPrecision" image-rendering="optimizeQuality" transform="matrix(1,0,0,1,307.9868,152)">
      <text x="0" y="11" xml:space="preserve" stroke="none" clip-path="url(#clipPath45)">(</text>
    </g>
    <g font-family="sans-serif" font-size="11" color-rendering="optimizeQuality" color-interpolation="linearRGB" text-rendering="optimizeLegibility" shape-rendering="geometricPrecision" image-rendering="optimizeQuality" transform="matrix(1,0,0,1,311.56399999999996,152)">
      <text x="0" y="11" xml:space="preserve" stroke="none" clip-path="url(#clipPath46)">scheduleEntry</text>
    </g>
    <g font-family="sans-serif" font-size="11" color-rendering="optimizeQuality" color-interpolation="linearRGB" text-rendering="optimizeLegibility" shape-rendering="geometricPrecision" image-rendering="optimizeQuality" transform="matrix(1,0,0,1,385.9697,152)">
      <text x="0" y="11" xml:space="preserve" stroke="none" clip-path="url(#clipPath47)">,</text>
    </g>
    <g font-family="sans-serif" font-size="11" color-rendering="optimizeQuality" color-interpolation="linearRGB" text-rendering="optimizeLegibility" shape-rendering="geometricPrecision" image-rendering="optimizeQuality" transform="matrix(1,0,0,1,389.4502,152)">
      <text x="0" y="11" xml:space="preserve" stroke="none" clip-path="url(#clipPath48)">playlist</text>
    </g>
    <g font-family="sans-serif" font-size="11" color-rendering="optimizeQuality" color-interpolation="linearRGB" text-rendering="optimizeLegibility" shape-rendering="geometricPrecision" image-rendering="optimizeQuality" transform="matrix(1,0,0,1,427.4561,152)">
      <text x="0" y="11" xml:space="preserve" stroke="none" clip-path="url(#clipPath49)">)</text>
    </g>
    <g font-family="sans-serif" font-size="11" color-rendering="optimizeQuality" stroke-miterlimit="1" color-interpolation="linearRGB" text-rendering="optimizeLegibility" stroke-linecap="butt" shape-rendering="geometricPrecision" image-rendering="optimizeQuality" transform="matrix(1,0,0,1,-10,-10)">
      <path d="M98.58499908447266 221 L537.513671875 221" clip-path="url(#clipPath1)" fill="none" />
      <path d="M12 -6 L0 0 L12 6 Z" stroke="none" clip-path="url(#clipPath50)" transform="matrix(-1,-9.048317650695026E-15,9.048317650695026E-15,-1,537.5137,221)" />
      <path d="M12 -6 L0 0 L12 6 Z" stroke-miterlimit="10" clip-path="url(#clipPath50)" fill="none" stroke-linecap="square" transform="matrix(-1,-9.048317650695026E-15,9.048317650695026E-15,-1,537.5137,221)" />
    </g>
    <g font-family="sans-serif" font-size="11" color-rendering="optimizeQuality" color-interpolation="linearRGB" text-rendering="optimizeLegibility" shape-rendering="geometricPrecision" image-rendering="optimizeQuality" transform="matrix(1,0,0,1,176.0044,187)">
      <text x="0" y="11" xml:space="preserve" stroke="none" clip-path="url(#clipPath51)"> </text>
    </g>
    <g font-family="sans-serif" font-size="11" color-rendering="optimizeQuality" color-interpolation="linearRGB" text-rendering="optimizeLegibility" shape-rendering="geometricPrecision" image-rendering="optimizeQuality" transform="matrix(1,0,0,1,181.4849,187)">
      <text x="0" y="11" xml:space="preserve" stroke="none" clip-path="url(#clipPath52)">:</text>
    </g>
    <g font-family="sans-serif" font-size="11" color-rendering="optimizeQuality" color-interpolation="linearRGB" text-rendering="optimizeLegibility" shape-rendering="geometricPrecision" image-rendering="optimizeQuality" transform="matrix(1,0,0,1,186.9653,187)">
      <text x="0" y="11" xml:space="preserve" stroke="none" clip-path="url(#clipPath53)">reschedule</text>
    </g>
    <g font-family="sans-serif" font-size="11" color-rendering="optimizeQuality" color-interpolation="linearRGB" text-rendering="optimizeLegibility" shape-rendering="geometricPrecision" image-rendering="optimizeQuality" transform="matrix(1,0,0,1,244.8496,187)">
      <text x="0" y="11" xml:space="preserve" stroke="none" clip-path="url(#clipPath54)">(</text>
    </g>
    <g font-family="sans-serif" font-size="11" color-rendering="optimizeQuality" color-interpolation="linearRGB" text-rendering="optimizeLegibility" shape-rendering="geometricPrecision" image-rendering="optimizeQuality" transform="matrix(1,0,0,1,248.4267,187)">
      <text x="0" y="11" xml:space="preserve" stroke="none" clip-path="url(#clipPath55)">scheduleEntry</text>
    </g>
    <g font-family="sans-serif" font-size="11" color-rendering="optimizeQuality" color-interpolation="linearRGB" text-rendering="optimizeLegibility" shape-rendering="geometricPrecision" image-rendering="optimizeQuality" transform="matrix(1,0,0,1,322.8325,187)">
      <text x="0" y="11" xml:space="preserve" stroke="none" clip-path="url(#clipPath56)">,</text>
    </g>
    <g font-family="sans-serif" font-size="11" color-rendering="optimizeQuality" color-interpolation="linearRGB" text-rendering="optimizeLegibility" shape-rendering="geometricPrecision" image-rendering="optimizeQuality" transform="matrix(1,0,0,1,326.313,187)">
      <text x="0" y="11" xml:space="preserve" stroke="none" clip-path="url(#clipPath57)">playlist</text>
    </g>
    <g font-family="sans-serif" font-size="11" color-rendering="optimizeQuality" color-interpolation="linearRGB" text-rendering="optimizeLegibility" shape-rendering="geometricPrecision" image-rendering="optimizeQuality" transform="matrix(1,0,0,1,364.3188,187)">
      <text x="0" y="11" xml:space="preserve" stroke="none" clip-path="url(#clipPath58)">,</text>
    </g>
    <g font-family="sans-serif" font-size="11" color-rendering="optimizeQuality" color-interpolation="linearRGB" text-rendering="optimizeLegibility" shape-rendering="geometricPrecision" image-rendering="optimizeQuality" transform="matrix(1,0,0,1,367.7993,187)">
      <text x="0" y="11" xml:space="preserve" stroke="none" clip-path="url(#clipPath59)">newPlaytime</text>
    </g>
    <g font-family="sans-serif" font-size="11" color-rendering="optimizeQuality" color-interpolation="linearRGB" text-rendering="optimizeLegibility" shape-rendering="geometricPrecision" image-rendering="optimizeQuality" transform="matrix(1,0,0,1,434.0034,187)">
      <text x="0" y="11" xml:space="preserve" stroke="none" clip-path="url(#clipPath60)">)</text>
    </g>
    <g font-family="sans-serif" font-size="11" color-rendering="optimizeQuality" stroke-miterlimit="1" color-interpolation="linearRGB" text-rendering="optimizeLegibility" stroke-linecap="butt" shape-rendering="geometricPrecision" image-rendering="optimizeQuality" transform="matrix(1,0,0,1,-10,-10)">
      <path d="M98.58499908447266 256 L537.513671875 256" clip-path="url(#clipPath1)" fill="none" />
      <path d="M12 -6 L0 0 L12 6 Z" stroke="none" clip-path="url(#clipPath61)" transform="matrix(-1,1.1268763699945339E-14,-1.1268763699945339E-14,-1,537.5137,256)" />
      <path d="M12 -6 L0 0 L12 6 Z" stroke-miterlimit="10" clip-path="url(#clipPath61)" fill="none" stroke-linecap="square" transform="matrix(-1,1.1268763699945339E-14,-1.1268763699945339E-14,-1,537.5137,256)" />
    </g>
    <g font-family="sans-serif" font-size="11" color-rendering="optimizeQuality" color-interpolation="linearRGB" text-rendering="optimizeLegibility" shape-rendering="geometricPrecision" image-rendering="optimizeQuality" transform="matrix(1,0,0,1,187.2703,222)">
      <text x="0" y="11" xml:space="preserve" stroke="none" clip-path="url(#clipPath62)"> </text>
    </g>
    <g font-family="sans-serif" font-size="11" color-rendering="optimizeQuality" color-interpolation="linearRGB" text-rendering="optimizeLegibility" shape-rendering="geometricPrecision" image-rendering="optimizeQuality" transform="matrix(1,0,0,1,192.7508,222)">
      <text x="0" y="11" xml:space="preserve" stroke="none" clip-path="url(#clipPath63)">:</text>
    </g>
    <g font-family="sans-serif" font-size="11" color-rendering="optimizeQuality" color-interpolation="linearRGB" text-rendering="optimizeLegibility" shape-rendering="geometricPrecision" image-rendering="optimizeQuality" transform="matrix(1,0,0,1,198.2312,222)">
      <text x="0" y="11" xml:space="preserve" stroke="none" clip-path="url(#clipPath64)">scheduleEntries</text>
    </g>
    <g font-family="sans-serif" font-size="11" color-rendering="optimizeQuality" color-interpolation="linearRGB" text-rendering="optimizeLegibility" shape-rendering="geometricPrecision" image-rendering="optimizeQuality" transform="matrix(1,0,0,1,281.8054,222)">
      <text x="0" y="11" xml:space="preserve" stroke="none" clip-path="url(#clipPath65)">:=</text>
    </g>
    <g font-family="sans-serif" font-size="11" color-rendering="optimizeQuality" color-interpolation="linearRGB" text-rendering="optimizeLegibility" shape-rendering="geometricPrecision" image-rendering="optimizeQuality" transform="matrix(1,0,0,1,294.03,222)">
      <text x="0" y="11" xml:space="preserve" stroke="none" clip-path="url(#clipPath66)">displaySchedule</text>
    </g>
    <g font-family="sans-serif" font-size="11" color-rendering="optimizeQuality" color-interpolation="linearRGB" text-rendering="optimizeLegibility" shape-rendering="geometricPrecision" image-rendering="optimizeQuality" transform="matrix(1,0,0,1,379.2371,222)">
      <text x="0" y="11" xml:space="preserve" stroke="none" clip-path="url(#clipPath67)">(</text>
    </g>
    <g font-family="sans-serif" font-size="11" color-rendering="optimizeQuality" color-interpolation="linearRGB" text-rendering="optimizeLegibility" shape-rendering="geometricPrecision" image-rendering="optimizeQuality" transform="matrix(1,0,0,1,382.8142,222)">
      <text x="0" y="11" xml:space="preserve" stroke="none" clip-path="url(#clipPath68)">from</text>
    </g>
    <g font-family="sans-serif" font-size="11" color-rendering="optimizeQuality" color-interpolation="linearRGB" text-rendering="optimizeLegibility" shape-rendering="geometricPrecision" image-rendering="optimizeQuality" transform="matrix(1,0,0,1,408.38599999999997,222)">
      <text x="0" y="11" xml:space="preserve" stroke="none" clip-path="url(#clipPath69)">,</text>
    </g>
    <g font-family="sans-serif" font-size="11" color-rendering="optimizeQuality" color-interpolation="linearRGB" text-rendering="optimizeLegibility" shape-rendering="geometricPrecision" image-rendering="optimizeQuality" transform="matrix(1,0,0,1,411.8665,222)">
      <text x="0" y="11" xml:space="preserve" stroke="none" clip-path="url(#clipPath70)">to</text>
    </g>
    <g font-family="sans-serif" font-size="11" color-rendering="optimizeQuality" color-interpolation="linearRGB" text-rendering="optimizeLegibility" shape-rendering="geometricPrecision" image-rendering="optimizeQuality" transform="matrix(1,0,0,1,422.7375,222)">
      <text x="0" y="11" xml:space="preserve" stroke="none" clip-path="url(#clipPath71)">)</text>
    </g>
  </g>
</svg>
