<?xml version="1.0" encoding="UTF-8"?>

<!DOCTYPE svg PUBLIC '-//W3C//DTD SVG 1.0//EN' 'http://www.w3.org/TR/2001/REC-SVG-20010904/DTD/svg10.dtd'>
<svg color-interpolation="auto" color-rendering="auto" fill="black" fill-opacity="1" font-family="&apos;Dialog&apos;" font-size="12" font-style="normal" font-weight="normal" image-rendering="auto" shape-rendering="auto" stroke="black" stroke-dasharray="none" stroke-dashoffset="0" stroke-linecap="square" stroke-linejoin="miter" stroke-miterlimit="10" stroke-opacity="1" stroke-width="1" text-rendering="auto" xmlns="http://www.w3.org/2000/svg" xmlns:xlink="http://www.w3.org/1999/xlink">
  <!--Generated by the Batik Graphics2D SVG Generator-->
  <defs id="genericDefs" />
  <g>
    <defs id="defs1">
      <clipPath clipPathUnits="userSpaceOnUse" id="clipPath1">
        <path d="M-51 10 L-51 171 L554 171 L554 10 Z" />
      </clipPath>
      <clipPath clipPathUnits="userSpaceOnUse" id="clipPath2">
        <path d="M0 0 L0 161 L605 161 L605 0 Z" />
      </clipPath>
      <clipPath clipPathUnits="userSpaceOnUse" id="clipPath3">
        <path d="M-71 -10 L-71 151 L534 151 L534 -10 Z" />
      </clipPath>
      <clipPath clipPathUnits="userSpaceOnUse" id="clipPath4">
        <path d="M-12.706500053405762 -42 L-12.706500053405762 119 L592.2935180664062 119 L592.2935180664062 -42 Z" />
      </clipPath>
      <clipPath clipPathUnits="userSpaceOnUse" id="clipPath5">
        <path d="M-78.50240325927734 -42 L-78.50240325927734 119 L526.4976196289062 119 L526.4976196289062 -42 Z" />
      </clipPath>
      <clipPath clipPathUnits="userSpaceOnUse" id="clipPath6">
        <path d="M-81.98290252685547 -42 L-81.98290252685547 119 L523.01708984375 119 L523.01708984375 -42 Z" />
      </clipPath>
      <clipPath clipPathUnits="userSpaceOnUse" id="clipPath7">
        <path d="M-471 -10 L-471 151 L134 151 L134 -10 Z" />
      </clipPath>
      <clipPath clipPathUnits="userSpaceOnUse" id="clipPath8">
        <path d="M-477 -16 L-477 145 L128 145 L128 -16 Z" />
      </clipPath>
      <clipPath clipPathUnits="userSpaceOnUse" id="clipPath9">
        <path d="M-514.47412109375 -16 L-514.47412109375 145 L90.52587890625 145 L90.52587890625 -16 Z" />
      </clipPath>
      <clipPath clipPathUnits="userSpaceOnUse" id="clipPath10">
        <path d="M-517.95458984375 -16 L-517.95458984375 145 L87.04541015625 145 L87.04541015625 -16 Z" />
      </clipPath>
      <clipPath clipPathUnits="userSpaceOnUse" id="clipPath11">
        <path d="M-527.9937133789062 -71 L-527.9937133789062 90 L77.00630187988281 90 L77.00630187988281 -71 Z" />
      </clipPath>
      <clipPath clipPathUnits="userSpaceOnUse" id="clipPath12">
        <path d="M-280.9809875488281 -115 L-280.9809875488281 46 L324.0190124511719 46 L324.0190124511719 -115 Z" />
      </clipPath>
      <clipPath clipPathUnits="userSpaceOnUse" id="clipPath13">
        <path d="M-286.46148681640625 -115 L-286.46148681640625 46 L318.53851318359375 46 L318.53851318359375 -115 Z" />
      </clipPath>
      <clipPath clipPathUnits="userSpaceOnUse" id="clipPath14">
        <path d="M-291.94189453125 -115 L-291.94189453125 46 L313.05810546875 46 L313.05810546875 -115 Z" />
      </clipPath>
      <clipPath clipPathUnits="userSpaceOnUse" id="clipPath15">
        <path d="M-366.8525085449219 -115 L-366.8525085449219 46 L238.1475067138672 46 L238.1475067138672 -115 Z" />
      </clipPath>
      <clipPath clipPathUnits="userSpaceOnUse" id="clipPath16">
        <path d="M-370.4296875 -115 L-370.4296875 46 L234.57029724121094 46 L234.57029724121094 -115 Z" />
      </clipPath>
      <clipPath clipPathUnits="userSpaceOnUse" id="clipPath17">
        <path d="M-408.43560791015625 -115 L-408.43560791015625 46 L196.5644073486328 46 L196.5644073486328 -115 Z" />
      </clipPath>
      <clipPath clipPathUnits="userSpaceOnUse" id="clipPath18">
        <path d="M527.9937133789062 141 L527.9937133789062 -20 L-77.00630187988281 -20 L-77.00630187988281 141 Z" />
      </clipPath>
      <clipPath clipPathUnits="userSpaceOnUse" id="clipPath19">
        <path d="M-250.35040283203125 -82 L-250.35040283203125 79 L354.64959716796875 79 L354.64959716796875 -82 Z" />
      </clipPath>
      <clipPath clipPathUnits="userSpaceOnUse" id="clipPath20">
        <path d="M-255.83090209960938 -82 L-255.83090209960938 79 L349.1690979003906 79 L349.1690979003906 -82 Z" />
      </clipPath>
      <clipPath clipPathUnits="userSpaceOnUse" id="clipPath21">
        <path d="M-261.3113098144531 -82 L-261.3113098144531 79 L343.6886901855469 79 L343.6886901855469 -82 Z" />
      </clipPath>
      <clipPath clipPathUnits="userSpaceOnUse" id="clipPath22">
        <path d="M-299.31719970703125 -82 L-299.31719970703125 79 L305.68280029296875 79 L305.68280029296875 -82 Z" />
      </clipPath>
      <clipPath clipPathUnits="userSpaceOnUse" id="clipPath23">
        <path d="M-311.54180908203125 -82 L-311.54180908203125 79 L293.45819091796875 79 L293.45819091796875 -82 Z" />
      </clipPath>
      <clipPath clipPathUnits="userSpaceOnUse" id="clipPath24">
        <path d="M-383.3908996582031 -82 L-383.3908996582031 79 L221.60910034179688 79 L221.60910034179688 -82 Z" />
      </clipPath>
      <clipPath clipPathUnits="userSpaceOnUse" id="clipPath25">
        <path d="M-386.9679870605469 -82 L-386.9679870605469 79 L218.03199768066406 79 L218.03199768066406 -82 Z" />
      </clipPath>
      <clipPath clipPathUnits="userSpaceOnUse" id="clipPath26">
        <path d="M-435.0661926269531 -82 L-435.0661926269531 79 L169.93380737304688 79 L169.93380737304688 -82 Z" />
      </clipPath>
      <clipPath clipPathUnits="userSpaceOnUse" id="clipPath27">
        <path d="M527.9937133789062 106 L527.9937133789062 -55 L-77.00630187988281 -55 L-77.00630187988281 106 Z" />
      </clipPath>
      <clipPath clipPathUnits="userSpaceOnUse" id="clipPath28">
        <path d="M-230.49740600585938 -47 L-230.49740600585938 114 L374.5025939941406 114 L374.5025939941406 -47 Z" />
      </clipPath>
      <clipPath clipPathUnits="userSpaceOnUse" id="clipPath29">
        <path d="M-235.9779052734375 -47 L-235.9779052734375 114 L369.0220947265625 114 L369.0220947265625 -47 Z" />
      </clipPath>
      <clipPath clipPathUnits="userSpaceOnUse" id="clipPath30">
        <path d="M-241.4582977294922 -47 L-241.4582977294922 114 L363.54168701171875 114 L363.54168701171875 -47 Z" />
      </clipPath>
      <clipPath clipPathUnits="userSpaceOnUse" id="clipPath31">
        <path d="M-314.4245910644531 -47 L-314.4245910644531 114 L290.5754089355469 114 L290.5754089355469 -47 Z" />
      </clipPath>
      <clipPath clipPathUnits="userSpaceOnUse" id="clipPath32">
        <path d="M-326.6492004394531 -47 L-326.6492004394531 114 L278.3507995605469 114 L278.3507995605469 -47 Z" />
      </clipPath>
      <clipPath clipPathUnits="userSpaceOnUse" id="clipPath33">
        <path d="M-392.69219970703125 -47 L-392.69219970703125 114 L212.30780029296875 114 L212.30780029296875 -47 Z" />
      </clipPath>
      <clipPath clipPathUnits="userSpaceOnUse" id="clipPath34">
        <path d="M-396.269287109375 -47 L-396.269287109375 114 L208.73069763183594 114 L208.73069763183594 -47 Z" />
      </clipPath>
      <clipPath clipPathUnits="userSpaceOnUse" id="clipPath35">
        <path d="M-440.919189453125 -47 L-440.919189453125 114 L164.08079528808594 114 L164.08079528808594 -47 Z" />
      </clipPath>
      <clipPath clipPathUnits="userSpaceOnUse" id="clipPath36">
        <path d="M527.9937133789062 71 L527.9937133789062 -90 L-77.00630187988281 -90 L-77.00630187988281 71 Z" />
      </clipPath>
    </defs>
    <g color-interpolation="linearRGB" color-rendering="optimizeQuality" image-rendering="optimizeQuality" shape-rendering="geometricPrecision" stroke-dasharray="5,5" stroke-linecap="butt" stroke-miterlimit="1" text-rendering="optimizeLegibility" transform="matrix(1,0,0,1,71,10)">
      <path clip-path="url(#clipPath3)" d="M10.5 48.5 L10.5 140.5" fill="none" />
    </g>
    <g color-interpolation="linearRGB" color-rendering="optimizeQuality" fill="white" image-rendering="optimizeQuality" shape-rendering="geometricPrecision" stroke="white" text-rendering="optimizeLegibility" transform="matrix(1,0,0,1,71,10)">
      <path clip-path="url(#clipPath3)" d="M10 8 C5 8 5 0 10 0 C15 0 15 8 10 8 M10 8 L10 10 M0 10 L20 10 M10 10 L10 20 M10 20 L0 30 M10 20 L20 30" stroke="none" />
    </g>
    <g color-interpolation="linearRGB" color-rendering="optimizeQuality" image-rendering="optimizeQuality" shape-rendering="geometricPrecision" stroke-linecap="butt" stroke-miterlimit="1" text-rendering="optimizeLegibility" transform="matrix(1,0,0,1,71,10)">
      <path clip-path="url(#clipPath3)" d="M10 8 C5 8 5 0 10 0 C15 0 15 8 10 8 M10 8 L10 10 M0 10 L20 10 M10 10 L10 20 M10 20 L0 30 M10 20 L20 30" fill="none" />
    </g>
    <g color-interpolation="linearRGB" color-rendering="optimizeQuality" font-family="sans-serif" font-size="11" image-rendering="optimizeQuality" shape-rendering="geometricPrecision" text-rendering="optimizeLegibility" transform="matrix(1,0,0,1,12.706499999999998,42)">
      <text clip-path="url(#clipPath4)" stroke="none" x="0" xml:space="preserve" y="11">audio player</text>
      <line clip-path="url(#clipPath4)" fill="none" x1="0" x2="65.7958984375" y1="12.5" y2="12.5" />
    </g>
    <g color-interpolation="linearRGB" color-rendering="optimizeQuality" font-family="sans-serif" font-size="11" image-rendering="optimizeQuality" shape-rendering="geometricPrecision" text-rendering="optimizeLegibility" transform="matrix(1,0,0,1,78.5024,42)">
      <text clip-path="url(#clipPath5)" stroke="none" x="0" xml:space="preserve" y="11">:</text>
      <line clip-path="url(#clipPath5)" fill="none" x1="0" x2="3.48046875" y1="12.5" y2="12.5" />
    </g>
    <g color-interpolation="linearRGB" color-rendering="optimizeQuality" font-family="sans-serif" font-size="11" image-rendering="optimizeQuality" shape-rendering="geometricPrecision" text-rendering="optimizeLegibility" transform="matrix(1,0,0,1,81.9829,42)">
      <text clip-path="url(#clipPath6)" stroke="none" x="0" xml:space="preserve" y="11">Audio player</text>
      <line clip-path="url(#clipPath6)" fill="none" x1="0" x2="67.310546875" y1="12.5" y2="12.5" />
    </g>
    <g color-interpolation="linearRGB" color-rendering="optimizeQuality" fill="white" font-family="sans-serif" font-size="11" image-rendering="optimizeQuality" shape-rendering="geometricPrecision" stroke="white" text-rendering="optimizeLegibility" transform="matrix(1,0,0,1,471,10)">
      <path clip-path="url(#clipPath7)" d="M62.493648529052734 0.5 L62.493648529052734 140.5" stroke="none" />
    </g>
    <g color-interpolation="linearRGB" color-rendering="optimizeQuality" font-family="sans-serif" font-size="11" image-rendering="optimizeQuality" shape-rendering="geometricPrecision" stroke-dasharray="5,5" stroke-linecap="butt" stroke-miterlimit="1" text-rendering="optimizeLegibility" transform="matrix(1,0,0,1,471,10)">
      <path clip-path="url(#clipPath7)" d="M62.493648529052734 0.5 L62.493648529052734 140.5" fill="none" />
    </g>
    <g color-interpolation="linearRGB" color-rendering="optimizeQuality" fill="white" font-family="sans-serif" font-size="11" image-rendering="optimizeQuality" shape-rendering="geometricPrecision" stroke="white" text-rendering="optimizeLegibility" transform="matrix(1,0,0,1,471,10)">
      <path clip-path="url(#clipPath7)" d="M0.5 0.5 L123.48729705810547 0.5 L123.48729705810547 25.5 L0.5 25.5 Z" stroke="none" />
    </g>
    <g color-interpolation="linearRGB" color-rendering="optimizeQuality" font-family="sans-serif" font-size="11" image-rendering="optimizeQuality" shape-rendering="geometricPrecision" stroke-linecap="butt" stroke-miterlimit="1" text-rendering="optimizeLegibility" transform="matrix(1,0,0,1,471,10)">
      <path clip-path="url(#clipPath7)" d="M0.5 0.5 L123.48729705810547 0.5 L123.48729705810547 25.5 L0.5 25.5 Z" fill="none" />
      <text clip-path="url(#clipPath8)" stroke="none" stroke-linecap="square" stroke-miterlimit="10" transform="matrix(1,0,0,1,6,6)" x="0" xml:space="preserve" y="11">system</text>
      <line clip-path="url(#clipPath8)" fill="none" stroke-linecap="square" stroke-miterlimit="10" transform="matrix(1,0,0,1,6,6)" x1="0" x2="37.47412109375" y1="12.5" y2="12.5" />
    </g>
    <g color-interpolation="linearRGB" color-rendering="optimizeQuality" font-family="sans-serif" font-size="11" image-rendering="optimizeQuality" shape-rendering="geometricPrecision" text-rendering="optimizeLegibility" transform="matrix(1,0,0,1,514.47412109375,16)">
      <text clip-path="url(#clipPath9)" stroke="none" x="0" xml:space="preserve" y="11">:</text>
      <line clip-path="url(#clipPath9)" fill="none" x1="0" x2="3.48046875" y1="12.5" y2="12.5" />
    </g>
    <g color-interpolation="linearRGB" color-rendering="optimizeQuality" font-family="sans-serif" font-size="11" image-rendering="optimizeQuality" shape-rendering="geometricPrecision" text-rendering="optimizeLegibility" transform="matrix(1,0,0,1,517.95458984375,16)">
      <text clip-path="url(#clipPath10)" stroke="none" x="0" xml:space="preserve" y="11">Local storage</text>
      <line clip-path="url(#clipPath10)" fill="none" x1="0" x2="71.03271484375" y1="12.5" y2="12.5" />
    </g>
    <g color-interpolation="linearRGB" color-rendering="optimizeQuality" fill="white" font-family="sans-serif" font-size="11" image-rendering="optimizeQuality" shape-rendering="geometricPrecision" stroke="white" text-rendering="optimizeLegibility" transform="matrix(1,0,0,1,527.9937,71)">
      <path clip-path="url(#clipPath11)" d="M0.5 0.5 L9.5 0.5 L9.5 79.5 L0.5 79.5 Z" stroke="none" />
    </g>
    <g color-interpolation="linearRGB" color-rendering="optimizeQuality" font-family="sans-serif" font-size="11" image-rendering="optimizeQuality" shape-rendering="geometricPrecision" stroke-linecap="butt" stroke-miterlimit="1" text-rendering="optimizeLegibility" transform="matrix(1,0,0,1,527.9937,71)">
      <path clip-path="url(#clipPath11)" d="M0.5 0.5 L9.5 0.5 L9.5 79.5 L0.5 79.5 Z" fill="none" />
    </g>
    <g color-interpolation="linearRGB" color-rendering="optimizeQuality" font-family="sans-serif" font-size="11" image-rendering="optimizeQuality" shape-rendering="geometricPrecision" stroke-linecap="butt" stroke-miterlimit="1" text-rendering="optimizeLegibility" transform="matrix(1,0,0,1,51,-10)">
      <path clip-path="url(#clipPath1)" d="M476.99371337890625 151 L30 151" fill="none" />
      <text clip-path="url(#clipPath12)" stroke="none" stroke-linecap="square" stroke-miterlimit="10" transform="matrix(1,0,0,1,229.981,125)" x="0" xml:space="preserve" y="11"> </text>
    </g>
    <g color-interpolation="linearRGB" color-rendering="optimizeQuality" font-family="sans-serif" font-size="11" image-rendering="optimizeQuality" shape-rendering="geometricPrecision" text-rendering="optimizeLegibility" transform="matrix(1,0,0,1,286.4615,115)">
      <text clip-path="url(#clipPath13)" stroke="none" x="0" xml:space="preserve" y="11">:</text>
    </g>
    <g color-interpolation="linearRGB" color-rendering="optimizeQuality" font-family="sans-serif" font-size="11" image-rendering="optimizeQuality" shape-rendering="geometricPrecision" text-rendering="optimizeLegibility" transform="matrix(1,0,0,1,291.9419,115)">
      <text clip-path="url(#clipPath14)" stroke="none" x="0" xml:space="preserve" y="11">releasePlaylist</text>
    </g>
    <g color-interpolation="linearRGB" color-rendering="optimizeQuality" font-family="sans-serif" font-size="11" image-rendering="optimizeQuality" shape-rendering="geometricPrecision" text-rendering="optimizeLegibility" transform="matrix(1,0,0,1,366.85249999999996,115)">
      <text clip-path="url(#clipPath15)" stroke="none" x="0" xml:space="preserve" y="11">(</text>
    </g>
    <g color-interpolation="linearRGB" color-rendering="optimizeQuality" font-family="sans-serif" font-size="11" image-rendering="optimizeQuality" shape-rendering="geometricPrecision" text-rendering="optimizeLegibility" transform="matrix(1,0,0,1,370.42969999999997,115)">
      <text clip-path="url(#clipPath16)" stroke="none" x="0" xml:space="preserve" y="11">playlist</text>
    </g>
    <g color-interpolation="linearRGB" color-rendering="optimizeQuality" font-family="sans-serif" font-size="11" image-rendering="optimizeQuality" shape-rendering="geometricPrecision" text-rendering="optimizeLegibility" transform="matrix(1,0,0,1,408.43559999999997,115)">
      <text clip-path="url(#clipPath17)" stroke="none" x="0" xml:space="preserve" y="11">)</text>
    </g>
    <g color-interpolation="linearRGB" color-rendering="optimizeQuality" font-family="sans-serif" font-size="11" image-rendering="optimizeQuality" shape-rendering="geometricPrecision" text-rendering="optimizeLegibility" transform="matrix(-1,0,0,-1,527.9937,141)">
      <path clip-path="url(#clipPath18)" d="M12 -6 L0 0 L12 6 Z" stroke="none" />
      <path clip-path="url(#clipPath18)" d="M12 -6 L0 0 L12 6 Z" fill="none" />
    </g>
    <g color-interpolation="linearRGB" color-rendering="optimizeQuality" font-family="sans-serif" font-size="11" image-rendering="optimizeQuality" shape-rendering="geometricPrecision" stroke-linecap="butt" stroke-miterlimit="1" text-rendering="optimizeLegibility" transform="matrix(1,0,0,1,51,-10)">
      <path clip-path="url(#clipPath1)" d="M476.99371337890625 116 L30 116" fill="none" />
      <text clip-path="url(#clipPath19)" stroke="none" stroke-linecap="square" stroke-miterlimit="10" transform="matrix(1,0,0,1,199.3504,92)" x="0" xml:space="preserve" y="11"> </text>
    </g>
    <g color-interpolation="linearRGB" color-rendering="optimizeQuality" font-family="sans-serif" font-size="11" image-rendering="optimizeQuality" shape-rendering="geometricPrecision" text-rendering="optimizeLegibility" transform="matrix(1,0,0,1,255.8309,82)">
      <text clip-path="url(#clipPath20)" stroke="none" x="0" xml:space="preserve" y="11">:</text>
    </g>
    <g color-interpolation="linearRGB" color-rendering="optimizeQuality" font-family="sans-serif" font-size="11" image-rendering="optimizeQuality" shape-rendering="geometricPrecision" text-rendering="optimizeLegibility" transform="matrix(1,0,0,1,261.3113,82)">
      <text clip-path="url(#clipPath21)" stroke="none" x="0" xml:space="preserve" y="11">playlist</text>
    </g>
    <g color-interpolation="linearRGB" color-rendering="optimizeQuality" font-family="sans-serif" font-size="11" image-rendering="optimizeQuality" shape-rendering="geometricPrecision" text-rendering="optimizeLegibility" transform="matrix(1,0,0,1,299.3172,82)">
      <text clip-path="url(#clipPath22)" stroke="none" x="0" xml:space="preserve" y="11">:=</text>
    </g>
    <g color-interpolation="linearRGB" color-rendering="optimizeQuality" font-family="sans-serif" font-size="11" image-rendering="optimizeQuality" shape-rendering="geometricPrecision" text-rendering="optimizeLegibility" transform="matrix(1,0,0,1,311.5418,82)">
      <text clip-path="url(#clipPath23)" stroke="none" x="0" xml:space="preserve" y="11">accessPlaylist</text>
    </g>
    <g color-interpolation="linearRGB" color-rendering="optimizeQuality" font-family="sans-serif" font-size="11" image-rendering="optimizeQuality" shape-rendering="geometricPrecision" text-rendering="optimizeLegibility" transform="matrix(1,0,0,1,383.3909,82)">
      <text clip-path="url(#clipPath24)" stroke="none" x="0" xml:space="preserve" y="11">(</text>
    </g>
    <g color-interpolation="linearRGB" color-rendering="optimizeQuality" font-family="sans-serif" font-size="11" image-rendering="optimizeQuality" shape-rendering="geometricPrecision" text-rendering="optimizeLegibility" transform="matrix(1,0,0,1,386.968,82)">
      <text clip-path="url(#clipPath25)" stroke="none" x="0" xml:space="preserve" y="11">playlistId</text>
    </g>
    <g color-interpolation="linearRGB" color-rendering="optimizeQuality" font-family="sans-serif" font-size="11" image-rendering="optimizeQuality" shape-rendering="geometricPrecision" text-rendering="optimizeLegibility" transform="matrix(1,0,0,1,435.0662,82)">
      <text clip-path="url(#clipPath26)" stroke="none" x="0" xml:space="preserve" y="11">)</text>
    </g>
    <g color-interpolation="linearRGB" color-rendering="optimizeQuality" font-family="sans-serif" font-size="11" image-rendering="optimizeQuality" shape-rendering="geometricPrecision" text-rendering="optimizeLegibility" transform="matrix(-1,0,0,-1,527.9937,106)">
      <path clip-path="url(#clipPath27)" d="M12 -6 L0 0 L12 6 Z" stroke="none" />
      <path clip-path="url(#clipPath27)" d="M12 -6 L0 0 L12 6 Z" fill="none" />
    </g>
    <g color-interpolation="linearRGB" color-rendering="optimizeQuality" font-family="sans-serif" font-size="11" image-rendering="optimizeQuality" shape-rendering="geometricPrecision" stroke-linecap="butt" stroke-miterlimit="1" text-rendering="optimizeLegibility" transform="matrix(1,0,0,1,51,-10)">
      <path clip-path="url(#clipPath1)" d="M476.99371337890625 81 L30 81" fill="none" />
      <text clip-path="url(#clipPath28)" stroke="none" stroke-linecap="square" stroke-miterlimit="10" transform="matrix(1,0,0,1,179.4974,57)" x="0" xml:space="preserve" y="11"> </text>
    </g>
    <g color-interpolation="linearRGB" color-rendering="optimizeQuality" font-family="sans-serif" font-size="11" image-rendering="optimizeQuality" shape-rendering="geometricPrecision" text-rendering="optimizeLegibility" transform="matrix(1,0,0,1,235.9779,47)">
      <text clip-path="url(#clipPath29)" stroke="none" x="0" xml:space="preserve" y="11">:</text>
    </g>
    <g color-interpolation="linearRGB" color-rendering="optimizeQuality" font-family="sans-serif" font-size="11" image-rendering="optimizeQuality" shape-rendering="geometricPrecision" text-rendering="optimizeLegibility" transform="matrix(1,0,0,1,241.4583,47)">
      <text clip-path="url(#clipPath30)" stroke="none" x="0" xml:space="preserve" y="11">authenticated</text>
    </g>
    <g color-interpolation="linearRGB" color-rendering="optimizeQuality" font-family="sans-serif" font-size="11" image-rendering="optimizeQuality" shape-rendering="geometricPrecision" text-rendering="optimizeLegibility" transform="matrix(1,0,0,1,314.4246,47)">
      <text clip-path="url(#clipPath31)" stroke="none" x="0" xml:space="preserve" y="11">:=</text>
    </g>
    <g color-interpolation="linearRGB" color-rendering="optimizeQuality" font-family="sans-serif" font-size="11" image-rendering="optimizeQuality" shape-rendering="geometricPrecision" text-rendering="optimizeLegibility" transform="matrix(1,0,0,1,326.6492,47)">
      <text clip-path="url(#clipPath32)" stroke="none" x="0" xml:space="preserve" y="11">authenticate</text>
    </g>
    <g color-interpolation="linearRGB" color-rendering="optimizeQuality" font-family="sans-serif" font-size="11" image-rendering="optimizeQuality" shape-rendering="geometricPrecision" text-rendering="optimizeLegibility" transform="matrix(1,0,0,1,392.6922,47)">
      <text clip-path="url(#clipPath33)" stroke="none" x="0" xml:space="preserve" y="11">(</text>
    </g>
    <g color-interpolation="linearRGB" color-rendering="optimizeQuality" font-family="sans-serif" font-size="11" image-rendering="optimizeQuality" shape-rendering="geometricPrecision" text-rendering="optimizeLegibility" transform="matrix(1,0,0,1,396.26930000000004,47)">
      <text clip-path="url(#clipPath34)" stroke="none" x="0" xml:space="preserve" y="11">authinfo</text>
    </g>
    <g color-interpolation="linearRGB" color-rendering="optimizeQuality" font-family="sans-serif" font-size="11" image-rendering="optimizeQuality" shape-rendering="geometricPrecision" text-rendering="optimizeLegibility" transform="matrix(1,0,0,1,440.91920000000005,47)">
      <text clip-path="url(#clipPath35)" stroke="none" x="0" xml:space="preserve" y="11">)</text>
    </g>
    <g color-interpolation="linearRGB" color-rendering="optimizeQuality" font-family="sans-serif" font-size="11" image-rendering="optimizeQuality" shape-rendering="geometricPrecision" text-rendering="optimizeLegibility" transform="matrix(-1,0,0,-1,527.9937,71)">
      <path clip-path="url(#clipPath36)" d="M12 -6 L0 0 L12 6 Z" stroke="none" />
      <path clip-path="url(#clipPath36)" d="M12 -6 L0 0 L12 6 Z" fill="none" />
    </g>
  </g>
</svg>
