<?xml version="1.0" encoding="UTF-8"?>

<!DOCTYPE svg PUBLIC '-//W3C//DTD SVG 1.0//EN' 'http://www.w3.org/TR/2001/REC-SVG-20010904/DTD/svg10.dtd'>
<svg stroke-width="1" stroke-dashoffset="0" font-size="12" stroke-dasharray="none" color-rendering="auto" font-weight="normal" color-interpolation="auto" stroke-linejoin="miter" fill="black" image-rendering="auto" font-family="&apos;sansserif&apos;" stroke-opacity="1" stroke-miterlimit="10" stroke="black" text-rendering="auto" font-style="normal" stroke-linecap="square" fill-opacity="1" shape-rendering="auto" xmlns="http://www.w3.org/2000/svg" xmlns:xlink="http://www.w3.org/1999/xlink">
  <!--Generated by the Batik Graphics2D SVG Generator-->
  <defs id="genericDefs" />
  <g>
    <defs id="defs1">
      <clipPath clipPathUnits="userSpaceOnUse" id="clipPath1">
        <path d="M24 50 L24 538 L579 538 L579 50 Z" />
      </clipPath>
      <clipPath clipPathUnits="userSpaceOnUse" id="clipPath2">
        <path d="M0 0 L0 488 L555 488 L555 0 Z" />
      </clipPath>
      <clipPath clipPathUnits="userSpaceOnUse" id="clipPath3">
        <path d="M-156 -10 L-156 478 L399 478 L399 -10 Z" />
      </clipPath>
      <clipPath clipPathUnits="userSpaceOnUse" id="clipPath4">
        <path d="M-158 -12 L-158 476 L397 476 L397 -12 Z" />
      </clipPath>
      <clipPath clipPathUnits="userSpaceOnUse" id="clipPath5">
        <path d="M-156 -27 L-156 461 L399 461 L399 -27 Z" />
      </clipPath>
      <clipPath clipPathUnits="userSpaceOnUse" id="clipPath6">
        <path d="M-196.31289672851562 -50 L-196.31289672851562 438 L358.6871032714844 438 L358.6871032714844 -50 Z" />
      </clipPath>
      <clipPath clipPathUnits="userSpaceOnUse" id="clipPath7">
        <path d="M-228.9792022705078 -64 L-228.9792022705078 424 L326.02081298828125 424 L326.02081298828125 -64 Z" />
      </clipPath>
      <clipPath clipPathUnits="userSpaceOnUse" id="clipPath8">
        <path d="M-193.6072998046875 -150 L-193.6072998046875 338 L361.3927001953125 338 L361.3927001953125 -150 Z" />
      </clipPath>
      <clipPath clipPathUnits="userSpaceOnUse" id="clipPath9">
        <path d="M-224.76010131835938 -166 L-224.76010131835938 322 L330.2398986816406 322 L330.2398986816406 -166 Z" />
      </clipPath>
      <clipPath clipPathUnits="userSpaceOnUse" id="clipPath10">
        <path d="M-190.87269592285156 -230 L-190.87269592285156 258 L364.1272888183594 258 L364.1272888183594 -230 Z" />
      </clipPath>
      <clipPath clipPathUnits="userSpaceOnUse" id="clipPath11">
        <path d="M-222.82650756835938 -239.45590209960938 L-222.82650756835938 248.54409790039062 L332.1734924316406 248.54409790039062 L332.1734924316406 -239.45590209960938 Z" />
      </clipPath>
      <clipPath clipPathUnits="userSpaceOnUse" id="clipPath12">
        <path d="M-174.1125030517578 -310 L-174.1125030517578 178 L380.88751220703125 178 L380.88751220703125 -310 Z" />
      </clipPath>
      <clipPath clipPathUnits="userSpaceOnUse" id="clipPath13">
        <path d="M-210.9752960205078 -326 L-210.9752960205078 162 L344.0246887207031 162 L344.0246887207031 -326 Z" />
      </clipPath>
      <clipPath clipPathUnits="userSpaceOnUse" id="clipPath14">
        <path d="M-186 -390 L-186 98 L369 98 L369 -390 Z" />
      </clipPath>
      <clipPath clipPathUnits="userSpaceOnUse" id="clipPath15">
        <path d="M-219.38099670410156 -406 L-219.38099670410156 82 L335.6189880371094 82 L335.6189880371094 -406 Z" />
      </clipPath>
      <clipPath clipPathUnits="userSpaceOnUse" id="clipPath16">
        <path d="M-36 -180 L-36 308 L519 308 L519 -180 Z" />
      </clipPath>
      <clipPath clipPathUnits="userSpaceOnUse" id="clipPath17">
        <path d="M-10.492899894714355 -265 L-10.492899894714355 223 L544.507080078125 223 L544.507080078125 -265 Z" />
      </clipPath>
      <clipPath clipPathUnits="userSpaceOnUse" id="clipPath18">
        <path d="M-486 -240 L-486 248 L69 248 L69 -240 Z" />
      </clipPath>
      <clipPath clipPathUnits="userSpaceOnUse" id="clipPath19">
        <path d="M-477.3446960449219 -325 L-477.3446960449219 163 L77.6552963256836 163 L77.6552963256836 -325 Z" />
      </clipPath>
    </defs>
    <g color-rendering="optimizeQuality" stroke-miterlimit="1" color-interpolation="linearRGB" text-rendering="optimizeLegibility" stroke-linecap="butt" shape-rendering="geometricPrecision" image-rendering="optimizeQuality" transform="matrix(1,0,0,1,156,10)">
      <path d="M0.5 0.5 L74.53269958496094 0.5 L74.53269958496094 17.5 L0.5 17.5 Z" clip-path="url(#clipPath3)" fill="none" />
    </g>
    <g font-family="sans-serif" font-size="11" color-rendering="optimizeQuality" color-interpolation="linearRGB" text-rendering="optimizeLegibility" shape-rendering="geometricPrecision" image-rendering="optimizeQuality" transform="matrix(1,0,0,1,158,12)">
      <text x="0" y="11" xml:space="preserve" stroke="none" clip-path="url(#clipPath4)">Local storage</text>
    </g>
    <g font-family="sans-serif" font-size="11" color-rendering="optimizeQuality" stroke-miterlimit="1" color-interpolation="linearRGB" text-rendering="optimizeLegibility" stroke="white" fill="white" stroke-linecap="butt" shape-rendering="geometricPrecision" image-rendering="optimizeQuality" transform="matrix(1,0,0,1,156,27)">
      <path d="M0.5 0.5 L249.5 0.5 L249.5 450.5 L0.5 450.5 Z" stroke="none" clip-path="url(#clipPath5)" />
      <path d="M0.5 0.5 L249.5 0.5 L249.5 450.5 L0.5 450.5 Z" stroke="black" clip-path="url(#clipPath5)" fill="none" />
      <ellipse cx="90" cy="30" rx="90" ry="30" stroke="none" clip-path="url(#clipPath6)" transform="matrix(1,0,0,1,40.3129,23)" />
      <ellipse cx="90" cy="30" rx="90" ry="30" stroke="black" clip-path="url(#clipPath6)" fill="none" transform="matrix(1,0,0,1,40.3129,23)" />
    </g>
    <g font-family="sans-serif" font-size="11" color-rendering="optimizeQuality" color-interpolation="linearRGB" text-rendering="optimizeLegibility" shape-rendering="geometricPrecision" image-rendering="optimizeQuality" transform="matrix(1,0,0,1,228.97920000000002,64)">
      <text x="0" y="11" xml:space="preserve" stroke="none" clip-path="url(#clipPath7)">UC-1 Store or update</text>
      <text x="0" y="25" xml:space="preserve" stroke="none" clip-path="url(#clipPath7)">Audio clip</text>
    </g>
    <g font-family="sans-serif" font-size="11" color-rendering="optimizeQuality" stroke-miterlimit="1" color-interpolation="linearRGB" text-rendering="optimizeLegibility" stroke="white" fill="white" stroke-linecap="butt" shape-rendering="geometricPrecision" image-rendering="optimizeQuality" transform="matrix(1,0,0,1,193.6073,150)">
      <ellipse cx="92.70555" cy="25" rx="92.70555" ry="25" stroke="none" clip-path="url(#clipPath8)" />
      <ellipse cx="92.70555" cy="25" rx="92.70555" ry="25" stroke="black" clip-path="url(#clipPath8)" fill="none" />
    </g>
    <g font-family="sans-serif" font-size="11" color-rendering="optimizeQuality" color-interpolation="linearRGB" text-rendering="optimizeLegibility" shape-rendering="geometricPrecision" image-rendering="optimizeQuality" transform="matrix(1,0,0,1,224.76010000000002,166)">
      <text x="0" y="11" xml:space="preserve" stroke="none" clip-path="url(#clipPath9)">UC-2 Delete Audio clip</text>
    </g>
    <g font-family="sans-serif" font-size="11" color-rendering="optimizeQuality" stroke-miterlimit="1" color-interpolation="linearRGB" text-rendering="optimizeLegibility" stroke="white" fill="white" stroke-linecap="butt" shape-rendering="geometricPrecision" image-rendering="optimizeQuality" transform="matrix(1,0,0,1,190.8727,230)">
      <ellipse cx="95.4401" cy="25.45585" rx="95.4401" ry="25.45585" stroke="none" clip-path="url(#clipPath10)" />
      <ellipse cx="95.4401" cy="25.45585" rx="95.4401" ry="25.45585" stroke="black" clip-path="url(#clipPath10)" fill="none" />
    </g>
    <g font-family="sans-serif" font-size="11" color-rendering="optimizeQuality" color-interpolation="linearRGB" text-rendering="optimizeLegibility" shape-rendering="geometricPrecision" image-rendering="optimizeQuality" transform="matrix(1,0,0,1,222.8265,239.45589999999999)">
      <text x="0" y="11" xml:space="preserve" stroke="none" clip-path="url(#clipPath11)">UC-3 Update Audio clip</text>
      <text x="0" y="25" xml:space="preserve" stroke="none" clip-path="url(#clipPath11)">metadata</text>
    </g>
    <g font-family="sans-serif" font-size="11" color-rendering="optimizeQuality" stroke-miterlimit="1" color-interpolation="linearRGB" text-rendering="optimizeLegibility" stroke="white" fill="white" stroke-linecap="butt" shape-rendering="geometricPrecision" image-rendering="optimizeQuality" transform="matrix(1,0,0,1,174.1125,310)">
      <ellipse cx="112.2004" cy="25" rx="112.2004" ry="25" stroke="none" clip-path="url(#clipPath12)" />
      <ellipse cx="112.2004" cy="25" rx="112.2004" ry="25" stroke="black" clip-path="url(#clipPath12)" fill="none" />
    </g>
    <g font-family="sans-serif" font-size="11" color-rendering="optimizeQuality" color-interpolation="linearRGB" text-rendering="optimizeLegibility" shape-rendering="geometricPrecision" image-rendering="optimizeQuality" transform="matrix(1,0,0,1,210.9753,326)">
      <text x="0" y="11" xml:space="preserve" stroke="none" clip-path="url(#clipPath13)">UC-4 Access raw audio data</text>
    </g>
    <g font-family="sans-serif" font-size="11" color-rendering="optimizeQuality" stroke-miterlimit="1" color-interpolation="linearRGB" text-rendering="optimizeLegibility" stroke="white" fill="white" stroke-linecap="butt" shape-rendering="geometricPrecision" image-rendering="optimizeQuality" transform="matrix(1,0,0,1,186,390)">
      <ellipse cx="100.31285" cy="25" rx="100.31285" ry="25" stroke="none" clip-path="url(#clipPath14)" />
      <ellipse cx="100.31285" cy="25" rx="100.31285" ry="25" stroke="black" clip-path="url(#clipPath14)" fill="none" />
    </g>
    <g font-family="sans-serif" font-size="11" color-rendering="optimizeQuality" color-interpolation="linearRGB" text-rendering="optimizeLegibility" shape-rendering="geometricPrecision" image-rendering="optimizeQuality" transform="matrix(1,0,0,1,219.381,406)">
      <text x="0" y="11" xml:space="preserve" stroke="none" clip-path="url(#clipPath15)">UC-5 Search in metadata</text>
    </g>
    <g font-family="sans-serif" font-size="11" color-rendering="optimizeQuality" stroke-miterlimit="1" color-interpolation="linearRGB" text-rendering="optimizeLegibility" stroke="white" fill="white" stroke-linecap="butt" shape-rendering="geometricPrecision" image-rendering="optimizeQuality" transform="matrix(1,0,0,1,36,180)">
      <path d="M25 21.33333396911621 C12.5 21.33333396911621 12.5 0 25 0 C37.5 0 37.5 21.33333396911621 25 21.33333396911621 M25 21.33333396911621 L25 26.66666603088379 M0 26.66666603088379 L50 26.66666603088379 M25 26.66666603088379 L25 53.33333206176758 M25 53.33333206176758 L0 80 M25 53.33333206176758 L50 80" stroke="none" clip-path="url(#clipPath16)" />
      <path d="M25 21.33333396911621 C12.5 21.33333396911621 12.5 0 25 0 C37.5 0 37.5 21.33333396911621 25 21.33333396911621 M25 21.33333396911621 L25 26.66666603088379 M0 26.66666603088379 L50 26.66666603088379 M25 26.66666603088379 L25 53.33333206176758 M25 53.33333206176758 L0 80 M25 53.33333206176758 L50 80" stroke="black" clip-path="url(#clipPath16)" fill="none" />
    </g>
    <g font-family="sans-serif" font-size="11" color-rendering="optimizeQuality" color-interpolation="linearRGB" text-rendering="optimizeLegibility" shape-rendering="geometricPrecision" image-rendering="optimizeQuality" transform="matrix(1,0,0,1,10.492899999999999,265)">
      <text x="0" y="11" xml:space="preserve" stroke="none" clip-path="url(#clipPath17)">Storage maintainer</text>
    </g>
    <g font-family="sans-serif" font-size="11" color-rendering="optimizeQuality" stroke-miterlimit="1" color-interpolation="linearRGB" text-rendering="optimizeLegibility" stroke="white" fill="white" stroke-linecap="butt" shape-rendering="geometricPrecision" image-rendering="optimizeQuality" transform="matrix(1,0,0,1,486,240)">
      <path d="M25 21.33333396911621 C12.5 21.33333396911621 12.5 0 25 0 C37.5 0 37.5 21.33333396911621 25 21.33333396911621 M25 21.33333396911621 L25 26.66666603088379 M0 26.66666603088379 L50 26.66666603088379 M25 26.66666603088379 L25 53.33333206176758 M25 53.33333206176758 L0 80 M25 53.33333206176758 L50 80" stroke="none" clip-path="url(#clipPath18)" />
      <path d="M25 21.33333396911621 C12.5 21.33333396911621 12.5 0 25 0 C37.5 0 37.5 21.33333396911621 25 21.33333396911621 M25 21.33333396911621 L25 26.66666603088379 M0 26.66666603088379 L50 26.66666603088379 M25 26.66666603088379 L25 53.33333206176758 M25 53.33333206176758 L0 80 M25 53.33333206176758 L50 80" stroke="black" clip-path="url(#clipPath18)" fill="none" />
    </g>
    <g font-family="sans-serif" font-size="11" color-rendering="optimizeQuality" color-interpolation="linearRGB" text-rendering="optimizeLegibility" shape-rendering="geometricPrecision" image-rendering="optimizeQuality" transform="matrix(1,0,0,1,477.3447,325)">
      <text x="0" y="11" xml:space="preserve" stroke="none" clip-path="url(#clipPath19)">Audio player</text>
    </g>
    <g font-family="sans-serif" font-size="11" color-rendering="optimizeQuality" stroke-miterlimit="1" color-interpolation="linearRGB" text-rendering="optimizeLegibility" stroke-linecap="butt" shape-rendering="geometricPrecision" image-rendering="optimizeQuality" transform="matrix(1,0,0,1,-24,-50)">
      <path d="M110 305.455810546875 L214.87269592285156 305.455810546875" clip-path="url(#clipPath1)" fill="none" />
    </g>
    <g font-family="sans-serif" font-size="11" color-rendering="optimizeQuality" stroke-miterlimit="1" color-interpolation="linearRGB" text-rendering="optimizeLegibility" stroke-linecap="butt" shape-rendering="geometricPrecision" image-rendering="optimizeQuality" transform="matrix(1,0,0,1,-24,-50)">
      <path d="M125.8145980834961 332 L215.5345001220703 456.810791015625" clip-path="url(#clipPath1)" fill="none" />
    </g>
    <g font-family="sans-serif" font-size="11" color-rendering="optimizeQuality" stroke-miterlimit="1" color-interpolation="linearRGB" text-rendering="optimizeLegibility" stroke-linecap="butt" shape-rendering="geometricPrecision" image-rendering="optimizeQuality" transform="matrix(1,0,0,1,-24,-50)">
      <path d="M110 230 L223.4416961669922 137.84140014648438" clip-path="url(#clipPath1)" fill="none" />
    </g>
    <g font-family="sans-serif" font-size="11" color-rendering="optimizeQuality" stroke-miterlimit="1" color-interpolation="linearRGB" text-rendering="optimizeLegibility" stroke-linecap="butt" shape-rendering="geometricPrecision" image-rendering="optimizeQuality" transform="matrix(1,0,0,1,-24,-50)">
      <path d="M110 230 L217.6136932373047 225.2947998046875" clip-path="url(#clipPath1)" fill="none" />
    </g>
    <g font-family="sans-serif" font-size="11" color-rendering="optimizeQuality" stroke-miterlimit="1" color-interpolation="linearRGB" text-rendering="optimizeLegibility" stroke-linecap="butt" shape-rendering="geometricPrecision" image-rendering="optimizeQuality" transform="matrix(1,0,0,1,-24,-50)">
      <path d="M510 370 L422.44110107421875 384.1033020019531" clip-path="url(#clipPath1)" fill="none" />
    </g>
  </g>
</svg>
