/* XPM */
static char * airtime_xpm[] = {
"32 32 15 1",
" 	c None",
".	c #FFE1D5",
"+	c #FFA47F",
"@	c #FF7137",
"#	c #FF5D1A",
"$	c #FF7B45",
"%	c #FFB89B",
"&	c #FF9062",
"*	c #FFCDB8",
"=	c #FF6728",
"-	c #FFC3AA",
";	c #FF9A70",
">	c #FFD7C6",
",	c #FF8653",
"'	c #FFAE8D",
"              .+@+.             ",
"           .+@#####$%           ",
"        .+@###########&*        ",
"      %$################=+      ",
"    $######################$-   ",
"     %$#######################;.",
"       .+=#####################>",
"          *&##################, ",
"             %@###############> ",
"               .;=###########,  ",
"                  -@#########>  ",
"                   =########,   ",
"                  -#########>   ",
"                  ,########$    ",
"                  #########-    ",
"                 %########@     ",
"                 @########-     ",
"                .########@      ",
"                ;########-      ",
"                =#######@       ",
"               -#######,.       ",
"               &#####@*         ",
"               ####='           ",
"              %###;             ",
"              $#,.              ",
"             .@-                ",
"                                ",
"                                ",
"                                ",
"                                ",
"                                ",
"                                "};
