<?xml version="1.0" encoding="UTF-8"?>

<!DOCTYPE svg PUBLIC '-//W3C//DTD SVG 1.0//EN' 'http://www.w3.org/TR/2001/REC-SVG-20010904/DTD/svg10.dtd'>
<svg stroke-width="1" stroke-dashoffset="0" font-size="12" stroke-dasharray="none" color-rendering="auto" font-weight="normal" color-interpolation="auto" stroke-linejoin="miter" fill="black" image-rendering="auto" font-family="&apos;sansserif&apos;" stroke-opacity="1" stroke-miterlimit="10" stroke="black" text-rendering="auto" font-style="normal" stroke-linecap="square" fill-opacity="1" shape-rendering="auto" xmlns="http://www.w3.org/2000/svg" xmlns:xlink="http://www.w3.org/1999/xlink">
  <!--Generated by the Batik Graphics2D SVG Generator-->
  <defs id="genericDefs" />
  <g>
    <defs id="defs1">
      <clipPath clipPathUnits="userSpaceOnUse" id="clipPath1">
        <path d="M24 80 L24 540 L430 540 L430 80 Z" />
      </clipPath>
      <clipPath clipPathUnits="userSpaceOnUse" id="clipPath2">
        <path d="M0 0 L0 460 L406 460 L406 0 Z" />
      </clipPath>
      <clipPath clipPathUnits="userSpaceOnUse" id="clipPath3">
        <path d="M-36 -130 L-36 330 L370 330 L370 -130 Z" />
      </clipPath>
      <clipPath clipPathUnits="userSpaceOnUse" id="clipPath4">
        <path d="M-10.89579963684082 -215 L-10.89579963684082 245 L395.10418701171875 245 L395.10418701171875 -215 Z" />
      </clipPath>
      <clipPath clipPathUnits="userSpaceOnUse" id="clipPath5">
        <path d="M-156 -10 L-156 450 L250 450 L250 -10 Z" />
      </clipPath>
      <clipPath clipPathUnits="userSpaceOnUse" id="clipPath6">
        <path d="M-158 -12 L-158 448 L248 448 L248 -12 Z" />
      </clipPath>
      <clipPath clipPathUnits="userSpaceOnUse" id="clipPath7">
        <path d="M-156 -27 L-156 433 L250 433 L250 -27 Z" />
      </clipPath>
      <clipPath clipPathUnits="userSpaceOnUse" id="clipPath8">
        <path d="M-196 -220 L-196 240 L210 240 L210 -220 Z" />
      </clipPath>
      <clipPath clipPathUnits="userSpaceOnUse" id="clipPath9">
        <path d="M-223.31509399414062 -229.45590209960938 L-223.31509399414062 230.54409790039062 L182.68490600585938 230.54409790039062 L182.68490600585938 -229.45590209960938 Z" />
      </clipPath>
      <clipPath clipPathUnits="userSpaceOnUse" id="clipPath10">
        <path d="M-176 -370 L-176 90 L230 90 L230 -370 Z" />
      </clipPath>
      <clipPath clipPathUnits="userSpaceOnUse" id="clipPath11">
        <path d="M-209.38099670410156 -386 L-209.38099670410156 74 L196.61900329589844 74 L196.61900329589844 -386 Z" />
      </clipPath>
      <clipPath clipPathUnits="userSpaceOnUse" id="clipPath12">
        <path d="M-186 -140 L-186 320 L220 320 L220 -140 Z" />
      </clipPath>
      <clipPath clipPathUnits="userSpaceOnUse" id="clipPath13">
        <path d="M-217.15280151367188 -156 L-217.15280151367188 304 L188.84719848632812 304 L188.84719848632812 -156 Z" />
      </clipPath>
      <clipPath clipPathUnits="userSpaceOnUse" id="clipPath14">
        <path d="M-196 -300 L-196 160 L210 160 L210 -300 Z" />
      </clipPath>
      <clipPath clipPathUnits="userSpaceOnUse" id="clipPath15">
        <path d="M-223.9824981689453 -309.4559020996094 L-223.9824981689453 150.54409790039062 L182.0175018310547 150.54409790039062 L182.0175018310547 -309.4559020996094 Z" />
      </clipPath>
      <clipPath clipPathUnits="userSpaceOnUse" id="clipPath16">
        <path d="M-186 -60 L-186 400 L220 400 L220 -60 Z" />
      </clipPath>
      <clipPath clipPathUnits="userSpaceOnUse" id="clipPath17">
        <path d="M-215.40530395507812 -69.45590209960938 L-215.40530395507812 390.5440979003906 L190.59469604492188 390.5440979003906 L190.59469604492188 -69.45590209960938 Z" />
      </clipPath>
      <clipPath clipPathUnits="userSpaceOnUse" id="clipPath18">
        <path d="M-46 -310 L-46 150 L360 150 L360 -310 Z" />
      </clipPath>
      <clipPath clipPathUnits="userSpaceOnUse" id="clipPath19">
        <path d="M-34.951900482177734 -395 L-34.951900482177734 65 L371.048095703125 65 L371.048095703125 -395 Z" />
      </clipPath>
    </defs>
    <g color-rendering="optimizeQuality" stroke-miterlimit="1" color-interpolation="linearRGB" text-rendering="optimizeLegibility" stroke-linecap="butt" shape-rendering="geometricPrecision" image-rendering="optimizeQuality" transform="matrix(1,0,0,1,36,130)">
      <path d="M25 21.33333396911621 C12.5 21.33333396911621 12.5 0 25 0 C37.5 0 37.5 21.33333396911621 25 21.33333396911621 M25 21.33333396911621 L25 26.66666603088379 M0 26.66666603088379 L50 26.66666603088379 M25 26.66666603088379 L25 53.33333206176758 M25 53.33333206176758 L0 80 M25 53.33333206176758 L50 80" clip-path="url(#clipPath3)" fill="none" />
    </g>
    <g font-family="sans-serif" font-size="11" color-rendering="optimizeQuality" color-interpolation="linearRGB" text-rendering="optimizeLegibility" shape-rendering="geometricPrecision" image-rendering="optimizeQuality" transform="matrix(1,0,0,1,10.895800000000001,215)">
      <text x="0" y="11" xml:space="preserve" stroke="none" clip-path="url(#clipPath4)">Archive maintainer</text>
    </g>
    <g font-family="sans-serif" font-size="11" color-rendering="optimizeQuality" stroke-miterlimit="1" color-interpolation="linearRGB" text-rendering="optimizeLegibility" stroke="white" fill="white" stroke-linecap="butt" shape-rendering="geometricPrecision" image-rendering="optimizeQuality" transform="matrix(1,0,0,1,156,10)">
      <path d="M0.5 0.5 L143.11619567871094 0.5 L143.11619567871094 17.5 L0.5 17.5 Z" stroke="none" clip-path="url(#clipPath5)" />
      <path d="M0.5 0.5 L143.11619567871094 0.5 L143.11619567871094 17.5 L0.5 17.5 Z" stroke="black" clip-path="url(#clipPath5)" fill="none" />
    </g>
    <g font-family="sans-serif" font-size="11" color-rendering="optimizeQuality" color-interpolation="linearRGB" text-rendering="optimizeLegibility" shape-rendering="geometricPrecision" image-rendering="optimizeQuality" transform="matrix(1,0,0,1,158,12)">
      <text x="0" y="11" xml:space="preserve" stroke="none" clip-path="url(#clipPath6)">LiveSupport Media archive</text>
    </g>
    <g font-family="sans-serif" font-size="11" color-rendering="optimizeQuality" stroke-miterlimit="1" color-interpolation="linearRGB" text-rendering="optimizeLegibility" stroke="white" fill="white" stroke-linecap="butt" shape-rendering="geometricPrecision" image-rendering="optimizeQuality" transform="matrix(1,0,0,1,156,27)">
      <path d="M0.5 0.5 L239.5 0.5 L239.5 422.5 L0.5 422.5 Z" stroke="none" clip-path="url(#clipPath7)" />
      <path d="M0.5 0.5 L239.5 0.5 L239.5 422.5 L0.5 422.5 Z" stroke="black" clip-path="url(#clipPath7)" fill="none" />
      <ellipse cx="79.6027" cy="25.45585" rx="79.6027" ry="25.45585" stroke="none" clip-path="url(#clipPath8)" transform="matrix(1,0,0,1,40,193)" />
      <ellipse cx="79.6027" cy="25.45585" rx="79.6027" ry="25.45585" stroke="black" clip-path="url(#clipPath8)" fill="none" transform="matrix(1,0,0,1,40,193)" />
    </g>
    <g font-family="sans-serif" font-size="11" color-rendering="optimizeQuality" color-interpolation="linearRGB" text-rendering="optimizeLegibility" shape-rendering="geometricPrecision" image-rendering="optimizeQuality" transform="matrix(1,0,0,1,223.3151,229.45589999999999)">
      <text x="0" y="11" xml:space="preserve" stroke="none" clip-path="url(#clipPath9)">UC-3 Update Audio</text>
      <text x="0" y="25" xml:space="preserve" stroke="none" clip-path="url(#clipPath9)">clip metadata</text>
    </g>
    <g font-family="sans-serif" font-size="11" color-rendering="optimizeQuality" stroke-miterlimit="1" color-interpolation="linearRGB" text-rendering="optimizeLegibility" stroke="white" fill="white" stroke-linecap="butt" shape-rendering="geometricPrecision" image-rendering="optimizeQuality" transform="matrix(1,0,0,1,176,370)">
      <ellipse cx="100.31285" cy="25" rx="100.31285" ry="25" stroke="none" clip-path="url(#clipPath10)" />
      <ellipse cx="100.31285" cy="25" rx="100.31285" ry="25" stroke="black" clip-path="url(#clipPath10)" fill="none" />
    </g>
    <g font-family="sans-serif" font-size="11" color-rendering="optimizeQuality" color-interpolation="linearRGB" text-rendering="optimizeLegibility" shape-rendering="geometricPrecision" image-rendering="optimizeQuality" transform="matrix(1,0,0,1,209.381,386)">
      <text x="0" y="11" xml:space="preserve" stroke="none" clip-path="url(#clipPath11)">UC-5 Search in metadata</text>
    </g>
    <g font-family="sans-serif" font-size="11" color-rendering="optimizeQuality" stroke-miterlimit="1" color-interpolation="linearRGB" text-rendering="optimizeLegibility" stroke="white" fill="white" stroke-linecap="butt" shape-rendering="geometricPrecision" image-rendering="optimizeQuality" transform="matrix(1,0,0,1,186,140)">
      <ellipse cx="92.70555" cy="25" rx="92.70555" ry="25" stroke="none" clip-path="url(#clipPath12)" />
      <ellipse cx="92.70555" cy="25" rx="92.70555" ry="25" stroke="black" clip-path="url(#clipPath12)" fill="none" />
    </g>
    <g font-family="sans-serif" font-size="11" color-rendering="optimizeQuality" color-interpolation="linearRGB" text-rendering="optimizeLegibility" shape-rendering="geometricPrecision" image-rendering="optimizeQuality" transform="matrix(1,0,0,1,217.1528,156)">
      <text x="0" y="11" xml:space="preserve" stroke="none" clip-path="url(#clipPath13)">UC-2 Delete Audio clip</text>
    </g>
    <g font-family="sans-serif" font-size="11" color-rendering="optimizeQuality" stroke-miterlimit="1" color-interpolation="linearRGB" text-rendering="optimizeLegibility" stroke="white" fill="white" stroke-linecap="butt" shape-rendering="geometricPrecision" image-rendering="optimizeQuality" transform="matrix(1,0,0,1,196,300)">
      <ellipse cx="81.88145" cy="25.45585" rx="81.88145" ry="25.45585" stroke="none" clip-path="url(#clipPath14)" />
      <ellipse cx="81.88145" cy="25.45585" rx="81.88145" ry="25.45585" stroke="black" clip-path="url(#clipPath14)" fill="none" />
    </g>
    <g font-family="sans-serif" font-size="11" color-rendering="optimizeQuality" color-interpolation="linearRGB" text-rendering="optimizeLegibility" shape-rendering="geometricPrecision" image-rendering="optimizeQuality" transform="matrix(1,0,0,1,223.98250000000002,309.4559)">
      <text x="0" y="11" xml:space="preserve" stroke="none" clip-path="url(#clipPath15)">UC-4 Download raw</text>
      <text x="0" y="25" xml:space="preserve" stroke="none" clip-path="url(#clipPath15)">audio data</text>
    </g>
    <g font-family="sans-serif" font-size="11" color-rendering="optimizeQuality" stroke-miterlimit="1" color-interpolation="linearRGB" text-rendering="optimizeLegibility" stroke="white" fill="white" stroke-linecap="butt" shape-rendering="geometricPrecision" image-rendering="optimizeQuality" transform="matrix(1,0,0,1,186,60)">
      <ellipse cx="86.739" cy="25.45585" rx="86.739" ry="25.45585" stroke="none" clip-path="url(#clipPath16)" />
      <ellipse cx="86.739" cy="25.45585" rx="86.739" ry="25.45585" stroke="black" clip-path="url(#clipPath16)" fill="none" />
    </g>
    <g font-family="sans-serif" font-size="11" color-rendering="optimizeQuality" color-interpolation="linearRGB" text-rendering="optimizeLegibility" shape-rendering="geometricPrecision" image-rendering="optimizeQuality" transform="matrix(1,0,0,1,215.4053,69.4559)">
      <text x="0" y="11" xml:space="preserve" stroke="none" clip-path="url(#clipPath17)">UC-1 Store or update</text>
      <text x="0" y="25" xml:space="preserve" stroke="none" clip-path="url(#clipPath17)">Audio clip</text>
    </g>
    <g font-family="sans-serif" font-size="11" color-rendering="optimizeQuality" stroke-miterlimit="1" color-interpolation="linearRGB" text-rendering="optimizeLegibility" stroke-linecap="butt" shape-rendering="geometricPrecision" image-rendering="optimizeQuality" transform="matrix(1,0,0,1,-24,-80)">
      <path d="M110 210 L210.6280059814453 168.5135040283203" clip-path="url(#clipPath1)" fill="none" />
    </g>
    <g font-family="sans-serif" font-size="11" color-rendering="optimizeQuality" stroke-miterlimit="1" color-interpolation="linearRGB" text-rendering="optimizeLegibility" stroke-linecap="butt" shape-rendering="geometricPrecision" image-rendering="optimizeQuality" transform="matrix(1,0,0,1,-24,-80)">
      <path d="M110 245 L210 245" clip-path="url(#clipPath1)" fill="none" />
    </g>
    <g font-family="sans-serif" font-size="11" color-rendering="optimizeQuality" stroke-miterlimit="1" color-interpolation="linearRGB" text-rendering="optimizeLegibility" stroke-linecap="butt" shape-rendering="geometricPrecision" image-rendering="optimizeQuality" transform="matrix(1,0,0,1,-24,-80)">
      <path d="M138.1042938232422 298.4114074707031 L220.3621063232422 323.0306091308594" clip-path="url(#clipPath1)" fill="none" />
    </g>
    <g font-family="sans-serif" font-size="11" color-rendering="optimizeQuality" stroke-miterlimit="1" color-interpolation="linearRGB" text-rendering="optimizeLegibility" stroke="white" fill="white" stroke-linecap="butt" shape-rendering="geometricPrecision" image-rendering="optimizeQuality" transform="matrix(1,0,0,1,46,310)">
      <path d="M25 21.33333396911621 C12.5 21.33333396911621 12.5 0 25 0 C37.5 0 37.5 21.33333396911621 25 21.33333396911621 M25 21.33333396911621 L25 26.66666603088379 M0 26.66666603088379 L50 26.66666603088379 M25 26.66666603088379 L25 53.33333206176758 M25 53.33333206176758 L0 80 M25 53.33333206176758 L50 80" stroke="none" clip-path="url(#clipPath18)" />
      <path d="M25 21.33333396911621 C12.5 21.33333396911621 12.5 0 25 0 C37.5 0 37.5 21.33333396911621 25 21.33333396911621 M25 21.33333396911621 L25 26.66666603088379 M0 26.66666603088379 L50 26.66666603088379 M25 26.66666603088379 L25 53.33333206176758 M25 53.33333206176758 L0 80 M25 53.33333206176758 L50 80" stroke="black" clip-path="url(#clipPath18)" fill="none" />
    </g>
    <g font-family="sans-serif" font-size="11" color-rendering="optimizeQuality" color-interpolation="linearRGB" text-rendering="optimizeLegibility" shape-rendering="geometricPrecision" image-rendering="optimizeQuality" transform="matrix(1,0,0,1,34.9519,395)">
      <text x="0" y="11" xml:space="preserve" stroke="none" clip-path="url(#clipPath19)">Archive client</text>
    </g>
    <g font-family="sans-serif" font-size="11" color-rendering="optimizeQuality" stroke-miterlimit="1" color-interpolation="linearRGB" text-rendering="optimizeLegibility" stroke-linecap="butt" shape-rendering="geometricPrecision" image-rendering="optimizeQuality" transform="matrix(1,0,0,1,-24,-80)">
      <path d="M120 405.4559020996094 L220 405.4559020996094" clip-path="url(#clipPath1)" fill="none" />
    </g>
    <g font-family="sans-serif" font-size="11" color-rendering="optimizeQuality" stroke-miterlimit="1" color-interpolation="linearRGB" text-rendering="optimizeLegibility" stroke-linecap="butt" shape-rendering="geometricPrecision" image-rendering="optimizeQuality" transform="matrix(1,0,0,1,-24,-80)">
      <path d="M120 470 L200.010498046875 474.6387939453125" clip-path="url(#clipPath1)" fill="none" />
    </g>
  </g>
</svg>
