<?xml version="1.0" encoding="UTF-8"?>

<!DOCTYPE svg PUBLIC '-//W3C//DTD SVG 1.0//EN' 'http://www.w3.org/TR/2001/REC-SVG-20010904/DTD/svg10.dtd'>
<svg stroke-width="1" stroke-dashoffset="0" font-size="12" stroke-dasharray="none" color-rendering="auto" font-weight="normal" color-interpolation="auto" stroke-linejoin="miter" fill="black" image-rendering="auto" font-family="&apos;sansserif&apos;" stroke-opacity="1" stroke-miterlimit="10" stroke="black" text-rendering="auto" font-style="normal" stroke-linecap="square" fill-opacity="1" shape-rendering="auto" xmlns="http://www.w3.org/2000/svg" xmlns:xlink="http://www.w3.org/1999/xlink">
  <!--Generated by the Batik Graphics2D SVG Generator-->
  <defs id="genericDefs" />
  <g>
    <defs id="defs1">
      <clipPath clipPathUnits="userSpaceOnUse" id="clipPath1">
        <path d="M26 110 L26 1040 L912 1040 L912 110 Z" />
      </clipPath>
      <clipPath clipPathUnits="userSpaceOnUse" id="clipPath2">
        <path d="M0 0 L0 930 L886 930 L886 0 Z" />
      </clipPath>
      <clipPath clipPathUnits="userSpaceOnUse" id="clipPath3">
        <path d="M-184 -10 L-184 920 L702 920 L702 -10 Z" />
      </clipPath>
      <clipPath clipPathUnits="userSpaceOnUse" id="clipPath4">
        <path d="M-186 -12 L-186 918 L700 918 L700 -12 Z" />
      </clipPath>
      <clipPath clipPathUnits="userSpaceOnUse" id="clipPath5">
        <path d="M-184 -27 L-184 903 L702 903 L702 -27 Z" />
      </clipPath>
      <clipPath clipPathUnits="userSpaceOnUse" id="clipPath6">
        <path d="M-244 -750 L-244 180 L642 180 L642 -750 Z" />
      </clipPath>
      <clipPath clipPathUnits="userSpaceOnUse" id="clipPath7">
        <path d="M-273.8446960449219 -766 L-273.8446960449219 164 L612.1552734375 164 L612.1552734375 -766 Z" />
      </clipPath>
      <clipPath clipPathUnits="userSpaceOnUse" id="clipPath8">
        <path d="M-474 -710 L-474 220 L412 220 L412 -710 Z" />
      </clipPath>
      <clipPath clipPathUnits="userSpaceOnUse" id="clipPath9">
        <path d="M-507.48779296875 -719.4558715820312 L-507.48779296875 210.54409790039062 L378.51220703125 210.54409790039062 L378.51220703125 -719.4558715820312 Z" />
      </clipPath>
      <clipPath clipPathUnits="userSpaceOnUse" id="clipPath10">
        <path d="M-474 -790 L-474 140 L412 140 L412 -790 Z" />
      </clipPath>
      <clipPath clipPathUnits="userSpaceOnUse" id="clipPath11">
        <path d="M-505.8902893066406 -799.4558715820312 L-505.8902893066406 130.54409790039062 L380.1097106933594 130.54409790039062 L380.1097106933594 -799.4558715820312 Z" />
      </clipPath>
      <clipPath clipPathUnits="userSpaceOnUse" id="clipPath12">
        <path d="M-244 -830 L-244 100 L642 100 L642 -830 Z" />
      </clipPath>
      <clipPath clipPathUnits="userSpaceOnUse" id="clipPath13">
        <path d="M-278.15289306640625 -839.4558715820312 L-278.15289306640625 90.54409790039062 L607.8471069335938 90.54409790039062 L607.8471069335938 -839.4558715820312 Z" />
      </clipPath>
      <clipPath clipPathUnits="userSpaceOnUse" id="clipPath14">
        <path d="M-244 -60 L-244 870 L642 870 L642 -60 Z" />
      </clipPath>
      <clipPath clipPathUnits="userSpaceOnUse" id="clipPath15">
        <path d="M-275.96038818359375 -69.45590209960938 L-275.96038818359375 860.5441284179688 L610.0396118164062 860.5441284179688 L610.0396118164062 -69.45590209960938 Z" />
      </clipPath>
      <clipPath clipPathUnits="userSpaceOnUse" id="clipPath16">
        <path d="M-454 -110 L-454 820 L432 820 L432 -110 Z" />
      </clipPath>
      <clipPath clipPathUnits="userSpaceOnUse" id="clipPath17">
        <path d="M-488.54559326171875 -119.45590209960938 L-488.54559326171875 810.5441284179688 L397.45440673828125 810.5441284179688 L397.45440673828125 -119.45590209960938 Z" />
      </clipPath>
      <clipPath clipPathUnits="userSpaceOnUse" id="clipPath18">
        <path d="M-244 -160 L-244 770 L642 770 L642 -160 Z" />
      </clipPath>
      <clipPath clipPathUnits="userSpaceOnUse" id="clipPath19">
        <path d="M-279.3465881347656 -169.45590209960938 L-279.3465881347656 760.5441284179688 L606.6533813476562 760.5441284179688 L606.6533813476562 -169.45590209960938 Z" />
      </clipPath>
      <clipPath clipPathUnits="userSpaceOnUse" id="clipPath20">
        <path d="M-444 -210 L-444 720 L442 720 L442 -210 Z" />
      </clipPath>
      <clipPath clipPathUnits="userSpaceOnUse" id="clipPath21">
        <path d="M-477.6701965332031 -226 L-477.6701965332031 704 L408.3298034667969 704 L408.3298034667969 -226 Z" />
      </clipPath>
      <clipPath clipPathUnits="userSpaceOnUse" id="clipPath22">
        <path d="M-464 -300 L-464 630 L422 630 L422 -300 Z" />
      </clipPath>
      <clipPath clipPathUnits="userSpaceOnUse" id="clipPath23">
        <path d="M-495.96038818359375 -309.4559020996094 L-495.96038818359375 620.5441284179688 L390.03961181640625 620.5441284179688 L390.03961181640625 -309.4559020996094 Z" />
      </clipPath>
      <clipPath clipPathUnits="userSpaceOnUse" id="clipPath24">
        <path d="M-454 -400 L-454 530 L432 530 L432 -400 Z" />
      </clipPath>
      <clipPath clipPathUnits="userSpaceOnUse" id="clipPath25">
        <path d="M-490.4466857910156 -416 L-490.4466857910156 514 L395.5533142089844 514 L395.5533142089844 -416 Z" />
      </clipPath>
      <clipPath clipPathUnits="userSpaceOnUse" id="clipPath26">
        <path d="M-454 -490 L-454 440 L432 440 L432 -490 Z" />
      </clipPath>
      <clipPath clipPathUnits="userSpaceOnUse" id="clipPath27">
        <path d="M-491.4032897949219 -502.35540771484375 L-491.4032897949219 427.64459228515625 L394.5967102050781 427.64459228515625 L394.5967102050781 -502.35540771484375 Z" />
      </clipPath>
      <clipPath clipPathUnits="userSpaceOnUse" id="clipPath28">
        <path d="M-434 -590 L-434 340 L452 340 L452 -590 Z" />
      </clipPath>
      <clipPath clipPathUnits="userSpaceOnUse" id="clipPath29">
        <path d="M-477.39471435546875 -599.4558715820312 L-477.39471435546875 330.5440979003906 L408.60528564453125 330.5440979003906 L408.60528564453125 -599.4558715820312 Z" />
      </clipPath>
      <clipPath clipPathUnits="userSpaceOnUse" id="clipPath30">
        <path d="M-224 -660 L-224 270 L662 270 L662 -660 Z" />
      </clipPath>
      <clipPath clipPathUnits="userSpaceOnUse" id="clipPath31">
        <path d="M-260.3132019042969 -669.4558715820312 L-260.3132019042969 260.5440979003906 L625.6868286132812 260.5440979003906 L625.6868286132812 -669.4558715820312 Z" />
      </clipPath>
      <clipPath clipPathUnits="userSpaceOnUse" id="clipPath32">
        <path d="M-34 -520 L-34 410 L852 410 L852 -520 Z" />
      </clipPath>
      <clipPath clipPathUnits="userSpaceOnUse" id="clipPath33">
        <path d="M-10.090800285339355 -605 L-10.090800285339355 325 L875.9091796875 325 L875.9091796875 -605 Z" />
      </clipPath>
      <clipPath clipPathUnits="userSpaceOnUse" id="clipPath34">
        <path d="M-814 -130 L-814 800 L72 800 L72 -130 Z" />
      </clipPath>
      <clipPath clipPathUnits="userSpaceOnUse" id="clipPath35">
        <path d="M-803.4835815429688 -215 L-803.4835815429688 715 L82.51640319824219 715 L82.51640319824219 -215 Z" />
      </clipPath>
      <clipPath clipPathUnits="userSpaceOnUse" id="clipPath36">
        <path d="M-814 -390 L-814 540 L72 540 L72 -390 Z" />
      </clipPath>
      <clipPath clipPathUnits="userSpaceOnUse" id="clipPath37">
        <path d="M-802.3502807617188 -475 L-802.3502807617188 455 L83.64969635009766 455 L83.64969635009766 -475 Z" />
      </clipPath>
      <clipPath clipPathUnits="userSpaceOnUse" id="clipPath38">
        <path d="M-804 -770 L-804 160 L82 160 L82 -770 Z" />
      </clipPath>
      <clipPath clipPathUnits="userSpaceOnUse" id="clipPath39">
        <path d="M-802.963623046875 -855 L-802.963623046875 75 L83.0363998413086 75 L83.0363998413086 -855 Z" />
      </clipPath>
    </defs>
    <g color-rendering="optimizeQuality" stroke-miterlimit="1" color-interpolation="linearRGB" text-rendering="optimizeLegibility" stroke-linecap="butt" shape-rendering="geometricPrecision" image-rendering="optimizeQuality" transform="matrix(1,0,0,1,184,10)">
      <path d="M0.5 0.5 L75.74659729003906 0.5 L75.74659729003906 17.5 L0.5 17.5 Z" clip-path="url(#clipPath3)" fill="none" />
    </g>
    <g font-family="sans-serif" font-size="11" color-rendering="optimizeQuality" color-interpolation="linearRGB" text-rendering="optimizeLegibility" shape-rendering="geometricPrecision" image-rendering="optimizeQuality" transform="matrix(1,0,0,1,186,12)">
      <text x="0" y="11" xml:space="preserve" stroke="none" clip-path="url(#clipPath4)">Playlist editor</text>
    </g>
    <g font-family="sans-serif" font-size="11" color-rendering="optimizeQuality" stroke-miterlimit="1" color-interpolation="linearRGB" text-rendering="optimizeLegibility" stroke="white" fill="white" stroke-linecap="butt" shape-rendering="geometricPrecision" image-rendering="optimizeQuality" transform="matrix(1,0,0,1,184,27)">
      <path d="M0.5 0.5 L529.5 0.5 L529.5 892.5 L0.5 892.5 Z" stroke="none" clip-path="url(#clipPath5)" />
      <path d="M0.5 0.5 L529.5 0.5 L529.5 892.5 L0.5 892.5 Z" stroke="black" clip-path="url(#clipPath5)" fill="none" />
      <ellipse cx="88.2392" cy="25" rx="88.2392" ry="25" stroke="none" clip-path="url(#clipPath6)" transform="matrix(1,0,0,1,60,723)" />
      <ellipse cx="88.2392" cy="25" rx="88.2392" ry="25" stroke="black" clip-path="url(#clipPath6)" fill="none" transform="matrix(1,0,0,1,60,723)" />
    </g>
    <g font-family="sans-serif" font-size="11" color-rendering="optimizeQuality" color-interpolation="linearRGB" text-rendering="optimizeLegibility" shape-rendering="geometricPrecision" image-rendering="optimizeQuality" transform="matrix(1,0,0,1,273.8447,766)">
      <text x="0" y="11" xml:space="preserve" stroke="none" clip-path="url(#clipPath7)">UC-1 Create a Playlist</text>
    </g>
    <g font-family="sans-serif" font-size="11" color-rendering="optimizeQuality" stroke-miterlimit="1" color-interpolation="linearRGB" text-rendering="optimizeLegibility" stroke="white" fill="white" stroke-linecap="butt" shape-rendering="geometricPrecision" image-rendering="optimizeQuality" transform="matrix(1,0,0,1,474,710)">
      <ellipse cx="100.67745" cy="25.45585" rx="100.67745" ry="25.45585" stroke="none" clip-path="url(#clipPath8)" />
      <ellipse cx="100.67745" cy="25.45585" rx="100.67745" ry="25.45585" stroke="black" clip-path="url(#clipPath8)" fill="none" />
    </g>
    <g font-family="sans-serif" font-size="11" color-rendering="optimizeQuality" color-interpolation="linearRGB" text-rendering="optimizeLegibility" shape-rendering="geometricPrecision" image-rendering="optimizeQuality" transform="matrix(1,0,0,1,507.4878,719.4559)">
      <text x="0" y="11" xml:space="preserve" stroke="none" clip-path="url(#clipPath9)">UC-10 Edit the transition</text>
      <text x="0" y="25" xml:space="preserve" stroke="none" clip-path="url(#clipPath9)">of an Audio clip</text>
    </g>
    <g font-family="sans-serif" font-size="11" color-rendering="optimizeQuality" stroke-miterlimit="1" color-interpolation="linearRGB" text-rendering="optimizeLegibility" stroke="white" fill="white" stroke-linecap="butt" shape-rendering="geometricPrecision" image-rendering="optimizeQuality" transform="matrix(1,0,0,1,474,790)">
      <ellipse cx="95.2236" cy="25.45585" rx="95.2236" ry="25.45585" stroke="none" clip-path="url(#clipPath10)" />
      <ellipse cx="95.2236" cy="25.45585" rx="95.2236" ry="25.45585" stroke="black" clip-path="url(#clipPath10)" fill="none" />
    </g>
    <g font-family="sans-serif" font-size="11" color-rendering="optimizeQuality" color-interpolation="linearRGB" text-rendering="optimizeLegibility" shape-rendering="geometricPrecision" image-rendering="optimizeQuality" transform="matrix(1,0,0,1,505.8903,799.4559)">
      <text x="0" y="11" xml:space="preserve" stroke="none" clip-path="url(#clipPath11)">UC-12 Upload a Playlist</text>
      <text x="0" y="25" xml:space="preserve" stroke="none" clip-path="url(#clipPath11)">to a Scheduler daemon</text>
    </g>
    <g font-family="sans-serif" font-size="11" color-rendering="optimizeQuality" stroke-miterlimit="1" color-interpolation="linearRGB" text-rendering="optimizeLegibility" stroke="white" fill="white" stroke-linecap="butt" shape-rendering="geometricPrecision" image-rendering="optimizeQuality" transform="matrix(1,0,0,1,244,830)">
      <ellipse cx="102.9486" cy="25.45585" rx="102.9486" ry="25.45585" stroke="none" clip-path="url(#clipPath12)" />
      <ellipse cx="102.9486" cy="25.45585" rx="102.9486" ry="25.45585" stroke="black" clip-path="url(#clipPath12)" fill="none" />
    </g>
    <g font-family="sans-serif" font-size="11" color-rendering="optimizeQuality" color-interpolation="linearRGB" text-rendering="optimizeLegibility" shape-rendering="geometricPrecision" image-rendering="optimizeQuality" transform="matrix(1,0,0,1,278.1529,839.4559)">
      <text x="0" y="11" xml:space="preserve" stroke="none" clip-path="url(#clipPath13)">UC-13 Maintain</text>
      <text x="0" y="25" xml:space="preserve" stroke="none" clip-path="url(#clipPath13)">configuration information</text>
    </g>
    <g font-family="sans-serif" font-size="11" color-rendering="optimizeQuality" stroke-miterlimit="1" color-interpolation="linearRGB" text-rendering="optimizeLegibility" stroke="white" fill="white" stroke-linecap="butt" shape-rendering="geometricPrecision" image-rendering="optimizeQuality" transform="matrix(1,0,0,1,244,60)">
      <ellipse cx="95.46285" cy="25.45585" rx="95.46285" ry="25.45585" stroke="none" clip-path="url(#clipPath14)" />
      <ellipse cx="95.46285" cy="25.45585" rx="95.46285" ry="25.45585" stroke="black" clip-path="url(#clipPath14)" fill="none" />
    </g>
    <g font-family="sans-serif" font-size="11" color-rendering="optimizeQuality" color-interpolation="linearRGB" text-rendering="optimizeLegibility" shape-rendering="geometricPrecision" image-rendering="optimizeQuality" transform="matrix(1,0,0,1,275.9604,69.4559)">
      <text x="0" y="11" xml:space="preserve" stroke="none" clip-path="url(#clipPath15)">UC-2 Add an Audio clip</text>
      <text x="0" y="25" xml:space="preserve" stroke="none" clip-path="url(#clipPath15)">to Local storage</text>
    </g>
    <g font-family="sans-serif" font-size="11" color-rendering="optimizeQuality" stroke-miterlimit="1" color-interpolation="linearRGB" text-rendering="optimizeLegibility" stroke="white" fill="white" stroke-linecap="butt" shape-rendering="geometricPrecision" image-rendering="optimizeQuality" transform="matrix(1,0,0,1,454,110)">
      <ellipse cx="104.28925" cy="25.45585" rx="104.28925" ry="25.45585" stroke="none" clip-path="url(#clipPath16)" />
      <ellipse cx="104.28925" cy="25.45585" rx="104.28925" ry="25.45585" stroke="black" clip-path="url(#clipPath16)" fill="none" />
    </g>
    <g font-family="sans-serif" font-size="11" color-rendering="optimizeQuality" color-interpolation="linearRGB" text-rendering="optimizeLegibility" shape-rendering="geometricPrecision" image-rendering="optimizeQuality" transform="matrix(1,0,0,1,488.5456,119.4559)">
      <text x="0" y="11" xml:space="preserve" stroke="none" clip-path="url(#clipPath17)">UC-3 Delete an Audio clip</text>
      <text x="0" y="25" xml:space="preserve" stroke="none" clip-path="url(#clipPath17)">from Local storage</text>
    </g>
    <g font-family="sans-serif" font-size="11" color-rendering="optimizeQuality" stroke-miterlimit="1" color-interpolation="linearRGB" text-rendering="optimizeLegibility" stroke="white" fill="white" stroke-linecap="butt" shape-rendering="geometricPrecision" image-rendering="optimizeQuality" transform="matrix(1,0,0,1,244,160)">
      <ellipse cx="107.0238" cy="25.45585" rx="107.0238" ry="25.45585" stroke="none" clip-path="url(#clipPath18)" />
      <ellipse cx="107.0238" cy="25.45585" rx="107.0238" ry="25.45585" stroke="black" clip-path="url(#clipPath18)" fill="none" />
    </g>
    <g font-family="sans-serif" font-size="11" color-rendering="optimizeQuality" color-interpolation="linearRGB" text-rendering="optimizeLegibility" shape-rendering="geometricPrecision" image-rendering="optimizeQuality" transform="matrix(1,0,0,1,279.3466,169.45589999999999)">
      <text x="0" y="11" xml:space="preserve" stroke="none" clip-path="url(#clipPath19)">UC-4 Update an Audio clip</text>
      <text x="0" y="25" xml:space="preserve" stroke="none" clip-path="url(#clipPath19)">in Local storage</text>
    </g>
    <g font-family="sans-serif" font-size="11" color-rendering="optimizeQuality" stroke-miterlimit="1" color-interpolation="linearRGB" text-rendering="optimizeLegibility" stroke="white" fill="white" stroke-linecap="butt" shape-rendering="geometricPrecision" image-rendering="optimizeQuality" transform="matrix(1,0,0,1,444,210)">
      <ellipse cx="101.3003" cy="25" rx="101.3003" ry="25" stroke="none" clip-path="url(#clipPath20)" />
      <ellipse cx="101.3003" cy="25" rx="101.3003" ry="25" stroke="black" clip-path="url(#clipPath20)" fill="none" />
    </g>
    <g font-family="sans-serif" font-size="11" color-rendering="optimizeQuality" color-interpolation="linearRGB" text-rendering="optimizeLegibility" shape-rendering="geometricPrecision" image-rendering="optimizeQuality" transform="matrix(1,0,0,1,477.6702,226)">
      <text x="0" y="11" xml:space="preserve" stroke="none" clip-path="url(#clipPath21)">UC-11 Listen to a Playlist</text>
    </g>
    <g font-family="sans-serif" font-size="11" color-rendering="optimizeQuality" stroke-miterlimit="1" color-interpolation="linearRGB" text-rendering="optimizeLegibility" stroke="white" fill="white" stroke-linecap="butt" shape-rendering="geometricPrecision" image-rendering="optimizeQuality" transform="matrix(1,0,0,1,464,300)">
      <ellipse cx="95.46285" cy="25.45585" rx="95.46285" ry="25.45585" stroke="none" clip-path="url(#clipPath22)" />
      <ellipse cx="95.46285" cy="25.45585" rx="95.46285" ry="25.45585" stroke="black" clip-path="url(#clipPath22)" fill="none" />
    </g>
    <g font-family="sans-serif" font-size="11" color-rendering="optimizeQuality" color-interpolation="linearRGB" text-rendering="optimizeLegibility" shape-rendering="geometricPrecision" image-rendering="optimizeQuality" transform="matrix(1,0,0,1,495.9604,309.4559)">
      <text x="0" y="11" xml:space="preserve" stroke="none" clip-path="url(#clipPath23)">UC-8 Add an Audio clip</text>
      <text x="0" y="25" xml:space="preserve" stroke="none" clip-path="url(#clipPath23)">to a Playlist</text>
    </g>
    <g font-family="sans-serif" font-size="11" color-rendering="optimizeQuality" stroke-miterlimit="1" color-interpolation="linearRGB" text-rendering="optimizeLegibility" stroke="white" fill="white" stroke-linecap="butt" shape-rendering="geometricPrecision" image-rendering="optimizeQuality" transform="matrix(1,0,0,1,454,400)">
      <ellipse cx="110.77995" cy="25" rx="110.77995" ry="25" stroke="none" clip-path="url(#clipPath24)" />
      <ellipse cx="110.77995" cy="25" rx="110.77995" ry="25" stroke="black" clip-path="url(#clipPath24)" fill="none" />
    </g>
    <g font-family="sans-serif" font-size="11" color-rendering="optimizeQuality" color-interpolation="linearRGB" text-rendering="optimizeLegibility" shape-rendering="geometricPrecision" image-rendering="optimizeQuality" transform="matrix(1,0,0,1,490.4467,416)">
      <text x="0" y="11" xml:space="preserve" stroke="none" clip-path="url(#clipPath25)">UC-6 Search for Audio clips</text>
    </g>
    <g font-family="sans-serif" font-size="11" color-rendering="optimizeQuality" stroke-miterlimit="1" color-interpolation="linearRGB" text-rendering="optimizeLegibility" stroke="white" fill="white" stroke-linecap="butt" shape-rendering="geometricPrecision" image-rendering="optimizeQuality" transform="matrix(1,0,0,1,454,490)">
      <ellipse cx="114.04615" cy="35.35535" rx="114.04615" ry="35.35535" stroke="none" clip-path="url(#clipPath26)" />
      <ellipse cx="114.04615" cy="35.35535" rx="114.04615" ry="35.35535" stroke="black" clip-path="url(#clipPath26)" fill="none" />
    </g>
    <g font-family="sans-serif" font-size="11" color-rendering="optimizeQuality" color-interpolation="linearRGB" text-rendering="optimizeLegibility" shape-rendering="geometricPrecision" image-rendering="optimizeQuality" transform="matrix(1,0,0,1,491.4033,502.3554)">
      <text x="0" y="11" xml:space="preserve" stroke="none" clip-path="url(#clipPath27)">UC-7 Mirror an Audio clip</text>
      <text x="0" y="25" xml:space="preserve" stroke="none" clip-path="url(#clipPath27)">from a remote Media archive</text>
      <text x="0" y="39" xml:space="preserve" stroke="none" clip-path="url(#clipPath27)">in Local storage</text>
    </g>
    <g font-family="sans-serif" font-size="11" color-rendering="optimizeQuality" stroke-miterlimit="1" color-interpolation="linearRGB" text-rendering="optimizeLegibility" stroke="white" fill="white" stroke-linecap="butt" shape-rendering="geometricPrecision" image-rendering="optimizeQuality" transform="matrix(1,0,0,1,434,590)">
      <ellipse cx="134.50185" cy="25.45585" rx="134.50185" ry="25.45585" stroke="none" clip-path="url(#clipPath28)" />
      <ellipse cx="134.50185" cy="25.45585" rx="134.50185" ry="25.45585" stroke="black" clip-path="url(#clipPath28)" fill="none" />
    </g>
    <g font-family="sans-serif" font-size="11" color-rendering="optimizeQuality" color-interpolation="linearRGB" text-rendering="optimizeLegibility" shape-rendering="geometricPrecision" image-rendering="optimizeQuality" transform="matrix(1,0,0,1,477.3947,599.4559)">
      <text x="0" y="11" xml:space="preserve" stroke="none" clip-path="url(#clipPath29)">UC-5 Add or update an Audio clip</text>
      <text x="0" y="25" xml:space="preserve" stroke="none" clip-path="url(#clipPath29)">to Media archive</text>
    </g>
    <g font-family="sans-serif" font-size="11" color-rendering="optimizeQuality" stroke-miterlimit="1" color-interpolation="linearRGB" text-rendering="optimizeLegibility" stroke="white" fill="white" stroke-linecap="butt" shape-rendering="geometricPrecision" image-rendering="optimizeQuality" transform="matrix(1,0,0,1,224,660)">
      <ellipse cx="110.3242" cy="25.45585" rx="110.3242" ry="25.45585" stroke="none" clip-path="url(#clipPath30)" />
      <ellipse cx="110.3242" cy="25.45585" rx="110.3242" ry="25.45585" stroke="black" clip-path="url(#clipPath30)" fill="none" />
    </g>
    <g font-family="sans-serif" font-size="11" color-rendering="optimizeQuality" color-interpolation="linearRGB" text-rendering="optimizeLegibility" shape-rendering="geometricPrecision" image-rendering="optimizeQuality" transform="matrix(1,0,0,1,260.3132,669.4559)">
      <text x="0" y="11" xml:space="preserve" stroke="none" clip-path="url(#clipPath31)">UC-9 Move the position</text>
      <text x="0" y="25" xml:space="preserve" stroke="none" clip-path="url(#clipPath31)">of an Audio clip in a Playlist</text>
    </g>
    <g font-family="sans-serif" font-size="11" color-rendering="optimizeQuality" stroke-miterlimit="1" color-interpolation="linearRGB" text-rendering="optimizeLegibility" stroke="white" fill="white" stroke-linecap="butt" shape-rendering="geometricPrecision" image-rendering="optimizeQuality" transform="matrix(1,0,0,1,34,520)">
      <path d="M25 21.33333396911621 C12.5 21.33333396911621 12.5 0 25 0 C37.5 0 37.5 21.33333396911621 25 21.33333396911621 M25 21.33333396911621 L25 26.66666603088379 M0 26.66666603088379 L50 26.66666603088379 M25 26.66666603088379 L25 53.33333206176758 M25 53.33333206176758 L0 80 M25 53.33333206176758 L50 80" stroke="none" clip-path="url(#clipPath32)" />
      <path d="M25 21.33333396911621 C12.5 21.33333396911621 12.5 0 25 0 C37.5 0 37.5 21.33333396911621 25 21.33333396911621 M25 21.33333396911621 L25 26.66666603088379 M0 26.66666603088379 L50 26.66666603088379 M25 26.66666603088379 L25 53.33333206176758 M25 53.33333206176758 L0 80 M25 53.33333206176758 L50 80" stroke="black" clip-path="url(#clipPath32)" fill="none" />
    </g>
    <g font-family="sans-serif" font-size="11" color-rendering="optimizeQuality" color-interpolation="linearRGB" text-rendering="optimizeLegibility" shape-rendering="geometricPrecision" image-rendering="optimizeQuality" transform="matrix(1,0,0,1,10.090800000000002,605)">
      <text x="0" y="11" xml:space="preserve" stroke="none" clip-path="url(#clipPath33)">Playlist maintainer</text>
    </g>
    <g font-family="sans-serif" font-size="11" color-rendering="optimizeQuality" stroke-miterlimit="1" color-interpolation="linearRGB" text-rendering="optimizeLegibility" stroke="white" fill="white" stroke-linecap="butt" shape-rendering="geometricPrecision" image-rendering="optimizeQuality" transform="matrix(1,0,0,1,814,130)">
      <path d="M25 21.33333396911621 C12.5 21.33333396911621 12.5 0 25 0 C37.5 0 37.5 21.33333396911621 25 21.33333396911621 M25 21.33333396911621 L25 26.66666603088379 M0 26.66666603088379 L50 26.66666603088379 M25 26.66666603088379 L25 53.33333206176758 M25 53.33333206176758 L0 80 M25 53.33333206176758 L50 80" stroke="none" clip-path="url(#clipPath34)" />
      <path d="M25 21.33333396911621 C12.5 21.33333396911621 12.5 0 25 0 C37.5 0 37.5 21.33333396911621 25 21.33333396911621 M25 21.33333396911621 L25 26.66666603088379 M0 26.66666603088379 L50 26.66666603088379 M25 26.66666603088379 L25 53.33333206176758 M25 53.33333206176758 L0 80 M25 53.33333206176758 L50 80" stroke="black" clip-path="url(#clipPath34)" fill="none" />
    </g>
    <g font-family="sans-serif" font-size="11" color-rendering="optimizeQuality" color-interpolation="linearRGB" text-rendering="optimizeLegibility" shape-rendering="geometricPrecision" image-rendering="optimizeQuality" transform="matrix(1,0,0,1,803.4836,215)">
      <text x="0" y="11" xml:space="preserve" stroke="none" clip-path="url(#clipPath35)">Local storage</text>
    </g>
    <g font-family="sans-serif" font-size="11" color-rendering="optimizeQuality" stroke-miterlimit="1" color-interpolation="linearRGB" text-rendering="optimizeLegibility" stroke="white" fill="white" stroke-linecap="butt" shape-rendering="geometricPrecision" image-rendering="optimizeQuality" transform="matrix(1,0,0,1,814,390)">
      <path d="M25 21.33333396911621 C12.5 21.33333396911621 12.5 0 25 0 C37.5 0 37.5 21.33333396911621 25 21.33333396911621 M25 21.33333396911621 L25 26.66666603088379 M0 26.66666603088379 L50 26.66666603088379 M25 26.66666603088379 L25 53.33333206176758 M25 53.33333206176758 L0 80 M25 53.33333206176758 L50 80" stroke="none" clip-path="url(#clipPath36)" />
      <path d="M25 21.33333396911621 C12.5 21.33333396911621 12.5 0 25 0 C37.5 0 37.5 21.33333396911621 25 21.33333396911621 M25 21.33333396911621 L25 26.66666603088379 M0 26.66666603088379 L50 26.66666603088379 M25 26.66666603088379 L25 53.33333206176758 M25 53.33333206176758 L0 80 M25 53.33333206176758 L50 80" stroke="black" clip-path="url(#clipPath36)" fill="none" />
    </g>
    <g font-family="sans-serif" font-size="11" color-rendering="optimizeQuality" color-interpolation="linearRGB" text-rendering="optimizeLegibility" shape-rendering="geometricPrecision" image-rendering="optimizeQuality" transform="matrix(1,0,0,1,802.3503,475)">
      <text x="0" y="11" xml:space="preserve" stroke="none" clip-path="url(#clipPath37)">Media archive</text>
    </g>
    <g font-family="sans-serif" font-size="11" color-rendering="optimizeQuality" stroke-miterlimit="1" color-interpolation="linearRGB" text-rendering="optimizeLegibility" stroke="white" fill="white" stroke-linecap="butt" shape-rendering="geometricPrecision" image-rendering="optimizeQuality" transform="matrix(1,0,0,1,804,770)">
      <path d="M25 21.33333396911621 C12.5 21.33333396911621 12.5 0 25 0 C37.5 0 37.5 21.33333396911621 25 21.33333396911621 M25 21.33333396911621 L25 26.66666603088379 M0 26.66666603088379 L50 26.66666603088379 M25 26.66666603088379 L25 53.33333206176758 M25 53.33333206176758 L0 80 M25 53.33333206176758 L50 80" stroke="none" clip-path="url(#clipPath38)" />
      <path d="M25 21.33333396911621 C12.5 21.33333396911621 12.5 0 25 0 C37.5 0 37.5 21.33333396911621 25 21.33333396911621 M25 21.33333396911621 L25 26.66666603088379 M0 26.66666603088379 L50 26.66666603088379 M25 26.66666603088379 L25 53.33333206176758 M25 53.33333206176758 L0 80 M25 53.33333206176758 L50 80" stroke="black" clip-path="url(#clipPath38)" fill="none" />
    </g>
    <g font-family="sans-serif" font-size="11" color-rendering="optimizeQuality" color-interpolation="linearRGB" text-rendering="optimizeLegibility" shape-rendering="geometricPrecision" image-rendering="optimizeQuality" transform="matrix(1,0,0,1,802.9636,855)">
      <text x="0" y="11" xml:space="preserve" stroke="none" clip-path="url(#clipPath39)">Scheduler</text>
    </g>
    <g font-family="sans-serif" font-size="11" color-rendering="optimizeQuality" stroke-miterlimit="1" color-interpolation="linearRGB" text-rendering="optimizeLegibility" stroke-linecap="butt" shape-rendering="geometricPrecision" image-rendering="optimizeQuality" transform="matrix(1,0,0,1,-26,-110)">
      <path d="M131.41140747070312 732 L273.51690673828125 878.0123291015625" clip-path="url(#clipPath1)" fill="none" />
    </g>
    <g font-family="sans-serif" font-size="11" color-rendering="optimizeQuality" stroke-miterlimit="1" color-interpolation="linearRGB" text-rendering="optimizeLegibility" stroke-linecap="butt" shape-rendering="geometricPrecision" image-rendering="optimizeQuality" transform="matrix(1,0,0,1,-26,-110)">
      <path d="M136.90919494628906 725.6641845703125 L250.98190307617188 792.0671997070312" clip-path="url(#clipPath1)" fill="none" />
    </g>
    <g font-family="sans-serif" font-size="11" color-rendering="optimizeQuality" stroke-miterlimit="1" color-interpolation="linearRGB" text-rendering="optimizeLegibility" stroke-linecap="butt" shape-rendering="geometricPrecision" image-rendering="optimizeQuality" transform="matrix(1,0,0,1,-26,-110)">
      <path d="M136.90919494628906 714.3637084960938 L480 770 L511.2243957519531 833.7753295898438" clip-path="url(#clipPath1)" fill="none" />
    </g>
    <g font-family="sans-serif" font-size="11" color-rendering="optimizeQuality" stroke-miterlimit="1" color-interpolation="linearRGB" text-rendering="optimizeLegibility" stroke-linecap="butt" shape-rendering="geometricPrecision" image-rendering="optimizeQuality" transform="matrix(1,0,0,1,-26,-110)">
      <path d="M830 925.455810546875 L690.4472045898438 925.455810546875" clip-path="url(#clipPath1)" fill="none" />
    </g>
    <g font-family="sans-serif" font-size="11" color-rendering="optimizeQuality" stroke-miterlimit="1" color-interpolation="linearRGB" text-rendering="optimizeLegibility" stroke-linecap="butt" shape-rendering="geometricPrecision" image-rendering="optimizeQuality" transform="matrix(1,0,0,1,-26,-110)">
      <path d="M136.90919494628906 731.5274047851562 L260 830 L460 850 L506.3013916015625 916.349609375" clip-path="url(#clipPath1)" fill="none" />
    </g>
    <g font-family="sans-serif" font-size="11" color-rendering="optimizeQuality" stroke-miterlimit="1" color-interpolation="linearRGB" text-rendering="optimizeLegibility" stroke-linecap="butt" shape-rendering="geometricPrecision" image-rendering="optimizeQuality" transform="matrix(1,0,0,1,-26,-110)">
      <path d="M110 630 L285.0893859863281 209.19129943847656" clip-path="url(#clipPath1)" fill="none" />
    </g>
    <g font-family="sans-serif" font-size="11" color-rendering="optimizeQuality" stroke-miterlimit="1" color-interpolation="linearRGB" text-rendering="optimizeLegibility" stroke-linecap="butt" shape-rendering="geometricPrecision" image-rendering="optimizeQuality" transform="matrix(1,0,0,1,-26,-110)">
      <path d="M840 240 L460.8804931640625 196.23899841308594" clip-path="url(#clipPath1)" fill="none" />
    </g>
    <g font-family="sans-serif" font-size="11" color-rendering="optimizeQuality" stroke-miterlimit="1" color-interpolation="linearRGB" text-rendering="optimizeLegibility" stroke-linecap="butt" shape-rendering="geometricPrecision" image-rendering="optimizeQuality" transform="matrix(1,0,0,1,-26,-110)">
      <path d="M110 630 L280 260 L480.0154113769531 245.8939971923828" clip-path="url(#clipPath1)" fill="none" />
    </g>
    <g font-family="sans-serif" font-size="11" color-rendering="optimizeQuality" stroke-miterlimit="1" color-interpolation="linearRGB" text-rendering="optimizeLegibility" stroke-linecap="butt" shape-rendering="geometricPrecision" image-rendering="optimizeQuality" transform="matrix(1,0,0,1,-26,-110)">
      <path d="M840 245.45579528808594 L688.5784912109375 245.45579528808594" clip-path="url(#clipPath1)" fill="none" />
    </g>
    <g font-family="sans-serif" font-size="11" color-rendering="optimizeQuality" stroke-miterlimit="1" color-interpolation="linearRGB" text-rendering="optimizeLegibility" stroke-linecap="butt" shape-rendering="geometricPrecision" image-rendering="optimizeQuality" transform="matrix(1,0,0,1,-26,-110)">
      <path d="M110 630 L279.5888977050781 305.9873962402344" clip-path="url(#clipPath1)" fill="none" />
    </g>
    <g font-family="sans-serif" font-size="11" color-rendering="optimizeQuality" stroke-miterlimit="1" color-interpolation="linearRGB" text-rendering="optimizeLegibility" stroke-linecap="butt" shape-rendering="geometricPrecision" image-rendering="optimizeQuality" transform="matrix(1,0,0,1,-26,-110)">
      <path d="M840 295.455810546875 L484.047607421875 295.455810546875" clip-path="url(#clipPath1)" fill="none" />
    </g>
    <g font-family="sans-serif" font-size="11" color-rendering="optimizeQuality" stroke-miterlimit="1" color-interpolation="linearRGB" text-rendering="optimizeLegibility" stroke-linecap="butt" shape-rendering="geometricPrecision" image-rendering="optimizeQuality" transform="matrix(1,0,0,1,-26,-110)">
      <path d="M110 630 L471.8023986816406 349.69500732421875" clip-path="url(#clipPath1)" fill="none" />
    </g>
    <g font-family="sans-serif" font-size="11" color-rendering="optimizeQuality" stroke-miterlimit="1" color-interpolation="linearRGB" text-rendering="optimizeLegibility" stroke-linecap="butt" shape-rendering="geometricPrecision" image-rendering="optimizeQuality" transform="matrix(1,0,0,1,-26,-110)">
      <path d="M840 320 L672.5366821289062 344.1122131347656" clip-path="url(#clipPath1)" fill="none" />
    </g>
    <g font-family="sans-serif" font-size="11" color-rendering="optimizeQuality" stroke-miterlimit="1" color-interpolation="linearRGB" text-rendering="optimizeLegibility" stroke-linecap="butt" shape-rendering="geometricPrecision" image-rendering="optimizeQuality" transform="matrix(1,0,0,1,-26,-110)">
      <path d="M110 630 L490.84381103515625 438.8330078125" clip-path="url(#clipPath1)" fill="none" />
    </g>
    <g font-family="sans-serif" font-size="11" color-rendering="optimizeQuality" stroke-miterlimit="1" color-interpolation="linearRGB" text-rendering="optimizeLegibility" stroke-linecap="butt" shape-rendering="geometricPrecision" image-rendering="optimizeQuality" transform="matrix(1,0,0,1,-26,-110)">
      <path d="M826.4835815429688 329.3263854980469 L679.3496704101562 430.8493957519531" clip-path="url(#clipPath1)" fill="none" />
    </g>
    <g font-family="sans-serif" font-size="11" color-rendering="optimizeQuality" stroke-miterlimit="1" color-interpolation="linearRGB" text-rendering="optimizeLegibility" stroke-linecap="butt" shape-rendering="geometricPrecision" image-rendering="optimizeQuality" transform="matrix(1,0,0,1,-26,-110)">
      <path d="M840 500 L680.418701171875 438.0758972167969" clip-path="url(#clipPath1)" fill="none" />
    </g>
    <g font-family="sans-serif" font-size="11" color-rendering="optimizeQuality" stroke-miterlimit="1" color-interpolation="linearRGB" text-rendering="optimizeLegibility" stroke-linecap="butt" shape-rendering="geometricPrecision" image-rendering="optimizeQuality" transform="matrix(1,0,0,1,-26,-110)">
      <path d="M110 630 L480.1798095703125 536.4238891601562" clip-path="url(#clipPath1)" fill="none" />
    </g>
    <g font-family="sans-serif" font-size="11" color-rendering="optimizeQuality" stroke-miterlimit="1" color-interpolation="linearRGB" text-rendering="optimizeLegibility" stroke-linecap="butt" shape-rendering="geometricPrecision" image-rendering="optimizeQuality" transform="matrix(1,0,0,1,-26,-110)">
      <path d="M840 535 L701.5598754882812 535" clip-path="url(#clipPath1)" fill="none" />
    </g>
    <g font-family="sans-serif" font-size="11" color-rendering="optimizeQuality" stroke-miterlimit="1" color-interpolation="linearRGB" text-rendering="optimizeLegibility" stroke-linecap="butt" shape-rendering="geometricPrecision" image-rendering="optimizeQuality" transform="matrix(1,0,0,1,-26,-110)">
      <path d="M826.4835815429688 339.4729919433594 L696.131591796875 527.2702026367188" clip-path="url(#clipPath1)" fill="none" />
    </g>
    <g font-family="sans-serif" font-size="11" color-rendering="optimizeQuality" stroke-miterlimit="1" color-interpolation="linearRGB" text-rendering="optimizeLegibility" stroke-linecap="butt" shape-rendering="geometricPrecision" image-rendering="optimizeQuality" transform="matrix(1,0,0,1,-26,-110)">
      <path d="M110 635.3552856445312 L480 635.3552856445312" clip-path="url(#clipPath1)" fill="none" />
    </g>
    <g font-family="sans-serif" font-size="11" color-rendering="optimizeQuality" stroke-miterlimit="1" color-interpolation="linearRGB" text-rendering="optimizeLegibility" stroke-linecap="butt" shape-rendering="geometricPrecision" image-rendering="optimizeQuality" transform="matrix(1,0,0,1,-26,-110)">
      <path d="M828.9597778320312 342 L691.0714111328125 616.7738037109375" clip-path="url(#clipPath1)" fill="none" />
    </g>
    <g font-family="sans-serif" font-size="11" color-rendering="optimizeQuality" stroke-miterlimit="1" color-interpolation="linearRGB" text-rendering="optimizeLegibility" stroke-linecap="butt" shape-rendering="geometricPrecision" image-rendering="optimizeQuality" transform="matrix(1,0,0,1,-26,-110)">
      <path d="M825.3502807617188 585.6472778320312 L707.2864990234375 631.1599731445312" clip-path="url(#clipPath1)" fill="none" />
    </g>
    <g font-family="sans-serif" font-size="11" color-rendering="optimizeQuality" stroke-miterlimit="1" color-interpolation="linearRGB" text-rendering="optimizeLegibility" stroke-linecap="butt" shape-rendering="geometricPrecision" image-rendering="optimizeQuality" transform="matrix(1,0,0,1,-26,-110)">
      <path d="M832.7758178710938 342 L711.0338134765625 712.7443237304688" clip-path="url(#clipPath1)" fill="none" />
    </g>
    <g font-family="sans-serif" font-size="11" color-rendering="optimizeQuality" stroke-miterlimit="1" color-interpolation="linearRGB" text-rendering="optimizeLegibility" stroke-linecap="butt" shape-rendering="geometricPrecision" image-rendering="optimizeQuality" transform="matrix(1,0,0,1,-26,-110)">
      <path d="M110 710 L460.0046081542969 725.2459716796875" clip-path="url(#clipPath1)" fill="none" />
    </g>
    <g font-family="sans-serif" font-size="11" color-rendering="optimizeQuality" stroke-miterlimit="1" color-interpolation="linearRGB" text-rendering="optimizeLegibility" stroke-linecap="butt" shape-rendering="geometricPrecision" image-rendering="optimizeQuality" transform="matrix(1,0,0,1,-26,-110)">
      <path d="M825.3502807617188 597.8850708007812 L725.551025390625 719.72509765625" clip-path="url(#clipPath1)" fill="none" />
    </g>
    <g font-family="sans-serif" font-size="11" color-rendering="optimizeQuality" stroke-miterlimit="1" color-interpolation="linearRGB" text-rendering="optimizeLegibility" stroke-linecap="butt" shape-rendering="geometricPrecision" image-rendering="optimizeQuality" transform="matrix(1,0,0,1,-26,-110)">
      <path d="M124.83049774169922 732 L276.2969055175781 956.689697265625" clip-path="url(#clipPath1)" fill="none" />
    </g>
  </g>
</svg>
