<?xml version="1.0" encoding="UTF-8"?>

<!DOCTYPE svg PUBLIC '-//W3C//DTD SVG 1.0//EN' 'http://www.w3.org/TR/2001/REC-SVG-20010904/DTD/svg10.dtd'>
<svg stroke-width="1" stroke-dashoffset="0" font-size="12" stroke-dasharray="none" color-rendering="auto" font-weight="normal" color-interpolation="auto" stroke-linejoin="miter" fill="black" image-rendering="auto" font-family="&apos;sansserif&apos;" stroke-opacity="1" stroke-miterlimit="10" stroke="black" text-rendering="auto" font-style="normal" stroke-linecap="square" fill-opacity="1" shape-rendering="auto" xmlns="http://www.w3.org/2000/svg" xmlns:xlink="http://www.w3.org/1999/xlink">
  <!--Generated by the Batik Graphics2D SVG Generator-->
  <defs id="genericDefs" />
  <g>
    <defs id="defs1">
      <clipPath clipPathUnits="userSpaceOnUse" id="clipPath1">
        <path d="M-82 10 L-82 251 L755 251 L755 10 Z" />
      </clipPath>
      <clipPath clipPathUnits="userSpaceOnUse" id="clipPath2">
        <path d="M0 0 L0 241 L837 241 L837 0 Z" />
      </clipPath>
      <clipPath clipPathUnits="userSpaceOnUse" id="clipPath3">
        <path d="M-672 -10 L-672 231 L165 231 L165 -10 Z" />
      </clipPath>
      <clipPath clipPathUnits="userSpaceOnUse" id="clipPath4">
        <path d="M-678 -16 L-678 225 L159 225 L159 -16 Z" />
      </clipPath>
      <clipPath clipPathUnits="userSpaceOnUse" id="clipPath5">
        <path d="M-746.3472290039062 -16 L-746.3472290039062 225 L90.65280151367188 225 L90.65280151367188 -16 Z" />
      </clipPath>
      <clipPath clipPathUnits="userSpaceOnUse" id="clipPath6">
        <path d="M-749.8275756835938 -16 L-749.8275756835938 225 L87.17240142822266 225 L87.17240142822266 -16 Z" />
      </clipPath>
      <clipPath clipPathUnits="userSpaceOnUse" id="clipPath7">
        <path d="M-744.43017578125 -106 L-744.43017578125 135 L92.5698013305664 135 L92.5698013305664 -106 Z" />
      </clipPath>
      <clipPath clipPathUnits="userSpaceOnUse" id="clipPath8">
        <path d="M-102 -10 L-102 231 L735 231 L735 -10 Z" />
      </clipPath>
      <clipPath clipPathUnits="userSpaceOnUse" id="clipPath9">
        <path d="M-12.417200088500977 -42 L-12.417200088500977 199 L824.5828247070312 199 L824.5828247070312 -42 Z" />
      </clipPath>
      <clipPath clipPathUnits="userSpaceOnUse" id="clipPath10">
        <path d="M-110.28389739990234 -42 L-110.28389739990234 199 L726.7161254882812 199 L726.7161254882812 -42 Z" />
      </clipPath>
      <clipPath clipPathUnits="userSpaceOnUse" id="clipPath11">
        <path d="M-113.76439666748047 -42 L-113.76439666748047 199 L723.235595703125 199 L723.235595703125 -42 Z" />
      </clipPath>
      <clipPath clipPathUnits="userSpaceOnUse" id="clipPath12">
        <path d="M-442 -10 L-442 231 L395 231 L395 -10 Z" />
      </clipPath>
      <clipPath clipPathUnits="userSpaceOnUse" id="clipPath13">
        <path d="M-448 -16 L-448 225 L389 225 L389 -16 Z" />
      </clipPath>
      <clipPath clipPathUnits="userSpaceOnUse" id="clipPath14">
        <path d="M-485.4740905761719 -16 L-485.4740905761719 225 L351.5259094238281 225 L351.5259094238281 -16 Z" />
      </clipPath>
      <clipPath clipPathUnits="userSpaceOnUse" id="clipPath15">
        <path d="M-488.95458984375 -16 L-488.95458984375 225 L348.04541015625 225 L348.04541015625 -16 Z" />
      </clipPath>
      <clipPath clipPathUnits="userSpaceOnUse" id="clipPath16">
        <path d="M-499.6005859375 -75 L-499.6005859375 166 L337.3994140625 166 L337.3994140625 -75 Z" />
      </clipPath>
      <clipPath clipPathUnits="userSpaceOnUse" id="clipPath17">
        <path d="M-499.6005859375 -145 L-499.6005859375 96 L337.3994140625 96 L337.3994140625 -145 Z" />
      </clipPath>
      <clipPath clipPathUnits="userSpaceOnUse" id="clipPath18">
        <path d="M499.6005859375 75 L499.6005859375 -166 L-337.3994140625 -166 L-337.3994140625 75 Z" />
      </clipPath>
      <clipPath clipPathUnits="userSpaceOnUse" id="clipPath19">
        <path d="M-198.8061981201172 -51 L-198.8061981201172 190 L638.1937866210938 190 L638.1937866210938 -51 Z" />
      </clipPath>
      <clipPath clipPathUnits="userSpaceOnUse" id="clipPath20">
        <path d="M-204.2866973876953 -51 L-204.2866973876953 190 L632.7133178710938 190 L632.7133178710938 -51 Z" />
      </clipPath>
      <clipPath clipPathUnits="userSpaceOnUse" id="clipPath21">
        <path d="M-209.76710510253906 -51 L-209.76710510253906 190 L627.23291015625 190 L627.23291015625 -51 Z" />
      </clipPath>
      <clipPath clipPathUnits="userSpaceOnUse" id="clipPath22">
        <path d="M-282.7333984375 -51 L-282.7333984375 190 L554.2666015625 190 L554.2666015625 -51 Z" />
      </clipPath>
      <clipPath clipPathUnits="userSpaceOnUse" id="clipPath23">
        <path d="M-294.9580078125 -51 L-294.9580078125 190 L542.0419921875 190 L542.0419921875 -51 Z" />
      </clipPath>
      <clipPath clipPathUnits="userSpaceOnUse" id="clipPath24">
        <path d="M-361.0010070800781 -51 L-361.0010070800781 190 L475.9989929199219 190 L475.9989929199219 -51 Z" />
      </clipPath>
      <clipPath clipPathUnits="userSpaceOnUse" id="clipPath25">
        <path d="M-364.5780944824219 -51 L-364.5780944824219 190 L472.4219055175781 190 L472.4219055175781 -51 Z" />
      </clipPath>
      <clipPath clipPathUnits="userSpaceOnUse" id="clipPath26">
        <path d="M-409.21728515625 -51 L-409.21728515625 190 L427.78271484375 190 L427.78271484375 -51 Z" />
      </clipPath>
      <clipPath clipPathUnits="userSpaceOnUse" id="clipPath27">
        <path d="M499.6005859375 145 L499.6005859375 -96 L-337.3994140625 -96 L-337.3994140625 145 Z" />
      </clipPath>
      <clipPath clipPathUnits="userSpaceOnUse" id="clipPath28">
        <path d="M-116.41629791259766 -121 L-116.41629791259766 120 L720.5836791992188 120 L720.5836791992188 -121 Z" />
      </clipPath>
      <clipPath clipPathUnits="userSpaceOnUse" id="clipPath29">
        <path d="M-121.89679718017578 -121 L-121.89679718017578 120 L715.1032104492188 120 L715.1032104492188 -121 Z" />
      </clipPath>
      <clipPath clipPathUnits="userSpaceOnUse" id="clipPath30">
        <path d="M-127.377197265625 -121 L-127.377197265625 120 L709.622802734375 120 L709.622802734375 -121 Z" />
      </clipPath>
      <clipPath clipPathUnits="userSpaceOnUse" id="clipPath31">
        <path d="M-294.402099609375 -121 L-294.402099609375 120 L542.597900390625 120 L542.597900390625 -121 Z" />
      </clipPath>
      <clipPath clipPathUnits="userSpaceOnUse" id="clipPath32">
        <path d="M-297.97930908203125 -121 L-297.97930908203125 120 L539.0206909179688 120 L539.0206909179688 -121 Z" />
      </clipPath>
      <clipPath clipPathUnits="userSpaceOnUse" id="clipPath33">
        <path d="M-358.7262878417969 -121 L-358.7262878417969 120 L478.2737121582031 120 L478.2737121582031 -121 Z" />
      </clipPath>
      <clipPath clipPathUnits="userSpaceOnUse" id="clipPath34">
        <path d="M-362.206787109375 -121 L-362.206787109375 120 L474.793212890625 120 L474.793212890625 -121 Z" />
      </clipPath>
      <clipPath clipPathUnits="userSpaceOnUse" id="clipPath35">
        <path d="M-437.0368957519531 -121 L-437.0368957519531 120 L399.9631042480469 120 L399.9631042480469 -121 Z" />
      </clipPath>
      <clipPath clipPathUnits="userSpaceOnUse" id="clipPath36">
        <path d="M-440.5173034667969 -121 L-440.5173034667969 120 L396.4826965332031 120 L396.4826965332031 -121 Z" />
      </clipPath>
      <clipPath clipPathUnits="userSpaceOnUse" id="clipPath37">
        <path d="M-491.6072082519531 -121 L-491.6072082519531 120 L345.3927917480469 120 L345.3927917480469 -121 Z" />
      </clipPath>
      <clipPath clipPathUnits="userSpaceOnUse" id="clipPath38">
        <path d="M744.43017578125 106 L744.43017578125 -135 L-92.5698013305664 -135 L-92.5698013305664 106 Z" />
      </clipPath>
      <clipPath clipPathUnits="userSpaceOnUse" id="clipPath39">
        <path d="M-520.0213012695312 -82 L-520.0213012695312 159 L316.97869873046875 159 L316.97869873046875 -82 Z" />
      </clipPath>
      <clipPath clipPathUnits="userSpaceOnUse" id="clipPath40">
        <path d="M-525.5017700195312 -82 L-525.5017700195312 159 L311.4981994628906 159 L311.4981994628906 -82 Z" />
      </clipPath>
      <clipPath clipPathUnits="userSpaceOnUse" id="clipPath41">
        <path d="M-530.982177734375 -82 L-530.982177734375 159 L306.0177917480469 159 L306.0177917480469 -82 Z" />
      </clipPath>
      <clipPath clipPathUnits="userSpaceOnUse" id="clipPath42">
        <path d="M-603.948486328125 -82 L-603.948486328125 159 L233.05149841308594 159 L233.05149841308594 -82 Z" />
      </clipPath>
      <clipPath clipPathUnits="userSpaceOnUse" id="clipPath43">
        <path d="M-616.173095703125 -82 L-616.173095703125 159 L220.826904296875 159 L220.826904296875 -82 Z" />
      </clipPath>
      <clipPath clipPathUnits="userSpaceOnUse" id="clipPath44">
        <path d="M-682.2161254882812 -82 L-682.2161254882812 159 L154.78390502929688 159 L154.78390502929688 -82 Z" />
      </clipPath>
      <clipPath clipPathUnits="userSpaceOnUse" id="clipPath45">
        <path d="M-685.793212890625 -82 L-685.793212890625 159 L151.20680236816406 159 L151.20680236816406 -82 Z" />
      </clipPath>
      <clipPath clipPathUnits="userSpaceOnUse" id="clipPath46">
        <path d="M-730.432373046875 -82 L-730.432373046875 159 L106.56759643554688 159 L106.56759643554688 -82 Z" />
      </clipPath>
      <clipPath clipPathUnits="userSpaceOnUse" id="clipPath47">
        <path d="M744.43017578125 176 L744.43017578125 -65 L-92.5698013305664 -65 L-92.5698013305664 176 Z" />
      </clipPath>
      <clipPath clipPathUnits="userSpaceOnUse" id="clipPath48">
        <path d="M-516.5059204101562 -152 L-516.5059204101562 89 L320.4941101074219 89 L320.4941101074219 -152 Z" />
      </clipPath>
      <clipPath clipPathUnits="userSpaceOnUse" id="clipPath49">
        <path d="M-521.9863891601562 -152 L-521.9863891601562 89 L315.01361083984375 89 L315.01361083984375 -152 Z" />
      </clipPath>
      <clipPath clipPathUnits="userSpaceOnUse" id="clipPath50">
        <path d="M-527.466796875 -152 L-527.466796875 89 L309.533203125 89 L309.533203125 -152 Z" />
      </clipPath>
      <clipPath clipPathUnits="userSpaceOnUse" id="clipPath51">
        <path d="M-588.2139282226562 -152 L-588.2139282226562 89 L248.78610229492188 89 L248.78610229492188 -152 Z" />
      </clipPath>
      <clipPath clipPathUnits="userSpaceOnUse" id="clipPath52">
        <path d="M-600.4384765625 -152 L-600.4384765625 89 L236.56149291992188 89 L236.56149291992188 -152 Z" />
      </clipPath>
      <clipPath clipPathUnits="userSpaceOnUse" id="clipPath53">
        <path d="M-679.7158203125 -152 L-679.7158203125 89 L157.28419494628906 89 L157.28419494628906 -152 Z" />
      </clipPath>
      <clipPath clipPathUnits="userSpaceOnUse" id="clipPath54">
        <path d="M-683.2930297851562 -152 L-683.2930297851562 89 L153.70700073242188 89 L153.70700073242188 -152 Z" />
      </clipPath>
      <clipPath clipPathUnits="userSpaceOnUse" id="clipPath55">
        <path d="M-733.9478149414062 -152 L-733.9478149414062 89 L103.05220031738281 89 L103.05220031738281 -152 Z" />
      </clipPath>
    </defs>
    <g color-rendering="optimizeQuality" stroke-dasharray="5,5" stroke-miterlimit="1" color-interpolation="linearRGB" text-rendering="optimizeLegibility" stroke-linecap="butt" shape-rendering="geometricPrecision" image-rendering="optimizeQuality" transform="matrix(1,0,0,1,672,10)">
      <path d="M77.9301986694336 0.5 L77.9301986694336 220.5" clip-path="url(#clipPath3)" fill="none" />
      <path d="M0.5 0.5 L154.3603973388672 0.5 L154.3603973388672 25.5 L0.5 25.5 Z" stroke="none" clip-path="url(#clipPath3)" fill="white" />
      <path d="M0.5 0.5 L154.3603973388672 0.5 L154.3603973388672 25.5 L0.5 25.5 Z" stroke-dasharray="none" clip-path="url(#clipPath3)" fill="none" />
    </g>
    <g font-family="sans-serif" font-size="11" color-rendering="optimizeQuality" color-interpolation="linearRGB" text-rendering="optimizeLegibility" shape-rendering="geometricPrecision" image-rendering="optimizeQuality" transform="matrix(1,0,0,1,678,16)">
      <text x="0" y="11" xml:space="preserve" stroke="none" clip-path="url(#clipPath4)">local storage</text>
      <line x1="0" y1="12.5" x2="68.34716796875" y2="12.5" clip-path="url(#clipPath4)" fill="none" />
    </g>
    <g font-family="sans-serif" font-size="11" color-rendering="optimizeQuality" color-interpolation="linearRGB" text-rendering="optimizeLegibility" shape-rendering="geometricPrecision" image-rendering="optimizeQuality" transform="matrix(1,0,0,1,746.3472,16)">
      <text x="0" y="11" xml:space="preserve" stroke="none" clip-path="url(#clipPath5)">:</text>
      <line x1="0" y1="12.5" x2="3.48046875" y2="12.5" clip-path="url(#clipPath5)" fill="none" />
    </g>
    <g font-family="sans-serif" font-size="11" color-rendering="optimizeQuality" color-interpolation="linearRGB" text-rendering="optimizeLegibility" shape-rendering="geometricPrecision" image-rendering="optimizeQuality" transform="matrix(1,0,0,1,749.8276,16)">
      <text x="0" y="11" xml:space="preserve" stroke="none" clip-path="url(#clipPath6)">Local storage</text>
      <line x1="0" y1="12.5" x2="71.03271484375" y2="12.5" clip-path="url(#clipPath6)" fill="none" />
    </g>
    <g font-family="sans-serif" font-size="11" color-rendering="optimizeQuality" stroke-miterlimit="1" color-interpolation="linearRGB" text-rendering="optimizeLegibility" stroke="white" fill="white" stroke-linecap="butt" shape-rendering="geometricPrecision" image-rendering="optimizeQuality" transform="matrix(1,0,0,1,744.4302,106)">
      <path d="M0.5 0.5 L9.5 0.5 L9.5 124.5 L0.5 124.5 Z" stroke="none" clip-path="url(#clipPath7)" />
      <path d="M0.5 0.5 L9.5 0.5 L9.5 124.5 L0.5 124.5 Z" stroke="black" clip-path="url(#clipPath7)" fill="none" />
    </g>
    <g font-family="sans-serif" font-size="11" color-rendering="optimizeQuality" stroke-miterlimit="1" color-interpolation="linearRGB" text-rendering="optimizeLegibility" stroke="white" fill="white" stroke-linecap="butt" shape-rendering="geometricPrecision" image-rendering="optimizeQuality" transform="matrix(1,0,0,1,102,10)">
      <path d="M10.5 48.5 L10.5 167.5" stroke="none" clip-path="url(#clipPath8)" />
      <path d="M10.5 48.5 L10.5 167.5" stroke-dasharray="5,5" stroke="black" clip-path="url(#clipPath8)" fill="none" />
      <path d="M10 8 C5 8 5 0 10 0 C15 0 15 8 10 8 M10 8 L10 10 M0 10 L20 10 M10 10 L10 20 M10 20 L0 30 M10 20 L20 30" stroke-dasharray="5,5" stroke="none" clip-path="url(#clipPath8)" />
      <path d="M10 8 C5 8 5 0 10 0 C15 0 15 8 10 8 M10 8 L10 10 M0 10 L20 10 M10 10 L10 20 M10 20 L0 30 M10 20 L20 30" stroke="black" clip-path="url(#clipPath8)" fill="none" />
    </g>
    <g font-family="sans-serif" font-size="11" color-rendering="optimizeQuality" color-interpolation="linearRGB" text-rendering="optimizeLegibility" shape-rendering="geometricPrecision" image-rendering="optimizeQuality" transform="matrix(1,0,0,1,12.417199999999994,42)">
      <text x="0" y="11" xml:space="preserve" stroke="none" clip-path="url(#clipPath9)">playlist Maintainer</text>
      <line x1="0" y1="12.5" x2="97.86669921875" y2="12.5" clip-path="url(#clipPath9)" fill="none" />
    </g>
    <g font-family="sans-serif" font-size="11" color-rendering="optimizeQuality" color-interpolation="linearRGB" text-rendering="optimizeLegibility" shape-rendering="geometricPrecision" image-rendering="optimizeQuality" transform="matrix(1,0,0,1,110.28389999999999,42)">
      <text x="0" y="11" xml:space="preserve" stroke="none" clip-path="url(#clipPath10)">:</text>
      <line x1="0" y1="12.5" x2="3.48046875" y2="12.5" clip-path="url(#clipPath10)" fill="none" />
    </g>
    <g font-family="sans-serif" font-size="11" color-rendering="optimizeQuality" color-interpolation="linearRGB" text-rendering="optimizeLegibility" shape-rendering="geometricPrecision" image-rendering="optimizeQuality" transform="matrix(1,0,0,1,113.7644,42)">
      <text x="0" y="11" xml:space="preserve" stroke="none" clip-path="url(#clipPath11)">Playlist maintainer</text>
      <line x1="0" y1="12.5" x2="97.818359375" y2="12.5" clip-path="url(#clipPath11)" fill="none" />
    </g>
    <g font-family="sans-serif" font-size="11" color-rendering="optimizeQuality" stroke-miterlimit="1" color-interpolation="linearRGB" text-rendering="optimizeLegibility" stroke="white" fill="white" stroke-linecap="butt" shape-rendering="geometricPrecision" image-rendering="optimizeQuality" transform="matrix(1,0,0,1,442,10)">
      <path d="M63.10060119628906 0.5 L63.10060119628906 167.5" stroke="none" clip-path="url(#clipPath12)" />
      <path d="M63.10060119628906 0.5 L63.10060119628906 167.5" stroke-dasharray="5,5" stroke="black" clip-path="url(#clipPath12)" fill="none" />
      <path d="M0.5 0.5 L124.70120239257812 0.5 L124.70120239257812 25.5 L0.5 25.5 Z" stroke-dasharray="5,5" stroke="none" clip-path="url(#clipPath12)" />
      <path d="M0.5 0.5 L124.70120239257812 0.5 L124.70120239257812 25.5 L0.5 25.5 Z" stroke="black" clip-path="url(#clipPath12)" fill="none" />
    </g>
    <g font-family="sans-serif" font-size="11" color-rendering="optimizeQuality" color-interpolation="linearRGB" text-rendering="optimizeLegibility" shape-rendering="geometricPrecision" image-rendering="optimizeQuality" transform="matrix(1,0,0,1,448,16)">
      <text x="0" y="11" xml:space="preserve" stroke="none" clip-path="url(#clipPath13)">system</text>
      <line x1="0" y1="12.5" x2="37.47412109375" y2="12.5" clip-path="url(#clipPath13)" fill="none" />
    </g>
    <g font-family="sans-serif" font-size="11" color-rendering="optimizeQuality" color-interpolation="linearRGB" text-rendering="optimizeLegibility" shape-rendering="geometricPrecision" image-rendering="optimizeQuality" transform="matrix(1,0,0,1,485.4741,16)">
      <text x="0" y="11" xml:space="preserve" stroke="none" clip-path="url(#clipPath14)">:</text>
      <line x1="0" y1="12.5" x2="3.48046875" y2="12.5" clip-path="url(#clipPath14)" fill="none" />
    </g>
    <g font-family="sans-serif" font-size="11" color-rendering="optimizeQuality" color-interpolation="linearRGB" text-rendering="optimizeLegibility" shape-rendering="geometricPrecision" image-rendering="optimizeQuality" transform="matrix(1,0,0,1,488.9546,16)">
      <text x="0" y="11" xml:space="preserve" stroke="none" clip-path="url(#clipPath15)">Playlist editor</text>
      <line x1="0" y1="12.5" x2="72.24658203125" y2="12.5" clip-path="url(#clipPath15)" fill="none" />
    </g>
    <g font-family="sans-serif" font-size="11" color-rendering="optimizeQuality" stroke-miterlimit="1" color-interpolation="linearRGB" text-rendering="optimizeLegibility" stroke="white" fill="white" stroke-linecap="butt" shape-rendering="geometricPrecision" image-rendering="optimizeQuality" transform="matrix(1,0,0,1,499.6006,75)">
      <path d="M0.5 0.5 L9.5 0.5 L9.5 31.5 L0.5 31.5 Z" stroke="none" clip-path="url(#clipPath16)" />
      <path d="M0.5 0.5 L9.5 0.5 L9.5 31.5 L0.5 31.5 Z" stroke="black" clip-path="url(#clipPath16)" fill="none" />
    </g>
    <g font-family="sans-serif" font-size="11" color-rendering="optimizeQuality" stroke-miterlimit="1" color-interpolation="linearRGB" text-rendering="optimizeLegibility" stroke="white" fill="white" stroke-linecap="butt" shape-rendering="geometricPrecision" image-rendering="optimizeQuality" transform="matrix(1,0,0,1,499.6006,145)">
      <path d="M0.5 0.5 L9.5 0.5 L9.5 31.5 L0.5 31.5 Z" stroke="none" clip-path="url(#clipPath17)" />
      <path d="M0.5 0.5 L9.5 0.5 L9.5 31.5 L0.5 31.5 Z" stroke="black" clip-path="url(#clipPath17)" fill="none" />
    </g>
    <g font-family="sans-serif" font-size="11" color-rendering="optimizeQuality" stroke-miterlimit="1" color-interpolation="linearRGB" text-rendering="optimizeLegibility" stroke-linecap="butt" shape-rendering="geometricPrecision" image-rendering="optimizeQuality" transform="matrix(1,0,0,1,82,-10)">
      <path d="M30 85 L417.6005859375 85" clip-path="url(#clipPath1)" fill="none" />
      <path d="M12 -6 L0 0 L12 6 Z" stroke="none" clip-path="url(#clipPath18)" transform="matrix(-0.9999999999999999,-3.219646771412954E-15,3.219646771412954E-15,-0.9999999999999999,417.6006,85)" />
      <path d="M12 -6 L0 0 L12 6 Z" stroke-miterlimit="10" clip-path="url(#clipPath18)" fill="none" stroke-linecap="square" transform="matrix(-0.9999999999999999,-3.219646771412954E-15,3.219646771412954E-15,-0.9999999999999999,417.6006,85)" />
    </g>
    <g font-family="sans-serif" font-size="11" color-rendering="optimizeQuality" color-interpolation="linearRGB" text-rendering="optimizeLegibility" shape-rendering="geometricPrecision" image-rendering="optimizeQuality" transform="matrix(1,0,0,1,198.8062,51)">
      <text x="0" y="11" xml:space="preserve" stroke="none" clip-path="url(#clipPath19)"> </text>
    </g>
    <g font-family="sans-serif" font-size="11" color-rendering="optimizeQuality" color-interpolation="linearRGB" text-rendering="optimizeLegibility" shape-rendering="geometricPrecision" image-rendering="optimizeQuality" transform="matrix(1,0,0,1,204.2867,51)">
      <text x="0" y="11" xml:space="preserve" stroke="none" clip-path="url(#clipPath20)">:</text>
    </g>
    <g font-family="sans-serif" font-size="11" color-rendering="optimizeQuality" color-interpolation="linearRGB" text-rendering="optimizeLegibility" shape-rendering="geometricPrecision" image-rendering="optimizeQuality" transform="matrix(1,0,0,1,209.7671,51)">
      <text x="0" y="11" xml:space="preserve" stroke="none" clip-path="url(#clipPath21)">authenticated</text>
    </g>
    <g font-family="sans-serif" font-size="11" color-rendering="optimizeQuality" color-interpolation="linearRGB" text-rendering="optimizeLegibility" shape-rendering="geometricPrecision" image-rendering="optimizeQuality" transform="matrix(1,0,0,1,282.7334,51)">
      <text x="0" y="11" xml:space="preserve" stroke="none" clip-path="url(#clipPath22)">:=</text>
    </g>
    <g font-family="sans-serif" font-size="11" color-rendering="optimizeQuality" color-interpolation="linearRGB" text-rendering="optimizeLegibility" shape-rendering="geometricPrecision" image-rendering="optimizeQuality" transform="matrix(1,0,0,1,294.95799999999997,51)">
      <text x="0" y="11" xml:space="preserve" stroke="none" clip-path="url(#clipPath23)">authenticate</text>
    </g>
    <g font-family="sans-serif" font-size="11" color-rendering="optimizeQuality" color-interpolation="linearRGB" text-rendering="optimizeLegibility" shape-rendering="geometricPrecision" image-rendering="optimizeQuality" transform="matrix(1,0,0,1,361.001,51)">
      <text x="0" y="11" xml:space="preserve" stroke="none" clip-path="url(#clipPath24)">(</text>
    </g>
    <g font-family="sans-serif" font-size="11" color-rendering="optimizeQuality" color-interpolation="linearRGB" text-rendering="optimizeLegibility" shape-rendering="geometricPrecision" image-rendering="optimizeQuality" transform="matrix(1,0,0,1,364.5781,51)">
      <text x="0" y="11" xml:space="preserve" stroke="none" clip-path="url(#clipPath25)">authInfo</text>
    </g>
    <g font-family="sans-serif" font-size="11" color-rendering="optimizeQuality" color-interpolation="linearRGB" text-rendering="optimizeLegibility" shape-rendering="geometricPrecision" image-rendering="optimizeQuality" transform="matrix(1,0,0,1,409.2173,51)">
      <text x="0" y="11" xml:space="preserve" stroke="none" clip-path="url(#clipPath26)">)</text>
    </g>
    <g font-family="sans-serif" font-size="11" color-rendering="optimizeQuality" stroke-miterlimit="1" color-interpolation="linearRGB" text-rendering="optimizeLegibility" stroke-linecap="butt" shape-rendering="geometricPrecision" image-rendering="optimizeQuality" transform="matrix(1,0,0,1,82,-10)">
      <path d="M30 155 L417.6005859375 155" clip-path="url(#clipPath1)" fill="none" />
      <path d="M12 -6 L0 0 L12 6 Z" stroke="none" clip-path="url(#clipPath27)" transform="matrix(-1,1.2739809207573671E-14,-1.2739809207573671E-14,-1,417.6006,155)" />
      <path d="M12 -6 L0 0 L12 6 Z" stroke-miterlimit="10" clip-path="url(#clipPath27)" fill="none" stroke-linecap="square" transform="matrix(-1,1.2739809207573671E-14,-1.2739809207573671E-14,-1,417.6006,155)" />
    </g>
    <g font-family="sans-serif" font-size="11" color-rendering="optimizeQuality" color-interpolation="linearRGB" text-rendering="optimizeLegibility" shape-rendering="geometricPrecision" image-rendering="optimizeQuality" transform="matrix(1,0,0,1,116.4163,121)">
      <text x="0" y="11" xml:space="preserve" stroke="none" clip-path="url(#clipPath28)"> </text>
    </g>
    <g font-family="sans-serif" font-size="11" color-rendering="optimizeQuality" color-interpolation="linearRGB" text-rendering="optimizeLegibility" shape-rendering="geometricPrecision" image-rendering="optimizeQuality" transform="matrix(1,0,0,1,121.89680000000001,121)">
      <text x="0" y="11" xml:space="preserve" stroke="none" clip-path="url(#clipPath29)">:</text>
    </g>
    <g font-family="sans-serif" font-size="11" color-rendering="optimizeQuality" color-interpolation="linearRGB" text-rendering="optimizeLegibility" shape-rendering="geometricPrecision" image-rendering="optimizeQuality" transform="matrix(1,0,0,1,127.3772,121)">
      <text x="0" y="11" xml:space="preserve" stroke="none" clip-path="url(#clipPath30)">updateAudioClipInLocalStorage</text>
    </g>
    <g font-family="sans-serif" font-size="11" color-rendering="optimizeQuality" color-interpolation="linearRGB" text-rendering="optimizeLegibility" shape-rendering="geometricPrecision" image-rendering="optimizeQuality" transform="matrix(1,0,0,1,294.4021,121)">
      <text x="0" y="11" xml:space="preserve" stroke="none" clip-path="url(#clipPath31)">(</text>
    </g>
    <g font-family="sans-serif" font-size="11" color-rendering="optimizeQuality" color-interpolation="linearRGB" text-rendering="optimizeLegibility" shape-rendering="geometricPrecision" image-rendering="optimizeQuality" transform="matrix(1,0,0,1,297.9793,121)">
      <text x="0" y="11" xml:space="preserve" stroke="none" clip-path="url(#clipPath32)">audioClipId</text>
    </g>
    <g font-family="sans-serif" font-size="11" color-rendering="optimizeQuality" color-interpolation="linearRGB" text-rendering="optimizeLegibility" shape-rendering="geometricPrecision" image-rendering="optimizeQuality" transform="matrix(1,0,0,1,358.7263,121)">
      <text x="0" y="11" xml:space="preserve" stroke="none" clip-path="url(#clipPath33)">,</text>
    </g>
    <g font-family="sans-serif" font-size="11" color-rendering="optimizeQuality" color-interpolation="linearRGB" text-rendering="optimizeLegibility" shape-rendering="geometricPrecision" image-rendering="optimizeQuality" transform="matrix(1,0,0,1,362.2068,121)">
      <text x="0" y="11" xml:space="preserve" stroke="none" clip-path="url(#clipPath34)">rawAudioData</text>
    </g>
    <g font-family="sans-serif" font-size="11" color-rendering="optimizeQuality" color-interpolation="linearRGB" text-rendering="optimizeLegibility" shape-rendering="geometricPrecision" image-rendering="optimizeQuality" transform="matrix(1,0,0,1,437.0369,121)">
      <text x="0" y="11" xml:space="preserve" stroke="none" clip-path="url(#clipPath35)">,</text>
    </g>
    <g font-family="sans-serif" font-size="11" color-rendering="optimizeQuality" color-interpolation="linearRGB" text-rendering="optimizeLegibility" shape-rendering="geometricPrecision" image-rendering="optimizeQuality" transform="matrix(1,0,0,1,440.51730000000003,121)">
      <text x="0" y="11" xml:space="preserve" stroke="none" clip-path="url(#clipPath36)">metaData</text>
    </g>
    <g font-family="sans-serif" font-size="11" color-rendering="optimizeQuality" color-interpolation="linearRGB" text-rendering="optimizeLegibility" shape-rendering="geometricPrecision" image-rendering="optimizeQuality" transform="matrix(1,0,0,1,491.60720000000003,121)">
      <text x="0" y="11" xml:space="preserve" stroke="none" clip-path="url(#clipPath37)">)</text>
    </g>
    <g font-family="sans-serif" font-size="11" color-rendering="optimizeQuality" stroke-miterlimit="1" color-interpolation="linearRGB" text-rendering="optimizeLegibility" stroke-linecap="butt" shape-rendering="geometricPrecision" image-rendering="optimizeQuality" transform="matrix(1,0,0,1,82,-10)">
      <path d="M427.6005859375 116 L662.43017578125 116" clip-path="url(#clipPath1)" fill="none" />
      <path d="M12 -6 L0 0 L12 6 Z" stroke="none" clip-path="url(#clipPath38)" transform="matrix(-1,-2.831068712794149E-15,2.831068712794149E-15,-1,662.4302,116)" />
      <path d="M12 -6 L0 0 L12 6 Z" stroke-miterlimit="10" clip-path="url(#clipPath38)" fill="none" stroke-linecap="square" transform="matrix(-1,-2.831068712794149E-15,2.831068712794149E-15,-1,662.4302,116)" />
    </g>
    <g font-family="sans-serif" font-size="11" color-rendering="optimizeQuality" color-interpolation="linearRGB" text-rendering="optimizeLegibility" shape-rendering="geometricPrecision" image-rendering="optimizeQuality" transform="matrix(1,0,0,1,520.0213,82)">
      <text x="0" y="11" xml:space="preserve" stroke="none" clip-path="url(#clipPath39)"> </text>
    </g>
    <g font-family="sans-serif" font-size="11" color-rendering="optimizeQuality" color-interpolation="linearRGB" text-rendering="optimizeLegibility" shape-rendering="geometricPrecision" image-rendering="optimizeQuality" transform="matrix(1,0,0,1,525.5018,82)">
      <text x="0" y="11" xml:space="preserve" stroke="none" clip-path="url(#clipPath40)">:</text>
    </g>
    <g font-family="sans-serif" font-size="11" color-rendering="optimizeQuality" color-interpolation="linearRGB" text-rendering="optimizeLegibility" shape-rendering="geometricPrecision" image-rendering="optimizeQuality" transform="matrix(1,0,0,1,530.9822,82)">
      <text x="0" y="11" xml:space="preserve" stroke="none" clip-path="url(#clipPath41)">authenticated</text>
    </g>
    <g font-family="sans-serif" font-size="11" color-rendering="optimizeQuality" color-interpolation="linearRGB" text-rendering="optimizeLegibility" shape-rendering="geometricPrecision" image-rendering="optimizeQuality" transform="matrix(1,0,0,1,603.9485000000001,82)">
      <text x="0" y="11" xml:space="preserve" stroke="none" clip-path="url(#clipPath42)">:=</text>
    </g>
    <g font-family="sans-serif" font-size="11" color-rendering="optimizeQuality" color-interpolation="linearRGB" text-rendering="optimizeLegibility" shape-rendering="geometricPrecision" image-rendering="optimizeQuality" transform="matrix(1,0,0,1,616.1731,82)">
      <text x="0" y="11" xml:space="preserve" stroke="none" clip-path="url(#clipPath43)">authenticate</text>
    </g>
    <g font-family="sans-serif" font-size="11" color-rendering="optimizeQuality" color-interpolation="linearRGB" text-rendering="optimizeLegibility" shape-rendering="geometricPrecision" image-rendering="optimizeQuality" transform="matrix(1,0,0,1,682.2161000000001,82)">
      <text x="0" y="11" xml:space="preserve" stroke="none" clip-path="url(#clipPath44)">(</text>
    </g>
    <g font-family="sans-serif" font-size="11" color-rendering="optimizeQuality" color-interpolation="linearRGB" text-rendering="optimizeLegibility" shape-rendering="geometricPrecision" image-rendering="optimizeQuality" transform="matrix(1,0,0,1,685.7932000000001,82)">
      <text x="0" y="11" xml:space="preserve" stroke="none" clip-path="url(#clipPath45)">authInfo</text>
    </g>
    <g font-family="sans-serif" font-size="11" color-rendering="optimizeQuality" color-interpolation="linearRGB" text-rendering="optimizeLegibility" shape-rendering="geometricPrecision" image-rendering="optimizeQuality" transform="matrix(1,0,0,1,730.4324,82)">
      <text x="0" y="11" xml:space="preserve" stroke="none" clip-path="url(#clipPath46)">)</text>
    </g>
    <g font-family="sans-serif" font-size="11" color-rendering="optimizeQuality" stroke-miterlimit="1" color-interpolation="linearRGB" text-rendering="optimizeLegibility" stroke-linecap="butt" shape-rendering="geometricPrecision" image-rendering="optimizeQuality" transform="matrix(1,0,0,1,82,-10)">
      <path d="M427.6005859375 186 L662.43017578125 186" clip-path="url(#clipPath1)" fill="none" />
      <path d="M12 -6 L0 0 L12 6 Z" stroke="none" clip-path="url(#clipPath47)" transform="matrix(-1,7.438494264988549E-15,-7.438494264988549E-15,-1,662.4302,186)" />
      <path d="M12 -6 L0 0 L12 6 Z" stroke-miterlimit="10" clip-path="url(#clipPath47)" fill="none" stroke-linecap="square" transform="matrix(-1,7.438494264988549E-15,-7.438494264988549E-15,-1,662.4302,186)" />
    </g>
    <g font-family="sans-serif" font-size="11" color-rendering="optimizeQuality" color-interpolation="linearRGB" text-rendering="optimizeLegibility" shape-rendering="geometricPrecision" image-rendering="optimizeQuality" transform="matrix(1,0,0,1,516.5059,152)">
      <text x="0" y="11" xml:space="preserve" stroke="none" clip-path="url(#clipPath48)"> </text>
    </g>
    <g font-family="sans-serif" font-size="11" color-rendering="optimizeQuality" color-interpolation="linearRGB" text-rendering="optimizeLegibility" shape-rendering="geometricPrecision" image-rendering="optimizeQuality" transform="matrix(1,0,0,1,521.9864,152)">
      <text x="0" y="11" xml:space="preserve" stroke="none" clip-path="url(#clipPath49)">:</text>
    </g>
    <g font-family="sans-serif" font-size="11" color-rendering="optimizeQuality" color-interpolation="linearRGB" text-rendering="optimizeLegibility" shape-rendering="geometricPrecision" image-rendering="optimizeQuality" transform="matrix(1,0,0,1,527.4668,152)">
      <text x="0" y="11" xml:space="preserve" stroke="none" clip-path="url(#clipPath50)">audioClipId</text>
    </g>
    <g font-family="sans-serif" font-size="11" color-rendering="optimizeQuality" color-interpolation="linearRGB" text-rendering="optimizeLegibility" shape-rendering="geometricPrecision" image-rendering="optimizeQuality" transform="matrix(1,0,0,1,588.2139000000001,152)">
      <text x="0" y="11" xml:space="preserve" stroke="none" clip-path="url(#clipPath51)">:=</text>
    </g>
    <g font-family="sans-serif" font-size="11" color-rendering="optimizeQuality" color-interpolation="linearRGB" text-rendering="optimizeLegibility" shape-rendering="geometricPrecision" image-rendering="optimizeQuality" transform="matrix(1,0,0,1,600.4385,152)">
      <text x="0" y="11" xml:space="preserve" stroke="none" clip-path="url(#clipPath52)">storeAudioClip</text>
    </g>
    <g font-family="sans-serif" font-size="11" color-rendering="optimizeQuality" color-interpolation="linearRGB" text-rendering="optimizeLegibility" shape-rendering="geometricPrecision" image-rendering="optimizeQuality" transform="matrix(1,0,0,1,679.7158000000001,152)">
      <text x="0" y="11" xml:space="preserve" stroke="none" clip-path="url(#clipPath53)">(</text>
    </g>
    <g font-family="sans-serif" font-size="11" color-rendering="optimizeQuality" color-interpolation="linearRGB" text-rendering="optimizeLegibility" shape-rendering="geometricPrecision" image-rendering="optimizeQuality" transform="matrix(1,0,0,1,683.293,152)">
      <text x="0" y="11" xml:space="preserve" stroke="none" clip-path="url(#clipPath54)">audioClip</text>
    </g>
    <g font-family="sans-serif" font-size="11" color-rendering="optimizeQuality" color-interpolation="linearRGB" text-rendering="optimizeLegibility" shape-rendering="geometricPrecision" image-rendering="optimizeQuality" transform="matrix(1,0,0,1,733.9478,152)">
      <text x="0" y="11" xml:space="preserve" stroke="none" clip-path="url(#clipPath55)">)</text>
    </g>
  </g>
</svg>
